<?xml version="1.0" encoding="utf-8"?>
<!DOCTYPE svg PUBLIC "-//W3C//DTD SVG 1.1//EN" "http://www.w3.org/Graphics/SVG/1.1/DTD/svg11.dtd">
<svg version="1.1" id="Layer_1" xmlns="http://www.w3.org/2000/svg" xmlns:xlink="http://www.w3.org/1999/xlink" x="0px" y="0px"
	 width="103.193px" height="100px" viewBox="0 0 103.193 100" enable-background="new 0 0 103.193 100" xml:space="preserve">
<linearGradient id="gradient" gradientUnits="userSpaceOnUse" x1="17.1387" y1="100" x2="17.1387" y2="0">
	<stop offset="0" style="stop-color:#404040"/>
	<stop offset="1" style="stop-color:#A0A0A0"/>
</linearGradient>
<path fill="#C0C0C0" d="M63.245,4.642c-0.768,2.124-3.352,9.685-6.621,19.231c-1.564-0.379-3.317,0.938-3.959,3.032
	c-0.606,1.979-0.007,3.931,1.334,4.618c-0.473,1.376-0.955,2.771-1.437,4.177c-1.716-0.505-3.684,0.947-4.386,3.261
	c-0.672,2.182,0.021,4.335,1.533,5.033c-0.438,1.249-0.868,2.498-1.296,3.734c-0.034-0.012-0.062-0.038-0.104-0.048
	c-1.936-0.592-4.158,1.044-4.954,3.658c-0.768,2.501,0.049,4.969,1.819,5.703c-0.431,1.231-0.851,2.436-1.261,3.608
	c-0.086-0.032-0.151-0.083-0.238-0.106c-2.08-0.634-4.472,1.121-5.326,3.927c-0.833,2.712,0.072,5.389,2.009,6.149
	c-1.323,3.659-2.363,6.419-2.963,7.811c-2.201,5.099-6.197,3.229-7.196-0.027c-1.006-3.267-3.06-9.185-3.849-14.779
	c-0.135-0.972-0.083-2.026,0.065-3.108l-14.091,4.018c0.752,1.04,1.42,2.201,1.934,3.538c6.104,15.913,7.771,25.518,11.348,28.938
	c2.688,2.581,7.184,5.192,12.792-0.01c8.371-7.766,25.08-75.982,29.366-89.094c1.058-3.24,3.11-3.467,5.405,0.358
	c1.206,2.008,2.467,3.485,3.793,4.618l1.953-2.932c-2.232-2.207-3.617-5.054-4.596-6.66C71.514-1.3,65.392-1.3,63.245,4.642z
	 M44.26,66.282c-0.569,1.854-1.875,2.853-2.822,2.853c-0.127,0-0.258-0.021-0.372-0.055c-1.013-0.311-1.708-2.074-1.085-4.104
	c0.568-1.854,1.878-2.856,2.818-2.856c0.131,0,0.258,0.02,0.382,0.056c0.469,0.145,0.769,0.548,0.934,0.857
	C44.563,63.892,44.617,65.104,44.26,66.282z M48.741,52.992c-0.492,1.609-1.664,2.57-2.508,2.57c-0.117,0-0.224-0.012-0.324-0.045
	c-0.882-0.271-1.484-1.85-0.927-3.676c0.5-1.614,1.668-2.575,2.516-2.575c0.113,0,0.217,0.016,0.316,0.045
	c0.552,0.17,0.83,0.756,0.947,1.09C49.027,51.143,49.017,52.09,48.741,52.992z M52.793,40.377c-0.413,1.352-1.371,2.158-2.061,2.158
	c-0.079,0-0.151-0.01-0.224-0.036c-0.706-0.215-1.154-1.561-0.706-3.037c0.413-1.351,1.374-2.157,2.06-2.157
	c0.083,0,0.152,0.009,0.228,0.035c0.41,0.122,0.631,0.586,0.724,0.846C53.034,38.814,53.027,39.61,52.793,40.377z M56.823,28.178
	c-0.365,1.18-1.212,1.908-1.78,1.908c-0.065,0-0.121-0.008-0.176-0.025c-0.342-0.105-0.524-0.531-0.586-0.705
	c-0.2-0.555-0.187-1.265,0.021-1.95c0.358-1.176,1.202-1.907,1.777-1.907c0.065,0,0.124,0.009,0.176,0.029
	c0.228,0.071,0.39,0.29,0.479,0.463C57.034,26.546,57.064,27.385,56.823,28.178z"/>
<path fill="#808080" d="M101.396,7.655c-4.517-0.25-7.466,2.025-8.72,3.03c-1.247,1.006-4.01,2.579-7.521,2.298
	c-1.574-0.127-2.929-0.618-4.104-1.323l-1.856,2.791c2.102,1.125,4.372,1.537,6.855,1.591c5.736,0.126,9.732-1.55,12.24-2.804
	C100.801,11.984,105.909,7.905,101.396,7.655z"/>
<path fill="#808080" d="M33.259,48.175C21.271,51.365,13.243,53.528,0,57.096c0,0,5.854,0.922,10.342,5.17l16.785-4.784
	C28.277,54.076,30.489,50.639,33.259,48.175z"/>
</svg>
