<?xml version="1.0" encoding="utf-8"?>
<!DOCTYPE svg PUBLIC "-//W3C//DTD SVG 1.1//EN" "http://www.w3.org/Graphics/SVG/1.1/DTD/svg11.dtd">
<svg version="1.1" id="Layer_1" xmlns="http://www.w3.org/2000/svg" xmlns:xlink="http://www.w3.org/1999/xlink" x="0px" y="0px"
	 width="100px" height="100px" viewBox="0 0 100 100" enable-background="new 0 0 100 100" xml:space="preserve">
<linearGradient id="gradient" gradientUnits="userSpaceOnUse" x1="17.1387" y1="100" x2="17.1387" y2="0">
	<stop offset="0" style="stop-color:#404040"/>
	<stop offset="1" style="stop-color:#A0A0A0"/>
</linearGradient>
<path fill="#808080" d="M84.344,18.259l0.627,0.627c0.654,0.657,1.716,0.657,2.374,0L99.509,4.349c0.654-0.654,0.654-1.717,0-2.375
	l-1.481-1.483c-0.658-0.654-1.723-0.654-2.38,0L81.112,12.655c-0.655,0.655-0.655,1.718,0,2.374l0.63,0.628L36.284,57.953
	l5.764,5.759L84.344,18.259z"/>
<path fill="#808080" d="M40.222,68.68c0.655-0.654,0.655-1.716,0-2.373l-6.528-6.527c-0.658-0.656-1.719-0.656-2.37,0l-1.585,1.583
	c-0.658,0.656-0.658,1.716,0,2.374l6.525,6.524c0.658,0.658,1.716,0.658,2.374,0L40.222,68.68z"/>
<path fill="#808080" d="M33.797,76.294c0.654-0.651,0.654-1.713,0-2.37l-7.724-7.721c-0.655-0.655-1.72-0.655-2.37,0l-3.312,2.621
	c-0.654,0.662-0.654,1.72,0,2.374l8.41,8.409c0.654,0.655,1.716,0.655,2.373,0L33.797,76.294z"/>
<path fill="#C0C0C0" d="M32.611,85.713c-0.657,0.657-1.719,0.657-2.373,0L14.287,69.762c-0.658-0.654-0.658-1.716,0-2.374
	l28.144-18.791c-0.507-1.337-0.899-3.693-0.896-4.883c0.007-5.669,4.503-8.017,7.283-9.381c2.784-1.362,0.724-3.051-1.374-3.128
	c-2.099-0.081-6.108-0.675-10.681,3.559c-5.608,5.199-1.942,12.251-6.432,16.5c-5.137,4.863-15.079-4.482-25.759,6.494
	c-5.412,5.566-8.6,16.618,5.701,31.666l0.304,0.304c15.048,14.3,26.104,11.113,31.664,5.701c10.979-10.68,1.633-20.622,6.494-25.759
	c4.251-4.493,11.303-0.823,16.498-6.433c4.237-4.571,3.646-8.585,3.563-10.681c-0.079-2.095-1.768-4.157-3.128-1.375
	c-1.364,2.78-3.714,7.279-9.378,7.286c-1.536,0.002-3.272-0.467-5.002-1.28L32.611,85.713z"/>
</svg>
