<?xml version="1.0" encoding="utf-8"?>
<!DOCTYPE svg PUBLIC "-//W3C//DTD SVG 1.1//EN" "http://www.w3.org/Graphics/SVG/1.1/DTD/svg11.dtd">
<svg version="1.1" id="Layer_1" xmlns="http://www.w3.org/2000/svg" xmlns:xlink="http://www.w3.org/1999/xlink" x="0px" y="0px"
	 width="115.515px" height="129.166px" viewBox="0 0 115.515 129.166" enable-background="new 0 0 115.515 129.166"
	 xml:space="preserve">
<path fill="#808080" d="M27.397,126.934c0.688-1.791-0.209-3.801-1.999-4.486l-20.681-7.93c-1.791-0.688-3.799,0.209-4.486,2l0,0
	c-0.686,1.791,0.207,3.801,1.999,4.487l20.681,7.929C24.7,129.621,26.709,128.725,27.397,126.934L27.397,126.934z"/>
<path fill="#808080" d="M76.581,16.107c-0.375,0.979-1.471,1.468-2.449,1.093L38.843,3.669c-0.979-0.375-1.468-1.473-1.093-2.451
	l0,0c0.375-0.979,1.472-1.467,2.451-1.092l35.287,13.53C76.467,14.032,76.957,15.129,76.581,16.107L76.581,16.107z"/>
<path fill="#808080" d="M23.566,32.385c-0.77,0.479-3.094,1.545-4.157,2.19c-0.307-7.277-4.607-20.885,4.455-24.78
	c9.223-3.963,15.164,5.54,17.387,8.327c0,1.556,0.055,2.279,0.075,3.614c-7.458-11.888-12.681-10.04-15.698-8.545
	C21.901,15.038,19.264,22.415,23.566,32.385z"/>
<path fill="#808080" d="M66.292,48.767c0.254,0.871,1.268,3.217,1.629,4.409c5.092-5.208,17.389-12.452,13.254-21.407
	c-4.209-9.113-14.98-6.019-18.497-5.432c-1.04,1.157-1.565,1.658-2.472,2.637c13.494-3.854,16.143,1.012,17.387,4.141
	C79.129,36.98,76.158,44.23,66.292,48.767z"/>
<path fill="#C0C0C0" d="M56.761,33.642c0.81-6.655,8.38-12.266,15.654-15.088c-4.388-1.682-16.602-6.366-16.602-6.366
	S43.599,7.505,39.212,5.823c3.522,6.962,5.401,16.196,1.554,21.687c-2.878,4.106-15.232,4.148-23.645,10.285l50.348,19.305
	C65.315,46.911,56.157,38.62,56.761,33.642z M8.932,55.603C8.4,71.404,14.989,93.735,4.95,112.846l21.393,8.203
	c5.313-20.926,25.143-33.127,35.311-45.232L8.932,55.603z"/>
<path fill="#808080" d="M67.875,60.097L14.814,39.752c-1.812,1.784-3.325,3.97-4.341,6.714c-0.717,1.928-1.142,4.062-1.369,6.36
	L63.38,73.637c1.368-1.861,2.479-3.731,3.235-5.644C67.694,65.272,68.031,62.634,67.875,60.097z"/>
<path fill="#C0C0C0" d="M85.049,105.788c-0.67-3.752,0.465-9.389,3.278-8.451s-1.557,9.137,5.565,12.471
	c6.298,2.948,14.069-4.02,21.622-13.314c-6.121,4.292-20.96,7.762-19.897-12.045c1.057-19.699,9.982-19.434,10.511-37.547
	C107.066,14.811,75.04,12.13,75.04,12.13c14.099,4.627,26.391,19.727,21.787,34.194C92.391,60.264,70.628,70.7,77.504,98.594
	c0,0,1.918-12.369,4.731-12.235S78.082,98.955,85.049,105.788z"/>
</svg>
