<?xml version="1.0" encoding="utf-8"?>
<!DOCTYPE svg PUBLIC "-//W3C//DTD SVG 1.1//EN" "http://www.w3.org/Graphics/SVG/1.1/DTD/svg11.dtd">
<svg version="1.1" id="Layer_1" xmlns="http://www.w3.org/2000/svg" xmlns:xlink="http://www.w3.org/1999/xlink" x="0px" y="0px"
	 width="173.8px" height="130.579px" viewBox="0 0 173.8 130.579" enable-background="new 0 0 173.8 130.579" xml:space="preserve">
<path fill="#808080" d="M23.718,65.406c-10.631-1.05-13.137-43.086,9.317-47.007c13.191-2.303,17.778,7.207,26.518,21.996
	c8.869,1.246,16.72-4.408,18.488-10.756C64.922,4.349,49.56-0.721,34.187,0.078C20.262,0.811,0.212,13.553,0.002,39.517
	C-0.212,66.128,12.818,76.59,20.775,76.793c7.667,0.195,19.388-4.616,11.736-29.813C32.951,54.783,32.198,66.243,23.718,65.406z"/>
<path fill="#808080" d="M139.612,0.078c-15.374-0.798-30.735,4.271-43.853,29.561c1.767,6.349,9.618,12.002,18.486,10.756
	c8.74-14.79,13.326-24.299,26.518-21.996c22.455,3.921,19.949,45.957,9.318,47.007c-8.48,0.837-9.233-10.623-8.795-18.426
	c-7.651,25.197,4.069,30.008,11.736,29.813c7.958-0.203,20.988-10.665,20.773-37.276C173.588,13.553,153.537,0.811,139.612,0.078z"
	/>
<path fill="#C0C0C0" d="M86.9,124.619c-3.175-0.127-9.331,0.327-9.236,1.296c0.133,1.367,6.089,4.697,9.236,4.664
	c3.147,0.033,9.102-3.297,9.237-4.664C96.23,124.946,90.074,124.492,86.9,124.619z M115.431,42.402
	c-16.315,0.952-20.341-9.117-21.841-12.58c-1.593-0.724-3.609-1.241-6.69-1.226c-3.081-0.015-5.097,0.502-6.69,1.226
	c-1.5,3.462-5.525,13.531-21.841,12.58c-4.804-7.054-16.012-16.849-31.592-12.233c14.932,23.967,23.632,23.266,24.971,21.148
	c3.938-6.232-20.062-17.917-20.062-17.917s18.009,3.892,23.349,15.023l-0.677,3.558c-6.232,27.235,12.619,30.858,15.811,45.124
	c1.962,8.771-1.385,16.271,2.882,22.5c2.959,4.319,8.023,4.262,13.157,2.654c0.002-0.064-1.034-6.614-2.278-7.305
	c-0.927-0.516-4.457,1.172-6.223,0.508c-2.59-0.976-3.214-3.418-1.621-6.018c1.614-9.328,0.873-14,0.167-24.004
	c0,0,3.905,7.918,2.48,24.318c2.253,1.059,3.316,1.788,8.167,1.755c4.85,0.033,5.915-0.696,8.167-1.755
	c-1.424-16.4,2.48-24.318,2.48-24.318c-0.706,10.004-1.447,14.676,0.166,24.004c1.594,2.6,0.971,5.042-1.621,6.018
	c-1.766,0.664-5.295-1.023-6.222-0.508c-1.244,0.69-2.28,7.24-2.278,7.305c5.134,1.607,10.197,1.665,13.157-2.654
	c4.267-6.229,0.919-13.729,2.882-22.5c3.191-14.266,22.041-17.889,15.81-45.124l-0.677-3.558c5.34-11.132,23.35-15.023,23.35-15.023
	s-24,11.686-20.061,17.917c1.338,2.118,10.039,2.819,24.971-21.148C131.443,25.553,120.234,35.348,115.431,42.402z M68.544,61.556
	c1.447,0,2.621,1.173,2.621,2.621s-1.173,2.621-2.621,2.621s-2.621-1.174-2.621-2.621S67.097,61.556,68.544,61.556z M64.416,70.128
	c-2.933-1.693-5.218-7.33-1.973-10.833c1.516-0.09,2.929,0.088,4.229,0.45c-1.029,0.389-1.935,1.121-2.527,2.148
	c-1.363,2.36-0.554,5.379,1.807,6.742c2.361,1.363,5.379,0.555,6.743-1.807c0.442-0.766,0.652-1.601,0.658-2.426
	c1.104,1.549,1.756,3.26,1.832,4.857C70.366,72.098,67.349,71.821,64.416,70.128z M105.256,61.556c1.447,0,2.621,1.173,2.621,2.621
	s-1.174,2.621-2.621,2.621s-2.621-1.174-2.621-2.621S103.809,61.556,105.256,61.556z M109.278,70.222
	c-2.933,1.693-5.95,1.969-10.768-0.871c0.076-1.596,0.728-3.307,1.832-4.856c0.006,0.826,0.216,1.661,0.658,2.427
	c1.362,2.361,4.382,3.17,6.742,1.807s3.17-4.382,1.807-6.742c-0.593-1.027-1.499-1.759-2.527-2.147
	c1.301-0.362,2.714-0.54,4.229-0.45C114.496,62.892,112.211,68.528,109.278,70.222z"/>
</svg>
