<?xml version="1.0" encoding="utf-8"?>
<!DOCTYPE svg PUBLIC "-//W3C//DTD SVG 1.1//EN" "http://www.w3.org/Graphics/SVG/1.1/DTD/svg11.dtd">
<svg version="1.1" id="Layer_1" xmlns="http://www.w3.org/2000/svg" xmlns:xlink="http://www.w3.org/1999/xlink" x="0px" y="0px"
	 width="130.484px" height="130.554px" viewBox="0 0 130.484 130.554" enable-background="new 0 0 130.484 130.554"
	 xml:space="preserve">
<g>
	<path fill="#808080" d="M16.58,113.975c-1.536-1.579-2.098-5.387-2.098-5.387c-6.273-3.373-12.567-0.495-14.397,0.627
		c-0.414,2.674,0.711,4.837,2.96,6.221c-0.562,2.703,0.973,4.953,3.482,6.165c-0.195,0.714-0.063,2.489-0.063,2.489"/>
	<path fill="#808080" d="M16.58,113.975c1.579,1.535,5.386,2.098,5.386,2.098c3.374,6.272,0.496,12.566-0.627,14.396
		c-2.673,0.414-4.836-0.71-6.22-2.959c-2.703,0.562-4.953-0.973-6.164-3.482c-0.714,0.195-2.49,0.063-2.49,0.063"/>
</g>
<path fill="#FFFFFF" stroke="#000000" stroke-width="0.2741" d="M87.43,43.096"/>
<path fill="#C0C0C0" d="M71.959,75.477c-4.027,0.74-8.463-0.833-12.27-4.64c-3.807-3.808-5.38-8.243-4.639-12.271
	c-4.23,0.65-8.537,2.777-12.066,6.307c-4.931,4.931-7.127,11.381-6.372,17.018c1.313,2.406,3.036,4.736,5.161,6.861
	s4.456,3.85,6.863,5.161c5.635,0.757,12.086-1.44,17.017-6.372C69.182,84.014,71.311,79.707,71.959,75.477z"/>
<path fill="#C0C0C0" d="M43,101.445c-2.745-0.993-5.698-2.888-8.351-5.54c-2.652-2.652-4.547-5.605-5.54-8.351
	c-0.74,0.677-1.476,1.38-2.206,2.11c-1.001,1.002-1.949,2.016-2.849,3.033c0.825,2.578,2.608,5.545,5.433,8.369
	c2.825,2.825,5.792,4.608,8.37,5.434c1.018-0.9,2.031-1.848,3.033-2.85C41.62,102.92,42.324,102.184,43,101.445z M23.047,93.864
	c-1.662,1.971-3.122,3.941-4.349,5.854c0.949,2.273,2.593,4.766,4.984,7.156s4.882,4.034,7.155,4.984
	c1.912-1.229,3.883-2.688,5.854-4.35c-2.692-1.01-5.576-2.879-8.17-5.475C25.926,99.44,24.057,96.557,23.047,93.864z
	 M17.847,101.095c-1.263,2.133-2.224,4.17-2.836,6.022c0.004,0.002,0.007,0.004,0.011,0.006c0,0,0.739,4.17,2.467,5.943
	c1.771,1.728,5.943,2.466,5.943,2.466c0.002,0.005,0.004,0.008,0.006,0.012c1.852-0.612,3.889-1.573,6.021-2.837
	c-2.266-1.078-4.604-2.726-6.746-4.867C20.573,105.699,18.926,103.362,17.847,101.095z M43.967,100.364
	c1.636-1.87,3.093-3.749,4.348-5.586l-0.116-0.063c-2.56-1.396-4.938-3.186-7.07-5.317c-2.132-2.132-3.921-4.51-5.317-7.071
	l-0.045-0.08c-1.834,1.252-3.709,2.707-5.577,4.342c0.827,2.574,2.608,5.531,5.426,8.35C38.435,97.755,41.393,99.538,43.967,100.364
	z"/>
<path fill="#808080" d="M35.532,78.171c0.098-1.023,0.349-2.114,0.349-2.114c-5.341-1.762-8.082-5.677-9.508-4.25
	c-1.902-0.896-8.501-1.791-8.715,0.742c-2.413-1.628-4.851,2.386-6.593,5.12c4.207-3.401,5.889-2.043,6.855-4.301
	c3.132,1.398,2.216-1.534,7.74-0.126C25.842,75.694,31.407,76.952,35.532,78.171z"/>
<path fill="#808080" d="M36.501,72.77c0.318-0.977,0.802-1.986,0.802-1.986c-4.826-2.888-6.643-7.308-8.346-6.228
	c-1.66-1.29-7.568-4.571-8.332-2.146c-1.998-2.117-6.845-0.369-9.143,1.918c4.849-2.398,7.783,0.93,9.22-1.061
	c2.75,2.049,2.162-0.05,7.244,2.532C27.587,68.233,32.742,70.678,36.501,72.77z"/>
<path fill="#808080" d="M42.63,63.274c-0.915,0.471-1.511,1.432-1.511,1.432c-3.618-4.305-6.659-7.01-5.863-8.863
	c-1.537-1.433-5.716-6.744-3.443-7.883c-2.408-1.636-1.453-6.699,0.439-9.332c-1.598,5.168,2.155,7.535,0.419,9.271
	c2.461,2.39,0.295,2.143,3.653,6.749C38.667,53.906,39.967,59.897,42.63,63.274z"/>
<path fill="#808080" d="M38.726,68.656c0.507-0.894,1.183-1.786,1.183-1.786c-4.152-3.793-4.817-7.398-7.257-7.504
	c-1.369-1.596-4.064-6.286-6.415-4.969c-1.535-2.473-3.396-1.984-7.581-4.021c3.297,2.736,5.393,5.848,6.879,4.996
	c0.319,1.287,1.873,2.161,5.942,4.979C30.638,62.661,35.46,65.856,38.726,68.656z"/>
<path fill="#808080" d="M81.412,12.858c0,0-12.821-2.14-21.394,6.18c-4.488,4.355-0.252,7.924-4.577,12.645
	c-4.326,4.721-9.946,3.325-12.38,0.521c-3.991-4.596-1.811-10.459,0.32-13.124C45.514,16.416,59.252,1.594,81.412,12.858z"/>
<path fill="#808080" d="M59.53,22.657c-0.906,1.439-0.053,4.643-1.388,7.061c8.37-5.516,16.364-8.606,16.028-9.998
	c-0.242-0.996-5.583,0.482-7.818,1.019C64.094,21.28,59.53,22.657,59.53,22.657z"/>
<path fill="#808080" d="M47.006,35.932c-1.748-0.367-3.384-1.21-4.604-2.43c-0.132-0.131-0.256-0.266-0.375-0.401
	c-0.247-0.284-0.471-0.575-0.679-0.868c-0.669,0.789-1.31,1.717-1.876,2.76c-2.102,3.876-2.37,7.797-0.598,8.758
	s4.912-1.402,7.014-5.277C46.353,37.617,46.723,36.76,47.006,35.932z"/>
<path fill="#808080" d="M43.515,43.216c1.614,1.754,2.052,4.456,3.589,7.947c0.526,1.195,1.502,4.62,1.816,8.177
	c-1.818,0.501-1.661,0.6-3.346,1.566c-0.841-2.586-2.115-5.441-3.601-8.162c-1.55-2.838-6.272-7.996-2.991-7.853
	C42.147,45.031,43.515,43.216,43.515,43.216z"/>
<circle fill="#808080" cx="74.616" cy="48.345" r="1.672"/>
<circle fill="#808080" cx="82.181" cy="55.911" r="1.672"/>
<path fill="#C0C0C0" d="M81.624,58.432c-0.467-0.103-0.91-0.332-1.271-0.693c-1.008-1.008-1.008-2.648-0.001-3.656
	c0.539-0.539,1.258-0.785,1.965-0.748c0.592-3.695,2.246-6.749,5.113-10.238c-3.488,2.867-6.542,4.522-10.236,5.113
	c0.036,0.707-0.211,1.426-0.75,1.965c-1.008,1.008-2.648,1.008-3.656,0c-0.361-0.361-0.591-0.805-0.693-1.271
	c-4.352,0.608-9.2,0.922-12.889,4.677c-4.574,4.654-3.729,11.109,1.452,16.289c5.18,5.181,11.634,6.025,16.29,1.452
	C80.702,67.632,81.014,62.784,81.624,58.432z"/>
<path fill="#808080" d="M78.809,47.055c15.324-18.716,15.807-30.322,6.129-39.676C75.26-1.976,58.325,0.766,51.229,3.024
	c10.27-3.642,24.65-5.598,34.677,3.709c7.944,7.374,10.723,20.162-2.257,38.064C81.712,46.088,78.809,47.055,78.809,47.055z"/>
<path fill="#808080" d="M52.313,94.952c1.023-0.098,2.114-0.349,2.114-0.349c1.762,5.341,5.677,8.082,4.251,9.508
	c0.895,1.901,1.79,8.501-0.744,8.716c1.629,2.412-2.385,4.85-5.12,6.592c3.402-4.207,2.043-5.889,4.301-6.855
	c-1.398-3.132,1.534-2.216,0.126-7.739C54.79,104.643,53.532,99.077,52.313,94.952z"/>
<path fill="#808080" d="M57.714,93.983c0.977-0.318,1.986-0.803,1.986-0.803c2.888,4.826,7.308,6.643,6.228,8.347
	c1.289,1.66,4.57,7.568,2.145,8.331c2.117,1.998,0.369,6.846-1.917,9.145c2.4-4.85-0.93-7.783,1.061-9.222
	c-2.049-2.751,0.05-2.161-2.533-7.243C62.251,102.897,59.806,97.742,57.714,93.983z"/>
<path fill="#808080" d="M67.209,87.854c-0.471,0.914-1.432,1.511-1.432,1.511c4.306,3.618,7.01,6.659,8.863,5.864
	c1.434,1.537,6.744,5.715,7.884,3.442c1.636,2.407,6.699,1.453,9.332-0.44c-5.169,1.599-7.536-2.154-9.272-0.418
	c-2.39-2.461-2.143-0.295-6.748-3.652C76.578,91.817,70.587,90.518,67.209,87.854z"/>
<path fill="#808080" d="M61.828,91.758c0.894-0.508,1.786-1.184,1.786-1.184c3.793,4.152,7.399,4.817,7.504,7.258
	c1.596,1.369,6.287,4.063,4.969,6.414c2.473,1.535,1.984,3.396,4.021,7.582c-2.735-3.297-5.848-5.393-4.994-6.88
	c-1.289-0.319-2.163-1.873-4.98-5.942C67.824,99.845,64.628,95.024,61.828,91.758z"/>
<path fill="#808080" d="M117.625,49.073c0,0,2.141,12.82-6.18,21.394c-4.355,4.487-7.924,0.251-12.645,4.577
	c-4.721,4.324-3.324,9.945-0.521,12.379c4.596,3.991,10.459,1.811,13.124-0.32C114.069,84.97,128.89,71.231,117.625,49.073z"/>
<path fill="#808080" d="M107.828,70.954c-1.439,0.906-4.643,0.053-7.061,1.389c5.515-8.371,8.606-16.364,9.997-16.029
	c0.997,0.242-0.482,5.584-1.019,7.818C109.205,66.389,107.828,70.954,107.828,70.954z"/>
<path fill="#808080" d="M94.552,83.478c0.366,1.748,1.21,3.384,2.429,4.604c0.132,0.132,0.266,0.256,0.402,0.375
	c0.285,0.247,0.574,0.471,0.867,0.679c-0.788,0.668-1.717,1.311-2.76,1.876c-3.875,2.103-7.796,2.37-8.758,0.599
	c-0.961-1.771,1.402-4.912,5.277-7.015C92.868,84.13,93.724,83.761,94.552,83.478z"/>
<path fill="#808080" d="M87.268,86.969c-1.754-1.614-4.456-2.053-7.947-3.59c-1.195-0.525-4.62-1.502-8.177-1.816
	c-0.501,1.818-0.6,1.66-1.567,3.346c2.586,0.841,5.441,2.114,8.162,3.601c2.838,1.55,7.997,6.271,7.854,2.991
	C85.454,88.336,87.268,86.969,87.268,86.969z"/>
<path fill="#808080" d="M83.428,51.674c18.717-15.324,30.322-15.807,39.678-6.129c9.354,9.678,6.612,26.613,4.354,33.709
	c3.643-10.27,5.598-24.649-3.709-34.676c-7.373-7.945-20.161-10.723-38.064,2.258C84.396,48.772,83.428,51.674,83.428,51.674z"/>
</svg>
