<?xml version="1.0" encoding="utf-8"?>
<!DOCTYPE svg PUBLIC "-//W3C//DTD SVG 1.1//EN" "http://www.w3.org/Graphics/SVG/1.1/DTD/svg11.dtd">
<svg version="1.1" id="Layer_1" xmlns="http://www.w3.org/2000/svg" xmlns:xlink="http://www.w3.org/1999/xlink" x="0px" y="0px"
	 width="144.563px" height="130.102px" viewBox="0 0 144.563 130.102" enable-background="new 0 0 144.563 130.102"
	 xml:space="preserve">
<path fill="#808080" d="M53.083,22.507c16.918-16.628,40.004-26.468,58.62-20.98c25.105,7.401,55.812,49.382,6.927,93.688
	c16.582-31.432,14.736-65.951-9.83-73.517c-16.684-5.138-32.206,8.977-34.808,12.903C59.13,32.705,53.083,22.507,53.083,22.507z"/>
<path fill="#C0C0C0" d="M83.676,51.106c-3.212,2.523,3.122,17.539,0.902,25.811c-2.783,10.372-13.3,11.271-26.262,11.722
	c7.551-1.578,18.073-2.803,22.316-12.173c2.705-5.974-3.72-25.81,3.607-27.05c7.326-1.24,22.879,4.283,37.655-6.547
	c-12.48-17.124-36.459-10.722-46.327-7.094c-5.66,1.161-17.704-2.902-23.8-12.335C25.341,47.835,0.915,85.384,0.265,89.421
	c-0.651,4.037,0.105,5.588,0.104,5.729c2.651,0.561,3.804,0.064,4.751-0.71c1.667-1.363,0.451-2.951,1.966-5.829
	c1.515-2.877,12.269-19.236,25.75-27.112c-6.968,7.725-15.147,17.268-19.085,23.022c-3.938,5.756-3.597,6.486-3.484,9.997
	c0.253,7.825-6.613,6.008-9.033,4.451c1.524,3.798,2.921,6.224,5.303,7.879c2.383,1.656,15.771,6.17,20.273-6.351
	c7.541-20.975,26.928,10.53,26.847,29.604c3.596-5.152,4.54-30.058,2.613-36.279c7.495,5.229,20.171,22.858,20.607,32.217
	c15.817-26.122,30.62-28.153,40.054-63.998C102.724,61.588,88.409,47.386,83.676,51.106z M119.349,42.782
	C99.385,50.85,81.745,44.97,81.745,44.97C90.36,41.551,107.452,37.586,119.349,42.782z M44.862,50.248
	c1.313-0.558,2.438-0.867,2.997,0.446c0.559,1.313-0.053,2.83-1.366,3.389c-1.313,0.558-2.83-0.054-3.389-1.366
	C42.546,51.404,43.549,50.807,44.862,50.248z M38.194,56.83c0.951-1.296,1.56-1.837,2.53-3.113c0.847,1.765,2.644,2.986,4.731,2.986
	c2.9,0,5.251-2.352,5.251-5.251c0-0.635-0.119-1.242-0.325-1.806c1.358,0.307,2.868,0.886,4.566,1.806
	C50.124,65.042,38.194,56.83,38.194,56.83z"/>
</svg>
