<?xml version="1.0" encoding="utf-8"?>
<!DOCTYPE svg PUBLIC "-//W3C//DTD SVG 1.1//EN" "http://www.w3.org/Graphics/SVG/1.1/DTD/svg11.dtd">
<svg version="1.1" id="Layer_1" xmlns="http://www.w3.org/2000/svg" xmlns:xlink="http://www.w3.org/1999/xlink" x="0px" y="0px"
	 width="132.598px" height="130.458px" viewBox="0 0 132.598 130.458" enable-background="new 0 0 132.598 130.458"
	 xml:space="preserve">
<path fill="#C0C0C0" d="M66.39,109.654v-0.013c3.14-0.194,8.671-1.648,10.595-3.248c1.959-1.63,3.482-6.89,2.117-8.893
	c-0.969-1.422-5.313,0.54-12.712-2.927h-0.183c-7.398,3.467-11.744,1.505-12.713,2.927c-1.363,2.003,0.159,7.263,2.118,8.893
	c1.925,1.6,7.456,3.054,10.595,3.248v0.013H66.39z"/>
<path fill="#808080" d="M119.741,43.896c5.027-1.084,9.093,0.75,12.218,3.283c-5.538-14.358-13.446-18.091-21.767-20.513
	c3.736-0.388,7.396,0.034,12.015,2.461c-7.622-12.133-14.091-19.064-34.183-21.743c3.916-1.172,7.15-1.456,12.113-0.82
	C97.07,3.295,81.727,0.027,66.39,0.001V0c-0.03,0-0.062,0-0.091,0c-0.03,0-0.062,0-0.092,0v0.001
	c-15.336,0.026-30.68,3.294-33.746,6.563c4.962-0.636,8.196-0.352,12.113,0.82c-20.092,2.679-26.563,9.61-34.184,21.743
	c4.618-2.427,8.279-2.849,12.015-2.461C14.084,29.087,6.178,32.82,0.639,47.179c3.125-2.533,7.191-4.367,12.218-3.283
	C5.87,45.924-0.935,53.657,0.106,66.871c2.194-4.741,8.138-6.912,13.469-6.564C9.223,62.33-0.203,71.382,3.903,86.152
	c2.066-4.361,5.26-8.615,12.443-7.795c-5.34,4.028-10.452,10.844-2.158,25.846c0.668-5.257,3.441-8.262,9.343-9.436
	c-3.437,4.717-4.334,13.553,5.706,22.563c1.408-6.138,5.027-8.372,7.999-8.817c-2.124,4.913,0.261,14.23,11.858,19.119
	c-1.273-5.195,1.422-10.278,3.742-12.051c1.686,12.402,11.467,8.166,13.463,14.877c1.994-6.711,11.777-2.475,13.462-14.877
	c2.321,1.772,5.016,6.855,3.743,12.051c11.597-4.889,13.981-14.206,11.857-19.119c2.971,0.445,6.592,2.68,8,8.817
	c10.039-9.011,9.142-17.847,5.705-22.563c5.901,1.174,8.676,4.179,9.343,9.436c8.294-15.002,3.183-21.817-2.157-25.846
	c7.184-0.82,10.375,3.434,12.443,7.795c4.105-14.77-5.321-23.822-9.674-25.846c5.332-0.347,11.275,1.823,13.471,6.564
	C133.534,53.657,126.728,45.924,119.741,43.896z M96.145,42.095c2.543,7.922,3.141,15.397,0.748,22.947
	c-2.824,8.914-7.735,8.059-10.316,15.831c-0.787,2.373,1.253,5.244,0.523,9.069c-0.424,2.223-2.823,4.317-4.186,6.87
	c-1.521,2.847-2.043,6.137-2.99,8.247c-1.795,4.001-7.256,5.039-13.625,6.966c-6.369-1.927-11.83-2.965-13.627-6.966
	c-0.946-2.11-1.467-5.4-2.988-8.247c-1.363-2.553-3.762-4.647-4.187-6.87c-0.729-3.825,1.31-6.696,0.522-9.069
	c-2.58-7.772-7.49-6.917-10.315-15.831c-2.392-7.549-1.794-15.024,0.747-22.947c-7.025-5.458-11.934-14.115-4.225-18.28
	c5.822-3.146,13.834,2.594,15.973,5.749c5.361-3.516,16.773-3.816,18.1-3.839c1.325,0.023,12.737,0.323,18.1,3.839
	c2.138-3.155,10.149-8.896,15.973-5.749C108.079,27.98,103.172,36.637,96.145,42.095z"/>
<path fill="#C0C0C0" d="M99.202,31.905c-1.218-5.078-7.561-2.91-12.275,1.597c-4.453-3.34-10.974-5.624-20.536-5.653v-0.005
	c-0.031,0-0.06,0.002-0.091,0.002s-0.061-0.002-0.092-0.002v0.005c-9.563,0.029-16.082,2.313-20.536,5.653
	c-4.715-4.506-11.058-6.674-12.275-1.596c-0.831,3.467,3.646,7.678,5.684,9.693c-3.483,7.341-2.712,15.405-2.544,18.093
	c0.502,8.077,12.048,18.253,12.4,20.791c0.348,2.501-1.816,3.977-1.488,8.719c0.328,4.743,3.926,5.967,7.355,5.967
	c3.429,0,5.943-0.227,11.102-2.843c0,0-0.82-6.532-2.943-8.607c-2.123-2.074-6.089-2.854-4.974-4.536
	c0.775-1.17,3.644,1.062,8.22,1.121v0.006c0.031,0,0.061-0.002,0.092-0.002s0.06,0.002,0.091,0.002v-0.006
	c4.577-0.06,7.444-2.291,8.22-1.121c1.115,1.682-2.851,2.462-4.973,4.536c-2.125,2.075-2.943,8.607-2.943,8.607
	c5.158,2.616,7.672,2.843,11.102,2.843c3.429,0,7.027-1.224,7.355-5.967c0.326-4.742-1.837-6.218-1.489-8.719
	c0.35-2.519,11.898-12.715,12.401-20.791c0.168-2.688,0.939-10.752-2.544-18.093C95.556,39.582,100.034,35.372,99.202,31.905z
	 M58.482,69.253c-0.672-5.411-2.06-13.63-6.106-15.201c-1.482,2.057-2.966,2.594-5.246,1.965c-2.281-0.629-3.294-3.314-3.649-4.97
	c-2.058-0.75-5.03-1.044-5.03-1.044c3.482-0.82,11.684-3.408,17.75,3.752C58.872,56.293,59.397,66.833,58.482,69.253z
	 M89.118,51.047c-0.355,1.656-1.367,4.341-3.649,4.97c-2.28,0.629-3.763,0.092-5.247-1.965c-4.045,1.571-5.434,9.79-6.105,15.201
	c-0.914-2.42-0.389-12.96,2.283-15.498c6.065-7.161,14.268-4.573,17.749-3.752C94.148,50.003,91.176,50.297,89.118,51.047z"/>
<path fill="#C0C0C0" d="M50.894,51.719c0.001,0.03,0.009,0.058,0.009,0.088c0,1.316-1.067,2.383-2.383,2.383
	s-2.383-1.067-2.383-2.383c0-0.552,0.195-1.054,0.511-1.458c-0.724,0.508-1.2,1.346-1.2,2.297c0,1.55,1.258,2.808,2.809,2.808
	s2.807-1.258,2.807-2.808C51.063,52.319,50.997,52.011,50.894,51.719z"/>
<path fill="#C0C0C0" d="M85.953,50.352c0.314,0.404,0.509,0.905,0.509,1.456c0,1.316-1.067,2.383-2.383,2.383
	s-2.383-1.067-2.383-2.383c0-0.033,0.009-0.063,0.01-0.096c-0.104,0.294-0.172,0.605-0.172,0.935c0,1.55,1.258,2.808,2.809,2.808
	c1.55,0,2.807-1.258,2.807-2.808C87.149,51.696,86.674,50.86,85.953,50.352z"/>
</svg>
