<?xml version="1.0" encoding="utf-8"?>
<!DOCTYPE svg PUBLIC "-//W3C//DTD SVG 1.1//EN" "http://www.w3.org/Graphics/SVG/1.1/DTD/svg11.dtd">
<svg version="1.1" id="Layer_1" xmlns="http://www.w3.org/2000/svg" xmlns:xlink="http://www.w3.org/1999/xlink" x="0px" y="0px"
	 width="178.891px" height="130.632px" viewBox="0 0 178.891 130.632" enable-background="new 0 0 178.891 130.632"
	 xml:space="preserve">
<path fill="#808080" d="M91.155,16.308c1.333-1.382,2.256-4.319,2.256-7.73C93.411,3.84,89.445,0,89.445,0s-3.967,3.84-3.967,8.578
	c0,3.411,0.923,6.349,2.257,7.73c-1.616,0.671-2.752,2.264-2.752,4.122c0,2.464,1.998,4.462,4.462,4.462
	c2.464,0,4.462-1.998,4.462-4.462C93.907,18.572,92.771,16.979,91.155,16.308z"/>
<path fill="#808080" d="M116.67,130.632c-0.036-3.716-3.056-6.717-6.78-6.717H68.66c-3.725,0-6.744,3.001-6.78,6.717H116.67z"/>
<path fill="#C0C0C0" d="M93.878,115.411h-9.207c-1.222,1.196-1.982,2.862-1.982,4.707c0,0.814,0.154,1.594,0.426,2.314h12.32
	c0.271-0.721,0.427-1.5,0.427-2.314C95.861,118.273,95.101,116.607,93.878,115.411z"/>
<path fill="#C0C0C0" d="M157.438,25.733c-4.136,0-4.915,4.515-4.759,6.364c-0.174-2.061,1.865-3.744,3.932-3.744
	c2.069,0,3.746,1.676,3.746,3.744s-2.631,3.81-4.533,4.066c-6.48,0.874-16.563-1.019-26.112-7.338
	c-9.019-5.969-12.253-14.444-20.888-14.725c-9.424-0.306-13.321,12.287-19.378,12.287c-6.057,0-9.954-12.593-19.377-12.287
	c-8.635,0.281-11.308,8.756-20.327,14.725c-9.548,6.319-19.632,8.212-26.113,7.338c-1.902-0.256-4.532-1.998-4.532-4.066
	s1.676-3.744,3.745-3.744s4.107,1.684,3.932,3.744c0.156-1.849-0.623-6.364-4.758-6.364c-4.137,0-6.736,2.803-6.664,6.364
	c0.085,4.135,4.945,6.972,9.321,7.181c9.599,0.456,13.962-1.329,24.122-5.66c7.263-3.094,15.304-12.371,20.992-11.936
	c13.408,1.028,17.208,10.812,17.342,32.928c0.163,4.558-1.194,5.687-5.406,6.318c3.042,5.435,4.886,9.255,7.723,16.851
	c2.837-7.596,4.681-11.416,7.723-16.851c-4.213-0.631-5.569-1.761-5.405-6.318c0.133-22.116,3.934-31.9,17.342-32.928
	c5.688-0.436,14.29,8.841,21.553,11.936c10.16,4.331,14.523,6.115,24.122,5.66c4.376-0.208,9.236-3.045,9.321-7.181
	C164.174,28.537,161.573,25.733,157.438,25.733z M89.403,33.615c-1.09,0-1.974-0.884-1.974-1.973s0.884-1.974,1.974-1.974
	c1.09,0,1.973,0.884,1.973,1.974S90.493,33.615,89.403,33.615z"/>
<path fill="#C0C0C0" d="M91.024,78.369l-1.579,4.227l-1.579-4.227c-0.994-2.661-1.867-4.849-2.703-6.792
	c-1.616,4.14-2.66,10.659-2.66,17.998c0,7.549,1.105,20.409,2.802,24.525h7.94c1.697-4.116,2.803-16.977,2.803-24.525
	c0-7.095-0.976-13.425-2.502-17.578C92.765,73.835,91.946,75.9,91.024,78.369z"/>
<path fill="#808080" d="M3.302,86.181c5.712,7.197,14.529,11.818,24.431,11.818c9.901,0,18.718-4.621,24.43-11.818H3.302z"/>
<path fill="#808080" d="M55.464,82.554c0,0.775-0.628,1.404-1.404,1.404H1.404C0.628,83.958,0,83.329,0,82.554l0,0
	c0-0.775,0.628-1.404,1.404-1.404H54.06C54.836,81.149,55.464,81.778,55.464,82.554L55.464,82.554z"/>
<polygon fill="#808080" points="7.513,79.184 27.732,42.826 47.951,79.184 49.879,79.184 27.732,39.358 5.585,79.184 "/>
<path fill="#808080" d="M175.588,86.181c-5.711,7.197-14.528,11.818-24.43,11.818s-18.719-4.621-24.43-11.818H175.588z"/>
<path fill="#808080" d="M123.427,82.554c0,0.775,0.628,1.404,1.403,1.404h52.657c0.775,0,1.403-0.629,1.403-1.404l0,0
	c0-0.775-0.628-1.404-1.403-1.404H124.83C124.055,81.149,123.427,81.778,123.427,82.554L123.427,82.554z"/>
<polygon fill="#808080" points="171.378,79.184 151.158,42.826 130.939,79.184 129.011,79.184 151.158,39.358 173.306,79.184 "/>
</svg>
