<?xml version="1.0" encoding="utf-8"?>
<!DOCTYPE svg PUBLIC "-//W3C//DTD SVG 1.1//EN" "http://www.w3.org/Graphics/SVG/1.1/DTD/svg11.dtd">
<svg version="1.1" id="Layer_1" xmlns="http://www.w3.org/2000/svg" xmlns:xlink="http://www.w3.org/1999/xlink" x="0px" y="0px"
	 width="122.043px" height="130.84px" viewBox="0 0 122.043 130.84" enable-background="new 0 0 122.043 130.84"
	 xml:space="preserve">
<path fill="#808080" d="M47.317,33.718c-2.225,2.155-5.17,5.302-7.745,8.995c8.159,0.496,13.709-2.258,17.683-4.704
	C55.792,36.841,48.757,36.189,47.317,33.718z"/>
<path fill="#808080" d="M21.205,22.704c2.104-1.735,3.477-2.813,6.055-4.493c-2.832,1.049-4.397,0.426-4.999-2.792
	c-1.433,2.408-3.694,5.37-6.753,13.465C15.508,28.884,19.102,24.439,21.205,22.704z"/>
<path fill="#808080" d="M55.067,8.574c4.109-0.869,7.938-1.014,13.83-0.854c-0.736-0.736-0.913-1.789-0.515-2.625
	C60.042,4.322,56.594,4.672,50.148,0c-1.739,1.813-5.533,7.363-7.011,12.602C43.138,12.602,47.676,10.137,55.067,8.574z"/>
<path fill="#808080" d="M108.487,33.395c2.261,7.084-3.488,15.616-8.656,17.727c-1.499,0.611-5.551,1.46-7.523,0
	c5.006,7.658,13.869,4.961,16.078,3.153c3.113,2.611,9.795,2.4,13.657-1.808C112.604,51.362,114.311,42.022,108.487,33.395z"/>
<path fill="#C0C0C0" d="M24.202,43.541c-1.549-1.174-3.955-0.605-5.375,1.266c-1.416,1.873-1.308,4.342,0.242,5.518
	c1.55,1.172,3.954,0.604,5.373-1.268C25.861,47.184,25.754,44.715,24.202,43.541z M23.414,48.134
	c-0.896,1.108-2.333,1.435-3.208,0.728c-0.875-0.708-0.857-2.18,0.041-3.289c0.895-1.111,2.332-1.437,3.206-0.729
	C24.329,45.549,24.313,47.023,23.414,48.134z M107.73,37.969c0.116-3.8-1.654-7.595-4.767-11.713
	c-3.113-4.117-16.47-16.066-33.222-17.305c-11.38-0.842-21.495,2.209-29.111,6.143l1.339-3.428
	c-1.83,0.566-16.616,8.898-21.419,13.418c-2.934,2.76-4.751,4.799-6.329,7.163c1.964,0.111,2.768,1.94,3.104,3.599
	c2.108-0.887,4.343-1.347,6.56-1.347c5.001,0,9.652,2.299,12.14,6.001c0.695,1.035,1.179,2.129,1.463,3.252
	c3.505-4.926,7.295-9.947,12.366-13.945c13.706-10.805,36.67-11.479,52.197,4.943c3.723,3.938,4.149,7.72,1.214,13.098
	C105.962,43.912,107.643,40.851,107.73,37.969z M16.09,38.129c-0.289-4.647-1.729-4.68-2.923-4.204
	c-0.62,1.051-1.233,2.196-1.899,3.509c-2.666,5.249-4.342,11.041-4.342,11.041c-2.522,9.754,0.052,14.271,3.797,15.615
	c2.471,0.887,8.006-0.208,14.946-5.94c3.981-3.288,7.201-7.864,10.586-12.659C35.694,38.225,25.339,32.829,16.09,38.129z
	 M25.544,49.941c-1.983,2.621-5.354,3.418-7.524,1.772c-2.172-1.644-2.321-5.1-0.335-7.723c1.985-2.622,5.353-3.417,7.526-1.772
	C27.381,43.86,27.532,47.32,25.544,49.941z"/>
<path fill="#808080" d="M74.726,97.122c2.225-2.155,5.17-5.302,7.745-8.995c-8.159-0.496-13.709,2.258-17.683,4.704
	C66.251,93.999,73.286,94.65,74.726,97.122z"/>
<path fill="#808080" d="M100.838,108.136c-2.104,1.735-3.477,2.813-6.055,4.493c2.832-1.049,4.397-0.426,4.999,2.792
	c1.433-2.408,3.694-5.37,6.753-13.465C106.535,101.956,102.941,106.4,100.838,108.136z"/>
<path fill="#808080" d="M66.976,122.266c-4.109,0.869-7.938,1.014-13.83,0.854c0.736,0.736,0.913,1.789,0.515,2.625
	c8.341,0.773,11.789,0.424,18.234,5.096c1.739-1.813,5.533-7.363,7.011-12.602C78.905,118.238,74.367,120.703,66.976,122.266z"/>
<path fill="#808080" d="M13.556,97.445c-2.261-7.084,3.488-15.616,8.656-17.727c1.499-0.611,5.551-1.46,7.523,0
	c-5.006-7.658-13.869-4.961-16.078-3.153c-3.113-2.611-9.795-2.4-13.657,1.808C9.439,79.478,7.732,88.817,13.556,97.445z"/>
<path fill="#C0C0C0" d="M97.841,87.299c1.549,1.174,3.955,0.605,5.375-1.266c1.416-1.873,1.308-4.342-0.242-5.518
	c-1.55-1.172-3.954-0.604-5.373,1.268C96.182,83.656,96.289,86.125,97.841,87.299z M98.629,82.706
	c0.896-1.108,2.333-1.435,3.208-0.728c0.875,0.708,0.857,2.18-0.041,3.289c-0.895,1.111-2.332,1.437-3.206,0.729
	C97.714,85.291,97.73,83.816,98.629,82.706z M14.313,92.871c-0.116,3.8,1.654,7.595,4.767,11.713
	c3.113,4.117,16.47,16.066,33.222,17.305c11.38,0.842,21.495-2.209,29.111-6.143l-1.339,3.428
	c1.83-0.566,16.616-8.898,21.419-13.418c2.934-2.76,4.751-4.799,6.329-7.163c-1.964-0.111-2.768-1.94-3.104-3.599
	c-2.108,0.887-4.343,1.347-6.56,1.347c-5.001,0-9.652-2.299-12.14-6.001c-0.695-1.035-1.179-2.129-1.463-3.252
	c-3.505,4.926-7.295,9.947-12.366,13.945c-13.706,10.805-36.67,11.479-52.197-4.943c-3.723-3.938-4.149-7.72-1.214-13.098
	C16.081,86.928,14.4,89.989,14.313,92.871z M105.953,92.711c0.289,4.647,1.729,4.68,2.923,4.204c0.62-1.051,1.233-2.196,1.899-3.509
	c2.666-5.249,4.342-11.041,4.342-11.041c2.522-9.754-0.052-14.271-3.797-15.615c-2.471-0.887-8.006,0.208-14.946,5.94
	c-3.981,3.288-7.201,7.864-10.586,12.659C86.349,92.615,96.704,98.011,105.953,92.711z M96.499,80.898
	c1.983-2.621,5.354-3.418,7.524-1.772c2.172,1.644,2.321,5.1,0.335,7.723c-1.985,2.622-5.353,3.417-7.526,1.772
	C94.662,86.979,94.511,83.52,96.499,80.898z"/>
</svg>
