<?xml version="1.0" encoding="utf-8"?>
<!DOCTYPE svg PUBLIC "-//W3C//DTD SVG 1.1//EN" "http://www.w3.org/Graphics/SVG/1.1/DTD/svg11.dtd">
<svg version="1.1" id="Layer_1" xmlns="http://www.w3.org/2000/svg" xmlns:xlink="http://www.w3.org/1999/xlink" x="0px" y="0px"
	 width="165.245px" height="136.284px" viewBox="0 0 165.245 136.284" enable-background="new 0 0 165.245 136.284"
	 xml:space="preserve">
<path fill="#C0C0C0" d="M148.199,134.338c1.805,1.489,4.475,1.236,5.969-0.561c5.988,1.99,11.077,2.506,11.077,2.506
	s-4.87-1.042-10.229-4.171c0.395-1.546-0.098-3.249-1.409-4.331c-1.416-1.167-3.36-1.26-4.854-0.381
	c-2.467-2.396-4.645-5.376-6.027-9.072c-5.344-14.283,19.65-55.338-18.559-73.581c-2.979,3.552-2.66,3.193-6.177,7.489
	c26.843,21.666,13.675,36.575,17.413,63.697c0.954,6.919,5.783,11.543,11.287,14.609
	C146.52,131.934,147.037,133.379,148.199,134.338z"/>
<path fill="#C0C0C0" d="M5.155,16.364c-1.805-1.489-2.066-4.158-0.584-5.968C1.476,4.898,0,0,0,0s1.95,4.583,6.043,9.249
	c1.442-0.681,3.208-0.522,4.519,0.559c1.417,1.167,1.877,3.059,1.299,4.694c2.82,1.964,6.162,3.536,10.054,4.19
	c15.038,2.527,50.585-29.825,75.768,4.214c-2.92,3.599-2.628,3.217-6.177,7.488c-26.38-22.229-38.509-6.464-65.846-4.971
	c-6.976,0.381-12.435-3.479-16.491-8.299C7.834,17.556,6.316,17.323,5.155,16.364z"/>
<path fill="#808080" d="M115,51.651c-0.692-0.571-0.79-1.594-0.221-2.286l5.836-7.074c0.57-0.692,1.594-0.79,2.285-0.219l0,0
	c0.691,0.57,0.791,1.594,0.219,2.285l-5.834,7.075C116.715,52.124,115.691,52.222,115,51.651L115,51.651z"/>
<path fill="#808080" d="M92.65,33.218c0.691,0.571,1.714,0.473,2.285-0.219l5.834-7.074c0.57-0.692,0.473-1.715-0.219-2.285l0,0
	c-0.693-0.571-1.716-0.473-2.286,0.219l-5.835,7.074C91.859,31.624,91.957,32.647,92.65,33.218L92.65,33.218z"/>
<path fill="#C0C0C0" d="M6.331,18.092l22.238,115.59l117.618-0.16l-0.458-1.626L30.065,131.87L8.023,18.333L6.331,18.092z"/>
<polygon fill="#C0C0C0" points="31.7,129.532 31.689,126.65 113.756,27.145 116.75,29.613 34.683,129.118 "/>
<path fill="#808080" d="M114.053,48.701l5.771-6.998c-1.433-2.103-3.453-4.409-5.904-6.679l-7.548,9.152
	C109.066,46.151,111.714,47.695,114.053,48.701z M101.498,26.589l-5.771,6.997c1.396,2.051,3.347,4.293,5.715,6.507l7.532-9.133
	C106.35,29.057,103.776,27.569,101.498,26.589z"/>
<path fill="#808080" d="M115.869,27.63c0.963,0.793,3.17,2.255,5.959,6.711c0.664-6.822,4.779-17.562,9.381-25.311
	c-6.732,5.993-16.49,12.077-23.063,14.027C113.053,24.948,114.907,26.837,115.869,27.63z"/>
<polygon fill="#808080" points="45.297,128.139 54.767,116.658 54.722,106.564 36.084,129.161 "/>
<polygon fill="#808080" points="30.48,115.918 39.95,104.437 49.868,102.56 31.23,125.159 "/>
</svg>
