<?xml version="1.0" encoding="utf-8"?>
<!DOCTYPE svg PUBLIC "-//W3C//DTD SVG 1.1//EN" "http://www.w3.org/Graphics/SVG/1.1/DTD/svg11.dtd">
<svg version="1.1" id="Layer_1" xmlns="http://www.w3.org/2000/svg" xmlns:xlink="http://www.w3.org/1999/xlink" x="0px" y="0px"
	 width="135.182px" height="130.113px" viewBox="0 0 135.182 130.113" enable-background="new 0 0 135.182 130.113"
	 xml:space="preserve">
<path fill="#808080" d="M46.954,56.004c-0.326-0.884-1.172-2.424-1.172-2.424c-7.443,0.694-10.516-5.04-12.142-3.151
	c-5.553,4.223-11.69,0.852-11.263,5.342c0.34,2.335,0.481,5.949-1.838,11.595c3.896-6.033,5.066-7.708,4.4-11.094
	c4.65,0.056,7.203-1.041,9.961-3.625C36.035,55.893,41.318,56.718,46.954,56.004z"/>
<path fill="#808080" d="M50.807,62.245c-0.464-0.843-1.518-2.77-1.518-2.77c-6.961,2.004-14.113-1.62-15.331,0.587
	c-4.551,5.269-10.007,2.13-8.818,6.632c0.803,2.898,0.757,5.818-0.697,12.91c2.656-6.829,4.447-9.512,3.224-12.847
	c4.435-0.752,5.822-0.595,7.998-3.708C36.77,65.404,42.423,63.073,50.807,62.245z"/>
<path fill="#808080" d="M55.36,68.616c-0.593-0.773-1.789-2.358-1.789-2.358c-6.24,3.308-15.247,2.507-16,4.979
	c-3.362,6.195-9.11,3.988-7.166,8.36c1.447,2.586,1.688,3.892,2.595,12.439c1.278-7.438,1.585-9.656-0.186-12.833
	c4.071-1.574,5.133-2.606,6.632-6.176C40.938,75.172,50.701,71.31,55.36,68.616z"/>
<path fill="#808080" d="M60.699,74.751c-0.713-0.673-2.35-2.352-2.35-2.352c-5.216,4.62-14.186,5.908-14.401,8.576
	c-1.927,6.989-7.78,5.888-5.076,9.954c1.379,2.724,0.976,6.625,1.04,13.342c2.068-6.015,3.453-11.339,1.15-14.225
	c3.521-2.418,4.313-3.683,5.011-7.62C47.91,84.316,56.849,78.427,60.699,74.751z"/>
<path fill="#808080" d="M94.892,104.545c0,0-9.367,12.203-23.498,11.924c-7.4-0.143-6.615-6.65-14.169-7.245
	c-7.552-0.591-11.291,5.152-11.132,9.544c0.254,7.197,6.874,10.511,10.87,11.095C60.958,130.449,84.813,132.181,94.892,104.545z"/>
<path fill="#808080" d="M67.179,113.951c-1.944-0.516-3.792-3.975-6.902-4.991c11.696-1.982,21.109-5.763,21.941-4.287
	c0.596,1.056-5.219,4.089-7.586,5.43C72.245,111.458,67.179,113.951,67.179,113.951z"/>
<path fill="#808080" d="M56.301,107.965c-2.108-0.104-4.235,0.369-5.997,1.4c-0.191,0.108-0.374,0.225-0.551,0.344
	c-0.369,0.253-0.711,0.518-1.035,0.791c-0.532-1.104-0.985-2.357-1.32-3.722c-1.241-5.068-0.371-9.637,1.947-10.204
	c2.314-0.569,5.2,3.079,6.441,8.147C56.062,105.841,56.228,106.933,56.301,107.965z"/>
<path fill="#808080" d="M54.496,98.581c2.375-1.522,3.688-4.484,6.497-8.017c0.962-1.212,3.557-6.146,4.983-10.123
	c-1.93-1.119-1.24-0.938-2.88-2.555c-1.738,2.709-4.982,6.656-7.501,9.324c-2.629,2.782-9.581,7.269-5.782,8.091
	C53.475,96.092,54.496,98.581,54.496,98.581z"/>
<path fill="#808080" d="M61.073,41.885c-0.883-0.327-2.423-1.173-2.423-1.173c0.693-7.443-5.04-10.517-3.151-12.142
	c4.223-5.555,0.85-11.69,5.342-11.264c2.335,0.341,5.947,0.482,11.595-1.837c-6.032,3.896-7.708,5.066-11.095,4.4
	c0.058,4.65-1.04,7.203-3.624,9.961C60.962,30.965,61.788,36.249,61.073,41.885z"/>
<path fill="#808080" d="M67.314,45.739c-0.843-0.465-2.769-1.518-2.769-1.518c2.004-6.963-1.623-14.113,0.586-15.331
	c5.269-4.552,2.13-10.007,6.631-8.82c2.899,0.804,5.819,0.758,12.909-0.696c-6.827,2.656-9.51,4.448-12.845,3.222
	c-0.753,4.436-0.595,5.824-3.709,8C70.473,31.701,68.141,37.354,67.314,45.739z"/>
<path fill="#808080" d="M73.685,50.291c-0.773-0.593-2.358-1.79-2.358-1.79c3.306-6.24,2.506-15.247,4.977-16
	c6.198-3.36,3.989-9.109,8.362-7.165c2.586,1.447,3.892,1.687,12.439,2.593c-7.438,1.279-9.656,1.586-12.833-0.184
	c-1.574,4.071-2.606,5.133-6.177,6.632C80.242,35.871,76.379,45.631,73.685,50.291z"/>
<path fill="#808080" d="M79.822,55.631c-0.674-0.715-2.351-2.351-2.351-2.351c4.618-5.217,5.906-14.187,8.574-14.402
	c6.989-1.926,5.888-7.78,9.954-5.076c2.724,1.378,6.625,0.976,13.342,1.04c-6.015,2.069-11.339,3.453-14.225,1.15
	c-2.418,3.521-3.683,4.312-7.619,5.011C89.384,42.84,83.497,51.779,79.822,55.631z"/>
<path fill="#808080" d="M109.616,89.823c0,0,12.202-9.366,11.924-23.5c-0.144-7.398-6.653-6.613-7.244-14.167
	c-0.595-7.553,5.15-11.291,9.542-11.132c7.197,0.256,10.511,6.874,11.095,10.87C135.518,55.89,137.25,79.744,109.616,89.823z"/>
<path fill="#808080" d="M119.019,62.111c-0.515-1.945-3.974-3.793-4.988-6.903c-1.985,11.696-5.766,21.109-4.289,21.941
	c1.056,0.596,4.089-5.22,5.43-7.586C116.528,67.174,119.019,62.111,119.019,62.111z"/>
<path fill="#808080" d="M113.037,51.234c-0.106-2.111,0.367-4.236,1.396-5.998c0.112-0.191,0.227-0.373,0.346-0.552
	c0.252-0.369,0.52-0.712,0.791-1.036c-1.104-0.53-2.357-0.984-3.722-1.319c-5.068-1.241-9.637-0.369-10.204,1.947
	s3.08,5.2,8.147,6.443C110.911,50.993,112.002,51.157,113.037,51.234z"/>
<path fill="#808080" d="M103.65,49.426c-1.522,2.375-4.485,3.688-8.019,6.497c-1.21,0.962-6.145,3.557-10.121,4.983
	c-1.119-1.93-0.938-1.24-2.554-2.879c2.708-1.739,6.655-4.983,9.323-7.502c2.782-2.628,7.269-9.582,8.091-5.781
	C101.162,48.407,103.65,49.426,103.65,49.426z"/>
<path fill="#C0C0C0" d="M7.842,10.896c2.322-0.602,0.521-2.218,6.3-5.215c-0.548-1.258-0.283-1.395-1.348-2.444
	c-0.581-0.574-1.209-1.063-1.862-1.484C7.351,3.051-1.281,9.743,0.714,12.049C3.508,11.018,5.365,9.969,7.842,10.896z M3.627,24.771
	c1.377-1.924,3.167-3.342,5.104-4.199c0.928-0.997-4.152-3.677-1.505-8.299c-2.48-0.899-4.427,0.321-7.183,1.707
	c-0.031,6.103-0.447,13.718,2.107,13.494C2.526,26.544,3.01,25.632,3.627,24.771z M23.172,7.848c0.544-0.948,0.979-1.995,1.236-3.14
	c0.137-0.61,0.583-1.472,0.621-2.072c-7.115-2.012-11.954-3.924-12.366-1.503c0.41,0.317,0.811,0.653,1.191,1.028
	c1.272,1.256,1.134,1.635,1.755,3.15C19.671,4.109,21.984,8.45,23.172,7.848z M14.716,28.015c-0.351-1.698-3.164-0.732-5.258-6.109
	c-1.742,0.746-3.363,2.009-4.603,3.741c-0.766,1.068-1.313,2.215-1.659,3.38c0.576,0.788,7.616,8.504,10.219,6.873
	c-0.177-1.575-0.065-3.237,0.405-4.896C14.25,29.491,13.862,29.192,14.716,28.015z M23.922,8.45c2.438,2.2,3.501,4.588,1.735,6.949
	c0.819,1.316,0.747,2.313,0.364,3.443c4.734-1.965,5.389-8.692,1.729-13.11c-0.535-0.646-1.126-2.021-1.706-2.543
	C25.996,3.534,25.371,6.574,23.922,8.45z M40.371,32.857c-1.502,0.526-1.153,0.013-2.395,1.256
	c-2.256,2.256-2.183,3.662-2.053,6.371c0.646,2.677,3.806,0.552,8.105,7.542c-0.799-5.325,3.492-8.726,8.551-9.702
	C46.363,33.373,42.571,31.961,40.371,32.857z M26.545,29.239c-2.674-1.999-4.335,0.771-10.299-0.73
	c-0.898,1.12-0.546,1.394-0.974,2.905c-0.468,1.649-0.546,3.302-0.299,4.836c6.086-0.197,6.686,2.619,9.257,1.249
	c-0.139-2.226-0.721-3.524,0.483-5.719C25.234,30.834,25.855,29.989,26.545,29.239z M39.062,31.771
	c-0.839-2.543-3.927-1.576-10.32-2.541c-1.055,0.871-1.987,1.968-2.705,3.275c-1.117,2.037-0.477,3.177-0.286,5.214
	c4.448-0.374,6.758,3.41,8.566,2.428c0.098-2.863,0.256-4.765,2.592-7.099C37.886,32.07,37.915,32.36,39.062,31.771z"/>
<path fill="#808080" d="M19.284,13.75c-1.415,0.212-2.624,0.856-3.467,1.726c-1.037-1.58-1.264-3.713,0.113-5.661
	c-3.854,3.171-2.444,8.892-0.747,10.563c1.697,1.67,2.862,2.313,5.377,1.938c2.933-0.438,5.021-2.71,4.668-5.075
	S22.213,13.312,19.284,13.75z"/>
<path fill="#808080" d="M76.44,76.642c-1.274,1.276-5.566,5.564-3.61,7.521c1.602,1.603,4.426-0.786,5.403-1.765
	c-2.553,1.737-5.729,1.598-0.029-4.316C77.335,77.483,76.44,76.642,76.44,76.642z"/>
<path fill="#808080" d="M82.06,71.024c1.274-1.277,5.563-5.567,7.521-3.611c1.6,1.602-0.789,4.426-1.766,5.402
	c1.735-2.552,1.598-5.727-4.317-0.026C82.901,71.919,82.06,71.024,82.06,71.024z"/>
<path fill="#C0C0C0" d="M63.255,44.33c-3.348-1.852-6.48-3.178-9.146-3.812c-3.217-0.764-4.7,0.53-6.173,2.001
	c-1.523,1.524-2.779,3.136-1.918,6.515c0.662,2.591,1.955,5.599,3.729,8.808c1.145-2.718,3.008-5.5,5.51-8.002
	C57.757,47.339,60.541,45.476,63.255,44.33z M75.686,52.916c-3.636-2.992-7.318-5.591-10.812-7.657
	c-2.773,1.013-5.771,2.863-8.554,5.646c-2.784,2.783-4.635,5.781-5.646,8.557c2.066,3.492,4.665,7.176,7.658,10.809
	c1.13-3.473,3.444-7.228,6.784-10.568C68.458,56.361,72.211,54.045,75.686,52.916z M76.992,54.011
	c-3.349,0.95-7.219,3.162-10.81,6.754c-3.592,3.59-5.804,7.461-6.754,10.809c1.715,2.012,3.539,3.997,5.453,5.915
	c2.153,2.151,0.936,0.737,2.761,2.19c1.404,1.204,5.061-1.331,8.916-3.983c0.219,0.294,0.46,0.589,0.744,0.871
	c1.01,1.011,2.143,0.674,2.996,0.132c-1.212-1.338-1.815-2.703-1.351-3.168c0.465-0.464,1.829,0.139,3.168,1.351
	c0.541-0.854,0.88-1.985-0.133-2.996c-0.279-0.28-0.571-0.521-0.864-0.739c2.64-3.804,5.145-7.239,3.977-8.92
	c-1.453-1.825-0.038-0.609-2.191-2.761C80.989,57.548,79.002,55.725,76.992,54.011z"/>
</svg>
