<?xml version="1.0" encoding="utf-8"?>
<!DOCTYPE svg PUBLIC "-//W3C//DTD SVG 1.1//EN" "http://www.w3.org/Graphics/SVG/1.1/DTD/svg11.dtd">
<svg version="1.1" id="Layer_1" xmlns="http://www.w3.org/2000/svg" xmlns:xlink="http://www.w3.org/1999/xlink" x="0px" y="0px"
	 width="147.49px" height="130.452px" viewBox="0 0 147.49 130.452" enable-background="new 0 0 147.49 130.452"
	 xml:space="preserve">
<path fill="#808080" d="M17.953,0C6.098,6.669-1.228,15.275,0.17,25.934C2.039,40.201,13.842,47.16,42.74,47.531
	c3.422-5.685,2.535-13.759,1.053-19.687c-11.115,1.853-25.488,5.749-31.398-3.763C5.313,12.682,17.953,0,17.953,0z"/>
<path fill="#808080" d="M129.536,0c11.855,6.669,19.181,15.275,17.784,25.934c-1.871,14.267-13.673,21.226-42.571,21.597
	c-3.422-5.685-2.535-13.759-1.054-19.687c11.115,1.853,25.488,5.749,31.398-3.763C142.176,12.682,129.536,0,129.536,0z"/>
<path fill="#C0C0C0" d="M73.744,122.187c-10.744,1.111-16.656,1.017-16.604,3.332c0.053,2.316,8.077,4.933,16.604,4.933
	c8.527,0,16.552-2.616,16.604-4.933C90.4,123.204,84.489,123.298,73.744,122.187z"/>
<path fill="#C0C0C0" d="M136.504,52.907c-3.963,0.146-14.311,3.36-25.879,4.337c13.88-3.508,18.156-6.955,30.878-6.023
	c-5.317-2.746-19.656-4.023-33.079-0.289c0,0-2.768-0.555-4.361-2.084c-4.779-4.59-3.898-16.615-2.047-21.432
	c-12.055-2.548-11.555-5.768-28.271-6.669c-16.716,0.901-16.217,4.121-28.271,6.669c1.853,4.816,2.732,16.842-2.047,21.432
	c-1.592,1.529-4.36,2.084-4.36,2.084c-13.423-3.734-27.763-2.457-33.08,0.289c12.723-0.932,16.999,2.515,30.878,6.023
	c-11.567-0.978-21.915-4.191-25.878-4.337c-2.167-0.08-7.338,0.009-7.243,3.622c0.131,4.974,16.387,8.349,31.213,3.651l2.174-0.596
	c-1.746,6.329-1.134,13.425,3.898,17.478c6.637,5.345,14.367,8.232,15.752,17.73c4.56-3.888,3.667-18.123,0.715-25.711
	c-6.045-0.49-8.336-2.813-9.311-6.291c-0.445-1.583,0.553-5.111,3.178-3.986c3.086,1.324,9.172,1.595,9.489,5.349
	c0.315,3.754,2.812,27.281,1.138,30.604c-1.561,3.098-4.93,3.15-7.93,4.992c-7.24,4.446-4.687,16.875-1.933,20.918
	c2.925,4.295,4.371-0.025,16.899-0.763c-2.508-1.962-4.401-4.99-5.762-6.011c-2.551,0.283-4.428-1.269-4.924-3.639
	c-0.358-1.716,0.671-5.434,5.35-4.725c4.298,0.651,1.738,8.977,7.734,13.992c1.076-0.165,1.449-0.145,2.32-0.231
	c0.872,0.087,1.244,0.066,2.321,0.231c5.996-5.016,3.437-13.341,7.735-13.992c4.678-0.709,5.707,3.009,5.348,4.725
	c-0.494,2.37-2.372,3.922-4.924,3.639c-1.359,1.021-3.253,4.049-5.761,6.011c12.528,0.737,13.974,5.058,16.899,0.763
	c2.754-4.043,5.307-16.472-1.933-20.918c-3-1.842-6.37-1.895-7.931-4.992c-1.674-3.322,0.822-26.85,1.139-30.604
	c0.316-3.753,6.402-4.025,9.489-5.349c2.624-1.125,3.622,2.403,3.179,3.986c-0.977,3.477-3.268,5.8-9.313,6.291
	c-2.951,7.588-3.844,21.823,0.715,25.711c1.386-9.498,9.115-12.386,15.753-17.73c5.032-4.053,5.645-11.148,3.897-17.478l2.174,0.596
	c14.827,4.698,31.082,1.323,31.213-3.651C143.841,52.917,138.671,52.828,136.504,52.907z"/>
<path fill="#C0C0C0" d="M58.135,62.459c-0.311-0.167-0.635-0.305-0.967-0.432c0.033,0.151,0.053,0.308,0.053,0.469
	c0,1.218-0.988,2.206-2.206,2.206s-2.206-0.987-2.206-2.206c0-0.626,0.264-1.189,0.684-1.59c-0.708-0.226-1.441-0.493-2.204-0.864
	c-0.189,0.327-0.354,0.671-0.458,1.055c-0.621,2.317,0.754,4.7,3.072,5.321c2.318,0.621,4.699-0.754,5.32-3.072
	c0.005-0.015,0.004-0.031,0.008-0.046C58.869,62.976,58.543,62.722,58.135,62.459z"/>
<path fill="#C0C0C0" d="M96.658,61.097c-0.102-0.383-0.268-0.728-0.457-1.055c-0.764,0.371-1.497,0.638-2.205,0.864
	c0.42,0.401,0.684,0.964,0.684,1.59c0,1.218-0.988,2.206-2.206,2.206s-2.206-0.987-2.206-2.206c0-0.161,0.02-0.317,0.053-0.469
	c-0.332,0.128-0.656,0.265-0.967,0.432c-0.407,0.262-0.733,0.516-1.096,0.839c0.005,0.016,0.004,0.031,0.009,0.046
	c0.62,2.318,3.002,3.693,5.319,3.072C95.904,65.797,97.279,63.414,96.658,61.097z"/>
</svg>
