<?xml version="1.0" encoding="utf-8"?>
<!DOCTYPE svg PUBLIC "-//W3C//DTD SVG 1.1//EN" "http://www.w3.org/Graphics/SVG/1.1/DTD/svg11.dtd">
<svg version="1.1" id="Layer_1" xmlns="http://www.w3.org/2000/svg" xmlns:xlink="http://www.w3.org/1999/xlink" x="0px" y="0px"
	 width="136.6px" height="130.524px" viewBox="0 0 136.6 130.524" enable-background="new 0 0 136.6 130.524" xml:space="preserve">
<path fill="#C0C0C0" d="M85.109,116.586c-2.908-4.133-4.438-13.021-4.6-17.238c0,0-5.329,1.793-7.43,2.533
	c-3.08,1.086-6.442,1.186-9.56,0c-2.084-0.791-7.431-2.533-7.431-2.533c-0.161,4.217-1.691,13.105-4.6,17.238
	c-3.444,4.895-10.598,10.302-10.598,10.302s8.3,3.637,27.408,3.637c19.107,0,27.407-3.637,27.407-3.637
	S88.554,121.48,85.109,116.586z"/>
<path fill="#808080" d="M83.908,47.249c0.897-4.151-0.107-5.871,4.748-8.826c2.951-1.658,5.699-3.973,3.946-8.164
	c3.374,5.483-0.69,7.759-1.483,8.562c-1.472,5.273,8.466,15.028,6.602,25.111c-2.424,13.108-6.446,21.432-14.908,32.51
	c-0.306,4.286-0.703,29.479,25.93,28.255c-5.816-4.133-7.193-8.111-6.275-13.01c3.063,4.745,17.143,6.123,25.714,0.307
	c-9.796-2.143-15.458-6.889-17.295-13.316c9.03,8.57,18.367,3.673,25.714-8.572c-12.552,3.367-20.358-3.52-20.664-13.01
	c6.275,7.194,15.918,1.531,19.746-4.438c-8.266,1.53-18.063-1.989-18.674-11.786c1.53,4.591,11.326,3.827,13.469-3.673
	c-16.989-0.918-15.688-29.005-28.469-41.632C83.938-2.286,68.301,0.107,68.301,0.107S52.662-2.286,34.594,15.566
	C21.813,28.193,23.112,56.28,6.123,57.198c2.143,7.5,11.938,8.265,13.469,3.673C18.98,70.668,9.185,74.188,0.919,72.657
	c3.826,5.97,13.47,11.633,19.745,4.438C20.358,86.586,12.552,93.473,0,90.105c7.348,12.245,16.684,17.143,25.715,8.572
	c-1.837,6.428-7.5,11.174-17.295,13.316c8.57,5.816,22.651,4.438,25.713-0.307c0.919,4.898-0.459,8.877-6.275,13.01
	c26.633,1.225,26.236-23.969,25.93-28.255c-5.937-5.519-12.805-19.347-14.908-32.51c-1.742-10.903,7.37-16.556,6.896-25.386
	c-3.693-3.18-3.272-6.313-2.095-10.496c-0.428,7.306,2.017,7.858,3.713,9.484c3.296,3.162,4.627,5.377,4.424,10.209
	c6.737-4.083,6.48-12.786,3.951-19.451c9.451,11.833,10.898,14.304,11.58,23.241c7.479-2.916,8.548-14.517,12.559-21.12
	C79.906,30.415,77.129,43.065,83.908,47.249z"/>
<path fill="#C0C0C0" d="M89.795,39.47c-5.313,3.302-3.553,7.933-2.787,10.765c0,0-9.56-3.143-8.953-9.184
	c0,0-2.611,10.901-12.552,13.432c1.042-10.378-5.009-17.546-6.49-19.296c0.481,14.22-9.42,15.048-9.42,15.048
	c0.765-2.832,0.794-7.594-2.788-10.765c2.089,8.818-7.85,12.921-5.63,24.462c5.2,27.037,20.815,36.265,25.677,36.64l1.449,0.088
	l1.447-0.088c4.861-0.375,20.538-9.592,25.678-36.64C97.671,52.117,87.459,45.917,89.795,39.47z M64.313,74.201
	c2.657-0.135,1.528,1.043,3.987,1.098c2.459-0.055,1.33-1.232,3.987-1.098c1.266,0.064,1.917,1.893,0.062,1.973
	c-0.785,0.033,0.211-0.213-1.429-0.121c-1.305,0.576-1.296,1.088-2.62,1.184c-1.324-0.096-1.315-0.607-2.62-1.184
	c-1.64-0.092-0.644,0.154-1.429,0.121C62.396,76.094,63.048,74.266,64.313,74.201z M57.817,55.563
	c0.008,0.094,0.028,0.183,0.028,0.279c0,1.898-1.539,3.438-3.438,3.438s-3.438-1.539-3.438-3.438c0-0.43,0.088-0.837,0.232-1.217
	c-1.919,0.247-3.426,0.83-3.982,1.155c-0.036,0.168,0.271,1.475,0.961,3.007c-0.965-0.784-1.908-1.758-2.885-2.966
	c8.428-8.571,16.693-2.143,17.863,4.237c-1.208,0.29-2.322,0.528-3.36,0.714c0.811-0.663,1.549-1.264,2.108-1.618
	C60.712,57.414,59.295,56.277,57.817,55.563z M73.08,90.977c-1.854,1.061-2.484,1.178-4.672,1.178s-3.067-0.062-4.888-1.178
	c-1.59-0.974-1.934-1.684-2.083-2.551c-0.073-0.425,2.807,1.584,6.863,1.584c4.056,0,7.037-2.061,6.965-1.635
	C75.117,89.241,75.056,89.849,73.08,90.977z M68.301,86.131c-2.561,0.047-8.492-0.928-8.43-1.94
	c0.048-0.809,4.729-3.017,5.763-2.787c1.034,0.229,1.445,1.069,2.667,1.157c1.221-0.088,1.631-0.928,2.666-1.157
	c1.032-0.229,5.714,1.979,5.763,2.787C76.791,85.203,70.859,86.178,68.301,86.131z M88.08,59.054
	c0.933-1.591,1.342-3.081,1.301-3.274c-0.557-0.325-2.063-0.908-3.982-1.155c0.145,0.38,0.232,0.787,0.232,1.217
	c0,1.898-1.539,3.438-3.438,3.438s-3.438-1.539-3.438-3.438c0-0.096,0.021-0.185,0.028-0.279c-1.478,0.714-2.895,1.851-4.091,3.591
	c0.657,0.417,1.563,1.049,2.543,1.688c-1.163-0.195-2.413-0.453-3.796-0.785c1.169-6.38,9.435-12.809,17.862-4.237
	C90.213,57.168,89.164,58.231,88.08,59.054z"/>
</svg>
