<?xml version="1.0" encoding="utf-8"?>
<!DOCTYPE svg PUBLIC "-//W3C//DTD SVG 1.1//EN" "http://www.w3.org/Graphics/SVG/1.1/DTD/svg11.dtd">
<svg version="1.1" id="Layer_1" xmlns="http://www.w3.org/2000/svg" xmlns:xlink="http://www.w3.org/1999/xlink" x="0px" y="0px"
	 width="111.656px" height="100px" viewBox="0 0 111.656 100" enable-background="new 0 0 111.656 100" xml:space="preserve">
<linearGradient id="gradient" gradientUnits="userSpaceOnUse" x1="17.1387" y1="100" x2="17.1387" y2="0">
	<stop offset="0" style="stop-color:#404040"/>
	<stop offset="1" style="stop-color:#A0A0A0"/>
</linearGradient>
<path fill="#C0C0C0" d="M55.391,48.401h0.879c0,0,17.869,1.402,33.504-4.515C88.24,26.09,79.662,10.673,56.755,10.673h-1.863
	c-22.894,0-31.479,15.417-33.008,33.212C37.521,49.805,55.391,48.401,55.391,48.401z M71.066,63.413
	c-9.433,0-10.884-6.966-12.278-7.873c-1.313-0.848-2.519-0.926-2.519-0.926h-0.879c0,0-1.209,0.078-2.519,0.926
	c-1.398,0.907-2.842,7.873-12.274,7.873c-7.455,0-12.627-8.175-18.966-11.995C22.18,71.613,34.82,100,54.892,100h1.863
	c20.082,0,32.726-28.388,33.27-48.583C83.689,55.238,78.518,63.413,71.066,63.413z"/>
<path fill="#808080" d="M94.469,76.908h-2.977h-2.077l0.744-1.937c3.146-8.196,4.875-17.043,4.875-24.906
	c0-28.199-13.949-44.375-38.279-44.375h-1.86c-24.326,0-38.278,16.176-38.278,44.375c0,7.863,1.732,16.71,4.878,24.906l0.74,1.937
	h-2.07h-2.97C6.525,76.029,0,63.248,0,51.901c0-7.653,4.613-15.744,12.406-16.776C17.005,12.78,32.439,0,54.901,0h1.854
	c22.47,0,37.9,12.78,42.499,35.125c7.783,1.027,12.402,9.123,12.402,16.776c0,11.347-6.528,24.128-17.07,24.993l-0.055,0.003
	L94.469,76.908L94.469,76.908z"/>
</svg>
