<?xml version="1.0" encoding="utf-8"?>
<!DOCTYPE svg PUBLIC "-//W3C//DTD SVG 1.1//EN" "http://www.w3.org/Graphics/SVG/1.1/DTD/svg11.dtd">
<svg version="1.1" id="Layer_1" xmlns="http://www.w3.org/2000/svg" xmlns:xlink="http://www.w3.org/1999/xlink" x="0px" y="0px"
	 width="102.154px" height="141.417px" viewBox="0 0 102.154 141.417" enable-background="new 0 0 102.154 141.417"
	 xml:space="preserve">
<path d="M84.902,0h-67.65C7.739,0,0,7.739,0,17.252V67v7.417v49.748c0,9.513,7.739,17.252,17.252,17.252h67.65
	c9.512,0,17.252-7.739,17.252-17.252V74.417V67V17.252C102.154,7.739,94.414,0,84.902,0z"/>
<linearGradient id="SVGID_1_" gradientUnits="userSpaceOnUse" x1="51.0767" y1="4.252" x2="51.0767" y2="69.2329">
	<stop  offset="0" style="stop-color:#BCBEC0"/>
	<stop  offset="0.153" style="stop-color:#9C9EA1"/>
	<stop  offset="0.3368" style="stop-color:#7D7F82"/>
	<stop  offset="0.5173" style="stop-color:#666769"/>
	<stop  offset="0.6911" style="stop-color:#525255"/>
	<stop  offset="0.8553" style="stop-color:#454547"/>
	<stop  offset="1" style="stop-color:#414142"/>
</linearGradient>
<path fill="url(#SVGID_1_)" d="M84.902,4.252h-67.65c-7.18,0-13,5.82-13,13v39.271h6.962v12.71h79.726v-12.71h6.963V17.252
	C97.902,10.072,92.082,4.252,84.902,4.252z"/>
<linearGradient id="SVGID_2_" gradientUnits="userSpaceOnUse" x1="51.0767" y1="72.1841" x2="51.0767" y2="137.1646">
	<stop  offset="0" style="stop-color:#808285"/>
	<stop  offset="0.3231" style="stop-color:#6D6E70"/>
	<stop  offset="1" style="stop-color:#414142"/>
</linearGradient>
<path fill="url(#SVGID_2_)" d="M90.939,84.893V72.184H11.214v12.709H4.252v39.271c0,7.18,5.82,13,13,13h67.65c7.18,0,13-5.82,13-13
	V84.893H90.939z"/>
<linearGradient id="SVGID_3_" gradientUnits="userSpaceOnUse" x1="6.3154" y1="59.3569" x2="6.3154" y2="82.0586">
	<stop  offset="0" style="stop-color:#58595B"/>
	<stop  offset="0.0305" style="stop-color:#5C5C5F"/>
	<stop  offset="0.2151" style="stop-color:#6D6F71"/>
	<stop  offset="0.3158" style="stop-color:#5D5E60"/>
	<stop  offset="0.4472" style="stop-color:#4E4F51"/>
	<stop  offset="0.5871" style="stop-color:#444446"/>
	<stop  offset="0.7485" style="stop-color:#414142"/>
	<stop  offset="0.8973" style="stop-color:#424244"/>
	<stop  offset="0.9509" style="stop-color:#49494B"/>
	<stop  offset="0.989" style="stop-color:#545456"/>
	<stop  offset="1" style="stop-color:#58595B"/>
</linearGradient>
<rect x="4.252" y="59.357" fill="url(#SVGID_3_)" width="4.127" height="22.701"/>
<linearGradient id="SVGID_4_" gradientUnits="userSpaceOnUse" x1="95.8379" y1="59.3569" x2="95.8379" y2="82.0586">
	<stop  offset="0" style="stop-color:#58595B"/>
	<stop  offset="0.0305" style="stop-color:#5C5C5F"/>
	<stop  offset="0.2151" style="stop-color:#6D6F71"/>
	<stop  offset="0.3158" style="stop-color:#5D5E60"/>
	<stop  offset="0.4472" style="stop-color:#4E4F51"/>
	<stop  offset="0.5871" style="stop-color:#444446"/>
	<stop  offset="0.7485" style="stop-color:#414142"/>
	<stop  offset="0.8973" style="stop-color:#424244"/>
	<stop  offset="0.9509" style="stop-color:#49494B"/>
	<stop  offset="0.989" style="stop-color:#545456"/>
	<stop  offset="1" style="stop-color:#58595B"/>
</linearGradient>
<rect x="93.773" y="59.357" fill="url(#SVGID_4_)" width="4.129" height="22.701"/>
<linearGradient id="SVGID_5_" gradientUnits="userSpaceOnUse" x1="51.0767" y1="5.2515" x2="51.0767" y2="69.2329">
	<stop  offset="0" style="stop-color:#58595B"/>
	<stop  offset="0.1417" style="stop-color:#555557"/>
	<stop  offset="1" style="stop-color:#414142"/>
</linearGradient>
<path fill="url(#SVGID_5_)" d="M90.939,69.233H11.214v-12.71l0,0h-0.001H5.252V17.252c0-6.617,5.383-12.001,11.999-12.001h67.65
	c6.616,0,12.001,5.384,12.001,12.001v39.271h-5.963l0,0l0,0v11.709V69.233z"/>
<linearGradient id="SVGID_6_" gradientUnits="userSpaceOnUse" x1="51.0757" y1="73.1841" x2="51.0757" y2="136.1646">
	<stop  offset="0" style="stop-color:#58595B"/>
	<stop  offset="0.1417" style="stop-color:#555557"/>
	<stop  offset="1" style="stop-color:#414142"/>
</linearGradient>
<path fill="url(#SVGID_6_)" d="M84.902,136.165h-67.65c-6.615,0-12-5.384-12-12.001V85.893h5.961h1v-1V73.184h77.727v11.709v1h1
	H96.9v38.271C96.9,130.781,91.519,136.165,84.902,136.165L84.902,136.165z"/>
<g>
	<linearGradient id="SVGID_7_" gradientUnits="userSpaceOnUse" x1="51.0767" y1="72.5063" x2="51.0767" y2="120.6802">
		<stop  offset="0" style="stop-color:#FFFFFF"/>
		<stop  offset="1" style="stop-color:#E7E8E9"/>
	</linearGradient>
	<path fill="url(#SVGID_7_)" d="M61.055,72.506c0.105,0.114,0.215,0.224,0.316,0.344c1.382,1.625,2.461,3.648,3.237,6.074
		c0.774,2.426,1.163,5.236,1.163,8.439c0,2.618-0.377,5.066-1.127,7.346c-0.754,2.279-1.809,4.281-3.165,6.002
		c-1.358,1.723-2.981,3.068-4.874,4.038c-1.892,0.97-4.001,1.454-6.329,1.454c-1.745,0-3.396-0.314-4.946-0.945
		c-1.553-0.631-2.946-1.601-4.184-2.91c-1.236-1.309-2.268-2.957-3.091-4.947c-0.825-1.987-1.383-4.314-1.673-6.982H18.777
		c0.484,5.092,1.648,9.528,3.492,13.312c1.842,3.783,4.158,6.938,6.947,9.458c2.787,2.521,5.977,4.401,9.566,5.638
		c3.588,1.237,7.42,1.854,11.493,1.854c4.995,0,9.541-0.873,13.642-2.619c4.096-1.745,7.576-4.158,10.438-7.237
		c2.86-3.079,5.08-6.717,6.656-10.913c1.575-4.194,2.363-8.717,2.363-13.566c0-5.192-0.75-9.8-2.229-13.838H61.055z"/>
	<linearGradient id="SVGID_8_" gradientUnits="userSpaceOnUse" x1="30.0918" y1="72.5063" x2="30.0918" y2="75.2134">
		<stop  offset="0" style="stop-color:#FFFFFF"/>
		<stop  offset="1" style="stop-color:#E7E8E9"/>
	</linearGradient>
	<path fill="url(#SVGID_8_)" d="M22.197,72.506l-0.219,2.707h13.458c0.9-1.01,1.825-1.907,2.769-2.707H22.197z"/>
	<linearGradient id="SVGID_9_" gradientUnits="userSpaceOnUse" x1="51.1592" y1="22.9819" x2="51.1592" y2="69.5552">
		<stop  offset="0" style="stop-color:#FFFFFF"/>
		<stop  offset="1" style="stop-color:#E7E8E9"/>
	</linearGradient>
	<path fill="url(#SVGID_9_)" d="M42.705,69.555c2.336-1.116,4.785-1.688,7.354-1.688c2.327,0,4.449,0.425,6.365,1.272
		c0.281,0.124,0.545,0.272,0.813,0.415h22.646c-1.516-3.195-3.392-5.972-5.673-8.272c-2.813-2.837-6.05-4.982-9.712-6.438
		c-3.662-1.456-7.48-2.183-11.457-2.183c-5.045,0-9.36,0.848-12.949,2.547l1.236-16.224h37.829V22.982h-52.96l-3.762,46.573H42.705z
		"/>
</g>
</svg>
