<?xml version="1.0" encoding="utf-8"?>
<!DOCTYPE svg PUBLIC "-//W3C//DTD SVG 1.1//EN" "http://www.w3.org/Graphics/SVG/1.1/DTD/svg11.dtd">
<svg version="1.1" id="Layer_1" xmlns="http://www.w3.org/2000/svg" xmlns:xlink="http://www.w3.org/1999/xlink" x="0px" y="0px"
	 width="102.154px" height="141.417px" viewBox="0 0 102.154 141.417" enable-background="new 0 0 102.154 141.417"
	 xml:space="preserve">
<path d="M84.902,0h-67.65C7.739,0,0,7.74,0,17.252V67v7.417v49.748c0,9.513,7.739,17.252,17.252,17.252h67.65
	c9.512,0,17.252-7.739,17.252-17.252V74.417V67V17.252C102.154,7.74,94.414,0,84.902,0z"/>
<linearGradient id="SVGID_1_" gradientUnits="userSpaceOnUse" x1="51.0767" y1="4.252" x2="51.0767" y2="69.2334">
	<stop  offset="0" style="stop-color:#BCBEC0"/>
	<stop  offset="0.153" style="stop-color:#9C9EA1"/>
	<stop  offset="0.3368" style="stop-color:#7D7F82"/>
	<stop  offset="0.5173" style="stop-color:#666769"/>
	<stop  offset="0.6911" style="stop-color:#525255"/>
	<stop  offset="0.8553" style="stop-color:#454547"/>
	<stop  offset="1" style="stop-color:#414142"/>
</linearGradient>
<path fill="url(#SVGID_1_)" d="M84.902,4.252h-67.65c-7.18,0-13,5.82-13,13v39.271h6.962v12.71h79.726v-12.71h6.963V17.252
	C97.902,10.072,92.082,4.252,84.902,4.252z"/>
<linearGradient id="SVGID_2_" gradientUnits="userSpaceOnUse" x1="51.0767" y1="72.1846" x2="51.0767" y2="137.165">
	<stop  offset="0" style="stop-color:#808285"/>
	<stop  offset="0.3231" style="stop-color:#6D6E70"/>
	<stop  offset="1" style="stop-color:#414142"/>
</linearGradient>
<path fill="url(#SVGID_2_)" d="M90.939,84.894V72.185H11.214v12.709H4.252v39.271c0,7.18,5.82,13,13,13h67.65c7.18,0,13-5.82,13-13
	V84.894H90.939z"/>
<linearGradient id="SVGID_3_" gradientUnits="userSpaceOnUse" x1="6.3154" y1="59.3574" x2="6.3154" y2="82.0591">
	<stop  offset="0" style="stop-color:#58595B"/>
	<stop  offset="0.0305" style="stop-color:#5C5C5F"/>
	<stop  offset="0.2151" style="stop-color:#6D6F71"/>
	<stop  offset="0.3158" style="stop-color:#5D5E60"/>
	<stop  offset="0.4472" style="stop-color:#4E4F51"/>
	<stop  offset="0.5871" style="stop-color:#444446"/>
	<stop  offset="0.7485" style="stop-color:#414142"/>
	<stop  offset="0.8973" style="stop-color:#424244"/>
	<stop  offset="0.9509" style="stop-color:#49494B"/>
	<stop  offset="0.989" style="stop-color:#545456"/>
	<stop  offset="1" style="stop-color:#58595B"/>
</linearGradient>
<rect x="4.252" y="59.357" fill="url(#SVGID_3_)" width="4.127" height="22.701"/>
<linearGradient id="SVGID_4_" gradientUnits="userSpaceOnUse" x1="95.8379" y1="59.3574" x2="95.8379" y2="82.0591">
	<stop  offset="0" style="stop-color:#58595B"/>
	<stop  offset="0.0305" style="stop-color:#5C5C5F"/>
	<stop  offset="0.2151" style="stop-color:#6D6F71"/>
	<stop  offset="0.3158" style="stop-color:#5D5E60"/>
	<stop  offset="0.4472" style="stop-color:#4E4F51"/>
	<stop  offset="0.5871" style="stop-color:#444446"/>
	<stop  offset="0.7485" style="stop-color:#414142"/>
	<stop  offset="0.8973" style="stop-color:#424244"/>
	<stop  offset="0.9509" style="stop-color:#49494B"/>
	<stop  offset="0.989" style="stop-color:#545456"/>
	<stop  offset="1" style="stop-color:#58595B"/>
</linearGradient>
<rect x="93.773" y="59.357" fill="url(#SVGID_4_)" width="4.129" height="22.701"/>
<linearGradient id="SVGID_5_" gradientUnits="userSpaceOnUse" x1="51.0767" y1="5.252" x2="51.0767" y2="69.2334">
	<stop  offset="0" style="stop-color:#58595B"/>
	<stop  offset="0.1417" style="stop-color:#555557"/>
	<stop  offset="1" style="stop-color:#414142"/>
</linearGradient>
<path fill="url(#SVGID_5_)" d="M90.939,69.233H11.214v-12.71l0,0h-0.001H5.252V17.253c0-6.616,5.383-12.001,11.999-12.001h67.65
	c6.616,0,12.001,5.385,12.001,12.001v39.271h-5.963l0,0l0,0v11.709V69.233z"/>
<linearGradient id="SVGID_6_" gradientUnits="userSpaceOnUse" x1="51.0757" y1="73.1846" x2="51.0757" y2="136.165">
	<stop  offset="0" style="stop-color:#58595B"/>
	<stop  offset="0.1417" style="stop-color:#555557"/>
	<stop  offset="1" style="stop-color:#414142"/>
</linearGradient>
<path fill="url(#SVGID_6_)" d="M84.902,136.165h-67.65c-6.615,0-12-5.384-12-12.001V85.894h5.961h1v-1V73.185h77.727v11.709v1h1
	H96.9v38.271C96.9,130.781,91.519,136.165,84.902,136.165L84.902,136.165z"/>
<g>
	<linearGradient id="SVGID_7_" gradientUnits="userSpaceOnUse" x1="51.0767" y1="72.1846" x2="51.0767" y2="120.3584">
		<stop  offset="0" style="stop-color:#FFFFFF"/>
		<stop  offset="1" style="stop-color:#E7E8E9"/>
	</linearGradient>
	<path fill="url(#SVGID_7_)" d="M79.976,72.185h-20.8c0.918,0.78,1.753,1.685,2.485,2.744c1.188,1.723,2.1,3.711,2.73,5.965
		c0.629,2.256,0.945,4.645,0.945,7.166c0,2.474-0.303,4.789-0.909,6.947c-0.608,2.158-1.481,4.05-2.618,5.674
		c-1.143,1.627-2.524,2.899-4.147,3.82c-1.626,0.921-3.456,1.381-5.493,1.381c-2.328,0-4.438-0.666-6.329-2.001
		c-1.893-1.332-3.505-3.235-4.839-5.71c-1.334-2.474-2.398-5.479-3.199-9.021c-0.801-3.54-1.273-7.54-1.418-12.004
		c2.069-2.07,4.128-3.719,6.176-4.962h-23.33c-0.007,0.488-0.016,0.974-0.016,1.471c0,7.324,0.74,13.87,2.219,19.643
		c1.479,5.771,3.625,10.656,6.44,14.658c2.811,4,6.278,7.068,10.401,9.203c4.122,2.132,8.825,3.199,14.111,3.199
		c4.609,0,8.792-0.873,12.551-2.619c3.758-1.745,6.971-4.109,9.639-7.093c2.666-2.982,4.729-6.485,6.183-10.511
		c1.456-4.025,2.183-8.293,2.183-12.805c0-4.509-0.679-8.765-2.035-12.767C80.627,73.745,80.309,72.959,79.976,72.185z"/>
	<linearGradient id="SVGID_8_" gradientUnits="userSpaceOnUse" x1="50.606" y1="21.0596" x2="50.606" y2="69.2334">
		<stop  offset="0" style="stop-color:#FFFFFF"/>
		<stop  offset="1" style="stop-color:#E7E8E9"/>
	</linearGradient>
	<path fill="url(#SVGID_8_)" d="M78.539,69.233c-1.006-1.868-2.151-3.622-3.491-5.218c-2.546-3.03-5.614-5.419-9.203-7.165
		c-3.588-1.746-7.613-2.619-12.074-2.619c-3.057,0-5.953,0.559-8.695,1.674c-2.74,1.116-5.371,2.57-7.893,4.365
		c0.486-3.783,1.211-7.203,2.184-10.259c0.969-3.055,2.109-5.647,3.419-7.782c1.31-2.134,2.8-3.783,4.473-4.947
		c1.674-1.164,3.503-1.746,5.493-1.746c6.596,0,10.403,4.365,11.421,13.094h17.751c-0.682-4.559-1.854-8.571-3.527-12.038
		c-1.674-3.468-3.761-6.341-6.257-8.622c-2.499-2.277-5.337-4-8.512-5.164c-3.177-1.164-6.609-1.746-10.293-1.746
		c-5.676,0-10.648,1.14-14.915,3.419c-4.268,2.28-7.819,5.638-10.657,10.075c-2.835,4.438-4.97,9.93-6.401,16.479
		c-1.179,5.389-1.863,11.464-2.071,18.201H78.539z"/>
</g>
</svg>
