<?xml version="1.0" encoding="utf-8"?>
<svg version="1.1" id="Layer_1" xmlns="http://www.w3.org/2000/svg" xmlns:xlink="http://www.w3.org/1999/xlink" x="0px" y="0px"
	 width="26.35px" height="28.346px" viewBox="0 0 26.35 28.346" enable-background="new 0 0 26.35 28.346" xml:space="preserve">
<linearGradient id="gradient" gradientUnits="userSpaceOnUse" x1="17.1387" y1="28.3467" x2="17.1387" y2="4.882813e-004">
	<stop  offset="0" style="stop-color:#404040"/>
	<stop  offset="1" style="stop-color:#A0A0A0"/>
</linearGradient>
<path fill="#808080" d="M0,11.941L0.013,6.61C0.013,2.964,2.979,0,6.625,0C7.81,0,8.923,0.313,9.887,0.861l-0.002,0l0.171,0.099
	c1.905,1.162,3.18,3.259,3.18,5.649c0,0.622-0.085,1.224-0.248,1.795l-2.51-1.449c-3.047-1.759-5.54-0.32-5.54,3.199v3.543
	c-0.832,0.172-1.652,0.48-2.43,0.928C1.494,15.211,0.653,15.981,0,16.867V11.941z M14.541,24.809l-4.623,2.652
	c-3.155,1.823-7.208,0.738-9.03-2.418c-1.822-3.158-0.738-7.209,2.421-9.031c0.522-0.303,1.071-0.525,1.629-0.672v2.835
	c0,3.52,2.493,4.959,5.54,3.199l3.097-1.786c0.575,0.652,1.264,1.228,2.062,1.688c1.018,0.588,2.108,0.93,3.205,1.052L14.541,24.809
	z M25.466,17.469c-1.823,3.158-5.874,4.241-9.031,2.42c-0.542-0.313-1.022-0.694-1.438-1.123l2.429-1.402
	c3.049-1.759,3.049-4.639,0-6.398l-3.016-1.74c0.275-0.823,0.426-1.701,0.426-2.616c0-1.177-0.246-2.297-0.694-3.309l4.294,2.46
	l4.61,2.677C26.203,10.261,27.287,14.312,25.466,17.469z"/>
<path fill="#C0C0C0" d="M16.625,12.352c0.944,0.545,1.486,1.206,1.486,1.813c0,0.607-0.542,1.269-1.486,1.814l-6.946,4.01
	c-0.608,0.352-1.183,0.538-1.662,0.538c-1.286,0-1.479-1.473-1.479-2.352v-8.02c0-0.879,0.192-2.352,1.479-2.352
	c0.479,0,1.054,0.186,1.662,0.537L16.625,12.352z"/>
</svg>
