<?xml version="1.0" encoding="utf-8"?>
<svg version="1.1" id="Layer_1" xmlns="http://www.w3.org/2000/svg" xmlns:xlink="http://www.w3.org/1999/xlink" x="0px" y="0px"
	 width="42.211px" height="28.347px" viewBox="0 0 42.211 28.347" enable-background="new 0 0 42.211 28.347" xml:space="preserve">
<linearGradient id="gradient" gradientUnits="userSpaceOnUse" x1="17.1387" y1="28.3467" x2="17.1387" y2="4.882813e-004">
	<stop  offset="0" style="stop-color:#404040"/>
	<stop  offset="1" style="stop-color:#A0A0A0"/>
</linearGradient>
<path fill="#C0C0C0" d="M33.358,14.174c0-2.364-1.885-4.282-4.232-4.345v2.567c0.932,0.062,1.671,0.83,1.671,1.778
	c0,0.946-0.739,1.714-1.671,1.776v2.568C31.474,18.455,33.358,16.536,33.358,14.174z M29.126,0.973v7.956
	c2.844,0.063,5.132,2.384,5.132,5.245s-2.288,5.181-5.132,5.244v7.955c7.236-0.063,13.085-5.947,13.085-13.199
	C42.211,6.92,36.362,1.037,29.126,0.973z"/>
<g>
	<path fill="#808080" d="M0,0v28.347h28.348V0H0z M17.56,10.456c-2.09-1.302-2.545-2.508-2.545-2.508v12.497
		c0,1.458-1.658,2.64-3.704,2.64c-2.045,0-3.704-1.182-3.704-2.64c0-1.459,1.659-2.641,3.704-2.641c0.979,0,1.868,0.273,2.529,0.715
		V5.262h1.175c0,0,0.374,1.21,3.023,2.708c2.715,1.536,2.61,4.045,2.702,6.101C20.109,12.527,19.033,11.373,17.56,10.456z"/>
</g>
</svg>
