<?xml version="1.0" encoding="utf-8"?>
<!DOCTYPE svg PUBLIC "-//W3C//DTD SVG 1.1//EN" "http://www.w3.org/Graphics/SVG/1.1/DTD/svg11.dtd">
<svg version="1.1" id="Layer_1" xmlns="http://www.w3.org/2000/svg" xmlns:xlink="http://www.w3.org/1999/xlink" x="0px" y="0px"
	 width="88.506px" height="100.116px" viewBox="0 0 88.506 100.116" enable-background="new 0 0 88.506 100.116"
	 xml:space="preserve">
<linearGradient id="gradient" gradientUnits="userSpaceOnUse" x1="17.1387" y1="100.116" x2="17.1387" y2="0.0">
	<stop  offset="0" style="stop-color:#404040"/>
	<stop  offset="1" style="stop-color:#A0A0A0"/>
</linearGradient>
<rect y="95.578" fill="#C0C0C0" width="88.506" height="4.538"/>
<rect x="3.491" y="86.847" fill="#C0C0C0" width="81.699" height="6.286"/>
<rect x="2.967" y="15.275" fill="#C0C0C0" width="81.263" height="8.729"/>
<polygon fill="#C0C0C0" points="43.598,0 1.048,9.95 3.491,12.657 43.598,12.657 83.707,12.657 86.15,9.95 "/>
<path fill="#808080" d="M14.688,51.635c-0.07-4.286-0.181-8.574-0.348-12.857c-0.159-4.036-0.418-8.069-0.615-12.104
	c-0.017-0.348-0.165-0.424-0.454-0.486c-1.191-0.26-2.387-0.382-3.589-0.383c-1.202,0.001-2.398,0.123-3.588,0.383
	c-0.29,0.063-0.437,0.138-0.454,0.486c-0.198,4.035-0.458,8.067-0.616,12.104c-0.167,4.284-0.278,8.571-0.348,12.857
	c-0.05,3.037-0.018,6.077,0.029,9.116c0.053,3.373,0.127,6.743,0.264,10.111c0.147,3.615,0.373,7.227,0.572,10.84
	c0.038,0.693,0.108,1.383,0.162,2.057c1.334,0.346,2.658,0.547,3.978,0.564c1.322-0.018,2.646-0.219,3.979-0.564
	c0.054-0.674,0.124-1.365,0.163-2.057c0.199-3.613,0.424-7.225,0.571-10.84c0.137-3.368,0.211-6.738,0.264-10.111
	C14.708,57.712,14.738,54.672,14.688,51.635z"/>
<path fill="#808080" d="M36.814,51.635c-0.07-4.286-0.182-8.574-0.35-12.857c-0.156-4.036-0.418-8.069-0.614-12.104
	c-0.017-0.348-0.165-0.424-0.454-0.486c-1.19-0.26-2.386-0.382-3.588-0.383c-1.202,0.001-2.399,0.123-3.589,0.383
	c-0.289,0.063-0.436,0.138-0.452,0.486c-0.198,4.035-0.457,8.067-0.614,12.104c-0.168,4.284-0.28,8.571-0.35,12.857
	c-0.049,3.037-0.019,6.077,0.029,9.116c0.053,3.373,0.128,6.743,0.264,10.111c0.147,3.615,0.373,7.227,0.571,10.84
	c0.038,0.693,0.109,1.383,0.162,2.057c1.335,0.346,2.658,0.547,3.979,0.564c1.322-0.018,2.644-0.219,3.978-0.564
	c0.053-0.674,0.126-1.365,0.162-2.057c0.2-3.613,0.425-7.225,0.571-10.84c0.138-3.368,0.212-6.738,0.266-10.111
	C36.833,57.712,36.864,54.672,36.814,51.635z"/>
<path fill="#808080" d="M62.474,51.635c-0.07-4.286-0.181-8.574-0.349-12.857c-0.158-4.036-0.419-8.069-0.614-12.104
	c-0.017-0.348-0.165-0.424-0.453-0.486c-1.191-0.26-2.388-0.382-3.59-0.383c-1.201,0.001-2.397,0.123-3.589,0.383
	c-0.289,0.063-0.436,0.138-0.453,0.486c-0.196,4.035-0.456,8.067-0.613,12.104c-0.17,4.284-0.28,8.571-0.352,12.857
	c-0.048,3.037-0.019,6.077,0.03,9.116c0.054,3.373,0.128,6.743,0.265,10.111c0.147,3.615,0.373,7.227,0.571,10.84
	c0.038,0.693,0.109,1.383,0.162,2.057c1.334,0.346,2.655,0.547,3.979,0.564c1.321-0.018,2.645-0.219,3.979-0.564
	c0.055-0.674,0.125-1.365,0.162-2.057c0.2-3.613,0.425-7.225,0.571-10.84c0.137-3.368,0.211-6.738,0.265-10.111
	C62.493,57.712,62.525,54.672,62.474,51.635z"/>
<path fill="#808080" d="M84.077,51.635c-0.071-4.286-0.182-8.574-0.35-12.857c-0.158-4.036-0.418-8.069-0.615-12.104
	c-0.016-0.348-0.164-0.424-0.453-0.486c-1.19-0.26-2.387-0.382-3.589-0.383c-1.201,0.001-2.397,0.123-3.589,0.383
	c-0.289,0.063-0.436,0.138-0.453,0.486c-0.196,4.035-0.456,8.067-0.614,12.104c-0.168,4.284-0.28,8.571-0.35,12.857
	c-0.049,3.037-0.019,6.077,0.03,9.116c0.052,3.373,0.127,6.743,0.265,10.111c0.146,3.615,0.371,7.227,0.569,10.84
	c0.039,0.693,0.109,1.383,0.163,2.057c1.336,0.346,2.655,0.547,3.979,0.564c1.322-0.018,2.644-0.219,3.979-0.564
	c0.055-0.674,0.126-1.365,0.162-2.057c0.199-3.613,0.425-7.225,0.573-10.84c0.135-3.368,0.209-6.738,0.265-10.111
	C84.095,57.712,84.126,54.672,84.077,51.635z"/>
</svg>
