<?xml version="1.0" encoding="utf-8"?>
<svg version="1.1" id="Layer_1" xmlns="http://www.w3.org/2000/svg" xmlns:xlink="http://www.w3.org/1999/xlink" x="0px" y="0px"
	 width="37.159px" height="28.346px" viewBox="0 0 37.159 28.346" enable-background="new 0 0 37.159 28.346" xml:space="preserve">
<linearGradient id="gradient" gradientUnits="userSpaceOnUse" x1="17.1387" y1="28.3467" x2="17.1387" y2="4.882813e-004">
	<stop  offset="0" style="stop-color:#404040"/>
	<stop  offset="1" style="stop-color:#A0A0A0"/>
</linearGradient>
<path fill="#808080" d="M19.81,17.687c-1.513,0.95-3.272,1.509-5.158,1.509c-1.885,0-3.645-0.559-5.157-1.509
	C4.085,19.327,0.198,23.457,0,28.346h29.304C29.106,23.457,25.219,19.327,19.81,17.687z"/>
<ellipse fill="#C0C0C0" cx="14.652" cy="8.5" rx="7.934" ry="8.5"/>
<path fill="#C0C0C0" d="M36.565,17.763l-2.212-0.642l0.163-0.564l-3.274-0.949l-0.163,0.564l-2.84-0.822
	c-0.008,0.273-0.038,0.548-0.118,0.822c-0.079,0.274-0.2,0.523-0.34,0.758l2.839,0.823l-0.163,0.564l1.142,0.331v9.697h1.294v-9.322
	l0.839,0.243l0.163-0.564l2.212,0.642c0.437,0.126,0.894-0.125,1.02-0.562C37.253,18.346,37.002,17.889,36.565,17.763z"/>
<circle fill="#808080" cx="24.933" cy="15.248" r="2.586"/>
</svg>
