<?xml version="1.0" encoding="utf-8"?>
<svg version="1.1" id="Layer_1" xmlns="http://www.w3.org/2000/svg" xmlns:xlink="http://www.w3.org/1999/xlink" x="0px" y="0px"
	 width="32.843px" height="28.347px" viewBox="0 0 32.843 28.347" enable-background="new 0 0 32.843 28.347" xml:space="preserve">
<linearGradient id="gradient" gradientUnits="userSpaceOnUse" x1="17.1387" y1="28.3467" x2="17.1387" y2="4.882813e-004">
	<stop  offset="0" style="stop-color:#404040"/>
	<stop  offset="1" style="stop-color:#A0A0A0"/>
</linearGradient>
<path fill="#C0C0C0" d="M13.86,4.543V0.729C13.86,0.327,13.534,0,13.13,0H0.73C0.327,0,0,0.327,0,0.729v27.617h32.843V4.543H13.86z
	 M16.422,26.665c-5.658,0-10.245-4.586-10.245-10.244c0-5.658,4.587-10.244,10.245-10.244s10.244,4.586,10.244,10.244
	C26.666,22.079,22.08,26.665,16.422,26.665z"/>
<path fill="#808080" d="M16.422,7.025c-5.181,0-9.396,4.215-9.396,9.396c0,5.181,4.215,9.396,9.396,9.396
	c5.18,0,9.396-4.215,9.396-9.396C25.817,11.241,21.602,7.025,16.422,7.025z M18.981,13.305c-1.581-0.985-1.924-1.896-1.924-1.896
	v9.45c0,1.102-1.254,1.996-2.801,1.996s-2.801-0.895-2.801-1.996c0-1.104,1.254-1.998,2.801-1.998c0.741,0,1.412,0.207,1.913,0.541
	V9.377h0.888c0,0,0.283,0.915,2.287,2.047c2.053,1.161,1.973,3.059,2.043,4.613C20.909,14.87,20.097,13.999,18.981,13.305z"/>
</svg>
