<?xml version="1.0" encoding="utf-8"?>
<svg version="1.1" id="Layer_1" xmlns="http://www.w3.org/2000/svg" xmlns:xlink="http://www.w3.org/1999/xlink" x="0px" y="0px"
	 width="31.74px" height="28.346px" viewBox="0 0 31.74 28.346" enable-background="new 0 0 31.74 28.346" xml:space="preserve">
<linearGradient id="gradient" gradientUnits="userSpaceOnUse" x1="17.1387" y1="28.3467" x2="17.1387" y2="4.882813e-004">
	<stop  offset="0" style="stop-color:#404040"/>
	<stop  offset="1" style="stop-color:#A0A0A0"/>
</linearGradient>
<path fill="#808080" d="M10.092,17.502H7.624c-0.717,0-1.301-0.584-1.301-1.3v-4.256c0-0.716,0.584-1.3,1.301-1.3h2.468V17.502
	L10.092,17.502z"/>
<path fill="#808080" d="M15.933,22.247c-0.201,0-0.441-0.093-0.692-0.268l-3.953-4.296v-7.217l4.001-4.335
	c0.203-0.135,0.443-0.228,0.645-0.228c0.554,0,0.597,0.721,0.597,0.941v14.46C16.529,21.525,16.486,22.247,15.933,22.247
	L15.933,22.247z"/>
<path fill="#C0C0C0" d="M20.056,0c-2.319,0-3.813,1.077-4.144,1.989H15.83C15.499,1.077,14.006,0,11.686,0
	C9.364,0,4.808,1.906,0,1.077V26.97h13.832c0.123,0.774,0.983,1.376,2.038,1.376s1.915-0.602,2.038-1.376H31.74V1.077
	C26.934,1.906,22.376,0,20.056,0z M17.662,21.305c0,1.432-0.869,2.074-1.729,2.074c-0.439,0-0.891-0.159-1.339-0.47l-0.076-0.055
	l-0.064-0.068l-3.828-4.149H7.623c-1.342,0-2.436-1.094-2.436-2.437v-4.253c0-1.342,1.094-2.434,2.436-2.434h3.001l3.831-4.15
	l0.063-0.068l0.076-0.054c0.448-0.313,0.899-0.47,1.342-0.47c0.859,0,1.727,0.643,1.727,2.075V21.305z M19.048,20.202l-0.325,0.049
	v-1.272l0.234-0.04c2.381-0.405,4.11-2.45,4.11-4.863c0-2.412-1.729-4.458-4.11-4.864l-0.234-0.041V7.898l0.325,0.048
	c3.012,0.451,5.282,3.085,5.282,6.127C24.33,17.119,22.06,19.753,19.048,20.202z M18.906,12.01l-0.182-0.071v-1.305l0.36,0.103
	c1.482,0.425,2.516,1.798,2.516,3.337c0,1.542-1.036,2.914-2.516,3.337l-0.36,0.104V16.21l0.182-0.07
	c0.856-0.324,1.433-1.154,1.433-2.066C20.339,13.163,19.763,12.334,18.906,12.01z"/>
</svg>
