<?xml version="1.0" encoding="utf-8"?>
<svg version="1.1" id="Layer_1" xmlns="http://www.w3.org/2000/svg" xmlns:xlink="http://www.w3.org/1999/xlink" x="0px" y="0px"
	 width="29.314px" height="28.347px" viewBox="0 0 29.314 28.347" enable-background="new 0 0 29.314 28.347" xml:space="preserve">
<linearGradient id="gradient" gradientUnits="userSpaceOnUse" x1="17.1387" y1="28.3467" x2="17.1387" y2="4.882813e-004">
	<stop  offset="0" style="stop-color:#404040"/>
	<stop  offset="1" style="stop-color:#A0A0A0"/>
</linearGradient>
	 <path fill="#C0C0C0" d="M0,0v8.434h11.646c0.194-1.688,0.933-3.323,2.227-4.616c3.046-3.046,8-3.046,11.053,0
		c1.291,1.292,2.028,2.928,2.225,4.616h2.165V0H0z M13.935,18.391h15.38V9.956h-2.136c-0.14,1.793-0.888,3.547-2.254,4.916
		c-2.684,2.681-6.853,2.996-9.887,0.959C14.883,16.57,14.497,17.451,13.935,18.391z M11.611,9.956H0v8.435h6.056
		c0.217-0.239,0.44-0.477,0.677-0.714c2.183-2.177,4.521-3.631,6.183-3.975C12.149,12.565,11.715,11.271,11.611,9.956z
		 M4.792,19.912H0v8.435h29.314v-8.435H12.896c-0.532,0.696-1.142,1.403-1.834,2.095c-3.22,3.222-6.804,4.864-7.996,3.669
		C2.146,24.751,2.917,22.411,4.792,19.912z"/>
<path fill="#808080" d="M16.207,6.153c1.759-1.759,4.617-1.759,6.379,0c1.765,1.762,1.765,4.623,0.001,6.384
	c-1.763,1.759-4.621,1.759-6.38,0C14.445,10.776,14.445,7.915,16.207,6.153z"/>
</svg>
