<?xml version="1.0" encoding="utf-8"?>
<svg version="1.1" id="Layer_1" xmlns="http://www.w3.org/2000/svg" xmlns:xlink="http://www.w3.org/1999/xlink" x="0px" y="0px"
	 width="30.891px" height="28.346px" viewBox="0 0 30.891 28.346" enable-background="new 0 0 30.891 28.346" xml:space="preserve">
<linearGradient id="gradient" gradientUnits="userSpaceOnUse" x1="17.1387" y1="28.3467" x2="17.1387" y2="4.882813e-004">
	<stop  offset="0" style="stop-color:#404040"/>
	<stop  offset="1" style="stop-color:#A0A0A0"/>
</linearGradient>
<path fill="#808080" d="M29.13,18.554H1.761C0.788,18.554,0,19.343,0,20.316v6.27c0,0.973,0.788,1.761,1.761,1.761H29.13
	c0.972,0,1.761-0.788,1.761-1.761v-6.27C30.891,19.343,30.102,18.554,29.13,18.554z M27.406,23.507H3.485
	c-0.507,0-0.917-0.328-0.917-0.733s0.411-0.734,0.917-0.734h23.921c0.506,0,0.917,0.329,0.917,0.734S27.912,23.507,27.406,23.507z"
	/>
<path fill="#C0C0C0" d="M15.445,7.507c-2.038,0-3.689,1.651-3.689,3.689c0,2.038,1.651,3.689,3.689,3.689
	c2.037,0,3.689-1.652,3.689-3.689C19.135,9.159,17.482,7.507,15.445,7.507z M15.445,12.713c-0.838,0-1.517-0.679-1.517-1.517
	s0.679-1.517,1.517-1.517s1.518,0.679,1.518,1.517S16.283,12.713,15.445,12.713z M15.446,0C9.262,0,4.249,5.013,4.249,11.197
	c0,2.436,0.78,4.688,2.101,6.524h18.191c1.321-1.836,2.102-4.089,2.102-6.524C26.643,5.013,21.629,0,15.446,0z M15.446,15.649
	c-2.459,0-4.453-1.993-4.453-4.452s1.994-4.453,4.453-4.453c2.458,0,4.453,1.994,4.453,4.453S17.904,15.649,15.446,15.649z"/>
</svg>
