<?xml version="1.0" encoding="utf-8"?>
<svg version="1.1" id="Layer_1" xmlns="http://www.w3.org/2000/svg" xmlns:xlink="http://www.w3.org/1999/xlink" x="0px" y="0px"
	 width="87.256px" height="28.346px" viewBox="0 0 87.256 28.346" enable-background="new 0 0 87.256 28.346" xml:space="preserve">
<linearGradient id="gradient" gradientUnits="userSpaceOnUse" x1="17.1387" y1="28.3467" x2="17.1387" y2="4.882813e-004">
	<stop  offset="0" style="stop-color:#404040"/>
	<stop  offset="1" style="stop-color:#A0A0A0"/>
</linearGradient>
<g>
	<path fill="#C0C0C0" d="M7.875,27.854V4.552L1.764,8.368L0,5.743L8.328,0.41h3.322v27.444H7.875z"/>
	<path fill="#C0C0C0" d="M33.352,7.752c0,1.231-0.211,2.428-0.636,3.591c-0.424,1.161-1.108,2.399-2.052,3.712
		s-2.153,2.749-3.631,4.308c-1.476,1.558-3.268,3.336-5.372,5.333h12.348l-0.452,3.158H17.353v-2.995
		c2.406-2.406,4.39-4.451,5.949-6.133c1.559-1.681,2.788-3.146,3.692-4.39c0.901-1.243,1.53-2.364,1.887-3.362
		c0.354-0.999,0.532-2.032,0.532-3.099c0-1.56-0.418-2.74-1.251-3.548C27.328,3.521,26.24,3.117,24.9,3.117
		c-1.148,0-2.146,0.239-2.995,0.719c-0.847,0.479-1.709,1.238-2.584,2.276l-2.542-1.969c1.119-1.396,2.357-2.434,3.712-3.118
		C21.846,0.343,23.383,0,25.106,0c1.257,0,2.394,0.191,3.404,0.574c1.012,0.383,1.881,0.917,2.604,1.599
		c0.726,0.684,1.279,1.504,1.662,2.463C33.16,5.592,33.352,6.63,33.352,7.752z"/>
	<path fill="#C0C0C0" d="M63.913,21.085v6.769h-3.651v-6.769H48.857v-2.707L56.776,0l3.158,1.313L52.838,18.09h7.424l0.37-7.385
		h3.281v7.385h3.568v2.995H63.913z"/>
	<path fill="#C0C0C0" d="M87.256,19.076c0,1.339-0.227,2.577-0.678,3.712c-0.45,1.135-1.095,2.113-1.928,2.934
		c-0.834,0.82-1.832,1.462-2.995,1.928c-1.162,0.465-2.454,0.697-3.876,0.697c-1.642,0-3.14-0.287-4.492-0.861
		c-1.354-0.574-2.593-1.518-3.712-2.83l2.584-2.092c0.792,0.956,1.647,1.647,2.563,2.071c0.916,0.425,1.921,0.636,3.016,0.636
		c1.722,0,3.09-0.574,4.102-1.724c1.012-1.148,1.519-2.666,1.519-4.553c0-1.066-0.131-1.963-0.391-2.688
		c-0.26-0.726-0.614-1.313-1.066-1.764c-0.451-0.452-0.979-0.773-1.579-0.965c-0.603-0.191-1.258-0.286-1.969-0.286
		c-0.63,0-1.237,0.081-1.825,0.246c-0.589,0.163-1.211,0.396-1.867,0.697h-2.953V0.41h14.768l-0.451,2.953H75.317v7.919
		c0.71-0.356,1.423-0.596,2.133-0.719c0.711-0.123,1.396-0.185,2.052-0.185c2.324,0,4.198,0.765,5.621,2.298
		C86.544,14.208,87.256,16.341,87.256,19.076z"/>
</g>
<path fill="#808080" d="M39.052,10.173c0-0.794,0.273-1.463,0.82-2.01c0.548-0.548,1.217-0.82,2.011-0.82
	c0.82,0,1.504,0.272,2.051,0.82c0.548,0.547,0.82,1.216,0.82,2.01s-0.272,1.471-0.82,2.03c-0.547,0.561-1.23,0.842-2.051,0.842
	c-0.794,0-1.463-0.281-2.011-0.842C39.325,11.644,39.052,10.967,39.052,10.173z M39.052,20.475c0-0.792,0.273-1.463,0.82-2.011
	c0.548-0.547,1.217-0.82,2.011-0.82c0.82,0,1.504,0.273,2.051,0.82c0.548,0.548,0.82,1.219,0.82,2.011
	c0,0.793-0.272,1.471-0.82,2.029c-0.547,0.561-1.23,0.842-2.051,0.842c-0.794,0-1.463-0.281-2.011-0.842
	C39.325,21.946,39.052,21.268,39.052,20.475z"/>
</svg>
