<?xml version="1.0" encoding="utf-8"?>
<svg version="1.1" id="Layer_1" xmlns="http://www.w3.org/2000/svg" xmlns:xlink="http://www.w3.org/1999/xlink" x="0px" y="0px"
	 width="28.347px" height="28.346px" viewBox="0 0 28.347 28.346" enable-background="new 0 0 28.347 28.346" xml:space="preserve">
<linearGradient id="gradient" gradientUnits="userSpaceOnUse" x1="17.1387" y1="28.3467" x2="17.1387" y2="4.882813e-004">
	<stop  offset="0" style="stop-color:#404040"/>
	<stop  offset="1" style="stop-color:#A0A0A0"/>
</linearGradient>
<polygon fill="#808080" points="2.868,25.371 5.021,20.543 7.695,23.219 "/>
<rect x="11.98" y="4.377" transform="matrix(0.7071 0.7071 -0.7071 0.7071 14.164 -5.7412)" fill="#808080" width="4.064" height="19.699"/>
<path fill="#808080" d="M23.103,8.009l-2.873-2.874l1.693-1.694c0.311-0.311,0.718-0.466,1.125-0.466
	c0.406,0,0.813,0.155,1.124,0.466l0.625,0.625c0.311,0.31,0.466,0.717,0.466,1.125c0,0.406-0.155,0.813-0.466,1.125L23.103,8.009z"
	/>
<path fill="#C0C0C0" d="M4.353,20.198l0.677-0.957l1.29-1.291H0v2.254h4.35L4.353,20.198z M18.582,13.842h5.785v0.928h-6.713
	l-2.253,2.252h8.966v0.928h-9.894l-2.253,2.254h7.509c-0.02,0.114-0.033,0.23-0.033,0.35c0,0.199,0.031,0.393,0.086,0.578h-8.489
	l-2.084,2.225l-7.914,3.696l2.642-5.921H0v7.215h28.347v-7.215h-2.042c0.055-0.186,0.086-0.379,0.086-0.578v-0.35h1.956V17.95
	h-1.956v-0.928h1.956V14.77h-1.956v-0.928h1.956v-2.253h-7.512L18.582,13.842z M24.938,12.585h0.881v7.968
	c0,1.092-1.243,1.978-2.775,1.978c-1.533,0-2.775-0.886-2.775-1.978c0-1.094,1.242-1.979,2.775-1.979
	c0.733,0,1.399,0.205,1.895,0.536V12.585z M0,0v7.48h5.283v0.928H0v2.253h5.283v0.928H0v5.433h7.247L9.5,14.77H7.222
	c0.054-0.186,0.086-0.378,0.086-0.578v-0.35h3.12l2.253-2.253H7.308v-0.928h6.301l2.253-2.253H7.308V7.48h9.481l2.257-2.256
	l0.602-0.602l0.088-0.088l1.692-1.695c0.467-0.462,1.079-0.715,1.727-0.715c0.652,0,1.265,0.255,1.727,0.715l0.625,0.625
	c0.46,0.462,0.715,1.074,0.715,1.726c0,0.654-0.255,1.269-0.717,1.729L24.943,7.48h3.403V0H0z M6.734,14.192
	c0,1.092-1.242,1.978-2.774,1.978c-1.533,0-2.775-0.886-2.775-1.978c0-1.094,1.242-1.979,2.775-1.979
	c0.733,0,1.399,0.205,1.895,0.537V5.694h0.88V14.192z M23.813,8.612l-0.602,0.602v0L23.124,9.3l-1.361,1.361h6.584V8.408h-4.331
	L23.813,8.612z"/>
</svg>
