<?xml version="1.0" encoding="utf-8"?>
<svg version="1.1" id="Layer_1" xmlns="http://www.w3.org/2000/svg" xmlns:xlink="http://www.w3.org/1999/xlink" x="0px" y="0px"
	 width="23.614px" height="23.613px" viewBox="0 0 23.614 23.613" enable-background="new 0 0 23.614 23.613" xml:space="preserve">
<path fill="#053538" d="M23.551,13.015c0.041-0.397,0.063-0.8,0.063-1.208c0-0.408-0.021-0.811-0.063-1.208L19.18,9.65
	c-0.158-0.539-0.369-1.055-0.633-1.537l2.416-3.755c-0.51-0.626-1.084-1.199-1.709-1.709l-3.756,2.416
	C15.016,4.801,14.5,4.59,13.961,4.433l-0.947-4.372C12.618,0.021,12.213,0,11.807,0c-0.408,0-0.812,0.021-1.209,0.061L9.65,4.433
	C9.111,4.59,8.596,4.801,8.112,5.065L4.358,2.649c-0.627,0.511-1.199,1.083-1.71,1.71l2.417,3.754C4.8,8.596,4.589,9.111,4.432,9.65
	l-4.371,0.948C0.021,10.996,0,11.398,0,11.807s0.021,0.811,0.061,1.209l4.371,0.947C4.589,14.501,4.8,15.017,5.065,15.5
	l-2.416,3.754c0.51,0.627,1.082,1.199,1.709,1.71l3.754-2.417c0.483,0.266,0.999,0.477,1.538,0.634l0.947,4.372
	c0.397,0.04,0.801,0.061,1.209,0.061c0.407,0,0.811-0.021,1.208-0.061l0.947-4.372c0.539-0.157,1.055-0.368,1.537-0.634l3.756,2.417
	c0.625-0.511,1.199-1.083,1.709-1.709L18.547,15.5c0.264-0.483,0.475-0.999,0.633-1.537L23.551,13.015z M11.807,17.095
	c-2.921,0-5.288-2.368-5.288-5.288c0-2.92,2.367-5.288,5.288-5.288c2.92,0,5.288,2.368,5.288,5.288
	C17.094,14.727,14.727,17.095,11.807,17.095z"/>
<circle fill="#053538" cx="11.807" cy="11.807" r="3.321"/>
</svg>
