<?xml version="1.0" encoding="utf-8"?>
<svg version="1.1" id="Layer_1" xmlns="http://www.w3.org/2000/svg" xmlns:xlink="http://www.w3.org/1999/xlink" x="0px" y="0px"
	 width="31.65px" height="28.346px" viewBox="0 0 31.65 28.346" enable-background="new 0 0 31.65 28.346" xml:space="preserve">
<linearGradient id="gradient" gradientUnits="userSpaceOnUse" x1="17.1387" y1="28.3467" x2="17.1387" y2="4.882813e-004">
	<stop  offset="0" style="stop-color:#404040"/>
	<stop  offset="1" style="stop-color:#A0A0A0"/>
</linearGradient>
<path fill="#C0C0C0" d="M15.701,13.72h0.249c0,0,5.065,0.397,9.497-1.28c-0.435-5.044-2.866-9.415-9.359-9.415H15.56
	c-6.489,0-8.923,4.37-9.356,9.415C10.636,14.118,15.701,13.72,15.701,13.72z M20.145,17.975c-2.674,0-3.085-1.975-3.48-2.231
	c-0.372-0.24-0.714-0.263-0.714-0.263h-0.249c0,0-0.343,0.022-0.714,0.263c-0.396,0.257-0.806,2.231-3.479,2.231
	c-2.113,0-3.579-2.317-5.376-3.4c0.155,5.725,3.738,13.771,9.428,13.771h0.528c5.692,0,9.276-8.047,9.431-13.771
	C23.723,15.658,22.257,17.975,20.145,17.975z"/>
<path fill="#808080" d="M26.778,21.8h-0.844h-0.589l0.211-0.549c0.892-2.323,1.382-4.831,1.382-7.061
	c0-7.993-3.954-12.578-10.851-12.578h-0.527C8.665,1.613,4.71,6.198,4.71,14.191c0,2.229,0.491,4.737,1.383,7.061l0.21,0.549H5.716
	H4.874C1.85,21.551,0,17.928,0,14.712c0-2.17,1.308-4.463,3.517-4.756C4.82,3.623,9.195,0,15.563,0h0.525
	c6.369,0,10.743,3.623,12.047,9.957c2.206,0.291,3.516,2.586,3.516,4.756c0,3.216-1.851,6.839-4.839,7.084l-0.016,0.001L26.778,21.8
	L26.778,21.8z"/>
</svg>
