<?xml version="1.0" encoding="utf-8"?>
<svg version="1.1" id="Layer_1" xmlns="http://www.w3.org/2000/svg" xmlns:xlink="http://www.w3.org/1999/xlink" x="0px" y="0px"
	 width="32.765px" height="28.347px" viewBox="0 0 32.765 28.347" enable-background="new 0 0 32.765 28.347" xml:space="preserve">
<linearGradient id="gradient" gradientUnits="userSpaceOnUse" x1="17.1387" y1="28.3467" x2="17.1387" y2="4.882813e-004">
	<stop  offset="0" style="stop-color:#404040"/>
	<stop  offset="1" style="stop-color:#A0A0A0"/>
</linearGradient>
<polygon fill="#808080" points="25.335,0 25.335,18.179 22.792,18.179 27.777,28.347 32.765,18.179 30.22,18.179 30.22,0 "/>
<polygon fill="#808080" points="7.429,28.347 7.429,10.168 9.973,10.168 4.986,0 0,10.168 2.544,10.168 2.544,28.347 "/>
<path fill="#C0C0C0" d="M20.197,18.127H9.736v4.178h12.509L20.197,18.127z M9.736,24.169v4.178h15.472l-2.049-4.179L9.736,24.169z
	 M23.028,12.084H9.736v4.179h13.292V12.084z M12.567,10.22l10.461-0.001V6.042l-12.509,0L12.567,10.22z M23.028,4.178V0H7.556
	l2.049,4.178L23.028,4.178z"/>
</svg>
