<?xml version="1.0" encoding="utf-8"?>
<svg version="1.1" id="Layer_1" xmlns="http://www.w3.org/2000/svg" xmlns:xlink="http://www.w3.org/1999/xlink" x="0px" y="0px"
	 width="26.608px" height="28.346px" viewBox="0 0 26.608 28.346" enable-background="new 0 0 26.608 28.346" xml:space="preserve">
<linearGradient id="gradient" gradientUnits="userSpaceOnUse" x1="17.1387" y1="28.3467" x2="17.1387" y2="4.882813e-004">
	<stop  offset="0" style="stop-color:#404040"/>
	<stop  offset="1" style="stop-color:#A0A0A0"/>
</linearGradient>
<path fill="#C0C0C0" d="M10.93,12.037c0.261,0,0.486-0.193,0.565-0.386c0.058-0.147,0.068-0.295,0.068-0.782
	c0-0.975-0.272-1.519-0.668-1.519h-0.012c-0.374,0-0.656,0.487-0.646,1.383C10.249,11.447,10.476,12.037,10.93,12.037z M0,26.876
	c0,0.812,0.658,1.47,1.471,1.47h23.668c0.812,0,1.47-0.658,1.47-1.47V6.418H0V26.876z M15.921,25.502h-5.233v-2.56h5.233V25.502z
	 M15.921,21.291h-5.233v-2.56h5.233V21.291z M18.706,14.349c0.272,0.136,0.658,0.26,1.055,0.26c0.726,0,1.201-0.464,1.201-1.258
	c0-0.986-0.747-1.314-1.598-1.314c-0.204,0-0.375,0-0.521,0.022l0.407-3.696h3.05v1.292H20.35l-0.169,1.315h0.226
	c0.318,0.012,0.964,0.159,1.384,0.556c0.408,0.396,0.634,0.952,0.634,1.689c0,1.439-0.952,2.606-2.562,2.606
	c-0.521,0-1.088-0.136-1.383-0.295L18.706,14.349z M17.847,18.731h5.234v2.56h-5.234V18.731z M17.847,22.943h5.234v2.56h-5.234
	V22.943z M13.774,8.363h4.014v0.975l-2.313,6.394h-1.45l2.268-6.031V9.678h-2.518V8.363z M10.975,8.273
	c1.372,0,2.086,1.247,2.086,3.027c0,1.666-0.533,2.833-1.213,3.559c-0.453,0.487-1.101,0.816-1.813,0.93
	c-0.238,0.033-0.465,0.033-0.691,0.033v-1.234c0.282,0,0.43-0.012,0.68-0.057c0.282-0.057,0.612-0.205,0.861-0.443
	c0.317-0.306,0.59-0.828,0.714-1.485h-0.034c-0.238,0.261-0.578,0.454-1.054,0.454c-0.952,0-1.734-0.85-1.734-2.199
	C8.775,9.587,9.558,8.273,10.975,8.273z M5.873,8.363h1.304v7.369H5.702V9.757H5.68l-1.246,0.647L4.185,9.236L5.873,8.363z
	 M3.527,18.731h5.234v2.56H3.527V18.731z M3.527,22.943h5.234v2.56H3.527V22.943z"/>
<g>
	<path fill="#808080" d="M4.134,3.175c0,0.351-0.283,0.636-0.635,0.636l0,0c-0.351,0-0.636-0.285-0.636-0.636v-2.54
		C2.863,0.284,3.148,0,3.499,0l0,0c0.352,0,0.635,0.284,0.635,0.635V3.175z"/>
	<path fill="#808080" d="M9.037,3.175c0,0.351-0.285,0.636-0.636,0.636l0,0c-0.351,0-0.636-0.285-0.636-0.636v-2.54
		C7.766,0.284,8.051,0,8.401,0l0,0c0.351,0,0.636,0.284,0.636,0.635V3.175z"/>
	<path fill="#808080" d="M13.94,3.175c0,0.351-0.285,0.636-0.636,0.636l0,0c-0.352,0-0.636-0.285-0.636-0.636v-2.54
		C12.669,0.284,12.953,0,13.305,0l0,0c0.351,0,0.636,0.284,0.636,0.635V3.175z"/>
	<path fill="#808080" d="M18.842,3.175c0,0.351-0.284,0.636-0.635,0.636l0,0c-0.351,0-0.636-0.285-0.636-0.636v-2.54
		C17.571,0.284,17.856,0,18.207,0l0,0c0.351,0,0.635,0.284,0.635,0.635V3.175z"/>
	<path fill="#808080" d="M23.745,3.175c0,0.351-0.284,0.636-0.636,0.636l0,0c-0.351,0-0.635-0.285-0.635-0.636v-2.54
		C22.475,0.284,22.759,0,23.109,0l0,0c0.352,0,0.636,0.284,0.636,0.635V3.175z"/>
</g>
<path fill="#808080" d="M25.139,1.738H24.31v1.437c0,0.662-0.538,1.2-1.199,1.2c-0.662,0-1.201-0.539-1.201-1.2V1.738h-2.502v1.437
	c0,0.662-0.538,1.199-1.2,1.199c-0.661,0-1.199-0.538-1.199-1.199V1.738h-2.504v1.438c0,0.661-0.538,1.2-1.199,1.2
	c-0.662,0-1.201-0.539-1.201-1.2V1.738H9.603v1.437c0,0.662-0.539,1.201-1.201,1.201c-0.661,0-1.2-0.539-1.2-1.201V1.738H4.699
	v1.437c0,0.662-0.539,1.2-1.2,1.2S2.3,3.837,2.3,3.175V1.738H1.471C0.658,1.738,0,2.396,0,3.208v2.474h26.608V3.208
	C26.608,2.396,25.95,1.738,25.139,1.738z"/>
</svg>
