<?xml version="1.0" encoding="utf-8"?>
<svg version="1.1" id="Layer_1" xmlns="http://www.w3.org/2000/svg" xmlns:xlink="http://www.w3.org/1999/xlink" x="0px" y="0px"
	 width="28.347px" height="28.346px" viewBox="0 0 28.347 28.346" enable-background="new 0 0 28.347 28.346" xml:space="preserve">
<linearGradient id="gradient" gradientUnits="userSpaceOnUse" x1="17.1387" y1="28.3467" x2="17.1387" y2="4.882813e-004">
	<stop  offset="0" style="stop-color:#404040"/>
	<stop  offset="1" style="stop-color:#A0A0A0"/>
</linearGradient>
<path fill="#C0C0C0" d="M6.581,9.499c-0.873,0.612-1.672,1.322-2.375,2.122l1.013,1.013c0.697-0.805,1.501-1.514,2.388-2.108
	L6.581,9.499z M9.335,12.253c-0.92,0.551-1.741,1.251-2.424,2.071l1.017,1.018c0.672-0.834,1.508-1.529,2.457-2.04L9.335,12.253z
	 M12.178,15.096c-1.025,0.391-1.909,1.074-2.549,1.946l1.024,1.024c0.605-0.922,1.565-1.586,2.682-1.814L12.178,15.096z
	 M14.175,7.099c-1.264,0-2.487,0.18-3.646,0.511l1.18,1.181c0.796-0.169,1.62-0.262,2.465-0.262c3.573,0,6.779,1.594,8.952,4.105
	l1.013-1.014C21.706,8.852,18.144,7.099,14.175,7.099z M14.175,10.914c-0.112,0-0.222,0.006-0.333,0.01l1.511,1.511
	c2.039,0.302,3.828,1.372,5.066,2.908l1.018-1.018C19.7,12.242,17.091,10.914,14.175,10.914z"/>
<path fill="#808080" d="M4.151,4.151c-5.535,5.535-5.535,14.51,0,20.044c5.535,5.535,14.509,5.535,20.043,0
	c5.535-5.534,5.536-14.509,0-20.044C18.66-1.384,9.687-1.384,4.151,4.151z M5.674,22.671C1.253,18.25,1.005,11.214,4.928,6.497
	l16.921,16.922C17.133,27.34,10.097,27.093,5.674,22.671z M23.419,21.85L6.497,4.927c4.717-3.922,11.754-3.674,16.175,0.747
	C27.093,10.096,27.341,17.132,23.419,21.85z"/>
<circle fill="#808080" cx="14.173" cy="20.372" r="1.828"/>
</svg>
