<?xml version="1.0" encoding="utf-8"?>
<svg version="1.1" id="Layer_1" xmlns="http://www.w3.org/2000/svg" xmlns:xlink="http://www.w3.org/1999/xlink" x="0px" y="0px"
	 width="57.086px" height="57.123px" viewBox="0 0 57.086 57.123" enable-background="new 0 0 57.086 57.123" xml:space="preserve">
<path fill="#808080" d="M28.284,0c0.11,0.038,0.206,0.045,0.254,0.038C28.449,0.038,28.366,0.025,28.284,0"/>
<path fill="#808080" d="M21.186,36.094c-1.986-1.918-3.15-4.577-3.15-7.556c0-5.83,4.724-10.555,10.557-10.555
	c1.923-0.002,3.722,0.521,5.274,1.42l8.612-15.722c-3.998-2.244-8.586-3.56-13.475-3.638H28.54C12.87,0.068,0.173,12.672,0,28.309
	l0.001,0.002v0.271c0.018,8.182,3.465,15.547,8.978,20.747L21.186,36.094z"/>
<path fill="#808080" d="M48.44,8.134L36.233,21.269c1.801,1.894,2.912,4.449,2.912,7.269c0.001,5.828-4.725,10.555-10.553,10.555
	c-1.771,0-3.439-0.441-4.904-1.213l0,0l-2.121,3.772l-2.997,5.336l-3.721,6.623c4.062,2.23,8.727,3.503,13.69,3.512
	c15.763,0,28.546-12.782,28.546-28.54C57.085,20.56,53.768,13.318,48.44,8.134"/>
<path fill="#808080" d="M28.589,26.536c-1.104,0-2.002,0.895-2.002,2.003c0,1.103,0.897,1.998,2.002,1.998s2.009-0.895,2.009-1.998
	C30.598,27.431,29.693,26.536,28.589,26.536"/>
</svg>
