<?xml version="1.0" encoding="utf-8"?>
<svg version="1.1" id="Layer_1" xmlns="http://www.w3.org/2000/svg" xmlns:xlink="http://www.w3.org/1999/xlink" x="0px" y="0px"
	 width="29.623px" height="28.346px" viewBox="0 0 29.623 28.346" enable-background="new 0 0 29.623 28.346" xml:space="preserve">
<linearGradient id="gradient" gradientUnits="userSpaceOnUse" x1="17.1387" y1="28.3467" x2="17.1387" y2="4.882813e-004">
	<stop  offset="0" style="stop-color:#404040"/>
	<stop  offset="1" style="stop-color:#A0A0A0"/>
</linearGradient>
<path fill="#808080" d="M3.575,0C2.799,0,2.171,0.628,2.171,1.405v4.522c0.447-0.132,0.912-0.225,1.403-0.225
	s0.957,0.093,1.405,0.226V1.405C4.979,0.628,4.352,0,3.575,0z M2.171,15.524v11.418c0,0.776,0.628,1.404,1.404,1.404
	s1.404-0.628,1.404-1.404V15.523c-0.448,0.133-0.914,0.225-1.405,0.225S2.618,15.656,2.171,15.524z"/>
<circle fill="#C0C0C0" cx="3.575" cy="10.726" r="3.575"/>
<path fill="#808080" d="M16.216,26.942v-4.522c-0.448,0.133-0.914,0.226-1.405,0.226c-0.49,0-0.955-0.093-1.403-0.225v4.521
	c0,0.776,0.628,1.404,1.404,1.404S16.216,27.718,16.216,26.942z M14.811,12.599c0.491,0,0.957,0.092,1.405,0.225V1.405
	C16.216,0.628,15.588,0,14.812,0s-1.404,0.628-1.404,1.405v11.418C13.855,12.691,14.32,12.599,14.811,12.599z"/>
<circle fill="#C0C0C0" cx="14.812" cy="17.622" r="3.575"/>
<path fill="#808080" d="M26.048,0c-0.775,0-1.404,0.628-1.404,1.405v4.522c0.448-0.132,0.913-0.225,1.403-0.225
	c0.491,0,0.957,0.093,1.406,0.226V1.405C27.453,0.628,26.824,0,26.048,0z M24.644,15.524v11.418c0,0.776,0.629,1.404,1.404,1.404
	c0.776,0,1.405-0.628,1.405-1.404V15.523c-0.449,0.133-0.915,0.225-1.406,0.225C25.557,15.748,25.092,15.656,24.644,15.524z"/>
<circle fill="#C0C0C0" cx="26.048" cy="10.726" r="3.575"/>
</svg>
