<?xml version="1.0" encoding="utf-8"?>
<svg version="1.1" id="Layer_1" xmlns="http://www.w3.org/2000/svg" xmlns:xlink="http://www.w3.org/1999/xlink" x="0px" y="0px"
	 width="21.362px" height="28.347px" viewBox="0 0 21.362 28.347" enable-background="new 0 0 21.362 28.347" xml:space="preserve">
<linearGradient id="gradient" gradientUnits="userSpaceOnUse" x1="17.1387" y1="28.3467" x2="17.1387" y2="4.882813e-004">
	<stop  offset="0" style="stop-color:#404040"/>
	<stop  offset="1" style="stop-color:#A0A0A0"/>
</linearGradient>
<path fill="#C0C0C0" d="M6.761,0L0,6.761h6.761V0z M7.269,0v7.27H0v21.077h21.362V0H7.269z M10.681,23.516
	c-3.97,0-7.188-3.219-7.188-7.188c0-3.97,3.218-7.188,7.188-7.188c3.971,0,7.188,3.218,7.188,7.188
	C17.868,20.297,14.651,23.516,10.681,23.516z"/>
<path fill="#808080" d="M10.681,10.218c-3.369,0-6.11,2.741-6.11,6.11c0,3.368,2.741,6.109,6.11,6.109s6.11-2.741,6.11-6.109
	C16.791,12.958,14.05,10.218,10.681,10.218z M11.679,20.651H9.683V15.11h1.996V20.651z M10.681,14.512
	c-0.693,0-1.253-0.562-1.253-1.254s0.561-1.254,1.253-1.254c0.693,0,1.254,0.562,1.254,1.254S11.374,14.512,10.681,14.512z"/>
</svg>
