<?xml version="1.0" encoding="utf-8"?>
<svg version="1.1" id="Layer_1" xmlns="http://www.w3.org/2000/svg" xmlns:xlink="http://www.w3.org/1999/xlink" x="0px" y="0px"
	 width="28.347px" height="28.346px" viewBox="0 0 28.347 28.346" enable-background="new 0 0 28.347 28.346" xml:space="preserve">
<linearGradient id="gradient" gradientUnits="userSpaceOnUse" x1="17.1387" y1="28.3467" x2="17.1387" y2="4.882813e-004">
	<stop  offset="0" style="stop-color:#404040"/>
	<stop  offset="1" style="stop-color:#A0A0A0"/>
</linearGradient>
<path fill="#C0C0C0" d="M0,0v13.524h13.524V0H0z M6.854,11.725H6.669c-1.992,0-3.247-2.818-3.302-4.822
	C3.997,7.282,4.51,8.094,5.25,8.094c0.937,0,1.079-0.692,1.219-0.782c0.13-0.084,0.25-0.091,0.25-0.091h0.087
	c0,0,0.12,0.007,0.25,0.091c0.139,0.09,0.282,0.782,1.219,0.782c0.74,0,1.254-0.812,1.883-1.191
	C10.103,8.907,8.848,11.725,6.854,11.725z M3.392,6.155c0.153-1.766,1.005-3.297,3.277-3.297h0.185c2.274,0,3.126,1.531,3.277,3.297
	C8.58,6.742,6.806,6.604,6.806,6.604H6.719C6.719,6.604,4.945,6.743,3.392,6.155z M10.609,9.431l-0.006,0.001l-0.005,0h-0.502
	l0.073-0.192c0.313-0.814,0.484-1.692,0.484-2.472c0-2.799-1.385-4.405-3.801-4.405H6.67c-2.415,0-3.801,1.606-3.801,4.405
	c0,0.78,0.172,1.658,0.484,2.472l0.073,0.192H2.928C1.868,9.346,1.22,8.077,1.22,6.951c0-0.76,0.458-1.563,1.232-1.666
	C2.908,3.067,4.44,1.798,6.67,1.798h0.184c2.231,0,3.764,1.269,4.22,3.487c0.772,0.102,1.23,0.906,1.23,1.666
	C12.304,8.077,11.656,9.346,10.609,9.431z"/>
<path fill="#808080" d="M6.71,20.286c-0.071-0.012-0.186,0.056-0.253,0.189c-0.072,0.145-0.05,0.293,0.02,0.328
	c0.007,0.004,0.014,0.006,0.023,0.008c0.071,0.012,0.186-0.055,0.253-0.188c0.037-0.076,0.052-0.159,0.041-0.229
	c-0.006-0.029-0.021-0.081-0.061-0.102C6.726,20.291,6.719,20.288,6.71,20.286z M6.042,21.455c-0.088-0.015-0.227,0.064-0.308,0.224
	c-0.09,0.18-0.056,0.355,0.031,0.398c0.01,0.006,0.021,0.009,0.033,0.012c0.088,0.014,0.227-0.064,0.307-0.224
	c0.045-0.089,0.063-0.187,0.049-0.27c-0.007-0.036-0.025-0.103-0.079-0.13C6.065,21.459,6.054,21.457,6.042,21.455z M5.363,22.722
	c-0.013-0.007-0.025-0.011-0.039-0.013c-0.098-0.017-0.252,0.064-0.345,0.247c-0.101,0.2-0.059,0.396,0.041,0.446
	c0.011,0.006,0.024,0.011,0.037,0.013c0.099,0.017,0.253-0.063,0.345-0.247c0.059-0.115,0.074-0.243,0.043-0.341
	C5.433,22.792,5.409,22.746,5.363,22.722z M7.378,19.138c-0.006-0.003-0.012-0.005-0.019-0.007c-0.06-0.01-0.161,0.052-0.219,0.168
	c-0.034,0.067-0.048,0.141-0.037,0.202c0.004,0.02,0.015,0.067,0.049,0.084c0.005,0.003,0.011,0.005,0.018,0.006
	c0.06,0.011,0.16-0.051,0.22-0.167c0.039-0.078,0.051-0.166,0.029-0.229C7.412,19.175,7.4,19.15,7.378,19.138z M0,14.823v13.523
	h13.524V14.823H0z M11.974,18.607c-0.283,0.086-0.729,0.189-1.324,0.074c-0.523-0.103-0.93-0.337-1.203-1.04
	c-0.171-0.439-0.389-0.452-0.557-0.133c-0.68,1.289-3.634,8.096-4.645,8.756c-0.677,0.441-1.099,0.09-1.332-0.228
	c-0.312-0.42-0.314-1.45-0.667-3.216c-0.205-1.033-1.289-1.396-1.289-1.396c1.442-0.136,2.316-0.219,3.622-0.337
	c-0.542,0.337-0.979,0.972-0.994,1.485c-0.019,0.597,0.091,1.25,0.137,1.607s0.43,0.623,0.749,0.132
	c0.088-0.135,0.245-0.403,0.448-0.761c-0.188-0.113-0.234-0.408-0.1-0.676c0.139-0.277,0.42-0.418,0.624-0.314
	c0.009,0.004,0.015,0.01,0.023,0.016c0.063-0.115,0.129-0.233,0.195-0.354c-0.171-0.108-0.212-0.38-0.088-0.627
	c0.13-0.258,0.39-0.389,0.581-0.292c0.005,0.001,0.007,0.005,0.01,0.007c0.066-0.121,0.134-0.244,0.201-0.366
	c-0.145-0.1-0.179-0.337-0.069-0.552c0.114-0.229,0.345-0.344,0.515-0.262c0.075-0.137,0.15-0.273,0.224-0.409
	c-0.127-0.095-0.154-0.31-0.056-0.505c0.104-0.206,0.31-0.313,0.466-0.244c0.51-0.937,0.914-1.678,1.032-1.885
	c0.329-0.582,0.967-0.473,1.177,0.056c0.126,0.315,0.302,1.036,0.956,1.202c0.36,0.092,0.677-0.023,0.824-0.105
	c0.148-0.082,0.495-0.267,0.962-0.16C12.862,18.187,12.258,18.521,11.974,18.607z"/>
<path fill="#808080" d="M14.822,0v13.524h13.524V0H14.822z M26.85,1.534l-1.255,1.669c-0.068,0.076-0.185,0.082-0.26,0.014
	l-0.073-0.065L21.58,7.492c0.28,0.163,0.58,0.258,0.827,0.245c0.623-0.034,0.854-0.542,0.989-0.855
	c0.134-0.314,0.331-0.097,0.353,0.133c0.021,0.229,0.108,0.668-0.331,1.195c-0.539,0.647-1.336,0.284-1.778,0.803
	c-0.505,0.593,0.581,1.633-0.565,2.871c-0.581,0.627-1.778,1.042-3.517-0.445l-0.035-0.032c-1.66-1.573-1.373-2.808-0.811-3.451
	c1.112-1.27,2.26-0.299,2.797-0.863c0.47-0.494,0.025-1.248,0.613-1.853c0.479-0.492,0.923-0.45,1.154-0.453
	c0.231-0.004,0.467,0.17,0.169,0.336c-0.298,0.166-0.779,0.45-0.747,1.074c0.013,0.247,0.139,0.534,0.329,0.797l3.934-4.115
	l-0.073-0.065c-0.076-0.068-0.082-0.186-0.014-0.261l1.529-1.422c0.068-0.076,0.186-0.082,0.262-0.014l0.171,0.154
	C26.913,1.34,26.919,1.458,26.85,1.534z M21.319,7.806L20.87,8.395l-0.667-0.6l0.523-0.523L20.52,7.086
	c-0.076-0.068-0.193-0.062-0.262,0.013l-2.421,1.86c-0.068,0.076-0.063,0.193,0.014,0.261l1.847,1.663
	c0.076,0.068,0.192,0.063,0.261-0.014l1.598-2.603c0.068-0.076,0.063-0.192-0.014-0.261L21.319,7.806z M20.034,9.827l-0.27,0.379
	c-0.068,0.076-0.185,0.082-0.261,0.014L18.53,9.344c-0.075-0.068-0.082-0.185-0.014-0.261l0.349-0.308
	c0.069-0.076,0.186-0.082,0.262-0.014l0.895,0.805C20.097,9.635,20.104,9.751,20.034,9.827z M20.697,8.952l-0.164,0.183
	c-0.069,0.076-0.186,0.082-0.262,0.014l-0.756-0.68c-0.076-0.068-0.082-0.185-0.014-0.261l0.165-0.184
	c0.068-0.076,0.186-0.082,0.262-0.014l0.755,0.681C20.76,8.76,20.766,8.876,20.697,8.952z"/>
<path fill="#C0C0C0" d="M14.822,14.823v13.523h13.524V14.823H14.822z M26.254,20.838l-0.94,0.021l-0.201-1.036l0.889,0.032
	L26.254,20.838z M22.605,20.86l-0.084-1.068l1.121,0.011l0.063,1.058H22.605z M22.859,22.118l-1.121-0.01l-0.021-1.1l1.132-0.011
	L22.859,22.118z M21.887,19.581v-0.857l1.079,0.043l0.095,0.824L21.887,19.581z M22.225,19.77l0.095,1.068L21.04,20.86l0.095-1.111
	L22.225,19.77z M21.568,22.098l-1.173,0.01l0.021-1.058l1.132-0.011L21.568,22.098z M21.653,19.549l-1.312-0.012l0.127-0.825
	l1.238,0.022L21.653,19.549z M20.766,19.75l-0.043,1.132l-1.142-0.021l0.115-1.132L20.766,19.75z M20.247,21.018l-0.074,1.08
	l-1.143,0.053l0.074-1.143L20.247,21.018z M20.606,22.309l0.085,1.068l-1.121-0.01l-0.063-1.059H20.606z M21.326,23.588v0.857
	l-1.079-0.043l-0.095-0.824L21.326,23.588z M20.987,23.399l-0.095-1.068l1.279-0.021l-0.095,1.111L20.987,23.399z M21.559,23.622
	l1.313,0.01l-0.127,0.825l-1.238-0.022L21.559,23.622z M22.447,23.419l0.043-1.132l1.142,0.021l-0.116,1.132L22.447,23.419z
	 M23.061,22.086l-0.021-1.016h1.132l0.053,1.047L23.061,22.086z M23.938,20.881l-0.074-1.079l0.995,0.032l0.2,1.047H23.938z
	 M23.251,19.581l-0.074-0.814l0.952,0.053l0.222,0.75L23.251,19.581z M22.774,18.575l-0.116-0.602l0.941,0.021l0.179,0.593
	L22.774,18.575z M22.056,17.74l-0.085-0.392l0.889,0.043l0.264,0.359L22.056,17.74z M22.447,17.941l0.105,0.634l-1.333-0.031
	l0.138-0.603H22.447z M20.681,17.75l0.274-0.402l0.847,0.012l0.021,0.38L20.681,17.75z M21.125,17.919l-0.117,0.635l-1.236-0.032
	l0.253-0.592L21.125,17.919z M20.269,18.723l-0.138,0.814l-1.143-0.01l0.254-0.846L20.269,18.723z M19.465,19.739l-0.149,1.09
	l-1.095,0.019l0.234-1.067L19.465,19.739z M18.915,21.008l-0.074,1.09h-1.08l0.148-1.08L18.915,21.008z M19.274,22.288l0.073,1.08
	l-0.994-0.033l-0.201-1.047H19.274z M19.961,23.588l0.075,0.814l-0.952-0.052L18.861,23.6L19.961,23.588z M20.437,24.594
	l0.117,0.603l-0.941-0.021l-0.18-0.592L20.437,24.594z M21.157,25.43l0.084,0.391l-0.889-0.042l-0.264-0.36L21.157,25.43z
	 M20.766,25.228l-0.105-0.634l1.332,0.031l-0.138,0.603H20.766z M22.531,25.418l-0.273,0.402l-0.847-0.01l-0.022-0.381
	L22.531,25.418z M22.087,25.25l0.117-0.636l1.237,0.032l-0.254,0.592L22.087,25.25z M22.943,24.446l0.139-0.814l1.142,0.011
	l-0.254,0.847L22.943,24.446z M23.748,23.43l0.148-1.09l1.128-0.002l-0.221,1.068L23.748,23.43z M24.403,22.098l-0.042-0.994h0.962
	l0.128,0.994H24.403z M25.853,19.665l-1.227-0.074l-0.254-0.782l0.941,0.011L25.853,19.665z M25.154,18.565l-1.163,0.021
	l-0.17-0.593l0.89,0.011L25.154,18.565z M24.202,17.772l-0.931-0.032l-0.179-0.328l0.528,0.022L24.202,17.772z M22.638,17
	l0.55,0.242l-0.762-0.031l-0.096-0.233L22.638,17z M21.526,16.978l0.636-0.011l0.073,0.244l-0.751,0.021L21.526,16.978z
	 M20.723,16.978l0.571-0.021l-0.01,0.264L20.109,17.2L20.723,16.978z M19.803,17.305l0.932,0.021l-0.266,0.435l-1.29-0.021
	L19.803,17.305z M18.841,17.899l0.919,0.021l-0.221,0.646l-1.387-0.032L18.841,17.899z M18.036,18.723l0.994-0.021l-0.274,0.813
	l-1.322,0.012L18.036,18.723z M17.307,19.728l0.899,0.021l-0.205,1.098l-1.012,0.003L17.307,19.728z M16.957,21.061l0.782-0.031
	l-0.127,1.088l-0.719-0.02L16.957,21.061z M16.957,22.331l0.942-0.021l0.201,1.037l-0.89-0.032L16.957,22.331z M17.359,23.504
	l1.227,0.074l0.255,0.782l-0.941-0.01L17.359,23.504z M18.058,24.604l1.164-0.02l0.169,0.592l-0.889-0.012L18.058,24.604z
	 M19.01,25.399l0.932,0.031l0.179,0.326l-0.528-0.021L19.01,25.399z M20.574,26.169l-0.55-0.243l0.762,0.032l0.096,0.233
	L20.574,26.169z M21.686,26.192l-0.635,0.01l-0.074-0.243l0.752-0.021L21.686,26.192z M22.49,26.192l-0.571,0.021l0.01-0.265
	l1.175,0.021L22.49,26.192z M23.409,25.864l-0.931-0.021l0.266-0.435l1.29,0.022L23.409,25.864z M24.372,25.27l-0.92-0.02
	l0.222-0.646l1.386,0.032L24.372,25.27z M25.177,24.446l-0.996,0.021l0.276-0.814l1.321-0.011L25.177,24.446z M25.906,23.441
	l-0.868-0.004l0.233-1.099l0.941-0.008L25.906,23.441z M25.652,22.098l-0.116-1.048l0.697,0.011l0.042,1.047L25.652,22.098z"/>
</svg>
