<?xml version="1.0" encoding="utf-8"?>
<!DOCTYPE svg PUBLIC "-//W3C//DTD SVG 1.1//EN" "http://www.w3.org/Graphics/SVG/1.1/DTD/svg11.dtd">
<svg version="1.1" id="Layer_1" xmlns="http://www.w3.org/2000/svg" xmlns:xlink="http://www.w3.org/1999/xlink" x="0px" y="0px"
	 width="179.122px" height="179.122px" viewBox="0 0 179.122 179.122" enable-background="new 0 0 179.122 179.122"
	 xml:space="preserve">
<linearGradient id="gradient" gradientUnits="userSpaceOnUse" x1="17.1387" y1="179.122" x2="17.1387" y2="0">
	<stop offset="0" style="stop-color:#404040"/>
	<stop offset="1" style="stop-color:#A0A0A0"/>
</linearGradient>
<circle fill="#808080" cx="89.561" cy="89.561" r="25.265"/>
<path fill="#C0C0C0" d="M124.213,100.687c15.391-1.718,27.821,5.14,54.909-16.853c-30.565,9.981-36.8,1.478-53.989-1.964
	c12.471-9.182,26.665-9.46,39.127-42.049c-21.481,23.926-31.131,19.679-47.738,25.293c6.208-14.187,18.362-21.525,12.86-55.979
	c-6.64,31.461-17.122,32.608-28.695,45.774C98.969,39.52,105.826,27.088,83.834,0c9.981,30.566,1.478,36.801-1.965,53.99
	C72.688,41.519,72.41,27.326,39.82,14.863C63.747,36.344,59.5,45.995,65.114,62.602C50.928,56.393,43.589,44.24,9.135,49.742
	c31.461,6.638,32.609,17.12,45.775,28.696C39.52,80.153,27.088,73.297,0,95.288c30.566-9.98,36.8-1.477,53.99,1.965
	c-12.471,9.182-26.664,9.46-39.127,42.05c21.481-23.929,31.131-19.68,47.739-25.295c-6.209,14.187-18.361,21.525-12.86,55.979
	c6.638-31.461,17.12-32.609,28.696-45.774c1.716,15.391-5.141,27.821,16.851,54.909c-9.98-30.565-1.477-36.8,1.965-53.989
	c9.182,12.472,9.46,26.665,42.05,39.127c-23.929-21.481-19.68-31.131-25.295-47.738c14.187,6.208,21.525,18.362,55.979,12.86
	C138.526,122.742,137.378,112.26,124.213,100.687z M89.563,120.412c-17.041,0-30.854-13.813-30.854-30.852
	s13.813-30.852,30.854-30.852c17.037,0,30.85,13.813,30.85,30.852S106.6,120.412,89.563,120.412z"/>
</svg>
