<?xml version="1.0" encoding="utf-8"?>
<svg version="1.1" id="Layer_1" xmlns="http://www.w3.org/2000/svg" xmlns:xlink="http://www.w3.org/1999/xlink" x="0px" y="0px"
	 width="28.347px" height="28.347px" viewBox="0 0 28.347 28.347" enable-background="new 0 0 28.347 28.347" xml:space="preserve">
<linearGradient id="gradient" gradientUnits="userSpaceOnUse" x1="17.1387" y1="28.3467" x2="17.1387" y2="4.882813e-004">
	<stop  offset="0" style="stop-color:#404040"/>
	<stop  offset="1" style="stop-color:#A0A0A0"/>
</linearGradient>
<path fill="#808080" d="M14.173,0C6.346,0,0,6.346,0,14.174c0,7.827,6.346,14.173,14.173,14.173s14.173-6.346,14.173-14.173
	C28.347,6.346,22.001,0,14.173,0z M14.173,26.361c-6.72,0-12.188-5.468-12.188-12.188c0-6.72,5.467-12.188,12.188-12.188
	c6.719,0,12.188,5.468,12.188,12.188C26.361,20.894,20.893,26.361,14.173,26.361z"/>
<path fill="#C0C0C0" d="M14.173,3.97c-5.625,0-10.202,4.577-10.202,10.204c0,5.625,4.577,10.202,10.202,10.202
	c5.628,0,10.204-4.577,10.204-10.202C24.377,8.547,19.801,3.97,14.173,3.97z M16.143,22.699h-3.938V11.773h3.938V22.699z
	 M14.173,10.593c-1.366,0-2.473-1.107-2.473-2.472c0-1.365,1.107-2.473,2.473-2.473s2.472,1.107,2.472,2.473
	C16.646,9.485,15.539,10.593,14.173,10.593z"/>
</svg>
