<?xml version="1.0" encoding="utf-8"?>
<!DOCTYPE svg PUBLIC "-//W3C//DTD SVG 1.1//EN" "http://www.w3.org/Graphics/SVG/1.1/DTD/svg11.dtd">
<svg version="1.1" id="Layer_1" xmlns="http://www.w3.org/2000/svg" xmlns:xlink="http://www.w3.org/1999/xlink" x="0px" y="0px"
	 width="93.63px" height="123.896px" viewBox="0 0 93.63 123.896" enable-background="new 0 0 93.63 123.896" xml:space="preserve">
<linearGradient id="gradient" gradientUnits="userSpaceOnUse" x1="17.1387" y1="123.896" x2="17.1387" y2="0">
	<stop offset="0" style="stop-color:#404040"/>
	<stop offset="1" style="stop-color:#A0A0A0"/>
</linearGradient>
<path fill="#C0C0C0" d="M2.45,45.731h16.508l0,0c0-13,8.959-23.92,21.021-26.978L35.644,2.809C16.554,7.765,2.45,25.092,2.45,45.731
	z M91.181,45.731c0-20.639-14.104-37.966-33.193-42.921l-4.334,15.944c12.059,3.059,21.018,13.979,21.018,26.978l0,0H91.181z"/>
<path fill="#C0C0C0" d="M91.181,112.122V59.401h-16.51v52.721H91.181z"/>
<path fill="#C0C0C0" d="M18.958,112.122V59.401H2.449v52.721H18.958z"/>
<path fill="#C0C0C0" d="M0,121.833c0,1.141,0.924,2.063,2.063,2.063h89.504c1.139,0,2.063-0.922,2.063-2.063v-5.418
	c0-1.139-0.924-2.063-2.063-2.063H2.063c-1.14,0-2.063,0.924-2.063,2.063V121.833z"/>
<path fill="#C0C0C0" d="M0,55.276c0,1.139,0.924,2.063,2.063,2.063h89.504c1.139,0,2.063-0.924,2.063-2.063v-5.418
	c0-1.139-0.924-2.063-2.063-2.063H2.063C0.924,47.795,0,48.719,0,49.858V55.276z"/>
<path fill="#C0C0C0" d="M46.815,17.617c1.443,0,2.859,0.11,4.244,0.32l4.67-17.179C52.829,0.269,49.854,0,46.815,0
	c-3.04,0-6.014,0.269-8.914,0.757l4.67,17.179C43.956,17.727,45.373,17.617,46.815,17.617z"/>
<path fill="#808080" d="M48.706,59.401h21.817v5.817H48.706V59.401z M48.706,68.71h21.817v5.817H48.706V68.71z M48.706,78.019
	h21.817v5.818H48.706V78.019z M23.106,59.401h21.816v5.817H23.106V59.401z M23.106,68.71h21.816v5.817H23.106V68.71z M23.106,78.019
	h21.816v5.818H23.106V78.019z"/>
<path fill="#808080" d="M46.816,21.988c13.091,0,23.741,10.652,23.741,23.743H23.072C23.072,32.64,33.725,21.988,46.816,21.988z"/>
<rect x="23.072" y="87.636" fill="#808080" width="47.485" height="24.486"/>
</svg>
