<?xml version="1.0" encoding="utf-8"?>
<svg version="1.1" id="Layer_1" xmlns="http://www.w3.org/2000/svg" xmlns:xlink="http://www.w3.org/1999/xlink" x="0px" y="0px"
	 width="28.349px" height="28.347px" viewBox="0 0 28.349 28.347" enable-background="new 0 0 28.349 28.347" xml:space="preserve">
<linearGradient id="gradient" gradientUnits="userSpaceOnUse" x1="17.1387" y1="28.3467" x2="17.1387" y2="4.882813e-004">
	<stop  offset="0" style="stop-color:#404040"/>
	<stop  offset="1" style="stop-color:#A0A0A0"/>
</linearGradient>
<path fill="#C0C0C0" d="M21.438,15.745c0.011-0.221,0.017-0.442,0.017-0.664c0-1.357-0.174-2.705-0.514-4.012
	c1.033-0.496,2.018-1.104,2.93-1.81c0.679,1.337,1.065,2.773,1.154,4.275C23.916,14.41,22.71,15.153,21.438,15.745z M14.729,17.364
	v-4.736c1.785-0.078,3.526-0.449,5.187-1.11c0.287,1.16,0.433,2.356,0.433,3.563c0,0.375-0.015,0.751-0.045,1.145
	C18.516,16.909,16.642,17.292,14.729,17.364z M14.729,5.814V3.466c0.763,0.605,1.467,1.286,2.098,2.028
	C16.14,5.665,15.436,5.773,14.729,5.814z M17.965,5.148c-0.451-0.561-0.938-1.093-1.46-1.589c0.963,0.21,1.895,0.553,2.771,1.021
	C18.848,4.797,18.406,4.987,17.965,5.148z M14.729,11.521V6.922c0.957-0.052,1.909-0.216,2.835-0.486
	c0.886,1.231,1.574,2.584,2.047,4.019C18.05,11.087,16.41,11.445,14.729,11.521z M20.622,10.003
	c-0.473-1.396-1.134-2.717-1.973-3.935c0.589-0.231,1.163-0.508,1.716-0.828c1.164,0.81,2.181,1.862,2.951,3.057
	C22.475,8.961,21.569,9.535,20.622,10.003z M14.729,22.879v-4.407c1.851-0.067,3.675-0.411,5.43-1.021
	c-0.27,1.677-0.819,3.276-1.638,4.764C17.285,22.597,16.012,22.822,14.729,22.879z M17.664,23.586
	c-0.275,0.392-0.572,0.773-0.884,1.139c-0.668,0.163-1.355,0.262-2.051,0.295v-1.033C15.715,23.943,16.699,23.81,17.664,23.586z
	 M18.665,24.067c0.216-0.311,0.414-0.624,0.6-0.938c0.773-0.265,1.535-0.591,2.278-0.973C20.69,22.943,19.718,23.59,18.665,24.067z
	 M21.337,16.991c1.292-0.55,2.525-1.248,3.675-2.078c-0.11,1.629-0.589,3.223-1.393,4.635c-1.129,0.863-2.334,1.57-3.59,2.108
	C20.705,20.169,21.146,18.604,21.337,16.991z M13.623,12.638v4.735c-1.757-0.041-3.487-0.345-5.148-0.901
	c-0.062-0.547-0.093-1.107-0.093-1.669c0-1.042,0.107-2.077,0.321-3.086C10.282,12.284,11.938,12.593,13.623,12.638z M4.951,8.437
	c0.753-1.21,1.757-2.279,2.923-3.11C8.49,5.67,9.139,5.966,9.807,6.205C9,7.452,8.375,8.802,7.947,10.228
	C6.886,9.751,5.88,9.148,4.951,8.437z M4.414,9.405c1.015,0.761,2.106,1.4,3.248,1.9c-0.257,1.147-0.388,2.322-0.388,3.498
	c0,0.408,0.017,0.824,0.049,1.238c-1.418-0.59-2.761-1.364-3.997-2.307C3.385,12.214,3.751,10.761,4.414,9.405z M7.469,17.281
	c0.262,1.656,0.777,3.251,1.543,4.749c-1.421-0.503-2.785-1.216-4.068-2.133c-0.897-1.446-1.444-3.094-1.59-4.789
	C4.641,16.003,6.023,16.731,7.469,17.281z M13.623,18.479v4.409c-1.043-0.027-2.086-0.168-3.104-0.412
	c-0.898-1.479-1.523-3.089-1.857-4.79C10.272,18.175,11.939,18.441,13.623,18.479z M10.498,24.396
	c-1.23-0.442-2.37-1.104-3.366-1.951c0.878,0.412,1.778,0.744,2.692,0.99C10.038,23.765,10.263,24.087,10.498,24.396z
	 M13.623,23.992v1.027c-0.427-0.02-0.859-0.065-1.286-0.14c-0.326-0.353-0.638-0.72-0.927-1.1
	C12.139,23.901,12.879,23.973,13.623,23.992z M8.951,4.649c0.945-0.522,1.955-0.894,3.009-1.112c-0.542,0.541-1.044,1.119-1.5,1.727
	C9.945,5.096,9.441,4.889,8.951,4.649z M13.623,6.933v4.599c-1.595-0.044-3.156-0.341-4.648-0.886
	c0.423-1.457,1.07-2.836,1.924-4.105C11.782,6.769,12.697,6.9,13.623,6.933z M11.606,5.573c0.604-0.753,1.28-1.451,2.017-2.077v2.33
	C12.943,5.801,12.269,5.716,11.606,5.573z"/>
<path fill="#808080" d="M14.175,0C6.358,0,0,6.358,0,14.172c0,7.816,6.358,14.174,14.175,14.174c7.815,0,14.174-6.358,14.174-14.174
	C28.349,6.358,21.99,0,14.175,0z M26.146,14.172c0,6.601-5.37,11.97-11.971,11.97S2.204,20.773,2.204,14.172
	c0-6.599,5.37-11.969,11.971-11.969S26.146,7.573,26.146,14.172z"/>
</svg>
