<?xml version="1.0" encoding="utf-8"?>
<!DOCTYPE svg PUBLIC "-//W3C//DTD SVG 1.1//EN" "http://www.w3.org/Graphics/SVG/1.1/DTD/svg11.dtd">
<svg version="1.1" id="Layer_1" xmlns="http://www.w3.org/2000/svg" xmlns:xlink="http://www.w3.org/1999/xlink" x="0px" y="0px"
	 width="62.866px" height="112.022px" viewBox="0 0 62.866 112.022" enable-background="new 0 0 62.866 112.022"
	 xml:space="preserve">
<path fill="#C0C0C0" d="M61.197,3.904L50.35,14.75v30.68l8.349,8.347l4.168-4.168V9.146C62.866,7.192,62.242,5.39,61.197,3.904z"/>
<path fill="#808080" d="M14.748,99.506L3.903,110.353c1.488,1.044,3.289,1.669,5.244,1.669H53.72c1.955,0,3.756-0.625,5.243-1.669
	L48.119,99.506H14.748z"/>
<path fill="#808080" d="M48.119,12.516L58.963,1.671C57.479,0.625,55.675,0,53.72,0H9.147C7.192,0,5.39,0.625,3.903,1.671
	l10.845,10.845H48.119z"/>
<path fill="#808080" d="M12.517,45.429V14.75L1.669,3.904C0.624,5.39,0,7.192,0,9.146v40.462l4.169,4.168L12.517,45.429z"/>
<polygon fill="#808080" points="6.402,56.009 12.663,62.27 50.203,62.27 56.465,56.009 50.21,49.753 12.657,49.753 "/>
<path fill="#808080" d="M12.517,66.589l-8.348-8.349L0,62.409v40.467c0,1.955,0.624,3.758,1.671,5.243l10.846-10.845V66.589z"/>
<path fill="#808080" d="M50.35,66.589v30.685l10.847,10.845c1.046-1.485,1.67-3.288,1.67-5.243V62.409l-4.168-4.168L50.35,66.589z"
	/>
</svg>
