<?xml version="1.0" encoding="utf-8"?>
<!DOCTYPE svg PUBLIC "-//W3C//DTD SVG 1.1//EN" "http://www.w3.org/Graphics/SVG/1.1/DTD/svg11.dtd">
<svg version="1.1" id="Layer_1" xmlns="http://www.w3.org/2000/svg" xmlns:xlink="http://www.w3.org/1999/xlink" x="0px" y="0px"
	 width="62.866px" height="112.022px" viewBox="0 0 62.866 112.022" enable-background="new 0 0 62.866 112.022"
	 xml:space="preserve">
<path fill="#C0C0C0" d="M61.197,3.904L50.35,14.75v30.68l8.348,8.347l4.169-4.168V9.146C62.866,7.192,62.239,5.39,61.197,3.904z"/>
<path fill="#C0C0C0" d="M12.514,66.589l-8.346-8.349L0,62.409v40.467c0,1.955,0.626,3.758,1.67,5.243l10.844-10.845V66.589z"/>
<path fill="#808080" d="M14.747,99.506L3.902,110.353c1.486,1.044,3.289,1.669,5.244,1.669h44.572c1.954,0,3.756-0.625,5.244-1.669
	L48.118,99.506H14.747z"/>
<path fill="#808080" d="M48.118,12.516L58.963,1.671C57.476,0.625,55.673,0,53.719,0H9.146C7.191,0,5.388,0.625,3.902,1.671
	l10.845,10.845H48.118z"/>
<path fill="#808080" d="M12.514,45.429V14.75L1.669,3.904C0.624,5.39,0,7.192,0,9.146v40.462l4.168,4.168L12.514,45.429z"/>
<polygon fill="#808080" points="6.401,56.009 12.662,62.27 50.202,62.27 56.464,56.009 50.209,49.753 12.655,49.753 "/>
<path fill="#808080" d="M50.35,66.589v30.685l10.846,10.845c1.044-1.485,1.671-3.288,1.671-5.243V62.409l-4.169-4.168L50.35,66.589z
	"/>
</svg>
