<?xml version="1.0" encoding="utf-8"?>
<svg version="1.1" id="Layer_1" xmlns="http://www.w3.org/2000/svg" xmlns:xlink="http://www.w3.org/1999/xlink" x="0px" y="0px"
	 width="28.347px" height="28.347px" viewBox="0 0 28.347 28.347" enable-background="new 0 0 28.347 28.347" xml:space="preserve">
<linearGradient id="gradient" gradientUnits="userSpaceOnUse" x1="17.1387" y1="28.3467" x2="17.1387" y2="4.882813e-004">
	<stop  offset="0" style="stop-color:#404040"/>
	<stop  offset="1" style="stop-color:#A0A0A0"/>
</linearGradient>
<path fill="#C0C0C0" d="M0,16.263h13.242v-4.179H0V16.263z M0,28.347h13.242v-4.179H0V28.347z M0,22.304h13.242v-4.177H0V22.304z
	 M0,4.178h13.242V0H0V4.178z M0,10.22h13.242V6.042H0V10.22z M15.104,16.263h13.242v-4.179H15.104V16.263z M15.104,28.347h13.242
	v-4.179H15.104V28.347z M15.104,10.22h13.242V6.042H15.104V10.22z M15.104,0v4.178h13.242V0H15.104z M15.104,22.304h13.242v-4.177
	H15.104V22.304z"/>
</svg>
