<?xml version="1.0" encoding="utf-8"?>
<svg version="1.1" id="Layer_1" xmlns="http://www.w3.org/2000/svg" xmlns:xlink="http://www.w3.org/1999/xlink" x="0px" y="0px"
	 width="50.694px" height="40.552px" viewBox="0 0 50.694 40.552" enable-background="new 0 0 50.694 40.552" xml:space="preserve">
<linearGradient id="gradient" gradientUnits="userSpaceOnUse" x1="17.1387" y1="28.3467" x2="17.1387" y2="4.882813e-004">
	<stop  offset="0" style="stop-color:#404040"/>
	<stop  offset="1" style="stop-color:#A0A0A0"/>
</linearGradient>
<g>
	<path fill="#808080" d="M45.947,0h-41.2C2.129,0,0,2.128,0,4.746v31.06c0,2.618,2.129,4.746,4.747,4.746h41.2
		c2.619,0,4.747-2.128,4.747-4.746V4.746C50.694,2.128,48.566,0,45.947,0z M48.399,35.806c0,1.353-1.1,2.453-2.452,2.453h-41.2
		c-1.354,0-2.454-1.101-2.454-2.453V4.746c0-1.353,1.1-2.453,2.454-2.453h41.2c1.353,0,2.452,1.1,2.452,2.453V35.806z"/>
</g>
<path fill="#C0C0C0" d="M44.925,34.156c0,0.406-0.33,0.736-0.736,0.736H31.807c-0.406,0-0.736-0.33-0.736-0.736v-9.334
	c0-0.406,0.33-0.737,0.736-0.737h12.382c0.406,0,0.736,0.331,0.736,0.737V34.156z"/>
</svg>
