<?xml version="1.0" encoding="utf-8"?>
<svg version="1.1" id="Layer_1" xmlns="http://www.w3.org/2000/svg" xmlns:xlink="http://www.w3.org/1999/xlink" x="0px" y="0px"
	 width="33.822px" height="28.347px" viewBox="0 0 33.822 28.347" enable-background="new 0 0 33.822 28.347" xml:space="preserve">
<linearGradient id="gradient" gradientUnits="userSpaceOnUse" x1="17.1387" y1="28.3467" x2="17.1387" y2="4.882813e-004">
	<stop  offset="0" style="stop-color:#404040"/>
	<stop  offset="1" style="stop-color:#A0A0A0"/>
</linearGradient>
<path fill="#808080" d="M0,23.749h1.81c0.373-2.261,2.33-3.987,4.695-3.987c2.367,0,4.325,1.727,4.697,3.987h8.017v-6.192H0V23.749z
	 M32.582,17.553l-11.599,0.002v3.44c0.844-0.764,1.954-1.233,3.182-1.233c2.366,0,4.325,1.727,4.694,3.987h4.963
	C33.822,23.749,33.823,20.877,32.582,17.553z"/>
<rect x="0.654" y="11.756" fill="#C0C0C0" width="18.614" height="4.322"/>
<rect x="0.654" y="5.878" fill="#C0C0C0" width="18.614" height="4.323"/>
<rect x="0.654" fill="#C0C0C0" width="18.614" height="4.322"/>
<polygon fill="#C0C0C0" points="27.96,8.712 21.002,8.712 21.002,16.03 31.934,16.03 "/>
<path fill="#C0C0C0" d="M6.505,21.201c-1.972,0-3.571,1.6-3.571,3.571c0,1.974,1.599,3.574,3.571,3.574
	c1.973,0,3.574-1.601,3.574-3.574C10.079,22.801,8.478,21.201,6.505,21.201z M6.505,26.363c-0.876,0-1.588-0.711-1.588-1.591
	c0-0.876,0.712-1.587,1.588-1.587c0.878,0,1.589,0.711,1.589,1.587C8.094,25.652,7.383,26.363,6.505,26.363z"/>
<path fill="#C0C0C0" d="M24.165,21.201c-1.974,0-3.571,1.6-3.571,3.571c0,1.974,1.598,3.574,3.571,3.574
	c1.973,0,3.573-1.601,3.573-3.574C27.738,22.801,26.138,21.201,24.165,21.201z M24.165,26.363c-0.877,0-1.59-0.711-1.59-1.591
	c0-0.876,0.713-1.587,1.59-1.587c0.878,0,1.59,0.711,1.59,1.587C25.755,25.652,25.043,26.363,24.165,26.363z"/>
</svg>
