<?xml version="1.0" encoding="utf-8"?>
<svg version="1.1" id="Layer_1" xmlns="http://www.w3.org/2000/svg" xmlns:xlink="http://www.w3.org/1999/xlink" x="0px" y="0px"
	 width="27.873px" height="28.346px" viewBox="0 0 27.873 28.346" enable-background="new 0 0 27.873 28.346" xml:space="preserve">
<linearGradient id="gradient" gradientUnits="userSpaceOnUse" x1="17.1387" y1="28.3467" x2="17.1387" y2="4.882813e-004">
	<stop  offset="0" style="stop-color:#404040"/>
	<stop  offset="1" style="stop-color:#A0A0A0"/>
</linearGradient>
<polygon fill="#808080" points="12.807,17.092 16.976,17.092 16.976,8.377 20.354,8.377 14.908,0 9.463,8.377 12.807,8.377 "/>
<path fill="#C0C0C0" d="M21.943,13.744h-3.727v3.349h5.476v-1.598C23.692,14.526,22.91,13.744,21.943,13.744z M6.054,17.092h5.512
	v-3.349H8.602v-1.677c0-0.725-0.587-1.313-1.312-1.313H1.311C0.587,10.754,0,11.342,0,12.067v14.944c0,0.025,0.006,0.048,0.006,0.07
	L4.264,18.1C4.527,17.542,5.329,17.092,6.054,17.092z"/>
<path fill="#C0C0C0" d="M22.229,28.346H1.035c-0.051,0-0.093-0.003-0.13-0.011l4.527-9.556c0.127-0.27,0.645-0.583,1.118-0.583
	h21.193c0.053,0,0.094,0.004,0.129,0.011l-4.525,9.557C23.221,28.033,22.704,28.346,22.229,28.346L22.229,28.346z"/>
</svg>
