<?xml version="1.0" encoding="utf-8"?>
<svg version="1.1" id="Layer_1" xmlns="http://www.w3.org/2000/svg" xmlns:xlink="http://www.w3.org/1999/xlink" x="0px" y="0px"
	 width="52.288px" height="55.823px" viewBox="0 0 52.288 55.823" enable-background="new 0 0 52.288 55.823" xml:space="preserve">
<path d="M45.021,15.312l-8.157-4.737L22.18,2.162C19.963,0.792,17.35,0,14.552,0C6.528,0,0.023,6.504,0.023,14.527L0,23.961v17.335
	h0.001c-0.002,2.468,0.625,4.969,1.948,7.261c4.012,6.948,12.896,9.329,19.845,5.317l8.182-4.696l15.013-8.667l-0.008-0.012
	c2.157-1.233,4.027-3.035,5.359-5.343C54.351,28.208,51.971,19.323,45.021,15.312z"/>
<path fill="#1CB49E" d="M2.831,23.961l0.022-9.434c0-6.45,5.248-11.697,11.698-11.697c2.096,0,4.065,0.555,5.77,1.524l-0.002,0.004
	l0.302,0.173c3.372,2.056,5.628,5.768,5.628,9.996c0,1.101-0.152,2.165-0.438,3.176l-4.44-2.564
	c-5.393-3.112-9.804-0.565-9.804,5.66v6.269c-1.474,0.308-2.925,0.851-4.3,1.644c-1.794,1.036-3.282,2.397-4.436,3.966V23.961z"/>
<path fill="#1CB49E" d="M35.448,13.025l8.158,4.737c5.586,3.225,7.507,10.394,4.282,15.979c-3.226,5.586-10.394,7.507-15.98,4.282
	c-0.959-0.555-1.809-1.228-2.544-1.987l4.297-2.48c5.392-3.113,5.392-8.208,0-11.32l-5.336-3.081
	c0.488-1.453,0.754-3.009,0.754-4.627c0-2.083-0.439-4.063-1.229-5.855L35.448,13.025"/>
<path fill="#1CB49E" d="M8.682,31.163c0.926-0.535,1.896-0.928,2.885-1.187v5.015c0,6.226,4.411,8.773,9.804,5.66l5.477-3.162
	c1.019,1.157,2.238,2.172,3.647,2.985c1.8,1.039,3.73,1.647,5.673,1.86l-7.606,4.393l-8.182,4.695
	C14.793,54.648,7.625,52.728,4.4,47.142C1.175,41.556,3.096,34.388,8.682,31.163"/>
<path fill="#F9A021" d="M19.955,38.2c-1.076,0.622-2.093,0.95-2.94,0.95c-2.278,0-2.618-2.605-2.618-4.159V20.799
	c0-1.553,0.34-4.158,2.618-4.158c0.848,0,1.864,0.328,2.94,0.949l12.291,7.096c1.671,0.965,2.629,2.135,2.629,3.21
	c0,1.074-0.958,2.244-2.629,3.209L19.955,38.2z"/>
</svg>
