<?xml version="1.0" encoding="utf-8"?>
<!DOCTYPE svg PUBLIC "-//W3C//DTD SVG 1.1//EN" "http://www.w3.org/Graphics/SVG/1.1/DTD/svg11.dtd">
<svg version="1.1" id="Layer_1" xmlns="http://www.w3.org/2000/svg" xmlns:xlink="http://www.w3.org/1999/xlink" x="0px" y="0px"
	 width="565.006px" height="364.418px" viewBox="0 0 565.006 364.418" enable-background="new 0 0 565.006 364.418"
	 xml:space="preserve">
<path fill="#1FB39D" d="M213.824,199.512l0.067-27.659c0-18.916,15.387-34.302,34.299-34.302c6.149,0,11.924,1.626,16.918,4.472
	l-0.007,0.011l0.889,0.508c9.886,6.024,16.504,16.912,16.504,29.313c0,3.225-0.452,6.349-1.288,9.31l-13.022-7.519
	c-15.81-9.127-28.748-1.66-28.748,16.596v18.379c-4.319,0.902-8.575,2.492-12.607,4.82c-5.262,3.035-9.626,7.027-13.008,11.629
	v-25.559H213.824z"/>
<path fill="#1FB39D" d="M309.468,167.448l23.92,13.889c16.381,9.457,22.014,30.476,12.557,46.855s-30.477,22.012-46.855,12.555
	c-2.816-1.629-5.307-3.598-7.465-5.828l12.605-7.273c15.809-9.129,15.809-24.066,0-33.195l-15.648-9.031
	c1.434-4.261,2.211-8.824,2.211-13.567c0-6.111-1.289-11.92-3.605-17.172L309.468,167.448"/>
<path fill="#1FB39D" d="M230.98,220.629c2.716-1.566,5.562-2.719,8.457-3.477v14.707c0,18.254,12.938,25.723,28.748,16.594
	l16.06-9.27c2.988,3.391,6.563,6.363,10.695,8.75c5.279,3.047,10.938,4.836,16.633,5.461l-22.305,12.875l-23.988,13.77
	c-16.38,9.457-37.398,3.824-46.854-12.555C208.97,251.102,214.6,230.086,230.98,220.629"/>
<path fill="#F9A022" d="M264.036,241.266c-3.154,1.82-6.134,2.781-8.622,2.781c-6.678,0-7.676-7.637-7.676-12.191v-41.613
	c0-4.551,0.998-12.193,7.676-12.193c2.488,0,5.468,0.963,8.622,2.783l36.041,20.808c4.898,2.828,7.709,6.258,7.709,9.41
	c0,3.148-2.809,6.578-7.709,9.406L264.036,241.266z"/>
<g>
	<path fill="#1FB39D" d="M109.342,0h23.818c8.7,0,15.292,2.105,19.78,6.32c4.447,4.214,6.672,10.397,6.672,18.55
		c0,8.194-2.225,14.396-6.672,18.61c-4.488,4.212-11.08,6.319-19.78,6.319h-17.966v37.57h-5.853V0z M115.196,4.858v40.146h17.966
		c6.516,0,11.548-1.736,15.098-5.208c3.588-3.472,5.384-8.446,5.384-14.922c0-6.358-1.794-11.294-5.384-14.806
		c-3.55-3.473-8.584-5.208-15.098-5.208h-17.966V4.858z"/>
	<path fill="#F9A022" d="M181.558,0h49.393v4.858h-43.422V38.39h41.607v4.74h-41.607v39.502h44.476v4.74h-50.446V0z"/>
	<path fill="#1FB39D" d="M257.342,0h23.818c8.7,0,15.292,2.105,19.78,6.32c4.447,4.214,6.672,10.397,6.672,18.55
		c0,8.194-2.225,14.396-6.672,18.61c-4.486,4.212-11.08,6.319-19.78,6.319h-17.966v37.57h-5.853V0z M263.196,4.858v40.146h17.966
		c6.513,0,11.546-1.736,15.099-5.208c3.59-3.472,5.383-8.446,5.383-14.922c0-6.358-1.793-11.294-5.383-14.806
		c-3.551-3.473-8.586-5.208-15.099-5.208h-17.966V4.858z"/>
	<path fill="#1FB39D" d="M329.616,0h23.816c8.701,0,15.293,2.105,19.781,6.32c4.449,4.214,6.672,10.397,6.672,18.55
		c0,8.194-2.223,14.396-6.672,18.61c-4.484,4.212-11.08,6.319-19.781,6.319h-17.965v37.57h-5.852V0z M335.468,4.858v40.146h17.965
		c6.516,0,11.547-1.736,15.1-5.208c3.59-3.472,5.385-8.446,5.385-14.922c0-6.358-1.795-11.294-5.385-14.806
		c-3.549-3.473-8.584-5.208-15.1-5.208h-17.965V4.858z"/>
	<path fill="#F9A022" d="M387.319,0h6.789l27.211,40.262L448.354,0h6.672l-30.898,45.764v41.608h-5.91V45.764L387.319,0z"/>
</g>
<g>
	<path fill="#1FB39D" stroke="#1FB39D" stroke-width="2" d="M1,331.415h8.558c3.126,0,5.496,0.758,7.108,2.27
		c1.598,1.516,2.396,3.738,2.396,6.668c0,2.945-0.798,5.172-2.396,6.688c-1.612,1.512-3.982,2.273-7.108,2.273H3.104v13.5H1V331.415
		z M3.104,333.161v14.426H9.56c2.343,0,4.15-0.625,5.427-1.875c1.29-1.246,1.934-3.035,1.934-5.363c0-2.285-0.644-4.059-1.934-5.32
		c-1.276-1.246-3.084-1.871-5.427-1.871H3.104V333.161z"/>
	<path fill="#1FB39D" stroke="#1FB39D" stroke-width="2" d="M21.736,331.415h2.438l9.778,14.465l9.716-14.465h2.398L34.962,347.86
		v14.953h-2.124V347.86L21.736,331.415z"/>
	<path fill="#1FB39D" stroke="#1FB39D" stroke-width="2" d="M48.02,331.415h24.414v1.723H61.29v29.672h-2.124v-29.672H48.02V331.415
		z"/>
	<path fill="#1FB39D" stroke="#1FB39D" stroke-width="2" d="M78.618,331.415h2.124v13.793H98.3v-13.793h2.124v31.395H98.3v-15.898
		H80.742v15.898h-2.124V331.415L78.618,331.415z"/>
	<path fill="#1FB39D" stroke="#1FB39D" stroke-width="2" d="M122.734,330.844c4.065,0,7.317,1.473,9.758,4.418
		c2.439,2.957,3.66,6.918,3.66,11.879c0,4.949-1.221,8.895-3.66,11.84c-2.44,2.957-5.692,4.438-9.758,4.438
		c-4.08,0-7.347-1.473-9.799-4.418c-2.439-2.945-3.659-6.895-3.659-11.859s1.22-8.926,3.659-11.879
		C115.388,332.317,118.656,330.844,122.734,330.844z M122.734,332.485c-3.435,0-6.168,1.313-8.202,3.934
		c-2.019,2.621-3.028,6.195-3.028,10.727c0,4.5,1.008,8.059,3.028,10.68c2.034,2.625,4.766,3.934,8.202,3.934
		c3.436,0,6.162-1.309,8.18-3.934c2.004-2.621,3.006-6.18,3.006-10.68c0-4.531-1.002-8.105-3.006-10.727
		C128.896,333.797,126.168,332.485,122.734,332.485z"/>
	<path fill="#1FB39D" stroke="#1FB39D" stroke-width="2" d="M144.878,331.415h3.112l15.224,28.703v-28.703h2.104v31.395h-2.986
		l-15.308-28.891v28.891h-2.146V331.415z"/>
	<path fill="#1FB39D" stroke="#1FB39D" stroke-width="2" d="M204.514,331.415h8.559c3.126,0,5.496,0.758,7.107,2.27
		c1.599,1.516,2.396,3.738,2.396,6.668c0,2.945-0.798,5.172-2.396,6.688c-1.611,1.512-3.981,2.273-7.107,2.273h-6.456v13.5h-2.104
		v-31.398H204.514z M206.618,333.161v14.426h6.456c2.342,0,4.149-0.625,5.426-1.875c1.29-1.246,1.934-3.035,1.934-5.363
		c0-2.285-0.644-4.059-1.934-5.32c-1.276-1.246-3.084-1.871-5.426-1.871h-6.456V333.161z"/>
	<path fill="#1FB39D" stroke="#1FB39D" stroke-width="2" d="M225.25,331.415h2.438l9.778,14.465l9.716-14.465h2.398l-11.104,16.445
		v14.953h-2.124V347.86L225.25,331.415z"/>
	<path fill="#1FB39D" stroke="#1FB39D" stroke-width="2" d="M277.296,360.137v-10.996h-8.012v-1.723h10.094v13.73
		c-1.5,0.742-3.147,1.293-4.942,1.66c-1.794,0.379-3.716,0.582-5.762,0.609c-4.542,0-8.09-1.434-10.64-4.309
		c-2.566-2.859-3.849-6.848-3.849-11.965c0-5.129,1.284-9.133,3.849-12.008c2.55-2.859,6.098-4.289,10.64-4.289
		c1.878,0,3.652,0.188,5.32,0.566c1.682,0.406,3.224,1.004,4.626,1.789v2.039c-1.416-0.785-2.93-1.379-4.542-1.789
		c-1.598-0.391-3.28-0.59-5.046-0.59c-4.22,0-7.388,1.203-9.504,3.598c-2.118,2.383-3.177,5.945-3.177,10.684
		c0,4.809,1.059,8.426,3.177,10.852c2.116,2.438,5.286,3.66,9.504,3.66c1.724,0,3.266-0.121,4.626-0.359
		C275.002,361.043,276.216,360.657,277.296,360.137z"/>
	<path fill="#1FB39D" stroke="#1FB39D" stroke-width="2" d="M297.233,331.415h2.754l12.008,31.395h-2.398l-3.742-9.863h-14.656
		l-3.723,9.863h-2.227L297.233,331.415z M298.577,333.536l-6.727,17.664h13.352L298.577,333.536z"/>
	<path fill="#1FB39D" stroke="#1FB39D" stroke-width="2" d="M320.339,331.415h2.926l8.727,23.277l8.77-23.277h2.898v31.395h-2.145
		v-27.566l-8.072,21.531h-2.902l-8.053-21.531v27.566h-2.145v-31.395H320.339z"/>
	<path fill="#1FB39D" stroke="#1FB39D" stroke-width="2" d="M355.819,331.415h17.746v1.746h-15.604v12.047h14.951v1.703h-14.951
		v14.195h15.982v1.707h-18.125V331.415z"/>
	<path fill="#1FB39D" stroke="#1FB39D" stroke-width="2" d="M410.429,331.415h8.559c3.125,0,5.492,0.758,7.105,2.27
		c1.6,1.516,2.398,3.738,2.398,6.668c0,2.945-0.799,5.172-2.398,6.688c-1.613,1.512-3.98,2.273-7.105,2.273h-6.459v13.5h-2.104
		v-31.398H410.429z M412.53,333.161v14.426h6.457c2.34,0,4.148-0.625,5.426-1.875c1.291-1.246,1.934-3.035,1.934-5.363
		c0-2.285-0.643-4.059-1.934-5.32c-1.277-1.246-3.086-1.871-5.426-1.871h-6.457V333.161z"/>
	<path fill="#1FB39D" stroke="#1FB39D" stroke-width="2" d="M436.401,331.415h2.102v29.672h15.289v1.723h-17.391V331.415z"/>
	<path fill="#1FB39D" stroke="#1FB39D" stroke-width="2" d="M469.394,331.415h2.754l12.008,31.395h-2.395l-3.746-9.863H463.36
		l-3.723,9.863h-2.229L469.394,331.415z M470.741,333.536l-6.73,17.664h13.354L470.741,333.536z"/>
	<path fill="#1FB39D" stroke="#1FB39D" stroke-width="2" d="M483.208,331.415h2.439l9.781,14.465l9.713-14.465h2.396l-11.102,16.445
		v14.953h-2.127V347.86L483.208,331.415z"/>
	<path fill="#1FB39D" stroke="#1FB39D" stroke-width="2" d="M513.784,331.415h17.748v1.746h-15.604v12.047h14.951v1.703h-14.951
		v14.195h15.98v1.707h-18.125V331.415z"/>
	<path fill="#1FB39D" stroke="#1FB39D" stroke-width="2" d="M553.991,348.086c0.871,0.309,1.709,0.969,2.523,1.977
		c0.574,0.73,1.395,2.117,2.459,4.164l4.396,8.578h-2.25l-4.48-8.621c-1.164-2.258-2.277-3.75-3.344-4.48
		c-1.092-0.727-2.572-1.094-4.436-1.094h-5.701v14.195h-2.104v-31.395h8.518c3.209,0,5.609,0.75,7.191,2.25
		c1.586,1.504,2.377,3.766,2.377,6.793c0,1.949-0.412,3.59-1.24,4.918C557.116,346.68,555.815,347.583,553.991,348.086z
		 M543.163,333.137v13.73h6.938c2.242,0,3.941-0.582,5.09-1.746c1.148-1.16,1.723-2.879,1.723-5.152
		c0-2.254-0.574-3.957-1.723-5.109c-1.148-1.148-2.848-1.723-5.09-1.723H543.163z"/>
</g>
</svg>
