<?xml version="1.0" encoding="utf-8"?>
<svg version="1.1" id="Layer_1" xmlns="http://www.w3.org/2000/svg" xmlns:xlink="http://www.w3.org/1999/xlink" x="0px" y="0px"
	 width="30.665px" height="28.347px" viewBox="0 0 30.665 28.347" enable-background="new 0 0 30.665 28.347" xml:space="preserve">
<linearGradient id="gradient" gradientUnits="userSpaceOnUse" x1="17.1387" y1="28.3467" x2="17.1387" y2="4.882813e-004">
	<stop  offset="0" style="stop-color:#404040"/>
	<stop  offset="1" style="stop-color:#A0A0A0"/>
</linearGradient>
<path fill="#808080" d="M7.271,20.394H2.656C1.189,20.394,0,19.206,0,17.739v-7.132C0,9.14,1.189,7.953,2.656,7.953h4.615V20.394z"
	/>
<path fill="#808080" d="M18.062,26.294c0,1.948-1.308,2.63-2.906,1.521l-6.832-7.406V7.937l6.832-7.404
	c1.599-1.111,2.906-0.429,2.906,1.519V26.294z"/>
<path fill="#C0C0C0" d="M21.81,24.445l-0.546,0.08v-2.132l0.395-0.067c3.991-0.68,6.889-4.108,6.889-8.152
	c0-4.045-2.897-7.474-6.889-8.155l-0.395-0.067V3.818l0.547,0.081c5.048,0.757,8.854,5.173,8.854,10.274S26.858,23.692,21.81,24.445
	z"/>
<path fill="#C0C0C0" d="M21.572,10.711l-0.306-0.118V8.405l0.604,0.172c2.484,0.712,4.219,3.013,4.219,5.596
	c0,2.584-1.737,4.883-4.219,5.593l-0.604,0.175v-2.188l0.306-0.117c1.436-0.544,2.402-1.936,2.402-3.462
	C23.975,12.644,23.008,11.254,21.572,10.711z"/>
</svg>
