<?xml version="1.0" encoding="utf-8"?>
<svg version="1.1" id="Layer_1" xmlns="http://www.w3.org/2000/svg" xmlns:xlink="http://www.w3.org/1999/xlink" x="0px" y="0px"
	 width="22.218px" height="28.346px" viewBox="0 0 22.218 28.346" enable-background="new 0 0 22.218 28.346" xml:space="preserve">
<linearGradient id="gradient" gradientUnits="userSpaceOnUse" x1="17.1387" y1="28.3467" x2="17.1387" y2="4.882813e-004">
	<stop  offset="0" style="stop-color:#404040"/>
	<stop  offset="1" style="stop-color:#A0A0A0"/>
</linearGradient>
<path fill="#808080" d="M15.008,16.252h0.63v3.389c0,2.037-1.659,3.695-3.697,3.695h-1.728c-2.037,0-3.695-1.658-3.695-3.695v-3.389
	h0.635v-0.996H5.231v4.384c0,2.748,2.235,4.982,4.982,4.982h0.048v2.229H7.386v0.008c-0.523,0.024-0.944,0.414-0.987,0.907v0.579
	h9.373v-0.579c-0.044-0.498-0.472-0.891-1.003-0.908v-0.007h-2.875v-2.229h0.047c2.747,0,4.982-2.234,4.982-4.982v-4.384h-1.915
	V16.252z M7.822,16.891v2.75c0,1.32,1.071,2.392,2.392,2.392h1.727c1.321,0,2.392-1.071,2.392-2.392v-5.607h-1.608
	c-0.224,0-0.405-0.181-0.405-0.404s0.182-0.404,0.405-0.404h1.608v-0.729h-1.608c-0.224,0-0.405-0.182-0.405-0.405
	s0.182-0.404,0.405-0.404h1.608V10.96h-1.608c-0.224,0-0.405-0.181-0.405-0.405c0-0.223,0.182-0.404,0.405-0.404h1.584
	c-0.158-1.167-1.156-2.069-2.367-2.069h-1.727c-1.211,0-2.209,0.902-2.368,2.069h1.585c0.224,0,0.405,0.182,0.405,0.404
	c0,0.224-0.182,0.405-0.405,0.405H7.822v0.729h1.608c0.224,0,0.405,0.181,0.405,0.404s-0.182,0.405-0.405,0.405H7.822v0.729h1.608
	c0.224,0,0.405,0.18,0.405,0.404s-0.182,0.404-0.405,0.404H7.822v0.704h0.007v2.153H7.822z"/>
<path fill="#C0C0C0" d="M11.108,3.606c-4.137,0-7.503,3.366-7.503,7.503c0,1.018,0.22,2.009,0.632,2.957h1.75
	c-0.523-0.906-0.804-1.927-0.804-2.957c0-3.268,2.658-5.925,5.925-5.925c3.269,0,5.927,2.657,5.927,5.925
	c0,1.032-0.279,2.051-0.806,2.957h1.751c0.412-0.947,0.631-1.939,0.631-2.957C18.611,6.972,15.246,3.606,11.108,3.606z"/>
<path fill="#C0C0C0" d="M11.108,0C4.983,0,0,4.984,0,11.109c0,1,0.143,1.991,0.41,2.957h1.646c-0.315-0.967-0.479-1.961-0.479-2.957
	c0-5.256,4.276-9.532,9.532-9.532c5.257,0,9.533,4.276,9.533,9.532c0,0.998-0.162,1.991-0.479,2.957h1.646
	c0.266-0.962,0.408-1.955,0.408-2.957C22.218,4.984,17.234,0,11.108,0z"/>
</svg>
