<?xml version="1.0" encoding="utf-8"?>
<svg version="1.1" id="Layer_1" xmlns="http://www.w3.org/2000/svg" xmlns:xlink="http://www.w3.org/1999/xlink" x="0px" y="0px"
	 width="26.65px" height="28.346px" viewBox="0 0 26.65 28.346" enable-background="new 0 0 26.65 28.346" xml:space="preserve">
<linearGradient id="gradient" gradientUnits="userSpaceOnUse" x1="17.1387" y1="28.3467" x2="17.1387" y2="4.882813e-004">
	<stop  offset="0" style="stop-color:#404040"/>
	<stop  offset="1" style="stop-color:#A0A0A0"/>
</linearGradient>
<path fill="#C0C0C0" d="M18.497,2.738v4.423c2.554,1.687,4.245,4.577,4.245,7.86c0,5.191-4.226,9.414-9.418,9.414
	c-5.189,0-9.415-4.223-9.415-9.414c0-3.283,1.691-6.174,4.244-7.86V2.738C3.363,4.757,0,9.497,0,15.022
	c0,7.358,5.967,13.324,13.324,13.324c7.36,0,13.326-5.966,13.326-13.324C26.65,9.497,23.287,4.757,18.497,2.738z"/>
<path fill="#808080" d="M19.229,12.486h-3.902V2.003C15.327,0.897,14.431,0,13.324,0c-1.105,0-2.004,0.897-2.004,2.003V14.49
	c0,1.107,0.898,2.003,2.003,2.003h5.906c1.107,0,2.004-0.896,2.004-2.003C21.233,13.383,20.336,12.486,19.229,12.486z"/>
</svg>
