<?xml version="1.0" encoding="utf-8"?>
<svg version="1.1" id="Layer_1" xmlns="http://www.w3.org/2000/svg" xmlns:xlink="http://www.w3.org/1999/xlink" x="0px" y="0px"
	 width="21.871px" height="28.346px" viewBox="0 0 21.871 28.346" enable-background="new 0 0 21.871 28.346" xml:space="preserve">
<linearGradient id="gradient" gradientUnits="userSpaceOnUse" x1="17.1387" y1="28.3467" x2="17.1387" y2="4.882813e-004">
	<stop  offset="0" style="stop-color:#404040"/>
	<stop  offset="1" style="stop-color:#A0A0A0"/>
</linearGradient>
<path fill="#C0C0C0" d="M18.154,10.936c0-3.987-3.232-7.22-7.219-7.22c-3.987,0-7.22,3.232-7.22,7.22
	c0,3.125,1.991,5.78,4.771,6.784c0.097-0.367,0.188-0.742,0.276-1.123c-2.276-0.877-3.897-3.08-3.897-5.66
	c0-3.348,2.724-6.071,6.071-6.071c3.348,0,6.07,2.723,6.07,6.071c0,2.58-1.621,4.783-3.897,5.66
	c0.089,0.381,0.179,0.756,0.276,1.123C16.164,16.715,18.154,14.061,18.154,10.936z M10.935,0C4.896,0,0,4.896,0,10.936
	c0,4.785,3.075,8.85,7.356,10.333c0.132-0.354,0.26-0.717,0.384-1.084c-3.832-1.328-6.592-4.971-6.592-9.248
	c0-5.396,4.39-9.787,9.787-9.787c5.396,0,9.787,4.391,9.787,9.787c0,4.277-2.761,7.92-6.593,9.248
	c0.125,0.367,0.253,0.73,0.385,1.084c4.281-1.483,7.356-5.548,7.356-10.333C21.871,4.896,16.974,0,10.935,0z"/>
<path fill="#808080" d="M16.585,28.346c-2.396-4.338-4.236-8.575-5.14-14.271c1.516-0.245,2.674-1.556,2.674-3.14
	c0-1.759-1.426-3.185-3.185-3.185c-1.759,0-3.185,1.426-3.185,3.185c0,1.584,1.158,2.895,2.673,3.14
	c-0.903,5.695-2.743,9.933-5.139,14.271H16.585z"/>
</svg>
