<?xml version="1.0" encoding="utf-8"?>
<svg version="1.1" id="Layer_1" xmlns="http://www.w3.org/2000/svg" xmlns:xlink="http://www.w3.org/1999/xlink" x="0px" y="0px"
	 width="35.391px" height="29.48px" viewBox="0 0 35.391 29.48" enable-background="new 0 0 35.391 29.48" xml:space="preserve">
<linearGradient id="gradient" gradientUnits="userSpaceOnUse" x1="17.1387" y1="28.3467" x2="17.1387" y2="4.882813e-004">
	<stop  offset="0" style="stop-color:#404040"/>
	<stop  offset="1" style="stop-color:#A0A0A0"/>
</linearGradient>
<path fill="#808080" d="M34.581,17.671l-5.1-5.914l-0.429-0.497l-0.428,0.497l-5.098,5.914l-0.81,0.938h3.458
	c-0.105,0.385-0.258,0.825-0.446,1.109c-1.78,2.65-4.881,4.364-7.9,4.364c-2.352,0-4.599-0.879-6.329-2.476l-0.164-0.15H4.668
	l0.513,0.856c2.64,4.421,7.486,7.168,12.648,7.168c6.482,0,12.133-4.162,14.062-10.359l0.157-0.513h3.343L34.581,17.671z"/>
<path fill="#C0C0C0" d="M6.336,18.221l0.428-0.499l5.102-5.912l0.809-0.937H9.433c0.143-0.337,0.327-0.751,0.54-1.173
	c1.338-2.654,4.349-4.303,7.854-4.303c2.257,0,4.439,0.819,6.144,2.307l0.16,0.141h6.762l-0.535-0.865
	C27.649,2.608,22.966,0,17.827,0C11.351,0,5.703,4.162,3.775,10.358l-0.16,0.515H0l0.807,0.937l5.099,5.912L6.336,18.221z"/>
</svg>
