<?xml version="1.0" encoding="utf-8"?>
<svg version="1.1" id="Layer_1" xmlns="http://www.w3.org/2000/svg" xmlns:xlink="http://www.w3.org/1999/xlink" x="0px" y="0px"
	 width="28.346px" height="28.346px" viewBox="0 0 28.346 28.346" enable-background="new 0 0 28.346 28.346" xml:space="preserve">
<linearGradient id="gradient" gradientUnits="userSpaceOnUse" x1="17.1387" y1="28.3467" x2="17.1387" y2="4.882813e-004">
	<stop  offset="0" style="stop-color:#404040"/>
	<stop  offset="1" style="stop-color:#A0A0A0"/>
</linearGradient>
<path fill="#808080" d="M23.908,5.176l0.178,0.178c0.186,0.186,0.486,0.186,0.673,0l3.448-4.121c0.186-0.186,0.186-0.487,0-0.673
	l-0.42-0.42c-0.187-0.186-0.488-0.186-0.675,0l-4.12,3.448c-0.186,0.186-0.186,0.487,0,0.673l0.179,0.178L10.285,16.427l1.634,1.633
	L23.908,5.176z"/>
<path fill="#808080" d="M11.401,19.468c0.186-0.186,0.186-0.486,0-0.673l-1.851-1.851c-0.187-0.186-0.487-0.186-0.672,0L8.43,17.394
	c-0.187,0.186-0.187,0.486,0,0.673l1.85,1.85c0.187,0.187,0.486,0.187,0.673,0L11.401,19.468z"/>
<path fill="#808080" d="M9.58,21.626c0.186-0.185,0.186-0.485,0-0.672l-2.189-2.188c-0.186-0.186-0.487-0.186-0.672,0L5.78,19.509
	c-0.186,0.188-0.186,0.487,0,0.673l2.384,2.384c0.186,0.186,0.486,0.186,0.673,0L9.58,21.626z"/>
<path fill="#C0C0C0" d="M9.244,24.296c-0.187,0.187-0.487,0.187-0.673,0L4.05,19.775c-0.187-0.186-0.187-0.486,0-0.673l7.978-5.327
	c-0.144-0.379-0.255-1.047-0.254-1.384c0.002-1.607,1.276-2.272,2.064-2.659c0.789-0.386,0.205-0.865-0.39-0.887
	c-0.595-0.023-1.731-0.191-3.027,1.009c-1.59,1.474-0.551,3.473-1.823,4.677c-1.456,1.378-4.274-1.271-7.302,1.841
	c-1.534,1.577-2.438,4.71,1.616,8.976l0.086,0.086c4.266,4.054,7.399,3.15,8.976,1.616c3.112-3.027,0.463-5.846,1.841-7.302
	c1.205-1.273,3.204-0.233,4.677-1.823c1.201-1.296,1.033-2.434,1.01-3.027c-0.022-0.594-0.501-1.179-0.887-0.39
	c-0.387,0.789-1.053,2.064-2.658,2.066c-0.436,0-0.928-0.133-1.418-0.363L9.244,24.296z"/>
</svg>
