<?xml version="1.0" encoding="utf-8"?>
<svg version="1.1" id="Layer_1" xmlns="http://www.w3.org/2000/svg" xmlns:xlink="http://www.w3.org/1999/xlink" x="0px" y="0px"
	 width="28.402px" height="28.347px" viewBox="0 0 28.402 28.347" enable-background="new 0 0 28.402 28.347" xml:space="preserve">
<linearGradient id="gradient" gradientUnits="userSpaceOnUse" x1="17.1387" y1="28.3467" x2="17.1387" y2="4.882813e-004">
	<stop  offset="0" style="stop-color:#404040"/>
	<stop  offset="1" style="stop-color:#A0A0A0"/>
</linearGradient>
<polygon fill="#808080" points="17.899,26.101 17.899,23.44 10.502,23.44 10.502,26.101 4.951,26.101 4.951,28.347 23.45,28.347 
	23.45,26.101 "/>
<polygon fill="#C0C0C0" points="24.811,16.407 3.591,16.407 3.591,3.593 24.811,3.593 24.811,16.407 "/>
<path fill="#808080" d="M26.208,0H2.193C0.981,0,0,0.982,0,2.193v17.513C0,20.917,0.981,21.9,2.193,21.9h24.015
	c1.212,0,2.194-0.983,2.194-2.194V2.193C28.402,0.982,27.42,0,26.208,0z M14.201,21.247c-0.722,0-1.307-0.585-1.307-1.307
	c0-0.721,0.585-1.306,1.307-1.306c0.72,0,1.304,0.585,1.304,1.306C15.505,20.662,14.921,21.247,14.201,21.247z M26.227,17.185
	c0,0.353-0.287,0.641-0.64,0.641H2.814c-0.352,0-0.638-0.288-0.638-0.641V2.813c0-0.351,0.287-0.638,0.638-0.638h22.773
	c0.353,0,0.64,0.287,0.64,0.638V17.185z"/>
</svg>
