<?xml version="1.0" encoding="utf-8"?>
<!DOCTYPE svg PUBLIC "-//W3C//DTD SVG 1.1//EN" "http://www.w3.org/Graphics/SVG/1.1/DTD/svg11.dtd">
<svg version="1.1" id="Layer_1" xmlns="http://www.w3.org/2000/svg" xmlns:xlink="http://www.w3.org/1999/xlink" x="0px" y="0px"
	 width="28.942px" height="25.194px" viewBox="0 0 28.942 25.194" enable-background="new 0 0 28.942 25.194" xml:space="preserve">
<linearGradient id="gradient" gradientUnits="userSpaceOnUse" x1="17.1387" y1="28.3467" x2="17.1387" y2="4.882813e-004">
	<stop  offset="0" style="stop-color:#404040"/>
	<stop  offset="1" style="stop-color:#A0A0A0"/>
</linearGradient>
<path fill="#C0C0C0" d="M22.359,19.76l6.583-9.583h-3.985C23.829,4.378,18.727,0,12.598,0C5.64,0,0,5.64,0,12.597
	c0,6.958,5.64,12.598,12.598,12.598c3.066,0,5.875-1.098,8.06-2.919l-2.655-3.864c-1.419,1.319-3.314,2.132-5.404,2.132
	c-4.389,0-7.946-3.558-7.946-7.946c0-4.388,3.558-7.946,7.946-7.946c3.543,0,6.529,2.323,7.553,5.526h-4.374L22.359,19.76z"/>
</svg>
