<?xml version="1.0" encoding="utf-8"?>
<svg version="1.1" id="Layer_1" xmlns="http://www.w3.org/2000/svg" xmlns:xlink="http://www.w3.org/1999/xlink" x="0px" y="0px"
	 width="33.257px" height="28.347px" viewBox="0 0 33.257 28.347" enable-background="new 0 0 33.257 28.347" xml:space="preserve">
<linearGradient id="gradient" gradientUnits="userSpaceOnUse" x1="17.1387" y1="28.3467" x2="17.1387" y2="4.882813e-004">
	<stop  offset="0" style="stop-color:#404040"/>
	<stop  offset="1" style="stop-color:#A0A0A0"/>
</linearGradient>
<path fill="#C0C0C0" d="M25.418,4.589c-0.428-0.145-0.856-0.253-1.287-0.345c3.112,3.375,4.341,8.297,2.779,12.958
	c-1.563,4.661-5.509,7.85-10.027,8.666c0.398,0.187,0.809,0.357,1.236,0.501c6.015,2.017,12.524-1.226,14.539-7.24
	C34.675,13.115,31.433,6.605,25.418,4.589z"/>
<path fill="#808080" d="M13.598,0c0.287,0,0.084,6.357,1.68,7.955c1.6,1.599,5.803,1.395,5.803,1.682
	c0,0.289-3.585-0.251-5.687,1.849c-2.185,2.186-1.354,13.603-1.796,13.603c-0.443,0,0.181-11.017-1.758-13.603
	c-1.403-1.87-6.37-1.617-6.37-1.849c0-0.231,4.652,0.115,6.448-1.682C13.712,6.16,13.311,0,13.598,0z"/>
<path fill="#808080" d="M5.521,11.303c0.195,0,0.057,4.318,1.143,5.404c1.088,1.085,3.941,0.947,3.941,1.143
	c0,0.194-2.436-0.171-3.864,1.255c-1.484,1.485-0.919,9.242-1.22,9.242c-0.299,0,0.123-7.485-1.194-9.242
	C3.371,17.836,0,18.007,0,17.85s3.16,0.078,4.381-1.143C5.598,15.486,5.326,11.303,5.521,11.303z"/>
</svg>
