<?xml version="1.0" encoding="utf-8"?>
<svg version="1.1" id="Layer_1" xmlns="http://www.w3.org/2000/svg" xmlns:xlink="http://www.w3.org/1999/xlink" x="0px" y="0px"
	 width="40.98px" height="28.347px" viewBox="0 0 40.98 28.347" enable-background="new 0 0 40.98 28.347" xml:space="preserve">
<linearGradient id="gradient" gradientUnits="userSpaceOnUse" x1="17.1387" y1="28.3467" x2="17.1387" y2="4.882813e-004">
	<stop  offset="0" style="stop-color:#404040"/>
	<stop  offset="1" style="stop-color:#A0A0A0"/>
</linearGradient>
<path fill="#C0C0C0" d="M18.928,13.917c0-5.934-4.859-10.743-10.854-10.743H0v5.219h8.074c3.081,0,5.58,2.473,5.58,5.524l0,0
	c0,5.934,4.858,10.742,10.854,10.742h5.456v3.688L40.98,22.05l-11.017-6.296v3.687h-5.456
	C21.426,19.441,18.928,16.966,18.928,13.917L18.928,13.917z"/>
<path fill="#808080" d="M40.98,6.296L29.964,0v3.687h-5.456c-2.339,0-4.499,0.739-6.271,1.984c1.13,1.369,1.977,2.972,2.474,4.72
	c0.996-0.918,2.328-1.484,3.797-1.484h5.456v3.686L40.98,6.296z M8.074,19.953H0v5.22h8.074c2.588,0,4.961-0.899,6.826-2.396
	c-1.22-1.3-2.172-2.843-2.779-4.552C11.104,19.287,9.67,19.953,8.074,19.953z"/>
</svg>
