<?xml version="1.0" encoding="utf-8"?>
<svg version="1.1" id="Layer_1" xmlns="http://www.w3.org/2000/svg" xmlns:xlink="http://www.w3.org/1999/xlink" x="0px" y="0px"
	 width="25.415px" height="28.347px" viewBox="0 0 25.415 28.347" enable-background="new 0 0 25.415 28.347" xml:space="preserve">
<linearGradient id="gradient" gradientUnits="userSpaceOnUse" x1="17.1387" y1="28.3467" x2="17.1387" y2="4.882813e-004">
	<stop  offset="0" style="stop-color:#404040"/>
	<stop  offset="1" style="stop-color:#A0A0A0"/>
</linearGradient>
<path fill="#C0C0C0" d="M17.639,3.926v4.218c2.436,1.608,4.049,4.365,4.049,7.496c0,4.95-4.029,8.978-8.981,8.978
	c-4.949,0-8.979-4.027-8.979-8.978c0-3.131,1.613-5.887,4.047-7.496V3.926C3.207,5.851,0,10.371,0,15.64
	c0,7.018,5.69,12.707,12.707,12.707c7.019,0,12.708-5.689,12.708-12.707C25.415,10.371,22.208,5.851,17.639,3.926z"/>
<path fill="#808080" d="M14.617,13.818c0,1.055-0.854,1.911-1.91,1.911l0,0c-1.055,0-1.911-0.855-1.911-1.911V1.911
	C10.795,0.855,11.652,0,12.707,0l0,0c1.056,0,1.91,0.855,1.91,1.911V13.818z"/>
</svg>
