<?xml version="1.0" encoding="utf-8"?>
<svg version="1.1" id="Layer_1" xmlns="http://www.w3.org/2000/svg" xmlns:xlink="http://www.w3.org/1999/xlink" x="0px" y="0px"
	 width="38.206px" height="28.346px" viewBox="0 0 38.206 28.346" enable-background="new 0 0 38.206 28.346" xml:space="preserve">
<linearGradient id="gradient" gradientUnits="userSpaceOnUse" x1="17.1387" y1="28.3467" x2="17.1387" y2="4.882813e-004">
	<stop  offset="0" style="stop-color:#404040"/>
	<stop  offset="1" style="stop-color:#A0A0A0"/>
</linearGradient>
<path fill="#808080" d="M24.395,16.584v-4.822H13.812v4.822H24.395z"/>
<g>
	<path fill="#C0C0C0" d="M36.991,9.614l-4.407,2.519c0.344,0.701,0.542,1.484,0.542,2.315c0,2.937-2.406,5.319-5.376,5.319H10.612
		v-3.551L0,22.282l10.612,6.064v-3.549H27.75c5.774,0,10.456-4.635,10.456-10.349C38.206,12.701,37.764,11.058,36.991,9.614z"/>
	<path fill="#C0C0C0" d="M1.213,18.733l4.407-2.52c-0.342-0.7-0.54-1.484-0.54-2.314c0-2.938,2.406-5.32,5.375-5.32h17.138v3.551
		l10.613-6.065L27.593,0v3.55H10.455C4.68,3.55,0,8.184,0,13.899C0,15.646,0.44,17.29,1.213,18.733z"/>
</g>
</svg>
