<?xml version="1.0" encoding="utf-8"?>
<svg version="1.1" id="Layer_1" xmlns="http://www.w3.org/2000/svg" xmlns:xlink="http://www.w3.org/1999/xlink" x="0px" y="0px"
	 width="26.12px" height="28.347px" viewBox="0 0 26.12 28.347" enable-background="new 0 0 26.12 28.347" xml:space="preserve">
<linearGradient id="gradient" gradientUnits="userSpaceOnUse" x1="17.1387" y1="28.3467" x2="17.1387" y2="4.882813e-004">
	<stop  offset="0" style="stop-color:#404040"/>
	<stop  offset="1" style="stop-color:#A0A0A0"/>
</linearGradient>
<path fill="#C0C0C0" d="M21.326,24.603c2.438-2.237,3.978-5.442,3.978-9.013c0-6.763-5.482-12.244-12.243-12.244
	c-6.762,0-12.243,5.481-12.243,12.244c0,3.57,1.538,6.775,3.978,9.013l-1.044,1.899c-0.337,0.613-0.13,1.374,0.461,1.698
	c0.591,0.325,1.344,0.09,1.681-0.523l0.877-1.599c1.84,1.107,3.987,1.755,6.291,1.755s4.45-0.647,6.291-1.755l0.877,1.599
	c0.336,0.613,1.09,0.849,1.681,0.523c0.591-0.324,0.797-1.085,0.46-1.698L21.326,24.603z M13.06,25.792
	c-5.626,0-10.201-4.576-10.201-10.203c0-5.625,4.575-10.201,10.201-10.201c5.627,0,10.203,4.576,10.203,10.201
	C23.263,21.216,18.687,25.792,13.06,25.792z"/>
<circle fill="#808080" cx="13.076" cy="16.883" r="1.598"/>
<g>
	<path fill="#808080" d="M11.739,16.773l-3.122,3.121c-0.329,0.33-0.329,0.866,0,1.196c0.33,0.329,0.866,0.329,1.196,0l3.121-3.122
		L11.739,16.773z"/>
	<path fill="#808080" d="M13.186,18.156l3.122,3.123c0.329,0.328,0.865,0.328,1.195,0c0.33-0.331,0.33-0.867,0-1.197l-3.121-3.121
		L13.186,18.156z"/>
</g>
<g>
	<path fill="#808080" d="M10.802,11.905c-0.176,0.704-0.927,1.235-1.822,1.235c-0.897,0-1.648-0.531-1.823-1.235H6.134
		c0.175,1.269,1.375,2.254,2.846,2.254s2.67-0.985,2.846-2.254H10.802z"/>
	<path fill="#808080" d="M18.964,11.905c-0.176,0.704-0.927,1.235-1.822,1.235c-0.897,0-1.648-0.531-1.823-1.235h-1.022
		c0.175,1.269,1.375,2.254,2.846,2.254s2.67-0.985,2.846-2.254H18.964z"/>
</g>
<path fill="#808080" d="M5.261,0C2.355,0,0,2.355,0,5.261c0,1.327,0.508,2.524,1.317,3.45c1.857-3.043,4.894-5.285,8.479-6.071
	C8.887,1.069,7.207,0,5.261,0z"/>
<path fill="#808080" d="M16.324,2.639c3.585,0.787,6.622,3.028,8.479,6.071c0.809-0.926,1.316-2.123,1.316-3.45
	C26.12,2.355,23.765,0,20.859,0C18.914,0,17.234,1.069,16.324,2.639z"/>
</svg>
