<?xml version="1.0" encoding="utf-8"?>
<svg version="1.1" id="Layer_1" xmlns="http://www.w3.org/2000/svg" xmlns:xlink="http://www.w3.org/1999/xlink" x="0px" y="0px"
	 width="41.727px" height="28.346px" viewBox="0 0 41.727 28.346" enable-background="new 0 0 41.727 28.346" xml:space="preserve">
<linearGradient id="gradient" gradientUnits="userSpaceOnUse" x1="17.1387" y1="28.3467" x2="17.1387" y2="4.882813e-004">
	<stop  offset="0" style="stop-color:#404040"/>
	<stop  offset="1" style="stop-color:#A0A0A0"/>
</linearGradient>
<circle fill="#C0C0C0" cx="9.802" cy="13.144" r="4.082"/>
<path fill="#808080" d="M4.109,18.9V2.055C4.109,0.92,3.189,0,2.055,0C0.919,0,0,0.92,0,2.055v24.238
	c0,1.135,0.919,2.054,2.055,2.054c1.135,0,2.055-0.919,2.055-2.054v-2.029h33.509v2.029c0,1.135,0.919,2.054,2.054,2.054
	c1.136,0,2.055-0.919,2.055-2.054V18.9H4.109z"/>
<path fill="#C0C0C0" d="M26.666,9.175c-0.021,0-0.042,0.004-0.063,0.004V9.175H15.175v8.051h24.981
	C37.566,12.432,32.497,9.175,26.666,9.175z"/>
</svg>
