<?xml version="1.0" encoding="utf-8"?>
<svg version="1.1" id="Layer_1" xmlns="http://www.w3.org/2000/svg" xmlns:xlink="http://www.w3.org/1999/xlink" x="0px" y="0px"
	 width="34.666px" height="28.347px" viewBox="0 0 34.666 28.347" enable-background="new 0 0 34.666 28.347" xml:space="preserve">
<linearGradient id="gradient" gradientUnits="userSpaceOnUse" x1="17.1387" y1="28.3467" x2="17.1387" y2="4.882813e-004">
	<stop  offset="0" style="stop-color:#404040"/>
	<stop  offset="1" style="stop-color:#A0A0A0"/>
</linearGradient>
<g>
	<g>
		<path fill="#C0C0C0" d="M16.311,25.348h5.714v2.256H12.64v-1.469l5.75-8.346h-5.213v-2.258h8.758v1.576L16.311,25.348z"/>
	</g>
	<path fill="#C0C0C0" d="M15.514,8.974l-0.86,3.099h-2.829L15.514,0h3.583l3.744,12.072h-2.938l-0.931-3.099H15.514z M17.216,2.042
		H17.18l-1.271,4.89h2.669L17.216,2.042z"/>
</g>
<g>
	<polygon fill="#808080" points="6.127,20.313 6.127,0 3.15,0 3.15,20.313 0,20.313 4.638,28.347 9.277,20.313 	"/>
	<polygon fill="#808080" points="28.538,8.034 28.538,28.347 31.516,28.347 31.516,8.034 34.666,8.034 30.028,0 25.39,8.034 	"/>
</g>
</svg>
