<?xml version="1.0" encoding="utf-8"?>
<svg version="1.1" id="Layer_1" xmlns="http://www.w3.org/2000/svg" xmlns:xlink="http://www.w3.org/1999/xlink" x="0px" y="0px"
	 width="28.347px" height="28.346px" viewBox="0 0 28.347 28.346" enable-background="new 0 0 28.347 28.346" xml:space="preserve">
<linearGradient id="gradient" gradientUnits="userSpaceOnUse" x1="17.1387" y1="28.3467" x2="17.1387" y2="4.882813e-004">
	<stop  offset="0" style="stop-color:#404040"/>
	<stop  offset="1" style="stop-color:#A0A0A0"/>
</linearGradient>
<path fill="#808080" d="M17.187,21.877l-4.315-4.736H8.96c-0.366,0-0.664-0.297-0.664-0.665V11.87c0-0.367,0.298-0.664,0.664-0.664
	h3.911l4.315-4.736V21.877z"/>
<path fill="#C0C0C0" d="M14.173,0C6.346,0,0,6.345,0,14.173C0,22,6.346,28.346,14.173,28.346C22,28.346,28.347,22,28.347,14.173
	C28.347,6.345,22,0,14.173,0z M19.171,26.999l-3.451-3.785l-3.727-4.088H8.959c-1.461,0-2.647-1.188-2.647-2.649V11.87
	c0-1.461,1.187-2.647,2.647-2.647h3.033l3.727-4.09l3.451-3.787V26.999z"/>
</svg>
