<?xml version="1.0" encoding="utf-8"?>
<svg version="1.1" id="Layer_1" xmlns="http://www.w3.org/2000/svg" xmlns:xlink="http://www.w3.org/1999/xlink" x="0px" y="0px"
	 width="35.437px" height="28.347px" viewBox="0 0 35.437 28.347" enable-background="new 0 0 35.437 28.347" xml:space="preserve">
<linearGradient id="gradient" gradientUnits="userSpaceOnUse" x1="17.1387" y1="28.3467" x2="17.1387" y2="4.882813e-004">
	<stop  offset="0" style="stop-color:#404040"/>
	<stop  offset="1" style="stop-color:#A0A0A0"/>
</linearGradient>
<path fill="#808080" d="M32.118,0h-28.8C1.488,0,0,1.488,0,3.318v21.71c0,1.83,1.488,3.318,3.318,3.318h28.8
	c1.831,0,3.318-1.488,3.318-3.318V3.318C35.437,1.488,33.949,0,32.118,0z M33.832,25.028c0,0.946-0.769,1.715-1.714,1.715h-28.8
	c-0.947,0-1.716-0.769-1.716-1.715V3.318c0-0.946,0.769-1.714,1.716-1.714h28.8c0.945,0,1.714,0.769,1.714,1.714V25.028z"/>
<path fill="#C0C0C0" d="M7.637,24.409c0,0.376-0.098,0.681-0.218,0.681H3.762c-0.12,0-0.218-0.305-0.218-0.681v-8.617
	c0-0.375,0.098-0.682,0.218-0.682h3.657c0.12,0,0.218,0.307,0.218,0.682V24.409z"/>
<path fill="#C0C0C0" d="M12.529,24.116c0,0.537-0.097,0.974-0.217,0.974H8.655c-0.12,0-0.218-0.437-0.218-0.974V11.777
	c0-0.537,0.098-0.974,0.218-0.974h3.657c0.12,0,0.217,0.438,0.217,0.974V24.116z"/>
<path fill="#C0C0C0" d="M17.423,23.864c0,0.676-0.098,1.226-0.218,1.226h-3.657c-0.12,0-0.218-0.55-0.218-1.226V8.336
	c0-0.676,0.098-1.227,0.218-1.227h3.657c0.12,0,0.218,0.551,0.218,1.227V23.864z"/>
<path fill="#C0C0C0" d="M22.316,24.074c0,0.56-0.098,1.016-0.218,1.016h-3.657c-0.12,0-0.218-0.456-0.218-1.016V11.204
	c0-0.56,0.098-1.017,0.218-1.017h3.657c0.12,0,0.218,0.457,0.218,1.017V24.074z"/>
<path fill="#C0C0C0" d="M27.209,24.325c0,0.422-0.098,0.765-0.218,0.765h-3.656c-0.12,0-0.218-0.343-0.218-0.765v-9.681
	c0-0.421,0.098-0.764,0.218-0.764h3.656c0.12,0,0.218,0.343,0.218,0.764V24.325z"/>
<path fill="#C0C0C0" d="M32.103,24.493c0,0.329-0.098,0.597-0.218,0.597h-3.657c-0.12,0-0.218-0.268-0.218-0.597v-7.555
	c0-0.328,0.098-0.596,0.218-0.596h3.657c0.12,0,0.218,0.268,0.218,0.596V24.493z"/>
</svg>
