<?xml version="1.0" encoding="utf-8"?>
<svg version="1.1" id="Layer_1" xmlns="http://www.w3.org/2000/svg" xmlns:xlink="http://www.w3.org/1999/xlink" x="0px" y="0px"
	 width="36.641px" height="28.347px" viewBox="0 0 36.641 28.347" enable-background="new 0 0 36.641 28.347" xml:space="preserve">
<linearGradient id="gradient" gradientUnits="userSpaceOnUse" x1="17.1387" y1="28.3467" x2="17.1387" y2="4.882813e-004">
	<stop  offset="0" style="stop-color:#404040"/>
	<stop  offset="1" style="stop-color:#A0A0A0"/>
</linearGradient>
<path fill="#808080" d="M9.607,28.347c-0.307,0-0.089-6.812-1.8-8.522c-1.713-1.714-6.215-1.494-6.215-1.801
	c0-0.31,3.84,0.269,6.092-1.981c2.341-2.341,1.452-14.573,1.924-14.573c0.475,0-0.194,11.802,1.883,14.573
	c1.503,2.003,6.825,1.732,6.825,1.981c0,0.246-4.984-0.123-6.908,1.801C9.484,21.748,9.914,28.347,9.607,28.347z"/>
<path fill="#808080" d="M32.056,12.291c0.176,0,0.051,3.895,1.029,4.876c0.979,0.979,3.556,0.854,3.556,1.029
	c0,0.178-2.197-0.153-3.486,1.134c-1.338,1.34-0.828,8.339-1.099,8.339c-0.273,0,0.11-6.753-1.077-8.339
	c-0.861-1.146-3.906-0.991-3.906-1.134c0-0.142,2.853,0.071,3.952-1.029C32.125,16.067,31.88,12.291,32.056,12.291z"/>
<path fill="#C0C0C0" d="M23.764,0c0.308,0,0.09,6.81,1.802,8.522c1.713,1.714,10.731,1.494,10.731,1.802
	c0,0.308-8.356-0.27-10.608,1.98c-2.341,2.341-1.451,14.574-1.925,14.574c-0.475,0,0.195-11.804-1.882-14.574
	C20.378,10.301,0,10.572,0,10.324c0-0.248,20.041,0.122,21.965-1.802C23.887,6.599,23.457,0,23.764,0z"/>
</svg>
