<?xml version="1.0" encoding="utf-8"?>
<svg version="1.1" id="Layer_1" xmlns="http://www.w3.org/2000/svg" xmlns:xlink="http://www.w3.org/1999/xlink" x="0px" y="0px"
	 width="31.698px" height="28.347px" viewBox="0 0 31.698 28.347" enable-background="new 0 0 31.698 28.347" xml:space="preserve">
<linearGradient id="gradient" gradientUnits="userSpaceOnUse" x1="17.1387" y1="28.3467" x2="17.1387" y2="4.882813e-004">
	<stop  offset="0" style="stop-color:#404040"/>
	<stop  offset="1" style="stop-color:#A0A0A0"/>
</linearGradient>
<circle fill="#808080" cx="13.612" cy="6.786" r="2.015"/>
<path fill="#C0C0C0" d="M19.529,5.232l-7.358-4.836c-1.3-0.854-2.364-0.281-2.364,1.275V3.82H1.271C0.568,3.82,0,4.389,0,5.091v3.39
	c0,0.702,0.568,1.271,1.271,1.271h8.536v2.148c0,1.555,1.064,2.129,2.364,1.274l7.358-4.835C20.83,7.485,20.83,6.087,19.529,5.232z
	 M13.613,10.219c-1.893,0-3.434-1.541-3.434-3.433s1.541-3.431,3.434-3.431s3.431,1.539,3.431,3.431S15.506,10.219,13.613,10.219z"
	/>
<circle fill="#808080" cx="13.612" cy="21.561" r="2.015"/>
<path fill="#C0C0C0" d="M19.529,20.007l-7.358-4.836c-1.3-0.854-2.364-0.281-2.364,1.275v2.147H1.271
	C0.568,18.594,0,19.164,0,19.866v3.39c0,0.702,0.568,1.271,1.271,1.271h8.536v2.148c0,1.556,1.064,2.13,2.364,1.275l7.358-4.836
	C20.83,22.26,20.83,20.863,19.529,20.007z M13.612,24.993c-1.892,0-3.433-1.539-3.433-3.431c0-1.893,1.541-3.434,3.433-3.434
	c1.893,0,3.432,1.541,3.432,3.434C17.044,23.454,15.505,24.993,13.612,24.993z"/>
<circle fill="#808080" cx="25.18" cy="14.114" r="2.015"/>
<path fill="#C0C0C0" d="M30.723,12.56l-7.359-4.836C22.064,6.87,21,7.443,21,9v10.229c0,1.556,1.064,2.13,2.363,1.275l7.359-4.835
	C32.023,14.813,32.023,13.415,30.723,12.56z M25.181,17.545c-1.894,0-3.432-1.538-3.432-3.431c0-1.894,1.538-3.432,3.432-3.432
	c1.893,0,3.432,1.538,3.432,3.432C28.612,16.007,27.073,17.545,25.181,17.545z"/>
</svg>
