<?xml version="1.0" encoding="utf-8"?>
<svg version="1.1" id="Layer_1" xmlns="http://www.w3.org/2000/svg" xmlns:xlink="http://www.w3.org/1999/xlink" x="0px" y="0px"
	 width="22.516px" height="28.347px" viewBox="0 0 22.516 28.347" enable-background="new 0 0 22.516 28.347" xml:space="preserve">
<linearGradient id="gradient" gradientUnits="userSpaceOnUse" x1="17.1387" y1="28.3467" x2="17.1387" y2="4.882813e-004">
	<stop  offset="0" style="stop-color:#404040"/>
	<stop  offset="1" style="stop-color:#A0A0A0"/>
</linearGradient>
<g>
	<path fill="#808080" d="M17.979,0H4.536C2.03,0,0,2.03,0,4.536v19.276c0,2.505,2.03,4.535,4.536,4.535h13.444
		c2.506,0,4.536-2.03,4.536-4.535V4.536C22.516,2.03,20.485,0,17.979,0z M19.274,23.812c0,0.714-0.58,1.295-1.294,1.295H4.535
		c-0.714,0-1.294-0.581-1.294-1.295V4.535c0-0.713,0.581-1.294,1.294-1.294H17.98c0.714,0,1.294,0.581,1.294,1.294V23.812z"/>
</g>
<polygon fill="#C0C0C0" points="15.387,21.219 7.129,21.219 7.129,7.128 15.387,7.128 15.387,21.219 "/>
</svg>
