<?xml version="1.0" encoding="utf-8"?>
<svg version="1.1" id="Layer_1" xmlns="http://www.w3.org/2000/svg" xmlns:xlink="http://www.w3.org/1999/xlink" x="0px" y="0px"
	 width="27.734px" height="28.347px" viewBox="0 0 27.734 28.347" enable-background="new 0 0 27.734 28.347" xml:space="preserve">
<linearGradient id="gradient" gradientUnits="userSpaceOnUse" x1="17.1387" y1="28.3467" x2="17.1387" y2="4.882813e-004">
	<stop  offset="0" style="stop-color:#404040"/>
	<stop  offset="1" style="stop-color:#A0A0A0"/>
</linearGradient>
<path fill="#808080" d="M4.711,3.651c-0.12-0.402-0.242-0.906-0.342-1.308H4.35C4.249,2.746,4.147,3.259,4.037,3.651L3.634,5.09
	h1.499L4.711,3.651z M11.857,5.935c0-0.684-0.613-0.956-1.377-0.956H9.956v1.912c0.15,0.02,0.331,0.02,0.594,0.02
	C11.244,6.911,11.857,6.639,11.857,5.935z M24.872,4.476c0.011-1.409-0.814-2.153-2.133-2.153c-0.342,0-0.563,0.03-0.693,0.06V6.82
	c0.13,0.03,0.341,0.03,0.532,0.03C23.967,6.86,24.872,6.096,24.872,4.476z M11.696,3.047c0-0.512-0.392-0.784-1.087-0.784
	c-0.331,0-0.522,0.02-0.653,0.041v1.579h0.503C11.264,3.882,11.696,3.551,11.696,3.047z M0,0v28.347h27.734V0H0z M20.506,1.287
	c0.563-0.09,1.298-0.141,2.072-0.141c1.288,0,2.123,0.231,2.776,0.725c0.705,0.523,1.147,1.358,1.147,2.555
	c0,1.298-0.473,2.194-1.127,2.747c-0.714,0.594-1.801,0.875-3.129,0.875c-0.794,0-1.357-0.051-1.74-0.101V1.287z M17.907,1.086
	c0.795,0,1.398,0.161,1.671,0.302l-0.313,1.217c-0.312-0.131-0.744-0.251-1.288-0.251c-1.217,0-2.162,0.734-2.162,2.243
	c0,1.358,0.804,2.213,2.173,2.213c0.462,0,0.976-0.101,1.277-0.221l0.231,1.197c-0.281,0.141-0.916,0.302-1.74,0.302
	c-2.345,0-3.551-1.469-3.551-3.4C14.206,2.374,15.855,1.086,17.907,1.086z M8.438,1.287c0.402-0.08,1.217-0.141,1.982-0.141
	c0.935,0,1.508,0.09,2.001,0.382c0.473,0.251,0.815,0.714,0.815,1.328c0,0.604-0.352,1.167-1.117,1.449v0.02
	c0.774,0.211,1.348,0.795,1.348,1.67c0,0.614-0.282,1.097-0.704,1.439c-0.493,0.392-1.316,0.613-2.665,0.613
	c-0.756,0-1.317-0.051-1.66-0.101V1.287z M3.414,1.196h2.012l2.102,6.781H5.878l-0.523-1.74h-1.94L2.93,7.977H1.341L3.414,1.196z
	 M26.573,27.186H1.161V9.123h25.412V27.186z"/>
<path fill="#C0C0C0" d="M2.045,10.005v16.296H25.69V10.005H2.045z M19.459,21.501c0,0.854-0.972,1.546-2.17,1.546
	c-1.199,0-2.17-0.691-2.17-1.546c0-0.855,0.971-1.548,2.17-1.548c0.574,0,1.095,0.16,1.482,0.42v-6.301l-7.381,1.208v7.322
	c0,0.854-0.971,1.547-2.17,1.547c-1.198,0-2.17-0.693-2.17-1.547c0-0.855,0.972-1.548,2.17-1.548c0.574,0,1.095,0.16,1.482,0.419
	v-7.767l8.756-1.36V21.501z"/>
</svg>
