<?xml version="1.0" encoding="utf-8"?>
<svg version="1.1" id="Layer_1" xmlns="http://www.w3.org/2000/svg" xmlns:xlink="http://www.w3.org/1999/xlink" x="0px" y="0px"
	 width="41.898px" height="28.347px" viewBox="0 0 41.898 28.347" enable-background="new 0 0 41.898 28.347" xml:space="preserve">
<linearGradient id="gradient" gradientUnits="userSpaceOnUse" x1="17.1387" y1="28.3467" x2="17.1387" y2="4.882813e-004">
	<stop  offset="0" style="stop-color:#404040"/>
	<stop  offset="1" style="stop-color:#A0A0A0"/>
</linearGradient>
<g>
	<path fill="#C0C0C0" d="M8.524,11.196L8.401,8.8C8.372,8.149,8.322,7.277,8.344,6.536H8.313c-0.123,0.73-0.306,1.574-0.437,2.102
		l-0.588,2.447H6.344L5.774,8.678C5.644,8.13,5.458,7.277,5.356,6.536h-0.03C5.307,7.277,5.266,8.14,5.226,8.82l-0.112,2.376H3.967
		l0.496-6.844h1.402L6.413,6.83c0.194,0.863,0.365,1.625,0.488,2.396h0.02C7.024,8.465,7.174,7.693,7.357,6.83l0.538-2.478h1.402
		l0.417,6.844H8.524z"/>
	<path fill="#C0C0C0" d="M16.285,11.277c-0.538,0-1.005-0.133-1.298-0.295l0.191-1.046c0.265,0.153,0.63,0.254,0.985,0.254
		c0.64,0,0.994-0.396,0.994-0.954c0-0.732-0.558-1.046-1.238-1.046h-0.185V7.216h0.133c0.49-0.01,1.118-0.213,1.118-0.853
		c0-0.478-0.305-0.762-0.773-0.762c-0.293,0-0.587,0.112-0.83,0.264L15.209,4.86c0.273-0.173,0.813-0.346,1.36-0.346
		c1.159,0,1.736,0.751,1.736,1.594c0,0.66-0.364,1.209-0.943,1.483v0.02c0.64,0.214,1.128,0.783,1.128,1.676
		C18.49,10.292,17.718,11.277,16.285,11.277z"/>
	<path fill="#C0C0C0" d="M13.939,4.85c-0.446-0.417-1.067-0.528-1.858-0.528c-0.51,0-1.015,0.051-1.392,0.132v6.742h1.331V8.647
		h0.264c0.548,0,1.238-0.204,1.665-0.65c0.355-0.386,0.579-0.904,0.579-1.645C14.528,5.774,14.345,5.205,13.939,4.85z M12.232,7.582
		c-0.081,0-0.151,0-0.212-0.021V5.449c0.079-0.03,0.202-0.05,0.324-0.05c0.619,0,0.863,0.467,0.863,1.065
		C13.208,7.104,12.904,7.582,12.232,7.582z"/>
</g>
<g>
	<path fill="#C0C0C0" d="M28.851,11.277h-1.29l-0.384-2.233c-0.104-0.64-0.199-1.422-0.286-2.254h-0.018
		c-0.115,0.823-0.221,1.584-0.354,2.254l-0.431,2.233h-1.242l-1.098-6.844h1.299l0.316,2.722c0.084,0.792,0.142,1.574,0.219,2.407
		h0.029c0.085-0.843,0.229-1.585,0.364-2.407l0.457-2.722h1.014l0.429,2.701c0.114,0.772,0.229,1.533,0.306,2.427h0.02
		c0.086-0.894,0.161-1.625,0.248-2.417l0.315-2.712h1.224L28.851,11.277z"/>
	<path fill="#C0C0C0" d="M36.999,11.277h-1.405l-1.442-6.844h1.385l0.458,2.955c0.115,0.732,0.25,1.575,0.334,2.376h0.021
		c0.084-0.812,0.189-1.634,0.305-2.406l0.439-2.925h1.376L36.999,11.277z"/>
	<path fill="#C0C0C0" d="M32.934,4.434h-1.5l-1.396,6.844h1.215l0.285-1.564h1.158l0.276,1.564h1.214L32.934,4.434z M31.663,8.678
		l0.239-1.421c0.067-0.396,0.163-1.107,0.229-1.563h0.028c0.058,0.457,0.145,1.136,0.211,1.553l0.21,1.432H31.663z"/>
</g>
<g>
	<path fill="#C0C0C0" d="M7.975,23.839H6.778l-0.354-2.234c-0.099-0.64-0.186-1.421-0.267-2.254H6.142
		c-0.106,0.822-0.205,1.584-0.329,2.254l-0.397,2.234h-1.15l-1.02-6.844h1.204l0.292,2.721c0.08,0.792,0.133,1.574,0.204,2.406
		h0.026c0.08-0.842,0.214-1.584,0.338-2.406l0.424-2.721h0.939l0.397,2.7c0.106,0.772,0.213,1.534,0.283,2.427h0.018
		c0.08-0.893,0.151-1.625,0.23-2.416l0.293-2.711h1.134L7.975,23.839z"/>
	<path fill="#C0C0C0" d="M13.412,23.839l-0.107-2.396c-0.025-0.65-0.071-1.523-0.054-2.265h-0.026
		c-0.104,0.731-0.265,1.574-0.38,2.103l-0.514,2.447h-0.823l-0.497-2.406c-0.115-0.549-0.274-1.402-0.363-2.144h-0.026
		c-0.018,0.741-0.053,1.604-0.089,2.285l-0.097,2.376H9.435l0.435-6.844h1.223l0.478,2.477c0.168,0.864,0.319,1.625,0.425,2.396
		h0.018c0.088-0.761,0.222-1.532,0.381-2.396l0.47-2.477h1.222l0.363,6.844H13.412z"/>
	<path fill="#C0C0C0" d="M17.538,16.995h-1.39l-1.294,6.844h1.124l0.267-1.563h1.071l0.257,1.563h1.125L17.538,16.995z
		 M16.36,21.239l0.223-1.422c0.061-0.396,0.148-1.106,0.211-1.564h0.026c0.053,0.458,0.133,1.139,0.195,1.555l0.194,1.432H16.36z"/>
</g>
<g>
	<path fill="#C0C0C0" d="M32.86,23.736c-0.294,0.122-0.923,0.245-1.421,0.245c-0.782,0-1.372-0.225-1.828-0.682
		c-0.59-0.568-0.903-1.584-0.883-2.762c0.029-2.488,1.451-3.523,2.903-3.523c0.519,0,0.905,0.102,1.116,0.203l-0.231,1.146
		c-0.193-0.09-0.446-0.151-0.783-0.151c-0.904,0-1.625,0.619-1.625,2.406c0,1.646,0.641,2.234,1.259,2.234
		c0.124,0,0.214-0.01,0.265-0.03v-1.656h-0.608v-1.086h1.837V23.736z"/>
	<path fill="#C0C0C0" d="M37.654,23.736c-0.294,0.122-0.925,0.245-1.421,0.245c-0.782,0-1.371-0.225-1.828-0.682
		c-0.589-0.568-0.904-1.584-0.884-2.762c0.03-2.488,1.452-3.523,2.904-3.523c0.518,0,0.903,0.102,1.115,0.203l-0.231,1.146
		c-0.193-0.09-0.448-0.151-0.783-0.151c-0.903,0-1.626,0.619-1.626,2.406c0,1.646,0.643,2.234,1.262,2.234
		c0.121,0,0.212-0.01,0.264-0.03v-1.656h-0.61v-1.086h1.839V23.736z"/>
	<path fill="#C0C0C0" d="M26.097,16.995c-1.513,0-2.255,1.615-2.255,3.482c0,1.879,0.611,3.523,2.164,3.523
		c1.3,0,2.213-1.046,2.213-3.625C28.219,18.812,27.751,16.995,26.097,16.995z M26.056,22.844c-0.538,0-0.833-0.792-0.833-2.347
		c0-1.472,0.295-2.345,0.823-2.345c0.6,0,0.782,1.085,0.782,2.284C26.828,21.827,26.615,22.844,26.056,22.844z"/>
</g>
<path fill="#808080" d="M37.006,0H4.894C2.194,0,0,2.195,0,4.893v18.562c0,2.697,2.194,4.893,4.894,4.893h32.112
	c2.698,0,4.893-2.195,4.893-4.893V4.893C41.898,2.195,39.704,0,37.006,0z M37.006,1.477c1.888,0,3.417,1.529,3.417,3.416v8.826
	H21.404V1.477H37.006z M4.894,1.477h15.601v12.242H1.477V4.893C1.477,3.006,3.006,1.477,4.894,1.477z M1.477,23.454v-8.825h19.018
	v12.242H4.894C3.006,26.871,1.477,25.341,1.477,23.454z M37.006,26.871H21.404V14.629h19.019v8.825
	C40.423,25.341,38.894,26.871,37.006,26.871z"/>
</svg>
