<?xml version="1.0" encoding="utf-8"?>
<!DOCTYPE svg PUBLIC "-//W3C//DTD SVG 1.1//EN" "http://www.w3.org/Graphics/SVG/1.1/DTD/svg11.dtd">
<svg version="1.1" id="Layer_1" xmlns="http://www.w3.org/2000/svg" xmlns:xlink="http://www.w3.org/1999/xlink" x="0px" y="0px"
	 width="152.443px" height="100px" viewBox="0 0 152.443 100" enable-background="new 0 0 152.443 100" xml:space="preserve">
<linearGradient id="gradient" gradientUnits="userSpaceOnUse" x1="17.1387" y1="100.0" x2="17.1387" y2="0.0">
	<stop offset="0" style="stop-color:#404040"/>
	<stop offset="1" style="stop-color:#A0A0A0"/>
</linearGradient>
<polygon fill="#C0C0C0" points="127.125,100 123.199,80.093 29.244,80.093 25.318,100 "/>
<path fill="#808080" d="M21.443,68.98h41.023c6.743-5.783,11.021-14.358,11.021-23.938c0-17.415-14.118-31.532-31.532-31.532
	S10.423,27.628,10.423,45.042C10.423,54.622,14.701,63.197,21.443,68.98z M41.955,33.509c6.357,0,11.532,5.175,11.532,11.532
	c0,6.36-5.175,11.535-11.532,11.535s-11.532-5.175-11.532-11.535C30.423,38.684,35.598,33.509,41.955,33.509z"/>
<path fill="#808080" d="M89.977,68.98H131c6.742-5.783,11.021-14.358,11.021-23.938c0-17.415-14.118-31.532-31.532-31.532
	S78.956,27.628,78.956,45.042C78.956,54.622,83.234,63.197,89.977,68.98z M110.488,33.509c6.357,0,11.532,5.175,11.532,11.532
	c0,6.36-5.175,11.535-11.532,11.535s-11.532-5.175-11.532-11.535C98.956,38.684,104.131,33.509,110.488,33.509z"/>
<path fill="#C0C0C0" d="M147.168,0H5.275C2.361,0,0,2.361,0,5.275v89.449C0,97.638,2.361,100,5.275,100h17.043l4.517-22.907h98.773
	L130.125,100h17.043c2.914,0,5.275-2.362,5.275-5.275V5.275C152.443,2.361,150.082,0,147.168,0z M148.021,71.292H4.373v-26.25
	c0-20.696,16.836-37.532,37.532-37.532c12.827,0,24.147,6.485,30.918,16.332h6.749C86.342,13.995,97.66,7.51,110.487,7.51
	c20.695,0,37.534,16.836,37.534,37.532V71.292z"/>
</svg>
