<?xml version="1.0" encoding="utf-8"?>
<svg version="1.1" id="Layer_1" xmlns="http://www.w3.org/2000/svg" xmlns:xlink="http://www.w3.org/1999/xlink" x="0px" y="0px"
	 width="28.346px" height="28.346px" viewBox="0 0 28.346 28.346" enable-background="new 0 0 28.346 28.346" xml:space="preserve">
<linearGradient id="gradient" gradientUnits="userSpaceOnUse" x1="17.1387" y1="28.3467" x2="17.1387" y2="4.882813e-004">
	<stop  offset="0" style="stop-color:#404040"/>
	<stop  offset="1" style="stop-color:#A0A0A0"/>
</linearGradient>
<path fill="#808080" d="M14.172,0C6.345,0,0,6.346,0,14.173C0,22,6.345,28.346,14.172,28.346C22,28.346,28.346,22,28.346,14.173
	C28.346,6.346,22,0,14.172,0z M14.172,25.494c-6.241,0-11.32-5.079-11.32-11.321c0-6.241,5.079-11.32,11.32-11.32
	s11.321,5.079,11.321,11.32C25.493,20.415,20.413,25.494,14.172,25.494z"/>
<circle fill="#C0C0C0" cx="14.173" cy="14.173" r="6.558"/>
</svg>
