<?xml version="1.0" encoding="utf-8"?>
<!DOCTYPE svg PUBLIC "-//W3C//DTD SVG 1.1//EN" "http://www.w3.org/Graphics/SVG/1.1/DTD/svg11.dtd">
<svg version="1.1" id="Layer_1" xmlns="http://www.w3.org/2000/svg" xmlns:xlink="http://www.w3.org/1999/xlink" x="0px" y="0px"
	 width="28.489px" height="28.489px" viewBox="0 0 28.489 28.489" enable-background="new 0 0 28.489 28.489" xml:space="preserve">
<linearGradient id="gradient" gradientUnits="userSpaceOnUse" x1="17.1387" y1="28.3467" x2="17.1387" y2="4.882813e-004">
	<stop offset="0" style="stop-color:#404040"/>
	<stop offset="1" style="stop-color:#A0A0A0"/>
</linearGradient>
<path fill="#C0C0C0" d="M0,0v24.194c1.429-0.858,2.76-1.339,3.767-1.323c-0.216-0.848-0.004-1.779,0.658-2.439
	c0.603-0.604,1.434-0.835,2.216-0.709c-2.934-3.951-2.619-9.558,0.966-13.142c3.943-3.943,10.336-3.944,14.28-0.001
	c3.944,3.945,3.943,10.338,0,14.281c-3.586,3.583-9.188,3.898-13.14,0.965c0.125,0.783-0.107,1.613-0.711,2.217
	c-0.662,0.662-1.595,0.875-2.439,0.658c0.015,1.012-0.472,2.352-1.338,3.788h24.23V0H0z"/>
<path fill="#808080" d="M20.167,8.301c-2.993-2.994-7.846-2.994-10.84,0c-2.993,2.992-2.992,7.846,0.001,10.839
	c2.995,2.994,7.846,2.994,10.839,0.002C23.16,16.148,23.161,11.295,20.167,8.301z M9.309,15.119v-2.796h10.877v2.796H9.309z"/>
</svg>
