<?xml version="1.0" encoding="utf-8"?>
<!DOCTYPE svg PUBLIC "-//W3C//DTD SVG 1.1//EN" "http://www.w3.org/Graphics/SVG/1.1/DTD/svg11.dtd">
<svg version="1.1" id="Layer_1" xmlns="http://www.w3.org/2000/svg" xmlns:xlink="http://www.w3.org/1999/xlink" x="0px" y="0px"
	 width="101.369px" height="100px" viewBox="0 0 101.369 100" enable-background="new 0 0 101.369 100" xml:space="preserve">
<linearGradient id="gradient" gradientUnits="userSpaceOnUse" x1="17.1387" y1="100" x2="17.1387" y2="0">
	<stop offset="0" style="stop-color:#404040"/>
	<stop offset="1" style="stop-color:#A0A0A0"/>
</linearGradient>
<polygon fill="#C0C0C0" points="0,55.544 0.686,44.342 9.14,43.998 7.769,55.766 "/>
<polygon fill="#C0C0C0" points="10.973,43.884 9.371,55.544 21.032,55.544 21.828,43.769 "/>
<polygon fill="#C0C0C0" points="23.885,43.769 23.086,56.112 35.426,55.544 36.226,43.884 "/>
<polygon fill="#C0C0C0" points="38.059,44.227 50.281,44.113 50.516,55.544 37.831,55.652 "/>
<polygon fill="#C0C0C0" points="52.342,55.652 52.114,43.769 64.341,43.655 64.458,55.766 "/>
<polygon fill="#C0C0C0" points="66.625,55.425 66.397,44.456 75.101,44.456 75.676,55.766 "/>
<polygon fill="#808080" points="77.608,55.544 77.157,44.798 91.086,44.798 92.46,55.54 "/>
<polygon fill="#808080" points="94.631,55.544 93.373,44.227 100.915,44.342 101.369,55.652 "/>
<polygon fill="#C0C0C0" points="1.03,42.055 4.458,29.941 14.173,30.172 11.965,42.03 "/>
<polygon fill="#C0C0C0" points="16.867,30.493 14.332,42.03 26.166,41.827 27.771,30.055 "/>
<polygon fill="#C0C0C0" points="30.279,29.941 29.028,42.168 41.369,42.399 41.831,30.17 "/>
<polygon fill="#C0C0C0" points="45.83,30.169 57.596,30.398 58.626,41.942 44.801,42.168 "/>
<polygon fill="#C0C0C0" points="61.713,42.168 60.803,30.625 72.92,30.741 73.599,42.168 "/>
<polygon fill="#808080" points="76.116,42.397 75.311,30.741 86.06,31.083 88.229,42.397 "/>
<polygon fill="#808080" points="90.972,42.168 88.798,30.97 98.403,31.313 101.139,41.942 "/>
<polygon fill="#C0C0C0" points="5.829,27.768 12.344,19.083 23.093,18.855 20.112,27.654 "/>
<polygon fill="#C0C0C0" points="25.37,18.627 22.628,27.769 34.972,27.883 36.456,19.083 "/>
<polygon fill="#C0C0C0" points="38.63,18.969 37.256,27.883 51.426,27.999 52.004,19.201 "/>
<polygon fill="#C0C0C0" points="53.94,19.083 65.603,19.542 66.625,28.457 53.94,28.341 "/>
<polygon fill="#808080" points="68.686,28.341 67.886,19.542 78.174,20.111 80.571,28.228 "/>
<polygon fill="#808080" points="83.541,28.457 80.799,19.999 90.972,20.111 96.801,29.256 "/>
<polygon fill="#C0C0C0" points="13.602,17.025 21.036,10.17 30.972,10.397 28.574,17.372 "/>
<polygon fill="#C0C0C0" points="33.828,10.514 31.089,16.914 44.456,17.255 45.713,10.397 "/>
<polygon fill="#C0C0C0" points="48.229,10.626 46.743,17.143 61.145,17.485 60,10.626 "/>
<polygon fill="#808080" points="62.288,10.971 72.458,11.2 74.397,17.601 63.542,17.485 "/>
<polygon fill="#808080" points="74.855,11.2 84.457,11.313 89.26,17.372 76.685,17.601 "/>
<polygon fill="#C0C0C0" points="24.688,8.456 31.427,3.769 41.486,3.998 38.63,8.685 "/>
<polygon fill="#C0C0C0" points="43.888,4.225 40.918,8.569 53.262,8.456 53.031,4.342 "/>
<polygon fill="#C0C0C0" points="41.369,0.227 34.747,2.625 47.429,2.854 47.539,0 "/>
<polygon fill="#808080" points="50.058,0.227 49.6,2.971 57.716,2.74 56.917,0.112 "/>
<polygon fill="#808080" points="58.746,0.227 59.776,2.74 68.003,3.085 62.057,0.456 "/>
<polygon fill="#808080" points="54.856,4.225 55.77,8.456 67.314,8.569 64.458,4.682 "/>
<polygon fill="#808080" points="66.977,4.913 68.909,8.456 78.969,8.797 72.686,5.142 "/>
<polygon fill="#808080" points="100.688,58.054 97.377,70.059 87.995,70.01 90.524,58.151 "/>
<polygon fill="#808080" points="85.467,69.693 87.844,58.151 75.662,58.169 74.057,69.944 "/>
<polygon fill="#C0C0C0" points="71.545,70.059 72.803,57.826 60.466,57.601 60.004,69.827 "/>
<polygon fill="#C0C0C0" points="56.004,69.831 44.235,69.604 43.205,58.054 57.034,57.83 "/>
<polygon fill="#C0C0C0" points="40.118,57.83 41.031,69.373 28.911,69.259 28.229,57.83 "/>
<polygon fill="#C0C0C0" points="25.718,57.601 26.518,69.259 15.771,68.911 13.602,57.601 "/>
<polygon fill="#C0C0C0" points="10.859,57.83 13.029,69.028 3.428,68.684 0.686,58.054 "/>
<polygon fill="#808080" points="96.002,72.229 89.487,80.914 78.742,81.142 81.719,72.346 "/>
<polygon fill="#808080" points="76.458,81.372 79.203,72.226 66.859,72.115 65.368,80.914 "/>
<polygon fill="#C0C0C0" points="63.204,81.027 64.575,72.115 50.398,72.005 49.834,80.797 "/>
<polygon fill="#C0C0C0" points="47.887,80.914 36.226,80.452 35.202,71.54 47.887,71.657 "/>
<polygon fill="#C0C0C0" points="33.146,71.657 33.944,80.452 23.661,79.887 21.257,71.771 "/>
<polygon fill="#C0C0C0" points="18.29,71.54 21.036,80.001 10.859,79.887 5.033,70.74 "/>
<polygon fill="#808080" points="88.229,82.967 80.799,89.826 70.859,89.599 73.261,82.63 "/>
<polygon fill="#808080" points="68.003,89.485 70.746,83.084 57.379,82.739 56.117,89.599 "/>
<polygon fill="#C0C0C0" points="53.603,89.368 55.088,82.854 40.69,82.509 41.831,89.368 "/>
<polygon fill="#C0C0C0" points="39.547,89.023 29.373,88.803 27.43,82.405 38.285,82.509 "/>
<polygon fill="#C0C0C0" points="26.976,88.803 17.374,88.683 12.571,82.63 25.149,82.405 "/>
<polygon fill="#808080" points="77.144,91.542 70.404,96.228 60.342,96 63.204,91.312 "/>
<polygon fill="#808080" points="57.947,95.77 60.917,91.425 48.573,91.542 48.804,95.659 "/>
<polygon fill="#808080" points="60.466,99.772 67.091,97.378 54.402,97.141 54.295,100 "/>
<polygon fill="#808080" points="51.776,99.772 52.231,97.033 44.115,97.254 44.914,99.883 "/>
<polygon fill="#C0C0C0" points="43.088,99.772 42.062,97.254 33.831,96.913 39.774,99.542 "/>
<polygon fill="#C0C0C0" points="46.975,95.77 46.062,91.542 34.517,91.425 37.376,95.321 "/>
<polygon fill="#C0C0C0" points="34.857,95.084 32.918,91.542 22.858,91.208 29.146,94.853 "/>
</svg>
