<?xml version="1.0" encoding="utf-8"?>
<!DOCTYPE svg PUBLIC "-//W3C//DTD SVG 1.1//EN" "http://www.w3.org/Graphics/SVG/1.1/DTD/svg11.dtd">
<svg version="1.1" id="Layer_1" xmlns="http://www.w3.org/2000/svg" xmlns:xlink="http://www.w3.org/1999/xlink" x="0px" y="0px"
	 width="60.051px" height="62.302px" viewBox="0 0 60.051 62.302" enable-background="new 0 0 60.051 62.302" xml:space="preserve">
<linearGradient id="gradient" gradientUnits="userSpaceOnUse" x1="17.1387" y1="62.302" x2="17.1387" y2="0">
	<stop  offset="0" style="stop-color:#404040"/>
	<stop  offset="1" style="stop-color:#A0A0A0"/>
</linearGradient>
<polygon fill="#808080" points="0,60.394 23.414,36.978 25.324,38.888 1.908,62.302 0,60.394 "/>
<path fill="#C0C0C0" d="M15.637,22.206C15.637,9.941,25.579,0,37.843,0l0,0c12.265,0,22.206,9.941,22.208,22.206l0,0
	C60.049,34.47,50.11,44.412,37.843,44.414l0,0C25.577,44.412,15.637,34.47,15.637,22.206L15.637,22.206z M18.336,22.206
	c0.021,10.772,8.734,19.489,19.507,19.507l0,0c10.773-0.019,19.489-8.735,19.508-19.507l0,0
	C57.333,11.432,48.617,2.719,37.843,2.699l0,0C27.07,2.719,18.356,11.432,18.336,22.206L18.336,22.206z"/>
<path fill="#C0C0C0" d="M29.561,32.74l-0.001-0.002l-0.001,0.002H29.561z M37.843,9.125L27.123,31.576l2.438,1.162l2.285-4.785
	h11.996l2.285,4.787l2.438-1.164L37.843,9.125z M33.133,25.253l4.71-9.865l4.71,9.865H33.133z"/>
</svg>
