<?xml version="1.0" encoding="utf-8"?>
<!DOCTYPE svg PUBLIC "-//W3C//DTD SVG 1.1//EN" "http://www.w3.org/Graphics/SVG/1.1/DTD/svg11.dtd">
<svg version="1.1" id="Layer_1" xmlns="http://www.w3.org/2000/svg" xmlns:xlink="http://www.w3.org/1999/xlink" x="0px" y="0px"
	 width="30.41px" height="31.538px" viewBox="0 0 30.41 31.538" enable-background="new 0 0 30.41 31.538" xml:space="preserve">
<linearGradient id="gradient" gradientUnits="userSpaceOnUse" x1="17.1387" y1="31.538" x2="17.1387" y2="0">
	<stop  offset="0" style="stop-color:#404040"/>
	<stop  offset="1" style="stop-color:#A0A0A0"/>
</linearGradient>
<path fill="#C0C0C0" d="M7.752,11.33C7.752,5.073,12.825,0,19.082,0l0,0C25.338,0,30.41,5.073,30.41,11.33l0,0
	c-0.002,6.255-5.072,11.328-11.328,11.328l0,0C12.825,22.658,7.754,17.585,7.752,11.33L7.752,11.33z M9.552,11.33
	c0.01,5.261,4.268,9.518,9.53,9.528l0,0c5.261-0.011,9.518-4.268,9.528-9.528l0,0c-0.011-5.262-4.268-9.52-9.528-9.53l0,0
	C13.82,1.811,9.563,6.068,9.552,11.33L9.552,11.33z"/>
<path fill="#C0C0C0" d="M23.02,16.694l1.626-0.776L19.08,4.269l-5.561,11.649l1.624,0.776l1.082-2.267h5.713L23.02,16.694z
	 M17.084,12.627l1.996-4.185l1.998,4.185H17.084z"/>
<path fill="#808080" d="M11.001,19.263L0,30.264l1.272,1.274L12.37,20.44C11.884,20.082,11.423,19.692,11.001,19.263z"/>
</svg>
