<?xml version="1.0" encoding="utf-8"?>
<!DOCTYPE svg PUBLIC "-//W3C//DTD SVG 1.1//EN" "http://www.w3.org/Graphics/SVG/1.1/DTD/svg11.dtd">
<svg version="1.1" id="Layer_1" xmlns="http://www.w3.org/2000/svg" xmlns:xlink="http://www.w3.org/1999/xlink" x="0px" y="0px"
	 width="29.688px" height="31.799px" viewBox="0 0 29.688 31.799" enable-background="new 0 0 29.688 31.799" xml:space="preserve">
<linearGradient id="gradient" gradientUnits="userSpaceOnUse" x1="17.1387" y1="31.799" x2="17.1387" y2="0">
	<stop  offset="0" style="stop-color:#404040"/>
	<stop  offset="1" style="stop-color:#A0A0A0"/>
</linearGradient>
<path fill="#C0C0C0" d="M7.021,23.048c-0.678-0.849-1.012-2-1.012-3.337l0,0v-7.639c0-1.339,0.333-2.489,1.012-3.339l0,0
	c0.673-0.854,1.712-1.334,2.817-1.326l0,0c0.905,0.002,1.85,0.292,2.797,0.837l0,0l6.616,3.819c1.624,0.928,2.626,2.302,2.628,3.828
	l0,0c-0.002,1.524-1.002,2.897-2.628,3.825l0,0l-6.619,3.822c-0.946,0.543-1.889,0.833-2.794,0.836l0,0c-0.009,0-0.019,0-0.028,0
	l0,0C8.717,24.375,7.689,23.895,7.021,23.048L7.021,23.048z M9.839,9.208c-1.17,0.039-1.957,0.747-2.031,2.864l0,0v7.639
	c0.074,2.113,0.862,2.824,2.031,2.862l0,0c0.511,0,1.16-0.171,1.895-0.595l0,0l6.618-3.82c1.279-0.747,1.731-1.583,1.729-2.267l0,0
	c0.002-0.686-0.45-1.521-1.729-2.267l0,0l-6.618-3.819c-0.73-0.424-1.376-0.597-1.886-0.597l0,0
	C9.845,9.208,9.842,9.208,9.839,9.208L9.839,9.208z"/>
<path fill="#808080" d="M25.741,9.05L14.773,2.711L11.811,1.03C10.658,0.374,9.325,0,7.913,0C3.556,0.002,0.016,3.538,0.016,7.895
	L0,23.551h0.012c-0.006,0.121-0.008,0.242-0.008,0.363c0,1.34,0.342,2.701,1.059,3.94c1.459,2.528,4.119,3.946,6.848,3.944
	c1.339,0,2.699-0.34,3.937-1.057l13.089-7.599l-0.006-0.011c1.504-0.649,2.821-1.77,3.703-3.295c0.713-1.24,1.055-2.6,1.055-3.938
	C29.688,13.173,28.271,10.513,25.741,9.05z M27.073,18.938c-1.126,1.952-3.183,3.044-5.293,3.046c-1.036,0-2.08-0.264-3.036-0.814
	c-0.172-0.088-0.487-0.377-0.808-0.693l-1.609,0.93c0.418,0.439,0.959,0.985,1.517,1.322c0.832,0.48,1.72,0.793,2.619,0.945
	l-4.627,2.705l-4.885,2.803c-0.963,0.556-2.006,0.816-3.041,0.816c-2.112,0-4.166-1.094-5.289-3.044
	c-0.556-0.962-0.816-2.006-0.816-3.04c0-2.111,1.092-4.164,3.048-5.288c0.165-0.106,0.657-0.275,1.157-0.429v-1.875
	c-0.648,0.178-1.495,0.433-2.058,0.744c-0.845,0.486-1.566,1.107-2.151,1.82v-5.348l0.014-5.642c0.006-3.361,2.738-6.09,6.099-6.096
	c1.069,0,2.073,0.275,2.949,0.761l0.054,0.031v0l0.174,0.102c1.746,1.064,2.92,2.995,2.92,5.2c0.004,0.24-0.036,0.666-0.091,1.09
	l1.673,0.966c0.121-0.671,0.211-1.478,0.218-2.056c-0.001-0.982-0.181-1.923-0.511-2.791l4.664,2.673l4.876,2.83
	c1.956,1.128,3.048,3.182,3.048,5.292C27.887,16.934,27.626,17.979,27.073,18.938z"/>
</svg>
