<?xml version="1.0" encoding="utf-8"?>
<!DOCTYPE svg PUBLIC "-//W3C//DTD SVG 1.1//EN" "http://www.w3.org/Graphics/SVG/1.1/DTD/svg11.dtd">
<svg version="1.1" id="Layer_1" xmlns="http://www.w3.org/2000/svg" xmlns:xlink="http://www.w3.org/1999/xlink" x="0px" y="0px"
	 width="59.375px" height="63.598px" viewBox="0 0 59.375 63.598" enable-background="new 0 0 59.375 63.598" xml:space="preserve">
<linearGradient id="gradient" gradientUnits="userSpaceOnUse" x1="17.1387" y1="63.598" x2="17.1387" y2="0">
	<stop  offset="0" style="stop-color:#404040"/>
	<stop  offset="1" style="stop-color:#A0A0A0"/>
</linearGradient>
<path fill="#C0C0C0" d="M14.043,46.095c-1.355-1.695-2.024-4-2.024-6.674l0,0V24.145c0-2.678,0.665-4.978,2.024-6.678l0,0
	c1.347-1.708,3.425-2.669,5.635-2.652l0,0c1.811,0.004,3.7,0.583,5.594,1.675l0,0l13.231,7.639c3.249,1.856,5.253,4.604,5.257,7.655
	l0,0c-0.004,3.049-2.004,5.795-5.257,7.652l0,0l-13.236,7.643c-1.893,1.088-3.778,1.666-5.589,1.672l0,0c-0.019,0-0.037,0-0.056,0
	l0,0C17.434,48.75,15.379,47.791,14.043,46.095L14.043,46.095z M19.678,18.416c-2.341,0.078-3.914,1.494-4.062,5.729l0,0v15.277
	c0.147,4.227,1.725,5.648,4.062,5.725l0,0c1.022,0,2.32-0.34,3.79-1.189l0,0l13.236-7.639c2.559-1.496,3.462-3.166,3.458-4.535l0,0
	c0.004-1.371-0.899-3.042-3.458-4.534l0,0L23.468,19.61c-1.461-0.849-2.752-1.194-3.772-1.194l0,0
	C19.689,18.416,19.684,18.416,19.678,18.416L19.678,18.416z"/>
<path fill="#808080" d="M51.482,18.1L29.547,5.422L23.621,2.06C21.316,0.748,18.65,0,15.826,0C7.111,0.004,0.031,7.075,0.031,15.79
	L0,47.101h0.023c-0.012,0.242-0.016,0.484-0.016,0.727c0,2.682,0.684,5.402,2.117,7.881c2.918,5.057,8.238,7.893,13.695,7.889
	c2.678,0,5.398-0.678,7.873-2.113l26.178-15.197l-0.012-0.021c3.008-1.299,5.643-3.539,7.406-6.588
	c1.426-2.482,2.109-5.201,2.109-7.877C59.375,26.346,56.543,21.026,51.482,18.1z M54.146,37.876
	c-2.252,3.904-6.365,6.088-10.586,6.092c-2.072,0-4.16-0.525-6.072-1.627c-0.344-0.178-0.975-0.756-1.615-1.389l-3.219,1.859
	c0.836,0.879,1.918,1.971,3.033,2.645c1.664,0.963,3.439,1.586,5.238,1.891l-9.254,5.41l-9.77,5.607
	c-1.926,1.109-4.012,1.631-6.082,1.631c-4.225,0-8.332-2.186-10.578-6.088c-1.111-1.924-1.633-4.012-1.633-6.08
	c0-4.221,2.184-8.328,6.096-10.576c0.33-0.213,1.314-0.551,2.314-0.855v-3.752c-1.297,0.357-2.99,0.865-4.115,1.488
	c-1.689,0.973-3.133,2.215-4.303,3.641V27.077l0.027-11.283C3.641,9.072,9.105,3.613,15.826,3.602c2.139,0,4.146,0.551,5.898,1.522
	l0.107,0.062v0.001L22.18,5.39c3.492,2.129,5.84,5.989,5.84,10.4c0.008,0.48-0.072,1.332-0.182,2.181l3.346,1.932
	c0.242-1.342,0.422-2.955,0.436-4.112c-0.002-1.964-0.361-3.846-1.021-5.581l9.328,5.347l9.752,5.66
	c3.912,2.257,6.096,6.363,6.096,10.584C55.773,33.869,55.252,35.957,54.146,37.876z"/>
</svg>
