<?xml version="1.0" encoding="utf-8"?>
<!DOCTYPE svg PUBLIC "-//W3C//DTD SVG 1.1//EN" "http://www.w3.org/Graphics/SVG/1.1/DTD/svg11.dtd">
<svg version="1.1" id="Layer_1" xmlns="http://www.w3.org/2000/svg" xmlns:xlink="http://www.w3.org/1999/xlink" x="0px" y="0px"
	 width="84.238px" height="83.002px" viewBox="0 0 84.238 83.002" enable-background="new 0 0 84.238 83.002" xml:space="preserve">
<linearGradient id="gradient" gradientUnits="userSpaceOnUse" x1="17.1387" y1="83.002" x2="17.1387" y2="0">
	<stop  offset="0" style="stop-color:#404040"/>
	<stop  offset="1" style="stop-color:#A0A0A0"/>
</linearGradient>
<path fill="#808080" d="M68.642,70.897c8.376-7.75,12.593-18.234,12.597-28.77l0,0c-0.004-9.486-3.428-18.988-10.337-26.526l0,0
	C63.146,7.222,52.662,3.005,42.128,3.001l0,0c-9.486,0-18.988,3.424-26.534,10.345l0,0C7.226,21.019,3.005,31.508,3.001,42.057l0,0
	C3.005,51.565,6.429,61.096,13.395,68.7l0,0c0.567,0.686,1.356,1.352,2.248,2.24l0,0l-2.125,2.119
	c-0.76-0.768-1.619-1.475-2.384-2.387l0,0C3.695,62.555,0,52.284,0,42.057l0,0c0-11.342,4.554-22.662,13.567-30.922l0,0
	C21.677,3.695,31.923,0,42.128,0l0,0c11.331,0,22.642,4.555,30.98,13.567l0,0c7.436,8.109,11.13,18.355,11.13,28.56l0,0
	c0,11.328-4.554,22.643-13.559,30.973l0,0L68.642,70.897L68.642,70.897z"/>
<path fill="#808080" d="M60.922,62.506c5.788-5.451,8.696-12.77,8.696-20.115l0,0c0-6.746-2.453-13.487-7.391-18.802l0,0
	c-5.377-5.783-12.697-8.692-20.063-8.696l0,0c-6.766,0.004-13.54,2.452-18.852,7.395l0,0c-5.824,5.414-8.766,12.751-8.771,20.124
	l0,0c0.005,6.684,2.424,13.371,7.296,18.617l0,0c0.514,0.527,0.879,0.99,1.216,1.232l0,0l-1.799,2.4
	c-0.765-0.58-1.229-1.217-1.577-1.553l0,0c-5.443-5.855-8.134-13.295-8.134-20.697l0,0c0-8.166,3.273-16.324,9.728-22.317l0,0
	c5.887-5.48,13.408-8.2,20.893-8.2l0,0c8.149,0,16.292,3.233,22.261,9.649l0,0c5.468,5.887,8.195,13.38,8.195,20.848l0,0
	c0,8.133-3.233,16.268-9.646,22.301l0,0v0.006L60.922,62.506L60.922,62.506z"/>
<path fill="#808080" d="M55.149,55.858l0.004,0.004L55.149,55.858L55.149,55.858z M53.051,53.719
	c3.235-3.174,4.87-7.361,4.87-11.561l0,0c-0.005-3.996-1.479-7.982-4.488-11.115l0,0c-3.157-3.284-7.304-4.914-11.479-4.914l0,0
	c-4.015,0-8.03,1.506-11.188,4.545l0,0c-3.28,3.152-4.91,7.295-4.91,11.47l0,0c0,4.012,1.503,8.031,4.536,11.184l0,0
	c0.115,0.119,0.251,0.252,0.407,0.412l0,0l-2.144,2.098c-0.119-0.123-0.259-0.26-0.419-0.424l0,0
	c-3.584-3.723-5.382-8.506-5.382-13.27l0,0c0-4.955,1.954-9.911,5.834-13.634l0,0c3.72-3.584,8.503-5.383,13.265-5.383l0,0
	c4.956,0,9.911,1.954,13.64,5.834l0,0c3.563,3.704,5.329,8.462,5.329,13.197l0,0c0,4.975-1.95,9.951-5.772,13.699l0,0L53.051,53.719
	L53.051,53.719z"/>
<path fill="#C0C0C0" d="M17.608,82.999c-0.749-0.027-1.37-0.25-2.02-0.85l0,0c-0.634-0.627-0.983-1.48-0.979-2.303l0,0
	c0-0.744,0.267-1.465,0.777-2.098l0,0l24.305-27.336L39.91,50.2c0.638-0.535,1.431-0.855,2.266-0.855l0,0
	c0.913-0.014,1.854,0.418,2.447,1.146l0,0l23.948,27.254c0.591,0.635,0.788,1.395,0.796,2.105l0,0
	c-0.036,1.875-1.525,3.141-3.153,3.152l0,0L17.608,82.999L17.608,82.999z M66.214,80.002c0.024,0,0.151-0.104,0.151-0.152l0,0
	c0-0.045-0.008-0.086-0.012-0.1l0,0l0.147-0.053l-0.106,0.111l1.061-1.061l-1.127,0.986L42.345,52.444
	c-0.103-0.111-0.107-0.09-0.169-0.102l0,0c-0.058,0-0.181,0.023-0.242,0.068l0,0l-0.07,0.066L17.678,79.686
	c-0.058,0.074-0.065,0.127-0.065,0.16l0,0c0.004,0.037-0.003,0.064,0.076,0.156l0,0H66.214L66.214,80.002z"/>
</svg>
