<?xml version="1.0" encoding="utf-8"?>
<!DOCTYPE svg PUBLIC "-//W3C//DTD SVG 1.1//EN" "http://www.w3.org/Graphics/SVG/1.1/DTD/svg11.dtd">
<svg version="1.1" id="Layer_1" xmlns="http://www.w3.org/2000/svg" xmlns:xlink="http://www.w3.org/1999/xlink" x="0px" y="0px"
	 width="42.119px" height="41.501px" viewBox="0 0 42.119 41.501" enable-background="new 0 0 42.119 41.501" xml:space="preserve">
<linearGradient id="gradient" gradientUnits="userSpaceOnUse" x1="17.1387" y1="41.501" x2="17.1387" y2="0">
	<stop  offset="0" style="stop-color:#404040"/>
	<stop  offset="1" style="stop-color:#A0A0A0"/>
</linearGradient>
<path fill="#808080" d="M34.321,35.449c4.188-3.876,6.296-9.118,6.298-14.385l0,0c-0.002-4.743-1.714-9.494-5.169-13.263l0,0
	c-3.877-4.19-9.119-6.298-14.386-6.3l0,0c-4.743,0-9.494,1.712-13.267,5.172l0,0C3.613,10.509,1.502,15.754,1.5,21.029l0,0
	c0.002,4.753,1.714,9.519,5.197,13.321l0,0c0.284,0.343,0.678,0.676,1.124,1.119l0,0L6.759,36.53
	c-0.38-0.385-0.81-0.738-1.192-1.193l0,0C1.848,31.278,0,26.141,0,21.029l0,0C0,15.357,2.277,9.698,6.784,5.567l0,0
	C10.838,1.848,15.961,0,21.064,0l0,0c5.666,0,11.321,2.277,15.49,6.784l0,0c3.719,4.055,5.565,9.178,5.565,14.28l0,0
	c0,5.663-2.276,11.321-6.779,15.486l0,0L34.321,35.449L34.321,35.449z"/>
<path fill="#808080" d="M30.461,31.253c2.894-2.726,4.349-6.386,4.349-10.058l0,0c0-3.373-1.227-6.743-3.695-9.401l0,0
	c-2.689-2.892-6.35-4.346-10.032-4.348l0,0c-3.383,0.002-6.77,1.226-9.426,3.697l0,0c-2.912,2.707-4.383,6.375-4.385,10.062l0,0
	c0.002,3.342,1.212,6.686,3.648,9.309l0,0c0.257,0.264,0.439,0.495,0.608,0.616l0,0l-0.899,1.2c-0.382-0.29-0.614-0.608-0.789-0.777
	l0,0c-2.722-2.927-4.067-6.646-4.067-10.348l0,0c0-4.083,1.637-8.162,4.864-11.159l0,0c2.943-2.74,6.704-4.1,10.446-4.1l0,0
	c4.075,0,8.146,1.617,11.13,4.825l0,0c2.733,2.943,4.098,6.69,4.098,10.424l0,0c0,4.067-1.616,8.133-4.823,11.151l0,0v0.002
	L30.461,31.253L30.461,31.253z"/>
<path fill="#808080" d="M27.575,27.929l0.002,0.002L27.575,27.929L27.575,27.929z M26.525,26.86
	c1.618-1.587,2.435-3.681,2.435-5.781l0,0c-0.002-1.998-0.738-3.991-2.244-5.557l0,0c-1.578-1.642-3.651-2.457-5.739-2.457l0,0
	c-2.007,0-4.015,0.753-5.594,2.272l0,0c-1.64,1.576-2.455,3.647-2.455,5.735l0,0c0,2.006,0.751,4.016,2.268,5.592l0,0
	c0.058,0.06,0.125,0.125,0.204,0.205l0,0l-1.072,1.049c-0.06-0.061-0.129-0.129-0.209-0.211l0,0
	c-1.792-1.861-2.691-4.254-2.691-6.635l0,0c0-2.478,0.977-4.956,2.917-6.817l0,0c1.86-1.792,4.251-2.691,6.632-2.691l0,0
	c2.478,0,4.956,0.977,6.819,2.917l0,0c1.782,1.852,2.665,4.231,2.665,6.598l0,0c0,2.488-0.976,4.976-2.886,6.85l0,0L26.525,26.86
	L26.525,26.86z"/>
<path fill="#C0C0C0" d="M8.804,41.5c-0.375-0.014-0.685-0.125-1.01-0.425l0,0c-0.317-0.313-0.492-0.74-0.489-1.152l0,0
	c0-0.371,0.133-0.731,0.389-1.048l0,0l12.152-13.668l0.109-0.106c0.319-0.268,0.715-0.428,1.133-0.428l0,0
	c0.456-0.007,0.927,0.209,1.224,0.573l0,0l11.975,13.627c0.295,0.317,0.394,0.697,0.397,1.053l0,0
	c-0.019,0.938-0.763,1.57-1.577,1.576l0,0L8.804,41.5L8.804,41.5z M33.106,40c0.013,0,0.076-0.051,0.076-0.075l0,0
	c0-0.022-0.004-0.044-0.006-0.05l0,0l0.074-0.026l-0.054,0.056l0.53-0.531l-0.563,0.494L21.172,26.222
	c-0.051-0.056-0.054-0.045-0.084-0.052l0,0c-0.029,0-0.09,0.013-0.121,0.035l0,0l-0.035,0.033L8.839,39.842
	c-0.029,0.037-0.033,0.064-0.033,0.08l0,0c0.002,0.02-0.001,0.033,0.038,0.078l0,0H33.106L33.106,40z"/>
</svg>
