<?xml version="1.0" encoding="utf-8"?>
<!DOCTYPE svg PUBLIC "-//W3C//DTD SVG 1.1//EN" "http://www.w3.org/Graphics/SVG/1.1/DTD/svg11.dtd">
<svg version="1.1" id="Layer_1" xmlns="http://www.w3.org/2000/svg" xmlns:xlink="http://www.w3.org/1999/xlink" x="0px" y="0px"
	 width="91.297px" height="63.599px" viewBox="0 0 91.297 63.599" enable-background="new 0 0 91.297 63.599" xml:space="preserve">
<linearGradient id="gradient" gradientUnits="userSpaceOnUse" x1="17.1387" y1="63.599" x2="17.1387" y2="0">
	<stop  offset="0" style="stop-color:#404040"/>
	<stop  offset="1" style="stop-color:#A0A0A0"/>
</linearGradient>
<g>
	<path fill="#C0C0C0" d="M0,63.599V0h63.602v63.599H0L0,63.599z M3.6,60h56.398V3.602H3.6V60L3.6,60z"/>
</g>
<path fill="#808080" d="M72.561,31.799c0-5.373-3.865-9.809-8.959-10.775v3.693c3.09,0.893,5.361,3.707,5.361,7.082
	c0,3.375-2.271,6.195-5.361,7.083v3.693C68.697,41.609,72.561,37.173,72.561,31.799z M63.602,2.164v3.604
	c13.477,1.047,24.096,12.283,24.096,26.031c0,13.75-10.619,24.99-24.096,26.033v3.604c15.469-1.061,27.695-13.898,27.695-29.636
	C91.297,16.063,79.07,3.223,63.602,2.164z"/>
<path fill="#C0C0C0" d="M29.625,11.051v26.365c-0.877-0.439-1.852-0.711-2.9-0.711c-3.594,0-6.502,2.914-6.506,6.508
	c0.004,3.588,2.912,6.498,6.506,6.502c3.594,0,6.5-2.914,6.5-6.502c0-0.002,0-0.002,0-0.004l0,0V20.33l7.029,7.707l2.662-2.424
	L29.625,11.051z M26.725,46.113c-1.605-0.004-2.9-1.305-2.904-2.9c0.004-1.607,1.299-2.906,2.904-2.91
	c1.602,0.004,2.896,1.303,2.9,2.91C29.621,44.814,28.326,46.109,26.725,46.113z"/>
</svg>
