<?xml version="1.0" encoding="utf-8"?>
<!DOCTYPE svg PUBLIC "-//W3C//DTD SVG 1.1//EN" "http://www.w3.org/Graphics/SVG/1.1/DTD/svg11.dtd">
<svg version="1.1" id="Layer_1" xmlns="http://www.w3.org/2000/svg" xmlns:xlink="http://www.w3.org/1999/xlink" x="0px" y="0px"
	 width="120.174px" height="83.166px" viewBox="0 0 120.174 83.166" enable-background="new 0 0 120.174 83.166"
	 xml:space="preserve">
<linearGradient id="gradient" gradientUnits="userSpaceOnUse" x1="17.1387" y1="83.166" x2="17.1387" y2="0">
	<stop  offset="0" style="stop-color:#404040"/>
	<stop  offset="1" style="stop-color:#A0A0A0"/>
</linearGradient>
<path fill="#808080" d="M81.655,77.412c19.646-0.169,35.52-16.143,35.518-35.829l0,0c0.002-19.687-15.872-35.661-35.518-35.832l0,0
	l0.026-3.001c21.291,0.187,38.49,17.497,38.492,38.833l0,0c-0.002,21.336-17.201,38.644-38.492,38.83l0,0L81.655,77.412
	L81.655,77.412z M81.629,52.369c5.83-0.154,10.514-4.924,10.512-10.786l0,0c0.002-5.866-4.682-10.631-10.512-10.789l0,0l0.08-2.999
	c7.449,0.202,13.43,6.288,13.432,13.788l0,0c-0.002,7.497-5.98,13.584-13.432,13.785l0,0L81.629,52.369L81.629,52.369z"/>
<g>
	<path fill="#C0C0C0" d="M0,83.166V1.5V0h83.168v83.166H0L0,83.166z M3,80.165l77.168,0.002V3H3V80.165L3,80.165z"/>
</g>
<path fill="#C0C0C0" d="M39.584,16.185V50.69c-1.32-1.03-2.977-1.651-4.783-1.651c-4.302,0.002-7.784,3.486-7.786,7.785
	c0.002,4.301,3.484,7.787,7.786,7.789c4.304-0.002,7.784-3.491,7.784-7.789c0-0.01-0.001-0.019-0.001-0.028V23.925l10.962,12.02
	l2.218-2.021L39.584,16.185z M34.801,61.611c-2.643-0.004-4.781-2.145-4.785-4.787c0.004-2.641,2.143-4.781,4.785-4.785
	c2.646,0.004,4.779,2.143,4.783,4.785C39.58,59.468,37.447,61.607,34.801,61.611z"/>
</svg>
