<?xml version="1.0" encoding="utf-8"?>
<!DOCTYPE svg PUBLIC "-//W3C//DTD SVG 1.1//EN" "http://www.w3.org/Graphics/SVG/1.1/DTD/svg11.dtd">
<svg version="1.1" id="Layer_1" xmlns="http://www.w3.org/2000/svg" xmlns:xlink="http://www.w3.org/1999/xlink" x="0px" y="0px"
	 width="45.648px" height="31.8px" viewBox="0 0 45.648 31.8" enable-background="new 0 0 45.648 31.8" xml:space="preserve">
<linearGradient id="gradient" gradientUnits="userSpaceOnUse" x1="17.1387" y1="31.8" x2="17.1387" y2="0">
	<stop  offset="0" style="stop-color:#404040"/>
	<stop  offset="1" style="stop-color:#A0A0A0"/>
</linearGradient>
<g>
	<path fill="#C0C0C0" d="M0,31.8V0h31.801v31.8H0L0,31.8z M1.8,30h28.199V1.801H1.8V30L1.8,30z"/>
</g>
<path fill="#808080" d="M36.28,15.899c0-2.687-1.933-4.904-4.479-5.388v1.847c1.545,0.446,2.681,1.854,2.681,3.541
	s-1.136,3.098-2.681,3.542v1.847C34.349,20.805,36.28,18.587,36.28,15.899z M31.801,1.082v1.802
	c6.738,0.523,12.048,6.142,12.048,13.016c0,6.875-5.31,12.495-12.048,13.017v1.802c7.734-0.53,13.848-6.949,13.848-14.818
	C45.648,8.031,39.535,1.611,31.801,1.082z"/>
<path fill="#C0C0C0" d="M14.813,5.525v13.183c-0.438-0.22-0.926-0.355-1.45-0.355c-1.797,0-3.251,1.457-3.253,3.254
	c0.002,1.794,1.456,3.249,3.253,3.251c1.797,0,3.25-1.457,3.25-3.251c0-0.001,0-0.001,0-0.002l0,0V10.165l3.515,3.854l1.331-1.212
	L14.813,5.525z M13.362,23.057c-0.803-0.002-1.45-0.652-1.452-1.45c0.002-0.804,0.649-1.453,1.452-1.455
	c0.801,0.002,1.448,0.651,1.45,1.455C14.811,22.407,14.163,23.055,13.362,23.057z"/>
</svg>
