<?xml version="1.0" encoding="utf-8"?>
<!DOCTYPE svg PUBLIC "-//W3C//DTD SVG 1.1//EN" "http://www.w3.org/Graphics/SVG/1.1/DTD/svg11.dtd">
<svg version="1.1" id="Layer_1" xmlns="http://www.w3.org/2000/svg" xmlns:xlink="http://www.w3.org/1999/xlink" x="0px" y="0px"
	 width="68.744px" height="72.722px" viewBox="0 0 68.744 72.722" enable-background="new 0 0 68.744 72.722" xml:space="preserve">
<linearGradient id="gradient" gradientUnits="userSpaceOnUse" x1="17.1387" y1="72.722" x2="17.1387" y2="0">
	<stop  offset="0" style="stop-color:#404040"/>
	<stop  offset="1" style="stop-color:#A0A0A0"/>
</linearGradient>
<path fill="#C0C0C0" d="M65.795,65.916l-0.004-4.721H3.818v4.721H1.669v6.807h66.272v-6.807H65.795z M6.217,63.595h57.174v2.32
	H6.217V63.595z M65.537,70.322H4.069v-2.006h61.468V70.322z"/>
<path fill="#C0C0C0" d="M65.463,6.328L34.363,0L0,6.994l5.517,2.941v5.992h57.698V9.936l5.529-2.941L65.463,6.328z M34.359,2.451
	l27.346,5.564H7.019L34.359,2.451z M7.917,13.523v-3.105h52.897v3.105H7.917z"/>
<path fill="#808080" d="M10.142,57.607l-0.825-0.215l-0.071-0.846c-0.033-0.412-0.078-0.855-0.104-1.332l0,0
	c-0.124-2.273-0.27-4.561-0.36-6.859l0,0c-0.088-2.141-0.138-4.277-0.171-6.408l0,0c-0.021-1.254-0.033-2.498-0.033-3.742l0,0
	c0-0.686,0.005-1.369,0.017-2.055l0,0c0.046-2.712,0.116-5.431,0.221-8.144l0,0c0.104-2.568,0.265-5.119,0.39-7.654l0,0
	c0.004-0.248,0.104-0.709,0.456-1.037l0,0c0.353-0.311,0.644-0.344,0.771-0.381l0,0c0.843-0.184,1.681-0.27,2.527-0.27l0,0
	c0.838,0,1.676,0.086,2.514,0.27l0,0c0.133,0.037,0.424,0.07,0.771,0.381l0,0c0.357,0.324,0.457,0.789,0.461,1.041l0,0
	c0.124,2.531,0.286,5.082,0.39,7.65l0,0c0.104,2.713,0.175,5.432,0.22,8.144l0,0l-1.198,0.021l-1.203,0.016
	c-0.042-2.697-0.112-5.396-0.216-8.085l0,0c-0.091-2.299-0.236-4.611-0.355-6.938l0,0c-0.459-0.066-0.92-0.098-1.383-0.098l0,0
	c-0.468,0-0.932,0.031-1.392,0.098l0,0c-0.119,2.326-0.265,4.639-0.355,6.934l0,0c-0.104,2.693-0.174,5.393-0.22,8.093l0,0
	c-0.009,0.668-0.017,1.34-0.017,2.014l0,0c0,1.227,0.017,2.455,0.037,3.699l0,0c0.033,2.125,0.079,4.244,0.166,6.357l0,0
	c0.092,2.26,0.232,4.537,0.361,6.824l0,0c0.006,0.123,0.015,0.25,0.024,0.379l0,0c0.474,0.086,0.934,0.135,1.373,0.139l0,0
	c0.462-0.004,0.93-0.053,1.407-0.139l0,0c0.01-0.129,0.019-0.256,0.024-0.379l0,0c0.129-2.287,0.27-4.564,0.361-6.824l0,0
	c0.087-2.113,0.133-4.232,0.166-6.357l0,0c0.021-1.219,0.033-2.436,0.033-3.65l0,0c0-0.693-0.005-1.385-0.017-2.066l0,0l1.203-0.016
	l1.198-0.021c0.009,0.693,0.017,1.398,0.017,2.104l0,0c0,1.232-0.017,2.465-0.037,3.688l0,0c-0.033,2.137-0.078,4.273-0.166,6.414
	l0,0c-0.091,2.299-0.236,4.586-0.36,6.863l0,0c-0.029,0.469-0.071,0.916-0.104,1.328l0,0l-0.07,0.846l-0.825,0.215
	c-0.921,0.242-1.851,0.383-2.83,0.398l0,0C11.992,57.99,11.063,57.849,10.142,57.607L10.142,57.607z"/>
<path fill="#808080" d="M24.105,57.607l-0.83-0.219l-0.066-0.848c-0.027-0.406-0.074-0.85-0.1-1.326l0,0
	c-0.127-2.273-0.27-4.561-0.363-6.859l0,0c-0.088-2.141-0.133-4.277-0.166-6.408l0,0c-0.025-1.246-0.039-2.482-0.039-3.723l0,0
	c0-0.688,0.006-1.385,0.018-2.074l0,0c0.045-2.716,0.115-5.431,0.225-8.144l0,0c0.1-2.568,0.26-5.119,0.389-7.646l0,0
	c0-0.252,0.1-0.717,0.453-1.045l0,0c0.352-0.311,0.643-0.344,0.775-0.381l0,0c0.838-0.184,1.68-0.27,2.523-0.27l0,0
	c0.838,0,1.68,0.086,2.51,0.27l0,0c0.137,0.033,0.432,0.07,0.779,0.381l0,0c0.357,0.328,0.453,0.785,0.457,1.041l0,0
	c0.123,2.531,0.289,5.082,0.389,7.65l0,0c0.109,2.713,0.18,5.432,0.221,8.144l0,0l-1.199,0.021l1.199-0.014
	c0.008,0.701,0.016,1.416,0.016,2.133l0,0c0,1.217-0.012,2.436-0.033,3.65l0,0c-0.033,2.137-0.078,4.273-0.17,6.414l0,0
	c-0.09,2.299-0.232,4.586-0.359,6.855l0,0c-0.025,0.48-0.072,0.928-0.105,1.33l0,0l-0.066,0.852l-0.828,0.215
	c-0.918,0.242-1.848,0.383-2.83,0.398l0,0C25.957,57.99,25.027,57.849,24.105,57.607L24.105,57.607z M26.902,55.603
	c0.463-0.004,0.932-0.053,1.408-0.139l0,0c0.01-0.131,0.018-0.258,0.023-0.383l0,0c0.129-2.283,0.27-4.561,0.361-6.826l0,0
	c0.086-2.107,0.133-4.227,0.166-6.352l0,0c0.02-1.207,0.033-2.41,0.033-3.613l0,0c0-0.703-0.006-1.408-0.014-2.104l0,0l0,0
	c-0.045-2.697-0.115-5.396-0.219-8.089l0,0c-0.092-2.297-0.236-4.609-0.354-6.934l0,0c-0.459-0.066-0.92-0.098-1.385-0.098l0,0
	c-0.469,0-0.932,0.031-1.393,0.098l0,0c-0.117,2.326-0.26,4.639-0.352,6.938l0,0c-0.104,2.689-0.174,5.389-0.219,8.089l0,0
	c-0.014,0.678-0.018,1.357-0.018,2.033l0,0c0,1.221,0.014,2.443,0.037,3.68l0,0c0.033,2.125,0.08,4.244,0.162,6.352l0,0
	c0.096,2.266,0.236,4.543,0.361,6.83l0,0c0.006,0.123,0.016,0.25,0.025,0.379l0,0C26.004,55.55,26.463,55.599,26.902,55.603
	L26.902,55.603z"/>
<path fill="#808080" d="M40.307,57.607l-0.83-0.219l-0.066-0.848c-0.029-0.406-0.078-0.85-0.104-1.326l0,0
	c-0.123-2.273-0.266-4.561-0.361-6.859l0,0c-0.086-2.141-0.133-4.277-0.166-6.408l0,0c-0.027-1.246-0.041-2.49-0.041-3.73l0,0
	c0-0.689,0.008-1.381,0.021-2.066l0,0c0.045-2.712,0.111-5.431,0.219-8.144l0,0c0.105-2.568,0.266-5.119,0.391-7.646l0,0
	c0.004-0.252,0.104-0.717,0.457-1.045l0,0c0.352-0.311,0.639-0.344,0.771-0.381l0,0c0.842-0.184,1.684-0.27,2.527-0.27l0,0
	c0.832,0,1.676,0.086,2.514,0.27l0,0c0.133,0.037,0.422,0.07,0.771,0.381l0,0c0.352,0.324,0.457,0.779,0.461,1.041l0,0
	c0.123,2.531,0.285,5.082,0.385,7.65l0,0c0.113,2.713,0.18,5.432,0.225,8.144l0,0l-1.199,0.021l1.199-0.014
	c0.004,0.678,0.012,1.365,0.012,2.059l0,0c0,1.244-0.012,2.488-0.033,3.725l0,0c-0.033,2.137-0.078,4.273-0.166,6.414l0,0
	c-0.096,2.299-0.236,4.586-0.359,6.859l0,0c-0.029,0.473-0.072,0.92-0.105,1.332l0,0l-0.07,0.846l-0.824,0.215
	c-0.922,0.242-1.852,0.383-2.83,0.398l0,0C42.152,57.99,41.225,57.849,40.307,57.607L40.307,57.607z M43.104,55.603
	c0.461-0.004,0.93-0.053,1.406-0.139l0,0c0.01-0.129,0.018-0.258,0.025-0.383l0,0c0.123-2.283,0.27-4.561,0.361-6.82l0,0
	c0.082-2.113,0.133-4.232,0.166-6.357l0,0c0.016-1.227,0.027-2.459,0.027-3.688l0,0c0-0.676-0.004-1.354-0.012-2.025l0,0l0,0
	c-0.045-2.701-0.111-5.4-0.215-8.089l0,0c-0.092-2.299-0.236-4.613-0.355-6.938l0,0c-0.459-0.066-0.92-0.098-1.383-0.098l0,0
	c-0.469,0-0.932,0.031-1.393,0.098l0,0c-0.119,2.326-0.264,4.639-0.355,6.938l0,0c-0.104,2.689-0.174,5.389-0.219,8.089l0,0
	c-0.01,0.678-0.018,1.354-0.018,2.025l0,0c0,1.225,0.014,2.451,0.037,3.688l0,0c0.033,2.125,0.08,4.244,0.166,6.352l0,0
	c0.092,2.266,0.236,4.543,0.361,6.83l0,0c0.006,0.123,0.016,0.25,0.025,0.381l0,0C42.203,55.55,42.662,55.599,43.104,55.603
	L43.104,55.603z"/>
<path fill="#808080" d="M53.943,57.607l-0.828-0.219l-0.066-0.848c-0.033-0.406-0.08-0.85-0.105-1.326l0,0
	c-0.127-2.273-0.266-4.561-0.359-6.859l0,0c-0.088-2.141-0.137-4.277-0.17-6.408l0,0c-0.025-1.246-0.039-2.49-0.039-3.73l0,0
	c0-0.689,0.01-1.381,0.021-2.066l0,0c0.041-2.716,0.117-5.431,0.221-8.144l0,0c0.1-2.568,0.266-5.119,0.389-7.658l0,0
	c0.004-0.248,0.1-0.705,0.457-1.033l0,0c0.348-0.311,0.643-0.348,0.771-0.381l0,0c0.842-0.184,1.684-0.27,2.523-0.27l0,0
	c0.838,0,1.68,0.086,2.518,0.27l0,0c0.133,0.037,0.424,0.07,0.775,0.381l0,0c0.354,0.328,0.453,0.793,0.453,1.037l0,0
	c0.129,2.535,0.289,5.086,0.389,7.654l0,0c0.109,2.713,0.18,5.428,0.225,8.144l0,0l-1.199,0.021l1.199-0.014
	c0.004,0.686,0.012,1.379,0.012,2.08l0,0c0,1.236-0.012,2.473-0.033,3.709l0,0c-0.033,2.131-0.078,4.268-0.166,6.408l0,0
	c-0.094,2.299-0.236,4.586-0.363,6.859l0,0c-0.025,0.477-0.072,0.92-0.105,1.326l0,0l-0.066,0.852l-0.824,0.215
	c-0.922,0.242-1.852,0.383-2.83,0.398l0,0C55.791,57.99,54.861,57.849,53.943,57.607L53.943,57.607z M56.74,55.603
	c0.461-0.004,0.928-0.053,1.406-0.139l0,0c0.01-0.131,0.02-0.258,0.025-0.383l0,0c0.125-2.283,0.266-4.561,0.361-6.82l0,0
	c0.082-2.113,0.129-4.232,0.166-6.354l0,0c0.016-1.227,0.029-2.447,0.029-3.67l0,0c0-0.682-0.006-1.365-0.014-2.047l0,0l0,0
	c-0.045-2.701-0.115-5.4-0.219-8.089l0,0c-0.092-2.297-0.232-4.607-0.352-6.938l0,0c-0.459-0.066-0.922-0.098-1.387-0.098l0,0
	c-0.467,0-0.93,0.031-1.391,0.098l0,0c-0.117,2.328-0.262,4.639-0.354,6.934l0,0c-0.104,2.693-0.174,5.393-0.219,8.093l0,0
	c-0.014,0.678-0.018,1.354-0.018,2.025l0,0c0,1.225,0.014,2.451,0.037,3.688l0,0c0.033,2.125,0.08,4.244,0.166,6.352l0,0
	c0.092,2.266,0.232,4.543,0.357,6.826l0,0c0.008,0.125,0.018,0.254,0.027,0.383l0,0C55.84,55.55,56.299,55.599,56.74,55.603
	L56.74,55.603z"/>
</svg>
