<?xml version="1.0" encoding="utf-8"?>
<!DOCTYPE svg PUBLIC "-//W3C//DTD SVG 1.1//EN" "http://www.w3.org/Graphics/SVG/1.1/DTD/svg11.dtd">
<svg version="1.1" id="Layer_1" xmlns="http://www.w3.org/2000/svg" xmlns:xlink="http://www.w3.org/1999/xlink" x="0px" y="0px"
	 width="34.372px" height="36.361px" viewBox="0 0 34.372 36.361" enable-background="new 0 0 34.372 36.361" xml:space="preserve">
<linearGradient id="gradient" gradientUnits="userSpaceOnUse" x1="17.1387" y1="36.361" x2="17.1387" y2="0">
	<stop  offset="0" style="stop-color:#404040"/>
	<stop  offset="1" style="stop-color:#A0A0A0"/>
</linearGradient>
<path fill="#C0C0C0" d="M32.897,32.958l-0.002-2.36H1.909v2.36H0.834v3.403h33.136v-3.403H32.897z M3.108,31.798h28.587v1.16H3.108
	V31.798z M32.769,35.161H2.035v-1.003h30.734V35.161z"/>
<path fill="#C0C0C0" d="M32.731,3.164L17.182,0L0,3.497l2.758,1.471v2.996h28.849V4.968l2.765-1.471L32.731,3.164z M17.18,1.226
	l13.673,2.782H3.509L17.18,1.226z M3.958,6.762V5.209h26.449v1.553H3.958z"/>
<path fill="#808080" d="M5.071,28.804l-0.413-0.107l-0.036-0.423c-0.017-0.206-0.039-0.428-0.052-0.666l0,0
	c-0.062-1.137-0.135-2.28-0.18-3.43l0,0c-0.044-1.07-0.069-2.139-0.085-3.204l0,0c-0.01-0.627-0.017-1.249-0.017-1.871l0,0
	c0-0.343,0.002-0.685,0.008-1.027l0,0c0.023-1.356,0.058-2.716,0.11-4.072l0,0c0.052-1.284,0.132-2.56,0.195-3.827l0,0
	c0.002-0.124,0.052-0.354,0.228-0.519l0,0c0.176-0.155,0.322-0.172,0.386-0.19l0,0c0.421-0.092,0.84-0.135,1.264-0.135l0,0
	c0.419,0,0.838,0.043,1.257,0.135l0,0c0.066,0.019,0.212,0.035,0.386,0.19l0,0c0.179,0.162,0.229,0.395,0.23,0.521l0,0
	c0.062,1.266,0.143,2.541,0.195,3.825l0,0c0.052,1.356,0.087,2.716,0.11,4.072l0,0l-0.599,0.011l-0.602,0.008
	c-0.021-1.349-0.056-2.698-0.108-4.043l0,0c-0.045-1.149-0.118-2.306-0.178-3.469l0,0c-0.229-0.033-0.46-0.049-0.691-0.049l0,0
	c-0.234,0-0.466,0.016-0.696,0.049l0,0c-0.06,1.163-0.132,2.319-0.178,3.467l0,0c-0.052,1.347-0.087,2.696-0.11,4.047l0,0
	c-0.004,0.334-0.008,0.67-0.008,1.007l0,0c0,0.613,0.008,1.228,0.019,1.85l0,0c0.017,1.063,0.04,2.122,0.083,3.179l0,0
	c0.046,1.13,0.116,2.269,0.181,3.412l0,0c0.003,0.062,0.007,0.125,0.012,0.189l0,0c0.237,0.043,0.467,0.067,0.687,0.069l0,0
	C6.7,27.8,6.934,27.775,7.172,27.732l0,0c0.005-0.064,0.009-0.128,0.012-0.189l0,0c0.064-1.144,0.135-2.282,0.181-3.412l0,0
	c0.043-1.057,0.066-2.116,0.083-3.179l0,0c0.01-0.609,0.017-1.218,0.017-1.825l0,0c0-0.347-0.002-0.692-0.008-1.033l0,0l0.602-0.008
	l0.599-0.011c0.004,0.347,0.008,0.699,0.008,1.052l0,0c0,0.616-0.008,1.232-0.019,1.844l0,0c-0.017,1.068-0.039,2.137-0.083,3.207
	l0,0c-0.045,1.149-0.118,2.293-0.18,3.432l0,0c-0.015,0.234-0.036,0.458-0.052,0.664l0,0l-0.035,0.423l-0.413,0.107
	c-0.46,0.121-0.925,0.191-1.415,0.199l0,0C5.996,28.995,5.531,28.925,5.071,28.804L5.071,28.804z"/>
<path fill="#808080" d="M12.053,28.804l-0.415-0.109l-0.033-0.424c-0.014-0.203-0.037-0.425-0.05-0.663l0,0
	c-0.063-1.137-0.135-2.28-0.182-3.43l0,0c-0.044-1.07-0.066-2.139-0.083-3.204l0,0c-0.013-0.623-0.02-1.241-0.02-1.861l0,0
	c0-0.344,0.003-0.692,0.009-1.037l0,0c0.022-1.358,0.058-2.716,0.112-4.072l0,0c0.05-1.284,0.13-2.56,0.194-3.823l0,0
	c0-0.126,0.05-0.358,0.227-0.522l0,0c0.176-0.155,0.321-0.172,0.388-0.19l0,0c0.419-0.092,0.84-0.135,1.262-0.135l0,0
	c0.419,0,0.84,0.043,1.255,0.135l0,0c0.068,0.017,0.216,0.035,0.39,0.19l0,0c0.179,0.164,0.227,0.393,0.229,0.521l0,0
	c0.062,1.266,0.145,2.541,0.194,3.825l0,0c0.055,1.356,0.09,2.716,0.11,4.072l0,0l-0.6,0.011l0.6-0.007
	c0.004,0.351,0.008,0.708,0.008,1.066l0,0c0,0.608-0.006,1.218-0.017,1.825l0,0c-0.017,1.068-0.039,2.137-0.085,3.207l0,0
	c-0.045,1.149-0.116,2.293-0.18,3.428l0,0c-0.013,0.24-0.036,0.464-0.053,0.665l0,0l-0.033,0.426l-0.414,0.107
	c-0.459,0.121-0.924,0.191-1.415,0.199l0,0C12.979,28.995,12.514,28.925,12.053,28.804L12.053,28.804z M13.451,27.802
	c0.231-0.002,0.466-0.026,0.704-0.069l0,0c0.005-0.065,0.009-0.129,0.012-0.191l0,0c0.064-1.142,0.135-2.28,0.181-3.413l0,0
	c0.043-1.054,0.066-2.113,0.083-3.176l0,0c0.01-0.604,0.017-1.205,0.017-1.807l0,0c0-0.352-0.003-0.704-0.007-1.052l0,0l0,0
	c-0.022-1.349-0.058-2.698-0.109-4.045l0,0c-0.046-1.148-0.118-2.305-0.177-3.467l0,0c-0.229-0.033-0.46-0.049-0.692-0.049l0,0
	c-0.234,0-0.466,0.016-0.696,0.049l0,0c-0.059,1.163-0.13,2.319-0.176,3.469l0,0c-0.052,1.345-0.087,2.694-0.109,4.045l0,0
	c-0.007,0.339-0.009,0.679-0.009,1.017l0,0c0,0.61,0.007,1.222,0.019,1.84l0,0c0.017,1.063,0.04,2.122,0.081,3.176l0,0
	c0.048,1.133,0.118,2.271,0.181,3.415l0,0c0.003,0.062,0.008,0.125,0.013,0.189l0,0C13.002,27.775,13.231,27.8,13.451,27.802
	L13.451,27.802z"/>
<path fill="#808080" d="M20.153,28.804l-0.415-0.109l-0.033-0.424c-0.015-0.203-0.039-0.425-0.052-0.663l0,0
	c-0.062-1.137-0.133-2.28-0.181-3.43l0,0c-0.043-1.07-0.066-2.139-0.083-3.204l0,0c-0.014-0.623-0.021-1.245-0.021-1.865l0,0
	c0-0.345,0.004-0.69,0.011-1.033l0,0c0.022-1.356,0.056-2.716,0.109-4.072l0,0c0.053-1.284,0.133-2.56,0.195-3.823l0,0
	c0.002-0.126,0.052-0.358,0.229-0.522l0,0c0.176-0.155,0.319-0.172,0.386-0.19l0,0c0.421-0.092,0.842-0.135,1.264-0.135l0,0
	c0.416,0,0.838,0.043,1.257,0.135l0,0c0.066,0.019,0.211,0.035,0.386,0.19l0,0c0.176,0.162,0.229,0.39,0.23,0.521l0,0
	c0.062,1.266,0.143,2.541,0.192,3.825l0,0c0.057,1.356,0.09,2.716,0.112,4.072l0,0l-0.6,0.011l0.6-0.007
	c0.002,0.339,0.006,0.683,0.006,1.029l0,0c0,0.622-0.006,1.244-0.017,1.862l0,0c-0.017,1.068-0.039,2.137-0.083,3.207l0,0
	c-0.048,1.149-0.118,2.293-0.18,3.43l0,0c-0.015,0.236-0.036,0.46-0.053,0.666l0,0l-0.035,0.423l-0.412,0.107
	c-0.461,0.121-0.926,0.191-1.415,0.199l0,0C21.076,28.995,20.612,28.925,20.153,28.804L20.153,28.804z M21.552,27.802
	c0.23-0.002,0.465-0.026,0.703-0.069l0,0c0.005-0.064,0.009-0.129,0.013-0.191l0,0c0.062-1.142,0.135-2.28,0.181-3.41l0,0
	c0.041-1.057,0.066-2.116,0.083-3.179l0,0c0.008-0.613,0.014-1.229,0.014-1.844l0,0c0-0.338-0.002-0.677-0.006-1.013l0,0l0,0
	c-0.022-1.351-0.056-2.7-0.107-4.045l0,0c-0.046-1.149-0.118-2.307-0.178-3.469l0,0c-0.229-0.033-0.46-0.049-0.691-0.049l0,0
	c-0.234,0-0.466,0.016-0.696,0.049l0,0c-0.06,1.163-0.132,2.319-0.178,3.469l0,0c-0.052,1.345-0.087,2.694-0.109,4.045l0,0
	c-0.005,0.339-0.009,0.677-0.009,1.013l0,0c0,0.612,0.007,1.226,0.019,1.844l0,0c0.017,1.063,0.04,2.122,0.083,3.176l0,0
	c0.046,1.133,0.118,2.271,0.181,3.415l0,0c0.003,0.062,0.008,0.125,0.013,0.19l0,0C21.102,27.775,21.331,27.8,21.552,27.802
	L21.552,27.802z"/>
<path fill="#808080" d="M26.972,28.804l-0.414-0.109l-0.033-0.424c-0.017-0.203-0.04-0.425-0.053-0.663l0,0
	c-0.063-1.137-0.133-2.28-0.18-3.43l0,0c-0.044-1.07-0.068-2.139-0.085-3.204l0,0c-0.013-0.623-0.02-1.245-0.02-1.865l0,0
	c0-0.345,0.005-0.69,0.011-1.033l0,0c0.021-1.358,0.059-2.716,0.11-4.072l0,0c0.05-1.284,0.133-2.56,0.194-3.829l0,0
	c0.002-0.124,0.05-0.353,0.229-0.517l0,0c0.174-0.155,0.321-0.174,0.386-0.19l0,0c0.421-0.092,0.842-0.135,1.262-0.135l0,0
	c0.419,0,0.84,0.043,1.259,0.135l0,0c0.066,0.019,0.212,0.035,0.388,0.19l0,0c0.177,0.164,0.227,0.396,0.227,0.519l0,0
	c0.064,1.268,0.145,2.543,0.194,3.827l0,0c0.055,1.356,0.09,2.714,0.112,4.072l0,0l-0.6,0.011l0.6-0.007
	c0.002,0.343,0.006,0.689,0.006,1.04l0,0c0,0.618-0.006,1.236-0.017,1.854l0,0c-0.017,1.065-0.039,2.134-0.083,3.204l0,0
	c-0.047,1.149-0.118,2.293-0.182,3.43l0,0c-0.013,0.238-0.036,0.46-0.053,0.663l0,0l-0.033,0.426l-0.412,0.107
	c-0.461,0.121-0.926,0.191-1.415,0.199l0,0C27.896,28.995,27.431,28.925,26.972,28.804L26.972,28.804z M28.37,27.802
	c0.23-0.002,0.464-0.026,0.703-0.069l0,0c0.005-0.065,0.01-0.129,0.013-0.191l0,0c0.063-1.142,0.133-2.28,0.181-3.41l0,0
	c0.041-1.057,0.064-2.116,0.083-3.177l0,0c0.008-0.613,0.015-1.224,0.015-1.835l0,0c0-0.341-0.003-0.683-0.007-1.023l0,0l0,0
	c-0.022-1.351-0.058-2.7-0.109-4.045l0,0c-0.046-1.148-0.116-2.304-0.176-3.469l0,0c-0.229-0.033-0.461-0.049-0.693-0.049l0,0
	c-0.233,0-0.465,0.016-0.695,0.049l0,0c-0.059,1.164-0.131,2.319-0.177,3.467l0,0c-0.052,1.347-0.087,2.696-0.109,4.047l0,0
	c-0.007,0.339-0.009,0.677-0.009,1.013l0,0c0,0.612,0.007,1.226,0.019,1.844l0,0c0.017,1.063,0.04,2.122,0.083,3.176l0,0
	c0.046,1.133,0.116,2.271,0.179,3.413l0,0c0.004,0.063,0.009,0.127,0.014,0.191l0,0C27.92,27.775,28.149,27.8,28.37,27.802
	L28.37,27.802z"/>
</svg>
