<?xml version="1.0" encoding="utf-8"?>
<!DOCTYPE svg PUBLIC "-//W3C//DTD SVG 1.1//EN" "http://www.w3.org/Graphics/SVG/1.1/DTD/svg11.dtd">
<svg version="1.1" id="Layer_1" xmlns="http://www.w3.org/2000/svg" xmlns:xlink="http://www.w3.org/1999/xlink" x="0px" y="0px"
	 width="74.748px" height="61.97px" viewBox="0 0 74.748 61.97" enable-background="new 0 0 74.748 61.97" xml:space="preserve">
<linearGradient id="gradient" gradientUnits="userSpaceOnUse" x1="17.1387" y1="61.97" x2="17.1387" y2="0">
	<stop  offset="0" style="stop-color:#404040"/>
	<stop  offset="1" style="stop-color:#A0A0A0"/>
</linearGradient>
<path fill="#C0C0C0" d="M0,61.97l0.08-1.873c0.455-10.713,8.877-19.471,20.193-22.889l0,0l0.785-0.24l0.697,0.436
	c2.752,1.727,5.918,2.729,9.318,2.732l0,0c3.398-0.004,6.566-1.006,9.322-2.732l0,0l0.689-0.436l0.789,0.24
	c11.318,3.418,19.736,12.176,20.193,22.889l0,0l0.078,1.873H0L0,61.97z M58.299,58.371c-1.158-7.771-7.607-14.461-16.715-17.48l0,0
	c-3.113,1.795-6.695,2.848-10.51,2.844l0,0c-3.818,0.004-7.4-1.049-10.512-2.842l0,0c-9.107,3.02-15.557,9.707-16.715,17.479l0,0
	H58.299L58.299,58.371z"/>
<path fill="#C0C0C0" d="M13.465,18.742C13.482,8.486,21.25,0.018,31.074,0l0,0c9.822,0.018,17.594,8.486,17.611,18.742l0,0
	c-0.018,10.25-7.789,18.718-17.611,18.738l0,0C21.25,37.46,13.482,28.992,13.465,18.742L13.465,18.742z M17.064,18.742
	c0.008,8.449,6.371,15.123,14.01,15.138l0,0c7.637-0.016,14.002-6.689,14.012-15.138l0,0c-0.01-8.455-6.375-15.125-14.012-15.141
	l0,0C23.436,3.617,17.072,10.287,17.064,18.742L17.064,18.742z"/>
<path fill="#808080" d="M74.748,32.521H62.082c-0.547-2.38-2.313-4.402-4.82-5.132v0.002c-0.643-0.186-1.293-0.279-1.938-0.279
	c-3.02-0.006-5.795,1.975-6.676,5.025c-0.188,0.631-0.281,1.283-0.281,1.932c0,3.018,1.982,5.785,5.018,6.678
	c0.652,0.188,1.303,0.273,1.939,0.273c2.982,0,5.705-1.932,6.639-4.896h3.643V61.8h3.6V36.123h5.543V32.521z M58.545,35.005
	c-0.42,1.457-1.773,2.416-3.221,2.416c-0.305,0-0.619-0.043-0.932-0.133c-1.477-0.432-2.424-1.773-2.424-3.221
	c0-0.301,0.043-0.611,0.137-0.932c0.42-1.477,1.766-2.424,3.219-2.428c0.299,0,0.613,0.047,0.934,0.137l0.004,0.004
	c1.457,0.416,2.416,1.766,2.416,3.219C58.678,34.378,58.635,34.693,58.545,35.005z"/>
</svg>
