<?xml version="1.0" encoding="utf-8"?>
<!DOCTYPE svg PUBLIC "-//W3C//DTD SVG 1.1//EN" "http://www.w3.org/Graphics/SVG/1.1/DTD/svg11.dtd">
<svg version="1.1" id="Layer_1" xmlns="http://www.w3.org/2000/svg" xmlns:xlink="http://www.w3.org/1999/xlink" x="0px" y="0px"
	 width="37.374px" height="30.985px" viewBox="0 0 37.374 30.985" enable-background="new 0 0 37.374 30.985" xml:space="preserve">
<linearGradient id="gradient" gradientUnits="userSpaceOnUse" x1="17.1387" y1="30.985" x2="17.1387" y2="0">
	<stop  offset="0" style="stop-color:#404040"/>
	<stop  offset="1" style="stop-color:#A0A0A0"/>
</linearGradient>
<path fill="#C0C0C0" d="M0,30.985l0.04-0.937c0.228-5.356,4.438-9.735,10.097-11.444l0,0l0.393-0.12l0.349,0.218
	c1.376,0.863,2.959,1.364,4.659,1.366l0,0c1.699-0.002,3.283-0.503,4.661-1.366l0,0l0.345-0.218l0.395,0.12
	c5.659,1.709,9.868,6.088,10.097,11.444l0,0l0.039,0.937H0L0,30.985z M29.149,29.186c-0.579-3.886-3.804-7.23-8.357-8.74l0,0
	c-1.557,0.897-3.348,1.424-5.255,1.422l0,0c-1.909,0.002-3.7-0.524-5.256-1.421l0,0c-4.554,1.51-7.778,4.854-8.357,8.739l0,0H29.149
	L29.149,29.186z"/>
<path fill="#C0C0C0" d="M6.732,9.371C6.741,4.243,10.625,0.009,15.537,0l0,0c4.911,0.009,8.797,4.243,8.806,9.371l0,0
	c-0.009,5.125-3.895,9.359-8.806,9.369l0,0C10.625,18.73,6.741,14.496,6.732,9.371L6.732,9.371z M8.532,9.371
	c0.004,4.225,3.186,7.562,7.005,7.569l0,0c3.818-0.008,7.001-3.345,7.006-7.569l0,0c-0.005-4.228-3.188-7.563-7.006-7.57l0,0
	C11.718,1.809,8.536,5.144,8.532,9.371L8.532,9.371z"/>
<path fill="#808080" d="M37.374,16.261h-6.333c-0.273-1.19-1.156-2.201-2.41-2.566v0.001c-0.321-0.093-0.646-0.14-0.969-0.14
	c-1.51-0.003-2.897,0.987-3.338,2.513c-0.094,0.315-0.141,0.642-0.141,0.966c0,1.509,0.991,2.893,2.509,3.339
	c0.326,0.094,0.651,0.137,0.97,0.137c1.491,0,2.853-0.966,3.319-2.448h1.821V30.9h1.8V18.062h2.771V16.261z M29.272,17.503
	c-0.21,0.729-0.887,1.208-1.61,1.208c-0.152,0-0.31-0.021-0.466-0.066c-0.738-0.216-1.212-0.887-1.212-1.61
	c0-0.15,0.021-0.306,0.068-0.466c0.21-0.738,0.883-1.212,1.609-1.214c0.149,0,0.307,0.023,0.467,0.068l0.002,0.002
	c0.729,0.208,1.208,0.883,1.208,1.609C29.339,17.189,29.317,17.347,29.272,17.503z"/>
</svg>
