<?xml version="1.0" encoding="utf-8"?>
<!DOCTYPE svg PUBLIC "-//W3C//DTD SVG 1.1//EN" "http://www.w3.org/Graphics/SVG/1.1/DTD/svg11.dtd">
<svg version="1.1" id="Layer_1" xmlns="http://www.w3.org/2000/svg" xmlns:xlink="http://www.w3.org/1999/xlink" x="0px" y="0px"
	 width="102.399px" height="83.771px" viewBox="0 0 102.399 83.771" enable-background="new 0 0 102.399 83.771"
	 xml:space="preserve">
<linearGradient id="gradient" gradientUnits="userSpaceOnUse" x1="17.1387" y1="83.771" x2="17.1387" y2="0">
	<stop  offset="0" style="stop-color:#404040"/>
	<stop  offset="1" style="stop-color:#A0A0A0"/>
</linearGradient>
<path fill="#C0C0C0" d="M0,83.771l0.063-1.561c0.598-14.289,11.88-26.117,27.245-30.767l0,0l0.654-0.199l0.578,0.364
	c3.954,2.48,8.522,3.929,13.422,3.929l0,0c4.902,0,9.471-1.448,13.428-3.929l0,0l0.578-0.364l0.654,0.199
	c15.365,4.649,26.646,16.478,27.245,30.767l0,0l0.062,1.561H0L0,83.771z M80.761,80.771c-1.213-11.82-10.838-21.929-24.371-26.259
	l0,0c-4.256,2.536-9.176,4.026-14.427,4.026l0,0c-5.25,0-10.169-1.49-14.422-4.025l0,0C14.009,58.842,4.382,68.951,3.171,80.771l0,0
	H80.761L80.761,80.771z M55.753,54.314l0.436-1.434L55.753,54.314L55.753,54.314z"/>
<path fill="#C0C0C0" d="M18.589,24.941C18.612,11.247,28.97,0.015,41.966,0l0,0c12.992,0.015,23.355,11.247,23.379,24.941l0,0
	c-0.023,13.691-10.387,24.926-23.379,24.94l0,0C28.97,49.867,18.612,38.632,18.589,24.941L18.589,24.941z M21.59,24.941
	c0.007,12.189,9.203,21.918,20.376,21.939l0,0c11.169-0.021,20.37-9.75,20.378-21.939l0,0C62.336,12.747,53.135,3.022,41.966,2.999
	l0,0C30.793,3.022,21.597,12.747,21.59,24.941L21.59,24.941z"/>
<path fill="#808080" d="M102.399,45.003H84.075c-0.444-3.287-2.764-6.159-6.146-7.141c-0.798-0.233-1.609-0.345-2.406-0.345
	c-3.748,0-7.19,2.455-8.287,6.231c-0.231,0.796-0.344,1.607-0.344,2.406c-0.002,3.749,2.455,7.188,6.233,8.285
	c0.799,0.233,1.607,0.343,2.404,0.343h0.005c3.745,0,7.182-2.456,8.282-6.229c0.054-0.184,0.077-0.367,0.118-0.55h6.806v34.267h3
	V48.004h8.659V45.003z M80.937,47.718c-0.714,2.463-2.972,4.064-5.407,4.066c-0.519,0-1.044-0.072-1.569-0.225
	c-2.47-0.715-4.066-2.965-4.068-5.405c0-0.517,0.073-1.042,0.227-1.571c0.709-2.464,2.965-4.065,5.404-4.065
	c0.518,0,1.045,0.072,1.572,0.225c2.459,0.709,4.064,2.967,4.064,5.407C81.159,46.669,81.087,47.195,80.937,47.718z"/>
</svg>
