<?xml version="1.0" encoding="utf-8"?>
<!DOCTYPE svg PUBLIC "-//W3C//DTD SVG 1.1//EN" "http://www.w3.org/Graphics/SVG/1.1/DTD/svg11.dtd">
<svg version="1.1" id="Layer_1" xmlns="http://www.w3.org/2000/svg" xmlns:xlink="http://www.w3.org/1999/xlink" x="0px" y="0px"
	 width="40.331px" height="31.799px" viewBox="0 0 40.331 31.799" enable-background="new 0 0 40.331 31.799" xml:space="preserve">
<linearGradient id="gradient" gradientUnits="userSpaceOnUse" x1="17.1387" y1="31.799" x2="17.1387" y2="0">
	<stop  offset="0" style="stop-color:#404040"/>
	<stop  offset="1" style="stop-color:#A0A0A0"/>
</linearGradient>
<path fill="#C0C0C0" d="M20.578,8.396v13.188c-0.438-0.221-0.927-0.356-1.452-0.356c-1.796,0-3.251,1.454-3.251,3.251
	c0,1.796,1.455,3.251,3.251,3.253c1.799,0,3.251-1.456,3.252-3.252l0,0v-11.44l3.512,3.854l1.333-1.212L20.578,8.396z M19.126,25.93
	c-0.801-0.002-1.45-0.651-1.452-1.452c0.002-0.801,0.651-1.451,1.452-1.453c0.801,0.002,1.445,0.647,1.452,1.443v0.011h0.001
	C20.576,25.281,19.93,25.928,19.126,25.93z"/>
<path fill="#808080" d="M35.607,4.705H16.799l0.002-1.746C16.801,1.325,15.478,0,13.843,0H2.961C1.325,0,0.002,1.322,0,2.959v24.115
	c0.002,2.611,2.115,4.725,4.727,4.725h30.881c2.61,0,4.724-2.115,4.724-4.725V9.43C40.331,6.82,38.218,4.705,35.607,4.705z
	 M38.531,27.074c-0.004,1.616-1.309,2.923-2.924,2.925H4.727C3.11,29.997,1.804,28.69,1.8,27.074V2.959
	C1.802,2.32,2.32,1.8,2.961,1.8h10.882C14.482,1.8,15,2.318,15,2.959v3.547h20.607c1.615,0.002,2.92,1.309,2.924,2.924V27.074z"/>
</svg>
