<?xml version="1.0" encoding="utf-8"?>
<!DOCTYPE svg PUBLIC "-//W3C//DTD SVG 1.1//EN" "http://www.w3.org/Graphics/SVG/1.1/DTD/svg11.dtd">
<svg version="1.1" id="Layer_1" xmlns="http://www.w3.org/2000/svg" xmlns:xlink="http://www.w3.org/1999/xlink" x="0px" y="0px"
	 width="70.484px" height="83.003px" viewBox="0 0 70.484 83.003" enable-background="new 0 0 70.484 83.003" xml:space="preserve">
<linearGradient id="gradient" gradientUnits="userSpaceOnUse" x1="17.1387" y1="83.003" x2="17.1387" y2="0">
	<stop  offset="0" style="stop-color:#404040"/>
	<stop  offset="1" style="stop-color:#A0A0A0"/>
</linearGradient>
<path fill="#C0C0C0" d="M62.456,8.162v0.004h-1.767V8.032C60.685,3.596,57.094,0.004,52.657,0H8.032C3.596,0.004,0,3.596,0,8.032
	v57.143c0,4.436,3.596,8.027,8.032,8.031h0.131v1.764c0,4.436,3.599,8.029,8.033,8.033h46.26c4.435-0.004,8.028-3.598,8.028-8.033
	V16.194C70.484,11.76,66.891,8.166,62.456,8.162z M8.163,70.205L8.163,70.205H8.032c-2.775-0.004-5.026-2.254-5.03-5.029V8.032
	c0.004-2.78,2.255-5.026,5.03-5.03h44.625c2.775,0.004,5.026,2.25,5.03,5.03v1.632h0.001v55.509
	c-0.004,2.777-2.256,5.025-5.029,5.031H8.163z M67.485,74.97c-0.008,2.777-2.252,5.025-5.029,5.029h-46.26
	c-2.777-0.004-5.025-2.252-5.029-5.029l-0.005-1.768l41.497,0.004c4.435-0.004,8.028-3.598,8.028-8.033V11.165h1.769
	c2.777,0.004,5.021,2.252,5.029,5.029V74.97z"/>
<path fill="#808080" d="M46.204,17.549l-24.144,3.728v24.983c-1.291-0.713-2.858-1.111-4.478-1.117
	c-3.76,0.016-7.331,2.018-7.479,5.594c0.147,3.576,3.719,5.578,7.479,5.6c3.756-0.021,7.328-2.023,7.476-5.6
	c-0.005-0.127-0.046-0.236-0.06-0.359h0.06V30.382l18.144-2.805v15.417c-1.291-0.713-2.857-1.109-4.477-1.117
	c-3.76,0.018-7.331,2.02-7.479,5.596c0.147,3.574,3.719,5.578,7.479,5.594c3.756-0.016,7.327-2.02,7.475-5.594h0.004
	c-0.006-0.127-0.046-0.238-0.06-0.361h0.06V17.549z M20.958,52.394c-0.786,0.545-2.003,0.943-3.375,0.939
	c-1.376,0.004-2.597-0.395-3.383-0.939c-0.799-0.557-1.098-1.15-1.098-1.658s0.299-1.098,1.098-1.658
	c0.786-0.545,2.007-0.941,3.383-0.938c1.372-0.004,2.589,0.393,3.375,0.938c0.803,0.561,1.103,1.15,1.098,1.658h0.005
	C22.061,51.244,21.761,51.837,20.958,52.394z M42.104,49.13c-0.79,0.545-2.007,0.941-3.379,0.938
	c-1.376,0.004-2.592-0.393-3.379-0.938c-0.803-0.561-1.102-1.15-1.102-1.658s0.299-1.098,1.102-1.658
	c0.787-0.545,2.003-0.943,3.379-0.939c1.372-0.004,2.589,0.395,3.379,0.939c0.799,0.561,1.102,1.15,1.098,1.658
	C43.206,47.98,42.907,48.57,42.104,49.13z M43.202,24.542l-18.144,2.804v-3.497l18.144-2.802V24.542z"/>
</svg>
