<?xml version="1.0" encoding="utf-8"?>
<!DOCTYPE svg PUBLIC "-//W3C//DTD SVG 1.1//EN" "http://www.w3.org/Graphics/SVG/1.1/DTD/svg11.dtd">
<svg version="1.1" id="Layer_1" xmlns="http://www.w3.org/2000/svg" xmlns:xlink="http://www.w3.org/1999/xlink" x="0px" y="0px"
	 width="80.662px" height="63.597px" viewBox="0 0 80.662 63.597" enable-background="new 0 0 80.662 63.597" xml:space="preserve">
<linearGradient id="gradient" gradientUnits="userSpaceOnUse" x1="17.1387" y1="63.597" x2="17.1387" y2="0">
	<stop  offset="0" style="stop-color:#404040"/>
	<stop  offset="1" style="stop-color:#A0A0A0"/>
</linearGradient>
<path fill="#C0C0C0" d="M41.156,16.791v26.375c-0.877-0.441-1.854-0.713-2.904-0.713c-3.592,0-6.502,2.908-6.502,6.502
	c0,3.592,2.91,6.502,6.502,6.506c3.598,0,6.502-2.912,6.504-6.504l0,0v-22.88l7.023,7.707l2.666-2.423L41.156,16.791z
	 M38.252,51.859c-1.602-0.004-2.9-1.303-2.904-2.904c0.004-1.602,1.303-2.902,2.904-2.906c1.602,0.004,2.891,1.295,2.904,2.887
	v0.021h0.002C41.152,50.562,39.859,51.855,38.252,51.859z"/>
<path fill="#808080" d="M71.215,9.41H33.598l0.004-3.492C33.602,2.65,30.955,0,27.686,0H5.922C2.65,0,0.004,2.645,0,5.918v48.23
	c0.004,5.223,4.23,9.449,9.453,9.449h61.762c5.221,0,9.447-4.23,9.447-9.449V18.859C80.662,13.641,76.436,9.41,71.215,9.41z
	 M77.063,54.148c-0.008,3.232-2.617,5.846-5.848,5.85H9.453c-3.232-0.004-5.846-2.617-5.854-5.85V5.918
	C3.604,4.641,4.641,3.6,5.922,3.6h21.764C28.965,3.6,30,4.637,30,5.918v7.094h41.215c3.23,0.004,5.84,2.617,5.848,5.848V54.148z"/>
</svg>
