<?xml version="1.0" encoding="utf-8"?>
<!DOCTYPE svg PUBLIC "-//W3C//DTD SVG 1.1//EN" "http://www.w3.org/Graphics/SVG/1.1/DTD/svg11.dtd">
<svg version="1.1" id="Layer_1" xmlns="http://www.w3.org/2000/svg" xmlns:xlink="http://www.w3.org/1999/xlink" x="0px" y="0px"
	 width="35.242px" height="41.502px" viewBox="0 0 35.242 41.502" enable-background="new 0 0 35.242 41.502" xml:space="preserve">
<linearGradient id="gradient" gradientUnits="userSpaceOnUse" x1="17.1387" y1="41.502" x2="17.1387" y2="0">
	<stop  offset="0" style="stop-color:#404040"/>
	<stop  offset="1" style="stop-color:#A0A0A0"/>
</linearGradient>
<path fill="#C0C0C0" d="M31.228,4.081v0.002h-0.883V4.016C30.342,1.798,28.546,0.002,26.329,0H4.016C1.798,0.002,0,1.798,0,4.016
	v28.572c0,2.217,1.798,4.014,4.016,4.016h0.065v0.882c0,2.218,1.799,4.015,4.017,4.017h23.13c2.217-0.002,4.014-1.799,4.014-4.017
	V8.097C35.242,5.88,33.445,4.083,31.228,4.081z M4.082,35.102L4.082,35.102l-0.065,0.001c-1.388-0.002-2.513-1.128-2.515-2.515
	V4.016c0.002-1.39,1.127-2.513,2.515-2.515h22.313c1.388,0.002,2.513,1.125,2.515,2.515v0.816h0.001v27.755
	c-0.002,1.389-1.128,2.513-2.515,2.515H4.082z M33.743,37.485c-0.004,1.389-1.126,2.513-2.515,2.515H8.098
	c-1.389-0.002-2.513-1.126-2.515-2.515l-0.002-0.884l20.749,0.002c2.217-0.002,4.014-1.799,4.014-4.017V5.583h0.885
	c1.389,0.002,2.511,1.126,2.515,2.515V37.485z"/>
<path fill="#808080" d="M23.102,8.774L11.03,10.638v12.491c-0.646-0.355-1.429-0.555-2.239-0.559
	c-1.88,0.009-3.666,1.01-3.739,2.798c0.074,1.788,1.859,2.789,3.739,2.8c1.878-0.011,3.664-1.012,3.738-2.8
	c-0.002-0.063-0.023-0.118-0.03-0.181h0.03v-9.997l9.072-1.402v7.708c-0.646-0.355-1.429-0.554-2.238-0.558
	c-1.88,0.008-3.666,1.01-3.739,2.798c0.074,1.787,1.859,2.789,3.739,2.797c1.878-0.008,3.664-1.01,3.737-2.797h0.002
	c-0.003-0.064-0.022-0.119-0.03-0.181h0.03V8.774z M10.479,26.197c-0.393,0.272-1.001,0.471-1.688,0.469
	C8.104,26.668,7.493,26.47,7.1,26.197c-0.399-0.278-0.549-0.575-0.549-0.829s0.149-0.549,0.549-0.829
	c0.393-0.273,1.003-0.471,1.691-0.469c0.686-0.002,1.294,0.195,1.688,0.469c0.401,0.28,0.551,0.575,0.549,0.829h0.002
	C11.03,25.622,10.88,25.919,10.479,26.197z M21.052,24.565c-0.395,0.272-1.004,0.471-1.689,0.469
	c-0.688,0.002-1.296-0.196-1.689-0.469c-0.401-0.28-0.551-0.575-0.551-0.829s0.149-0.549,0.551-0.83
	c0.394-0.271,1.002-0.471,1.689-0.469c0.686-0.002,1.295,0.197,1.689,0.469c0.399,0.281,0.551,0.576,0.549,0.83
	C21.603,23.99,21.454,24.285,21.052,24.565z M21.601,12.271l-9.072,1.402v-1.749l9.072-1.401V12.271z"/>
</svg>
