<?xml version="1.0" encoding="utf-8"?>
<!DOCTYPE svg PUBLIC "-//W3C//DTD SVG 1.1//EN" "http://www.w3.org/Graphics/SVG/1.1/DTD/svg11.dtd">
<svg version="1.1" id="Layer_1" xmlns="http://www.w3.org/2000/svg" xmlns:xlink="http://www.w3.org/1999/xlink" x="0px" y="0px"
	 width="39.555px" height="66.444px" viewBox="0 0 39.555 66.444" enable-background="new 0 0 39.555 66.444" xml:space="preserve">
<linearGradient id="gradient" gradientUnits="userSpaceOnUse" x1="17.1387" y1="66.444" x2="17.1387" y2="0">
	<stop  offset="0" style="stop-color:#404040"/>
	<stop  offset="1" style="stop-color:#A0A0A0"/>
</linearGradient>
<path fill="#C0C0C0" d="M0,55.883c0.004-5.832,4.726-10.557,10.557-10.561l0,0c5.836,0,10.562,4.729,10.562,10.561l0,0
	c0,5.832-4.726,10.557-10.562,10.561l0,0C4.726,66.44,0.004,61.715,0,55.883L0,55.883z M3.604,55.883
	c0.005,3.842,3.115,6.953,6.953,6.957l0,0c3.847-0.004,6.954-3.115,6.962-6.957l0,0c-0.008-3.842-3.115-6.953-6.962-6.961l0,0
	C6.719,48.93,3.608,52.042,3.604,55.883L3.604,55.883z"/>
<path fill="#808080" d="M17.518,0v47.997c2.191,1.934,3.602,4.732,3.602,7.885l0,0V9.287l15.773,17.306l2.662-2.428L17.518,0z"/>
</svg>
