<?xml version="1.0" encoding="utf-8"?>
<!DOCTYPE svg PUBLIC "-//W3C//DTD SVG 1.1//EN" "http://www.w3.org/Graphics/SVG/1.1/DTD/svg11.dtd">
<svg version="1.1" id="Layer_1" xmlns="http://www.w3.org/2000/svg" xmlns:xlink="http://www.w3.org/1999/xlink" x="0px" y="0px"
	 width="45.213px" height="41.5px" viewBox="0 0 45.213 41.5" enable-background="new 0 0 45.213 41.5" xml:space="preserve">
<linearGradient id="gradient" gradientUnits="userSpaceOnUse" x1="17.1387" y1="41.5" x2="17.1387" y2="0">
	<stop  offset="0" style="stop-color:#404040"/>
	<stop  offset="1" style="stop-color:#A0A0A0"/>
</linearGradient>
<path fill="#C0C0C0" d="M28.405,0h-0.032c-2.692,0.02-4.703,0.951-5.764,2.178C21.548,0.951,19.538,0.02,16.844,0h-0.029L0,1.549
	v37.094h18.466c0.422,1.707,2.183,2.854,4.141,2.857c1.959-0.004,3.719-1.148,4.141-2.857h18.466V1.547L28.405,0z M43.712,37.142
	H25.344v0.751c-0.004,1.041-1.12,2.102-2.737,2.107c-1.617-0.006-2.733-1.066-2.737-2.107v-0.751H1.501V2.917L16.869,1.5
	c2.951-0.017,4.734,1.444,4.979,2.245l0.179,0.494h1.164l0.179-0.494c0.244-0.801,2.029-2.262,4.979-2.245l15.365,1.417V37.142z"/>
<path fill="#808080" d="M27.575,13.184c4.292,0.008,7.763,3.479,7.771,7.773c-0.008,4.292-3.479,7.764-7.771,7.771v1.5
	c5.121,0,9.269-4.152,9.271-9.271c-0.002-5.121-4.149-9.271-9.271-9.271V13.184z"/>
<path fill="#808080" d="M32.183,20.957c0-2.546-2.063-4.61-4.608-4.61v1.501c1.717,0.002,3.104,1.393,3.109,3.109
	c-0.005,1.718-1.393,3.107-3.109,3.109v1.501C30.121,25.567,32.183,23.502,32.183,20.957z"/>
<path fill="#808080" d="M23.43,9.896c-0.246-0.466-0.785-0.83-1.345-0.815C21.352,9.1,20.76,9.51,20.176,10.123l-4.696,5.013h-3.702
	c-1.58,0-2.857,1.28-2.857,2.857v5.929c0,1.577,1.28,2.857,2.857,2.857h3.702l4.696,5.013c0.585,0.609,1.175,1.022,1.909,1.039
	c0.011,0,0.021,0,0.032,0c0.549,0,1.071-0.357,1.313-0.813c0.263-0.464,0.36-1.011,0.362-1.653l0.002-18.812
	C23.791,10.907,23.693,10.361,23.43,9.896z M22.292,30.364c0.004,0.477-0.09,0.789-0.16,0.903c-0.025,0.043-0.042,0.058-0.048,0.064
	c-0.038,0.015-0.385-0.097-0.813-0.565l-5.142-5.486h-4.351c-0.75-0.003-1.357-0.609-1.357-1.358v-5.929
	c0-0.748,0.608-1.356,1.357-1.358h4.349l5.144-5.487c0.429-0.475,0.78-0.583,0.813-0.567v0c0.013,0.011,0.053,0.054,0.103,0.188
	c0.058,0.158,0.107,0.425,0.105,0.785V30.364z"/>
</svg>
