<?xml version="1.0" encoding="utf-8"?>
<!DOCTYPE svg PUBLIC "-//W3C//DTD SVG 1.1//EN" "http://www.w3.org/Graphics/SVG/1.1/DTD/svg11.dtd">
<svg version="1.1" id="Layer_1" xmlns="http://www.w3.org/2000/svg" xmlns:xlink="http://www.w3.org/1999/xlink" x="0px" y="0px"
	 width="90.427px" height="83px" viewBox="0 0 90.427 83" enable-background="new 0 0 90.427 83" xml:space="preserve">
<linearGradient id="gradient" gradientUnits="userSpaceOnUse" x1="17.1387" y1="83" x2="17.1387" y2="0">
	<stop  offset="0" style="stop-color:#404040"/>
	<stop  offset="1" style="stop-color:#A0A0A0"/>
</linearGradient>
<path fill="#C0C0C0" d="M56.81,0h-0.066c-5.383,0.039-9.404,1.902-11.525,4.356C43.097,1.902,39.076,0.039,33.689,0H33.63L0,3.098
	v74.189h36.933c0.844,3.414,4.365,5.706,8.281,5.713c3.916-0.007,7.438-2.296,8.281-5.713h36.932V3.094L56.81,0z M87.425,74.284
	H50.689v1.503c-0.008,2.08-2.242,4.202-5.475,4.214c-3.234-0.012-5.467-2.134-5.475-4.214v-1.503H3.003V5.833l30.735-2.834
	c5.902-0.033,9.467,2.888,9.957,4.49l0.357,0.988h2.328l0.357-0.988c0.488-1.603,4.059-4.523,9.957-4.49l30.73,2.834V74.284z"/>
<path fill="#808080" d="M55.15,26.368c8.584,0.017,15.525,6.959,15.541,15.547c-0.016,8.584-6.957,15.526-15.541,15.543v3
	c10.242,0,18.537-8.305,18.541-18.543c-0.004-10.242-8.299-18.542-18.541-18.542V26.368z"/>
<path fill="#808080" d="M64.367,41.913c0-5.092-4.125-9.221-9.217-9.221v3.002c3.434,0.005,6.209,2.785,6.219,6.219
	c-0.01,3.435-2.785,6.215-6.219,6.219v3.002C60.242,51.134,64.367,47.005,64.367,41.913z"/>
<path fill="#808080" d="M46.861,19.793c-0.492-0.933-1.57-1.659-2.691-1.631c-1.467,0.037-2.65,0.858-3.816,2.083L30.96,30.271
	h-7.404c-3.158,0-5.714,2.56-5.714,5.715v11.857c0,3.155,2.56,5.715,5.714,5.715h7.404l9.393,10.024
	c1.17,1.221,2.35,2.046,3.816,2.079c0.021,0.001,0.043,0.001,0.064,0.001c1.098,0,2.143-0.717,2.627-1.628
	c0.525-0.929,0.719-2.021,0.723-3.308l0.004-37.622C47.58,21.814,47.386,20.722,46.861,19.793z M44.585,60.727
	c0.008,0.953-0.182,1.578-0.32,1.808c-0.051,0.086-0.084,0.116-0.098,0.129c-0.076,0.028-0.77-0.194-1.625-1.131L32.259,50.559
	h-8.703c-1.498-0.005-2.715-1.217-2.715-2.716V35.985c0-1.496,1.217-2.712,2.715-2.716h8.699l10.287-10.974
	c0.859-0.949,1.561-1.167,1.627-1.135V21.16c0.025,0.021,0.107,0.107,0.205,0.375c0.115,0.316,0.215,0.851,0.211,1.569V60.727z"/>
</svg>
