<?xml version="1.0" encoding="utf-8"?>
<!DOCTYPE svg PUBLIC "-//W3C//DTD SVG 1.1//EN" "http://www.w3.org/Graphics/SVG/1.1/DTD/svg11.dtd">
<svg version="1.1" id="Layer_1" xmlns="http://www.w3.org/2000/svg" xmlns:xlink="http://www.w3.org/1999/xlink" x="0px" y="0px"
	 width="61.997px" height="87.221px" viewBox="0 0 61.997 87.221" enable-background="new 0 0 61.997 87.221" xml:space="preserve">
<linearGradient id="gradient" gradientUnits="userSpaceOnUse" x1="17.1387" y1="87.221" x2="17.1387" y2="0">
	<stop  offset="0" style="stop-color:#404040"/>
	<stop  offset="1" style="stop-color:#A0A0A0"/>
</linearGradient>
<path fill="#808080" d="M30.998,41.178l-10.33,5.431l1.975-11.5l-8.355-8.147l11.545-1.676l3.991-8.087l1.171-2.378l5.167,10.464
	l11.549,1.678l-8.358,8.145l1.975,11.503L30.998,41.178L30.998,41.178z M37.849,41.823l-1.308-7.628l5.542-5.404l-7.661-1.114
	l-3.424-6.939l-3.425,6.942l-7.661,1.112l5.544,5.404l-1.31,7.628l6.852-3.602L37.849,41.823L37.849,41.823z"/>
<path fill="#C0C0C0" d="M61.997,30.999C61.995,13.878,48.117,0.002,30.999,0C13.88,0.002,0.002,13.878,0,30.999
	c0.001,9.988,4.73,18.864,12.066,24.534L1.642,80.159l11.866-4.808l4.808,11.868l10.708-25.294c0.654,0.041,1.311,0.069,1.975,0.069
	s1.321-0.028,1.975-0.069l10.704,25.296l4.812-11.872l11.868,4.813l-10.426-24.63C57.266,49.863,61.996,40.986,61.997,30.999z
	 M18.378,79.379l-3.216-7.935l-7.935,3.213l7.353-17.373c3.394,2.125,7.227,3.609,11.334,4.287L18.378,79.379z M3.002,30.999
	C3.029,15.536,15.537,3.028,30.999,3.001c15.462,0.027,27.97,12.535,27.997,27.997c-0.027,15.46-12.535,27.968-27.997,27.997
	C15.537,58.966,3.029,46.458,3.002,30.999z M54.767,74.658l-7.933-3.213l-3.217,7.935l-7.537-17.808
	c4.107-0.678,7.94-2.162,11.335-4.287L54.767,74.658z"/>
<path fill="#C0C0C0" d="M6.17,30.997C6.17,17.284,17.286,6.169,31,6.169l0,0c13.71,0,24.826,11.115,24.828,24.828l0,0
	C55.826,44.712,44.71,55.826,31,55.828l0,0C17.286,55.826,6.17,44.712,6.17,30.997L6.17,30.997z M9.073,30.997
	C9.095,43.106,18.891,52.9,31,52.922l0,0c12.107-0.022,21.901-9.816,21.923-21.925l0,0C52.901,18.888,43.107,9.094,31,9.072l0,0
	C18.891,9.094,9.095,18.888,9.073,30.997L9.073,30.997z"/>
</svg>
