<?xml version="1.0" encoding="utf-8"?>
<!DOCTYPE svg PUBLIC "-//W3C//DTD SVG 1.1//EN" "http://www.w3.org/Graphics/SVG/1.1/DTD/svg11.dtd">
<svg version="1.1" id="Layer_1" xmlns="http://www.w3.org/2000/svg" xmlns:xlink="http://www.w3.org/1999/xlink" x="0px" y="0px"
	 width="31.798px" height="31.801px" viewBox="0 0 31.798 31.801" enable-background="new 0 0 31.798 31.801" xml:space="preserve">
<linearGradient id="gradient" gradientUnits="userSpaceOnUse" x1="17.1387" y1="31.801" x2="17.1387" y2="0">
	<stop  offset="0" style="stop-color:#404040"/>
	<stop  offset="1" style="stop-color:#A0A0A0"/>
</linearGradient>
<path fill="#808080" d="M27.143,4.659C24.042,1.555,19.965,0,15.9,0C11.833,0,7.759,1.555,4.657,4.659C1.555,7.761,0,11.834,0,15.9
	c0,4.067,1.555,8.142,4.657,11.245c3.106,3.104,7.182,4.657,11.252,4.655h0.008c4.059,0,8.127-1.559,11.227-4.657
	c3.101-3.1,4.657-7.171,4.655-11.235C31.8,11.838,30.248,7.761,27.143,4.659z M25.871,5.932c2.754,2.756,4.128,6.362,4.128,9.977
	c0,3.352-1.202,6.686-3.574,9.35L6.543,5.377c2.666-2.375,6.003-3.575,9.357-3.575C19.51,1.802,23.115,3.176,25.871,5.932z
	 M15.909,30c-3.615,0-7.221-1.371-9.979-4.129C3.176,23.115,1.802,19.513,1.8,15.9c0.002-3.306,1.167-6.596,3.475-9.245
	l19.871,19.87C22.498,28.833,19.21,30,15.909,30z"/>
<path fill="#C0C0C0" d="M18.916,20.33l-2.236,2.582v-4.808V18.06l-2.53-2.531l-4.145,4.11l1.267,1.279v-0.002l3.608-3.578v10.435
	l5.287-6.226l-1.218-1.219L18.916,20.33z M21.301,10.969l-6.422-7.569v10.287l-0.008,0.02l1.827,1.827L21.301,10.969z M16.679,8.303
	l2.174,2.561l-2.174,2.156V8.303z"/>
</svg>
