<?xml version="1.0" encoding="utf-8"?>
<!DOCTYPE svg PUBLIC "-//W3C//DTD SVG 1.1//EN" "http://www.w3.org/Graphics/SVG/1.1/DTD/svg11.dtd">
<svg version="1.1" id="Layer_1" xmlns="http://www.w3.org/2000/svg" xmlns:xlink="http://www.w3.org/1999/xlink" x="0px" y="0px"
	 width="63.597px" height="63.601px" viewBox="0 0 63.597 63.601" enable-background="new 0 0 63.597 63.601" xml:space="preserve">
<linearGradient id="gradient" gradientUnits="userSpaceOnUse" x1="17.1387" y1="63.601" x2="17.1387" y2="0">
	<stop  offset="0" style="stop-color:#404040"/>
	<stop  offset="1" style="stop-color:#A0A0A0"/>
</linearGradient>
<path fill="#808080" d="M54.286,9.317C48.083,3.109,39.931,0,31.801,0C23.665,0,15.518,3.109,9.313,9.317
	C3.11,15.521,0,23.669,0,31.8c0,8.135,3.11,16.283,9.313,22.49c6.212,6.209,14.364,9.314,22.504,9.311h0.016
	c8.117,0,16.254-3.117,22.453-9.314c6.201-6.199,9.314-14.342,9.311-22.471C63.601,23.677,60.495,15.521,54.286,9.317z
	 M51.741,11.863c5.508,5.512,8.256,12.725,8.256,19.953c0,6.703-2.404,13.371-7.148,18.701L13.087,10.754
	c5.331-4.75,12.006-7.149,18.714-7.149C39.021,3.604,46.229,6.352,51.741,11.863z M31.817,60.001c-7.229,0-14.442-2.744-19.958-8.26
	C6.352,46.23,3.604,39.025,3.601,31.8c0.004-6.611,2.335-13.192,6.95-18.489L50.292,53.05
	C44.995,57.666,38.421,60.001,31.817,60.001z"/>
<path fill="#C0C0C0" d="M37.831,40.66l-4.473,5.164v-9.615v-0.09l-5.061-5.061l-8.289,8.221l2.533,2.559v-0.004l7.217-7.156v20.867
	l10.574-12.451l-2.436-2.438L37.831,40.66z M42.603,21.938L29.759,6.799v20.573l-0.016,0.039l3.654,3.654L42.603,21.938z
	 M33.358,16.606l4.348,5.122l-4.348,4.312V16.606z"/>
</svg>
