<?xml version="1.0" encoding="utf-8"?>
<!DOCTYPE svg PUBLIC "-//W3C//DTD SVG 1.1//EN" "http://www.w3.org/Graphics/SVG/1.1/DTD/svg11.dtd">
<svg version="1.1" id="Layer_1" xmlns="http://www.w3.org/2000/svg" xmlns:xlink="http://www.w3.org/1999/xlink" x="0px" y="0px"
	 width="55.46px" height="83px" viewBox="0 0 55.46 83" enable-background="new 0 0 55.46 83" xml:space="preserve">
<linearGradient id="gradient" gradientUnits="userSpaceOnUse" x1="17.1387" y1="83" x2="17.1387" y2="0">
	<stop  offset="0" style="stop-color:#404040"/>
	<stop  offset="1" style="stop-color:#A0A0A0"/>
</linearGradient>
<path fill="#808080" d="M30.109,0h-4.754C11.35,0,0.004,11.354,0.004,25.355L0,57.649C0.004,71.647,11.354,82.997,25.355,83h4.754
	C44.11,82.997,55.46,71.647,55.46,57.649V25.355C55.46,11.351,44.11,0,30.109,0z M52.458,57.649
	C52.438,69.989,42.453,79.975,30.109,80h-4.754C13.008,79.975,3.025,69.989,3.001,57.649V25.355
	C3.025,13.012,13.012,3.022,25.355,3.002h4.754c12.34,0.021,22.329,10.01,22.354,22.354L52.458,57.649z"/>
<polygon fill="#C0C0C0" points="16.49,54.764 16.487,54.762 16.485,54.764 "/>
<path fill="#C0C0C0" d="M42.07,29.387L27.329,12.013v25.296L16.712,26.26l-2.163,2.08L26.415,40.69L14.376,52.629l2.111,2.133
	l10.842-10.754v27.223l14.691-18.633L30.626,40.739L42.07,29.387z M30.328,20.187l7.659,9.027l-7.659,7.596V20.187z M38.041,52.792
	l-7.713,9.779V44.764L38.041,52.792z"/>
</svg>
