<?xml version="1.0" encoding="utf-8"?>
<!DOCTYPE svg PUBLIC "-//W3C//DTD SVG 1.1//EN" "http://www.w3.org/Graphics/SVG/1.1/DTD/svg11.dtd">
<svg version="1.1" id="Layer_1" xmlns="http://www.w3.org/2000/svg" xmlns:xlink="http://www.w3.org/1999/xlink" x="0px" y="0px"
	 width="60.82px" height="63.076px" viewBox="0 0 60.82 63.076" enable-background="new 0 0 60.82 63.076" xml:space="preserve">
<linearGradient id="gradient" gradientUnits="userSpaceOnUse" x1="17.1387" y1="63.076" x2="17.1387" y2="0">
	<stop  offset="0" style="stop-color:#404040"/>
	<stop  offset="1" style="stop-color:#A0A0A0"/>
</linearGradient>
<path fill="#C0C0C0" d="M15.505,22.66C15.505,10.146,25.65,0,38.164,0l0,0C50.676,0,60.82,10.146,60.82,22.66l0,0
	c-0.004,12.511-10.145,22.656-22.656,22.656l0,0C25.65,45.316,15.509,35.171,15.505,22.66L15.505,22.66z M19.104,22.66
	c0.021,10.521,8.535,19.035,19.06,19.056l0,0c10.521-0.021,19.035-8.535,19.057-19.056l0,0C57.199,12.136,48.686,3.621,38.164,3.6
	l0,0C27.64,3.621,19.125,12.136,19.104,22.66L19.104,22.66z"/>
<path fill="#808080" d="M22.002,38.525L0,60.527l2.545,2.549L24.74,40.88C23.768,40.164,22.846,39.384,22.002,38.525z"/>
</svg>
