<?xml version="1.0" encoding="utf-8"?>
<!DOCTYPE svg PUBLIC "-//W3C//DTD SVG 1.1//EN" "http://www.w3.org/Graphics/SVG/1.1/DTD/svg11.dtd">
<svg version="1.1" id="Layer_1" xmlns="http://www.w3.org/2000/svg" xmlns:xlink="http://www.w3.org/1999/xlink" x="0px" y="0px"
	 width="68.706px" height="82.75px" viewBox="0 0 68.706 82.75" enable-background="new 0 0 68.706 82.75" xml:space="preserve">
<linearGradient id="gradient" gradientUnits="userSpaceOnUse" x1="17.1387" y1="82.75" x2="17.1387" y2="0">
	<stop  offset="0" style="stop-color:#404040"/>
	<stop  offset="1" style="stop-color:#A0A0A0"/>
</linearGradient>
<path fill="#C0C0C0" d="M67.809,79.75V79.6c-0.471,0.013-1.129-0.334-1.754-1.348c-0.606-0.986-1.044-2.508-1.04-4.209
	c-0.004-1.701,0.434-3.223,1.04-4.211c0.625-1.011,1.283-1.357,1.754-1.346v-0.073h0.604V0H8.668C3.881,0,0.002,3.879,0,8.669
	v65.414c0.002,4.787,3.881,8.666,8.668,8.666l60.038,0.002v-3H67.809z M9.274,2.999H65.41v62.412L9.274,65.413V2.999z M3,8.669
	c0.005-2.272,1.344-4.226,3.273-5.13V65.75C5.05,66.102,3.937,66.713,3,67.523V8.669z M3,74.083
	c0.006-3.133,2.539-5.665,5.668-5.671l54.754,0.002c-0.9,1.546-1.402,3.495-1.406,5.63c0.004,2.168,0.518,4.148,1.444,5.707
	L8.668,79.749C5.539,79.745,3.006,77.209,3,74.083z"/>
<path fill="#808080" d="M36.73,16.012v26.087c-0.937-0.566-2.03-0.898-3.205-0.898c-3.428,0-6.204,2.778-6.204,6.204
	s2.776,6.203,6.204,6.205c3.43-0.002,6.203-2.779,6.203-6.205h0.001v-23.65l7.545,8.276l2.219-2.021L36.73,16.012z M33.525,50.61
	c-1.769-0.004-3.202-1.436-3.204-3.205c0.002-1.769,1.435-3.201,3.204-3.206c1.772,0.005,3.201,1.436,3.203,3.206
	C36.727,49.174,35.298,50.606,33.525,50.61z"/>
</svg>
