<?xml version="1.0" encoding="utf-8"?>
<!DOCTYPE svg PUBLIC "-//W3C//DTD SVG 1.1//EN" "http://www.w3.org/Graphics/SVG/1.1/DTD/svg11.dtd">
<svg version="1.1" id="Layer_1" xmlns="http://www.w3.org/2000/svg" xmlns:xlink="http://www.w3.org/1999/xlink" x="0px" y="0px"
	 width="35.693px" height="31.8px" viewBox="0 0 35.693 31.8" enable-background="new 0 0 35.693 31.8" xml:space="preserve">
<linearGradient id="gradient" gradientUnits="userSpaceOnUse" x1="17.1387" y1="31.8" x2="17.1387" y2="0">
	<stop  offset="0" style="stop-color:#404040"/>
	<stop  offset="1" style="stop-color:#A0A0A0"/>
</linearGradient>
<path fill="#C0C0C0" d="M3.055,15.123c-1.688,0-3.053-1.367-3.055-3.053l0,0V3.053C0.002,1.367,1.367,0.002,3.055,0l0,0h29.584
	c1.688,0.002,3.053,1.367,3.055,3.053l0,0v9.017c-0.002,1.686-1.367,3.053-3.055,3.053l0,0H3.055L3.055,15.123z M1.8,3.053v9.017
	c0.002,0.692,0.563,1.253,1.255,1.253l0,0h29.584c0.691,0,1.253-0.562,1.255-1.253l0,0V3.053c-0.002-0.69-0.563-1.251-1.255-1.253
	l0,0H3.055C2.363,1.802,1.802,2.363,1.8,3.053L1.8,3.053z"/>
<polygon fill="#808080" points="4.978,7.89 4.978,6.089 30.719,6.089 30.719,7.89 4.978,7.89 "/>
<path fill="#C0C0C0" d="M3.055,31.8c-1.688,0-3.053-1.367-3.055-3.054l0,0V19.73c0.002-1.686,1.367-3.051,3.055-3.053l0,0h29.584
	c1.688,0.002,3.053,1.367,3.055,3.053l0,0v9.017c-0.002,1.687-1.367,3.054-3.055,3.054l0,0H3.055L3.055,31.8z M1.8,19.73v9.017
	C1.802,29.439,2.363,30,3.055,30l0,0h29.584c0.691,0,1.253-0.561,1.255-1.253l0,0V19.73c-0.002-0.689-0.563-1.252-1.255-1.254l0,0
	H3.055C2.363,18.478,1.802,19.041,1.8,19.73L1.8,19.73z"/>
<polygon fill="#808080" points="4.978,24.567 4.978,22.766 30.719,22.766 30.719,24.567 4.978,24.567 "/>
</svg>
