<?xml version="1.0" encoding="utf-8"?>
<!DOCTYPE svg PUBLIC "-//W3C//DTD SVG 1.1//EN" "http://www.w3.org/Graphics/SVG/1.1/DTD/svg11.dtd">
<svg version="1.1" id="Layer_1" xmlns="http://www.w3.org/2000/svg" xmlns:xlink="http://www.w3.org/1999/xlink" x="0px" y="0px"
	 width="46.937px" height="41.5px" viewBox="0 0 46.937 41.5" enable-background="new 0 0 46.937 41.5" xml:space="preserve">
<linearGradient id="gradient" gradientUnits="userSpaceOnUse" x1="17.1387" y1="41.5" x2="17.1387" y2="0">
	<stop  offset="0" style="stop-color:#404040"/>
	<stop  offset="1" style="stop-color:#A0A0A0"/>
</linearGradient>
<path fill="#C0C0C0" d="M43.549,25.895h-6.586c1.871-2.669,2.979-5.916,2.977-9.423C39.939,7.374,32.566,0,23.467,0
	C14.371,0,6.995,7.374,6.995,16.472c0,3.507,1.107,6.754,2.977,9.423H3.387c-1.87,0.002-3.385,1.517-3.387,3.39v8.827
	C0.002,39.984,1.517,41.5,3.387,41.5h40.162c1.871,0,3.386-1.516,3.388-3.388v-8.827C46.935,27.412,45.42,25.897,43.549,25.895z
	 M8.495,16.472C8.511,8.202,15.2,1.514,23.467,1.499c8.271,0.015,14.958,6.703,14.973,14.973c0,3.578-1.267,6.846-3.362,9.423
	H11.857C9.762,23.318,8.497,20.05,8.495,16.472z M45.436,38.112c-0.002,1.042-0.846,1.886-1.887,1.886H3.387
	c-1.041,0-1.884-0.844-1.887-1.886v-8.827c0.002-1.043,0.846-1.887,1.887-1.889h40.162c1.041,0.002,1.885,0.846,1.887,1.889V38.112z
	"/>
<polygon fill="#808080" points="6.358,33.87 6.358,32.371 40.577,32.371 40.577,33.87 6.358,33.87 "/>
<path fill="#808080" d="M23.469,11.676c-2.65,0-4.797,2.146-4.797,4.797c0,2.648,2.146,4.795,4.797,4.795
	c2.648,0,4.795-2.146,4.797-4.795C28.264,13.823,26.117,11.676,23.469,11.676z M23.469,19.769c-1.821-0.004-3.293-1.477-3.295-3.295
	c0.002-1.821,1.475-3.293,3.295-3.297c1.818,0.004,3.293,1.477,3.295,3.297C26.762,18.292,25.287,19.765,23.469,19.769z"/>
</svg>
