<?xml version="1.0" encoding="utf-8"?>
<!DOCTYPE svg PUBLIC "-//W3C//DTD SVG 1.1//EN" "http://www.w3.org/Graphics/SVG/1.1/DTD/svg11.dtd">
<svg version="1.1" id="Layer_1" xmlns="http://www.w3.org/2000/svg" xmlns:xlink="http://www.w3.org/1999/xlink" x="0px" y="0px"
	 width="77.593px" height="63.598px" viewBox="0 0 77.593 63.598" enable-background="new 0 0 77.593 63.598" xml:space="preserve">
<linearGradient id="gradient" gradientUnits="userSpaceOnUse" x1="17.1387" y1="63.598" x2="17.1387" y2="0">
	<stop  offset="0" style="stop-color:#404040"/>
	<stop  offset="1" style="stop-color:#A0A0A0"/>
</linearGradient>
<path fill="#C0C0C0" d="M68.294,29.545c-5.107-2.703-10.668-4.137-15.137-9.416C47.745,13.926,40.706,0.125,26.319,0
	C13.592-0.065,6.636,6.772,3.39,13.601C0.083,20.42,0.009,27.229,0,28.172c0,0.096,0.004,0.162,0.004,0.193L0,47.176v16.422h77.589
	V47.176C77.733,36.9,73.446,32.164,68.294,29.545z M3.6,28.172c-0.012-0.65,0.107-7.029,3.027-12.994
	C9.609,9.219,14.914,3.663,26.319,3.601c11.66-0.128,18.279,11.866,24.095,18.862c5.272,6.176,11.71,7.814,16.175,10.251
	c4.115,2.357,6.867,4.674,7.334,12.662C46.444,45.373,11.779,45.373,3.6,45.373V28.254l-0.498-0.082H3.6z M3.603,59.998V48.973
	h70.391l-0.004,11.025H3.603z"/>
<path fill="#808080" d="M29.495,57.375h3.602v-8.402h-3.602V57.375z M21.995,57.375h3.602v-8.402h-3.602V57.375z M6.995,57.375h3.6
	v-8.402h-3.6V57.375z M14.497,57.375h3.6v-8.402h-3.6V57.375z M36.995,57.375h3.602v-8.402h-3.602V57.375z M59.493,57.375h3.602
	v-8.402h-3.602V57.375z M44.495,57.375h3.6v-8.402h-3.6V57.375z M66.995,48.973v8.402h3.598v-8.402H66.995z M51.997,57.375h3.6
	v-8.402h-3.6V57.375z"/>
</svg>
