<?xml version="1.0" encoding="utf-8"?>
<!DOCTYPE svg PUBLIC "-//W3C//DTD SVG 1.1//EN" "http://www.w3.org/Graphics/SVG/1.1/DTD/svg11.dtd">
<svg version="1.1" id="Layer_1" xmlns="http://www.w3.org/2000/svg" xmlns:xlink="http://www.w3.org/1999/xlink" x="0px" y="0px"
	 width="38.796px" height="31.799px" viewBox="0 0 38.796 31.799" enable-background="new 0 0 38.796 31.799" xml:space="preserve">
<linearGradient id="gradient" gradientUnits="userSpaceOnUse" x1="17.1387" y1="31.799" x2="17.1387" y2="0">
	<stop  offset="0" style="stop-color:#404040"/>
	<stop  offset="1" style="stop-color:#A0A0A0"/>
</linearGradient>
<path fill="#C0C0C0" d="M34.147,14.772c-2.554-1.352-5.334-2.068-7.568-4.708C23.873,6.963,20.353,0.062,13.16,0
	C6.796-0.033,3.318,3.386,1.695,6.8C0.042,10.21,0.004,13.614,0,14.086c0,0.048,0.002,0.081,0.002,0.097L0,23.588v8.211h38.794
	v-8.211C38.867,18.45,36.723,16.082,34.147,14.772z M1.8,14.086c-0.006-0.325,0.054-3.515,1.514-6.497
	C4.805,4.609,7.457,1.831,13.16,1.8c5.83-0.064,9.14,5.933,12.047,9.431c2.637,3.088,5.855,3.907,8.088,5.126
	c2.058,1.179,3.434,2.337,3.667,6.331C23.222,22.687,5.89,22.687,1.8,22.687v-8.56l-0.249-0.041H1.8z M1.801,29.999v-5.513h35.195
	l-0.002,5.513H1.801z"/>
<path fill="#808080" d="M14.748,28.688h1.801v-4.201h-1.801V28.688z M10.998,28.688h1.801v-4.201h-1.801V28.688z M3.498,28.688h1.8
	v-4.201h-1.8V28.688z M7.249,28.688h1.8v-4.201h-1.8V28.688z M18.498,28.688h1.801v-4.201h-1.801V28.688z M29.747,28.688h1.801
	v-4.201h-1.801V28.688z M22.248,28.688h1.8v-4.201h-1.8V28.688z M33.498,24.486v4.201h1.799v-4.201H33.498z M25.999,28.688h1.8
	v-4.201h-1.8V28.688z"/>
</svg>
