<?xml version="1.0" encoding="utf-8"?>
<!DOCTYPE svg PUBLIC "-//W3C//DTD SVG 1.1//EN" "http://www.w3.org/Graphics/SVG/1.1/DTD/svg11.dtd">
<svg version="1.1" id="Layer_1" xmlns="http://www.w3.org/2000/svg" xmlns:xlink="http://www.w3.org/1999/xlink" x="0px" y="0px"
	 width="63.602px" height="63.602px" viewBox="0 0 63.602 63.602" enable-background="new 0 0 63.602 63.602" xml:space="preserve">
<linearGradient id="gradient" gradientUnits="userSpaceOnUse" x1="17.1387" y1="63.602" x2="17.1387" y2="0">
	<stop  offset="0" style="stop-color:#404040"/>
	<stop  offset="1" style="stop-color:#A0A0A0"/>
</linearGradient>
<path fill="#C0C0C0" d="M0,31.801C0,14.237,14.236,0.004,31.801,0l0,0c17.563,0.004,31.795,14.237,31.801,31.801l0,0
	c-0.006,17.563-14.238,31.795-31.801,31.801l0,0C14.236,63.596,0,49.364,0,31.801L0,31.801z M3.6,31.801
	c0.029,15.572,12.627,28.172,28.201,28.201l0,0C47.373,59.973,59.967,47.374,60,31.801l0,0C59.967,16.228,47.373,3.629,31.801,3.6
	l0,0C16.227,3.629,3.629,16.228,3.6,31.801L3.6,31.801z"/>
<polygon fill="#808080" points="33.6,30.001 33.6,12.714 29.998,12.714 29.998,33.602 44.252,33.602 44.252,30.001 "/>
</svg>
