<?xml version="1.0" encoding="utf-8"?>
<!DOCTYPE svg PUBLIC "-//W3C//DTD SVG 1.1//EN" "http://www.w3.org/Graphics/SVG/1.1/DTD/svg11.dtd">
<svg version="1.1" id="Layer_1" xmlns="http://www.w3.org/2000/svg" xmlns:xlink="http://www.w3.org/1999/xlink" x="0px" y="0px"
	 width="41.501px" height="41.502px" viewBox="0 0 41.501 41.502" enable-background="new 0 0 41.501 41.502" xml:space="preserve">
<linearGradient id="gradient" gradientUnits="userSpaceOnUse" x1="17.1387" y1="41.502" x2="17.1387" y2="0">
	<stop  offset="0" style="stop-color:#404040"/>
	<stop  offset="1" style="stop-color:#A0A0A0"/>
</linearGradient>
<path fill="#C0C0C0" d="M37.865,0H0v37.865h37.865V0z M12.122,36.365H1.502V25.744h10.62V36.365z M12.122,24.244H1.502V13.623h10.62
	V24.244z M12.122,12.123H1.502V1.5h10.62V12.123z M24.244,36.365h-10.62V25.744h10.62V36.365z M24.244,24.244h-10.62V13.623h10.62
	V24.244z M24.244,12.123h-10.62V1.5h10.62V12.123z M36.365,36.365H25.744V25.744h10.621V36.365z M36.365,24.244H25.744V13.623
	h10.621V24.244z M36.365,12.123H25.744V1.5h10.621V12.123z"/>
<polygon fill="#808080" points="40.001,4.388 40.001,40.001 4.388,40.001 4.388,41.502 41.501,41.5 41.501,4.388 "/>
</svg>
