<?xml version="1.0" encoding="utf-8"?>
<!DOCTYPE svg PUBLIC "-//W3C//DTD SVG 1.1//EN" "http://www.w3.org/Graphics/SVG/1.1/DTD/svg11.dtd">
<svg version="1.1" id="Layer_1" xmlns="http://www.w3.org/2000/svg" xmlns:xlink="http://www.w3.org/1999/xlink" x="0px" y="0px"
	 width="83.004px" height="83.004px" viewBox="0 0 83.004 83.004" enable-background="new 0 0 83.004 83.004" xml:space="preserve">
<linearGradient id="gradient" gradientUnits="userSpaceOnUse" x1="17.1387" y1="83.004" x2="17.1387" y2="0">
	<stop  offset="0" style="stop-color:#404040"/>
	<stop  offset="1" style="stop-color:#A0A0A0"/>
</linearGradient>
<path fill="#C0C0C0" d="M75.729,0H0v75.729h75.729V0z M24.244,72.729H3.004V51.487h21.24V72.729z M24.244,48.487H3.004V27.246h21.24
	V48.487z M24.244,24.246H3.004V3h21.24V24.246z M48.488,72.729H27.247V51.487h21.241V72.729z M48.488,48.487H27.247V27.246h21.241
	V48.487z M48.488,24.246H27.247V3h21.241V24.246z M72.729,72.729h-21.24V51.487h21.24V72.729z M72.729,48.487h-21.24V27.246h21.24
	V48.487z M72.729,24.246h-21.24V3h21.24V24.246z"/>
<polygon fill="#808080" points="80.002,8.776 80.002,80.002 8.775,80.002 8.775,83.004 83.004,83 83.004,8.776 "/>
</svg>
