<?xml version="1.0" encoding="utf-8"?>
<!DOCTYPE svg PUBLIC "-//W3C//DTD SVG 1.1//EN" "http://www.w3.org/Graphics/SVG/1.1/DTD/svg11.dtd">
<svg version="1.1" id="Layer_1" xmlns="http://www.w3.org/2000/svg" xmlns:xlink="http://www.w3.org/1999/xlink" x="0px" y="0px"
	 width="66.012px" height="66.015px" viewBox="0 0 66.012 66.015" enable-background="new 0 0 66.012 66.015" xml:space="preserve">
<linearGradient id="gradient" gradientUnits="userSpaceOnUse" x1="17.1387" y1="66.015" x2="17.1387" y2="0">
	<stop  offset="0" style="stop-color:#404040"/>
	<stop  offset="1" style="stop-color:#A0A0A0"/>
</linearGradient>
<path fill="#C0C0C0" d="M64.475,3.066l-1.529-1.525C61.924,0.514,60.568-0.004,59.23,0c-1.342-0.004-2.697,0.518-3.717,1.541
	L9.648,47.402L0,66.015l18.605-9.648l0.203-0.199l45.666-45.669c1.02-1.027,1.541-2.379,1.537-3.717
	C66.016,5.443,65.498,4.088,64.475,3.066z M8.426,57.589l3.477-6.703l3.227,3.227L8.426,57.589z M17.992,51.888l-3.867-3.867
	L53.734,8.412l3.869,3.871L17.992,51.888z M61.924,7.963l-1.775,1.775l-3.869-3.871l1.783-1.783c0.33-0.326,0.74-0.484,1.168-0.484
	c0.43,0,0.84,0.154,1.172,0.484l1.529,1.529c0.322,0.324,0.48,0.738,0.48,1.168C62.412,7.209,62.254,7.623,61.924,7.963z"/>
<path fill="#808080" d="M39.488,17.564H1.693v3.6h34.195L39.488,17.564z M1.693,33.259h22.1l3.598-3.597H1.693V33.259z
	 M29.838,27.215l3.602-3.602H1.695v3.602H29.838z M1.693,45.357h10l3.602-3.602H1.693V45.357z M1.691,39.306h16.053l3.598-3.598
	H1.691V39.306z M47.764,27.211h15.92v-3.6h-12.32L47.764,27.211z M57.408,17.564l-3.6,3.6h9.875v-3.6H57.408z M29.619,45.355h34.064
	v-3.6H33.219L29.619,45.355z M35.668,39.306h28.016v-3.6H39.268L35.668,39.306z M41.715,33.259h21.969V29.66H45.314L41.715,33.259z"
	/>
</svg>
