<?xml version="1.0" encoding="utf-8"?>
<!DOCTYPE svg PUBLIC "-//W3C//DTD SVG 1.1//EN" "http://www.w3.org/Graphics/SVG/1.1/DTD/svg11.dtd">
<svg version="1.1" id="Layer_1" xmlns="http://www.w3.org/2000/svg" xmlns:xlink="http://www.w3.org/1999/xlink" x="0px" y="0px"
	 width="33.006px" height="33.008px" viewBox="0 0 33.006 33.008" enable-background="new 0 0 33.006 33.008" xml:space="preserve">
<linearGradient id="gradient" gradientUnits="userSpaceOnUse" x1="17.1387" y1="33.008" x2="17.1387" y2="0">
	<stop  offset="0" style="stop-color:#404040"/>
	<stop  offset="1" style="stop-color:#A0A0A0"/>
</linearGradient>
<path fill="#C0C0C0" d="M32.237,1.533l-0.765-0.763C30.962,0.257,30.284-0.002,29.615,0c-0.671-0.002-1.349,0.259-1.858,0.771
	L4.824,23.701L0,33.008l9.303-4.824l0.102-0.1L32.237,5.249c0.51-0.514,0.771-1.189,0.769-1.858
	C33.008,2.722,32.749,2.044,32.237,1.533z M4.213,28.795l1.738-3.352l1.613,1.613L4.213,28.795z M8.996,25.944l-1.934-1.934
	L26.867,4.206l1.935,1.936L8.996,25.944z M30.962,3.981l-0.888,0.888L28.14,2.934l0.892-0.892c0.165-0.163,0.37-0.242,0.584-0.242
	c0.215,0,0.42,0.077,0.586,0.242l0.765,0.765c0.161,0.162,0.24,0.369,0.24,0.584C31.206,3.604,31.127,3.812,30.962,3.981z"/>
<path fill="#808080" d="M19.744,8.782H0.847v1.8h17.098L19.744,8.782z M0.847,16.63h11.05l1.799-1.799H0.847V16.63z M14.919,13.607
	l1.801-1.801H0.848v1.801H14.919z M0.847,22.679h5l1.801-1.801H0.847V22.679z M0.846,19.653h8.026l1.799-1.799H0.846V19.653z
	 M23.882,13.605h7.96v-1.8h-6.16L23.882,13.605z M28.704,8.782l-1.8,1.8h4.938v-1.8H28.704z M14.81,22.678h17.032v-1.8H16.609
	L14.81,22.678z M17.834,19.653h14.008v-1.8H19.634L17.834,19.653z M20.857,16.63h10.984v-1.8h-9.185L20.857,16.63z"/>
</svg>
