<?xml version="1.0" encoding="utf-8"?>
<!DOCTYPE svg PUBLIC "-//W3C//DTD SVG 1.1//EN" "http://www.w3.org/Graphics/SVG/1.1/DTD/svg11.dtd">
<svg version="1.1" id="Layer_1" xmlns="http://www.w3.org/2000/svg" xmlns:xlink="http://www.w3.org/1999/xlink" x="0px" y="0px"
	 width="66.793px" height="66.807px" viewBox="0 0 66.793 66.807" enable-background="new 0 0 66.793 66.807" xml:space="preserve">
<linearGradient id="gradient" gradientUnits="userSpaceOnUse" x1="17.1387" y1="66.807" x2="17.1387" y2="0">
	<stop  offset="0" style="stop-color:#404040"/>
	<stop  offset="1" style="stop-color:#A0A0A0"/>
</linearGradient>
<path fill="#C0C0C0" d="M29.975,66.631l-1.012-0.104l-2.074-9.588c-1.957-0.539-3.813-1.314-5.535-2.295l0,0l-8.244,5.305
	l-0.787-0.641c-1.771-1.447-3.389-3.064-4.826-4.84l0,0L6.85,53.68l5.305-8.236c-0.98-1.727-1.756-3.578-2.295-5.535l0,0
	l-9.588-2.072l-0.1-1.012C0.059,35.694,0,34.561,0,33.407l0,0c0-1.159,0.059-2.293,0.172-3.418l0,0l0.104-1.01l9.584-2.08
	c0.541-1.953,1.314-3.809,2.295-5.531l0,0l-5.309-8.248l0.645-0.783c1.443-1.771,3.061-3.395,4.836-4.836l0,0l0.783-0.639
	l8.244,5.303c1.727-0.98,3.58-1.758,5.537-2.297l0,0l2.076-9.588l1.012-0.1C31.1,0.063,32.242,0,33.402,0l0,0
	c1.15,0,2.291,0.063,3.412,0.18l0,0l1.006,0.1l2.076,9.584c1.957,0.539,3.814,1.318,5.541,2.299l0,0l8.238-5.301L54.465,7.5
	c1.766,1.441,3.393,3.064,4.834,4.836l0,0l0.643,0.783l-5.303,8.244c0.982,1.725,1.758,3.58,2.297,5.535l0,0l9.574,2.076l0.109,1.01
	c0.121,1.125,0.174,2.271,0.174,3.422l0,0c0,1.15-0.057,2.293-0.174,3.414l0,0l-0.105,1.012l-9.578,2.076
	c-0.539,1.957-1.314,3.811-2.297,5.537l0,0l5.303,8.24l-0.643,0.791c-1.441,1.768-3.068,3.385-4.83,4.828l0,0l-0.789,0.648
	l-8.242-5.309c-1.729,0.984-3.584,1.762-5.541,2.301l0,0l-2.072,9.578l-1.01,0.104c-1.121,0.117-2.262,0.18-3.418,0.18l0,0
	C32.238,66.807,31.1,66.745,29.975,66.631L29.975,66.631z M33.396,64.006c0.713,0,1.422-0.025,2.123-0.074l0,0l2.012-9.289
	l0.859-0.203c2.275-0.537,4.406-1.434,6.344-2.631l0,0l0.752-0.463l7.982,5.139c1.07-0.936,2.076-1.939,3.01-3.008l0,0l-5.141-7.986
	l0.467-0.75c1.195-1.936,2.092-4.064,2.625-6.34l0,0l0.205-0.859l9.289-2.012c0.049-0.701,0.072-1.41,0.072-2.123l0,0
	c0-0.715-0.023-1.424-0.072-2.125l0,0l-9.289-2.02l-0.205-0.857c-0.537-2.271-1.434-4.402-2.629-6.34l0,0l-0.463-0.75l5.143-7.984
	c-0.936-1.072-1.941-2.076-3.012-3.008l0,0l-7.988,5.139l-0.75-0.463c-1.934-1.195-4.064-2.092-6.34-2.629l0,0l-0.859-0.205
	l-2.01-9.285c-0.701-0.051-1.41-0.076-2.119-0.076l0,0c-0.717,0-1.428,0.025-2.133,0.076l0,0l-2.012,9.285l-0.859,0.205
	c-2.275,0.541-4.404,1.438-6.34,2.629l0,0l-0.754,0.463l-7.984-5.139c-1.07,0.932-2.074,1.938-3.008,3.01l0,0l5.141,7.986
	l-0.463,0.754c-1.193,1.93-2.088,4.057-2.627,6.332l0,0l-0.203,0.857l-9.289,2.02c-0.047,0.699-0.07,1.406-0.07,2.125l0,0
	c0,0.717,0.023,1.426,0.07,2.127l0,0l9.289,2.008l0.203,0.863c0.539,2.271,1.434,4.4,2.627,6.332l0,0l0.463,0.746l-5.139,7.99
	c0.932,1.072,1.936,2.078,3.006,3.012l0,0l7.98-5.143l0.758,0.467c1.936,1.193,4.064,2.088,6.34,2.631l0,0l0.859,0.203l2.012,9.289
	C31.973,63.981,32.682,64.006,33.396,64.006L33.396,64.006z"/>
<path fill="#808080" d="M16.758,33.407c0-9.196,7.447-16.645,16.641-16.645l0,0c9.189,0,16.641,7.449,16.641,16.645l0,0
	c0,9.189-7.451,16.641-16.641,16.641l0,0v-1.4v-1.398c7.645-0.014,13.83-6.201,13.842-13.842l0,0
	c-0.012-7.645-6.197-13.829-13.842-13.846l0,0c-7.645,0.018-13.828,6.201-13.842,13.846l0,0c0.014,7.641,6.197,13.828,13.842,13.842
	l0,0v1.398v1.4C24.205,50.047,16.758,42.596,16.758,33.407L16.758,33.407z"/>
</svg>
