<?xml version="1.0" encoding="utf-8"?>
<!DOCTYPE svg PUBLIC "-//W3C//DTD SVG 1.1//EN" "http://www.w3.org/Graphics/SVG/1.1/DTD/svg11.dtd">
<svg version="1.1" id="Layer_1" xmlns="http://www.w3.org/2000/svg" xmlns:xlink="http://www.w3.org/1999/xlink" x="0px" y="0px"
	 width="33.396px" height="33.404px" viewBox="0 0 33.396 33.404" enable-background="new 0 0 33.396 33.404" xml:space="preserve">
<linearGradient id="gradient" gradientUnits="userSpaceOnUse" x1="17.1387" y1="33.404" x2="17.1387" y2="0">
	<stop  offset="0" style="stop-color:#404040"/>
	<stop  offset="1" style="stop-color:#A0A0A0"/>
</linearGradient>
<path fill="#C0C0C0" d="M14.987,33.316l-0.506-0.053l-1.037-4.793c-0.979-0.27-1.906-0.658-2.768-1.148l0,0l-4.122,2.652
	l-0.394-0.32c-0.886-0.723-1.694-1.531-2.413-2.42l0,0l-0.323-0.395l2.652-4.117c-0.49-0.863-0.878-1.789-1.147-2.768l0,0
	l-4.794-1.037l-0.05-0.506C0.029,17.847,0,17.281,0,16.703l0,0c0-0.579,0.029-1.146,0.086-1.709l0,0l0.052-0.505l4.792-1.04
	c0.271-0.977,0.657-1.904,1.147-2.766l0,0L3.423,6.56l0.322-0.392c0.722-0.886,1.53-1.697,2.418-2.418l0,0l0.392-0.319l4.122,2.651
	c0.863-0.49,1.79-0.879,2.769-1.148l0,0l1.038-4.794l0.506-0.05C15.55,0.031,16.121,0,16.701,0l0,0c0.575,0,1.146,0.031,1.706,0.09
	l0,0l0.503,0.05l1.038,4.792c0.979,0.27,1.907,0.659,2.771,1.149l0,0l4.119-2.65l0.395,0.319c0.883,0.721,1.696,1.532,2.417,2.418
	l0,0l0.321,0.392l-2.651,4.122c0.491,0.862,0.879,1.79,1.148,2.768l0,0l4.787,1.038l0.055,0.505
	c0.061,0.563,0.087,1.136,0.087,1.711l0,0c0,0.576-0.028,1.146-0.087,1.707l0,0l-0.053,0.506l-4.789,1.039
	c-0.27,0.979-0.657,1.904-1.148,2.768l0,0l2.651,4.121l-0.321,0.395c-0.721,0.885-1.534,1.693-2.415,2.414l0,0l-0.395,0.324
	l-4.121-2.654c-0.864,0.492-1.792,0.881-2.771,1.15l0,0l-1.036,4.789l-0.505,0.053c-0.561,0.059-1.131,0.09-1.709,0.09l0,0
	C16.119,33.404,15.55,33.373,14.987,33.316L14.987,33.316z M16.698,32.003c0.356,0,0.711-0.014,1.062-0.037l0,0l1.006-4.645
	l0.43-0.102c1.138-0.27,2.203-0.717,3.172-1.316l0,0l0.376-0.23l3.991,2.568c0.535-0.467,1.038-0.969,1.505-1.504l0,0l-2.57-3.992
	l0.233-0.375c0.598-0.969,1.046-2.033,1.313-3.17l0,0l0.103-0.43l4.645-1.006c0.024-0.352,0.036-0.706,0.036-1.062l0,0
	c0-0.357-0.012-0.712-0.036-1.063l0,0l-4.645-1.01l-0.103-0.429c-0.269-1.136-0.717-2.201-1.314-3.17l0,0l-0.231-0.375l2.571-3.992
	c-0.468-0.536-0.971-1.038-1.506-1.504l0,0L22.74,7.73l-0.375-0.231c-0.967-0.598-2.032-1.046-3.17-1.314l0,0l-0.43-0.103
	l-1.005-4.643c-0.351-0.025-0.705-0.038-1.06-0.038l0,0c-0.358,0-0.714,0.013-1.066,0.038l0,0l-1.006,4.643l-0.43,0.103
	c-1.138,0.271-2.202,0.719-3.17,1.314l0,0L10.652,7.73L6.66,5.161C6.125,5.627,5.623,6.13,5.156,6.666l0,0l2.57,3.993l-0.231,0.377
	c-0.597,0.965-1.044,2.028-1.313,3.166l0,0L6.08,14.631l-4.645,1.01C1.412,15.99,1.4,16.344,1.4,16.703l0,0
	c0,0.358,0.012,0.712,0.035,1.064l0,0l4.645,1.004l0.102,0.432c0.27,1.135,0.717,2.199,1.313,3.166l0,0l0.231,0.373l-2.569,3.994
	c0.466,0.537,0.968,1.039,1.503,1.506l0,0l3.99-2.57l0.379,0.232c0.968,0.598,2.032,1.045,3.17,1.316l0,0l0.43,0.102l1.006,4.645
	C15.986,31.99,16.341,32.003,16.698,32.003L16.698,32.003z"/>
<path fill="#808080" d="M8.379,16.703c0-4.598,3.724-8.322,8.32-8.322l0,0c4.595,0,8.32,3.725,8.32,8.322l0,0
	c0,4.595-3.726,8.32-8.32,8.32l0,0v-0.699v-0.699c3.822-0.008,6.915-3.102,6.921-6.921l0,0c-0.006-3.822-3.099-6.914-6.921-6.923
	l0,0c-3.822,0.009-6.914,3.101-6.921,6.923l0,0c0.007,3.82,3.099,6.914,6.921,6.921l0,0v0.699v0.699
	C12.103,25.023,8.379,21.298,8.379,16.703L8.379,16.703z"/>
</svg>
