<?xml version="1.0" encoding="utf-8"?>
<!DOCTYPE svg PUBLIC "-//W3C//DTD SVG 1.1//EN" "http://www.w3.org/Graphics/SVG/1.1/DTD/svg11.dtd">
<svg version="1.1" id="Layer_1" xmlns="http://www.w3.org/2000/svg" xmlns:xlink="http://www.w3.org/1999/xlink" x="0px" y="0px"
	 width="35.005px" height="31.799px" viewBox="0 0 35.005 31.799" enable-background="new 0 0 35.005 31.799" xml:space="preserve">
<linearGradient id="gradient" gradientUnits="userSpaceOnUse" x1="17.1387" y1="31.799" x2="17.1387" y2="0">
	<stop  offset="0" style="stop-color:#404040"/>
	<stop  offset="1" style="stop-color:#A0A0A0"/>
</linearGradient>
<path fill="#C0C0C0" d="M17.557,4.434c-6.229,0.045-10.94,6.278-10.953,13.684c0.013,7.403,4.727,13.637,10.953,13.682
	c6.229-0.045,10.942-6.278,10.952-13.682C28.5,10.712,23.786,4.479,17.557,4.434z M8.406,18.118c0-1.042,0.114-2.046,0.308-3.007
	h17.688c0.193,0.961,0.309,1.965,0.309,3.007c0,0.242-0.018,0.479-0.028,0.717l-5.595,0.276c-0.563-1.663-1.797-2.987-3.529-3.023
	c-1.734,0.036-2.967,1.36-3.53,3.023l-5.595-0.272C8.423,18.599,8.406,18.361,8.406,18.118z M11.157,9.634
	c1.69-2.142,3.945-3.399,6.4-3.401c2.456,0.002,4.711,1.259,6.401,3.401c0.819,1.04,1.489,2.288,1.965,3.678H9.192
	C9.668,11.922,10.338,10.674,11.157,9.634z M23.958,26.599c-1.69,2.142-3.945,3.399-6.401,3.399c-2.455,0-4.71-1.258-6.4-3.399
	c-1.245-1.58-2.15-3.637-2.539-5.948l6.814,0.332l0.156-0.754c0.319-1.531,1.25-2.384,1.97-2.343
	c0.718-0.041,1.648,0.812,1.97,2.343l0.154,0.754l6.815-0.338C26.11,22.959,25.205,25.018,23.958,26.599z"/>
<path fill="#808080" d="M32.157,12.25h-1.53C30.179,5.411,24.507,0,17.558,0C10.607,0,4.936,5.411,4.488,12.25H2.851
	C1.277,12.25,0.002,13.524,0,15.1v7.826c0.002,1.573,1.275,2.847,2.851,2.849h2.451c1.079-0.001,2.005-0.606,2.488-1.489
	c-0.754-1.865-1.183-3.962-1.187-6.168c0.003-1.747,0.275-3.424,0.76-4.975c-0.3-0.313-0.669-0.558-1.083-0.71
	C6.644,6.503,11.54,1.811,17.558,1.799C23.564,1.811,28.453,6.486,28.833,12.4c-0.42,0.136-0.796,0.366-1.105,0.664
	c0.5,1.572,0.779,3.277,0.781,5.054c-0.003,2.251-0.446,4.391-1.229,6.285c0.5,0.819,1.394,1.372,2.426,1.372h2.451
	c1.575,0,2.849-1.275,2.849-2.849V15.1C35.005,13.526,33.73,12.25,32.157,12.25z M6.352,15.1v7.826
	c-0.002,0.577-0.472,1.046-1.05,1.049H2.851c-0.579-0.003-1.049-0.472-1.051-1.049V15.1c0.002-0.581,0.469-1.049,1.051-1.051h2.451
	C5.882,14.051,6.35,14.519,6.352,15.1z M33.207,22.926c-0.002,0.577-0.471,1.046-1.05,1.049h-2.451
	c-0.579-0.003-1.048-0.472-1.051-1.049V15.1c0.003-0.581,0.47-1.049,1.051-1.051h2.451c0.581,0.002,1.048,0.47,1.05,1.051V22.926z"
	/>
</svg>
