<?xml version="1.0" encoding="utf-8"?>
<!DOCTYPE svg PUBLIC "-//W3C//DTD SVG 1.1//EN" "http://www.w3.org/Graphics/SVG/1.1/DTD/svg11.dtd">
<svg version="1.1" id="Layer_1" xmlns="http://www.w3.org/2000/svg" xmlns:xlink="http://www.w3.org/1999/xlink" x="0px" y="0px"
	 width="70.011px" height="63.598px" viewBox="0 0 70.011 63.598" enable-background="new 0 0 70.011 63.598" xml:space="preserve">
<linearGradient id="gradient" gradientUnits="userSpaceOnUse" x1="17.1387" y1="63.598" x2="17.1387" y2="0">
	<stop  offset="0" style="stop-color:#404040"/>
	<stop  offset="1" style="stop-color:#A0A0A0"/>
</linearGradient>
<path fill="#C0C0C0" d="M35.114,8.868C22.656,8.959,13.233,21.425,13.208,36.235c0.025,14.807,9.453,27.273,21.906,27.363
	c12.457-0.09,21.885-12.557,21.904-27.363C56.999,21.425,47.571,8.959,35.114,8.868z M16.812,36.235
	c-0.001-2.084,0.228-4.092,0.616-6.013h35.376c0.387,1.921,0.617,3.929,0.617,6.013c0,0.484-0.035,0.957-0.057,1.434l-11.19,0.553
	c-1.124-3.326-3.593-5.975-7.057-6.047c-3.468,0.072-5.935,2.721-7.06,6.047l-11.189-0.545
	C16.846,37.198,16.812,36.721,16.812,36.235z M22.314,19.269c3.38-4.283,7.89-6.798,12.8-6.802
	c4.913,0.004,9.422,2.519,12.803,6.802c1.639,2.08,2.979,4.576,3.93,7.355H18.385C19.336,23.845,20.676,21.349,22.314,19.269z
	 M47.917,53.198c-3.381,4.283-7.89,6.799-12.803,6.799c-4.91,0-9.42-2.516-12.8-6.799c-2.489-3.16-4.3-7.273-5.078-11.896
	l13.628,0.664l0.313-1.508c0.639-3.063,2.499-4.768,3.94-4.686c1.437-0.082,3.297,1.623,3.939,4.686l0.309,1.508l13.632-0.676
	C52.22,45.918,50.409,50.036,47.917,53.198z"/>
<path fill="#808080" d="M64.313,24.499h-3.061C60.358,10.822,49.015,0,35.116,0C21.214,0,9.872,10.822,8.976,24.499H5.702
	c-3.148,0-5.698,2.549-5.702,5.701v15.652c0.004,3.146,2.55,5.693,5.702,5.697h4.902c2.158-0.002,4.01-1.213,4.977-2.979
	c-1.508-3.73-2.365-7.924-2.373-12.336c0.006-3.494,0.551-6.847,1.52-9.949c-0.6-0.625-1.338-1.115-2.166-1.42
	C13.288,13.007,23.079,3.622,35.116,3.598C47.128,3.622,56.905,12.973,57.667,24.8c-0.84,0.271-1.592,0.732-2.211,1.328
	c1,3.145,1.559,6.554,1.563,10.107c-0.006,4.502-0.893,8.781-2.459,12.57c1,1.639,2.787,2.744,4.852,2.744h4.902
	c3.15,0,5.697-2.551,5.697-5.697V30.2C70.011,27.052,67.46,24.499,64.313,24.499z M12.704,30.2v15.652
	c-0.004,1.154-0.943,2.092-2.1,2.098H5.702c-1.158-0.006-2.098-0.943-2.102-2.098V30.2c0.004-1.162,0.938-2.098,2.102-2.102h4.902
	C11.765,28.103,12.7,29.038,12.704,30.2z M66.413,45.852c-0.004,1.154-0.941,2.092-2.1,2.098h-4.902
	c-1.158-0.006-2.096-0.943-2.102-2.098V30.2c0.006-1.162,0.939-2.098,2.102-2.102h4.902c1.162,0.004,2.096,0.939,2.1,2.102V45.852z"
	/>
</svg>
