<?xml version="1.0" encoding="utf-8"?>
<!DOCTYPE svg PUBLIC "-//W3C//DTD SVG 1.1//EN" "http://www.w3.org/Graphics/SVG/1.1/DTD/svg11.dtd">
<svg version="1.1" id="Layer_1" xmlns="http://www.w3.org/2000/svg" xmlns:xlink="http://www.w3.org/1999/xlink" x="0px" y="0px"
	 width="60.004px" height="60.003px" viewBox="0 0 60.004 60.003" enable-background="new 0 0 60.004 60.003" xml:space="preserve">
<linearGradient id="gradient" gradientUnits="userSpaceOnUse" x1="17.1387" y1="60.003" x2="17.1387" y2="0">
	<stop  offset="0" style="stop-color:#404040"/>
	<stop  offset="1" style="stop-color:#A0A0A0"/>
</linearGradient>
<path fill="#C0C0C0" d="M13.514,52.019c-3.055,0-5.527-2.473-5.531-5.529l0,0V13.51c0.004-3.055,2.477-5.527,5.531-5.527l0,0h32.98
	c3.057,0,5.529,2.477,5.529,5.527l0,0v32.98c0,3.051-2.473,5.529-5.529,5.529l0,0H13.514L13.514,52.019z M11.584,13.51v32.98
	c0,1.063,0.863,1.928,1.93,1.928l0,0h32.98c1.063,0,1.922-0.861,1.928-1.928l0,0V13.51c-0.006-1.066-0.865-1.926-1.928-1.93l0,0
	h-32.98C12.447,11.584,11.584,12.447,11.584,13.51L11.584,13.51z"/>
<path fill="#808080" d="M20.633,39.371V20.629h18.742v16.943v1.799H20.633L20.633,39.371z M24.23,35.771h11.541V24.229H24.23V35.771
	L24.23,35.771z"/>
<g>
	<polygon fill="#C0C0C0" points="11.354,6.086 11.354,0 14.955,0 14.955,6.086 11.354,6.086 	"/>
	<polygon fill="#C0C0C0" points="18.094,6.084 18.094,0 21.693,0 21.693,6.084 18.094,6.084 	"/>
	<polygon fill="#C0C0C0" points="24.834,6.086 24.834,0 28.434,0 28.434,6.086 24.834,6.086 	"/>
	<polygon fill="#C0C0C0" points="31.572,6.084 31.572,0 35.174,0 35.174,6.084 31.572,6.084 	"/>
	<polygon fill="#C0C0C0" points="38.313,6.086 38.313,0 41.912,0 41.912,6.086 38.313,6.086 	"/>
	<polygon fill="#C0C0C0" points="45.053,6.086 45.053,0 48.652,0 48.652,6.086 45.053,6.086 	"/>
</g>
<g>
	<polygon fill="#C0C0C0" points="11.354,60.003 11.354,53.917 14.957,53.917 14.957,60.003 11.354,60.003 	"/>
	<polygon fill="#C0C0C0" points="18.092,60.003 18.092,53.917 21.695,53.917 21.695,60.003 18.092,60.003 	"/>
	<polygon fill="#C0C0C0" points="24.834,60.003 24.834,53.917 28.434,53.917 28.434,60.003 24.834,60.003 	"/>
	<polygon fill="#C0C0C0" points="31.572,60.003 31.572,53.917 35.172,53.917 35.172,60.003 31.572,60.003 	"/>
	<polygon fill="#C0C0C0" points="38.313,60 38.313,53.917 41.912,53.917 41.912,60 38.313,60 	"/>
	<polygon fill="#C0C0C0" points="45.053,60.001 45.053,53.916 48.652,53.916 48.652,60.001 45.053,60.001 	"/>
</g>
<g>
	<g>
		<polygon fill="#C0C0C0" points="0.004,48.65 0.004,45.05 6.09,45.05 6.09,48.65 0.004,48.65 		"/>
		<polygon fill="#C0C0C0" points="0,41.91 0,38.308 6.088,38.308 6.088,41.91 0,41.91 		"/>
		<polygon fill="#C0C0C0" points="0.002,35.169 0.002,31.568 6.09,31.568 6.09,35.169 0.002,35.169 		"/>
		<polygon fill="#C0C0C0" points="0.002,28.432 0.002,24.832 6.088,24.832 6.088,28.432 0.002,28.432 		"/>
		<polygon fill="#C0C0C0" points="0.004,21.691 0.004,18.092 6.09,18.092 6.09,21.691 0.004,21.691 		"/>
		<polygon fill="#C0C0C0" points="0.004,14.951 0.004,11.352 6.09,11.352 6.09,14.951 0.004,14.951 		"/>
	</g>
	<g>
		<polygon fill="#C0C0C0" points="53.92,48.65 53.92,45.046 60.004,45.046 60.004,48.65 53.92,48.65 		"/>
		<polygon fill="#C0C0C0" points="53.92,41.908 53.92,38.308 60.004,38.308 60.004,41.908 53.92,41.908 		"/>
		<polygon fill="#C0C0C0" points="53.92,35.167 53.92,31.57 60.004,31.57 60.004,35.167 53.92,35.167 		"/>
		<polygon fill="#C0C0C0" points="53.92,28.43 53.92,24.83 60.004,24.83 60.004,28.43 53.92,28.43 		"/>
		<polygon fill="#C0C0C0" points="53.92,21.691 53.92,18.092 60.004,18.092 60.004,21.691 53.92,21.691 		"/>
		<polygon fill="#C0C0C0" points="53.92,14.951 53.92,11.35 60.004,11.35 60.004,14.951 53.92,14.951 		"/>
	</g>
</g>
</svg>
