<?xml version="1.0" encoding="utf-8"?>
<!DOCTYPE svg PUBLIC "-//W3C//DTD SVG 1.1//EN" "http://www.w3.org/Graphics/SVG/1.1/DTD/svg11.dtd">
<svg version="1.1" id="Layer_1" xmlns="http://www.w3.org/2000/svg" xmlns:xlink="http://www.w3.org/1999/xlink" x="0px" y="0px"
	 width="30.002px" height="30.002px" viewBox="0 0 30.002 30.002" enable-background="new 0 0 30.002 30.002" xml:space="preserve">
<linearGradient id="gradient" gradientUnits="userSpaceOnUse" x1="17.1387" y1="30.002" x2="17.1387" y2="0">
	<stop  offset="0" style="stop-color:#404040"/>
	<stop  offset="1" style="stop-color:#A0A0A0"/>
</linearGradient>
<path fill="#C0C0C0" d="M6.757,26.01c-1.527,0-2.764-1.236-2.766-2.765l0,0V6.755c0.002-1.527,1.238-2.764,2.766-2.764l0,0h16.49
	c1.528,0,2.765,1.238,2.765,2.764l0,0v16.49c0,1.525-1.236,2.765-2.765,2.765l0,0H6.757L6.757,26.01z M5.792,6.755v16.49
	c0,0.531,0.432,0.964,0.965,0.964l0,0h16.49c0.531,0,0.961-0.431,0.964-0.964l0,0V6.755c-0.003-0.533-0.433-0.963-0.964-0.965l0,0
	H6.757C6.224,5.792,5.792,6.224,5.792,6.755L5.792,6.755z"/>
<path fill="#808080" d="M10.316,19.686v-9.371h9.371v8.472v0.899H10.316L10.316,19.686z M12.115,17.886h5.771v-5.771h-5.771V17.886
	L12.115,17.886z"/>
<g>
	<polygon fill="#C0C0C0" points="5.677,3.043 5.677,0 7.478,0 7.478,3.043 5.677,3.043 	"/>
	<polygon fill="#C0C0C0" points="9.047,3.042 9.047,0 10.847,0 10.847,3.042 9.047,3.042 	"/>
	<polygon fill="#C0C0C0" points="12.417,3.043 12.417,0 14.217,0 14.217,3.043 12.417,3.043 	"/>
	<polygon fill="#C0C0C0" points="15.786,3.042 15.786,0 17.587,0 17.587,3.042 15.786,3.042 	"/>
	<polygon fill="#C0C0C0" points="19.156,3.043 19.156,0 20.956,0 20.956,3.043 19.156,3.043 	"/>
	<polygon fill="#C0C0C0" points="22.526,3.043 22.526,0 24.326,0 24.326,3.043 22.526,3.043 	"/>
</g>
<g>
	<polygon fill="#C0C0C0" points="5.677,30.002 5.677,26.959 7.479,26.959 7.479,30.002 5.677,30.002 	"/>
	<polygon fill="#C0C0C0" points="9.046,30.002 9.046,26.959 10.848,26.959 10.848,30.002 9.046,30.002 	"/>
	<polygon fill="#C0C0C0" points="12.417,30.002 12.417,26.959 14.217,26.959 14.217,30.002 12.417,30.002 	"/>
	<polygon fill="#C0C0C0" points="15.786,30.002 15.786,26.959 17.586,26.959 17.586,30.002 15.786,30.002 	"/>
	<polygon fill="#C0C0C0" points="19.156,30 19.156,26.959 20.956,26.959 20.956,30 19.156,30 	"/>
	<polygon fill="#C0C0C0" points="22.526,30.001 22.526,26.958 24.326,26.958 24.326,30.001 22.526,30.001 	"/>
</g>
<g>
	<g>
		<polygon fill="#C0C0C0" points="0.002,24.325 0.002,22.525 3.045,22.525 3.045,24.325 0.002,24.325 		"/>
		<polygon fill="#C0C0C0" points="0,20.955 0,19.154 3.044,19.154 3.044,20.955 0,20.955 		"/>
		<polygon fill="#C0C0C0" points="0.001,17.585 0.001,15.784 3.045,15.784 3.045,17.585 0.001,17.585 		"/>
		<polygon fill="#C0C0C0" points="0.001,14.216 0.001,12.416 3.044,12.416 3.044,14.216 0.001,14.216 		"/>
		<polygon fill="#C0C0C0" points="0.002,10.846 0.002,9.046 3.045,9.046 3.045,10.846 0.002,10.846 		"/>
		<polygon fill="#C0C0C0" points="0.002,7.476 0.002,5.676 3.045,5.676 3.045,7.476 0.002,7.476 		"/>
	</g>
	<g>
		<polygon fill="#C0C0C0" points="26.96,24.325 26.96,22.523 30.002,22.523 30.002,24.325 26.96,24.325 		"/>
		<polygon fill="#C0C0C0" points="26.96,20.954 26.96,19.154 30.002,19.154 30.002,20.954 26.96,20.954 		"/>
		<polygon fill="#C0C0C0" points="26.96,17.584 26.96,15.785 30.002,15.785 30.002,17.584 26.96,17.584 		"/>
		<polygon fill="#C0C0C0" points="26.96,14.215 26.96,12.415 30.002,12.415 30.002,14.215 26.96,14.215 		"/>
		<polygon fill="#C0C0C0" points="26.96,10.846 26.96,9.046 30.002,9.046 30.002,10.846 26.96,10.846 		"/>
		<polygon fill="#C0C0C0" points="26.96,7.476 26.96,5.675 30.002,5.675 30.002,7.476 26.96,7.476 		"/>
	</g>
</g>
</svg>
