<?xml version="1.0" encoding="utf-8"?>
<!DOCTYPE svg PUBLIC "-//W3C//DTD SVG 1.1//EN" "http://www.w3.org/Graphics/SVG/1.1/DTD/svg11.dtd">
<svg version="1.1" id="Layer_1" xmlns="http://www.w3.org/2000/svg" xmlns:xlink="http://www.w3.org/1999/xlink" x="0px" y="0px"
	 width="94.214px" height="66.264px" viewBox="0 0 94.214 66.264" enable-background="new 0 0 94.214 66.264" xml:space="preserve">
<linearGradient id="gradient" gradientUnits="userSpaceOnUse" x1="17.1387" y1="66.264" x2="17.1387" y2="0">
	<stop  offset="0" style="stop-color:#404040"/>
	<stop  offset="1" style="stop-color:#A0A0A0"/>
</linearGradient>
<polygon fill="#C0C0C0" points="29.192,25.283 14.594,0 0,25.283 3.12,27.082 12.795,10.326 12.795,63.604 16.396,63.604 
	16.396,10.314 26.076,27.082 "/>
<polygon fill="#C0C0C0" points="91.097,39.182 81.413,55.942 81.413,3.603 77.817,3.603 77.817,55.936 68.142,39.182 65.025,40.981 
	79.616,66.264 94.214,40.981 "/>
<polygon fill="#808080" points="35.021,5.405 35.021,1.804 59.192,1.804 59.192,5.405 35.021,5.405 "/>
<polygon fill="#808080" points="35.021,20.29 35.021,16.688 59.192,16.688 59.192,20.29 35.021,20.29 "/>
<polygon fill="#808080" points="35.021,35.174 35.021,31.571 59.194,31.571 59.194,35.174 35.021,35.174 "/>
<polygon fill="#808080" points="35.023,50.061 35.023,46.459 59.195,46.459 59.195,50.061 35.023,50.061 "/>
<polygon fill="#808080" points="35.021,64.456 35.021,60.856 59.192,60.856 59.192,64.456 35.021,64.456 "/>
</svg>
