<?xml version="1.0" encoding="utf-8"?>
<!DOCTYPE svg PUBLIC "-//W3C//DTD SVG 1.1//EN" "http://www.w3.org/Graphics/SVG/1.1/DTD/svg11.dtd">
<svg version="1.1" id="Layer_1" xmlns="http://www.w3.org/2000/svg" xmlns:xlink="http://www.w3.org/1999/xlink" x="0px" y="0px"
	 width="28.958px" height="30.9px" viewBox="0 0 28.958 30.9" enable-background="new 0 0 28.958 30.9" xml:space="preserve">
<linearGradient id="gradient" gradientUnits="userSpaceOnUse" x1="17.1387" y1="30.9" x2="17.1387" y2="0">
	<stop  offset="0" style="stop-color:#404040"/>
	<stop  offset="1" style="stop-color:#A0A0A0"/>
</linearGradient>
<g>
	<polygon fill="#808080" points="4.525,5.754 4.525,0.001 6.326,0.001 6.326,5.754 4.525,5.754 	"/>
	<polygon fill="#808080" points="9.053,5.754 9.053,0 10.853,0 10.853,5.754 9.053,5.754 	"/>
	<polygon fill="#808080" points="13.578,5.754 13.578,0.001 15.377,0.001 15.377,5.754 13.578,5.754 	"/>
	<polygon fill="#808080" points="18.104,5.754 18.104,0 19.905,0 19.905,5.754 18.104,5.754 	"/>
	<polygon fill="#808080" points="22.631,5.754 22.631,0.001 24.432,0.001 24.432,5.754 22.631,5.754 	"/>
</g>
<polygon fill="#808080" points="3.934,23.863 3.934,22.063 13.256,22.063 13.256,23.863 3.934,23.863 "/>
<polygon fill="#808080" points="3.934,27.578 3.934,25.778 13.256,25.778 13.256,27.578 3.934,27.578 "/>
<polygon fill="#808080" points="15.701,23.864 15.701,22.063 25.025,22.063 25.025,23.864 15.701,23.864 "/>
<polygon fill="#808080" points="15.701,27.579 15.701,25.778 25.025,25.778 25.025,27.579 15.701,27.579 "/>
<path fill="#C0C0C0" d="M13.578,1.942h-2.726v1.799h2.726V1.942z M9.053,1.942H6.326v1.799h2.727V1.942z M22.631,1.942h-2.726v1.799
	h2.726V1.942z M24.432,1.942v1.799h2.726v4.662H1.798V3.741h2.728V1.942H0V30.9h28.958V1.942H24.432z M27.157,29.101H1.798v-8.896
	h25.359V29.101z M27.157,18.403H1.798v-8.201h25.359V18.403z M18.104,1.942h-2.728v1.799h2.728V1.942z"/>
</svg>
