<?xml version="1.0" encoding="utf-8"?>
<!DOCTYPE svg PUBLIC "-//W3C//DTD SVG 1.1//EN" "http://www.w3.org/Graphics/SVG/1.1/DTD/svg11.dtd">
<svg version="1.1" id="Layer_1" xmlns="http://www.w3.org/2000/svg" xmlns:xlink="http://www.w3.org/1999/xlink" x="0px" y="0px"
	 width="57.916px" height="61.8px" viewBox="0 0 57.916 61.8" enable-background="new 0 0 57.916 61.8" xml:space="preserve">
<linearGradient id="gradient" gradientUnits="userSpaceOnUse" x1="17.1387" y1="61.8" x2="17.1387" y2="0">
	<stop  offset="0" style="stop-color:#404040"/>
	<stop  offset="1" style="stop-color:#A0A0A0"/>
</linearGradient>
<g>
	<polygon fill="#808080" points="9.051,11.508 9.051,0.002 12.652,0.002 12.652,11.508 9.051,11.508 	"/>
	<polygon fill="#808080" points="18.105,11.508 18.105,0 21.705,0 21.705,11.508 18.105,11.508 	"/>
	<polygon fill="#808080" points="27.156,11.508 27.156,0.002 30.754,0.002 30.754,11.508 27.156,11.508 	"/>
	<polygon fill="#808080" points="36.209,11.508 36.209,0 39.811,0 39.811,11.508 36.209,11.508 	"/>
	<polygon fill="#808080" points="45.262,11.508 45.262,0.002 48.863,0.002 48.863,11.508 45.262,11.508 	"/>
</g>
<polygon fill="#808080" points="7.867,47.726 7.867,44.125 26.512,44.125 26.512,47.726 7.867,47.726 "/>
<polygon fill="#808080" points="7.867,55.156 7.867,51.556 26.512,51.556 26.512,55.156 7.867,55.156 "/>
<polygon fill="#808080" points="31.402,47.728 31.402,44.126 50.051,44.126 50.051,47.728 31.402,47.728 "/>
<polygon fill="#808080" points="31.402,55.158 31.402,51.556 50.051,51.556 50.051,55.158 31.402,55.158 "/>
<path fill="#C0C0C0" d="M27.156,3.885h-5.451v3.598h5.451V3.885z M18.105,3.885h-5.453v3.598h5.453V3.885z M45.262,3.885h-5.451
	v3.598h5.451V3.885z M48.863,3.885v3.598h5.451v9.324H3.596V7.482h5.455V3.885H0V61.8h57.916V3.885H48.863z M54.314,58.201H3.596
	V40.408h50.719V58.201z M54.314,36.806H3.596V20.404h50.719V36.806z M36.209,3.885h-5.455v3.598h5.455V3.885z"/>
</svg>
