<?xml version="1.0" encoding="utf-8"?>
<!DOCTYPE svg PUBLIC "-//W3C//DTD SVG 1.1//EN" "http://www.w3.org/Graphics/SVG/1.1/DTD/svg11.dtd">
<svg version="1.1" id="Layer_1" xmlns="http://www.w3.org/2000/svg" xmlns:xlink="http://www.w3.org/1999/xlink" x="0px" y="0px"
	 width="31.798px" height="31.8px" viewBox="0 0 31.798 31.8" enable-background="new 0 0 31.798 31.8" xml:space="preserve">
<linearGradient id="gradient" gradientUnits="userSpaceOnUse" x1="17.1387" y1="31.8" x2="17.1387" y2="0">
	<stop  offset="0" style="stop-color:#404040"/>
	<stop  offset="1" style="stop-color:#A0A0A0"/>
</linearGradient>
<path fill="#808080" d="M27.144,4.659C24.04,1.555,19.964,0,15.896,0C11.83,0,7.754,1.553,4.656,4.659
	C1.555,7.76-0.002,11.835,0,15.901c-0.002,4.067,1.553,8.141,4.656,11.243c3.107,3.107,7.188,4.658,11.257,4.656h0.009
	c4.06,0,8.122-1.561,11.22-4.656c3.102-3.102,4.658-7.172,4.656-11.236C31.8,11.839,30.247,7.762,27.144,4.659z M25.871,5.931
	c2.753,2.755,4.127,6.361,4.127,9.977c0,3.35-1.202,6.684-3.574,9.35L6.543,5.377c2.663-2.375,6-3.577,9.354-3.577
	C19.51,1.8,23.114,3.176,25.871,5.931z M15.913,30c-3.616,0-7.226-1.371-9.982-4.128s-4.13-6.359-4.13-9.97
	c0-3.307,1.167-6.598,3.475-9.245l19.869,19.87C22.498,28.83,19.213,30,15.913,30z"/>
<path fill="#C0C0C0" d="M8.915,10.296c-1.384,0.787-2.629,1.789-3.672,2.975l1.353,1.191c1.022-1.164,2.266-2.12,3.65-2.835
	L8.915,10.296z M16.548,17.929l-1.745-1.745c-1.709,0.292-3.197,1.24-4.181,2.579l1.451,1.068c0.869-1.184,2.257-1.95,3.827-1.95
	C16.12,17.881,16.336,17.9,16.548,17.929z M15.901,19.901c-1.512,0-2.73,1.224-2.73,2.729c0,1.508,1.219,2.73,2.73,2.732
	c1.507-0.002,2.728-1.223,2.729-2.732C18.629,21.125,17.408,19.901,15.901,19.901z M15.901,23.562c-0.515,0-0.931-0.416-0.931-0.932
	c0-0.512,0.416-0.928,0.931-0.93c0.513,0.002,0.929,0.418,0.929,0.93C16.83,23.146,16.414,23.562,15.901,23.562z M15.902,12.26
	c-0.766,0-1.511,0.088-2.229,0.247l1.588,1.588c0.213-0.016,0.425-0.037,0.642-0.037c2.642,0,5.004,1.202,6.58,3.093l1.383-1.154
	h-0.002C21.965,13.719,19.099,12.26,15.902,12.26z M26.557,13.273c-2.599-2.957-6.413-4.834-10.654-4.834
	c-1.862,0-3.633,0.379-5.264,1.034l1.392,1.392c1.219-0.402,2.519-0.625,3.872-0.625c3.705,0,7.025,1.634,9.303,4.221l1.354-1.187
	H26.557z M11.758,13.139c-1.486,0.652-2.798,1.63-3.82,2.858l1.383,1.154c0.998-1.198,2.315-2.117,3.818-2.632L11.758,13.139z
	 M17.43,16.263l3.028,3.029l0.72-0.527v-0.002C20.279,17.538,18.958,16.632,17.43,16.263z"/>
</svg>
