<?xml version="1.0" encoding="utf-8"?>
<!DOCTYPE svg PUBLIC "-//W3C//DTD SVG 1.1//EN" "http://www.w3.org/Graphics/SVG/1.1/DTD/svg11.dtd">
<svg version="1.1" id="Layer_1" xmlns="http://www.w3.org/2000/svg" xmlns:xlink="http://www.w3.org/1999/xlink" x="0px" y="0px"
	 width="63.596px" height="63.601px" viewBox="0 0 63.596 63.601" enable-background="new 0 0 63.596 63.601" xml:space="preserve">
<linearGradient id="gradient" gradientUnits="userSpaceOnUse" x1="17.1387" y1="63.601" x2="17.1387" y2="0">
	<stop  offset="0" style="stop-color:#404040"/>
	<stop  offset="1" style="stop-color:#A0A0A0"/>
</linearGradient>
<path fill="#808080" d="M54.287,9.317C48.08,3.11,39.928,0,31.793,0C23.66,0,15.508,3.106,9.313,9.317
	C3.11,15.521-0.004,23.67,0,31.803c-0.004,8.133,3.105,16.281,9.313,22.484c6.215,6.217,14.377,9.318,22.514,9.313h0.018
	c8.119,0.002,16.244-3.121,22.439-9.313c6.203-6.203,9.316-14.344,9.313-22.473C63.6,23.678,60.494,15.524,54.287,9.317z
	 M51.742,11.862c5.506,5.51,8.254,12.723,8.254,19.953c0,6.701-2.404,13.369-7.148,18.701L13.086,10.754
	c5.326-4.75,12-7.153,18.707-7.153C39.02,3.601,46.229,6.352,51.742,11.862z M31.826,60c-7.232,0-14.451-2.742-19.965-8.258
	c-5.514-5.514-8.261-12.719-8.261-19.939c0-6.615,2.333-13.196,6.95-18.491l39.738,39.739C44.996,57.661,38.426,60,31.826,60z"/>
<path fill="#C0C0C0" d="M17.83,20.593c-2.768,1.574-5.258,3.577-7.344,5.95l2.705,2.382c2.045-2.327,4.531-4.239,7.301-5.671
	L17.83,20.593z M33.096,35.858l-3.49-3.49c-3.418,0.584-6.395,2.48-8.361,5.16l2.902,2.135c1.738-2.367,4.514-3.9,7.654-3.9
	C32.24,35.762,32.672,35.799,33.096,35.858z M31.803,39.801c-3.023,0-5.461,2.447-5.461,5.461s2.438,5.459,5.461,5.465
	c3.014-0.006,5.455-2.447,5.459-5.465C37.258,42.249,34.816,39.801,31.803,39.801z M31.803,47.124c-1.029,0-1.861-0.832-1.861-1.861
	c0-1.025,0.832-1.857,1.861-1.861c1.025,0.004,1.857,0.836,1.857,1.861C33.66,46.292,32.828,47.124,31.803,47.124z M31.805,24.52
	c-1.531,0-3.021,0.177-4.459,0.494l3.176,3.177c0.426-0.032,0.85-0.073,1.283-0.073c5.283,0,10.008,2.403,13.16,6.186l2.766-2.307
	h-0.004C43.93,27.438,38.197,24.52,31.805,24.52z M53.113,26.547c-5.197-5.914-12.826-9.669-21.309-9.669
	c-3.725,0-7.266,0.758-10.527,2.067l2.783,2.784c2.438-0.805,5.037-1.25,7.744-1.25c7.41,0,14.051,3.269,18.605,8.441l2.707-2.374
	H53.113z M23.516,26.278c-2.973,1.304-5.596,3.261-7.641,5.718l2.766,2.307c1.996-2.396,4.631-4.234,7.637-5.263L23.516,26.278z
	 M34.859,32.528l6.057,6.057l1.439-1.053v-0.004C40.559,35.075,37.916,33.264,34.859,32.528z"/>
</svg>
