<?xml version="1.0" encoding="utf-8"?>
<!DOCTYPE svg PUBLIC "-//W3C//DTD SVG 1.1//EN" "http://www.w3.org/Graphics/SVG/1.1/DTD/svg11.dtd">
<svg version="1.1" id="Layer_1" xmlns="http://www.w3.org/2000/svg" xmlns:xlink="http://www.w3.org/1999/xlink" x="0px" y="0px"
	 width="39.477px" height="31.8px" viewBox="0 0 39.477 31.8" enable-background="new 0 0 39.477 31.8" xml:space="preserve">
<linearGradient id="gradient" gradientUnits="userSpaceOnUse" x1="17.1387" y1="31.8" x2="17.1387" y2="0">
	<stop  offset="0" style="stop-color:#404040"/>
	<stop  offset="1" style="stop-color:#A0A0A0"/>
</linearGradient>
<path fill="#C0C0C0" d="M35.927,0c1.96,0.004,3.548,1.592,3.55,3.554l0,0v24.695c0,1.962-1.59,3.551-3.552,3.551l0,0H3.552l0,0
	C1.59,31.8,0,30.213,0,28.249l0,0V3.554C0,1.592,1.588,0.002,3.552,0l0,0h32.373 M1.799,3.554v24.695
	C1.801,29.217,2.583,30,3.552,30l0,0h32.373c0.969,0,1.749-0.78,1.751-1.751l0,0V3.554c0.002-0.967-0.784-1.753-1.753-1.753l0,0
	H3.552C2.585,1.803,1.801,2.587,1.799,3.554L1.799,3.554z"/>
<path fill="#C0C0C0" d="M19.117,15.798c0-1.967,1.592-3.557,3.557-3.559l0,0c1.965,0,3.556,1.594,3.556,3.559l0,0
	c0,1.963-1.591,3.556-3.556,3.556l0,0v-0.9v-0.899c0.971-0.002,1.754-0.787,1.756-1.756l0,0c-0.002-0.972-0.785-1.757-1.756-1.759
	l0,0c-0.97,0.002-1.755,0.787-1.757,1.759l0,0c0.002,0.969,0.787,1.754,1.757,1.756l0,0v0.899v0.9
	C20.709,19.352,19.117,17.761,19.117,15.798L19.117,15.798z"/>
<path fill="#808080" d="M4.621,25.955c-0.345-0.606-0.51-1.271-0.51-1.924l0,0c-0.002-1.356,0.708-2.68,1.978-3.395l0,0l0.078-0.047
	l10.03-3.131c0.312-0.158,0.652-0.234,0.982-0.234l0,0c0.756-0.003,1.499,0.396,1.906,1.108l0,0
	c0.194,0.339,0.282,0.714,0.282,1.075l0,0c0.002,0.737-0.376,1.45-1.037,1.861l0,0l-8.303,6.092l-0.039,0.027l-0.05,0.028
	c-0.607,0.347-1.273,0.51-1.926,0.51l0,0C6.657,27.927,5.34,27.215,4.621,25.955L4.621,25.955z M5.911,24.031
	c0,0.351,0.087,0.704,0.274,1.034l0,0c0.385,0.678,1.097,1.06,1.828,1.062l0,0c0.339-0.002,0.675-0.08,0.992-0.251l0,0l8.313-6.1
	l0.052-0.029c0.128-0.072,0.198-0.206,0.198-0.339l0,0c0-0.067-0.015-0.13-0.046-0.186l0,0c-0.076-0.13-0.204-0.196-0.343-0.198l0,0
	c-0.063,0-0.123,0.015-0.186,0.05l0,0l-0.085,0.047L6.9,22.247C6.265,22.639,5.913,23.322,5.911,24.031L5.911,24.031z"/>
<path fill="#C0C0C0" d="M22.783,3.493c-6.854,0-12.406,5.556-12.406,12.408c0,1.122,0.159,2.204,0.438,3.237l1.718-0.536
	c-0.228-0.865-0.357-1.766-0.357-2.701c0.011-5.857,4.748-10.599,10.607-10.609c5.856,0.011,10.594,4.75,10.604,10.607
	c-0.011,5.858-4.748,10.596-10.604,10.608c-2.901,0-5.522-1.163-7.436-3.049l-1.458,1.069c2.251,2.323,5.401,3.778,8.894,3.778
	c6.851,0,12.405-5.555,12.405-12.407C35.188,9.046,29.634,3.493,22.783,3.493z"/>
</svg>
