<?xml version="1.0" encoding="utf-8"?>
<!DOCTYPE svg PUBLIC "-//W3C//DTD SVG 1.1//EN" "http://www.w3.org/Graphics/SVG/1.1/DTD/svg11.dtd">
<svg version="1.1" id="Layer_1" xmlns="http://www.w3.org/2000/svg" xmlns:xlink="http://www.w3.org/1999/xlink" x="0px" y="0px"
	 width="78.953px" height="63.599px" viewBox="0 0 78.953 63.599" enable-background="new 0 0 78.953 63.599" xml:space="preserve">
<linearGradient id="gradient" gradientUnits="userSpaceOnUse" x1="17.1387" y1="63.599" x2="17.1387" y2="0">
	<stop  offset="0" style="stop-color:#404040"/>
	<stop  offset="1" style="stop-color:#A0A0A0"/>
</linearGradient>
<path fill="#C0C0C0" d="M71.854,0c3.92,0.008,7.096,3.184,7.1,7.107l0,0v49.39c0,3.924-3.18,7.102-7.104,7.102l0,0H7.104l0,0
	C3.18,63.599,0,60.425,0,56.498l0,0V7.107C0,3.184,3.176,0.004,7.104,0l0,0H71.85 M3.598,7.107v49.39
	C3.602,58.433,5.166,60,7.104,60l0,0H71.85c1.938,0,3.498-1.561,3.502-3.502l0,0V7.107c0.004-1.934-1.568-3.506-3.506-3.506l0,0
	H7.104C5.17,3.605,3.602,5.174,3.598,7.107L3.598,7.107z"/>
<path fill="#C0C0C0" d="M38.234,31.595c0-3.933,3.184-7.113,7.113-7.117l0,0c3.93,0,7.111,3.188,7.111,7.117l0,0
	c0,3.926-3.182,7.111-7.111,7.111l0,0v-1.801v-1.799c1.941-0.004,3.508-1.574,3.512-3.512l0,0c-0.004-1.943-1.57-3.513-3.512-3.517
	l0,0c-1.939,0.004-3.51,1.574-3.514,3.517l0,0c0.004,1.938,1.574,3.508,3.514,3.512l0,0v1.799v1.801
	C41.418,38.703,38.234,35.521,38.234,31.595L38.234,31.595z"/>
<path fill="#808080" d="M9.242,51.91c-0.689-1.213-1.02-2.543-1.02-3.848l0,0c-0.004-2.713,1.416-5.359,3.955-6.789l0,0l0.156-0.094
	l20.061-6.262c0.623-0.316,1.305-0.469,1.965-0.469l0,0c1.512-0.006,2.998,0.791,3.813,2.217l0,0
	c0.389,0.678,0.564,1.428,0.564,2.15l0,0c0.004,1.475-0.752,2.9-2.074,3.723l0,0L20.057,54.722l-0.078,0.055l-0.1,0.057
	c-1.215,0.693-2.547,1.02-3.852,1.02l0,0C13.314,55.853,10.68,54.429,9.242,51.91L9.242,51.91z M11.822,48.062
	c0,0.701,0.174,1.408,0.549,2.068l0,0c0.77,1.355,2.193,2.119,3.656,2.123l0,0c0.678-0.004,1.35-0.16,1.984-0.502l0,0l16.625-12.199
	l0.104-0.059c0.256-0.145,0.396-0.412,0.396-0.678l0,0c0-0.135-0.029-0.26-0.092-0.371l0,0c-0.152-0.26-0.408-0.393-0.686-0.396l0,0
	c-0.127,0-0.246,0.029-0.371,0.1l0,0l-0.17,0.094l-20.018,6.252C12.529,45.277,11.826,46.644,11.822,48.062L11.822,48.062z"/>
<path fill="#C0C0C0" d="M45.566,6.986c-13.707,0-24.813,11.111-24.813,24.816c0,2.244,0.318,4.408,0.877,6.475l3.436-1.072
	c-0.455-1.73-0.715-3.531-0.715-5.402c0.021-11.714,9.496-21.197,21.215-21.218c11.713,0.021,21.188,9.5,21.209,21.214
	c-0.021,11.717-9.496,21.191-21.209,21.217c-5.803,0-11.045-2.326-14.871-6.098l-2.916,2.139c4.502,4.646,10.803,7.557,17.787,7.557
	c13.701,0,24.811-11.109,24.811-24.814C70.377,18.092,59.268,6.986,45.566,6.986z"/>
</svg>
