<?xml version="1.0" encoding="utf-8"?>
<!DOCTYPE svg PUBLIC "-//W3C//DTD SVG 1.1//EN" "http://www.w3.org/Graphics/SVG/1.1/DTD/svg11.dtd">
<svg version="1.1" id="Layer_1" xmlns="http://www.w3.org/2000/svg" xmlns:xlink="http://www.w3.org/1999/xlink" x="0px" y="0px"
	 width="27.627px" height="30.001px" viewBox="0 0 27.627 30.001" enable-background="new 0 0 27.627 30.001" xml:space="preserve">
<linearGradient id="gradient" gradientUnits="userSpaceOnUse" x1="17.1387" y1="30.001" x2="17.1387" y2="0">
	<stop  offset="0" style="stop-color:#404040"/>
	<stop  offset="1" style="stop-color:#A0A0A0"/>
</linearGradient>
<polygon fill="#808080" points="3.302,30.001 3.302,15.797 5.104,15.797 5.104,30.001 3.302,30.001 "/>
<polygon fill="#808080" points="3.301,8 3.301,0 5.103,0 5.103,8 3.301,8 "/>
<path fill="#C0C0C0" d="M2.487,14.415C1.114,14.413,0,13.301,0,11.928l0,0c0-1.373,1.112-2.485,2.487-2.487l0,0h3.432
	c1.373,0.002,2.485,1.114,2.485,2.487l0,0c0,1.373-1.112,2.485-2.485,2.487l0,0H2.487L2.487,14.415z M1.8,11.928
	c0,0.378,0.309,0.685,0.687,0.687l0,0h3.432c0.378-0.002,0.685-0.309,0.685-0.687l0,0c0-0.378-0.306-0.687-0.685-0.687l0,0H2.487
	C2.109,11.242,1.8,11.55,1.8,11.928L1.8,11.928z"/>
<polygon fill="#808080" points="12.914,30.001 12.914,21.256 14.714,21.256 14.714,30.001 12.914,30.001 "/>
<polygon fill="#808080" points="12.913,13.457 12.913,0 14.713,0 14.713,13.457 12.913,13.457 "/>
<path fill="#C0C0C0" d="M12.097,19.872c-1.372,0-2.484-1.112-2.484-2.486l0,0c0-1.374,1.112-2.486,2.484-2.486l0,0h3.433
	c1.374,0,2.486,1.112,2.486,2.486l0,0c0,1.374-1.114,2.486-2.486,2.486l0,0H12.097L12.097,19.872z M11.412,17.386
	c0,0.38,0.307,0.685,0.685,0.687l0,0h3.433c0.38-0.002,0.685-0.307,0.687-0.687l0,0c-0.002-0.379-0.309-0.686-0.687-0.686l0,0
	h-3.433C11.718,16.7,11.412,17.007,11.412,17.386L11.412,17.386z"/>
<polygon fill="#808080" points="22.524,30.001 22.524,16.278 24.324,16.278 24.324,30.001 22.524,30.001 "/>
<polygon fill="#808080" points="22.524,8.479 22.524,0.001 24.325,0.001 24.325,8.479 22.524,8.479 "/>
<path fill="#C0C0C0" d="M21.71,14.895c-1.373,0-2.485-1.112-2.487-2.485l0,0c0.002-1.373,1.114-2.485,2.487-2.487l0,0h3.432
	c1.371,0.002,2.485,1.114,2.485,2.487l0,0c0,1.373-1.112,2.485-2.485,2.485l0,0H21.71L21.71,14.895z M21.022,12.409
	c0.003,0.378,0.309,0.685,0.688,0.687l0,0h3.432c0.377-0.002,0.686-0.308,0.686-0.687l0,0c0-0.38-0.307-0.684-0.686-0.687l0,0H21.71
	C21.331,11.725,21.025,12.029,21.022,12.409L21.022,12.409z"/>
</svg>
