<?xml version="1.0" encoding="utf-8"?>
<!DOCTYPE svg PUBLIC "-//W3C//DTD SVG 1.1//EN" "http://www.w3.org/Graphics/SVG/1.1/DTD/svg11.dtd">
<svg version="1.1" id="Layer_1" xmlns="http://www.w3.org/2000/svg" xmlns:xlink="http://www.w3.org/1999/xlink" x="0px" y="0px"
	 width="55.254px" height="60.001px" viewBox="0 0 55.254 60.001" enable-background="new 0 0 55.254 60.001" xml:space="preserve">
<linearGradient id="gradient" gradientUnits="userSpaceOnUse" x1="17.1387" y1="60.001" x2="17.1387" y2="0">
	<stop  offset="0" style="stop-color:#404040"/>
	<stop  offset="1" style="stop-color:#A0A0A0"/>
</linearGradient>
<polygon fill="#808080" points="6.604,60.001 6.604,31.593 10.207,31.593 10.207,60.001 6.604,60.001 "/>
<polygon fill="#808080" points="6.603,15.999 6.603,0 10.205,0 10.205,15.999 6.603,15.999 "/>
<path fill="#C0C0C0" d="M4.974,28.83C2.228,28.826,0,26.603,0,23.856l0,0c0-2.746,2.224-4.97,4.974-4.974l0,0h6.864
	c2.746,0.004,4.97,2.228,4.97,4.974l0,0c0,2.746-2.224,4.97-4.97,4.974l0,0H4.974L4.974,28.83z M3.601,23.856
	c0,0.756,0.617,1.369,1.373,1.373l0,0h6.864c0.757-0.004,1.369-0.617,1.369-1.373l0,0c0-0.757-0.612-1.373-1.369-1.373l0,0H4.974
	C4.218,22.483,3.601,23.1,3.601,23.856L3.601,23.856z"/>
<polygon fill="#808080" points="25.828,60.001 25.828,42.511 29.428,42.511 29.428,60.001 25.828,60.001 "/>
<polygon fill="#808080" points="25.826,26.913 25.826,0 29.426,0 29.426,26.913 25.826,26.913 "/>
<path fill="#C0C0C0" d="M24.193,39.744c-2.744,0-4.969-2.225-4.969-4.973l0,0c0-2.748,2.225-4.972,4.969-4.972l0,0h6.865
	c2.747,0,4.973,2.224,4.973,4.972l0,0c0,2.748-2.229,4.973-4.973,4.973l0,0H24.193L24.193,39.744z M22.823,34.771
	c0,0.76,0.613,1.369,1.37,1.373l0,0h6.865c0.761-0.004,1.369-0.613,1.373-1.373l0,0c-0.004-0.758-0.616-1.369-1.373-1.369l0,0
	h-6.865C23.437,33.402,22.823,34.013,22.823,34.771L22.823,34.771z"/>
<polygon fill="#808080" points="45.049,60.001 45.049,32.558 48.648,32.558 48.648,60.001 45.049,60.001 "/>
<polygon fill="#808080" points="45.049,16.958 45.049,0.002 48.651,0.002 48.651,16.958 45.049,16.958 "/>
<path fill="#C0C0C0" d="M43.419,29.789c-2.746,0-4.97-2.225-4.974-4.971l0,0c0.004-2.746,2.228-4.97,4.974-4.974l0,0h6.865
	c2.742,0.004,4.97,2.228,4.97,4.974l0,0c0,2.746-2.224,4.971-4.97,4.971l0,0H43.419L43.419,29.789z M42.046,24.818
	c0.005,0.757,0.617,1.369,1.373,1.373l0,0h6.865c0.752-0.004,1.369-0.616,1.369-1.373l0,0c0-0.76-0.612-1.368-1.369-1.373l0,0
	h-6.865C42.663,23.45,42.051,24.059,42.046,24.818L42.046,24.818z"/>
</svg>
