<?xml version="1.0" encoding="utf-8"?>
<!DOCTYPE svg PUBLIC "-//W3C//DTD SVG 1.1//EN" "http://www.w3.org/Graphics/SVG/1.1/DTD/svg11.dtd">
<svg version="1.1" id="Layer_1" xmlns="http://www.w3.org/2000/svg" xmlns:xlink="http://www.w3.org/1999/xlink" x="0px" y="0px"
	 width="52.264px" height="62.884px" viewBox="0 0 52.264 62.884" enable-background="new 0 0 52.264 62.884" xml:space="preserve">
<linearGradient id="gradient" gradientUnits="userSpaceOnUse" x1="17.1387" y1="62.884" x2="17.1387" y2="0">
	<stop  offset="0" style="stop-color:#404040"/>
	<stop  offset="1" style="stop-color:#A0A0A0"/>
</linearGradient>
<path fill="#C0C0C0" d="M25.959,16.125v26.376c-0.877-0.443-1.855-0.715-2.906-0.715c-3.592,0.004-6.502,2.914-6.502,6.506
	s2.91,6.502,6.502,6.506c3.596,0,6.506-2.914,6.506-6.506c0-0.006-0.002-0.014-0.002-0.02V25.418l7.023,7.701l2.664-2.419
	L25.959,16.125z M23.053,51.197c-1.604-0.004-2.9-1.301-2.904-2.904c0.004-1.604,1.301-2.902,2.904-2.906
	c1.609,0.004,2.902,1.303,2.906,2.906C25.955,49.896,24.662,51.193,23.053,51.197z"/>
<path fill="#808080" d="M15.654,0l-0.531,0.525C8.857,6.791,3.195,12.582,0.525,15.256L0,15.781v47.103h52.264V0H15.654z
	 M15.283,5.465v9.783H5.602C8.105,12.717,11.508,9.26,15.283,5.465z M48.662,59.289H3.6V18.85l15.285-0.004V3.596h29.777V59.289z"/>
</svg>
