<?xml version="1.0" encoding="utf-8"?>
<!DOCTYPE svg PUBLIC "-//W3C//DTD SVG 1.1//EN" "http://www.w3.org/Graphics/SVG/1.1/DTD/svg11.dtd">
<svg version="1.1" id="Layer_1" xmlns="http://www.w3.org/2000/svg" xmlns:xlink="http://www.w3.org/1999/xlink" x="0px" y="0px"
	 width="51.664px" height="62.287px" viewBox="0 0 51.664 62.287" enable-background="new 0 0 51.664 62.287" xml:space="preserve">
<linearGradient id="gradient" gradientUnits="userSpaceOnUse" x1="17.1387" y1="62.287" x2="17.1387" y2="0">
	<stop  offset="0" style="stop-color:#404040"/>
	<stop  offset="1" style="stop-color:#A0A0A0"/>
</linearGradient>
<path fill="#C0C0C0" d="M20.342,24.961c0-3.033,2.453-5.494,5.49-5.494l0,0c3.039,0,5.496,2.457,5.496,5.494l0,0
	c0,3.035-2.461,5.49-5.496,5.49l0,0v-1.498v-1.498c1.381-0.004,2.494-1.117,2.498-2.494l0,0c-0.004-1.379-1.117-2.494-2.498-2.5l0,0
	c-1.379,0.006-2.486,1.121-2.492,2.5l0,0c0,1.377,1.113,2.49,2.492,2.494l0,0v1.498v1.498
	C22.795,30.451,20.346,27.992,20.342,24.961L20.342,24.961z"/>
<path fill="#C0C0C0" d="M20.4,53.109V34.169h10.867v17.441v1.498H20.4L20.4,53.109z M29.766,51.611v-1.498V51.611L29.766,51.611z
	 M23.404,50.113h4.859V37.166h-4.859V50.113L23.404,50.113z"/>
<path fill="#808080" d="M15.475,0l-0.439,0.443C8.773,6.705,3.111,12.492,0.439,15.168L0,15.607v46.679h51.664V0H15.475z
	 M15.285,4.438v10.811H4.584C7.227,12.576,11.045,8.693,15.285,4.438z M48.66,59.285H2.998L3.002,18.25l15.283-0.004V3.002H48.66
	V59.285z"/>
</svg>
