<?xml version="1.0" encoding="utf-8"?>
<!DOCTYPE svg PUBLIC "-//W3C//DTD SVG 1.1//EN" "http://www.w3.org/Graphics/SVG/1.1/DTD/svg11.dtd">
<svg version="1.1" id="Layer_1" xmlns="http://www.w3.org/2000/svg" xmlns:xlink="http://www.w3.org/1999/xlink" x="0px" y="0px"
	 width="67.204px" height="67.203px" viewBox="0 0 67.204 67.203" enable-background="new 0 0 67.204 67.203" xml:space="preserve">
<linearGradient id="gradient" gradientUnits="userSpaceOnUse" x1="17.1387" y1="67.203" x2="17.1387" y2="0">
	<stop  offset="0" style="stop-color:#404040"/>
	<stop  offset="1" style="stop-color:#A0A0A0"/>
</linearGradient>
<polygon fill="#C0C0C0" points="0,33.595 16.165,24.271 17.964,27.389 7.204,33.599 17.964,39.81 17.964,39.814 16.165,42.931 
	0,33.595 "/>
<path fill="#C0C0C0" d="M49.24,39.812L60,33.597l-10.758-6.208l1.797-3.119l16.165,9.324l-16.165,9.34L49.24,39.812L49.24,39.812z
	 M49.24,27.387l0.002,0.002l-0.002,0.002V27.387L49.24,27.387z"/>
<polygon fill="#C0C0C0" points="24.273,51.037 27.388,49.238 33.603,59.998 39.814,49.238 42.933,51.037 33.603,67.203 
	24.273,51.037 "/>
<polygon fill="#C0C0C0" points="33.601,7.197 27.391,17.963 24.27,16.162 33.601,0 42.931,16.166 39.813,17.963 33.601,7.197 "/>
<polygon fill="#808080" points="60.001,33.597 56.888,31.801 35.402,31.801 35.402,10.32 33.601,7.197 31.8,10.318 31.8,31.801 
	10.32,31.801 7.204,33.599 10.32,35.398 31.8,35.398 31.8,56.876 33.603,59.998 35.402,56.88 35.402,35.398 56.882,35.398 "/>
</svg>
