<?xml version="1.0" encoding="utf-8"?>
<!DOCTYPE svg PUBLIC "-//W3C//DTD SVG 1.1//EN" "http://www.w3.org/Graphics/SVG/1.1/DTD/svg11.dtd">
<svg version="1.1" id="Layer_1" xmlns="http://www.w3.org/2000/svg" xmlns:xlink="http://www.w3.org/1999/xlink" x="0px" y="0px"
	 width="57.217px" height="60.001px" viewBox="0 0 57.217 60.001" enable-background="new 0 0 57.217 60.001" xml:space="preserve">
<linearGradient id="gradient" gradientUnits="userSpaceOnUse" x1="17.1387" y1="60.001" x2="17.1387" y2="0">
	<stop  offset="0" style="stop-color:#404040"/>
	<stop  offset="1" style="stop-color:#A0A0A0"/>
</linearGradient>
<g>
	<polygon fill="#808080" points="6.863,21.609 6.863,0 10.463,0 10.463,21.609 6.863,21.609 	"/>
	<polygon fill="#808080" points="6.864,60.001 6.864,38.396 10.464,38.396 10.464,60.001 6.864,60.001 	"/>
</g>
<path fill="#C0C0C0" d="M5.097,35.093C2.281,35.093,0.004,32.816,0,30l0,0c0.004-2.813,2.281-5.092,5.097-5.096l0,0h7.131
	c2.815,0.004,5.093,2.283,5.097,5.096l0,0c-0.004,2.816-2.281,5.093-5.097,5.093l0,0H5.097L5.097,35.093z M3.603,30
	c0,0.824,0.667,1.494,1.494,1.494l0,0h7.131c0.827,0,1.494-0.67,1.494-1.494l0,0c0-0.822-0.671-1.494-1.494-1.494l0,0H5.097
	C4.273,28.506,3.603,29.178,3.603,30L3.603,30z"/>
<g>
	<polygon fill="#808080" points="26.811,21.609 26.811,0 30.409,0 30.409,21.609 26.811,21.609 	"/>
	<polygon fill="#808080" points="26.809,60.001 26.809,38.396 30.412,38.396 30.412,60.001 26.809,60.001 	"/>
</g>
<path fill="#C0C0C0" d="M25.043,35.093c-2.812,0-5.092-2.277-5.092-5.093l0,0c0-2.813,2.276-5.092,5.092-5.096l0,0h7.131
	C34.99,24.908,37.27,27.184,37.27,30l0,0c0,2.816-2.285,5.093-5.096,5.093l0,0H25.043L25.043,35.093z M23.549,30
	c0,0.824,0.671,1.494,1.494,1.494l0,0h7.131c0.826,0,1.494-0.67,1.498-1.494l0,0c-0.004-0.822-0.672-1.494-1.498-1.494l0,0h-7.131
	C24.22,28.506,23.549,29.178,23.549,30L23.549,30z"/>
<g>
	<polygon fill="#808080" points="46.756,21.607 46.756,0.001 50.357,0.001 50.357,21.607 46.756,21.607 	"/>
	<polygon fill="#808080" points="46.756,60.001 46.756,38.396 50.355,38.396 50.355,60.001 46.756,60.001 	"/>
</g>
<path fill="#C0C0C0" d="M44.99,35.095c-2.816,0-5.094-2.281-5.094-5.093l0,0c0-2.816,2.277-5.094,5.094-5.098l0,0h7.133
	c2.816,0.004,5.09,2.281,5.094,5.098l0,0c0,2.812-2.281,5.093-5.094,5.093l0,0H44.99L44.99,35.095z M43.496,30.002
	c0,0.824,0.668,1.49,1.494,1.49l0,0h7.133c0.824,0,1.49-0.666,1.496-1.49l0,0c-0.006-0.824-0.676-1.494-1.496-1.498l0,0H44.99
	C44.164,28.508,43.496,29.178,43.496,30.002L43.496,30.002z"/>
</svg>
