<?xml version="1.0" encoding="utf-8"?>
<!DOCTYPE svg PUBLIC "-//W3C//DTD SVG 1.1//EN" "http://www.w3.org/Graphics/SVG/1.1/DTD/svg11.dtd">
<svg version="1.1" id="Layer_1" xmlns="http://www.w3.org/2000/svg" xmlns:xlink="http://www.w3.org/1999/xlink" x="0px" y="0px"
	 width="28.608px" height="30.001px" viewBox="0 0 28.608 30.001" enable-background="new 0 0 28.608 30.001" xml:space="preserve">
<linearGradient id="gradient" gradientUnits="userSpaceOnUse" x1="17.1387" y1="30.001" x2="17.1387" y2="0">
	<stop  offset="0" style="stop-color:#404040"/>
	<stop  offset="1" style="stop-color:#A0A0A0"/>
</linearGradient>
<g>
	<polygon fill="#808080" points="3.432,10.805 3.432,0 5.231,0 5.231,10.805 3.432,10.805 	"/>
	<polygon fill="#808080" points="3.432,30.001 3.432,19.198 5.232,19.198 5.232,30.001 3.432,30.001 	"/>
</g>
<path fill="#C0C0C0" d="M2.548,17.547C1.141,17.547,0.002,16.408,0,15l0,0c0.002-1.406,1.141-2.546,2.548-2.548l0,0h3.565
	C7.521,12.454,8.66,13.594,8.662,15l0,0c-0.002,1.408-1.141,2.547-2.548,2.547l0,0H2.548L2.548,17.547z M1.801,15
	c0,0.412,0.333,0.747,0.747,0.747l0,0h3.565c0.414,0,0.747-0.335,0.747-0.747l0,0c0-0.411-0.335-0.747-0.747-0.747l0,0H2.548
	C2.137,14.253,1.801,14.589,1.801,15L1.801,15z"/>
<g>
	<polygon fill="#808080" points="13.405,10.805 13.405,0 15.205,0 15.205,10.805 13.405,10.805 	"/>
	<polygon fill="#808080" points="13.404,30.001 13.404,19.198 15.206,19.198 15.206,30.001 13.404,30.001 	"/>
</g>
<path fill="#C0C0C0" d="M12.521,17.547c-1.406,0-2.546-1.139-2.546-2.547l0,0c0-1.406,1.138-2.546,2.546-2.548l0,0h3.565
	c1.408,0.002,2.548,1.14,2.548,2.548l0,0c0,1.408-1.143,2.547-2.548,2.547l0,0H12.521L12.521,17.547z M11.774,15
	c0,0.412,0.335,0.747,0.747,0.747l0,0h3.565c0.413,0,0.747-0.335,0.749-0.747l0,0c-0.002-0.411-0.336-0.747-0.749-0.747l0,0h-3.565
	C12.11,14.253,11.774,14.589,11.774,15L11.774,15z"/>
<g>
	<polygon fill="#808080" points="23.378,10.804 23.378,0 25.179,0 25.179,10.804 23.378,10.804 	"/>
	<polygon fill="#808080" points="23.378,30.001 23.378,19.198 25.178,19.198 25.178,30.001 23.378,30.001 	"/>
</g>
<path fill="#C0C0C0" d="M22.495,17.548c-1.408,0-2.547-1.141-2.547-2.547l0,0c0-1.408,1.139-2.547,2.547-2.549l0,0h3.566
	c1.408,0.002,2.545,1.141,2.547,2.549l0,0c0,1.406-1.141,2.547-2.547,2.547l0,0H22.495L22.495,17.548z M21.748,15.001
	c0,0.412,0.334,0.745,0.747,0.745l0,0h3.566c0.412,0,0.745-0.333,0.748-0.745l0,0c-0.003-0.412-0.338-0.747-0.748-0.749l0,0h-3.566
	C22.082,14.254,21.748,14.589,21.748,15.001L21.748,15.001z"/>
</svg>
