<?xml version="1.0" encoding="utf-8"?>
<!DOCTYPE svg PUBLIC "-//W3C//DTD SVG 1.1//EN" "http://www.w3.org/Graphics/SVG/1.1/DTD/svg11.dtd">
<svg version="1.1" id="Layer_1" xmlns="http://www.w3.org/2000/svg" xmlns:xlink="http://www.w3.org/1999/xlink" x="0px" y="0px"
	 width="80.655px" height="63.598px" viewBox="0 0 80.655 63.598" enable-background="new 0 0 80.655 63.598" xml:space="preserve">
<linearGradient id="gradient" gradientUnits="userSpaceOnUse" x1="17.1387" y1="63.598" x2="17.1387" y2="0">
	<stop  offset="0" style="stop-color:#404040"/>
	<stop  offset="1" style="stop-color:#A0A0A0"/>
</linearGradient>
<path fill="#C0C0C0" d="M71.214,9.411H33.603V5.916C33.599,2.647,30.951,0,27.683,0H5.916C2.651,0,0.004,2.647,0,5.916v48.235
	c0,5.219,4.228,9.447,9.448,9.447h61.766c5.217,0,9.441-4.229,9.441-9.447V18.859C80.655,13.64,76.431,9.411,71.214,9.411z
	 M77.056,54.151c-0.004,3.23-2.617,5.842-5.842,5.85H9.448c-3.231-0.008-5.842-2.619-5.846-5.85V5.916
	c0-1.28,1.037-2.313,2.313-2.317h21.767C28.963,3.603,30,4.636,30,5.916v7.094h41.214c3.225,0.008,5.838,2.618,5.842,5.85V54.151z"
	/>
</svg>
