<?xml version="1.0" encoding="utf-8"?>
<!DOCTYPE svg PUBLIC "-//W3C//DTD SVG 1.1//EN" "http://www.w3.org/Graphics/SVG/1.1/DTD/svg11.dtd">
<svg version="1.1" id="Layer_1" xmlns="http://www.w3.org/2000/svg" xmlns:xlink="http://www.w3.org/1999/xlink" x="0px" y="0px"
	 width="112.251px" height="84.011px" viewBox="0 0 112.251 84.011" enable-background="new 0 0 112.251 84.011"
	 xml:space="preserve">
<linearGradient id="gradient" gradientUnits="userSpaceOnUse" x1="17.1387" y1="84.011" x2="17.1387" y2="0">
	<stop  offset="0" style="stop-color:#404040"/>
	<stop  offset="1" style="stop-color:#A0A0A0"/>
</linearGradient>
<path fill="#C0C0C0" d="M46.96,84.011c-8.322-0.003-15.068-6.745-15.07-15.07l0,0c0.002-8.323,6.748-15.068,15.07-15.07l0,0h24.43
	c8.32,0.002,15.065,6.747,15.067,15.07l0,0c-0.002,8.325-6.747,15.067-15.067,15.07l0,0H46.96L46.96,84.011z M34.891,68.941
	C34.903,75.606,40.297,81,46.96,81.01l0,0h24.43C78.052,81,83.443,75.606,83.456,68.941l0,0
	c-0.013-6.665-5.404-12.057-12.066-12.069l0,0H46.96C40.297,56.884,34.903,62.276,34.891,68.941L34.891,68.941z"/>
<polygon fill="#C0C0C0" points="26.909,56.873 26.909,53.872 51.331,53.872 51.331,56.873 26.909,56.873 "/>
<path fill="#C0C0C0" d="M109.537,74.301c-9.428-13.043-24.242-17.308-35.975-17.312l0,0v-2.999
	c11.732-0.003,26.547-4.27,35.975-17.317l0,0l2.714-3.756v40.505v4.636L109.537,74.301L109.537,74.301z M110.753,73.422l1.214-0.881
	L110.753,73.422L110.753,73.422z M109.252,69.162V41.813c-6.643,7.476-15.038,11.673-23.229,13.677l0,0
	C94.213,57.495,102.61,61.69,109.252,69.162L109.252,69.162z"/>
<path fill="#C0C0C0" d="M58.122,32.828c-0.811-0.806-1.374-1.121-2.171-1.153l0,0c-0.019,0-0.036,0-0.067,0l0,0
	c-1.469-0.019-2.667,0.905-4.352,2.255l0,0c-1.63,1.295-3.775,2.908-6.92,2.901l0,0c-0.115,0-0.233,0-0.362-0.004l0,0
	c-5.036-0.127-7.414-3.103-8.321-4.123l0,0c-0.672-0.754-1.124-1.603-1.153-2.67l0,0c-0.002-0.483,0.132-1.096,0.598-1.601l0,0
	c0.464-0.508,1.159-0.72,1.733-0.71l0,0c0.447,0.002,0.871,0.096,1.302,0.242l0,0c1.038,0.356,2.291,0.742,3.499,0.738l0,0
	c1.206-0.015,2.311-0.308,3.474-1.446l0,0c0.399-0.373,2.544-3.092,2.627-6.511l0,0v0.002l2.996,0.104
	c-0.194,4.584-2.677,7.668-3.499,8.524l0,0c-1.725,1.738-3.807,2.344-5.598,2.327l0,0c-1.24-0.003-2.367-0.252-3.305-0.527l0,0
	c1.04,1.136,2.331,2.462,5.757,2.651l0,0c0.083,0.004,0.168,0.004,0.253,0.004l0,0c2.077-0.006,3.429-0.973,5.059-2.255l0,0
	c1.577-1.229,3.404-2.885,6.213-2.904l0,0c0.069,0,0.148,0.002,0.192,0.004l0,0c1.782,0.042,3.165,0.992,4.184,2.047l0,0
	c1.043,1.068,1.899,2.306,2.883,3.461l0,0c2.008,2.302,4.196,4.301,9.135,4.345l0,0c0.068,0,0.153-0.002,0.229-0.002l0,0
	c2.471-0.042,5.232-0.909,7.501-3.453l0,0c2.264-2.545,4.109-6.916,4.298-14.154l0,0v-0.271c-0.188-7.276-2.034-11.648-4.298-14.194
	l0,0c-2.269-2.543-5.03-3.41-7.505-3.453l0,0c-0.087-0.002-0.164-0.002-0.233-0.002l0,0c-7.313,0.055-8.868,4.548-12.01,7.804l0,0
	c-1.019,1.055-2.401,2.007-4.194,2.047l0,0c-0.059,0-0.12,0.002-0.18,0.002l0,0c-2.809-0.019-4.634-1.672-6.21-2.899l0,0
	c-1.63-1.282-2.98-2.249-5.056-2.255l0,0c-0.074,0-0.156,0.004-0.254,0.009l0,0c-3.438,0.185-4.736,1.517-5.77,2.65l0,0
	c0.938-0.276,2.068-0.528,3.313-0.531l0,0c1.789-0.017,3.871,0.592,5.592,2.328l0,0c0.985,0.979,3.133,3.711,3.546,8.285l0,0
	l-2.988,0.267c-0.327-3.711-2.082-5.835-2.675-6.426l0,0c-1.17-1.145-2.272-1.437-3.475-1.454l0,0
	c-1.206-0.004-2.46,0.383-3.508,0.746l0,0c-0.432,0.144-0.85,0.235-1.295,0.235l0,0c-0.574,0.013-1.271-0.199-1.735-0.712l0,0
	c-0.464-0.507-0.596-1.117-0.592-1.598l0,0c0.028-1.068,0.479-1.914,1.145-2.667l0,0c0.905-1.03,3.292-4.001,8.315-4.12l0,0
	c0.123-0.006,0.25-0.011,0.381-0.011l0,0c3.144-0.006,5.286,1.607,6.916,2.899l0,0c1.684,1.35,2.879,2.272,4.35,2.253l0,0
	c0.04,0,0.082,0,0.11,0l0,0c0.752-0.03,1.313-0.346,2.123-1.151l0,0c0.784-0.791,1.643-2.007,2.732-3.298l0,0
	C62.988,2.815,66.381-0.044,72.27,0l0,0c0.104,0,0.197,0.002,0.277,0.004l0,0c3.146,0.034,6.829,1.217,9.703,4.459l0,0
	c2.874,3.236,4.858,8.38,5.055,16.148l0,0v0.348c-0.196,7.73-2.181,12.874-5.055,16.11l0,0c-2.874,3.239-6.558,4.423-9.722,4.457
	l0,0c-0.077,0-0.157,0.002-0.251,0.002l0,0c-0.038,0-0.075,0-0.113,0l0,0C63.326,41.53,60.456,35.143,58.122,32.828L58.122,32.828z"
	/>
<polygon fill="#808080" points="22.447,19.536 74.894,19.155 74.917,22.156 22.471,22.535 22.447,19.536 "/>
<polygon fill="#808080" points="47.693,77.078 47.693,47.97 50.694,47.97 50.694,77.078 47.693,77.078 "/>
<polygon fill="#808080" points="57.734,77.077 57.734,47.969 60.734,47.969 60.734,77.077 57.734,77.077 "/>
<polygon fill="#808080" points="67.775,77.078 67.775,47.968 70.777,47.968 70.777,77.078 67.775,77.078 "/>
<path fill="#C0C0C0" d="M2.905,26.556C1.28,26.463,0.004,25.112,0,23.474l0,0v-5.16c0.002-1.708,1.382-3.09,3.088-3.093l0,0h0.065
	l17.892,1.587c1.671,0.047,3.01,1.412,3.016,3.096l0,0v1.992c-0.004,1.676-1.35,3.039-3.018,3.077l0,0L3.006,26.576L2.905,26.556
	L2.905,26.556z M3.06,23.559l17.844-1.585h0.067c0.055-0.002,0.091-0.04,0.093-0.084l0,0V19.91
	c-0.002-0.055-0.044-0.103-0.105-0.103l0,0h-0.059L3.065,18.224c-0.035,0.011-0.066,0.045-0.066,0.089l0,0v5.16
	C3.001,23.522,3.026,23.551,3.06,23.559L3.06,23.559z"/>
</svg>
