<?xml version="1.0" encoding="utf-8"?>
<!DOCTYPE svg PUBLIC "-//W3C//DTD SVG 1.1//EN" "http://www.w3.org/Graphics/SVG/1.1/DTD/svg11.dtd">
<svg version="1.1" id="Layer_1" xmlns="http://www.w3.org/2000/svg" xmlns:xlink="http://www.w3.org/1999/xlink" x="0px" y="0px"
	 width="84.52px" height="63.603px" viewBox="0 0 84.52 63.603" enable-background="new 0 0 84.52 63.603" xml:space="preserve">
<linearGradient id="gradient" gradientUnits="userSpaceOnUse" x1="17.1387" y1="63.603" x2="17.1387" y2="0">
	<stop  offset="0" style="stop-color:#404040"/>
	<stop  offset="1" style="stop-color:#A0A0A0"/>
</linearGradient>
<path fill="#C0C0C0" d="M46.681,29.397c-1.647-1.495-2.636-3.127-3.436-3.91l0,0c-0.55-0.539-0.779-0.628-1.104-0.646l0,0
	l-0.087-0.004H42.05c-0.77-0.011-1.509,0.507-2.763,1.522l0,0c-1.208,0.963-2.979,2.307-5.555,2.3l0,0
	c-0.09,0-0.18-0.002-0.296-0.006l0,0c-3.974-0.073-6.028-2.561-6.639-3.269l0,0c-0.6-0.682-1.007-1.408-1.042-2.453l0,0
	c-0.002-0.47,0.129-1.113,0.627-1.654l0,0c0.497-0.545,1.234-0.758,1.79-0.745l0,0c0.44,0.002,0.824,0.094,1.182,0.217l0,0
	c0.761,0.262,1.617,0.514,2.373,0.51l0,0c0.76-0.019,1.354-0.163,2.085-0.866l0,0c0.198-0.168,1.712-2.098,1.744-4.359l0,0h0.002
	l0.036,0.001c-0.236-2.518-1.43-3.933-1.778-4.281l0,0c-0.739-0.71-1.329-0.854-2.085-0.873l0,0
	c-0.756-0.006-1.61,0.246-2.385,0.519l0,0c-0.374,0.123-0.752,0.206-1.174,0.208l0,0c-0.554,0.013-1.293-0.202-1.79-0.747l0,0
	c-0.498-0.541-0.627-1.183-0.625-1.652l0,0C25.793,8.159,26.2,7.44,26.79,6.766l0,0c0.615-0.725,2.674-3.204,6.646-3.274l0,0
	c0.124-0.007,0.223-0.007,0.301-0.009l0,0c2.573-0.006,4.342,1.337,5.55,2.298l0,0c1.27,1.027,2.013,1.544,2.794,1.521l0,0
	c0.036,0,0.061,0,0.063,0l0,0c0.321-0.019,0.549-0.106,1.101-0.646l0,0c0.521-0.524,1.159-1.42,1.988-2.406l0,0
	c1.614-1.986,4.403-4.301,8.983-4.248l0,0c0.099,0,0.172,0.004,0.216,0.004l0,0c2.483,0.022,5.424,0.974,7.69,3.534l0,0
	c2.271,2.557,3.772,6.542,3.919,12.42l0,0v0.273c-0.146,5.83-1.648,9.815-3.919,12.372l0,0c-2.267,2.561-5.207,3.51-7.69,3.534l0,0
	h-0.031h-0.049c-0.012,0-0.052,0-0.131,0l0,0c-0.034,0-0.067,0-0.101,0l0,0C50.76,32.138,48.313,30.891,46.681,29.397L46.681,29.397
	z M45.812,22.965c0.834,0.854,1.465,1.775,2.171,2.6l0,0c1.456,1.638,2.801,2.921,6.239,2.973l0,0
	c0.032,0.002,0.097,0.001,0.185,0.002l0,0c1.669-0.041,3.494-0.611,5.026-2.326l0,0c1.537-1.726,2.872-4.788,3.01-10.026l0,0v-0.182
	c-0.138-5.285-1.473-8.349-3.01-10.074l0,0c-1.539-1.724-3.375-2.291-5.053-2.327l0,0c-0.083,0-0.138-0.002-0.163-0.002l0,0
	c-2.603,0.025-3.951,0.79-5.136,1.821l0,0c-1.187,1.045-2.037,2.469-3.27,3.754l0,0c-0.8,0.84-2.013,1.689-3.571,1.723l0,0
	c-0.069,0.002-0.121,0.002-0.159,0.002l0,0c-2.387-0.024-3.885-1.416-5.027-2.297l0,0c-1.207-0.948-2.026-1.515-3.316-1.521l0,0
	c-0.061-0.003-0.09,0-0.09,0l0,0l-0.02,0.002l-0.054,0.002c-0.544,0.036-1,0.106-1.39,0.203l0,0c1.36,0.085,2.917,0.635,4.174,1.915
	l0,0c0.818,0.814,2.5,2.979,2.826,6.563l0,0l-3.142,0.282l3.112,0.106c-0.172,3.666-2.087,6.032-2.795,6.778l0,0
	c-1.266,1.286-2.828,1.833-4.193,1.915l0,0c0.387,0.098,0.842,0.169,1.386,0.207l0,0c0.061,0.002,0.121,0.002,0.18,0.002l0,0
	c1.293-0.007,2.112-0.574,3.319-1.522l0,0c1.145-0.884,2.64-2.277,5.029-2.3l0,0c0.026,0,0.109-0.002,0.226,0.008l0,0
	C43.832,21.3,45.021,22.137,45.812,22.965L45.812,22.965z M29.349,9.335l-0.002-0.001C29.347,9.335,29.348,9.335,29.349,9.335
	L29.349,9.335z"/>
<polygon fill="#808080" points="17.312,14.47 56.155,14.188 56.18,17.79 17.337,18.071 17.312,14.47 "/>
<path fill="#C0C0C0" d="M35.472,63.603c-6.546,0-11.849-5.305-11.851-11.85l0,0c0.002-6.547,5.305-11.85,11.851-11.852l0,0h18.092
	c6.544,0.002,11.848,5.305,11.851,11.852l0,0c-0.003,6.545-5.307,11.85-11.851,11.85l0,0H35.472L35.472,63.603z M27.221,51.753
	c0.009,4.555,3.694,8.242,8.251,8.25l0,0h18.092c4.556-0.008,8.242-3.695,8.25-8.25l0,0c-0.008-4.557-3.694-8.242-8.25-8.25l0,0
	H35.472C30.915,43.511,27.229,47.197,27.221,51.753L27.221,51.753z"/>
<polygon fill="#C0C0C0" points="20.62,43.503 20.62,39.902 38.71,39.902 38.71,43.503 20.62,43.503 "/>
<path fill="#C0C0C0" d="M81.261,56.126c-6.81-9.43-17.549-12.531-26.086-12.537l0,0v-3.6c8.537-0.004,19.276-3.105,26.086-12.54l0,0
	l3.259-4.503v32.125v5.564L81.261,56.126L81.261,56.126z M80.919,50.175V33.402c-4.143,4.182-9.04,6.84-13.955,8.389l0,0
	C71.879,43.339,76.776,45.996,80.919,50.175L80.919,50.175z"/>
<path fill="#C0C0C0" d="M2.266,20.968C0.964,20.646,0.003,19.469,0,18.077l0,0v-3.821c0.002-1.646,1.33-2.979,2.977-2.98l0,0H3.05
	l13.25,1.176c1.606,0.048,2.893,1.358,2.901,2.981l0,0v1.479c-0.006,1.598-1.277,2.899-2.861,2.962l0,0L3.151,21.044
	c-0.026,0.003-0.054,0.006-0.082,0.008l0,0L2.45,21.106L2.266,20.968L2.266,20.968z M3.603,17.393l11.998-1.068v-0.323L3.603,14.937
	V17.393L3.603,17.393z"/>
<polygon fill="#808080" points="35.325,57.779 35.325,36.22 38.925,36.22 38.925,57.779 35.325,57.779 "/>
<polygon fill="#808080" points="42.762,57.779 42.762,36.22 46.361,36.22 46.361,57.779 42.762,57.779 "/>
<polygon fill="#808080" points="50.199,57.779 50.199,36.22 53.801,36.22 53.801,57.779 50.199,57.779 "/>
</svg>
