<?xml version="1.0" encoding="utf-8"?>
<!DOCTYPE svg PUBLIC "-//W3C//DTD SVG 1.1//EN" "http://www.w3.org/Graphics/SVG/1.1/DTD/svg11.dtd">
<svg version="1.1" id="Layer_1" xmlns="http://www.w3.org/2000/svg" xmlns:xlink="http://www.w3.org/1999/xlink" x="0px" y="0px"
	 width="42.26px" height="31.802px" viewBox="0 0 42.26 31.802" enable-background="new 0 0 42.26 31.802" xml:space="preserve">
<linearGradient id="gradient" gradientUnits="userSpaceOnUse" x1="17.1387" y1="31.802" x2="17.1387" y2="0">
	<stop  offset="0" style="stop-color:#404040"/>
	<stop  offset="1" style="stop-color:#A0A0A0"/>
</linearGradient>
<path fill="#C0C0C0" d="M1.047,10.458C0.44,10.27,0.002,9.704,0,9.04l0,0V7.127c0-0.821,0.665-1.488,1.488-1.49l0,0h0.035
	l6.626,0.589c0.806,0.022,1.447,0.682,1.452,1.49l0,0v0.741C9.597,9.26,8.952,9.918,8.148,9.939l0,0l-7,0.622L1.047,10.458
	L1.047,10.458z M2.215,10.158c0.031-0.042,0.056-0.083,0.073-0.12l0,0C2.267,10.08,2.242,10.12,2.215,10.158L2.215,10.158z
	 M1.801,8.697l6-0.533V8l-6-0.531V8.697L1.801,8.697z"/>
<polygon fill="#808080" points="17.662,28.89 17.662,18.11 19.463,18.11 19.463,28.89 17.662,28.89 "/>
<polygon fill="#808080" points="21.381,28.89 21.381,18.111 23.18,18.111 23.18,28.89 21.381,28.89 "/>
<polygon fill="#808080" points="25.101,28.889 25.101,18.11 26.9,18.11 26.9,28.889 25.101,28.889 "/>
<path fill="#808080" d="M9.602,7.716v0.741C9.601,8.66,9.559,8.853,9.483,9.029l18.607-0.135l-0.014-1.801L9.512,7.229
	C9.565,7.382,9.601,7.544,9.602,7.716z"/>
<path fill="#C0C0C0" d="M33.02,7.972c-0.058-5.854-3.263-8.011-5.803-7.97c0,0-0.041-0.002-0.109-0.002
	c-2.292-0.027-3.688,1.13-4.494,2.122c-0.414,0.494-0.731,0.943-0.994,1.204c-0.275,0.271-0.389,0.315-0.548,0.323
	c0.006,0-0.011,0-0.031,0c-0.392,0.013-0.762-0.246-1.397-0.76c-0.604-0.482-1.488-1.153-2.776-1.15
	c-0.029,0.001-0.083-0.001-0.164,0.006c-1.976,0.043-3,1.276-3.308,1.638c-0.294,0.337-0.496,0.695-0.516,1.219
	c0,0.232,0.063,0.553,0.311,0.824c0.247,0.275,0.619,0.383,0.896,0.375c0.212,0,0.394-0.042,0.576-0.098
	c0.397-0.139,0.825-0.268,1.202-0.265c0.379,0.012,0.673,0.08,1.044,0.438c0.131,0.131,0.496,0.56,0.722,1.292l1.85-0.014
	c-0.287-1.358-0.95-2.204-1.301-2.552c-0.629-0.64-1.403-0.915-2.082-0.959c0.193-0.048,0.421-0.082,0.691-0.101l0.056-0.004
	l0.022-0.003v0.003c0.646,0.004,1.056,0.287,1.66,0.76c0.571,0.442,1.319,1.139,2.514,1.15h0.058
	c0.804-0.019,1.408-0.444,1.808-0.863c1.254-1.313,1.677-2.755,4.202-2.788c0,0,0.019,0.002,0.07,0.004
	c1.631,0.098,3.819,0.922,4.043,6.198v0.1c-0.224,5.24-2.406,6.067-4.022,6.168c-0.049-0.001-0.079-0.001-0.087-0.001
	c-1.72-0.025-2.393-0.667-3.119-1.486c-0.354-0.412-0.671-0.872-1.085-1.301c-0.4-0.416-1.003-0.839-1.774-0.86
	c-0.049-0.003-0.085-0.003-0.093-0.003c-1.194,0.011-1.942,0.708-2.514,1.149c-0.604,0.476-1.014,0.758-1.66,0.762h-0.091
	c-0.273-0.02-0.502-0.056-0.695-0.104c0.681-0.041,1.465-0.313,2.099-0.955c0.295-0.311,0.996-1.184,1.279-2.513l-1.86,0.014
	c-0.235,0.676-0.623,1.169-0.692,1.226c-0.364,0.352-0.66,0.424-1.041,0.433c-0.377,0.002-0.808-0.124-1.192-0.255
	c-0.172-0.06-0.362-0.105-0.586-0.107c-0.275-0.006-0.644,0.1-0.894,0.37c-0.249,0.27-0.317,0.593-0.315,0.83
	c0.017,0.521,0.222,0.887,0.522,1.226c0.304,0.354,1.331,1.599,3.318,1.636c0.065,0.002,0.111,0.002,0.148,0.002
	c1.288,0.004,2.174-0.669,2.776-1.15c0.617-0.501,0.986-0.76,1.364-0.763h0.002l0.063,0.005c0.161,0.008,0.277,0.054,0.552,0.322
	c0.776,0.754,1.998,3.358,5.488,3.325c0.039,0,0.039,0,0.039-0.002l0.035,0.002h0.104c2.528,0.001,5.673-2.17,5.732-7.953
	L33.02,7.972z"/>
<path fill="#C0C0C0" d="M40.631,13.724c-3.404,4.717-8.776,6.269-13.044,6.271v0.017c-0.226-0.03-0.454-0.046-0.687-0.052v1.802
	c2.221,0.067,4.002,1.877,4.006,4.115c-0.004,2.277-1.847,4.12-4.123,4.124h-9.046c-2.279-0.004-4.124-1.847-4.128-4.124
	c0.004-2.253,1.809-4.074,4.053-4.119v-1.808H10.31v1.8h3.178c-1.036,1.067-1.677,2.521-1.677,4.127
	c0,3.271,2.651,5.923,5.927,5.925h9.046c3.271-0.002,5.922-2.653,5.924-5.925c-0.001-1.384-0.479-2.652-1.271-3.66
	c3.322,0.727,6.762,2.475,9.195,5.846l1.629,2.253V11.477L40.631,13.724z M40.459,25.088c-2.071-2.091-4.521-3.419-6.979-4.193
	c2.458-0.774,4.908-2.104,6.979-4.194V25.088z M21.381,19.952h-1.918v1.799h1.918V19.952z M25.101,19.952H23.18v1.799h1.921V19.952z
	"/>
</svg>
