<?xml version="1.0" encoding="utf-8"?>
<!DOCTYPE svg PUBLIC "-//W3C//DTD SVG 1.1//EN" "http://www.w3.org/Graphics/SVG/1.1/DTD/svg11.dtd">
<svg version="1.1" id="Layer_1" xmlns="http://www.w3.org/2000/svg" xmlns:xlink="http://www.w3.org/1999/xlink" x="0px" y="0px"
	 width="30.807px" height="30.805px" viewBox="0 0 30.807 30.805" enable-background="new 0 0 30.807 30.805" xml:space="preserve">
<linearGradient id="gradient" gradientUnits="userSpaceOnUse" x1="17.1387" y1="31.805" x2="17.1387" y2="0">
	<stop  offset="0" style="stop-color:#404040"/>
	<stop  offset="1" style="stop-color:#A0A0A0"/>
</linearGradient>
<path fill="#C0C0C0" d="M9.796,15.402c0-3.099,2.511-5.609,5.608-5.609l0,0c3.098,0,5.608,2.511,5.611,5.609l0,0
	c-0.003,3.1-2.514,5.608-5.611,5.61l0,0C12.305,21.013,9.796,18.502,9.796,15.402L9.796,15.402z M11.594,15.402
	c0.005,2.104,1.707,3.806,3.811,3.81l0,0c2.104-0.004,3.806-1.706,3.811-3.81l0,0c-0.005-2.104-1.707-3.805-3.811-3.809l0,0
	C13.299,11.598,11.599,13.298,11.594,15.402L11.594,15.402z"/>
<path fill="#808080" d="M16.371,0l-1.609,0.806c0.584,1.165,0.958,2.729,0.958,4.418c0,1.494-0.308,3.083-0.969,4.609
	c0.215-0.024,0.432-0.041,0.653-0.041c0.43,0,0.846,0.053,1.248,0.145c0.591-1.577,0.867-3.188,0.867-4.713
	C17.518,3.271,17.098,1.46,16.371,0z M12.056,10.91c0.507-0.379,1.076-0.678,1.695-0.869c-0.632-3.78-2.796-6.856-5.211-8.46
	l-0.99,1.5C9.622,4.438,11.656,7.391,12.056,10.91z M20.766,13.749c3.782-0.633,6.855-2.797,8.462-5.21l-1.503-0.991
	c-1.356,2.071-4.309,4.107-7.827,4.507C20.275,12.562,20.575,13.13,20.766,13.749z M20.974,14.75
	c0.025,0.214,0.042,0.432,0.042,0.652c0,0.43-0.054,0.847-0.146,1.249c1.576,0.591,3.186,0.865,4.71,0.865
	c1.951,0,3.765-0.421,5.227-1.146l-0.802-1.61c-1.175,0.586-2.737,0.958-4.425,0.958C24.088,15.718,22.5,15.409,20.974,14.75z
	 M23.943,2.547L22.148,2.44c-0.14,2.471-1.679,5.706-4.522,7.812c0.59,0.255,1.124,0.611,1.589,1.042
	C22.177,8.855,23.761,5.442,23.943,2.547z M10.254,13.184c0.255-0.591,0.61-1.126,1.042-1.591C8.856,8.63,5.444,7.046,2.55,6.863
	L2.441,8.659C4.913,8.799,8.15,10.337,10.254,13.184z M10.044,17.056c-3.781,0.633-6.856,2.797-8.462,5.211l1.503,0.991
	c1.355-2.071,4.308-4.109,7.827-4.506C10.533,18.245,10.234,17.675,10.044,17.056z M20.555,17.625
	c-0.255,0.589-0.611,1.123-1.042,1.588c2.44,2.961,5.852,4.545,8.746,4.729l0.11-1.796C25.896,22.006,22.659,20.468,20.555,17.625z
	 M18.755,19.894c-0.508,0.379-1.077,0.679-1.697,0.87c0.633,3.782,2.797,6.856,5.211,8.464l0.992-1.503
	C21.186,26.367,19.151,23.414,18.755,19.894z M6.865,28.258l1.797,0.108c0.139-2.471,1.675-5.709,4.521-7.813
	c-0.592-0.255-1.127-0.611-1.592-1.043C8.63,21.95,7.048,25.363,6.865,28.258z M15.404,21.013c-0.43,0-0.848-0.053-1.25-0.145
	c-0.591,1.576-0.867,3.186-0.867,4.711c0,1.948,0.418,3.763,1.15,5.226l1.609-0.804c-0.588-1.173-0.962-2.734-0.96-4.422
	c0-1.494,0.31-3.083,0.971-4.608C15.843,20.996,15.626,21.013,15.404,21.013z M9.837,16.056c-0.024-0.215-0.041-0.432-0.041-0.653
	c0-0.43,0.053-0.847,0.145-1.249c-1.578-0.591-3.188-0.866-4.714-0.866c-1.951,0-3.767,0.417-5.227,1.149l0.809,1.608
	c1.165-0.588,2.728-0.96,4.418-0.96C6.722,15.085,8.31,15.395,9.837,16.056z"/>
</svg>
