<?xml version="1.0" encoding="utf-8"?>
<!DOCTYPE svg PUBLIC "-//W3C//DTD SVG 1.1//EN" "http://www.w3.org/Graphics/SVG/1.1/DTD/svg11.dtd">
<svg version="1.1" id="Layer_1" xmlns="http://www.w3.org/2000/svg" xmlns:xlink="http://www.w3.org/1999/xlink" x="0px" y="0px"
	 width="61.613px" height="61.609px" viewBox="0 0 61.613 61.609" enable-background="new 0 0 61.613 61.609" xml:space="preserve">
<linearGradient id="gradient" gradientUnits="userSpaceOnUse" x1="17.1387" y1="61.609" x2="17.1387" y2="0">
	<stop  offset="0" style="stop-color:#404040"/>
	<stop  offset="1" style="stop-color:#A0A0A0"/>
</linearGradient>
<path fill="#C0C0C0" d="M19.592,30.804c0-6.197,5.021-11.218,11.217-11.218l0,0c6.195,0,11.217,5.021,11.223,11.218l0,0
	c-0.006,6.199-5.027,11.217-11.223,11.221l0,0C24.609,42.025,19.592,37.003,19.592,30.804L19.592,30.804z M23.188,30.804
	c0.01,4.207,3.414,7.611,7.621,7.619l0,0c4.207-0.008,7.611-3.412,7.621-7.619l0,0c-0.01-4.208-3.414-7.609-7.621-7.617l0,0
	C26.598,23.195,23.197,26.596,23.188,30.804L23.188,30.804z"/>
<path fill="#808080" d="M32.742,0l-3.219,1.612c1.168,2.33,1.916,5.458,1.916,8.837c0,2.988-0.615,6.166-1.938,9.219
	c0.43-0.049,0.863-0.082,1.307-0.082c0.859,0,1.691,0.105,2.496,0.289c1.182-3.154,1.734-6.377,1.734-9.426
	C35.035,6.543,34.195,2.92,32.742,0z M24.111,21.82c1.014-0.758,2.152-1.355,3.391-1.738C26.238,12.521,21.91,6.369,17.08,3.162
	l-1.98,3C19.244,8.875,23.313,14.781,24.111,21.82z M41.531,27.498c7.564-1.266,13.711-5.594,16.924-10.42l-3.006-1.982
	c-2.713,4.143-8.617,8.215-15.654,9.014C40.551,25.123,41.15,26.26,41.531,27.498z M41.947,29.5
	c0.051,0.428,0.084,0.863,0.084,1.304c0,0.859-0.107,1.693-0.291,2.498c3.152,1.182,6.371,1.73,9.42,1.73
	c3.902,0,7.529-0.842,10.453-2.293l-1.604-3.22c-2.35,1.171-5.475,1.916-8.85,1.916C48.176,31.435,45,30.818,41.947,29.5z
	 M47.887,5.094l-3.59-0.213c-0.279,4.941-3.357,11.412-9.045,15.623c1.18,0.51,2.248,1.223,3.178,2.084
	C44.354,17.711,47.521,10.885,47.887,5.094z M20.508,26.367c0.51-1.182,1.221-2.252,2.084-3.182
	C17.713,17.26,10.889,14.092,5.1,13.727l-0.217,3.592C9.826,17.598,16.301,20.674,20.508,26.367z M20.088,34.111
	c-7.563,1.266-13.713,5.594-16.924,10.422l3.006,1.982c2.711-4.143,8.615-8.219,15.654-9.012
	C21.066,36.49,20.469,35.349,20.088,34.111z M41.109,35.25c-0.51,1.178-1.223,2.246-2.084,3.176
	c4.881,5.922,11.703,9.09,17.492,9.457l0.221-3.592C51.791,44.011,45.318,40.935,41.109,35.25z M37.51,39.787
	c-1.016,0.758-2.154,1.357-3.395,1.74c1.266,7.564,5.594,13.713,10.422,16.928l1.984-3.006
	C42.371,52.734,38.303,46.828,37.51,39.787z M13.73,56.515l3.594,0.217c0.277-4.941,3.35-11.418,9.043-15.625
	c-1.184-0.51-2.254-1.223-3.184-2.086C17.26,43.9,14.096,50.726,13.73,56.515z M30.809,42.025c-0.859,0-1.695-0.105-2.5-0.289
	c-1.182,3.152-1.734,6.371-1.734,9.422c0,3.896,0.836,7.525,2.301,10.451l3.219-1.607c-1.176-2.346-1.924-5.469-1.92-8.844
	c0-2.988,0.619-6.166,1.941-9.217C31.686,41.992,31.252,42.025,30.809,42.025z M19.674,32.111c-0.049-0.43-0.082-0.863-0.082-1.307
	c0-0.859,0.105-1.693,0.289-2.498c-3.156-1.182-6.375-1.732-9.428-1.732c-3.902,0-7.533,0.834-10.453,2.299l1.617,3.216
	c2.33-1.176,5.455-1.919,8.836-1.919C13.443,30.17,16.619,30.789,19.674,32.111z"/>
</svg>
