<?xml version="1.0" encoding="utf-8"?>
<!DOCTYPE svg PUBLIC "-//W3C//DTD SVG 1.1//EN" "http://www.w3.org/Graphics/SVG/1.1/DTD/svg11.dtd">
<svg version="1.1" id="Layer_1" xmlns="http://www.w3.org/2000/svg" xmlns:xlink="http://www.w3.org/1999/xlink" x="0px" y="0px"
	 width="77.166px" height="63.598px" viewBox="0 0 77.166 63.598" enable-background="new 0 0 77.166 63.598" xml:space="preserve">
<linearGradient id="gradient" gradientUnits="userSpaceOnUse" x1="17.1387" y1="63.598" x2="17.1387" y2="0">
	<stop  offset="0" style="stop-color:#404040"/>
	<stop  offset="1" style="stop-color:#A0A0A0"/>
</linearGradient>
<path fill="#C0C0C0" d="M0,63.598V1.801V0h77.166v63.598H0L0,63.598z M3.598,59.997h69.966V3.598H3.602L3.598,59.997L3.598,59.997z"
	/>
<path fill="#C0C0C0" d="M43.825,21.016c0-6.759,5.478-12.233,12.232-12.233l0,0v1.799v1.799c-4.768,0.013-8.623,3.868-8.632,8.636
	l0,0c0.009,4.771,3.864,8.628,8.632,8.636l0,0c4.772-0.008,8.632-3.868,8.641-8.636l0,0c-0.009-4.768-3.868-8.623-8.641-8.636l0,0
	v-1.799V8.782c6.76,0,12.237,5.475,12.237,12.233l0,0c0,6.76-5.478,12.233-12.237,12.237l0,0
	C49.303,33.252,43.825,27.775,43.825,21.016L43.825,21.016z"/>
<polygon fill="#808080" points="25.506,33.389 73.564,56.663 73.564,52.663 25.047,29.167 3.6,46.084 3.598,50.67 "/>
</svg>
