<?xml version="1.0" encoding="utf-8"?>
<!DOCTYPE svg PUBLIC "-//W3C//DTD SVG 1.1//EN" "http://www.w3.org/Graphics/SVG/1.1/DTD/svg11.dtd">
<svg version="1.1" id="Layer_1" xmlns="http://www.w3.org/2000/svg" xmlns:xlink="http://www.w3.org/1999/xlink" x="0px" y="0px"
	 width="63.598px" height="63.596px" viewBox="0 0 63.598 63.596" enable-background="new 0 0 63.598 63.596" xml:space="preserve">
<linearGradient id="gradient" gradientUnits="userSpaceOnUse" x1="17.1387" y1="63.596" x2="17.1387" y2="0">
	<stop  offset="0" style="stop-color:#404040"/>
	<stop  offset="1" style="stop-color:#A0A0A0"/>
</linearGradient>
<path fill="#808080" d="M0,31.8C0,14.237,14.236,0,31.801,0l0,0c17.563,0,31.797,14.237,31.797,31.8l0,0
	c0,17.562-14.234,31.796-31.797,31.796l0,0C14.236,63.596,0,49.362,0,31.8L0,31.8z M3.598,31.8
	c0.029,15.572,12.627,28.167,28.203,28.197l0,0C47.373,59.967,59.969,47.372,59.998,31.8l0,0
	C59.969,16.225,47.373,3.627,31.801,3.598l0,0C16.225,3.627,3.627,16.225,3.598,31.8L3.598,31.8z"/>
<g>
	<path fill="#C0C0C0" d="M24.424,18.002c0-4.076,3.301-7.38,7.377-7.38l0,0c4.074,0,7.375,3.304,7.375,7.38l0,0
		c0,4.072-3.301,7.376-7.375,7.376l0,0C27.725,25.378,24.424,22.074,24.424,18.002L24.424,18.002z M28.021,18.002
		c0.004,2.083,1.691,3.771,3.779,3.774l0,0c2.086-0.004,3.77-1.687,3.773-3.774l0,0c-0.004-2.088-1.688-3.774-3.773-3.779l0,0
		C29.713,14.228,28.025,15.914,28.021,18.002L28.021,18.002z"/>
	<path fill="#C0C0C0" d="M24.875,52.973V28.751h13.852v22.423v1.799H24.875L24.875,52.973z M28.471,49.375h6.654V32.346h-6.654
		V49.375L28.471,49.375z"/>
</g>
</svg>
