<?xml version="1.0" encoding="utf-8"?>
<!DOCTYPE svg PUBLIC "-//W3C//DTD SVG 1.1//EN" "http://www.w3.org/Graphics/SVG/1.1/DTD/svg11.dtd">
<svg version="1.1" id="Layer_1" xmlns="http://www.w3.org/2000/svg" xmlns:xlink="http://www.w3.org/1999/xlink" x="0px" y="0px"
	 width="31.799px" height="31.798px" viewBox="0 0 31.799 31.798" enable-background="new 0 0 31.799 31.798" xml:space="preserve">
<linearGradient id="gradient" gradientUnits="userSpaceOnUse" x1="17.1387" y1="31.798" x2="17.1387" y2="0">
	<stop  offset="0" style="stop-color:#404040"/>
	<stop  offset="1" style="stop-color:#A0A0A0"/>
</linearGradient>
<path fill="#808080" d="M0,15.9C0,7.119,7.118,0,15.9,0l0,0c8.781,0,15.898,7.119,15.898,15.9l0,0
	c0,8.781-7.117,15.898-15.898,15.898l0,0C7.118,31.798,0,24.681,0,15.9L0,15.9z M1.799,15.9C1.813,23.686,8.112,29.984,15.9,29.999
	l0,0c7.786-0.015,14.084-6.313,14.099-14.099l0,0C29.984,8.112,23.687,1.813,15.9,1.799l0,0C8.112,1.813,1.813,8.112,1.799,15.9
	L1.799,15.9z"/>
<g>
	<path fill="#C0C0C0" d="M12.212,9.001c0-2.038,1.65-3.69,3.688-3.69l0,0c2.037,0,3.688,1.652,3.688,3.69l0,0
		c0,2.036-1.65,3.688-3.688,3.688l0,0C13.862,12.689,12.212,11.037,12.212,9.001L12.212,9.001z M14.011,9.001
		c0.002,1.042,0.846,1.885,1.89,1.887l0,0c1.043-0.002,1.885-0.843,1.887-1.887l0,0c-0.002-1.044-0.844-1.887-1.887-1.89l0,0
		C14.856,7.114,14.013,7.957,14.011,9.001L14.011,9.001z"/>
	<path fill="#C0C0C0" d="M12.438,26.487V14.375h6.926v11.212v0.899H12.438L12.438,26.487z M14.235,24.688h3.327v-8.515h-3.327
		V24.688L14.235,24.688z"/>
</g>
</svg>
