<?xml version="1.0" encoding="utf-8"?>
<!DOCTYPE svg PUBLIC "-//W3C//DTD SVG 1.1//EN" "http://www.w3.org/Graphics/SVG/1.1/DTD/svg11.dtd">
<svg version="1.1" id="Layer_1" xmlns="http://www.w3.org/2000/svg" xmlns:xlink="http://www.w3.org/1999/xlink" x="0px" y="0px"
	 width="113.693px" height="67.358px" viewBox="0 0 113.693 67.358" enable-background="new 0 0 113.693 67.358"
	 xml:space="preserve">
<linearGradient id="gradient" gradientUnits="userSpaceOnUse" x1="17.1387" y1="67.358" x2="17.1387" y2="0">
	<stop  offset="0" style="stop-color:#404040"/>
	<stop  offset="1" style="stop-color:#A0A0A0"/>
</linearGradient>
<path fill="#C0C0C0" d="M110.434,4.502c-12.627,17.48-32.473,23.188-48.17,23.191v0.079c-0.949-0.14-1.914-0.235-2.902-0.235H32.599
	v-0.003H0v3.602h15.362c-5.141,3.599-8.51,9.556-8.51,16.312c0,10.996,8.911,19.906,19.911,19.91h32.598
	c10.996-0.004,19.906-8.914,19.906-19.91c0-6.229-2.859-11.783-7.334-15.433c13.564,1.996,28.359,8.433,38.5,22.468l3.26,4.506V0
	L110.434,4.502z M75.67,47.448c-0.018,9.006-7.303,16.297-16.309,16.309H26.764c-9.01-0.012-16.296-7.303-16.313-16.309
	c0.017-8.998,7.283-16.275,16.275-16.312h5.872v-0.002h26.763C68.367,31.151,75.652,38.438,75.67,47.448z M110.092,48.274
	c-9.107-10.441-20.773-16.164-32.076-18.781c11.303-2.614,22.969-8.337,32.076-18.779V48.274z"/>
<g>
	<path fill="#808080" d="M24.445,57.233V33.848h10.47v21.586v1.799H24.445L24.445,57.233z M33.115,55.434v-1.801V55.434
		L33.115,55.434z M28.045,53.633h3.271V37.448h-3.271V53.633L28.045,53.633z"/>
	<path fill="#808080" d="M37.826,57.233V33.848h10.47v21.586v1.799H37.826L37.826,57.233z M46.496,55.434v-1.801V55.434
		L46.496,55.434z M41.426,53.633h3.27l-0.003-16.186h-3.267V53.633L41.426,53.633z"/>
	<path fill="#808080" d="M51.207,57.233V33.848h10.469v21.586v1.799H51.207L51.207,57.233z M59.877,55.434v-1.801V55.434
		L59.877,55.434z M54.807,53.633h3.27V37.448h-3.27V53.633L54.807,53.633z"/>
</g>
<g>
	<polygon fill="#808080" points="26.247,25.797 26.247,22.195 33.113,22.195 33.113,25.797 26.247,25.797 	"/>
	<polygon fill="#808080" points="39.625,25.797 39.625,22.195 46.494,22.195 46.494,25.797 39.625,25.797 	"/>
	<polygon fill="#808080" points="53.011,25.797 53.011,22.193 59.879,22.193 59.879,25.797 53.011,25.797 	"/>
</g>
</svg>
