<?xml version="1.0" encoding="utf-8"?>
<!DOCTYPE svg PUBLIC "-//W3C//DTD SVG 1.1//EN" "http://www.w3.org/Graphics/SVG/1.1/DTD/svg11.dtd">
<svg version="1.1" id="Layer_1" xmlns="http://www.w3.org/2000/svg" xmlns:xlink="http://www.w3.org/1999/xlink" x="0px" y="0px"
	 width="56.847px" height="33.679px" viewBox="0 0 56.847 33.679" enable-background="new 0 0 56.847 33.679" xml:space="preserve">
<linearGradient id="gradient" gradientUnits="userSpaceOnUse" x1="17.1387" y1="33.679" x2="17.1387" y2="0">
	<stop  offset="0" style="stop-color:#404040"/>
	<stop  offset="1" style="stop-color:#A0A0A0"/>
</linearGradient>
<path fill="#C0C0C0" d="M55.217,2.251c-6.313,8.74-16.236,11.594-24.085,11.596v0.04c-0.475-0.07-0.957-0.118-1.451-0.118H16.299
	v-0.001H0v1.801h7.681c-2.57,1.8-4.255,4.778-4.255,8.156c0,5.498,4.456,9.953,9.956,9.955h16.299
	c5.498-0.002,9.953-4.457,9.953-9.955c0-3.114-1.43-5.892-3.667-7.717c6.782,0.998,14.18,4.217,19.25,11.234l1.63,2.253V0
	L55.217,2.251z M37.835,23.724c-0.009,4.503-3.651,8.148-8.154,8.154H13.382c-4.505-0.006-8.148-3.651-8.156-8.154
	c0.008-4.499,3.642-8.138,8.138-8.156h2.936v-0.001h13.381C34.184,15.576,37.826,19.219,37.835,23.724z M55.046,24.137
	c-4.554-5.221-10.387-8.082-16.038-9.391c5.651-1.307,11.484-4.168,16.038-9.39V24.137z"/>
<g>
	<path fill="#808080" d="M12.223,28.617V16.924h5.235v10.793v0.899H12.223L12.223,28.617z M16.558,27.717v-0.9V27.717L16.558,27.717
		z M14.022,26.817h1.635v-8.093h-1.635V26.817L14.022,26.817z"/>
	<path fill="#808080" d="M18.913,28.617V16.924h5.235v10.793v0.899H18.913L18.913,28.617z M23.248,27.717v-0.9V27.717L23.248,27.717
		z M20.713,26.817h1.635l-0.001-8.093h-1.633V26.817L20.713,26.817z"/>
	<path fill="#808080" d="M25.604,28.617V16.924h5.234v10.793v0.899H25.604L25.604,28.617z M29.938,27.717v-0.9V27.717L29.938,27.717
		z M27.403,26.817h1.635v-8.093h-1.635V26.817L27.403,26.817z"/>
</g>
<g>
	<polygon fill="#808080" points="13.124,12.898 13.124,11.098 16.557,11.098 16.557,12.898 13.124,12.898 	"/>
	<polygon fill="#808080" points="19.813,12.898 19.813,11.098 23.247,11.098 23.247,12.898 19.813,12.898 	"/>
	<polygon fill="#808080" points="26.505,12.898 26.505,11.097 29.939,11.097 29.939,12.898 26.505,12.898 	"/>
</g>
</svg>
