<?xml version="1.0" encoding="utf-8"?>
<!DOCTYPE svg PUBLIC "-//W3C//DTD SVG 1.1//EN" "http://www.w3.org/Graphics/SVG/1.1/DTD/svg11.dtd">
<svg version="1.1" id="Layer_1" xmlns="http://www.w3.org/2000/svg" xmlns:xlink="http://www.w3.org/1999/xlink" x="0px" y="0px"
	 width="68.069px" height="83px" viewBox="0 0 68.069 83" enable-background="new 0 0 68.069 83" xml:space="preserve">
<linearGradient id="gradient" gradientUnits="userSpaceOnUse" x1="17.1387" y1="83" x2="17.1387" y2="0">
	<stop  offset="0" style="stop-color:#404040"/>
	<stop  offset="1" style="stop-color:#A0A0A0"/>
</linearGradient>
<path fill="#C0C0C0" d="M63.725,72.646V38.21h3.229V27.854h-3.639C62.523,12.365,49.719,0,34.038,0
	C18.354,0,5.545,12.365,4.757,27.854H1.114V38.21h3.232v34.436H0V83h68.069V72.646H63.725z M34.038,2.997
	c14.021,0.027,25.469,11.03,26.274,24.856h-8.585c-0.765-9.109-8.388-16.268-17.689-16.268c-9.306,0-16.929,7.158-17.693,16.268
	H7.76C8.565,14.027,20.015,3.024,34.038,2.997z M48.727,27.854H19.346c0.765-7.451,7.042-13.254,14.692-13.265
	C41.685,14.6,47.962,20.402,48.727,27.854z M4.115,35.209v-4.354h59.842v4.354H4.115z M60.728,38.21v34.436h-8.813V38.21H60.728z
	 M48.916,38.21v34.436H19.159V38.21H48.916z M16.158,38.21v34.436h-8.81V38.21H16.158z M65.071,79.998H3.002v-4.354h62.069V79.998z"
	/>
<rect x="24.781" y="43.841" fill="#808080" width="18.512" height="3.002"/>
<rect x="24.781" y="51.191" fill="#808080" width="18.512" height="3"/>
</svg>
