<?xml version="1.0" encoding="utf-8"?>
<!DOCTYPE svg PUBLIC "-//W3C//DTD SVG 1.1//EN" "http://www.w3.org/Graphics/SVG/1.1/DTD/svg11.dtd">
<svg version="1.1" id="Layer_1" xmlns="http://www.w3.org/2000/svg" xmlns:xlink="http://www.w3.org/1999/xlink" x="0px" y="0px"
	 width="31.8px" height="31.801px" viewBox="0 0 31.8 31.801" enable-background="new 0 0 31.8 31.801" xml:space="preserve">
<linearGradient id="gradient" gradientUnits="userSpaceOnUse" x1="17.1387" y1="31.801" x2="17.1387" y2="0">
	<stop  offset="0" style="stop-color:#404040"/>
	<stop  offset="1" style="stop-color:#A0A0A0"/>
</linearGradient>
<path fill="#C0C0C0" d="M0,15.901C0.002,7.119,7.119,0,15.901,0l0,0C24.684,0,31.8,7.119,31.8,15.901l0,0
	c0,8.783-7.116,15.899-15.899,15.899l0,0C7.119,31.8,0.002,24.684,0,15.901L0,15.901z M1.802,15.901
	C1.814,23.688,8.114,29.985,15.901,30l0,0C23.688,29.985,29.985,23.688,30,15.901l0,0C29.985,8.114,23.688,1.814,15.901,1.8l0,0
	C8.114,1.814,1.814,8.114,1.802,15.901L1.802,15.901z"/>
<path fill="#808080" d="M23.232,20.099c0.169-1.339,0.265-2.741,0.266-4.197c-0.001-1.48-0.1-2.906-0.273-4.265h6.109
	c-0.197-0.622-0.448-1.218-0.727-1.799h-5.664c-0.35-1.83-0.854-3.491-1.485-4.91c-0.424-0.944-0.916-1.789-1.467-2.514
	C18.696,2.02,17.324,1.802,15.9,1.8c-1.423,0.002-2.795,0.22-4.089,0.613c-0.551,0.726-1.043,1.571-1.468,2.515
	c-0.632,1.419-1.136,3.08-1.485,4.91H3.193c-0.278,0.581-0.528,1.177-0.727,1.799h6.11c-0.175,1.358-0.272,2.785-0.272,4.265
	c0,1.456,0.096,2.858,0.265,4.197H2.442c0.194,0.622,0.444,1.218,0.72,1.8h5.683c0.35,1.855,0.86,3.539,1.499,4.975
	c0.424,0.943,0.916,1.789,1.467,2.514c1.291,0.393,2.66,0.609,4.079,0.613c-1.239,0.035-2.754-1.266-3.901-3.86
	c-0.536-1.198-0.979-2.64-1.303-4.241h10.432c-0.324,1.602-0.767,3.043-1.303,4.241c-1.149,2.595-2.662,3.896-3.903,3.86
	c1.42-0.004,2.789-0.221,4.081-0.613c0.55-0.726,1.042-1.57,1.466-2.514c0.64-1.436,1.149-3.119,1.499-4.975h5.683
	c0.274-0.582,0.524-1.178,0.719-1.8H23.232z M11.988,5.661C13.139,3.06,14.659,1.757,15.9,1.8c1.243-0.043,2.762,1.259,3.914,3.861
	c0.529,1.181,0.966,2.602,1.289,4.176H10.699C11.022,8.263,11.459,6.842,11.988,5.661z M21.421,20.099h-11.04
	c-0.178-1.327-0.277-2.735-0.277-4.197c0-1.486,0.102-2.918,0.285-4.265h11.025c0.184,1.346,0.283,2.778,0.282,4.265
	C21.697,17.363,21.6,18.771,21.421,20.099z M15.894,31.799c0.002,0,0.005,0.002,0.007,0.002s0.005-0.002,0.007-0.002
	c-0.002,0-0.005,0.001-0.007,0.001S15.896,31.799,15.894,31.799z"/>
</svg>
