<?xml version="1.0" encoding="utf-8"?>
<!DOCTYPE svg PUBLIC "-//W3C//DTD SVG 1.1//EN" "http://www.w3.org/Graphics/SVG/1.1/DTD/svg11.dtd">
<svg version="1.1" id="Layer_1" xmlns="http://www.w3.org/2000/svg" xmlns:xlink="http://www.w3.org/1999/xlink" x="0px" y="0px"
	 width="101.754px" height="60.615px" viewBox="0 0 101.754 60.615" enable-background="new 0 0 101.754 60.615"
	 xml:space="preserve">
<linearGradient id="gradient" gradientUnits="userSpaceOnUse" x1="17.1387" y1="60.615" x2="17.1387" y2="0">
	<stop  offset="0" style="stop-color:#404040"/>
	<stop  offset="1" style="stop-color:#A0A0A0"/>
</linearGradient>
<path fill="#808080" d="M49.658,60.408L49.658,60.408h-0.003H49.658z M101.754,17.487v-3.6H76.955V0h-3.602v13.888h-24.8v3.6h38.36
	c-1.269,8.885-5.553,18.555-13.53,26.315c-0.124-0.154-0.252-0.307-0.372-0.462c-4.71-6.081-7.243-12.948-9.13-18.047l-3.374,1.253
	c1.894,5.1,4.537,12.376,9.658,18.999c0.174,0.225,0.358,0.447,0.538,0.672c-5.666,4.725-12.894,8.535-21.886,10.69l0.839,3.501
	c9.578-2.287,17.327-6.385,23.418-11.488c4.992,5.205,11.901,9.602,21.508,11.503l0.704-3.53h-0.002
	c-8.837-1.771-14.996-5.677-19.531-10.383c8.809-8.506,13.54-19.217,14.797-29.022H101.754z"/>
<path fill="#C0C0C0" d="M39.105,60.615l3.386-1.23h-0.003L21.245,0.964L0,59.384l3.385,1.23l6.679-18.366h22.363L39.105,60.615z
	 M11.373,38.648l9.872-27.149l9.872,27.149H11.373z"/>
</svg>
