<?xml version="1.0" encoding="utf-8"?>
<!DOCTYPE svg PUBLIC "-//W3C//DTD SVG 1.1//EN" "http://www.w3.org/Graphics/SVG/1.1/DTD/svg11.dtd">
<svg version="1.1" id="Layer_1" xmlns="http://www.w3.org/2000/svg" xmlns:xlink="http://www.w3.org/1999/xlink" x="0px" y="0px"
	 width="77.412px" height="63.601px" viewBox="0 0 77.412 63.601" enable-background="new 0 0 77.412 63.601" xml:space="preserve">
<linearGradient id="gradient" gradientUnits="userSpaceOnUse" x1="17.1387" y1="63.601" x2="17.1387" y2="0">
	<stop  offset="0" style="stop-color:#404040"/>
	<stop  offset="1" style="stop-color:#A0A0A0"/>
</linearGradient>
<polygon fill="#C0C0C0" points="0.001,3.602 0.001,0 34.246,0 34.246,3.602 0.001,3.602 "/>
<polygon fill="#808080" points="0.001,18.744 0.001,15.143 34.246,15.143 34.246,18.744 0.001,18.744 "/>
<polygon fill="#C0C0C0" points="0.001,33.886 0.001,30.285 34.246,30.285 34.246,33.886 0.001,33.886 "/>
<polygon fill="#808080" points="0,49.029 0,45.429 34.247,45.429 34.247,49.029 0,49.029 "/>
<polygon fill="#C0C0C0" points="0,63.601 0,60.001 34.245,60.001 34.245,63.601 0,63.601 "/>
<polygon fill="#C0C0C0" points="43.164,3.604 43.164,0.001 77.412,0.001 77.412,3.604 43.164,3.604 "/>
<polygon fill="#808080" points="43.164,18.745 43.164,15.143 77.412,15.143 77.412,18.745 43.164,18.745 "/>
<polygon fill="#C0C0C0" points="43.164,33.886 43.164,30.283 77.412,30.283 77.412,33.886 43.164,33.886 "/>
<polygon fill="#808080" points="43.164,49.029 43.164,45.429 77.412,45.429 77.412,49.029 43.164,49.029 "/>
<polygon fill="#C0C0C0" points="43.164,63.601 43.164,60.001 77.412,60.001 77.412,63.601 43.164,63.601 "/>
</svg>
