<?xml version="1.0" encoding="utf-8"?>
<!DOCTYPE svg PUBLIC "-//W3C//DTD SVG 1.1//EN" "http://www.w3.org/Graphics/SVG/1.1/DTD/svg11.dtd">
<svg version="1.1" id="Layer_1" xmlns="http://www.w3.org/2000/svg" xmlns:xlink="http://www.w3.org/1999/xlink" x="0px" y="0px"
	 width="38.706px" height="31.801px" viewBox="0 0 38.706 31.801" enable-background="new 0 0 38.706 31.801" xml:space="preserve">
<linearGradient id="gradient" gradientUnits="userSpaceOnUse" x1="17.1387" y1="31.801" x2="17.1387" y2="0">
	<stop  offset="0" style="stop-color:#404040"/>
	<stop  offset="1" style="stop-color:#A0A0A0"/>
</linearGradient>
<polygon fill="#C0C0C0" points="0,1.801 0,0 17.123,0 17.123,1.801 0,1.801 "/>
<polygon fill="#808080" points="0,9.372 0,7.571 17.123,7.571 17.123,9.372 0,9.372 "/>
<polygon fill="#C0C0C0" points="0,16.943 0,15.143 17.123,15.143 17.123,16.943 0,16.943 "/>
<polygon fill="#808080" points="0,24.515 0,22.714 17.124,22.714 17.124,24.515 0,24.515 "/>
<polygon fill="#C0C0C0" points="0,31.801 0,30.001 17.123,30.001 17.123,31.801 0,31.801 "/>
<polygon fill="#C0C0C0" points="21.582,1.802 21.582,0 38.706,0 38.706,1.802 21.582,1.802 "/>
<polygon fill="#808080" points="21.582,9.373 21.582,7.571 38.706,7.571 38.706,9.373 21.582,9.373 "/>
<polygon fill="#C0C0C0" points="21.582,16.943 21.582,15.142 38.706,15.142 38.706,16.943 21.582,16.943 "/>
<polygon fill="#808080" points="21.582,24.515 21.582,22.714 38.706,22.714 38.706,24.515 21.582,24.515 "/>
<polygon fill="#C0C0C0" points="21.582,31.801 21.582,30.001 38.706,30.001 38.706,31.801 21.582,31.801 "/>
</svg>
