<?xml version="1.0" encoding="utf-8"?>
<!DOCTYPE svg PUBLIC "-//W3C//DTD SVG 1.1//EN" "http://www.w3.org/Graphics/SVG/1.1/DTD/svg11.dtd">
<svg version="1.1" id="Layer_1" xmlns="http://www.w3.org/2000/svg" xmlns:xlink="http://www.w3.org/1999/xlink" x="0px" y="0px"
	 width="85.57px" height="63.599px" viewBox="0 0 85.57 63.599" enable-background="new 0 0 85.57 63.599" xml:space="preserve">
<linearGradient id="gradient" gradientUnits="userSpaceOnUse" x1="17.1387" y1="63.599" x2="17.1387" y2="0">
	<stop  offset="0" style="stop-color:#404040"/>
	<stop  offset="1" style="stop-color:#A0A0A0"/>
</linearGradient>
<path fill="#C0C0C0" d="M8.545,63.599C3.824,63.595,0,59.775,0,55.056l0,0V8.544C0,3.825,3.824,0,8.545,0l0,0h68.484
	c4.719,0,8.541,3.825,8.541,8.544l0,0v46.512c0,4.719-3.822,8.539-8.541,8.543l0,0H8.545L8.545,63.599z M3.598,8.544v46.512
	c0.008,2.729,2.215,4.938,4.947,4.941l0,0h68.484c2.729-0.004,4.934-2.213,4.943-4.941l0,0V8.544
	c-0.01-2.728-2.215-4.938-4.943-4.942l0,0H8.545C5.813,3.605,3.605,5.816,3.598,8.544L3.598,8.544z"/>
<path fill="#808080" d="M55.271,56.117c-3.119-0.004-5.646-2.527-5.65-5.652l0,0V39.769c0.004-3.123,2.531-5.652,5.65-5.656l0,0
	H72.18c3.119,0.004,5.646,2.527,5.65,5.656l0,0v10.695c-0.004,3.125-2.531,5.648-5.65,5.652l0,0H55.271L55.271,56.117z
	 M53.221,39.769v10.695c0.004,1.135,0.922,2.049,2.051,2.053l0,0H72.18c1.129-0.004,2.047-0.922,2.051-2.053l0,0V39.769
	c-0.004-1.133-0.922-2.053-2.051-2.053l0,0H55.271C54.143,37.716,53.225,38.636,53.221,39.769L53.221,39.769z"/>
</svg>
