<?xml version="1.0" encoding="utf-8"?>
<!DOCTYPE svg PUBLIC "-//W3C//DTD SVG 1.1//EN" "http://www.w3.org/Graphics/SVG/1.1/DTD/svg11.dtd">
<svg version="1.1" id="Layer_1" xmlns="http://www.w3.org/2000/svg" xmlns:xlink="http://www.w3.org/1999/xlink" x="0px" y="0px"
	 width="42.785px" height="31.8px" viewBox="0 0 42.785 31.8" enable-background="new 0 0 42.785 31.8" xml:space="preserve">
<linearGradient id="gradient" gradientUnits="userSpaceOnUse" x1="17.1387" y1="31.8" x2="17.1387" y2="0">
	<stop  offset="0" style="stop-color:#404040"/>
	<stop  offset="1" style="stop-color:#A0A0A0"/>
</linearGradient>
<path fill="#C0C0C0" d="M4.272,31.8C1.912,31.798,0,29.888,0,27.528l0,0V4.272C0,1.913,1.912,0,4.272,0l0,0h34.242
	c2.359,0,4.271,1.913,4.271,4.272l0,0v23.256c0,2.359-1.911,4.27-4.271,4.271l0,0H4.272L4.272,31.8z M1.799,4.272v23.256
	c0.004,1.364,1.107,2.469,2.474,2.471l0,0h34.242c1.364-0.002,2.467-1.106,2.472-2.471l0,0V4.272
	c-0.005-1.364-1.107-2.469-2.472-2.471l0,0H4.272C2.906,1.803,1.803,2.908,1.799,4.272L1.799,4.272z"/>
<path fill="#808080" d="M27.636,28.059c-1.56-0.002-2.823-1.264-2.825-2.826l0,0v-5.348c0.002-1.563,1.266-2.826,2.825-2.828l0,0
	h8.454c1.56,0.002,2.823,1.264,2.825,2.828l0,0v5.348c-0.002,1.563-1.266,2.824-2.825,2.826l0,0H27.636L27.636,28.059z
	 M26.61,19.885v5.348c0.002,0.566,0.461,1.023,1.025,1.026l0,0h8.454c0.564-0.003,1.023-0.462,1.025-1.026l0,0v-5.348
	c-0.002-0.566-0.461-1.026-1.025-1.026l0,0h-8.454C27.071,18.858,26.612,19.318,26.61,19.885L26.61,19.885z"/>
</svg>
