<?xml version="1.0" encoding="utf-8"?>
<!DOCTYPE svg PUBLIC "-//W3C//DTD SVG 1.1//EN" "http://www.w3.org/Graphics/SVG/1.1/DTD/svg11.dtd">
<svg version="1.1" id="Layer_1" xmlns="http://www.w3.org/2000/svg" xmlns:xlink="http://www.w3.org/1999/xlink" x="0px" y="0px"
	 width="83.949px" height="63.599px" viewBox="0 0 83.949 63.599" enable-background="new 0 0 83.949 63.599" xml:space="preserve">
<linearGradient id="gradient" gradientUnits="userSpaceOnUse" x1="17.1387" y1="63.599" x2="17.1387" y2="0">
	<stop  offset="0" style="stop-color:#404040"/>
	<stop  offset="1" style="stop-color:#A0A0A0"/>
</linearGradient>
<path fill="#C0C0C0" d="M8.742,63.599c-4.83,0-8.742-3.914-8.742-8.74l0,0V8.741C0,3.911,3.912,0,8.742,0l0,0h66.467
	c4.826,0,8.736,3.911,8.74,8.741l0,0v46.118c-0.004,4.826-3.914,8.736-8.74,8.74l0,0H8.742L8.742,63.599z M3.602,8.741v46.118
	C3.605,57.695,5.902,59.992,8.742,60l0,0h66.467c2.836-0.008,5.133-2.305,5.141-5.141l0,0V8.741
	c-0.008-2.839-2.305-5.136-5.141-5.141l0,0H8.742C5.902,3.605,3.605,5.902,3.602,8.741L3.602,8.741z"/>
<polygon fill="#808080" points="14.408,33.599 14.408,29.997 69.543,29.997 69.543,33.599 14.408,33.599 "/>
<g>
	<polygon fill="#808080" points="14.408,18.602 14.408,15 69.543,15 69.543,18.602 14.408,18.602 	"/>
	<polygon fill="#808080" points="14.408,48.601 14.408,45 69.543,45 69.543,48.601 14.408,48.601 	"/>
</g>
</svg>
