<?xml version="1.0" encoding="utf-8"?>
<!DOCTYPE svg PUBLIC "-//W3C//DTD SVG 1.1//EN" "http://www.w3.org/Graphics/SVG/1.1/DTD/svg11.dtd">
<svg version="1.1" id="Layer_1" xmlns="http://www.w3.org/2000/svg" xmlns:xlink="http://www.w3.org/1999/xlink" x="0px" y="0px"
	 width="133.967px" height="63.597px" viewBox="0 0 133.967 63.597" enable-background="new 0 0 133.967 63.597"
	 xml:space="preserve">
<linearGradient id="gradient" gradientUnits="userSpaceOnUse" x1="17.1387" y1="63.597" x2="17.1387" y2="0">
	<stop  offset="0" style="stop-color:#404040"/>
	<stop  offset="1" style="stop-color:#A0A0A0"/>
</linearGradient>
<path fill="#808080" d="M11.309,40.351V12.566H29.67v25.986v1.799H11.309L11.309,40.351z M27.871,38.552v-1.805V38.552
	L27.871,38.552z M14.906,36.748h11.162V16.166H14.906V36.748L14.906,36.748z"/>
<path fill="#808080" d="M42.092,40.349V12.566h18.367V38.55v1.799H42.092L42.092,40.349z M58.66,38.55v-1.799V38.55L58.66,38.55z
	 M45.691,36.751h11.166V16.164H45.691V36.751L45.691,36.751z"/>
<path fill="#808080" d="M73.506,40.351V12.566h18.361v25.986v1.799H73.506L73.506,40.351z M90.07,38.552v-1.801V38.552L90.07,38.552
	z M77.105,36.751H88.27V16.164H77.105V36.751L77.105,36.751z"/>
<path fill="#808080" d="M104.291,40.351V12.564h18.367V38.55v1.801H104.291L104.291,40.351z M120.857,38.55V36.75V38.55
	L120.857,38.55z M107.893,36.75h11.162V16.166h-11.162V36.75L107.893,36.75z"/>
<g>
	<polygon fill="#C0C0C0" points="9.877,57.123 9.877,49.566 13.475,49.566 13.475,57.123 9.877,57.123 	"/>
	<polygon fill="#C0C0C0" points="19.875,57.121 19.875,49.562 23.477,49.562 23.477,57.121 19.875,57.121 	"/>
	<polygon fill="#C0C0C0" points="29.875,57.123 29.875,49.564 33.477,49.564 33.477,57.123 29.875,57.123 	"/>
	<polygon fill="#C0C0C0" points="39.875,57.121 39.875,49.566 43.477,49.566 43.477,57.121 39.875,57.121 	"/>
	<polygon fill="#C0C0C0" points="49.875,57.121 49.875,49.566 53.473,49.566 53.473,57.121 49.875,57.121 	"/>
</g>
<g>
	<polygon fill="#C0C0C0" points="79.875,57.121 79.875,49.566 83.477,49.566 83.477,57.121 79.875,57.121 	"/>
	<polygon fill="#C0C0C0" points="89.879,57.121 89.879,49.564 93.479,49.564 93.479,57.121 89.879,57.121 	"/>
	<polygon fill="#C0C0C0" points="99.873,57.121 99.873,49.564 103.475,49.564 103.475,57.121 99.873,57.121 	"/>
	<polygon fill="#C0C0C0" points="109.873,57.123 109.873,49.566 113.475,49.566 113.475,57.123 109.873,57.123 	"/>
	<polygon fill="#C0C0C0" points="119.875,57.123 119.875,49.566 123.473,49.566 123.473,57.123 119.875,57.123 	"/>
</g>
<path fill="#C0C0C0" d="M126.441,0H7.527C3.365,0,0,3.371,0,7.529V56.07c0,4.156,3.365,7.527,7.527,7.527h56.07V51.658h6.768v11.939
	h56.076c4.158,0,7.525-3.371,7.525-7.527V7.529C133.967,3.371,130.6,0,126.441,0z M130.367,56.07
	c-0.004,2.172-1.758,3.924-3.926,3.928H73.965V48.058H59.998v11.939H7.527C5.355,59.994,3.604,58.242,3.6,56.07V7.529
	C3.604,5.357,5.355,3.6,7.527,3.6h118.914c2.168,0,3.922,1.758,3.926,3.93V56.07z"/>
</svg>
