<?xml version="1.0" encoding="utf-8"?>
<!DOCTYPE svg PUBLIC "-//W3C//DTD SVG 1.1//EN" "http://www.w3.org/Graphics/SVG/1.1/DTD/svg11.dtd">
<svg version="1.1" id="Layer_1" xmlns="http://www.w3.org/2000/svg" xmlns:xlink="http://www.w3.org/1999/xlink" x="0px" y="0px"
	 width="66.983px" height="31.799px" viewBox="0 0 66.983 31.799" enable-background="new 0 0 66.983 31.799" xml:space="preserve">
<linearGradient id="gradient" gradientUnits="userSpaceOnUse" x1="17.1387" y1="31.799" x2="17.1387" y2="0">
	<stop  offset="0" style="stop-color:#404040"/>
	<stop  offset="1" style="stop-color:#A0A0A0"/>
</linearGradient>
<path fill="#808080" d="M5.654,20.176V6.283h9.181v12.993v0.899H5.654L5.654,20.176z M13.936,19.276v-0.902V19.276L13.936,19.276z
	 M7.453,18.374h5.581V8.083H7.453V18.374L7.453,18.374z"/>
<path fill="#808080" d="M21.046,20.175V6.283h9.184v12.992v0.899H21.046L21.046,20.175z M29.33,19.275v-0.899V19.275L29.33,19.275z
	 M22.846,18.376h5.583V8.082h-5.583V18.376L22.846,18.376z"/>
<path fill="#808080" d="M36.753,20.176V6.283h9.181v12.993v0.899H36.753L36.753,20.176z M45.035,19.276v-0.9V19.276L45.035,19.276z
	 M38.553,18.376h5.582V8.082h-5.582V18.376L38.553,18.376z"/>
<path fill="#808080" d="M52.146,20.176V6.282h9.184v12.993v0.9H52.146L52.146,20.176z M60.429,19.275v-0.9V19.275L60.429,19.275z
	 M53.946,18.375h5.581V8.083h-5.581V18.375L53.946,18.375z"/>
<g>
	<polygon fill="#C0C0C0" points="4.938,28.562 4.938,24.783 6.737,24.783 6.737,28.562 4.938,28.562 	"/>
	<polygon fill="#C0C0C0" points="9.938,28.561 9.938,24.781 11.738,24.781 11.738,28.561 9.938,28.561 	"/>
	<polygon fill="#C0C0C0" points="14.938,28.562 14.938,24.782 16.738,24.782 16.738,28.562 14.938,28.562 	"/>
	<polygon fill="#C0C0C0" points="19.938,28.561 19.938,24.783 21.738,24.783 21.738,28.561 19.938,28.561 	"/>
	<polygon fill="#C0C0C0" points="24.938,28.561 24.938,24.783 26.736,24.783 26.736,28.561 24.938,28.561 	"/>
</g>
<g>
	<polygon fill="#C0C0C0" points="39.938,28.561 39.938,24.783 41.738,24.783 41.738,28.561 39.938,28.561 	"/>
	<polygon fill="#C0C0C0" points="44.939,28.561 44.939,24.782 46.739,24.782 46.739,28.561 44.939,28.561 	"/>
	<polygon fill="#C0C0C0" points="49.937,28.561 49.937,24.782 51.737,24.782 51.737,28.561 49.937,28.561 	"/>
	<polygon fill="#C0C0C0" points="54.937,28.562 54.937,24.783 56.737,24.783 56.737,28.562 54.937,28.562 	"/>
	<polygon fill="#C0C0C0" points="59.938,28.562 59.938,24.783 61.736,24.783 61.736,28.562 59.938,28.562 	"/>
</g>
<path fill="#C0C0C0" d="M63.221,0H3.764C1.683,0,0,1.686,0,3.765v24.271c0,2.078,1.683,3.764,3.764,3.764h28.035v-5.97h3.384v5.97
	h28.038c2.079,0,3.763-1.686,3.763-3.764V3.765C66.983,1.686,65.3,0,63.221,0z M65.184,28.035c-0.002,1.086-0.879,1.962-1.963,1.964
	H36.982v-5.97h-6.983v5.97H3.764c-1.086-0.002-1.962-0.878-1.964-1.964V3.765C1.802,2.679,2.678,1.8,3.764,1.8h59.457
	c1.084,0,1.961,0.879,1.963,1.965V28.035z"/>
</svg>
