<?xml version="1.0" encoding="utf-8"?>
<!DOCTYPE svg PUBLIC "-//W3C//DTD SVG 1.1//EN" "http://www.w3.org/Graphics/SVG/1.1/DTD/svg11.dtd">
<svg version="1.1" id="Layer_1" xmlns="http://www.w3.org/2000/svg" xmlns:xlink="http://www.w3.org/1999/xlink" x="0px" y="0px"
	 width="81.646px" height="63.594px" viewBox="0 0 81.646 63.594" enable-background="new 0 0 81.646 63.594" xml:space="preserve">
<linearGradient id="gradient" gradientUnits="userSpaceOnUse" x1="17.1387" y1="63.594" x2="17.1387" y2="0">
	<stop  offset="0" style="stop-color:#404040"/>
	<stop  offset="1" style="stop-color:#A0A0A0"/>
</linearGradient>
<path fill="#C0C0C0" d="M7.637,63.594C3.42,63.594,0,60.178,0,55.958l0,0V7.641C0,3.416,3.42,0,7.637,0l0,0H74.01
	c4.217,0,7.637,3.42,7.637,7.641l0,0v48.317c0,4.221-3.42,7.637-7.637,7.637l0,0H7.637L7.637,63.594z M3.598,7.641v48.317
	c0.004,2.232,1.812,4.035,4.039,4.039l0,0H74.01c2.229-0.004,4.031-1.807,4.035-4.039l0,0V7.641
	c-0.004-2.236-1.807-4.039-4.035-4.043l0,0H7.637C5.409,3.602,3.602,5.408,3.598,7.641L3.598,7.641z"/>
<polygon fill="#808080" points="28.602,26.076 38.914,54.077 48.137,22.239 51.908,35.221 78.045,35.221 78.045,31.62 54.613,31.62 
	48.137,9.311 38.506,42.543 28.262,14.761 23.16,31.62 3.598,31.62 3.598,35.221 25.832,35.221 "/>
</svg>
