<?xml version="1.0" encoding="utf-8"?>
<!DOCTYPE svg PUBLIC "-//W3C//DTD SVG 1.1//EN" "http://www.w3.org/Graphics/SVG/1.1/DTD/svg11.dtd">
<svg version="1.1" id="Layer_1" xmlns="http://www.w3.org/2000/svg" xmlns:xlink="http://www.w3.org/1999/xlink" x="0px" y="0px"
	 width="35.303px" height="31.799px" viewBox="0 0 35.303 31.799" enable-background="new 0 0 35.303 31.799" xml:space="preserve">
<linearGradient id="gradient" gradientUnits="userSpaceOnUse" x1="17.1387" y1="31.799" x2="17.1387" y2="0">
	<stop  offset="0" style="stop-color:#404040"/>
	<stop  offset="1" style="stop-color:#A0A0A0"/>
</linearGradient>
<path fill="#C0C0C0" d="M13.075,17.858c0-2.526,2.049-4.576,4.578-4.576l0,0c2.526,0,4.573,2.049,4.575,4.576l0,0
	c0,2.528-2.049,4.577-4.575,4.577l0,0C15.124,22.435,13.075,20.386,13.075,17.858L13.075,17.858z M14.875,17.858
	c0.002,1.534,1.243,2.772,2.778,2.777l0,0c1.532-0.005,2.772-1.243,2.775-2.777l0,0c-0.003-1.533-1.243-2.773-2.775-2.775l0,0
	C16.118,15.084,14.877,16.325,14.875,17.858L14.875,17.858z"/>
<g>
	<path fill="#C0C0C0" d="M13.075,4.577c0-2.526,2.048-4.574,4.576-4.577l0,0c2.529,0.002,4.575,2.05,4.577,4.577l0,0
		c0,2.528-2.048,4.576-4.577,4.578l0,0C15.123,9.153,13.075,7.105,13.075,4.577L13.075,4.577z M14.875,4.577
		c0.002,1.534,1.243,2.775,2.777,2.777l0,0c1.532-0.002,2.773-1.243,2.778-2.777l0,0c-0.005-1.532-1.246-2.773-2.778-2.777l0,0
		C16.117,1.804,14.876,3.044,14.875,4.577L14.875,4.577z"/>
	<path fill="#C0C0C0" d="M0,27.224c0-2.529,2.05-4.576,4.577-4.576l0,0c2.527,0,4.577,2.047,4.577,4.576l0,0
		c0,2.527-2.049,4.575-4.577,4.575l0,0C2.05,31.799,0,29.751,0,27.224L0,27.224z M1.8,27.224C1.802,28.756,3.042,29.997,4.577,30
		l0,0c1.533-0.004,2.774-1.244,2.777-2.776l0,0c-0.002-1.534-1.244-2.774-2.777-2.776l0,0C3.042,24.45,1.802,25.69,1.8,27.224
		L1.8,27.224z"/>
</g>
<path fill="#C0C0C0" d="M26.15,27.224c0-2.529,2.048-4.576,4.577-4.576l0,0c2.527,0,4.576,2.047,4.576,4.576l0,0
	c-0.002,2.527-2.049,4.575-4.576,4.575l0,0C28.198,31.799,26.15,29.751,26.15,27.224L26.15,27.224z M27.951,27.224
	c0.002,1.532,1.242,2.772,2.776,2.776l0,0c1.532-0.004,2.772-1.244,2.776-2.776l0,0c-0.004-1.534-1.244-2.774-2.776-2.776l0,0
	C29.193,24.45,27.953,25.69,27.951,27.224L27.951,27.224z"/>
<path fill="#808080" d="M7.212,23.493c0.502,0.354,0.923,0.81,1.247,1.334l5.866-3.842c-0.412-0.438-0.733-0.956-0.948-1.53
	L7.212,23.493z M21.922,19.466c-0.216,0.573-0.539,1.091-0.951,1.527l5.819,3.931c0.311-0.53,0.718-0.99,1.208-1.355L21.922,19.466z
	 M16.748,9.063l-0.023,4.314c0.3-0.062,0.61-0.095,0.929-0.095c0.299,0,0.589,0.033,0.871,0.088l0.022-4.306
	c-0.29,0.058-0.588,0.091-0.895,0.091C17.342,9.155,17.04,9.122,16.748,9.063z"/>
</svg>
