<?xml version="1.0" encoding="utf-8"?>
<!DOCTYPE svg PUBLIC "-//W3C//DTD SVG 1.1//EN" "http://www.w3.org/Graphics/SVG/1.1/DTD/svg11.dtd">
<svg version="1.1" id="Layer_1" xmlns="http://www.w3.org/2000/svg" xmlns:xlink="http://www.w3.org/1999/xlink" x="0px" y="0px"
	 width="70.606px" height="63.598px" viewBox="0 0 70.606 63.598" enable-background="new 0 0 70.606 63.598" xml:space="preserve">
<linearGradient id="gradient" gradientUnits="userSpaceOnUse" x1="17.1387" y1="63.598" x2="17.1387" y2="0">
	<stop  offset="0" style="stop-color:#404040"/>
	<stop  offset="1" style="stop-color:#A0A0A0"/>
</linearGradient>
<path fill="#C0C0C0" d="M26.15,35.715c0-5.052,4.098-9.151,9.155-9.151l0,0c5.053,0,9.146,4.099,9.15,9.151l0,0
	c0,5.057-4.098,9.154-9.15,9.154l0,0C30.248,44.87,26.15,40.772,26.15,35.715L26.15,35.715z M29.75,35.715
	c0.005,3.068,2.485,5.545,5.556,5.555l0,0c3.065-0.01,5.546-2.486,5.551-5.555l0,0c-0.005-3.064-2.485-5.546-5.551-5.55l0,0
	C32.235,30.169,29.755,32.651,29.75,35.715L29.75,35.715z"/>
<g>
	<path fill="#C0C0C0" d="M26.15,9.153c0-5.053,4.096-9.148,9.152-9.153l0,0c5.058,0.005,9.148,4.101,9.153,9.153l0,0
		c0,5.057-4.096,9.152-9.153,9.156l0,0C30.246,18.306,26.15,14.21,26.15,9.153L26.15,9.153z M29.749,9.153
		c0.004,3.068,2.485,5.55,5.554,5.554l0,0c3.064-0.004,5.546-2.485,5.555-5.554l0,0c-0.009-3.064-2.49-5.546-5.555-5.555l0,0
		C32.234,3.607,29.753,6.089,29.749,9.153L29.749,9.153z"/>
	<path fill="#C0C0C0" d="M0,54.448c0-5.059,4.1-9.152,9.153-9.152l0,0c5.055,0,9.153,4.094,9.153,9.152l0,0
		c0,5.055-4.099,9.15-9.153,9.15l0,0C4.1,63.598,0,59.502,0,54.448L0,54.448z M3.601,54.448C3.604,57.512,6.085,59.993,9.153,60l0,0
		c3.065-0.008,5.549-2.488,5.554-5.553l0,0c-0.005-3.068-2.488-5.549-5.554-5.553l0,0C6.085,48.899,3.604,51.379,3.601,54.448
		L3.601,54.448z"/>
</g>
<path fill="#C0C0C0" d="M52.301,54.448c0-5.059,4.095-9.152,9.153-9.152l0,0c5.055,0,9.152,4.094,9.152,9.152l0,0
	c-0.004,5.055-4.098,9.15-9.152,9.15l0,0C56.396,63.598,52.301,59.502,52.301,54.448L52.301,54.448z M55.901,54.448
	c0.004,3.064,2.483,5.545,5.553,5.553l0,0c3.064-0.008,5.545-2.488,5.553-5.553l0,0c-0.008-3.068-2.488-5.549-5.553-5.553l0,0
	C58.385,48.899,55.905,51.379,55.901,54.448L55.901,54.448z"/>
<path fill="#808080" d="M14.425,46.985c1.004,0.709,1.846,1.619,2.494,2.668l11.732-7.684c-0.824-0.877-1.467-1.912-1.896-3.061
	L14.425,46.985z M43.845,38.932c-0.432,1.146-1.078,2.182-1.902,3.055l11.639,7.861c0.621-1.061,1.436-1.98,2.416-2.711
	L43.845,38.932z M33.495,18.126l-0.047,8.628c0.6-0.123,1.221-0.189,1.857-0.189c0.598,0,1.178,0.066,1.742,0.176l0.045-8.612
	c-0.58,0.115-1.176,0.182-1.789,0.182C34.685,18.31,34.079,18.244,33.495,18.126z"/>
</svg>
