<?xml version="1.0" encoding="utf-8"?>
<!DOCTYPE svg PUBLIC "-//W3C//DTD SVG 1.1//EN" "http://www.w3.org/Graphics/SVG/1.1/DTD/svg11.dtd">
<svg version="1.1" id="Layer_1" xmlns="http://www.w3.org/2000/svg" xmlns:xlink="http://www.w3.org/1999/xlink" x="0px" y="0px"
	 width="112.045px" height="84.461px" viewBox="0 0 112.045 84.461" enable-background="new 0 0 112.045 84.461"
	 xml:space="preserve">
<linearGradient id="gradient" gradientUnits="userSpaceOnUse" x1="17.1387" y1="84.461" x2="17.1387" y2="0">
	<stop  offset="0" style="stop-color:#404040"/>
	<stop  offset="1" style="stop-color:#A0A0A0"/>
</linearGradient>
<path fill="#C0C0C0" d="M85.992,60.708h26.054l-2.777-2.594L85.082,35.499h-32.86l0.001,0.001H26.96L0,60.709h26.051v23.752h31.472
	V84.46h28.469V60.708z M83.898,38.5l20.545,19.21H80.365L59.822,38.5H83.898z M7.598,57.708l20.544-19.209h24.077L31.68,57.708
	H7.598z M54.52,81.459H29.051v-20.75h3.813l0.432-0.403L54.52,40.457V81.459z M57.523,81.46V40.457l21.655,20.251h3.812V81.46
	H57.523z"/>
<polygon fill="#808080" points="67.858,11.326 67.856,11.326 56.022,0 44.187,11.326 46.26,13.495 54.52,5.588 54.52,30.707 
	57.523,30.707 57.523,5.59 65.782,13.495 "/>
<polygon fill="#808080" points="48.336,22.398 48.334,22.398 40.474,15.068 32.611,22.398 34.658,24.593 38.974,20.568 
	38.974,30.708 41.975,30.708 41.975,20.568 46.289,24.591 "/>
<polygon fill="#808080" points="79.434,22.398 79.431,22.398 71.568,15.067 63.707,22.398 65.754,24.593 70.069,20.568 
	70.069,30.707 73.068,30.707 73.068,20.568 77.385,24.593 "/>
</svg>
