<?xml version="1.0" encoding="utf-8"?>
<!DOCTYPE svg PUBLIC "-//W3C//DTD SVG 1.1//EN" "http://www.w3.org/Graphics/SVG/1.1/DTD/svg11.dtd">
<svg version="1.1" id="Layer_1" xmlns="http://www.w3.org/2000/svg" xmlns:xlink="http://www.w3.org/1999/xlink" x="0px" y="0px"
	 width="63.445px" height="65.398px" viewBox="0 0 63.445 65.398" enable-background="new 0 0 63.445 65.398" xml:space="preserve">
<linearGradient id="gradient" gradientUnits="userSpaceOnUse" x1="17.1387" y1="63.598" x2="17.1387" y2="0">
	<stop  offset="0" style="stop-color:#404040"/>
	<stop  offset="1" style="stop-color:#A0A0A0"/>
</linearGradient>
<polygon fill="#808080" points="51.289,16.347 41.847,0 32.412,16.347 35.529,18.146 40.047,10.317 40.047,41.519 43.647,41.519 
	43.647,10.317 48.168,18.146 "/>
<path fill="#C0C0C0" d="M55.705,22.508H43.648v3.601h12.057c2.289,0.004,4.135,1.854,4.139,4.144V57.66
	c-0.004,2.285-1.85,4.135-4.139,4.139H7.738C5.449,61.794,3.604,59.945,3.6,57.66V20.198c0-0.773,0.623-1.398,1.396-1.398h16.902
	c0.773,0,1.398,0.625,1.398,1.398v5.91h16.75v-3.601h-13.15v-2.31c0-2.763-2.236-4.999-4.998-4.999H4.996
	C2.234,15.199,0,17.436,0,20.198V57.66c0,4.273,3.461,7.738,7.738,7.738h47.967c4.279,0,7.74-3.465,7.74-7.738V30.252
	C63.445,25.973,59.984,22.512,55.705,22.508z"/>
</svg>
