<?xml version="1.0" encoding="utf-8"?>
<!DOCTYPE svg PUBLIC "-//W3C//DTD SVG 1.1//EN" "http://www.w3.org/Graphics/SVG/1.1/DTD/svg11.dtd">
<svg version="1.1" id="Layer_1" xmlns="http://www.w3.org/2000/svg" xmlns:xlink="http://www.w3.org/1999/xlink" x="0px" y="0px"
	 width="31.723px" height="32.699px" viewBox="0 0 31.723 32.699" enable-background="new 0 0 31.723 32.699" xml:space="preserve">
<linearGradient id="gradient" gradientUnits="userSpaceOnUse" x1="17.1387" y1="32.699" x2="17.1387" y2="0">
	<stop  offset="0" style="stop-color:#404040"/>
	<stop  offset="1" style="stop-color:#A0A0A0"/>
</linearGradient>
<polygon fill="#808080" points="25.645,8.173 20.924,0 16.206,8.173 17.765,9.073 20.023,5.159 20.023,20.76 21.824,20.76 
	21.824,5.159 24.084,9.073 "/>
<path fill="#C0C0C0" d="M27.853,11.254h-6.028v1.8h6.028c1.145,0.002,2.067,0.927,2.069,2.072V28.83
	c-0.002,1.143-0.925,2.066-2.069,2.068H3.869C2.725,30.896,1.802,29.973,1.8,28.83V10.099C1.8,9.712,2.111,9.4,2.498,9.4h8.451
	c0.387,0,0.699,0.313,0.699,0.699v2.955h8.375v-1.8h-6.575v-1.155c0-1.381-1.118-2.5-2.499-2.5H2.498C1.117,7.6,0,8.718,0,10.099
	V28.83c0,2.137,1.73,3.869,3.869,3.869h23.983c2.14,0,3.87-1.732,3.87-3.869V15.126C31.723,12.986,29.992,11.256,27.853,11.254z"/>
</svg>
