<?xml version="1.0" encoding="utf-8"?>
<!DOCTYPE svg PUBLIC "-//W3C//DTD SVG 1.1//EN" "http://www.w3.org/Graphics/SVG/1.1/DTD/svg11.dtd">
<svg version="1.1" id="Layer_1" xmlns="http://www.w3.org/2000/svg" xmlns:xlink="http://www.w3.org/1999/xlink" x="0px" y="0px"
	 width="63.601px" height="63.598px" viewBox="0 0 63.601 63.598" enable-background="new 0 0 63.601 63.598" xml:space="preserve">
<linearGradient id="gradient" gradientUnits="userSpaceOnUse" x1="17.1387" y1="63.598" x2="17.1387" y2="0">
	<stop  offset="0" style="stop-color:#404040"/>
	<stop  offset="1" style="stop-color:#A0A0A0"/>
</linearGradient>
<path fill="#808080" d="M0,31.799C0.004,14.236,14.239,0,31.802,0l0,0c17.561,0,31.795,14.236,31.799,31.799l0,0
	c-0.004,17.563-14.238,31.799-31.799,31.799l0,0C14.239,63.598,0.004,49.362,0,31.799L0,31.799z M3.6,31.799
	c0.029,15.572,12.628,28.17,28.202,28.199l0,0c15.572-0.029,28.17-12.627,28.199-28.199l0,0
	C59.972,16.224,47.374,3.629,31.802,3.601l0,0C16.228,3.629,3.629,16.224,3.6,31.799L3.6,31.799z"/>
<g>
	<polygon fill="#C0C0C0" points="21.997,44.444 21.997,19.153 25.599,19.153 25.599,44.444 21.997,44.444 	"/>
	<polygon fill="#C0C0C0" points="38.001,44.446 38.001,19.155 41.601,19.155 41.601,44.446 38.001,44.446 	"/>
</g>
</svg>
