<?xml version="1.0" encoding="utf-8"?>
<!DOCTYPE svg PUBLIC "-//W3C//DTD SVG 1.1//EN" "http://www.w3.org/Graphics/SVG/1.1/DTD/svg11.dtd">
<svg version="1.1" id="Layer_1" xmlns="http://www.w3.org/2000/svg" xmlns:xlink="http://www.w3.org/1999/xlink" x="0px" y="0px"
	 width="35.493px" height="31.799px" viewBox="0 0 35.493 31.799" enable-background="new 0 0 35.493 31.799" xml:space="preserve">
<linearGradient id="gradient" gradientUnits="userSpaceOnUse" x1="17.1387" y1="31.799" x2="17.1387" y2="0">
	<stop  offset="0" style="stop-color:#404040"/>
	<stop  offset="1" style="stop-color:#A0A0A0"/>
</linearGradient>
<path fill="#808080" d="M6.845,31.799C3.063,31.799,0,28.735,0,24.954l0,0c0.002-3.779,3.063-6.844,6.845-6.846l0,0h0.001l0,0
	c0.081-0.148,0.165-0.293,0.251-0.434l0,0c1.628-2.671,4.571-4.463,7.933-4.463l0,0c3.214,0,6.048,1.636,7.715,4.118l0,0
	c0.245-0.028,0.494-0.043,0.748-0.043l0,0c2.127,0,4.027,0.996,5.251,2.543l0,0l-0.705,0.559l-0.707,0.558
	c-0.899-1.133-2.28-1.858-3.839-1.858l0,0c-0.346,0-0.687,0.037-1.012,0.105l0,0l-0.637,0.133l-0.326-0.563
	c-1.299-2.244-3.716-3.75-6.488-3.75l0,0c-2.71,0-5.077,1.441-6.396,3.601l0,0c-0.161,0.263-0.304,0.525-0.426,0.792l0,0
	l-0.263,0.581L7.31,19.93C7.153,19.916,7,19.909,6.845,19.909l0,0c-2.787,0.005-5.04,2.26-5.044,5.045l0,0
	c0.004,2.787,2.257,5.041,5.044,5.045l0,0h22.994c2.127-0.002,3.85-1.727,3.854-3.855l0,0c-0.004-2.13-1.727-3.852-3.854-3.856l0,0
	c-0.304,0-0.598,0.038-0.889,0.107l0,0l-0.712,0.167l-0.31-0.658c-0.159-0.34-0.36-0.66-0.598-0.958l0,0l0.707-0.558l0.705-0.559
	c0.173,0.219,0.335,0.45,0.483,0.692l0,0c0.199-0.022,0.404-0.035,0.612-0.035l0,0c3.122,0.003,5.652,2.532,5.654,5.657l0,0
	c-0.002,3.123-2.532,5.656-5.654,5.656l0,0H6.845L6.845,31.799z"/>
<path fill="#C0C0C0" d="M7.097,17.674c0.293-0.481,0.643-0.922,1.017-1.342c-0.355-1.08-0.563-2.225-0.563-3.423
	C7.562,6.786,12.539,1.811,18.664,1.8c6.125,0.011,11.1,4.986,11.109,11.109c0,2.248-0.679,4.331-1.836,6.08
	c0.29,0.26,0.564,0.535,0.806,0.84c0.144,0.182,0.273,0.376,0.4,0.574c1.519-2.112,2.432-4.696,2.43-7.494
	C31.571,5.788,25.785,0.002,18.664,0C11.541,0.002,5.753,5.788,5.751,12.909c0,1.843,0.413,3.585,1.112,5.169
	C6.938,17.941,7.017,17.805,7.097,17.674z"/>
</svg>
