<?xml version="1.0" encoding="utf-8"?>
<svg version="1.1" id="Layer_1" xmlns="http://www.w3.org/2000/svg" xmlns:xlink="http://www.w3.org/1999/xlink" x="0px" y="0px"
	 width="282.503px" height="182.209px" viewBox="0 0 282.503 182.209" enable-background="new 0 0 282.503 182.209"
	 xml:space="preserve">
<path fill="#1CB49E" d="M106.912,99.756l0.034-13.829c0-9.458,7.693-17.151,17.149-17.151c3.075,0,5.962,0.813,8.459,2.236
	l-0.003,0.005l0.444,0.254c4.943,3.012,8.252,8.456,8.252,14.657c0,1.612-0.226,3.174-0.644,4.654l-6.511-3.759
	c-7.905-4.563-14.374-0.83-14.374,8.299v9.189c-2.16,0.452-4.288,1.247-6.304,2.411c-2.631,1.517-4.813,3.514-6.504,5.813V99.756z"
	/>
<path fill="#1CB49E" d="M154.734,83.724l11.96,6.945c8.19,4.729,11.006,15.237,6.278,23.427
	c-4.729,8.189-15.238,11.006-23.428,6.277c-1.408-0.813-2.653-1.799-3.732-2.913l6.302-3.637c7.905-4.564,7.905-12.033,0-16.597
	l-7.823-4.517c0.716-2.131,1.105-4.412,1.105-6.783c0-3.056-0.645-5.96-1.803-8.586L154.734,83.724"/>
<path fill="#1CB49E" d="M115.49,110.315c1.358-0.784,2.781-1.36,4.229-1.739v7.354c0,9.128,6.469,12.861,14.374,8.297l8.029-4.635
	c1.494,1.695,3.282,3.183,5.348,4.376c2.64,1.523,5.469,2.418,8.316,2.729l-11.151,6.438l-11.995,6.886
	c-8.19,4.728-18.699,1.912-23.427-6.278C104.485,125.552,107.3,115.043,115.49,110.315"/>
<path fill="#F9A021" d="M132.018,120.634c-1.577,0.91-3.067,1.391-4.311,1.391c-3.339,0-3.838-3.819-3.838-6.096V95.122
	c0-2.276,0.499-6.097,3.838-6.097c1.244,0,2.734,0.481,4.311,1.392l18.021,10.404c2.449,1.414,3.854,3.128,3.854,4.705
	c0,1.575-1.404,3.29-3.854,4.704L132.018,120.634z"/>
<g>
	<path fill="#1CB49E" d="M54.671,0h11.909c4.35,0,7.646,1.053,9.89,3.16c2.224,2.107,3.336,5.199,3.336,9.275
		c0,4.097-1.112,7.198-3.336,9.305c-2.244,2.106-5.54,3.16-9.89,3.16h-8.983v18.785h-2.926V0z M57.598,2.429v20.073h8.983
		c3.258,0,5.774-0.868,7.549-2.604c1.794-1.736,2.692-4.223,2.692-7.461c0-3.179-0.897-5.647-2.692-7.403
		c-1.775-1.736-4.292-2.604-7.549-2.604H57.598z"/>
	<path fill="#F9A021" d="M90.779,0h24.696v2.429H93.764v16.766h20.804v2.37H93.764v19.751h22.238v2.37H90.779V0z"/>
	<path fill="#1CB49E" d="M128.671,0h11.909c4.35,0,7.646,1.053,9.89,3.16c2.224,2.107,3.336,5.199,3.336,9.275
		c0,4.097-1.112,7.198-3.336,9.305c-2.243,2.106-5.54,3.16-9.89,3.16h-8.983v18.785h-2.926V0z M131.598,2.429v20.073h8.983
		c3.257,0,5.773-0.868,7.549-2.604c1.795-1.736,2.692-4.223,2.692-7.461c0-3.179-0.897-5.647-2.692-7.403
		c-1.775-1.736-4.292-2.604-7.549-2.604H131.598z"/>
	<path fill="#1CB49E" d="M164.808,0h11.909c4.35,0,7.646,1.053,9.89,3.16c2.224,2.107,3.336,5.199,3.336,9.275
		c0,4.097-1.112,7.198-3.336,9.305c-2.243,2.106-5.54,3.16-9.89,3.16h-8.983v18.785h-2.926V0z M167.734,2.429v20.073h8.983
		c3.257,0,5.773-0.868,7.549-2.604c1.795-1.736,2.692-4.223,2.692-7.461c0-3.179-0.897-5.647-2.692-7.403
		c-1.775-1.736-4.292-2.604-7.549-2.604H167.734z"/>
	<path fill="#F9A021" d="M193.659,0h3.395l13.606,20.131L224.178,0h3.335l-15.449,22.882v20.804h-2.955V22.882L193.659,0z"/>
</g>
<g>
	<path fill="#1CB49E" stroke="#1CB49E" d="M0.5,165.707h4.279c1.563,0,2.748,0.379,3.554,1.136c0.799,0.757,1.198,1.868,1.198,3.333
		c0,1.473-0.399,2.587-1.198,3.344c-0.806,0.757-1.991,1.136-3.554,1.136H1.552v6.75H0.5V165.707z M1.552,166.58v7.213h3.228
		c1.171,0,2.075-0.312,2.713-0.936c0.645-0.624,0.967-1.518,0.967-2.682c0-1.143-0.322-2.029-0.967-2.66
		c-0.638-0.624-1.542-0.936-2.713-0.936H1.552z"/>
	<path fill="#1CB49E" stroke="#1CB49E" d="M10.868,165.707h1.219l4.889,7.234l4.858-7.234h1.199l-5.552,8.223v7.476h-1.062v-7.476
		L10.868,165.707z"/>
	<path fill="#1CB49E" stroke="#1CB49E" d="M24.01,165.707h12.207v0.862h-5.572v14.836h-1.062v-14.836H24.01V165.707z"/>
	<path fill="#1CB49E" stroke="#1CB49E" d="M39.309,165.707h1.062v6.897h8.779v-6.897h1.062v15.698H49.15v-7.949h-8.779v7.949h-1.062
		V165.707z"/>
	<path fill="#1CB49E" stroke="#1CB49E" d="M61.367,165.423c2.033,0,3.659,0.735,4.879,2.208c1.22,1.479,1.83,3.459,1.83,5.94
		c0,2.475-0.61,4.447-1.83,5.919c-1.22,1.479-2.846,2.219-4.879,2.219c-2.04,0-3.673-0.735-4.899-2.208
		c-1.22-1.472-1.83-3.448-1.83-5.93s0.61-4.462,1.83-5.94C57.694,166.159,59.328,165.423,61.367,165.423z M61.367,166.243
		c-1.717,0-3.084,0.656-4.101,1.967c-1.009,1.311-1.514,3.098-1.514,5.362c0,2.25,0.504,4.03,1.514,5.341
		c1.017,1.312,2.383,1.967,4.101,1.967s3.081-0.655,4.09-1.967c1.002-1.311,1.503-3.091,1.503-5.341
		c0-2.265-0.501-4.052-1.503-5.362C64.448,166.899,63.084,166.243,61.367,166.243z"/>
	<path fill="#1CB49E" stroke="#1CB49E" d="M72.439,165.707h1.556l7.612,14.353v-14.353h1.052v15.698h-1.493l-7.654-14.446v14.446
		h-1.073V165.707z"/>
	<path fill="#1CB49E" stroke="#1CB49E" d="M102.257,165.707h4.279c1.563,0,2.748,0.379,3.554,1.136
		c0.799,0.757,1.198,1.868,1.198,3.333c0,1.473-0.399,2.587-1.198,3.344c-0.806,0.757-1.991,1.136-3.554,1.136h-3.228v6.75h-1.052
		V165.707z M103.309,166.58v7.213h3.228c1.171,0,2.075-0.312,2.713-0.936c0.645-0.624,0.967-1.518,0.967-2.682
		c0-1.143-0.322-2.029-0.967-2.66c-0.638-0.624-1.542-0.936-2.713-0.936H103.309z"/>
	<path fill="#1CB49E" stroke="#1CB49E" d="M112.625,165.707h1.219l4.889,7.234l4.858-7.234h1.199l-5.552,8.223v7.476h-1.062v-7.476
		L112.625,165.707z"/>
	<path fill="#1CB49E" stroke="#1CB49E" d="M138.648,180.07v-5.499h-4.006v-0.862h5.047v6.865c-0.75,0.372-1.574,0.648-2.471,0.831
		c-0.897,0.189-1.858,0.291-2.881,0.305c-2.271,0-4.045-0.718-5.32-2.155c-1.283-1.43-1.924-3.424-1.924-5.982
		c0-2.565,0.642-4.566,1.924-6.004c1.275-1.43,3.049-2.145,5.32-2.145c0.939,0,1.826,0.095,2.66,0.283
		c0.841,0.204,1.612,0.502,2.313,0.895v1.02c-0.708-0.393-1.465-0.69-2.271-0.894c-0.799-0.196-1.64-0.295-2.523-0.295
		c-2.11,0-3.694,0.6-4.752,1.798c-1.059,1.192-1.588,2.973-1.588,5.342c0,2.404,0.529,4.213,1.588,5.425
		c1.058,1.22,2.643,1.83,4.752,1.83c0.862,0,1.633-0.06,2.313-0.179C137.501,180.522,138.108,180.329,138.648,180.07z"/>
	<path fill="#1CB49E" stroke="#1CB49E" d="M148.616,165.707h1.377l6.004,15.698h-1.198l-1.872-4.932h-7.328l-1.861,4.932h-1.114
		L148.616,165.707z M149.289,166.769l-3.364,8.832h6.676L149.289,166.769z"/>
	<path fill="#1CB49E" stroke="#1CB49E" d="M160.17,165.707h1.462l4.363,11.64l4.385-11.64h1.45v15.698h-1.072v-13.784l-4.037,10.767
		h-1.451l-4.027-10.767v13.784h-1.072V165.707z"/>
	<path fill="#1CB49E" stroke="#1CB49E" d="M177.909,165.707h8.874v0.873h-7.802v6.024h7.476v0.852h-7.476v7.098h7.991v0.852h-9.063
		V165.707z"/>
	<path fill="#1CB49E" stroke="#1CB49E" d="M205.214,165.707h4.279c1.563,0,2.747,0.379,3.554,1.136
		c0.799,0.757,1.198,1.868,1.198,3.333c0,1.473-0.399,2.587-1.198,3.344c-0.807,0.757-1.991,1.136-3.554,1.136h-3.229v6.75h-1.051
		V165.707z M206.265,166.58v7.213h3.229c1.17,0,2.074-0.312,2.713-0.936c0.645-0.624,0.967-1.518,0.967-2.682
		c0-1.143-0.322-2.029-0.967-2.66c-0.639-0.624-1.543-0.936-2.713-0.936H206.265z"/>
	<path fill="#1CB49E" stroke="#1CB49E" d="M218.2,165.707h1.051v14.836h7.645v0.862H218.2V165.707z"/>
	<path fill="#1CB49E" stroke="#1CB49E" d="M234.697,165.707h1.377l6.004,15.698h-1.198l-1.872-4.932h-7.328l-1.861,4.932h-1.114
		L234.697,165.707z M235.37,166.769l-3.364,8.832h6.676L235.37,166.769z"/>
	<path fill="#1CB49E" stroke="#1CB49E" d="M241.604,165.707h1.22l4.89,7.234l4.857-7.234h1.198l-5.551,8.223v7.476h-1.063v-7.476
		L241.604,165.707z"/>
	<path fill="#1CB49E" stroke="#1CB49E" d="M256.892,165.707h8.874v0.873h-7.802v6.024h7.476v0.852h-7.476v7.098h7.991v0.852h-9.063
		V165.707z"/>
	<path fill="#1CB49E" stroke="#1CB49E" d="M276.996,174.044c0.435,0.154,0.854,0.484,1.262,0.988
		c0.287,0.365,0.697,1.059,1.229,2.082l2.198,4.29h-1.125l-2.24-4.311c-0.582-1.129-1.139-1.875-1.672-2.24
		c-0.546-0.364-1.286-0.547-2.218-0.547h-2.85v7.098h-1.052v-15.698h4.259c1.604,0,2.804,0.375,3.596,1.125
		c0.792,0.751,1.188,1.883,1.188,3.396c0,0.975-0.207,1.795-0.621,2.46C278.558,173.34,277.907,173.792,276.996,174.044z
		 M271.581,166.569v6.866h3.47c1.121,0,1.97-0.291,2.544-0.873c0.575-0.581,0.862-1.44,0.862-2.576c0-1.128-0.287-1.979-0.862-2.555
		c-0.574-0.574-1.423-0.862-2.544-0.862H271.581z"/>
</g>
</svg>
