<?xml version="1.0" encoding="utf-8"?>
<!DOCTYPE svg PUBLIC "-//W3C//DTD SVG 1.1//EN" "http://www.w3.org/Graphics/SVG/1.1/DTD/svg11.dtd">
<svg version="1.1" id="Layer_1" xmlns="http://www.w3.org/2000/svg" xmlns:xlink="http://www.w3.org/1999/xlink" x="0px" y="0px"
	 width="70.986px" height="63.598px" viewBox="0 0 70.986 63.598" enable-background="new 0 0 70.986 63.598" xml:space="preserve">
<linearGradient id="gradient" gradientUnits="userSpaceOnUse" x1="17.1387" y1="63.598" x2="17.1387" y2="0">
	<stop  offset="0" style="stop-color:#404040"/>
	<stop  offset="1" style="stop-color:#A0A0A0"/>
</linearGradient>
<path fill="#808080" d="M13.689,63.598C6.127,63.598,0,57.469,0,49.907l0,0c0.004-7.559,6.127-13.686,13.689-13.689l0,0h0.002l0,0
	c0.162-0.297,0.33-0.588,0.502-0.869l0,0c3.256-5.341,9.143-8.926,15.865-8.926l0,0c6.428,0,12.096,3.272,15.43,8.235l0,0
	c0.49-0.057,0.988-0.086,1.496-0.086l0,0c4.254,0,8.055,1.994,10.502,5.086l0,0l-1.41,1.117l-1.414,1.115
	c-1.799-2.266-4.561-3.717-7.678-3.717l0,0c-0.691,0-1.373,0.074-2.023,0.211l0,0l-1.273,0.266l-0.652-1.125
	c-2.598-4.486-7.432-7.5-12.977-7.5l0,0c-5.42,0-10.154,2.881-12.793,7.202l0,0c-0.322,0.525-0.607,1.051-0.852,1.584l0,0
	l-0.525,1.162l-1.27-0.111c-0.313-0.029-0.619-0.041-0.93-0.041l0,0c-5.574,0.008-10.08,4.52-10.088,10.088l0,0
	c0.008,5.574,4.514,10.082,10.088,10.09l0,0h45.988c4.254-0.004,7.699-3.453,7.707-7.711l0,0c-0.008-4.26-3.453-7.703-7.707-7.713
	l0,0c-0.607,0-1.195,0.076-1.777,0.215l0,0l-1.424,0.336l-0.619-1.318c-0.318-0.68-0.721-1.32-1.195-1.916l0,0l1.414-1.115
	l1.41-1.117c0.346,0.438,0.67,0.9,0.967,1.385l0,0c0.398-0.045,0.809-0.07,1.225-0.07l0,0c6.244,0.006,11.305,5.066,11.309,11.314
	l0,0c-0.004,6.248-5.064,11.313-11.309,11.313l0,0H13.689L13.689,63.598z"/>
<path fill="#C0C0C0" d="M14.193,35.348c0.586-0.963,1.285-1.844,2.033-2.682c-0.711-2.162-1.125-4.452-1.125-6.848
	C15.123,13.572,25.078,3.621,37.328,3.6c12.25,0.021,22.199,9.973,22.219,22.219c0,4.496-1.357,8.661-3.672,12.161
	c0.58,0.518,1.129,1.068,1.611,1.678c0.287,0.363,0.547,0.752,0.801,1.148c3.037-4.225,4.863-9.391,4.859-14.987
	C63.143,11.576,51.57,0.005,37.328,0C23.082,0.005,11.506,11.576,11.502,25.818c0,3.687,0.826,7.172,2.225,10.338
	C13.877,35.881,14.033,35.61,14.193,35.348z"/>
</svg>
