<?xml version="1.0" encoding="utf-8"?>
<!DOCTYPE svg PUBLIC "-//W3C//DTD SVG 1.1//EN" "http://www.w3.org/Graphics/SVG/1.1/DTD/svg11.dtd">
<svg version="1.1" id="Layer_1" xmlns="http://www.w3.org/2000/svg" xmlns:xlink="http://www.w3.org/1999/xlink" x="0px" y="0px"
	 width="44.873px" height="31.701px" viewBox="0 0 44.873 31.701" enable-background="new 0 0 44.873 31.701" xml:space="preserve">
<linearGradient id="gradient" gradientUnits="userSpaceOnUse" x1="17.1387" y1="31.701" x2="17.1387" y2="0">
	<stop  offset="0" style="stop-color:#404040"/>
	<stop  offset="1" style="stop-color:#A0A0A0"/>
</linearGradient>
<path fill="#C0C0C0" d="M39.368,0H5.504C2.463,0.002,0.002,2.464,0,5.504v20.693c0.002,3.04,2.463,5.502,5.504,5.504h33.863
	c3.041-0.002,5.502-2.464,5.505-5.504V5.504C44.87,2.464,42.409,0.002,39.368,0z M5.504,1.701h33.863
	c2.1,0.004,3.799,1.703,3.804,3.803v15.205l-15.517-0.002c-0.408-2.518-2.589-4.438-5.22-4.438s-4.811,1.92-5.219,4.438H1.701V5.504
	C1.705,3.404,3.404,1.705,5.504,1.701z M39.368,30H5.504c-2.101-0.002-3.8-1.703-3.804-3.803v-3.789h17.148v-0.85
	c0.004-1.982,1.605-3.584,3.586-3.588c1.981,0.004,3.584,1.605,3.588,3.588v0.85h17.148v3.789
	C43.167,28.297,41.467,29.998,39.368,30z"/>
<path fill="#808080" d="M29.501,8.649l-5.169,7.974c0.538,0.207,1.029,0.502,1.466,0.863l5.131-7.913L29.501,8.649z"/>
</svg>
