<?xml version="1.0" encoding="utf-8"?>
<!DOCTYPE svg PUBLIC "-//W3C//DTD SVG 1.1//EN" "http://www.w3.org/Graphics/SVG/1.1/DTD/svg11.dtd">
<svg version="1.1" id="Layer_1" xmlns="http://www.w3.org/2000/svg" xmlns:xlink="http://www.w3.org/1999/xlink" x="0px" y="0px"
	 width="89.745px" height="63.402px" viewBox="0 0 89.745 63.402" enable-background="new 0 0 89.745 63.402" xml:space="preserve">
<linearGradient id="gradient" gradientUnits="userSpaceOnUse" x1="17.1387" y1="63.402" x2="17.1387" y2="0">
	<stop  offset="0" style="stop-color:#404040"/>
	<stop  offset="1" style="stop-color:#A0A0A0"/>
</linearGradient>
<path fill="#C0C0C0" d="M78.735,0H11.009C4.927,0.004,0.004,4.928,0,11.009v41.385c0.004,6.08,4.927,11.004,11.009,11.008h67.727
	c6.082-0.004,11.004-4.928,11.01-11.008V11.009C89.739,4.928,84.817,0.004,78.735,0z M11.009,3.402h67.727
	c4.199,0.008,7.598,3.406,7.607,7.606v30.409L55.31,41.414c-0.816-5.035-5.178-8.875-10.439-8.875s-9.621,3.84-10.438,8.875H3.401
	V11.009C3.409,6.809,6.808,3.41,11.009,3.402z M78.735,60.001H11.009c-4.201-0.006-7.6-3.408-7.607-7.607v-7.578h34.297v-1.699
	c0.008-3.965,3.211-7.168,7.172-7.176c3.963,0.008,7.168,3.211,7.176,7.176v1.699h34.297v7.578
	C86.333,56.593,82.935,59.996,78.735,60.001z"/>
<path fill="#808080" d="M59.003,17.299L48.665,33.246c1.076,0.414,2.059,1.006,2.932,1.727l10.262-15.825L59.003,17.299z"/>
</svg>
