<?xml version="1.0" encoding="utf-8"?>
<!DOCTYPE svg PUBLIC "-//W3C//DTD SVG 1.1//EN" "http://www.w3.org/Graphics/SVG/1.1/DTD/svg11.dtd">
<svg version="1.1" id="Layer_1" xmlns="http://www.w3.org/2000/svg" xmlns:xlink="http://www.w3.org/1999/xlink" x="0px" y="0px"
	 width="66.607px" height="63.597px" viewBox="0 0 66.607 63.597" enable-background="new 0 0 66.607 63.597" xml:space="preserve">
<linearGradient id="gradient" gradientUnits="userSpaceOnUse" x1="17.1387" y1="63.597" x2="17.1387" y2="0">
	<stop  offset="0" style="stop-color:#404040"/>
	<stop  offset="1" style="stop-color:#A0A0A0"/>
</linearGradient>
<path fill="#C0C0C0" d="M8.824,63.597C3.955,63.593,0.004,59.646,0,54.779l0,0V8.82C0.004,3.951,3.955,0.005,8.824,0l0,0h48.963
	v1.803v1.798H8.824C5.951,3.604,3.609,5.947,3.6,8.82l0,0v45.958c0.01,2.871,2.352,5.215,5.225,5.219l0,0h48.963
	c2.873-0.004,5.213-2.348,5.221-5.219l0,0V8.82C63,5.947,60.66,3.604,57.787,3.601l0,0V1.803V0c4.865,0.005,8.816,3.951,8.82,8.82
	l0,0v45.958c-0.004,4.867-3.955,8.814-8.82,8.818l0,0H8.824L8.824,63.597z"/>
<path fill="#808080" d="M16.895,51.458v-39.31h1.801c1.205,0,2.836-0.008,6.572-0.008l0,0c1.863,0,4.258,0,7.402,0.008l0,0
	c7.395,0.009,11.809,2.032,14.277,4.744l0,0c2.461,2.704,2.764,5.78,2.764,7.32l0,0c0,0.491-0.033,0.854-0.029,0.854l0,0
	c0.061,5.934-3.188,9.629-6.709,11.321l0,0c-3.143,1.561-6.463,1.885-8.498,1.941l0,0v13.129H16.895L16.895,51.458z M20.494,47.861
	h10.381V34.56l1.945,0.156c0.004-0.004,0.334,0.029,0.982,0.029l0,0c1.613,0.008,4.908-0.236,7.555-1.578l0,0
	c2.635-1.395,4.662-3.438,4.729-8.1l0,0c0.004-0.301,0.023-0.445,0.023-0.854l0,0c0-1.098-0.215-3.134-1.824-4.893l0,0
	c-1.602-1.755-4.814-3.542-11.627-3.571l0,0c-3.139-0.008-5.527-0.008-7.391-0.008l0,0c-2.217,0-3.688,0.003-4.773,0.005l0,0V47.861
	L20.494,47.861z"/>
</svg>
