<?xml version="1.0" encoding="utf-8"?>
<!DOCTYPE svg PUBLIC "-//W3C//DTD SVG 1.1//EN" "http://www.w3.org/Graphics/SVG/1.1/DTD/svg11.dtd">
<svg version="1.1" id="Layer_1" xmlns="http://www.w3.org/2000/svg" xmlns:xlink="http://www.w3.org/1999/xlink" x="0px" y="0px"
	 width="33.304px" height="31.799px" viewBox="0 0 33.304 31.799" enable-background="new 0 0 33.304 31.799" xml:space="preserve">
<linearGradient id="gradient" gradientUnits="userSpaceOnUse" x1="17.1387" y1="31.799" x2="17.1387" y2="0">
	<stop  offset="0" style="stop-color:#404040"/>
	<stop  offset="1" style="stop-color:#A0A0A0"/>
</linearGradient>
<path fill="#C0C0C0" d="M4.412,31.799C1.978,31.797,0.002,29.823,0,27.39l0,0V4.41C0.002,1.976,1.978,0.002,4.412,0l0,0h24.481
	v0.901V1.8H4.412C2.976,1.802,1.805,2.974,1.8,4.41l0,0V27.39c0.005,1.436,1.176,2.607,2.612,2.609l0,0h24.481
	c1.437-0.002,2.606-1.174,2.61-2.609l0,0V4.41C31.5,2.974,30.33,1.802,28.894,1.8l0,0V0.901V0c2.433,0.002,4.408,1.976,4.41,4.41
	l0,0V27.39c-0.002,2.434-1.978,4.407-4.41,4.409l0,0H4.412L4.412,31.799z"/>
<path fill="#808080" d="M8.447,25.729V6.074h0.9c0.603,0,1.418-0.004,3.286-0.004l0,0c0.932,0,2.129,0,3.701,0.004l0,0
	c3.697,0.004,5.904,1.016,7.139,2.372l0,0c1.23,1.352,1.382,2.89,1.382,3.66l0,0c0,0.246-0.017,0.427-0.015,0.427l0,0
	c0.03,2.967-1.594,4.814-3.354,5.661l0,0c-1.571,0.78-3.231,0.942-4.249,0.971l0,0v6.564H8.447L8.447,25.729z M10.247,23.931h5.19
	v-6.651l0.973,0.079c0.002-0.002,0.167,0.015,0.491,0.015l0,0c0.807,0.004,2.454-0.118,3.777-0.789l0,0
	c1.317-0.698,2.331-1.719,2.364-4.05l0,0c0.002-0.15,0.012-0.223,0.012-0.427l0,0c0-0.549-0.107-1.567-0.912-2.446l0,0
	c-0.801-0.877-2.407-1.771-5.813-1.786l0,0c-1.569-0.004-2.764-0.004-3.695-0.004l0,0c-1.108,0-1.844,0.001-2.387,0.002l0,0V23.931
	L10.247,23.931z"/>
</svg>
