<?xml version="1.0" encoding="utf-8"?>
<!DOCTYPE svg PUBLIC "-//W3C//DTD SVG 1.1//EN" "http://www.w3.org/Graphics/SVG/1.1/DTD/svg11.dtd">
<svg version="1.1" id="Layer_1" xmlns="http://www.w3.org/2000/svg" xmlns:xlink="http://www.w3.org/1999/xlink" x="0px" y="0px"
	 width="74.855px" height="63.599px" viewBox="0 0 74.855 63.599" enable-background="new 0 0 74.855 63.599" xml:space="preserve">
<linearGradient id="gradient" gradientUnits="userSpaceOnUse" x1="17.1387" y1="63.599" x2="17.1387" y2="0">
	<stop  offset="0" style="stop-color:#404040"/>
	<stop  offset="1" style="stop-color:#A0A0A0"/>
</linearGradient>
<g>
	<path fill="#808080" d="M50.078,40.41c4.754-0.01,8.598-3.852,8.609-8.606l0,0c-0.012-4.759-3.855-8.602-8.609-8.609l0,0V19.59
		c6.746,0.005,12.209,5.468,12.209,12.214l0,0c0,6.741-5.463,12.206-12.209,12.206l0,0V40.41L50.078,40.41z"/>
	<path fill="#808080" d="M50.08,52.982c11.699-0.02,21.152-9.482,21.174-21.18l0,0C71.232,20.103,61.779,10.641,50.08,10.62l0,0
		V7.021c13.688,0,24.775,11.092,24.775,24.78l0,0c0,13.684-11.088,24.78-24.775,24.78l0,0V52.982L50.08,52.982z M50.08,10.62v0.004
		V10.62L50.08,10.62z"/>
</g>
<path fill="#C0C0C0" d="M38.713,2.085c-0.641-1.202-2.004-2.121-3.438-2.084c-1.873,0.041-3.434,1.104-4.986,2.738L17.561,16.323
	H7.485C3.348,16.328,0,19.676,0,23.81v15.985c0,4.135,3.352,7.482,7.485,7.482h10.075l12.732,13.588
	c1.553,1.627,3.109,2.693,4.982,2.734c0.027,0,0.057,0,0.084,0c1.402,0,2.721-0.904,3.354-2.08c0.68-1.201,0.939-2.639,0.947-4.352
	V6.438C39.652,4.725,39.393,3.283,38.713,2.085z M3.599,39.794V23.81c0.004-2.141,1.742-3.879,3.887-3.883h8.116v23.75H7.485
	C5.341,43.673,3.603,41.939,3.599,39.794z M36.059,57.167c0.008,1.309-0.244,2.186-0.461,2.549
	c-0.264,0.361-0.195,0.246-0.322,0.283c-0.189,0.041-1.17-0.301-2.355-1.594L19.203,43.765v-23.93L32.92,5.197l-1.313-1.23
	l1.313,1.227c1.182-1.297,2.162-1.635,2.355-1.594c0.133,0.037,0.059-0.078,0.322,0.284c0.217,0.362,0.469,1.24,0.461,2.554V57.167z
	"/>
</svg>
