<?xml version="1.0" encoding="utf-8"?>
<!DOCTYPE svg PUBLIC "-//W3C//DTD SVG 1.1//EN" "http://www.w3.org/Graphics/SVG/1.1/DTD/svg11.dtd">
<svg version="1.1" id="Layer_1" xmlns="http://www.w3.org/2000/svg" xmlns:xlink="http://www.w3.org/1999/xlink" x="0px" y="0px"
	 width="63.598px" height="63.599px" viewBox="0 0 63.598 63.599" enable-background="new 0 0 63.598 63.599" xml:space="preserve">
<linearGradient id="gradient" gradientUnits="userSpaceOnUse" x1="17.1387" y1="63.599" x2="17.1387" y2="0">
	<stop  offset="0" style="stop-color:#404040"/>
	<stop  offset="1" style="stop-color:#A0A0A0"/>
</linearGradient>
<path fill="#C0C0C0" d="M22.94,17.264L48.1,31.832L25.146,45.044l-2.247,1.291L22.94,17.264L22.94,17.264z M25.897,41.16
	l16.216-9.336l-16.19-9.376L25.897,41.16L25.897,41.16z"/>
<path fill="#808080" d="M0,31.8C0,14.234,14.234,0,31.797,0l0,0c17.563,0,31.797,14.234,31.801,31.8l0,0
	c-0.004,17.563-14.238,31.799-31.801,31.799l0,0C14.234,63.599,0,49.363,0,31.8L0,31.8z M3.6,31.8
	c0.028,15.574,12.624,28.17,28.197,28.197l0,0C47.369,59.97,59.969,47.375,59.998,31.8l0,0C59.969,16.225,47.369,3.629,31.797,3.6
	l0,0C16.224,3.629,3.628,16.225,3.6,31.8L3.6,31.8z"/>
</svg>
