<?xml version="1.0" encoding="utf-8"?>
<!DOCTYPE svg PUBLIC "-//W3C//DTD SVG 1.1//EN" "http://www.w3.org/Graphics/SVG/1.1/DTD/svg11.dtd">
<svg version="1.1" id="Layer_1" xmlns="http://www.w3.org/2000/svg" xmlns:xlink="http://www.w3.org/1999/xlink" x="0px" y="0px"
	 width="52.519px" height="62.798px" viewBox="0 0 52.519 62.798" enable-background="new 0 0 52.519 62.798" xml:space="preserve">
<linearGradient id="gradient" gradientUnits="userSpaceOnUse" x1="17.1387" y1="62.798" x2="17.1387" y2="0">
	<stop  offset="0" style="stop-color:#404040"/>
	<stop  offset="1" style="stop-color:#A0A0A0"/>
</linearGradient>
<polygon fill="#808080" points="11.053,19.213 11.053,16.411 41.462,16.411 41.462,19.213 11.053,19.213 "/>
<polygon fill="#808080" points="11.053,30.725 11.053,27.927 41.462,27.927 41.462,30.725 11.053,30.725 "/>
<polygon fill="#808080" points="11.053,42.236 11.053,39.437 41.462,39.437 41.462,42.236 11.053,42.236 "/>
<path fill="#C0C0C0" d="M0,62.798V0h52.519v61.396v1.402H0L0,62.798z M51.12,61.396V60V61.396L51.12,61.396z M2.796,60h46.922V2.797
	H2.796V60L2.796,60z"/>
</svg>
