<?xml version="1.0" encoding="utf-8"?>
<!DOCTYPE svg PUBLIC "-//W3C//DTD SVG 1.1//EN" "http://www.w3.org/Graphics/SVG/1.1/DTD/svg11.dtd">
<svg version="1.1" id="Layer_1" xmlns="http://www.w3.org/2000/svg" xmlns:xlink="http://www.w3.org/1999/xlink" x="0px" y="0px"
	 width="37.428px" height="31.8px" viewBox="0 0 37.428 31.8" enable-background="new 0 0 37.428 31.8" xml:space="preserve">
<linearGradient id="gradient" gradientUnits="userSpaceOnUse" x1="17.1387" y1="31.8" x2="17.1387" y2="0">
	<stop  offset="0" style="stop-color:#404040"/>
	<stop  offset="1" style="stop-color:#A0A0A0"/>
</linearGradient>
<g>
	<path fill="#808080" d="M25.039,20.204c2.377-0.004,4.299-1.926,4.305-4.302l0,0c-0.006-2.379-1.928-4.301-4.305-4.305l0,0V9.795
		c3.373,0.002,6.104,2.734,6.104,6.107l0,0c0,3.371-2.731,6.103-6.104,6.103l0,0V20.204L25.039,20.204z"/>
	<path fill="#808080" d="M25.04,26.491c5.85-0.01,10.576-4.741,10.587-10.59l0,0C35.616,10.051,30.89,5.32,25.04,5.31l0,0V3.511
		c6.844,0,12.388,5.546,12.388,12.39l0,0c0,6.842-5.544,12.389-12.388,12.389l0,0V26.491L25.04,26.491z M25.04,5.31v0.002V5.31
		L25.04,5.31z"/>
</g>
<path fill="#C0C0C0" d="M19.356,1.042C19.036,0.441,18.354-0.018,17.638,0c-0.937,0.021-1.717,0.552-2.493,1.369L8.78,8.162H3.743
	C1.674,8.164,0,9.838,0,11.905v7.993c0,2.066,1.676,3.74,3.743,3.74H8.78l6.366,6.795c0.776,0.813,1.555,1.346,2.491,1.367
	c0.014,0,0.028,0,0.042,0c0.701,0,1.36-0.453,1.677-1.04c0.34-0.601,0.47-1.319,0.474-2.177V3.219
	C19.826,2.362,19.696,1.642,19.356,1.042z M1.799,19.897v-7.993c0.002-1.07,0.871-1.939,1.943-1.941h4.058v11.875H3.743
	C2.67,21.837,1.801,20.97,1.799,19.897z M18.029,28.583c0.004,0.655-0.122,1.094-0.23,1.275c-0.132,0.181-0.098,0.123-0.161,0.142
	c-0.095,0.021-0.585-0.15-1.178-0.797l-6.858-7.32V9.917l6.858-7.319l-0.656-0.615l0.656,0.613c0.591-0.648,1.081-0.817,1.178-0.797
	c0.066,0.019,0.029-0.039,0.161,0.142c0.108,0.181,0.234,0.62,0.23,1.277V28.583z"/>
</svg>
