<?xml version="1.0" encoding="utf-8"?>
<!DOCTYPE svg PUBLIC "-//W3C//DTD SVG 1.1//EN" "http://www.w3.org/Graphics/SVG/1.1/DTD/svg11.dtd">
<svg version="1.1" id="Layer_1" xmlns="http://www.w3.org/2000/svg" xmlns:xlink="http://www.w3.org/1999/xlink" x="0px" y="0px"
	 width="31.799px" height="31.8px" viewBox="0 0 31.799 31.8" enable-background="new 0 0 31.799 31.8" xml:space="preserve">
<linearGradient id="gradient" gradientUnits="userSpaceOnUse" x1="17.1387" y1="31.8" x2="17.1387" y2="0">
	<stop  offset="0" style="stop-color:#404040"/>
	<stop  offset="1" style="stop-color:#A0A0A0"/>
</linearGradient>
<path fill="#C0C0C0" d="M11.47,8.632l12.58,7.285l-11.477,6.606l-1.124,0.646L11.47,8.632L11.47,8.632z M12.949,20.58l8.108-4.667
	l-8.095-4.688L12.949,20.58L12.949,20.58z"/>
<path fill="#808080" d="M0,15.9C0,7.117,7.117,0,15.898,0l0,0c8.781,0,15.898,7.117,15.9,15.9l0,0
	C31.797,24.682,24.68,31.8,15.898,31.8l0,0C7.117,31.8,0,24.682,0,15.9L0,15.9z M1.8,15.9c0.014,7.786,6.312,14.085,14.099,14.099
	l0,0c7.786-0.014,14.086-6.313,14.101-14.099l0,0C29.984,8.112,23.685,1.814,15.898,1.8l0,0C8.112,1.814,1.814,8.112,1.8,15.9
	L1.8,15.9z"/>
</svg>
