<?xml version="1.0" encoding="utf-8"?>
<!DOCTYPE svg PUBLIC "-//W3C//DTD SVG 1.1//EN" "http://www.w3.org/Graphics/SVG/1.1/DTD/svg11.dtd">
<svg version="1.1" id="Layer_1" xmlns="http://www.w3.org/2000/svg" xmlns:xlink="http://www.w3.org/1999/xlink" x="0px" y="0px"
	 width="32.471px" height="41.5px" viewBox="0 0 32.471 41.5" enable-background="new 0 0 32.471 41.5" xml:space="preserve">
<linearGradient id="gradient" gradientUnits="userSpaceOnUse" x1="17.1387" y1="41.5" x2="17.1387" y2="0">
	<stop  offset="0" style="stop-color:#404040"/>
	<stop  offset="1" style="stop-color:#A0A0A0"/>
</linearGradient>
<path fill="#C0C0C0" d="M25.009,27.889c-0.009,4.142-3.374,7.507-7.517,7.513h-2.511c-4.141-0.006-7.506-3.371-7.514-7.513v-6.691
	H5.966v6.691c0.002,4.973,4.042,9.011,9.015,9.013h0.505V40H9.032V41.5h14.412V40h-6.457v-3.098h0.506
	c4.973-0.002,9.016-4.04,9.018-9.013v-6.691h-1.501V27.889z M14.981,33.23h2.512c2.951,0,5.34-2.391,5.34-5.34h0.002V15.688
	c-0.002-2.949-2.391-5.34-5.342-5.34h-2.512c-2.949,0-5.34,2.391-5.342,5.34V27.89C9.641,30.839,12.032,33.23,14.981,33.23z
	 M11.139,15.688c0.004-2.12,1.72-3.837,3.842-3.84h2.512c2.122,0.002,3.838,1.72,3.842,3.84v4.818H11.139V15.688z M11.139,22.005
	h10.195v5.885c-0.004,2.119-1.72,3.836-3.842,3.84h-2.512c-2.122-0.004-3.837-1.721-3.842-3.84V22.005z"/>
<path fill="#808080" d="M27.288,3.694C24.268,1.286,20.384,0.006,16.238,0C12.09,0.006,8.207,1.286,5.184,3.699
	C2.17,6.072,0.002,9.817,0,14.081c0,0.033,0.002,0.054,0.002,0.066l1.5-0.051L1.5,14.081c-0.002-3.739,1.917-7.083,4.615-9.207
	C8.852,2.689,12.396,1.506,16.238,1.5c3.839,0.006,7.382,1.189,10.117,3.37c2.7,2.128,4.619,5.472,4.616,9.211
	c0,0-0.002,0.029,0.003,0.092l1.347-0.092h0.15C32.467,9.817,30.302,6.072,27.288,3.694z"/>
<path fill="#808080" d="M16.238,4.854C9.988,4.862,4.879,8.804,4.854,14.121h1.501c0.01-4.236,4.206-7.756,9.883-7.766
	c5.676,0.01,9.872,3.53,9.881,7.766h1.501C27.596,8.804,22.487,4.862,16.238,4.854z"/>
</svg>
