<?xml version="1.0" encoding="utf-8"?>
<svg version="1.1" id="Layer_1" xmlns="http://www.w3.org/2000/svg" xmlns:xlink="http://www.w3.org/1999/xlink" x="0px" y="0px"
	 width="64.943px" height="83px" viewBox="0 0 64.943 83" enable-background="new 0 0 64.943 83" xml:space="preserve">
<linearGradient id="gradient" gradientUnits="userSpaceOnUse" x1="17.1387" y1="83" x2="17.1387" y2="0">
	<stop  offset="0" style="stop-color:#404040"/>
	<stop  offset="1" style="stop-color:#A0A0A0"/>
</linearGradient>
<path fill="#C0C0C0" d="M50.019,55.778c-0.017,8.283-6.747,15.014-15.033,15.025h-5.022c-8.282-0.012-15.013-6.742-15.028-15.025
	V42.395h-3.002v13.383c0.004,9.945,8.085,18.023,18.03,18.027h1.01V80H18.063v3h28.823v-3H33.975v-6.195h1.011
	c9.945-0.004,18.03-8.082,18.035-18.027V42.395h-3.002V55.778z M29.962,66.459h5.023c5.902,0,10.681-4.781,10.681-10.68h0.004
	V31.375c-0.004-5.898-4.782-10.68-10.685-10.68h-5.023c-5.898,0-10.68,4.781-10.684,10.68V55.78
	C19.282,61.678,24.063,66.459,29.962,66.459z M22.278,31.375c0.009-4.24,3.439-7.675,7.684-7.68h5.023
	c4.244,0.005,7.676,3.439,7.684,7.68v9.637H22.278V31.375z M22.278,44.012h20.391V55.78c-0.008,4.24-3.439,7.672-7.684,7.68h-5.023
	c-4.244-0.008-7.675-3.439-7.684-7.68V44.012z"/>
<path fill="#808080" d="M54.576,7.389C48.535,2.572,40.769,0.013,32.476,0C24.18,0.013,16.413,2.572,10.368,7.397
	C4.34,12.144,0.005,19.635,0,28.161c0,0.065,0.005,0.107,0.005,0.132l2.999-0.103L3,28.161c-0.004-7.479,3.834-14.165,9.229-18.414
	C17.703,5.379,24.792,3.013,32.476,3C40.152,3.013,47.24,5.379,52.71,9.739c5.399,4.257,9.238,10.943,9.233,18.422
	c0,0-0.004,0.058,0.005,0.185l2.692-0.185h0.303C64.936,19.635,60.604,12.144,54.576,7.389z"/>
<path fill="#808080" d="M32.477,9.707C19.976,9.724,9.758,17.608,9.708,28.241h3.002c0.021-8.473,8.411-15.512,19.767-15.532
	c11.352,0.021,19.742,7.06,19.763,15.532h3.002C55.191,17.608,44.974,9.724,32.477,9.707z"/>
</svg>
