<?xml version="1.0" encoding="utf-8"?>
<!DOCTYPE svg PUBLIC "-//W3C//DTD SVG 1.1//EN" "http://www.w3.org/Graphics/SVG/1.1/DTD/svg11.dtd">
<svg version="1.1" id="Layer_1" xmlns="http://www.w3.org/2000/svg" xmlns:xlink="http://www.w3.org/1999/xlink" x="0px" y="0px"
	 width="31.649px" height="31.647px" viewBox="0 0 31.649 31.647" enable-background="new 0 0 31.649 31.647" xml:space="preserve">
<linearGradient id="gradient" gradientUnits="userSpaceOnUse" x1="17.1387" y1="31.647" x2="17.1387" y2="0">
	<stop  offset="0" style="stop-color:#404040"/>
	<stop  offset="1" style="stop-color:#A0A0A0"/>
</linearGradient>
<polygon fill="none" stroke="#C0C0C0" stroke-width="1.4" points="15.825,0.824 15.824,0.824 15.825,0.824 "/>
<polygon fill="none" stroke="#C0C0C0" stroke-width="1.4" points="15.824,0.824 15.824,0.824 15.824,0.824 "/>
<polygon fill="none" stroke="#C0C0C0" stroke-width="1.4" points="15.824,0.824 15.821,0.824 15.823,0.824 "/>
<rect x="15.825" y="0.824" fill="none" stroke="#C0C0C0" stroke-width="1.4" width="0" height="0.001"/>
<line fill="none" stroke="#C0C0C0" stroke-width="1.4" x1="15.823" y1="0.824" x2="15.821" y2="0.824"/>
<polygon fill="none" stroke="#C0C0C0" stroke-width="1.4" points="15.824,0.824 15.824,0.824 15.824,0.824 "/>
<polygon fill="none" stroke="#C0C0C0" stroke-width="1.4" points="15.824,0.824 15.824,0.824 15.823,0.824 "/>
<path fill="#C0C0C0" d="M0,15.824C0,7.083,7.084,0,15.824,0l0,0c8.74,0,15.825,7.083,15.825,15.824l0,0
	c0,8.74-7.085,15.823-15.825,15.823l0,0C7.084,31.647,0,24.564,0,15.824L0,15.824z M1.398,15.824
	c0.015,7.966,6.459,14.41,14.426,14.424l0,0c7.966-0.014,14.41-6.458,14.426-14.424l0,0C30.234,7.857,23.79,1.414,15.824,1.399l0,0
	C7.857,1.414,1.413,7.857,1.398,15.824L1.398,15.824z"/>
<path fill="#808080" d="M24.127,20.258c0.192-1.192,0.313-2.44,0.345-3.735l5.742,0.001c0.011-0.233,0.036-0.463,0.036-0.699
	s-0.025-0.467-0.037-0.7h-2.06c-0.048-1.352-0.235-2.655-0.536-3.896h1.865c-0.161-0.479-0.349-0.945-0.558-1.4l-5.097,0.001
	c-0.274-1.221-0.63-2.363-1.058-3.409h3.967c-0.431-0.499-0.896-0.965-1.39-1.4l-6.019,0c-0.352-1.305-0.765-2.396-1.256-3.229
	c-0.045-0.075-0.092-0.146-0.138-0.217c-0.691-0.103-1.393-0.173-2.111-0.175c-0.689,0.001-1.362,0.067-2.025,0.162
	c-0.516,0.732-1.044,1.824-1.481,3.459l-6.017,0c-0.494,0.436-0.959,0.901-1.39,1.4h3.967C8.452,7.461,8.113,8.614,7.84,9.829
	L2.723,9.828c-0.209,0.455-0.396,0.922-0.558,1.401l1.866-0.002c-0.301,1.24-0.488,2.544-0.536,3.896H1.435
	c-0.011,0.234-0.036,0.465-0.036,0.701c0,0.235,0.024,0.465,0.036,0.698h5.752c0.031,1.299,0.167,2.539,0.358,3.735H2.105
	c0.155,0.479,0.337,0.943,0.539,1.398H4.39c0.403,1.279,0.929,2.479,1.567,3.571H4.91c0.431,0.498,0.896,0.964,1.389,1.399h3.225
	c0.614,1.184,1.345,2.201,2.166,3.007c1.311,0.394,2.696,0.612,4.135,0.614c1.375-0.002,2.7-0.208,3.96-0.568
	c0.786-0.713,1.596-1.693,2.333-3.054h3.232c0.493-0.435,0.957-0.899,1.387-1.397l-1.04-0.001c0.643-1.092,1.173-2.291,1.576-3.571
	h1.731c0.202-0.455,0.384-0.921,0.538-1.399L24.127,20.258z M26.165,11.229c0.321,1.234,0.522,2.538,0.577,3.896h-6.218
	c-0.021-1.352-0.084-2.655-0.191-3.896H26.165z M15.125,16.523v3.733h-3.07v0.001H8.959c-0.202-1.19-0.34-2.434-0.374-3.735h3.223
	v0.001H15.125z M12.523,15.124c0.021-1.354,0.086-2.659,0.195-3.896l6.223,0.001c0.109,1.235,0.178,2.539,0.195,3.896H12.523z
	 M16.524,16.523h6.539c-0.034,1.302-0.173,2.545-0.374,3.734H18.96v0.001l-2.436-0.002V16.523z M18.787,6.42L18.787,6.42
	l2.448-0.001c0.46,1.018,0.847,2.164,1.147,3.409h-5.858V6.42H18.787z M15.291,1.926c0.233-0.246,0.407-0.338,0.5-0.379
	c0.029-0.012,0.044-0.016,0.058-0.019c0.183-0.003,0.582,0.227,1.019,0.976c0.354,0.594,0.699,1.461,1.005,2.516h-2.048v0.001
	h-2.046C14.307,3.243,14.887,2.347,15.291,1.926z M10.413,6.418h2.45v0.003l2.261-0.002v3.408l-3.053,0.002H9.266
	C9.565,8.583,9.952,7.437,10.413,6.418z M4.908,15.124c0.053-1.358,0.253-2.662,0.577-3.895l5.815-0.002
	c-0.105,1.239-0.171,2.543-0.188,3.896H4.908z M9.956,25.228h-2.34c-0.714-1.063-1.315-2.259-1.766-3.57h2.506v0.001l3.068-0.002
	c0.143,1.285,0.332,2.482,0.561,3.569H9.956V25.228z M11.123,26.626h1.74v0.002l2.259-0.002l0.002,3.429
	C13.685,29.771,12.273,28.573,11.123,26.626z M15.824,25.228h-2.4c-0.236-1.067-0.435-2.268-0.586-3.57h2.985v-0.001h2.988
	c-0.151,1.303-0.35,2.502-0.586,3.57L15.824,25.228L15.824,25.228z M16.523,30v-3.374h1.369v0.001h2.591
	C18.983,29.012,17.402,29.762,16.523,30z M24.032,25.227h-2.769v0.001h-1.601c0.23-1.088,0.419-2.285,0.562-3.57h5.562
	C25.334,22.966,24.742,24.165,24.032,25.227z"/>
</svg>
