<?xml version="1.0" encoding="utf-8"?>
<!DOCTYPE svg PUBLIC "-//W3C//DTD SVG 1.1//EN" "http://www.w3.org/Graphics/SVG/1.1/DTD/svg11.dtd">
<svg version="1.1" id="Layer_1" xmlns="http://www.w3.org/2000/svg" xmlns:xlink="http://www.w3.org/1999/xlink" x="0px" y="0px"
	 width="63.299px" height="63.294px" viewBox="0 0 63.299 63.294" enable-background="new 0 0 63.299 63.294" xml:space="preserve">
<linearGradient id="gradient" gradientUnits="userSpaceOnUse" x1="17.1387" y1="63.294" x2="17.1387" y2="0">
	<stop  offset="0" style="stop-color:#404040"/>
	<stop  offset="1" style="stop-color:#A0A0A0"/>
</linearGradient>
<polygon fill="none" stroke="#C0C0C0" stroke-width="2.8" points="31.65,1.648 31.648,1.648 31.65,1.648 "/>
<polygon fill="none" stroke="#C0C0C0" stroke-width="2.8" points="31.648,1.648 31.648,1.648 31.648,1.648 "/>
<polygon fill="none" stroke="#C0C0C0" stroke-width="2.8" points="31.648,1.648 31.643,1.648 31.646,1.648 "/>
<rect x="31.649" y="1.647" fill="none" stroke="#C0C0C0" stroke-width="2.8" width="0" height="0.002"/>
<line fill="none" stroke="#C0C0C0" stroke-width="2.8" x1="31.646" y1="1.648" x2="31.643" y2="1.648"/>
<polygon fill="none" stroke="#C0C0C0" stroke-width="2.8" points="31.648,1.648 31.648,1.648 31.648,1.648 "/>
<polygon fill="none" stroke="#C0C0C0" stroke-width="2.8" points="31.648,1.648 31.648,1.648 31.646,1.648 "/>
<path fill="#C0C0C0" d="M0,31.648C0,14.165,14.168,0,31.648,0l0,0c17.48,0,31.65,14.165,31.65,31.648l0,0
	c0,17.48-14.17,31.646-31.65,31.646l0,0C14.168,63.294,0,49.128,0,31.648L0,31.648z M2.797,31.648
	c0.029,15.932,12.918,28.82,28.852,28.848l0,0C47.58,60.468,60.469,47.58,60.5,31.648l0,0C60.469,15.715,47.58,2.827,31.648,2.798
	l0,0C15.715,2.827,2.826,15.715,2.797,31.648L2.797,31.648z"/>
<path fill="#808080" d="M48.254,40.515c0.385-2.385,0.625-4.881,0.689-7.471l11.484,0.002c0.021-0.467,0.072-0.926,0.072-1.398
	s-0.051-0.933-0.074-1.4h-4.119c-0.096-2.703-0.471-5.311-1.072-7.791h3.73c-0.322-0.959-0.697-1.891-1.115-2.801l-10.193,0.002
	c-0.549-2.441-1.26-4.727-2.115-6.817h7.934c-0.861-0.998-1.791-1.93-2.779-2.801l-12.037-0.001
	c-0.703-2.61-1.529-4.792-2.512-6.457c-0.09-0.149-0.184-0.291-0.275-0.435c-1.383-0.205-2.785-0.347-4.223-0.35
	c-1.379,0.003-2.725,0.135-4.051,0.323c-1.031,1.464-2.088,3.647-2.963,6.919l-12.033-0.001c-0.988,0.871-1.918,1.803-2.779,2.8
	h7.934c-0.852,2.084-1.529,4.39-2.076,6.819L5.445,19.656c-0.418,0.91-0.793,1.844-1.115,2.803l3.732-0.004
	c-0.602,2.48-0.977,5.088-1.072,7.791H2.869c-0.021,0.469-0.072,0.929-0.072,1.402c0,0.471,0.049,0.93,0.072,1.396h11.504
	c0.063,2.598,0.334,5.078,0.717,7.471H4.211c0.311,0.957,0.674,1.887,1.078,2.797h3.49c0.807,2.559,1.857,4.959,3.135,7.143H9.82
	c0.861,0.996,1.791,1.928,2.777,2.799h6.449c1.229,2.367,2.689,4.402,4.332,6.014c2.621,0.787,5.393,1.225,8.27,1.229
	c2.75-0.004,5.4-0.416,7.92-1.137c1.572-1.426,3.191-3.387,4.666-6.107h6.465c0.986-0.869,1.914-1.799,2.773-2.795l-2.08-0.002
	c1.285-2.184,2.346-4.582,3.152-7.143h3.463c0.404-0.91,0.768-1.842,1.076-2.799L48.254,40.515z M52.33,22.457
	c0.643,2.469,1.045,5.076,1.154,7.791H41.049c-0.041-2.703-0.168-5.311-0.383-7.791H52.33z M30.25,33.046v7.467h-6.141v0.002h-6.191
	c-0.404-2.381-0.68-4.867-0.748-7.471h6.445v0.002H30.25z M25.047,30.248c0.041-2.707,0.172-5.318,0.391-7.793l12.445,0.002
	c0.219,2.471,0.355,5.078,0.391,7.791H25.047z M33.049,33.046h13.078c-0.068,2.604-0.346,5.09-0.748,7.469H37.92v0.002l-4.871-0.004
	V33.046z M37.574,12.841v-0.002h4.896c0.92,2.035,1.693,4.327,2.295,6.817H33.049v-6.815H37.574z M30.582,3.852
	c0.467-0.491,0.814-0.677,1-0.759c0.059-0.024,0.088-0.031,0.115-0.038c0.365-0.007,1.164,0.453,2.037,1.952
	c0.709,1.188,1.398,2.923,2.01,5.031h-4.096v0.003h-4.092C28.613,6.486,29.773,4.693,30.582,3.852z M20.826,12.837h4.9v0.006
	l4.521-0.005v6.816l-6.105,0.004h-5.611C19.131,17.166,19.904,14.873,20.826,12.837z M9.816,30.248
	c0.105-2.717,0.506-5.324,1.154-7.789l11.631-0.004c-0.211,2.479-0.342,5.086-0.375,7.793H9.816z M19.912,50.455h-4.68
	c-1.428-2.125-2.631-4.518-3.531-7.141h5.012v0.002l6.137-0.004c0.285,2.57,0.664,4.965,1.121,7.139h-4.059V50.455z M22.246,53.251
	h3.48v0.004l4.518-0.004l0.004,6.857C27.369,59.541,24.547,57.146,22.246,53.251z M31.648,50.455h-4.801
	c-0.473-2.135-0.869-4.535-1.172-7.141h5.971v-0.002h5.977c-0.303,2.605-0.699,5.004-1.172,7.141h-4.803V50.455z M33.047,60v-6.748
	h2.738v0.002h5.182C37.967,58.023,34.805,59.523,33.047,60z M48.064,50.453h-5.537v0.002h-3.201c0.461-2.176,0.838-4.57,1.123-7.141
	h11.123C50.668,45.931,49.484,48.33,48.064,50.453z"/>
</svg>
