<?xml version="1.0" encoding="utf-8"?>
<!DOCTYPE svg PUBLIC "-//W3C//DTD SVG 1.1//EN" "http://www.w3.org/Graphics/SVG/1.1/DTD/svg11.dtd">
<svg version="1.1" id="Layer_1" xmlns="http://www.w3.org/2000/svg" xmlns:xlink="http://www.w3.org/1999/xlink" x="0px" y="0px"
	 width="28.178px" height="30.899px" viewBox="0 0 28.178 30.899" enable-background="new 0 0 28.178 30.899" xml:space="preserve">
<linearGradient id="gradient" gradientUnits="userSpaceOnUse" x1="17.1387" y1="30.899" x2="17.1387" y2="0">
	<stop  offset="0" style="stop-color:#404040"/>
	<stop  offset="1" style="stop-color:#A0A0A0"/>
</linearGradient>
<path fill="#808080" d="M0,16.811C0.002,10.227,4.514,4.706,10.618,3.158l0,0l0.441,1.745C5.74,6.252,1.797,11.068,1.799,16.811l0,0
	c0.012,6.784,5.502,12.275,12.29,12.288l0,0c6.787-0.013,12.276-5.504,12.288-12.288l0,0c0.003-5.742-3.938-10.559-9.259-11.907l0,0
	l0.441-1.745c6.104,1.548,10.616,7.068,10.618,13.652l0,0c0,7.779-6.308,14.087-14.089,14.089l0,0C6.306,30.897,0,24.59,0,16.811
	L0,16.811z"/>
<polygon fill="#C0C0C0" points="13.189,17.899 13.189,0 14.989,0 14.989,16.098 21.825,16.098 21.825,16.101 21.825,17.899 
	13.189,17.899 "/>
</svg>
