<?xml version="1.0" encoding="utf-8"?>
<!DOCTYPE svg PUBLIC "-//W3C//DTD SVG 1.1//EN" "http://www.w3.org/Graphics/SVG/1.1/DTD/svg11.dtd">
<svg version="1.1" id="Layer_1" xmlns="http://www.w3.org/2000/svg" xmlns:xlink="http://www.w3.org/1999/xlink" x="0px" y="0px"
	 width="56.355px" height="61.798px" viewBox="0 0 56.355 61.798" enable-background="new 0 0 56.355 61.798" xml:space="preserve">
<linearGradient id="gradient" gradientUnits="userSpaceOnUse" x1="17.1387" y1="61.798" x2="17.1387" y2="0">
	<stop  offset="0" style="stop-color:#404040"/>
	<stop  offset="1" style="stop-color:#A0A0A0"/>
</linearGradient>
<path fill="#808080" d="M0,33.621C0.004,20.453,9.027,9.412,21.236,6.316l0,0l0.883,3.49C11.48,12.504,3.594,22.137,3.598,33.621
	l0,0c0.023,13.568,11.004,24.551,24.58,24.576l0,0c13.574-0.025,24.553-11.008,24.576-24.576l0,0
	c0.006-11.484-7.877-21.117-18.518-23.814l0,0l0.883-3.49c12.207,3.096,21.232,14.137,21.236,27.304l0,0
	c0,15.559-12.615,28.174-28.178,28.178l0,0C12.611,61.794,0,49.179,0,33.621L0,33.621z"/>
<polygon fill="#C0C0C0" points="26.379,35.798 26.379,0 29.979,0 29.979,32.195 43.65,32.195 43.65,32.201 43.65,35.798 
	26.379,35.798 "/>
</svg>
