<?xml version="1.0" encoding="utf-8"?>
<!DOCTYPE svg PUBLIC "-//W3C//DTD SVG 1.1//EN" "http://www.w3.org/Graphics/SVG/1.1/DTD/svg11.dtd">
<svg version="1.1" id="Layer_1" xmlns="http://www.w3.org/2000/svg" xmlns:xlink="http://www.w3.org/1999/xlink" x="0px" y="0px"
	 width="89.421px" height="82.903px" viewBox="0 0 89.421 82.903" enable-background="new 0 0 89.421 82.903" xml:space="preserve">
<linearGradient id="gradient" gradientUnits="userSpaceOnUse" x1="17.1387" y1="82.903" x2="17.1387" y2="0">
	<stop  offset="0" style="stop-color:#404040"/>
	<stop  offset="1" style="stop-color:#A0A0A0"/>
</linearGradient>
<path fill="#C0C0C0" d="M79.229,24.507l0.012-0.031L15.868,0l-1.084,2.801l53.883,20.806H15.326C6.859,23.606,0,30.465,0,38.933
	v28.64c0,8.467,6.859,15.327,15.326,15.331l58.768-0.004c8.464,0,15.322-6.86,15.327-15.327v-28.64
	C89.417,32.27,85.162,26.619,79.229,24.507z M86.418,67.572c-0.013,6.81-5.519,12.315-12.324,12.327H15.326
	c-6.81-0.012-12.315-5.518-12.327-12.327v-28.64c0.012-6.81,5.518-12.315,12.327-12.328h58.768
	c6.806,0.013,12.312,5.519,12.324,12.328V67.572z"/>
<path fill="#808080" d="M25.204,35.951c-9.561,0-17.304,7.744-17.304,17.3c0,9.56,7.743,17.303,17.304,17.303
	c9.555,0,17.299-7.743,17.303-17.303C42.503,43.695,34.759,35.951,25.204,35.951z M25.204,67.554
	c-7.899-0.013-14.291-6.403-14.303-14.303c0.012-7.899,6.403-14.286,14.303-14.299c7.899,0.013,14.286,6.399,14.302,14.299
	C39.49,61.15,33.104,67.541,25.204,67.554z"/>
<path fill="#808080" d="M46.913,35.95v15.838h32.626V35.95H46.913z M76.537,48.787H49.914v-9.836h26.623V48.787z"/>
<path fill="#808080" d="M54.342,57.183c-4.104,0.004-7.429,3.324-7.429,7.429c0,4.1,3.324,7.424,7.429,7.424
	c4.1,0,7.42-3.324,7.424-7.424C61.762,60.507,58.441,57.187,54.342,57.183z M54.342,69.034c-2.444-0.004-4.424-1.979-4.428-4.423
	c0.004-2.443,1.983-4.424,4.428-4.428c2.438,0.004,4.419,1.984,4.423,4.428C58.761,67.055,56.78,69.03,54.342,69.034z"/>
<path fill="#808080" d="M72.113,57.183c-4.104,0.004-7.424,3.324-7.429,7.429c0.005,4.1,3.325,7.424,7.429,7.424
	c4.1,0,7.421-3.324,7.425-7.424C79.534,60.507,76.213,57.187,72.113,57.183z M72.113,69.034c-2.443-0.004-4.423-1.979-4.428-4.423
	c0.005-2.443,1.984-4.424,4.428-4.428c2.439,0.004,4.42,1.984,4.424,4.428C76.533,67.055,74.553,69.03,72.113,69.034z"/>
</svg>
