<?xml version="1.0" encoding="utf-8"?>
<!DOCTYPE svg PUBLIC "-//W3C//DTD SVG 1.1//EN" "http://www.w3.org/Graphics/SVG/1.1/DTD/svg11.dtd">
<svg version="1.1" id="Layer_1" xmlns="http://www.w3.org/2000/svg" xmlns:xlink="http://www.w3.org/1999/xlink" x="0px" y="0px"
	 width="44.711px" height="41.451px" viewBox="0 0 44.711 41.451" enable-background="new 0 0 44.711 41.451" xml:space="preserve">
<linearGradient id="gradient" gradientUnits="userSpaceOnUse" x1="17.1387" y1="41.451" x2="17.1387" y2="0">
	<stop  offset="0" style="stop-color:#404040"/>
	<stop  offset="1" style="stop-color:#A0A0A0"/>
</linearGradient>
<path fill="#C0C0C0" d="M39.614,12.253l0.006-0.016L7.934,0L7.392,1.4l26.942,10.403H7.663C3.43,11.803,0,15.232,0,19.466v14.32
	c0,4.232,3.43,7.662,7.663,7.664l29.384-0.002c4.232,0,7.661-3.43,7.664-7.662v-14.32C44.709,16.135,42.581,13.31,39.614,12.253z
	 M43.209,33.787c-0.006,3.404-2.76,6.157-6.162,6.163H7.663c-3.405-0.006-6.158-2.759-6.164-6.163v-14.32
	c0.006-3.405,2.759-6.158,6.164-6.164h29.384c3.402,0.006,6.156,2.759,6.162,6.164V33.787z"/>
<path fill="#808080" d="M12.602,17.976c-4.78,0-8.652,3.872-8.652,8.65c0,4.78,3.872,8.651,8.652,8.651
	c4.777,0,8.649-3.871,8.651-8.651C21.251,21.847,17.379,17.976,12.602,17.976z M12.602,33.777c-3.95-0.006-7.146-3.201-7.151-7.151
	c0.006-3.95,3.202-7.143,7.151-7.149c3.95,0.006,7.143,3.199,7.151,7.149C19.745,30.576,16.552,33.771,12.602,33.777z"/>
<path fill="#808080" d="M23.457,17.975v7.919H39.77v-7.919H23.457z M38.269,24.394H24.957v-4.918h13.312V24.394z"/>
<path fill="#808080" d="M27.171,28.591c-2.052,0.002-3.714,1.662-3.714,3.715c0,2.049,1.662,3.711,3.714,3.711
	c2.05,0,3.71-1.662,3.712-3.711C30.881,30.253,29.221,28.593,27.171,28.591z M27.171,34.517c-1.222-0.002-2.212-0.99-2.214-2.211
	c0.002-1.223,0.992-2.213,2.214-2.215c1.22,0.002,2.21,0.992,2.212,2.215C29.381,33.527,28.391,34.515,27.171,34.517z"/>
<path fill="#808080" d="M36.057,28.591c-2.052,0.002-3.712,1.662-3.715,3.715c0.003,2.049,1.663,3.711,3.715,3.711
	c2.05,0,3.711-1.662,3.713-3.711C39.768,30.253,38.106,28.593,36.057,28.591z M36.057,34.517c-1.222-0.002-2.211-0.99-2.214-2.211
	c0.003-1.223,0.992-2.213,2.214-2.215c1.22,0.002,2.21,0.992,2.212,2.215C38.267,33.527,37.276,34.515,36.057,34.517z"/>
</svg>
