<?xml version="1.0" encoding="utf-8"?>
<!DOCTYPE svg PUBLIC "-//W3C//DTD SVG 1.1//EN" "http://www.w3.org/Graphics/SVG/1.1/DTD/svg11.dtd">
<svg version="1.1" id="Layer_1" xmlns="http://www.w3.org/2000/svg" xmlns:xlink="http://www.w3.org/1999/xlink" x="0px" y="0px"
	 width="56.353px" height="61.799px" viewBox="0 0 56.353 61.799" enable-background="new 0 0 56.353 61.799" xml:space="preserve">
<linearGradient id="gradient" gradientUnits="userSpaceOnUse" x1="17.1387" y1="61.799" x2="17.1387" y2="0">
	<stop  offset="0" style="stop-color:#404040"/>
	<stop  offset="1" style="stop-color:#A0A0A0"/>
</linearGradient>
<polygon fill="#808080" points="26.376,30.001 26.376,0 29.978,0 29.978,30.001 26.376,30.001 "/>
<path fill="#C0C0C0" d="M 22.183594 5.4316406 C 22.146019 5.3810463 9.2926068 6.8698966 9.2675781 6.9277344 C 9.2588157 6.9479832 10.73085 8.9363168 11.958984 10.599609 C 9.7283164 12.172516 7.7290516 14.052283 6.0410156 16.191406 C 2.2586406 20.984531 0.002 27.036641 0 33.619141 C 0 49.181141 12.612687 61.799781 28.179688 61.800781 C 43.742688 61.800781 56.353516 49.182141 56.353516 33.619141 C 56.353516 20.454141 47.324141 9.4113594 35.119141 6.3183594 L 34.236328 9.8085938 C 44.873328 12.506594 52.761813 22.140141 52.757812 33.619141 C 52.730812 47.191141 41.751687 58.174219 28.179688 58.199219 C 14.603688 58.173219 3.6246094 47.191141 3.5996094 33.619141 C 3.5976094 27.879641 5.5686406 22.602875 8.8691406 18.421875 C 10.360345 16.532851 12.128277 14.874434 14.103516 13.492188 C 15.457359 15.306466 16.996181 17.369889 17.019531 17.367188 C 17.082135 17.359944 22.221168 5.482235 22.183594 5.4316406 z "/>
</svg>
