<?xml version="1.0" encoding="utf-8"?>
<!DOCTYPE svg PUBLIC "-//W3C//DTD SVG 1.1//EN" "http://www.w3.org/Graphics/SVG/1.1/DTD/svg11.dtd">
<svg version="1.1" id="Layer_1" xmlns="http://www.w3.org/2000/svg" xmlns:xlink="http://www.w3.org/1999/xlink" x="0px" y="0px"
	 width="42.449px" height="31.801px" viewBox="0 0 42.449 31.801" enable-background="new 0 0 42.449 31.801" xml:space="preserve">
<linearGradient id="gradient" gradientUnits="userSpaceOnUse" x1="17.1387" y1="31.801" x2="17.1387" y2="0">
	<stop  offset="0" style="stop-color:#404040"/>
	<stop  offset="1" style="stop-color:#A0A0A0"/>
</linearGradient>
<polygon fill="#C0C0C0" points="0,13.566 1.388,12.419 6.507,18.62 11.632,12.419 13.019,13.566 6.507,21.445 0,13.566 "/>
<polygon fill="#C0C0C0" points="29.428,19.458 35.938,11.579 42.449,19.459 41.059,20.604 35.938,14.405 30.816,20.606 
	29.428,19.458 "/>
<path fill="#808080" d="M21.092,0c-8.783,0.002-15.9,7.12-15.9,15.9c0,0.397,0.017,0.79,0.045,1.18l1.271,1.539l0.62-0.75
	c-0.09-0.644-0.137-1.301-0.137-1.969C7.006,8.113,13.305,1.814,21.092,1.801c5.568-0.002,10.381,3.227,12.672,7.916l1.62-0.79
	C32.801,3.642,27.371,0.002,21.092,0z"/>
<path fill="#808080" d="M35.938,14.405l-0.773,0.936c0.008,0.188,0.027,0.371,0.027,0.56c-0.015,7.785-6.313,14.086-14.1,14.101
	c-5.111,0-9.582-2.718-12.057-6.786l-1.537,0.936c2.785,4.586,7.835,7.65,13.594,7.65c8.781,0,15.899-7.119,15.899-15.9
	c0-0.079-0.011-0.155-0.012-0.234L35.938,14.405z"/>
</svg>
