<?xml version="1.0" encoding="utf-8"?>
<!DOCTYPE svg PUBLIC "-//W3C//DTD SVG 1.1//EN" "http://www.w3.org/Graphics/SVG/1.1/DTD/svg11.dtd">
<svg version="1.1" id="Layer_1" xmlns="http://www.w3.org/2000/svg" xmlns:xlink="http://www.w3.org/1999/xlink" x="0px" y="0px"
	 width="84.897px" height="63.602px" viewBox="0 0 84.897 63.602" enable-background="new 0 0 84.897 63.602" xml:space="preserve">
<linearGradient id="gradient" gradientUnits="userSpaceOnUse" x1="17.1387" y1="63.602" x2="17.1387" y2="0">
	<stop  offset="0" style="stop-color:#404040"/>
	<stop  offset="1" style="stop-color:#A0A0A0"/>
</linearGradient>
<polygon fill="#C0C0C0" points="0,27.132 2.776,24.839 13.015,37.239 23.265,24.839 26.037,27.132 13.015,42.889 0,27.132 "/>
<polygon fill="#C0C0C0" points="58.857,38.917 71.876,23.158 84.897,38.92 82.118,41.208 71.876,28.81 61.632,41.213 58.857,38.917 
	"/>
<path fill="#808080" d="M42.185,0C24.618,0.004,10.384,14.239,10.384,31.801c0,0.793,0.033,1.58,0.09,2.359l2.541,3.078l1.24-1.5
	c-0.18-1.287-0.273-2.602-0.273-3.938C14.013,16.226,26.61,3.628,42.185,3.603c11.137-0.004,20.762,6.453,25.344,15.831l3.24-1.579
	C65.603,7.284,54.741,0.004,42.185,0z"/>
<path fill="#808080" d="M71.876,28.81l-1.547,1.872c0.016,0.375,0.055,0.743,0.055,1.122c-0.029,15.57-12.625,28.17-28.199,28.199
	c-10.223,0-19.164-5.434-24.113-13.57l-3.074,1.871c5.57,9.17,15.67,15.299,27.188,15.299c17.563,0,31.799-14.238,31.799-31.799
	c0-0.158-0.021-0.313-0.023-0.471L71.876,28.81z"/>
</svg>
