<?xml version="1.0" encoding="utf-8"?>
<!DOCTYPE svg PUBLIC "-//W3C//DTD SVG 1.1//EN" "http://www.w3.org/Graphics/SVG/1.1/DTD/svg11.dtd">
<svg version="1.1" id="Layer_1" xmlns="http://www.w3.org/2000/svg" xmlns:xlink="http://www.w3.org/1999/xlink" x="0px" y="0px"
	 width="31.72px" height="31.8px" viewBox="0 0 31.72 31.8" enable-background="new 0 0 31.72 31.8" xml:space="preserve">
<linearGradient id="gradient" gradientUnits="userSpaceOnUse" x1="17.1387" y1="31.8" x2="17.1387" y2="0">
	<stop  offset="0" style="stop-color:#404040"/>
	<stop  offset="1" style="stop-color:#A0A0A0"/>
</linearGradient>
<path fill="#C0C0C0" d="M23.942,10.02c-0.409,0.002-0.825-0.157-1.141-0.472l0,0l-0.634-0.632C21.861,8.605,21.7,8.189,21.702,7.78
	l0,0C21.7,7.374,21.858,6.952,22.12,6.699l0,0l5.208-6.219C27.643,0.159,28.063,0,28.473,0l0,0c0.41,0,0.826,0.163,1.139,0.474l0,0
	L28.976,1.11l-0.497,0.497l0.497-0.497l0.636-0.636l1.637,1.635c0.313,0.313,0.474,0.729,0.472,1.141l0,0
	c0.002,0.408-0.156,0.826-0.529,1.194l0,0l-6.113,5.113c-0.309,0.303-0.72,0.463-1.127,0.463l0,0
	C23.948,10.02,23.945,10.02,23.942,10.02L23.942,10.02z M23.952,8.154l5.879-4.915l-1.344-1.344l-4.92,5.874L23.952,8.154
	L23.952,8.154z M28.339,1.747l0.134-0.134L28.339,1.747L28.339,1.747z"/>
<path fill="#808080" d="M22.802,9.548l-0.634-0.632c-0.123-0.125-0.217-0.27-0.292-0.422L7.127,23.476l1.282,1.264L23.124,9.791
	C23.01,9.724,22.899,9.646,22.802,9.548z"/>
<path fill="#C0C0C0" d="M24.084,15.508c-0.019-0.381-0.111-0.721-0.295-1.038c-0.18-0.295-0.507-0.694-1.147-0.717
	c-0.696,0.021-1.077,0.517-1.281,0.944c-0.462,0.911-0.969,1.858-2.228,1.852c0.002,0-0.004-0.003-0.004-0.003
	c-0.271,0-1.085-0.079-2.026-0.638l-1.292,1.313c1.414,0.968,2.727,1.126,3.318,1.126l0.006,0.002
	c1.545-0.005,2.518-0.816,3.127-1.632c-0.077,0.465-0.289,0.999-0.892,1.665c-0.624,0.663-1.283,0.779-2.23,0.895
	c-0.898,0.115-2.124,0.16-3.106,1.183c-0.594,0.613-0.748,1.415-0.74,2.082c0.008,0.95,0.221,1.847,0.217,2.744
	c-0.019,1.117-0.237,2.182-1.554,3.49c-0.708,0.682-1.706,1.222-3.014,1.224c-1.489,0-3.501-0.713-5.995-3.078l-0.082-0.084
	c-2.352-2.479-3.064-4.489-3.064-5.977c0.002-1.309,0.543-2.304,1.227-3.014c1.306-1.319,2.373-1.539,3.488-1.556h0.037
	c0.884,0,1.768,0.208,2.704,0.216c0.67,0.009,1.47-0.146,2.087-0.737c1.021-0.982,1.067-2.208,1.183-3.104
	c0.115-0.95,0.231-1.609,0.894-2.233c0.67-0.605,1.205-0.816,1.672-0.893c-0.791,0.59-1.579,1.522-1.633,2.987
	c-0.004,0.023-0.004,0.042-0.002,0.059c-0.001,0.029-0.002,0.057-0.002,0.086h0.003c0,0.001-0.001,0.001-0.001,0.002h-0.004v0.006
	c0.014,0.506,0.168,1.88,1.104,3.25l1.29-1.312c-0.436-0.777-0.571-1.577-0.591-1.859v-0.088c-0.006-1.261,0.939-1.766,1.854-2.231
	c0.425-0.204,0.917-0.583,0.939-1.279c-0.022-0.641-0.423-0.971-0.717-1.147c-0.319-0.186-0.659-0.278-1.032-0.293
	c-0.139-0.006-0.373-0.024-0.657-0.026c-0.849-0.013-2.182,0.222-3.446,1.417c-1.152,1.061-1.352,2.386-1.459,3.344
	c-0.109,1.01-0.197,1.613-0.631,2.007c-0.188,0.171-0.381,0.239-0.851,0.245c-0.63,0.01-1.597-0.21-2.741-0.216
	c-1.426-0.017-3.182,0.431-4.778,2.103C0.783,17.566,0,19.029,0,20.86c0.003,2.087,1.008,4.532,3.577,7.235l0.115,0.115
	c2.716,2.583,5.163,3.589,7.25,3.589h0.007c1.826,0,3.286-0.784,4.26-1.734c1.67-1.599,2.117-3.353,2.1-4.78
	c-0.005-1.146-0.225-2.111-0.215-2.744c0.006-0.465,0.074-0.657,0.245-0.842c0.396-0.436,1.001-0.523,2.011-0.635
	c0.958-0.105,2.282-0.305,3.342-1.459c1.194-1.267,1.432-2.598,1.417-3.446C24.108,15.871,24.088,15.636,24.084,15.508z"/>
</svg>
