<?xml version="1.0" encoding="utf-8"?>
<!DOCTYPE svg PUBLIC "-//W3C//DTD SVG 1.1//EN" "http://www.w3.org/Graphics/SVG/1.1/DTD/svg11.dtd">
<svg version="1.1" id="Layer_1" xmlns="http://www.w3.org/2000/svg" xmlns:xlink="http://www.w3.org/1999/xlink" x="0px" y="0px"
	 width="63.439px" height="63.599px" viewBox="0 0 63.439 63.599" enable-background="new 0 0 63.439 63.599" xml:space="preserve">
<linearGradient id="gradient" gradientUnits="userSpaceOnUse" x1="17.1387" y1="63.599" x2="17.1387" y2="0">
	<stop  offset="0" style="stop-color:#404040"/>
	<stop  offset="1" style="stop-color:#A0A0A0"/>
</linearGradient>
<path fill="#C0C0C0" d="M47.885,20.04c-0.818,0.004-1.65-0.313-2.281-0.943l0,0l-1.268-1.265c-0.613-0.621-0.936-1.453-0.932-2.272
	l0,0c-0.004-0.812,0.313-1.656,0.836-2.162l0,0L54.656,0.96C55.285,0.317,56.125,0,56.945,0l0,0c0.82,0,1.652,0.326,2.277,0.947l0,0
	L57.951,2.22l-0.994,0.994l0.994-0.994l1.271-1.272l3.273,3.271c0.627,0.626,0.947,1.458,0.943,2.281l0,0
	c0.004,0.815-0.313,1.651-1.059,2.389l0,0L50.154,19.113c-0.617,0.605-1.439,0.927-2.254,0.927l0,0
	C47.896,20.04,47.891,20.04,47.885,20.04L47.885,20.04z M47.904,16.308l11.758-9.83L56.975,3.79l-9.84,11.747L47.904,16.308
	L47.904,16.308z M56.678,3.493l0.268-0.269L56.678,3.493L56.678,3.493z"/>
<path fill="#808080" d="M45.604,19.097l-1.268-1.265c-0.246-0.25-0.434-0.54-0.584-0.844L14.254,46.951l2.564,2.527l29.43-29.896
	C46.02,19.447,45.799,19.293,45.604,19.097z"/>
<path fill="#C0C0C0" d="M48.168,31.016c-0.037-0.762-0.223-1.441-0.59-2.075c-0.359-0.59-1.014-1.389-2.295-1.435
	c-1.393,0.041-2.154,1.034-2.563,1.888c-0.924,1.821-1.938,3.715-4.455,3.704c0.004,0-0.008-0.006-0.008-0.006
	c-0.543,0-2.17-0.158-4.053-1.275l-2.584,2.625c2.828,1.936,5.453,2.252,6.637,2.252l0.012,0.004c3.09-0.01,5.035-1.633,6.254-3.264
	c-0.154,0.93-0.578,1.998-1.783,3.33c-1.248,1.326-2.566,1.559-4.461,1.789c-1.797,0.23-4.248,0.32-6.213,2.365
	c-1.188,1.227-1.496,2.83-1.48,4.164c0.016,1.9,0.441,3.693,0.434,5.488c-0.037,2.234-0.475,4.363-3.107,6.98
	c-1.416,1.363-3.412,2.443-6.027,2.447c-2.979,0-7.002-1.426-11.99-6.156L9.73,53.673c-4.703-4.957-6.129-8.979-6.129-11.953
	c0.004-2.617,1.086-4.607,2.453-6.027c2.611-2.639,4.746-3.078,6.977-3.111h0.074c1.768,0,3.535,0.416,5.408,0.432
	c1.34,0.018,2.939-0.291,4.174-1.475c2.043-1.964,2.135-4.416,2.365-6.208c0.23-1.899,0.463-3.218,1.787-4.466
	c1.34-1.21,2.41-1.632,3.344-1.785c-1.582,1.18-3.158,3.044-3.266,5.974c-0.008,0.046-0.008,0.084-0.004,0.117
	c-0.002,0.058-0.004,0.114-0.004,0.173h0.006c0,0.002-0.002,0.003-0.002,0.004h-0.008v0.013c0.027,1.013,0.336,3.761,2.207,6.5
	l2.58-2.623c-0.871-1.555-1.143-3.153-1.182-3.718v-0.176c-0.012-2.521,1.879-3.531,3.709-4.462c0.85-0.408,1.834-1.166,1.879-2.559
	c-0.045-1.282-0.846-1.941-1.434-2.295c-0.639-0.371-1.318-0.557-2.064-0.586c-0.277-0.012-0.746-0.049-1.314-0.053
	c-1.697-0.025-4.363,0.444-6.893,2.834c-2.305,2.122-2.703,4.771-2.918,6.688c-0.219,2.02-0.395,3.227-1.262,4.014
	c-0.375,0.342-0.762,0.478-1.701,0.49c-1.26,0.021-3.193-0.421-5.482-0.433c-2.852-0.033-6.363,0.861-9.557,4.206
	C1.566,35.132,0,38.058,0,41.72c0.006,4.174,2.016,9.064,7.154,14.471l0.23,0.23c5.432,5.166,10.326,7.178,14.5,7.178h0.014
	c3.652,0,6.572-1.568,8.52-3.469c3.34-3.197,4.234-6.705,4.199-9.561c-0.01-2.291-0.449-4.223-0.43-5.488
	c0.012-0.93,0.148-1.314,0.49-1.684c0.791-0.871,2.002-1.047,4.021-1.27c1.916-0.211,4.564-0.609,6.684-2.918
	c2.389-2.533,2.863-5.195,2.834-6.893C48.217,31.742,48.176,31.271,48.168,31.016z"/>
</svg>
