<?xml version="1.0" encoding="utf-8"?>
<!DOCTYPE svg PUBLIC "-//W3C//DTD SVG 1.1//EN" "http://www.w3.org/Graphics/SVG/1.1/DTD/svg11.dtd">
<svg version="1.1" id="Layer_1" xmlns="http://www.w3.org/2000/svg" xmlns:xlink="http://www.w3.org/1999/xlink" x="0px" y="0px"
	 width="72.519px" height="63.602px" viewBox="0 0 72.519 63.602" enable-background="new 0 0 72.519 63.602" xml:space="preserve">
<linearGradient id="gradient" gradientUnits="userSpaceOnUse" x1="17.1387" y1="63.602" x2="17.1387" y2="0">
	<stop  offset="0" style="stop-color:#404040"/>
	<stop  offset="1" style="stop-color:#A0A0A0"/>
</linearGradient>
<path fill="#C0C0C0" d="M9.001,53.661c-4.971-0.004-8.997-4.029-9.001-9l0,0V9.002C0.004,4.031,4.03,0.005,9.001,0l0,0h54.516
	c4.972,0.005,8.998,4.031,9.002,9.002l0,0v35.659c-0.004,4.971-4.03,8.996-9.002,9l0,0H9.001L9.001,53.661z M3.603,9.002v35.659
	c0.004,2.979,2.42,5.395,5.398,5.398l0,0h54.516c2.983-0.004,5.395-2.42,5.399-5.398l0,0V9.002C68.911,6.02,66.5,3.607,63.517,3.604
	l0,0H9.001C6.019,3.607,3.606,6.02,3.603,9.002L3.603,9.002z"/>
<polygon fill="#808080" points="38.06,53.661 34.46,53.661 34.46,60.002 19.632,60.002 19.632,63.602 52.886,63.602 52.886,60.002 
	38.06,60.002 "/>
</svg>
