<?xml version="1.0" encoding="utf-8"?>
<!DOCTYPE svg PUBLIC "-//W3C//DTD SVG 1.1//EN" "http://www.w3.org/Graphics/SVG/1.1/DTD/svg11.dtd">
<svg version="1.1" id="Layer_1" xmlns="http://www.w3.org/2000/svg" xmlns:xlink="http://www.w3.org/1999/xlink" x="0px" y="0px"
	 width="36.259px" height="31.801px" viewBox="0 0 36.259 31.801" enable-background="new 0 0 36.259 31.801" xml:space="preserve">
<linearGradient id="gradient" gradientUnits="userSpaceOnUse" x1="17.1387" y1="31.801" x2="17.1387" y2="0">
	<stop  offset="0" style="stop-color:#404040"/>
	<stop  offset="1" style="stop-color:#A0A0A0"/>
</linearGradient>
<path fill="#C0C0C0" d="M4.5,26.831C2.015,26.829,0.002,24.816,0,22.33l0,0V4.501C0.002,2.016,2.015,0.002,4.5,0l0,0h27.258
	c2.485,0.002,4.499,2.016,4.501,4.501l0,0V22.33c-0.002,2.486-2.016,4.499-4.501,4.501l0,0H4.5L4.5,26.831z M1.801,4.501V22.33
	c0.002,1.49,1.21,2.697,2.699,2.699l0,0h27.258c1.491-0.002,2.697-1.209,2.7-2.699l0,0V4.501c-0.003-1.491-1.209-2.697-2.7-2.699
	l0,0H4.5C3.009,1.804,1.803,3.01,1.801,4.501L1.801,4.501z"/>
<polygon fill="#808080" points="19.03,26.831 17.23,26.831 17.23,30.001 9.816,30.001 9.816,31.801 26.443,31.801 26.443,30.001 
	19.03,30.001 "/>
</svg>
