<?xml version="1.0" encoding="utf-8"?>
<!DOCTYPE svg PUBLIC "-//W3C//DTD SVG 1.1//EN" "http://www.w3.org/Graphics/SVG/1.1/DTD/svg11.dtd">
<svg version="1.1" id="Layer_1" xmlns="http://www.w3.org/2000/svg" xmlns:xlink="http://www.w3.org/1999/xlink" x="0px" y="0px"
	 width="78.041px" height="63.599px" viewBox="0 0 78.041 63.599" enable-background="new 0 0 78.041 63.599" xml:space="preserve">
<linearGradient id="gradient" gradientUnits="userSpaceOnUse" x1="17.1387" y1="63.599" x2="17.1387" y2="0">
	<stop  offset="0" style="stop-color:#404040"/>
	<stop  offset="1" style="stop-color:#A0A0A0"/>
</linearGradient>
<polygon fill="#C0C0C0" points="43.521,20.15 46.332,17.908 61.746,37.251 75,16.365 75,16.369 78.041,18.293 62.082,43.453 
	43.521,20.15 "/>
<path fill="#808080" d="M31.803,60.001C16.227,59.972,3.631,47.373,3.602,31.8C3.631,16.229,16.227,3.631,31.803,3.602
	C47.375,3.631,59.973,16.229,60.002,31.8c0,1.027-0.072,2.037-0.18,3.035l1.924,2.416l1.727-2.721
	c0.078-0.902,0.131-1.811,0.131-2.73C63.598,14.238,49.365,0.006,31.803,0C14.232,0,0,14.238,0,31.8
	c0,17.564,14.232,31.799,31.803,31.799c9.785,0,18.553-4.428,24.383-11.389l-2.758-2.309C48.244,56.078,40.488,60.001,31.803,60.001
	z"/>
</svg>
