<?xml version="1.0" encoding="utf-8"?>
<!DOCTYPE svg PUBLIC "-//W3C//DTD SVG 1.1//EN" "http://www.w3.org/Graphics/SVG/1.1/DTD/svg11.dtd">
<svg version="1.1" id="Layer_1" xmlns="http://www.w3.org/2000/svg" xmlns:xlink="http://www.w3.org/1999/xlink" x="0px" y="0px"
	 width="39.021px" height="31.8px" viewBox="0 0 39.021 31.8" enable-background="new 0 0 39.021 31.8" xml:space="preserve">
<linearGradient id="gradient" gradientUnits="userSpaceOnUse" x1="17.1387" y1="31.8" x2="17.1387" y2="0">
	<stop  offset="0" style="stop-color:#404040"/>
	<stop  offset="1" style="stop-color:#A0A0A0"/>
</linearGradient>
<polygon fill="#C0C0C0" points="21.761,10.075 23.166,8.954 30.873,18.626 37.5,8.183 37.5,8.185 39.021,9.146 31.041,21.727 
	21.761,10.075 "/>
<path fill="#808080" d="M15.901,30.001C8.113,29.986,1.815,23.687,1.801,15.9c0.015-7.786,6.313-14.085,14.101-14.1
	c7.786,0.015,14.085,6.313,14.1,14.1c0,0.514-0.036,1.019-0.09,1.518l0.962,1.208l0.863-1.36c0.039-0.451,0.065-0.905,0.065-1.365
	C31.799,7.119,24.683,0.003,15.901,0C7.116,0,0,7.119,0,15.9C0,24.683,7.116,31.8,15.901,31.8c4.893,0,9.276-2.214,12.191-5.694
	l-1.379-1.154C24.122,28.039,20.244,30.001,15.901,30.001z"/>
</svg>
