<?xml version="1.0" encoding="utf-8"?>
<!DOCTYPE svg PUBLIC "-//W3C//DTD SVG 1.1//EN" "http://www.w3.org/Graphics/SVG/1.1/DTD/svg11.dtd">
<svg version="1.1" id="Layer_1" xmlns="http://www.w3.org/2000/svg" xmlns:xlink="http://www.w3.org/1999/xlink" x="0px" y="0px"
	 width="37.628px" height="32.081px" viewBox="0 0 37.628 32.081" enable-background="new 0 0 37.628 32.081" xml:space="preserve">
<linearGradient id="gradient" gradientUnits="userSpaceOnUse" x1="17.1387" y1="31.081" x2="17.1387" y2="0">
	<stop  offset="0" style="stop-color:#404040"/>
	<stop  offset="1" style="stop-color:#A0A0A0"/>
</linearGradient>
<path fill="#C0C0C0" d="M0.369,19.534C0.119,18.389,0,17.247,0,16.124l0,0C0,8.789,5.092,2.193,12.548,0.57l0,0
	c0.62-0.136,1.229-0.223,1.829-0.283l0,0L17.195,0l-2.137,1.861c-3.464,3.012-5.55,7.435-5.548,12.151l0,0
	c0,1.137,0.121,2.29,0.373,3.447l0,0c1.298,5.959,5.733,10.419,11.194,12.037l0,0l2.711,0.798l-2.674,0.916
	c-0.569,0.194-1.161,0.369-1.782,0.503l0,0v-0.001c-1.145,0.249-2.282,0.368-3.406,0.368l0,0
	C8.591,32.081,1.997,26.991,0.369,19.534L0.369,19.534z M19.144,30.833l-0.023-0.108c-0.001,0,0,0,0,0l0,0L19.144,30.833
	L19.144,30.833z M1.801,16.124c0,0.999,0.104,2.009,0.328,3.026l0,0C3.568,25.767,9.426,30.28,15.927,30.28l0,0
	c0.625,0,1.255-0.041,1.889-0.127l0,0c-4.771-2.317-8.471-6.724-9.689-12.309l0,0c-0.28-1.284-0.417-2.567-0.417-3.832l0,0
	c0.002-4.233,1.509-8.245,4.108-11.396l0,0C5.815,4.438,1.801,9.994,1.801,16.124L1.801,16.124z"/>
<path fill="#808080" d="M25.121,16.118l-6.91-2.68l6.977-2.707l1.879-5.361l0.847-2.416l2.732,7.777l6.982,2.707l-6.914,2.683
	l-2.801,13.156L25.121,16.118L25.121,16.118z M26.609,12.111l-3.422,1.327l3.49,1.354l1.237,5.824l1.24-5.822l3.492-1.355
	l-3.426-1.329l-1.307-3.722L26.609,12.111L26.609,12.111z"/>
</svg>
