<?xml version="1.0" encoding="utf-8"?>
<!DOCTYPE svg PUBLIC "-//W3C//DTD SVG 1.1//EN" "http://www.w3.org/Graphics/SVG/1.1/DTD/svg11.dtd">
<svg version="1.1" id="Layer_1" xmlns="http://www.w3.org/2000/svg" xmlns:xlink="http://www.w3.org/1999/xlink" x="0px" y="0px"
	 width="75.256px" height="64.164px" viewBox="0 0 75.256 64.164" enable-background="new 0 0 75.256 64.164" xml:space="preserve">
<linearGradient id="gradient" gradientUnits="userSpaceOnUse" x1="17.1387" y1="64.164" x2="17.1387" y2="0">
	<stop  offset="0" style="stop-color:#404040"/>
	<stop  offset="1" style="stop-color:#A0A0A0"/>
</linearGradient>
<path fill="#C0C0C0" d="M0.738,39.068C0.238,36.777,0,34.496,0,32.248l0,0C0,17.578,10.184,4.387,25.096,1.14l0,0
	c1.24-0.272,2.459-0.446,3.658-0.565l0,0L34.391,0l-4.273,3.723c-6.928,6.023-11.1,14.87-11.096,24.303l0,0
	c0,2.273,0.242,4.58,0.746,6.896l0,0c2.596,11.916,11.467,20.836,22.389,24.072l0,0l5.422,1.596l-5.348,1.832
	c-1.139,0.389-2.322,0.738-3.564,1.008l0,0v-0.004c-2.289,0.498-4.564,0.738-6.813,0.738l0,0
	C17.182,64.164,3.994,53.984,0.738,39.068L0.738,39.068z M38.287,61.667l-0.047-0.219c-0.002,0,0,0,0,0l0,0L38.287,61.667
	L38.287,61.667z M3.602,32.248c0,1.996,0.207,4.018,0.656,6.053l0,0c2.879,13.232,14.594,22.26,27.596,22.26l0,0
	c1.25,0,2.51-0.082,3.777-0.252l0,0c-9.541-4.637-16.941-13.449-19.379-24.619l0,0c-0.561-2.568-0.834-5.134-0.834-7.664l0,0
	c0.004-8.467,3.018-16.49,8.217-22.792l0,0C11.631,8.875,3.602,19.988,3.602,32.248L3.602,32.248z"/>
<path fill="#808080" d="M50.242,32.236l-13.82-5.36l13.953-5.414l3.758-10.722l1.693-4.832l5.465,15.554l13.965,5.414l-13.828,5.366
	l-5.602,26.311L50.242,32.236L50.242,32.236z M53.219,24.223l-6.844,2.653l6.98,2.707L55.83,41.23l2.48-11.643l6.984-2.711
	l-6.852-2.657l-2.613-7.444L53.219,24.223L53.219,24.223z"/>
</svg>
