<?xml version="1.0" encoding="utf-8"?>
<!DOCTYPE svg PUBLIC "-//W3C//DTD SVG 1.1//EN" "http://www.w3.org/Graphics/SVG/1.1/DTD/svg11.dtd">
<svg version="1.1" id="Layer_1" xmlns="http://www.w3.org/2000/svg" xmlns:xlink="http://www.w3.org/1999/xlink" x="0px" y="0px"
	 width="135.105px" height="80.615px" viewBox="0 0 135.105 80.615" enable-background="new 0 0 135.105 80.615"
	 xml:space="preserve">
<linearGradient id="gradient" gradientUnits="userSpaceOnUse" x1="17.1387" y1="80.615" x2="17.1387" y2="0">
	<stop  offset="0" style="stop-color:#404040"/>
	<stop  offset="1" style="stop-color:#A0A0A0"/>
</linearGradient>
<path fill="#808080" d="M135.105,19.117h-33.668V0h-3.602v19.117H64.171v3.601h51.842c-1.604,12.33-7.543,25.858-18.791,36.573
	c-0.309-0.377-0.618-0.754-0.914-1.137c-6.348-8.2-9.746-17.42-12.26-24.22l-3.375,1.252c2.524,6.8,6.031,16.433,12.787,25.171
	c0.35,0.453,0.714,0.901,1.082,1.35c-7.688,6.533-17.559,11.801-29.877,14.753l0.836,3.501v-0.002
	c12.907-3.082,23.302-8.639,31.418-15.555c6.612,7.041,15.805,13.006,28.741,15.57l0.705-3.528l-0.002-0.002
	c-12.17-2.436-20.606-7.906-26.767-14.452c12.003-11.387,18.385-25.851,20.016-39.033l-1.936-0.242h17.429V19.117z"/>
<path fill="#C0C0C0" d="M52.138,80.613l3.386-1.229h-0.002L27.76,3.042L0,79.384l3.386,1.23l9.048-24.885h30.655L52.138,80.613z
	 M13.742,52.132L27.76,13.577L41.78,52.132H13.742z"/>
</svg>
