<?xml version="1.0" encoding="utf-8"?>
<!DOCTYPE svg PUBLIC "-//W3C//DTD SVG 1.1//EN" "http://www.w3.org/Graphics/SVG/1.1/DTD/svg11.dtd">
<svg version="1.1" id="Layer_1" xmlns="http://www.w3.org/2000/svg" xmlns:xlink="http://www.w3.org/1999/xlink" x="0px" y="0px"
	 width="111.492px" height="83.604px" viewBox="0 0 111.492 83.604" enable-background="new 0 0 111.492 83.604"
	 xml:space="preserve">
<linearGradient id="gradient" gradientUnits="userSpaceOnUse" x1="17.1387" y1="83.604" x2="17.1387" y2="0">
	<stop  offset="0" style="stop-color:#404040"/>
	<stop  offset="1" style="stop-color:#A0A0A0"/>
</linearGradient>
<path fill="#C0C0C0" d="M62.042,38.149c-2.12-1.921-3.413-4.062-4.553-5.188l0,0c-0.777-0.769-1.245-1.014-1.883-1.043l0,0h-0.059
	l-0.041-0.004c-0.002,0.001-0.005,0.001-0.012,0l0,0c-1.303-0.018-2.417,0.817-4.086,2.159l0,0
	c-1.609,1.281-3.813,2.942-7.033,2.937l0,0c-0.11,0-0.228,0-0.37-0.006l0,0c-5.087-0.115-7.572-3.186-8.443-4.174l0,0
	c-0.704-0.801-1.186-1.677-1.221-2.852l0,0c-0.004-0.532,0.145-1.225,0.675-1.799l0,0c0.529-0.579,1.319-0.815,1.946-0.803l0,0
	c0.491,0.002,0.942,0.104,1.384,0.257l0,0c1.023,0.352,2.229,0.717,3.358,0.711l0,0c1.129-0.02,2.115-0.274,3.204-1.334l0,0
	c0.349-0.317,2.433-2.964,2.5-6.214l0,0l0.002,0.002l3.597,0.122c-0.205,4.654-2.694,7.735-3.551,8.634l0,0
	c-1.762,1.78-3.923,2.41-5.752,2.391l0,0c-0.804-0.002-1.556-0.104-2.239-0.249l0,0c0.911,0.829,2.178,1.563,4.662,1.71l0,0
	c0.077,0.002,0.163,0.002,0.248,0.002l0,0c1.938-0.006,3.189-0.892,4.799-2.158l0,0c1.547-1.2,3.418-2.912,6.333-2.937l0,0
	c0.063,0,0.158,0.001,0.272,0.01l0,0c1.833,0.066,3.261,1.06,4.275,2.113l0,0c1.058,1.085,1.902,2.31,2.863,3.437l0,0
	c1.967,2.242,4.001,4.123,8.776,4.176l0,0c0.021,0,0.053,0,0.092,0l0,0c0.037,0,0.083-0.001,0.136,0l0,0
	c2.365-0.045,4.995-0.866,7.167-3.303l0,0c2.174-2.438,3.982-6.676,4.166-13.755l0,0v-0.271c-0.184-7.136-1.994-11.374-4.166-13.813
	l0,0c-2.173-2.437-4.803-3.261-7.188-3.302l0,0c-0.086-0.003-0.156-0.003-0.215-0.003l0,0c-3.604,0.023-5.591,1.127-7.246,2.582l0,0
	c-1.66,1.467-2.817,3.4-4.386,5.03l0,0c-1.028,1.068-2.479,2.076-4.361,2.117l0,0c-0.073,0.002-0.136,0.002-0.185,0.002l0,0
	c-2.917-0.022-4.788-1.734-6.333-2.934l0,0c-1.609-1.265-2.858-2.149-4.794-2.157l0,0c-0.078,0-0.143,0.002-0.24,0.008l0,0
	c-2.497,0.146-3.772,0.879-4.684,1.708l0,0c0.686-0.146,1.441-0.25,2.248-0.253l0,0c1.829-0.019,3.99,0.612,5.746,2.394l0,0
	c1.014,1.007,3.177,3.771,3.597,8.377l0,0l-3.587,0.321c-0.315-3.571-2.006-5.605-2.55-6.15l0,0
	c-1.097-1.066-2.079-1.321-3.206-1.34l0,0c-1.129-0.005-2.334,0.361-3.371,0.721l0,0c-0.443,0.145-0.88,0.244-1.373,0.247l0,0
	c-0.625,0.015-1.419-0.222-1.948-0.805l0,0c-0.528-0.577-0.673-1.27-0.671-1.796l0,0c0.035-1.173,0.515-2.05,1.217-2.849l0,0
	c0.869-0.999,3.36-4.063,8.396-4.17l0,0c0.159-0.011,0.301-0.013,0.427-0.013l0,0c3.219-0.008,5.419,1.653,7.026,2.933l0,0
	c1.674,1.346,2.788,2.18,4.101,2.157l0,0c0.049,0,0.086,0,0.099,0l0,0c0.633-0.027,1.102-0.274,1.879-1.041l0,0
	c0.748-0.755,1.595-1.952,2.68-3.242l0,0C62.295,2.862,65.772-0.052,71.688,0l0,0c0.112,0,0.211,0.002,0.28,0.004l0,0
	c3.177,0.031,6.913,1.235,9.814,4.509l0,0c2.903,3.272,4.878,8.434,5.072,16.149l0,0v0.362c-0.191,7.683-2.169,12.843-5.072,16.114
	l0,0c-2.901,3.272-6.638,4.476-9.814,4.509l0,0h-0.009h-0.057c-0.031-0.002-0.098,0-0.207,0l0,0
	c-0.034,0.002-0.068,0.002-0.103,0.002l0,0C67.233,41.65,64.146,40.065,62.042,38.149L62.042,38.149z"/>
<polygon fill="#808080" points="22.484,19.291 74.277,18.916 74.305,22.517 22.512,22.891 22.484,19.291 "/>
<path fill="#C0C0C0" d="M46.693,83.604c-8.395-0.002-15.197-6.807-15.199-15.203l0,0c0.002-8.395,6.805-15.197,15.199-15.199l0,0
	h24.126c8.393,0.002,15.195,6.805,15.198,15.199l0,0c-0.003,8.396-6.806,15.201-15.198,15.203l0,0H46.693L46.693,83.604z
	 M35.094,68.4c0.013,6.406,5.195,11.59,11.6,11.604l0,0h24.126c6.404-0.014,11.587-5.197,11.598-11.604l0,0
	c-0.011-6.406-5.193-11.59-11.598-11.6l0,0H46.693C40.289,56.811,35.106,61.994,35.094,68.4L35.094,68.4z"/>
<polygon fill="#C0C0C0" points="26.894,56.801 26.894,53.201 51.013,53.201 51.013,56.801 26.894,56.801 "/>
<path fill="#C0C0C0" d="M108.234,73.881c-9.23-12.771-23.754-16.959-35.27-16.965l0,0v-3.6c11.516-0.004,26.039-4.189,35.27-16.966
	l0,0l3.258-4.505v40.981v5.563L108.234,73.881L108.234,73.881z M107.893,67.793V42.438c-6.189,6.699-13.815,10.641-21.347,12.68l0,0
	C94.076,57.156,101.703,61.096,107.893,67.793L107.893,67.793z"/>
<path fill="#C0C0C0" d="M2.866,26.831C1.241,26.587,0.004,25.184,0,23.5l0,0v-5.096c0.003-1.86,1.506-3.372,3.37-3.374l0,0h0.07
	l17.661,1.569c1.826,0.046,3.288,1.534,3.301,3.376l0,0L24.4,21.944c-0.008,1.825-1.473,3.314-3.296,3.355l0,0L3.02,26.908
	L2.866,26.831L2.866,26.831z M3.602,23.244L20.8,21.714l0.002-1.531l-17.2-1.526V23.244L3.602,23.244z"/>
<polygon fill="#808080" points="47.1,76.434 47.1,47.689 50.7,47.689 50.7,76.434 47.1,76.434 "/>
<polygon fill="#808080" points="57.014,76.434 57.014,47.689 60.614,47.689 60.614,76.434 57.014,76.434 "/>
<polygon fill="#808080" points="66.934,76.434 66.934,47.689 70.533,47.689 70.533,76.434 66.934,76.434 "/>
</svg>
