<?xml version="1.0" encoding="utf-8"?>
<!DOCTYPE svg PUBLIC "-//W3C//DTD SVG 1.1//EN" "http://www.w3.org/Graphics/SVG/1.1/DTD/svg11.dtd">
<svg version="1.1" id="Layer_1" xmlns="http://www.w3.org/2000/svg" xmlns:xlink="http://www.w3.org/1999/xlink" x="0px" y="0px"
	 width="83.601px" height="83.601px" viewBox="0 0 83.601 83.601" enable-background="new 0 0 83.601 83.601" xml:space="preserve">
<linearGradient id="gradient" gradientUnits="userSpaceOnUse" x1="17.1387" y1="83.601" x2="17.1387" y2="0">
	<stop  offset="0" style="stop-color:#404040"/>
	<stop  offset="1" style="stop-color:#A0A0A0"/>
</linearGradient>
<path fill="#808080" d="M60.675,53.594c0.499-3.739,0.77-7.693,0.781-11.794c-0.001-4.161-0.279-8.176-0.797-11.968h17.418
	c-0.405-1.229-0.871-2.43-1.395-3.6H60.082c-0.928-5.035-2.293-9.592-4.013-13.45c-1.43-3.198-3.103-5.92-5.022-8.049
	c-0.692-0.172-1.393-0.322-2.099-0.456c-0.128-0.024-0.257-0.046-0.386-0.069c-0.577-0.104-1.16-0.193-1.747-0.271
	c-0.184-0.024-0.369-0.049-0.555-0.07c-0.553-0.065-1.111-0.115-1.672-0.156C44.399,3.698,44.21,3.68,44.02,3.669
	C43.285,3.626,42.546,3.6,41.801,3.6c-0.745,0-1.483,0.026-2.217,0.069c-0.187,0.011-0.371,0.029-0.557,0.042
	c-0.565,0.041-1.128,0.091-1.686,0.157c-0.179,0.021-0.356,0.044-0.533,0.067c-0.594,0.079-1.185,0.168-1.77,0.273
	c-0.12,0.021-0.241,0.042-0.36,0.064c-0.707,0.134-1.407,0.283-2.1,0.455c-4.215,4.696-7.363,12.299-9.049,21.505H6.917
	c-0.523,1.17-0.989,2.371-1.395,3.6h17.428c-0.515,3.791-0.796,7.803-0.809,11.968c0.001,4.099,0.273,8.054,0.775,11.794H5.464
	c0.398,1.229,0.858,2.43,1.375,3.6h16.647c0.928,5.104,2.304,9.723,4.043,13.625c1.431,3.197,3.105,5.92,5.024,8.049
	c0.691,0.172,1.391,0.32,2.096,0.455c0.122,0.023,0.245,0.043,0.367,0.064c0.585,0.105,1.176,0.197,1.77,0.275
	c0.172,0.022,0.345,0.045,0.518,0.065c0.57,0.067,1.145,0.119,1.723,0.161c0.17,0.012,0.338,0.029,0.509,0.039
	c0.734,0.043,1.473,0.069,2.219,0.07c-1.885-0.018-3.768-0.857-5.667-2.648c-3.838-3.564-7.146-10.898-8.932-20.156h29.296
	c-0.881,4.604-2.138,8.73-3.671,12.156c-1.543,3.467-3.367,6.205-5.27,8c-1.899,1.791-3.782,2.631-5.668,2.648
	c0.746-0.001,1.484-0.027,2.219-0.07c0.164-0.01,0.327-0.025,0.491-0.037c0.585-0.043,1.165-0.096,1.742-0.163
	c0.165-0.02,0.329-0.042,0.493-0.063c0.603-0.079,1.201-0.171,1.795-0.278c0.113-0.02,0.228-0.039,0.341-0.061
	c0.706-0.133,1.405-0.283,2.098-0.454c4.24-4.726,7.402-12.395,9.079-21.679h16.659c0.516-1.17,0.976-2.371,1.374-3.6H60.675z
	 M30.816,14.25c1.544-3.465,3.37-6.202,5.272-8C38.002,4.445,39.9,3.604,41.8,3.602c1.9,0.002,3.799,0.844,5.713,2.649
	c3.813,3.542,7.101,10.807,8.895,19.982H27.182C28.061,21.699,29.304,17.631,30.816,14.25z M57.049,53.594H26.546
	c-0.528-3.717-0.817-7.68-0.804-11.794c-0.001-4.179,0.295-8.202,0.835-11.968h30.448c0.544,3.768,0.844,7.789,0.831,11.968
	C57.858,45.915,57.573,49.878,57.049,53.594z"/>
<path fill="#C0C0C0" d="M0,41.801C0.002,18.713,18.714,0.002,41.801,0l0,0c23.086,0.002,41.798,18.713,41.8,41.801l0,0
	c-0.002,23.086-18.714,41.799-41.8,41.801l0,0C18.714,83.6,0.002,64.887,0,41.801L0,41.801z M14.789,14.789
	C7.874,21.707,3.602,31.245,3.6,41.801l0,0c0.002,10.555,4.274,20.094,11.189,27.012l0,0C21.708,75.727,31.245,80,41.801,80l0,0
	c10.553,0,20.093-4.273,27.01-11.188l0,0c6.916-6.918,11.188-16.457,11.188-27.012l0,0c0-10.556-4.272-20.094-11.188-27.012l0,0
	C61.894,7.872,52.354,3.602,41.801,3.6l0,0C31.245,3.602,21.708,7.872,14.789,14.789L14.789,14.789z"/>
</svg>
