<?xml version="1.0" encoding="utf-8"?>
<!DOCTYPE svg PUBLIC "-//W3C//DTD SVG 1.1//EN" "http://www.w3.org/Graphics/SVG/1.1/DTD/svg11.dtd">
<svg version="1.1" id="Layer_1" xmlns="http://www.w3.org/2000/svg" xmlns:xlink="http://www.w3.org/1999/xlink" x="0px" y="0px"
	 width="95.736px" height="63.119px" viewBox="0 0 95.736 63.119" enable-background="new 0 0 95.736 63.119" xml:space="preserve">
<linearGradient id="gradient" gradientUnits="userSpaceOnUse" x1="17.1387" y1="63.119" x2="17.1387" y2="0">
	<stop  offset="0" style="stop-color:#404040"/>
	<stop  offset="1" style="stop-color:#A0A0A0"/>
</linearGradient>
<polygon fill="#C0C0C0" points="71.48,59.996 88.529,50.152 71.48,40.312 71.484,40.312 73.279,37.193 95.736,50.152 73.283,63.119 
	71.48,59.996 "/>
<path fill="#C0C0C0" d="M73.279,25.922l0.004-0.002v0.002H73.279L73.279,25.922z M71.48,22.803l17.049-9.844L71.484,3.113L73.279,0
	l22.457,12.959L73.283,25.92L71.48,22.803L71.48,22.803z"/>
<path fill="#808080" d="M85.078,52.144l3.451-1.992l-2.789-1.609H73.5c-15.412-0.094-20.955-8.037-26.111-16.986
	c1.176-2.083,2.395-4.13,3.783-6.025c4.59-6.193,10.445-10.898,22.328-10.961h12.238l2.791-1.611l-3.439-1.986H73.5
	c-15.775-0.086-23.117,8.365-28.16,16.902c-1.959-3.555-3.955-7.053-6.594-9.951c-3.377-3.75-8.045-6.4-14.533-6.367H0v3.602h24.213
	c5.545,0.033,8.924,2.006,11.875,5.193c2.699,2.92,4.816,6.961,7.17,11.207c-2.344,4.25-4.488,8.281-7.17,11.203
	c-2.951,3.188-6.33,5.16-11.875,5.193H0v3.602h24.334c6.424,0,11.057-2.641,14.412-6.367c2.631-2.908,4.646-6.41,6.611-9.975
	c0.902,1.514,1.85,3.021,2.904,4.482c4.852,6.77,12.234,12.447,25.029,12.447H85.078z"/>
</svg>
