<?xml version="1.0" encoding="utf-8"?>
<!DOCTYPE svg PUBLIC "-//W3C//DTD SVG 1.1//EN" "http://www.w3.org/Graphics/SVG/1.1/DTD/svg11.dtd">
<svg version="1.1" id="Layer_1" xmlns="http://www.w3.org/2000/svg" xmlns:xlink="http://www.w3.org/1999/xlink" x="0px" y="0px"
	 width="47.868px" height="31.56px" viewBox="0 0 47.868 31.56" enable-background="new 0 0 47.868 31.56" xml:space="preserve">
<linearGradient id="gradient" gradientUnits="userSpaceOnUse" x1="17.1387" y1="31.56" x2="17.1387" y2="0">
	<stop  offset="0" style="stop-color:#404040"/>
	<stop  offset="1" style="stop-color:#A0A0A0"/>
</linearGradient>
<polygon fill="#C0C0C0" points="35.74,29.998 44.265,25.076 35.74,20.156 35.742,20.156 36.64,18.597 47.868,25.076 36.642,31.56 
	35.74,29.998 "/>
<path fill="#C0C0C0" d="M36.64,12.961l0.002-0.001v0.001H36.64L36.64,12.961z M35.74,11.401l8.524-4.922l-8.522-4.923L36.64,0
	l11.229,6.479l-11.227,6.48L35.74,11.401L35.74,11.401z"/>
<path fill="#808080" d="M42.539,26.072l1.726-0.996l-1.395-0.805h-6.12c-7.706-0.047-10.478-4.019-13.056-8.493
	c0.588-1.042,1.197-2.065,1.892-3.013c2.295-3.097,5.223-5.449,11.164-5.48h6.119l1.396-0.806l-1.72-0.993H36.75
	c-7.888-0.043-11.559,4.183-14.08,8.451c-0.979-1.777-1.978-3.526-3.297-4.976c-1.688-1.875-4.022-3.2-7.267-3.184H0v1.801h12.106
	c2.772,0.017,4.462,1.003,5.938,2.597c1.35,1.46,2.408,3.48,3.585,5.604c-1.172,2.125-2.244,4.141-3.585,5.602
	c-1.476,1.594-3.165,2.58-5.938,2.597H0v1.801h12.167c3.212,0,5.528-1.32,7.206-3.184c1.315-1.454,2.323-3.205,3.306-4.987
	c0.451,0.757,0.925,1.511,1.452,2.241c2.426,3.385,6.117,6.224,12.515,6.224H42.539z"/>
</svg>
