<?xml version="1.0" encoding="utf-8"?>
<!DOCTYPE svg PUBLIC "-//W3C//DTD SVG 1.1//EN" "http://www.w3.org/Graphics/SVG/1.1/DTD/svg11.dtd">
<svg version="1.1" id="Layer_1" xmlns="http://www.w3.org/2000/svg" xmlns:xlink="http://www.w3.org/1999/xlink" x="0px" y="0px"
	 width="56.353px" height="61.799px" viewBox="0 0 56.353 61.799" enable-background="new 0 0 56.353 61.799" xml:space="preserve">
<linearGradient id="gradient" gradientUnits="userSpaceOnUse" x1="17.1387" y1="61.799" x2="17.1387" y2="0">
	<stop  offset="0" style="stop-color:#404040"/>
	<stop  offset="1" style="stop-color:#A0A0A0"/>
</linearGradient>
<polygon fill="#808080" points="26.376,30.001 26.376,0 29.978,0 29.978,30.001 26.376,30.001 "/>
<path fill="#C0C0C0" d="M0,33.62C0.004,20.455,9.029,9.412,21.234,6.318l0,0l0.886,3.489C11.48,12.506,3.596,22.141,3.6,33.62l0,0
	C3.625,47.192,14.603,58.174,28.179,58.2l0,0c13.572-0.025,24.551-11.008,24.578-24.58l0,0c0.004-11.479-7.883-21.114-18.52-23.812
	l0,0l0.883-3.489C47.325,9.412,56.353,20.455,56.353,33.62l0,0c0,15.563-12.611,28.18-28.174,28.18l0,0
	C12.612,61.799,0,49.182,0,33.62L0,33.62z"/>
</svg>
