<?xml version="1.0" encoding="utf-8"?>
<!DOCTYPE svg PUBLIC "-//W3C//DTD SVG 1.1//EN" "http://www.w3.org/Graphics/SVG/1.1/DTD/svg11.dtd">
<svg version="1.1" id="Layer_1" xmlns="http://www.w3.org/2000/svg" xmlns:xlink="http://www.w3.org/1999/xlink" x="0px" y="0px"
	 width="80.055px" height="63.116px" viewBox="0 0 80.055 63.116" enable-background="new 0 0 80.055 63.116" xml:space="preserve">
<linearGradient id="gradient" gradientUnits="userSpaceOnUse" x1="17.1387" y1="63.116" x2="17.1387" y2="0">
	<stop  offset="0" style="stop-color:#404040"/>
	<stop  offset="1" style="stop-color:#A0A0A0"/>
</linearGradient>
<polygon fill="#C0C0C0" points="16.768,33.372 16.768,29.77 63.285,29.77 63.285,33.372 16.768,33.372 "/>
<polygon fill="#C0C0C0" points="31.291,15.604 42.107,9.357 31.291,3.114 31.297,3.114 33.094,0 49.314,9.357 33.094,18.724 
	31.291,15.604 "/>
<polygon fill="#C0C0C0" points="31.855,53.749 48.076,44.391 49.873,47.506 39.057,53.752 49.873,59.997 49.877,59.997 
	48.076,63.116 31.855,53.749 "/>
<path fill="#808080" d="M39.107,7.626h-15.16C10.719,7.626,0,18.345,0,31.571c0,13.227,10.719,23.945,23.947,23.945v-3.602
	c-11.238-0.02-20.324-9.107-20.35-20.344c0.025-11.236,9.111-20.327,20.35-20.347h14.93l3.23-1.866L39.107,7.626z M56.109,7.623
	v3.601c11.232,0.021,20.322,9.11,20.344,20.349c-0.021,11.232-9.111,20.322-20.344,20.342H42.24l-3.184,1.838l3.055,1.764h13.998
	c13.219,0,23.945-10.721,23.945-23.943C80.049,18.343,69.328,7.627,56.109,7.623z"/>
</svg>
