<?xml version="1.0" encoding="utf-8"?>
<!DOCTYPE svg PUBLIC "-//W3C//DTD SVG 1.1//EN" "http://www.w3.org/Graphics/SVG/1.1/DTD/svg11.dtd">
<svg version="1.1" id="Layer_1" xmlns="http://www.w3.org/2000/svg" xmlns:xlink="http://www.w3.org/1999/xlink" x="0px" y="0px"
	 width="40.027px" height="31.558px" viewBox="0 0 40.027 31.558" enable-background="new 0 0 40.027 31.558" xml:space="preserve">
<linearGradient id="gradient" gradientUnits="userSpaceOnUse" x1="17.1387" y1="31.558" x2="17.1387" y2="0">
	<stop  offset="0" style="stop-color:#404040"/>
	<stop  offset="1" style="stop-color:#A0A0A0"/>
</linearGradient>
<polygon fill="#C0C0C0" points="8.384,16.686 8.384,14.885 31.643,14.885 31.643,16.686 8.384,16.686 "/>
<polygon fill="#C0C0C0" points="15.646,7.802 21.054,4.679 15.646,1.557 15.648,1.557 16.547,0 24.657,4.679 16.547,9.362 
	15.646,7.802 "/>
<polygon fill="#C0C0C0" points="15.928,26.875 24.038,22.196 24.937,23.753 19.528,26.876 24.937,29.999 24.938,29.999 
	24.038,31.558 15.928,26.875 "/>
<path fill="#808080" d="M19.554,3.813h-7.58C5.359,3.813,0,9.172,0,15.785c0,6.614,5.359,11.973,11.974,11.973v-1.801
	c-5.619-0.01-10.162-4.554-10.175-10.172C1.812,10.167,6.354,5.622,11.974,5.612h7.465l1.615-0.933L19.554,3.813z M28.055,3.812v1.8
	c5.616,0.01,10.161,4.555,10.172,10.174c-0.011,5.617-4.556,10.162-10.172,10.171H21.12l-1.592,0.919l1.527,0.882h6.999
	c6.609,0,11.973-5.36,11.973-11.972C40.024,9.171,34.664,3.813,28.055,3.812z"/>
</svg>
