<?xml version="1.0" encoding="utf-8"?>
<!DOCTYPE svg PUBLIC "-//W3C//DTD SVG 1.1//EN" "http://www.w3.org/Graphics/SVG/1.1/DTD/svg11.dtd">
<svg version="1.1" id="Layer_1" xmlns="http://www.w3.org/2000/svg" xmlns:xlink="http://www.w3.org/1999/xlink" x="0px" y="0px"
	 width="27.984px" height="31.401px" viewBox="0 0 27.984 31.401" enable-background="new 0 0 27.984 31.401" xml:space="preserve">
<linearGradient id="gradient" gradientUnits="userSpaceOnUse" x1="17.1387" y1="31.401" x2="17.1387" y2="0">
	<stop  offset="0" style="stop-color:#404040"/>
	<stop  offset="1" style="stop-color:#A0A0A0"/>
</linearGradient>
<path fill="#808080" d="M25.525,8.755c-1.544-2.53-4.065-4.391-7.036-5.041l0,0l-0.938-0.207l0.482-0.829
	c0.918-1.589,2.628-2.677,4.608-2.677l0,0c2.952,0,5.343,2.391,5.343,5.343l0,0c0.002,1.352-0.518,2.573-1.334,3.506l0,0
	l-0.63,0.717L25.525,8.755L25.525,8.755z M26.134,7.147c0.287-0.542,0.451-1.151,0.452-1.804l0,0
	c-0.004-2.177-1.767-3.94-3.944-3.944l0,0c-1.115,0-2.113,0.467-2.827,1.219l0,0C22.379,3.418,24.581,5.028,26.134,7.147
	L26.134,7.147z"/>
<path fill="#C0C0C0" d="M2.079,16.666c0-6.592,5.345-11.937,11.937-11.937l0,0c6.592,0,11.937,5.345,11.937,11.937l0,0
	c0,6.592-5.345,11.937-11.937,11.937l0,0C7.424,28.603,2.079,23.258,2.079,16.666L2.079,16.666z M3.479,16.666
	c0.011,5.817,4.718,10.526,10.536,10.536l0,0c5.817-0.01,10.526-4.719,10.536-10.536l0,0c-0.01-5.818-4.719-10.525-10.536-10.536
	l0,0C8.197,6.141,3.49,10.848,3.479,16.666L3.479,16.666z"/>
<polygon fill="#808080" points="4.898,31.401 4.898,30 23.134,30 23.134,31.401 4.898,31.401 "/>
<path fill="#C0C0C0" d="M18.632,21.283l-2.967-2.967c0.24-0.343,0.384-0.759,0.384-1.21c0-1.165-0.943-2.108-2.108-2.108
	s-2.109,0.943-2.109,2.108c0,0.45,0.144,0.866,0.384,1.209l-2.969,2.968l0.99,0.988l3.141-3.14c0.181,0.051,0.367,0.086,0.563,0.086
	s0.382-0.035,0.563-0.085l3.14,3.139L18.632,21.283z"/>
<g>
	<path fill="#C0C0C0" d="M5.97,12.396h1.398c0.002,0.907,0.738,1.644,1.647,1.646l0,0c0.91-0.002,1.646-0.738,1.648-1.646l0,0h1.398
		c0,1.681-1.363,3.046-3.047,3.046l0,0C7.333,15.441,5.97,14.076,5.97,12.396L5.97,12.396z"/>
	<path fill="#C0C0C0" d="M15.969,12.396h0.002h1.397c0.002,0.908,0.737,1.644,1.648,1.646l0,0c0.908-0.002,1.646-0.737,1.647-1.646
		l0,0h1.4c0,1.683-1.365,3.045-3.048,3.045l0,0C17.333,15.44,15.969,14.078,15.969,12.396L15.969,12.396z"/>
</g>
<path fill="#808080" d="M9.952,2.679C9.034,1.089,7.322,0,5.342,0C2.392,0,0,2.392,0,5.344c-0.003,1.351,0.521,2.574,1.335,3.505
	l0.627,0.72L2.46,8.753c1.542-2.526,4.064-4.389,7.035-5.04l0.937-0.205L9.952,2.679z M1.852,7.148
	C1.563,6.606,1.399,5.996,1.399,5.344c0.004-2.177,1.766-3.94,3.942-3.944c1.116,0,2.113,0.467,2.826,1.218
	C5.605,3.419,3.402,5.03,1.852,7.148z"/>
</svg>
