<?xml version="1.0" encoding="utf-8"?>
<!DOCTYPE svg PUBLIC "-//W3C//DTD SVG 1.1//EN" "http://www.w3.org/Graphics/SVG/1.1/DTD/svg11.dtd">
<svg version="1.1" id="Layer_1" xmlns="http://www.w3.org/2000/svg" xmlns:xlink="http://www.w3.org/1999/xlink" x="0px" y="0px"
	 width="50.639px" height="30.899px" viewBox="0 0 50.639 30.899" enable-background="new 0 0 50.639 30.899" xml:space="preserve">
<linearGradient id="gradient" gradientUnits="userSpaceOnUse" x1="17.1387" y1="30.899" x2="17.1387" y2="0">
	<stop  offset="0" style="stop-color:#404040"/>
	<stop  offset="1" style="stop-color:#A0A0A0"/>
</linearGradient>
<path fill="#C0C0C0" d="M2.915,12.622c0-3.523,2.855-6.381,6.38-6.381l0,0c3.523,0,6.379,2.857,6.381,6.381l0,0
	c-0.002,3.524-2.857,6.379-6.381,6.381l0,0C5.771,19.003,2.915,16.146,2.915,12.622L2.915,12.622z M4.715,12.622
	c0.005,2.53,2.05,4.578,4.58,4.582l0,0c2.529-0.004,4.575-2.051,4.581-4.582l0,0c-0.006-2.53-2.052-4.577-4.581-4.581l0,0
	C6.765,8.044,4.72,10.092,4.715,12.622L4.715,12.622z"/>
<path fill="#C0C0C0" d="M15.656,24.112v-12.86c0.002-1.979,1.605-3.584,3.587-3.586l0,0h27.81c1.981,0.002,3.586,1.607,3.586,3.586
	l0,0v11.961v0.898H15.656L15.656,24.112z M17.456,11.252v11.061h31.382V11.252c-0.002-0.986-0.8-1.783-1.785-1.785l0,0h-27.81
	C18.257,9.469,17.458,10.267,17.456,11.252L17.456,11.252z"/>
<polygon fill="#808080" points="45.178,24.112 45.178,29.099 1.798,29.099 1.798,20.803 15.656,20.803 15.656,19.003 1.798,19.003 
	1.798,0 0,0 0,30.899 46.979,30.899 46.979,24.112 "/>
</svg>
