<?xml version="1.0" encoding="utf-8"?>
<!DOCTYPE svg PUBLIC "-//W3C//DTD SVG 1.1//EN" "http://www.w3.org/Graphics/SVG/1.1/DTD/svg11.dtd">
<svg version="1.1" id="Layer_1" xmlns="http://www.w3.org/2000/svg" xmlns:xlink="http://www.w3.org/1999/xlink" x="0px" y="0px"
	 width="101.277px" height="61.798px" viewBox="0 0 101.277 61.798" enable-background="new 0 0 101.277 61.798"
	 xml:space="preserve">
<linearGradient id="gradient" gradientUnits="userSpaceOnUse" x1="17.1387" y1="61.798" x2="17.1387" y2="0">
	<stop  offset="0" style="stop-color:#404040"/>
	<stop  offset="1" style="stop-color:#A0A0A0"/>
</linearGradient>
<path fill="#C0C0C0" d="M5.83,25.243c0-7.047,5.711-12.762,12.76-12.762l0,0c7.047,0,12.758,5.715,12.762,12.762l0,0
	c-0.004,7.047-5.715,12.758-12.762,12.762l0,0C11.541,38.005,5.83,32.291,5.83,25.243L5.83,25.243z M9.43,25.243
	c0.01,5.061,4.1,9.155,9.16,9.163l0,0c5.059-0.008,9.15-4.102,9.162-9.163l0,0c-0.012-5.06-4.104-9.154-9.162-9.162l0,0
	C13.529,16.089,9.439,20.184,9.43,25.243L9.43,25.243z"/>
<path fill="#C0C0C0" d="M31.313,48.226V22.505c0.004-3.959,3.211-7.169,7.174-7.173l0,0h55.619c3.963,0.004,7.172,3.214,7.172,7.173
	l0,0v23.922v1.799H31.313L31.313,48.226z M34.912,22.505v22.122h62.764V22.505c-0.004-1.972-1.6-3.566-3.57-3.57l0,0H38.486
	C36.514,18.938,34.916,20.533,34.912,22.505L34.912,22.505z"/>
<polygon fill="#808080" points="90.355,48.226 90.355,58.197 3.596,58.197 3.596,41.605 31.313,41.605 31.313,38.005 3.596,38.005 
	3.596,0 0,0 0,61.798 93.957,61.798 93.957,48.226 "/>
</svg>
