<?xml version="1.0" encoding="utf-8"?>
<!DOCTYPE svg PUBLIC "-//W3C//DTD SVG 1.1//EN" "http://www.w3.org/Graphics/SVG/1.1/DTD/svg11.dtd">
<svg version="1.1" id="Layer_1" xmlns="http://www.w3.org/2000/svg" xmlns:xlink="http://www.w3.org/1999/xlink" x="0px" y="0px"
	 width="55.969px" height="62.802px" viewBox="0 0 55.969 62.802" enable-background="new 0 0 55.969 62.802" xml:space="preserve">
<linearGradient id="gradient" gradientUnits="userSpaceOnUse" x1="17.1387" y1="62.802" x2="17.1387" y2="0">
	<stop  offset="0" style="stop-color:#404040"/>
	<stop  offset="1" style="stop-color:#A0A0A0"/>
</linearGradient>
<path fill="#808080" d="M51.051,17.51c-3.088-5.061-8.131-8.781-14.072-10.082l0,0l-1.877-0.414l0.965-1.658
	c1.836-3.178,5.256-5.354,9.217-5.354l0,0c5.904,0,10.686,4.781,10.686,10.686l0,0c0.004,2.703-1.035,5.146-2.668,7.012l0,0
	l-1.26,1.434L51.051,17.51L51.051,17.51z M52.268,14.295c0.574-1.084,0.902-2.303,0.904-3.607l0,0
	c-0.008-4.354-3.533-7.881-7.889-7.889l0,0c-2.23,0-4.227,0.934-5.654,2.438l0,0C44.758,6.836,49.162,10.057,52.268,14.295
	L52.268,14.295z"/>
<path fill="#C0C0C0" d="M4.158,33.332c0-13.183,10.689-23.873,23.873-23.873l0,0c13.184,0,23.873,10.689,23.873,23.873l0,0
	c0,13.184-10.689,23.873-23.873,23.873l0,0C14.848,57.205,4.158,46.515,4.158,33.332L4.158,33.332z M6.959,33.332
	c0.021,11.635,9.436,21.053,21.072,21.072l0,0c11.635-0.02,21.053-9.438,21.072-21.072l0,0c-0.02-11.636-9.438-21.05-21.072-21.072
	l0,0C16.395,12.281,6.98,21.695,6.959,33.332L6.959,33.332z"/>
<polygon fill="#808080" points="9.797,62.802 9.797,60 46.268,60 46.268,62.802 9.797,62.802 "/>
<path fill="#C0C0C0" d="M37.264,42.566l-5.934-5.934c0.48-0.686,0.768-1.518,0.768-2.42c0-2.33-1.887-4.216-4.217-4.216
	s-4.219,1.886-4.219,4.216c0,0.9,0.287,1.732,0.768,2.418l-5.938,5.936l1.98,1.977l6.281-6.279c0.361,0.102,0.734,0.172,1.127,0.172
	s0.764-0.07,1.125-0.17l6.279,6.277L37.264,42.566z"/>
<g>
	<path fill="#C0C0C0" d="M11.939,24.791h2.797c0.004,1.814,1.477,3.287,3.295,3.291l0,0c1.82-0.004,3.293-1.477,3.297-3.291l0,0
		h2.797c0,3.361-2.727,6.091-6.094,6.091l0,0C14.666,30.882,11.939,28.152,11.939,24.791L11.939,24.791z"/>
	<path fill="#C0C0C0" d="M31.938,24.791h0.004h2.795c0.004,1.816,1.475,3.287,3.297,3.291l0,0c1.816-0.004,3.291-1.475,3.295-3.291
		l0,0h2.801c0,3.365-2.73,6.089-6.096,6.089l0,0C34.666,30.88,31.938,28.156,31.938,24.791L31.938,24.791z"/>
</g>
<path fill="#808080" d="M19.904,5.357C18.068,2.178,14.645,0,10.684,0C4.783,0,0,4.783,0,10.688c-0.006,2.701,1.041,5.148,2.67,7.01
	l1.254,1.439l0.996-1.631c3.084-5.053,8.129-8.777,14.07-10.08l1.873-0.41L19.904,5.357z M3.703,14.297
	c-0.576-1.084-0.904-2.305-0.904-3.609c0.008-4.354,3.531-7.881,7.885-7.889c2.232,0,4.227,0.934,5.652,2.436
	C11.211,6.838,6.805,10.061,3.703,14.297z"/>
</svg>
