<?xml version="1.0" encoding="utf-8"?>
<!DOCTYPE svg PUBLIC "-//W3C//DTD SVG 1.1//EN" "http://www.w3.org/Graphics/SVG/1.1/DTD/svg11.dtd">
<svg version="1.1" id="Layer_1" xmlns="http://www.w3.org/2000/svg" xmlns:xlink="http://www.w3.org/1999/xlink" x="0px" y="0px"
	 width="83.77px" height="63.6px" viewBox="0 0 83.77 63.6" enable-background="new 0 0 83.77 63.6" xml:space="preserve">
<linearGradient id="gradient" gradientUnits="userSpaceOnUse" x1="17.1387" y1="63.6" x2="17.1387" y2="0">
	<stop  offset="0" style="stop-color:#404040"/>
	<stop  offset="1" style="stop-color:#A0A0A0"/>
</linearGradient>
<path fill="#C0C0C0" d="M11.377,54.022H8.186c-4.521,0-8.182-3.664-8.186-8.178l0,0V8.185C0.004,3.663,3.664,0.004,8.186,0l0,0
	h57.822c4.521,0,8.186,3.663,8.186,8.185l0,0v3.191v34.468c0,4.514-3.664,8.178-8.186,8.178l0,0H11.377L11.377,54.022z M3.602,8.185
	v37.66c0.004,2.523,2.055,4.576,4.584,4.58l0,0h3.191h54.631c2.535-0.004,4.584-2.057,4.588-4.58l0,0V11.376V8.185
	c-0.004-2.53-2.053-4.579-4.588-4.583l0,0H8.186C5.656,3.605,3.605,5.654,3.602,8.185L3.602,8.185z"/>
<path fill="#808080" d="M75.584,9.576h-1.391v3.601l1.391-0.002c2.531,0.005,4.582,2.055,4.586,4.586v37.656
	c-0.004,2.529-2.055,4.58-4.586,4.584H17.766c-2.539-0.004-4.586-2.055-4.59-4.584v-1.395h-3.6v1.395
	c0,4.523,3.666,8.184,8.189,8.184h57.818c4.52,0,8.186-3.66,8.186-8.184V17.761C83.766,13.241,80.104,9.576,75.584,9.576z"/>
</svg>
