<?xml version="1.0" encoding="utf-8"?>
<!DOCTYPE svg PUBLIC "-//W3C//DTD SVG 1.1//EN" "http://www.w3.org/Graphics/SVG/1.1/DTD/svg11.dtd">
<svg version="1.1" id="Layer_1" xmlns="http://www.w3.org/2000/svg" xmlns:xlink="http://www.w3.org/1999/xlink" x="0px" y="0px"
	 width="41.885px" height="31.8px" viewBox="0 0 41.885 31.8" enable-background="new 0 0 41.885 31.8" xml:space="preserve">
<linearGradient id="gradient" gradientUnits="userSpaceOnUse" x1="17.1387" y1="31.8" x2="17.1387" y2="0">
	<stop  offset="0" style="stop-color:#404040"/>
	<stop  offset="1" style="stop-color:#A0A0A0"/>
</linearGradient>
<path fill="#C0C0C0" d="M5.688,27.011H4.093c-2.261,0-4.091-1.832-4.093-4.09l0,0V4.092C0.002,1.832,1.832,0.002,4.093,0l0,0h28.911
	c2.261,0,4.093,1.832,4.093,4.092l0,0v1.596v17.233c0,2.258-1.832,4.09-4.093,4.09l0,0H5.688L5.688,27.011z M1.801,4.092v18.829
	c0.002,1.263,1.027,2.289,2.292,2.291l0,0h1.596h27.315c1.268-0.002,2.292-1.028,2.294-2.291l0,0V5.688V4.092
	c-0.002-1.265-1.026-2.29-2.294-2.292l0,0H4.093C2.828,1.803,1.803,2.827,1.801,4.092L1.801,4.092z"/>
<path fill="#808080" d="M37.792,4.788h-0.695v1.8l0.695-0.001c1.266,0.002,2.291,1.027,2.293,2.293v18.828
	c-0.002,1.265-1.027,2.29-2.293,2.292H8.883c-1.27-0.002-2.293-1.027-2.295-2.292v-0.697h-1.8v0.697
	c0,2.262,1.833,4.092,4.095,4.092h28.909c2.26,0,4.093-1.83,4.093-4.092V8.88C41.883,6.621,40.052,4.788,37.792,4.788z"/>
</svg>
