<?xml version="1.0" encoding="utf-8"?>
<!DOCTYPE svg PUBLIC "-//W3C//DTD SVG 1.1//EN" "http://www.w3.org/Graphics/SVG/1.1/DTD/svg11.dtd">
<svg version="1.1" id="Layer_1" xmlns="http://www.w3.org/2000/svg" xmlns:xlink="http://www.w3.org/1999/xlink" x="0px" y="0px"
	 width="94.214px" height="66.264px" viewBox="0 0 94.214 66.264" enable-background="new 0 0 94.214 66.264" xml:space="preserve">
<linearGradient id="gradient" gradientUnits="userSpaceOnUse" x1="17.1387" y1="66.264" x2="17.1387" y2="0">
	<stop  offset="0" style="stop-color:#404040"/>
	<stop  offset="1" style="stop-color:#A0A0A0"/>
</linearGradient>
<polygon fill="#808080" points="29.192,25.283 14.594,0 0,25.283 3.12,27.082 12.795,10.326 12.795,63.604 16.396,63.604 
	16.396,10.314 26.076,27.082 "/>
<polygon fill="#808080" points="91.097,39.182 81.413,55.942 81.413,3.603 77.817,3.603 77.817,55.936 68.142,39.182 65.025,40.981 
	79.616,66.264 94.214,40.981 "/>
<g>
	<path fill="#C0C0C0" stroke="#C0C0C0" stroke-width="0.75" d="M41.329,61.879c0.684,0.07,1.476,0,2.556-0.109
		c1.836-0.252,3.563-1.008,4.895-2.268c1.549-1.404,2.664-3.455,3.096-6.227h-0.107c-1.296,1.584-3.168,2.52-5.508,2.52
		c-4.211,0-6.911-3.168-6.911-7.164c0-4.426,3.204-8.314,7.991-8.314c4.787,0,7.739,3.889,7.739,9.863
		c0,5.146-1.728,8.746-4.032,10.979c-1.799,1.764-4.283,2.844-6.803,3.131c-1.152,0.182-2.16,0.217-2.916,0.182V61.879z
		 M47.052,42.729c-2.664,0-4.571,2.375-4.571,5.688c0,2.916,1.764,4.967,4.5,4.967c2.124,0,3.78-1.043,4.608-2.447
		c0.18-0.287,0.287-0.648,0.287-1.152c0-3.994-1.476-7.055-4.787-7.055H47.052z"/>
</g>
<g>
	<path fill="#C0C0C0" stroke="#C0C0C0" stroke-width="0.75" d="M55.043,15.393c0,7.955-2.951,12.346-8.135,12.346
		c-4.571,0-7.667-4.283-7.739-12.022c0-7.847,3.383-12.166,8.135-12.166C52.236,3.55,55.043,7.941,55.043,15.393z M42.337,15.752
		c0,6.084,1.872,9.539,4.751,9.539c3.24,0,4.788-3.779,4.788-9.755c0-5.759-1.476-9.539-4.751-9.539
		C44.353,5.997,42.337,9.381,42.337,15.752z"/>
</g>
</svg>
