<?xml version="1.0" encoding="utf-8"?>
<!DOCTYPE svg PUBLIC "-//W3C//DTD SVG 1.1//EN" "http://www.w3.org/Graphics/SVG/1.1/DTD/svg11.dtd">
<svg version="1.1" id="Layer_1" xmlns="http://www.w3.org/2000/svg" xmlns:xlink="http://www.w3.org/1999/xlink" x="0px" y="0px"
	 width="94.214px" height="66.264px" viewBox="0 0 94.214 66.264" enable-background="new 0 0 94.214 66.264" xml:space="preserve">
<linearGradient id="gradient" gradientUnits="userSpaceOnUse" x1="17.1387" y1="66.264" x2="17.1387" y2="0">
	<stop  offset="0" style="stop-color:#404040"/>
	<stop  offset="1" style="stop-color:#A0A0A0"/>
</linearGradient>
<polygon fill="#808080" points="29.192,25.283 14.594,0 0,25.283 3.12,27.082 12.795,10.326 12.795,63.604 16.396,63.604 
	16.396,10.314 26.076,27.082 "/>
<polygon fill="#808080" points="91.097,39.182 81.413,55.942 81.413,3.603 77.817,3.603 77.817,55.936 68.142,39.182 65.025,40.981 
	79.616,66.264 94.214,40.981 "/>
<g>
	<path fill="#C0C0C0" stroke="#C0C0C0" stroke-width="0.75" d="M38.233,62.274l13.462-19.797H39.385V39.85h16.378v1.906
		L42.372,61.483h13.57v2.627H38.233V62.274z"/>
</g>
<g>
	<path fill="#C0C0C0" stroke="#C0C0C0" stroke-width="0.75" d="M42.75,19.712l-2.52,7.631h-3.24l8.243-24.261h3.78l8.278,24.261
		h-3.348l-2.591-7.631H42.75z M50.705,17.264c0,0-3.275-10.007-3.636-11.41h-0.072c-0.36,1.439-3.6,11.41-3.6,11.41H50.705z"/>
</g>
</svg>
