<?xml version="1.0" encoding="utf-8"?>
<!DOCTYPE svg PUBLIC "-//W3C//DTD SVG 1.1//EN" "http://www.w3.org/Graphics/SVG/1.1/DTD/svg11.dtd">
<svg version="1.1" id="Layer_1" xmlns="http://www.w3.org/2000/svg" xmlns:xlink="http://www.w3.org/1999/xlink" x="0px" y="0px"
	 width="63.6px" height="63.604px" viewBox="0 0 63.6 63.604" enable-background="new 0 0 63.6 63.604" xml:space="preserve">
<linearGradient id="gradient" gradientUnits="userSpaceOnUse" x1="17.1387" y1="63.604" x2="17.1387" y2="0">
	<stop  offset="0" style="stop-color:#404040"/>
	<stop  offset="1" style="stop-color:#A0A0A0"/>
</linearGradient>
<path fill="#C0C0C0" d="M28.968,40.133h-7.803c-1.805-0.006-3.257-1.461-3.261-3.266l0,0V26.736c0-1.805,1.46-3.261,3.261-3.261l0,0
	h7.803l12.088-13.265v38.534v4.646L28.968,40.133L28.968,40.133z M30.56,36.53l6.896,7.568V19.506l-6.896,7.568h-9.057v9.456H30.56
	L30.56,36.53z"/>
<path fill="#808080" d="M0,31.805C0,14.239,14.235,0.004,31.8,0l0,0C49.36,0.004,63.596,14.239,63.6,31.805l0,0
	C63.596,49.364,49.36,63.598,31.8,63.604l0,0C14.235,63.598,0,49.364,0,31.805L0,31.805z M3.601,31.805
	C3.63,47.377,16.227,59.973,31.8,60.002l0,0c15.572-0.029,28.17-12.625,28.198-28.197l0,0C59.97,16.228,47.372,3.63,31.8,3.602l0,0
	C16.227,3.63,3.63,16.228,3.601,31.805L3.601,31.805z"/>
</svg>
