<?xml version="1.0" encoding="utf-8"?>
<!DOCTYPE svg PUBLIC "-//W3C//DTD SVG 1.1//EN" "http://www.w3.org/Graphics/SVG/1.1/DTD/svg11.dtd">
<svg version="1.1" id="Layer_1" xmlns="http://www.w3.org/2000/svg" xmlns:xlink="http://www.w3.org/1999/xlink" x="0px" y="0px"
	 width="43.261px" height="31.8px" viewBox="0 0 43.261 31.8" enable-background="new 0 0 43.261 31.8" xml:space="preserve">
<linearGradient id="gradient" gradientUnits="userSpaceOnUse" x1="17.1387" y1="31.8" x2="17.1387" y2="0">
	<stop  offset="0" style="stop-color:#404040"/>
	<stop  offset="1" style="stop-color:#A0A0A0"/>
</linearGradient>
<path fill="#C0C0C0" d="M4.609,31.8C2.061,31.8,0,29.739,0,27.192l0,0V4.609C0,2.063,2.061,0.002,4.609,0l0,0h34.045
	c2.544,0.002,4.604,2.063,4.606,4.609l0,0v22.583c-0.002,2.547-2.063,4.607-4.606,4.607l0,0H4.609L4.609,31.8z M1.799,4.609v22.583
	c0.004,1.551,1.259,2.805,2.811,2.809l0,0h34.045c1.548-0.004,2.803-1.258,2.807-2.809l0,0V4.609
	c-0.004-1.55-1.259-2.805-2.807-2.809l0,0H4.609C3.058,1.805,1.803,3.059,1.799,4.609L1.799,4.609z"/>
<polygon fill="#808080" points="5.729,27.392 5.729,11.984 7.53,11.984 7.53,27.392 5.729,27.392 "/>
<polygon fill="#808080" points="10.729,27.392 10.729,14.983 12.529,14.983 12.529,27.392 10.729,27.392 "/>
<polygon fill="#808080" points="15.73,27.392 15.73,17.983 17.529,17.983 17.529,27.392 15.73,27.392 "/>
<polygon fill="#808080" points="20.73,27.393 20.73,19.985 22.53,19.985 22.53,27.393 20.73,27.393 "/>
<polygon fill="#808080" points="25.729,27.392 25.729,16.984 27.53,16.984 27.53,27.392 25.729,27.392 "/>
<polygon fill="#808080" points="30.73,27.392 30.73,13.985 32.53,13.985 32.53,27.392 30.73,27.392 "/>
<polygon fill="#808080" points="35.729,27.393 35.729,14.985 37.528,14.985 37.528,27.393 35.729,27.393 "/>
</svg>
