<?xml version="1.0" encoding="utf-8"?>
<!DOCTYPE svg PUBLIC "-//W3C//DTD SVG 1.1//EN" "http://www.w3.org/Graphics/SVG/1.1/DTD/svg11.dtd">
<svg version="1.1" id="Layer_1" xmlns="http://www.w3.org/2000/svg" xmlns:xlink="http://www.w3.org/1999/xlink" x="0px" y="0px"
	 width="86.521px" height="63.599px" viewBox="0 0 86.521 63.599" enable-background="new 0 0 86.521 63.599" xml:space="preserve">
<linearGradient id="gradient" gradientUnits="userSpaceOnUse" x1="17.1387" y1="63.599" x2="17.1387" y2="0">
	<stop  offset="0" style="stop-color:#404040"/>
	<stop  offset="1" style="stop-color:#A0A0A0"/>
</linearGradient>
<path fill="#C0C0C0" d="M9.219,63.599C4.121,63.599,0,59.478,0,54.384l0,0V9.219C0,4.126,4.121,0.004,9.219,0l0,0h68.09
	c5.088,0.004,9.209,4.126,9.213,9.219l0,0v45.166c-0.004,5.094-4.125,9.215-9.213,9.215l0,0H9.219L9.219,63.599z M3.598,9.219
	v45.166c0.008,3.102,2.518,5.611,5.621,5.619l0,0h68.09c3.096-0.008,5.605-2.518,5.613-5.619l0,0V9.219
	c-0.008-3.101-2.518-5.609-5.613-5.618l0,0H9.219C6.115,3.609,3.605,6.118,3.598,9.219L3.598,9.219z"/>
<polygon fill="#808080" points="11.459,54.785 11.459,23.969 15.061,23.969 15.061,54.785 11.459,54.785 "/>
<polygon fill="#808080" points="21.459,54.785 21.459,29.967 25.059,29.967 25.059,54.785 21.459,54.785 "/>
<polygon fill="#808080" points="31.461,54.783 31.461,35.966 35.059,35.966 35.059,54.783 31.461,54.783 "/>
<polygon fill="#808080" points="41.461,54.785 41.461,39.97 45.061,39.97 45.061,54.785 41.461,54.785 "/>
<polygon fill="#808080" points="51.459,54.785 51.459,33.968 55.061,33.968 55.061,54.785 51.459,54.785 "/>
<polygon fill="#808080" points="61.461,54.785 61.461,27.97 65.061,27.97 65.061,54.785 61.461,54.785 "/>
<polygon fill="#808080" points="71.459,54.785 71.459,29.97 75.057,29.97 75.057,54.785 71.459,54.785 "/>
</svg>
