<?xml version="1.0" encoding="utf-8"?>
<!DOCTYPE svg PUBLIC "-//W3C//DTD SVG 1.1//EN" "http://www.w3.org/Graphics/SVG/1.1/DTD/svg11.dtd">
<svg version="1.1" id="Layer_1" xmlns="http://www.w3.org/2000/svg" xmlns:xlink="http://www.w3.org/1999/xlink" x="0px" y="0px"
	 width="83.003px" height="83.003px" viewBox="0 0 83.003 83.003" enable-background="new 0 0 83.003 83.003" xml:space="preserve">
<linearGradient id="gradient" gradientUnits="userSpaceOnUse" x1="17.1387" y1="83.003" x2="17.1387" y2="0">
	<stop  offset="0" style="stop-color:#404040"/>
	<stop  offset="1" style="stop-color:#A0A0A0"/>
</linearGradient>
<path fill="#C0C0C0" d="M0,41.5C0.008,18.591,18.566,0.018,41.473,0.004l0,0C41.484,0.003,41.496,0.002,41.508,0l0,0
	c10.624,0,20.354,4.019,27.69,10.603l0,0l-2.005,2.231C60.383,6.729,51.37,3.002,41.508,3.002l0,0h-0.004
	C20.237,3.002,3.001,20.237,3.001,41.5l0,0c0,21.262,17.236,38.502,38.503,38.502l0,0h0.004c9.701,0,18.566-3.602,25.331-9.52l0,0
	l1.977,2.258C61.531,79.117,51.958,83.003,41.508,83l0,0l-0.004,0.004C18.582,83,0.008,64.421,0,41.5L0,41.5z"/>
<line fill="#C0C0C0" x1="51.738" y1="34.694" x2="51.738" y2="34.694"/>
<path fill="#C0C0C0" d="M46.723,66.64c-1.098-0.004-2.184-0.477-3.327-1.361l0,0c-2.616-2.057-7.849-6.342-15.113-9.629l0,0
	c-2.994-1.383-9.086-1.633-10.798-1.959l0,0c-1.566-0.18-3.723-1.723-3.607-4.367l0,0c0-1.543,0-2.16,0-4.686l0,0v-5.985
	c0-2.525,0-3.139,0-4.681l0,0c-0.115-2.649,2.041-4.188,3.607-4.373l0,0c1.707-0.32,7.804-0.576,10.798-1.958l0,0
	c7.265-3.286,12.497-7.572,15.113-9.625l0,0c1.139-0.893,2.233-1.366,3.327-1.37l0,0c1.185-0.012,2.147,0.625,2.657,1.296l0,0
	c0.522,0.695,0.766,1.341,0.79,2.098l0,0c0,5.549,0,13.105,0,17.942l0,0v7.326c0,4.838,0,12.395,0,17.941l0,0
	c-0.024,0.758-0.264,1.4-0.79,2.1l0,0c-0.504,0.66-1.448,1.291-2.612,1.291l0,0C46.753,66.64,46.737,66.64,46.723,66.64
	L46.723,66.64z M47.15,63.267c0,0,0.021-0.018,0.017-0.018l0,0c0-5.547,0-13.104,0-17.941l0,0v-7.326c0-4.837,0-12.394,0.004-17.942
	l0,0L47.15,20.02c-0.024-0.065-0.074-0.152-0.123-0.214l0,0c-0.124-0.132-0.132-0.148-0.305-0.16l0,0
	c-0.164-0.004-0.658,0.09-1.477,0.732l0,0c-2.587,2.027-8.079,6.54-15.729,9.999l0,0c-3.883,1.731-10.354,1.893-11.411,2.16l0,0
	c-0.966,0.35-1.114,0.209-1.229,1.436l0,0c0,1.538,0,2.155,0,4.681l0,0v5.985c0,2.525,0,3.143,0,4.686l0,0
	c0.115,1.225,0.264,1.082,1.229,1.436l0,0c1.054,0.264,7.528,0.424,11.411,2.16l0,0c7.65,3.455,13.143,7.965,15.726,9.994l0,0
	c0.814,0.637,1.316,0.732,1.48,0.729l0,0C46.925,63.654,47.027,63.521,47.15,63.267L47.15,63.267z"/>
<path fill="#808080" d="M73.51,62.898c4.08-6.096,6.476-13.432,6.494-21.309l0,0C80.002,41.554,80,41.521,80,41.492l0,0
	c0,0,0.004-0.004,0-0.004l0,0c0-7.88-2.381-15.217-6.448-21.317l0,0l2.496-1.666c4.354,6.528,6.92,14.387,6.954,22.811l0,0
	l0.001,0.004v0.168v0.004v0.012v0.014c0,8.514-2.587,16.463-6.996,23.055l0,0L73.51,62.898L73.51,62.898z"/>
<path fill="#808080" d="M64.302,56.744c2.907-4.344,4.616-9.574,4.625-15.188l0,0c-0.001-0.021-0.001-0.043,0-0.061l0,0v-0.01
	c0-5.607-1.702-10.836-4.597-15.178l0,0l2.496-1.665c3.181,4.77,5.066,10.517,5.101,16.671l0,0l0.001,0.004v0.168v0.018v0.012
	c0,6.242-1.899,12.07-5.131,16.898l0,0L64.302,56.744L64.302,56.744z"/>
<path fill="#808080" d="M55.439,50.826c1.779-2.668,2.831-5.877,2.831-9.309l0,0v-0.012l0,0c0-0.004,0-0.01,0-0.014l0,0v-0.004
	c0-3.423-1.039-6.625-2.811-9.275l0,0l2.494-1.665c2.059,3.079,3.281,6.798,3.316,10.768l0,0v0.004v0.168v0.004v0.014v0.012
	c0,4.049-1.24,7.842-3.333,10.977l0,0L55.439,50.826L55.439,50.826z"/>
</svg>
