<?xml version="1.0" encoding="utf-8"?>
<!DOCTYPE svg PUBLIC "-//W3C//DTD SVG 1.1//EN" "http://www.w3.org/Graphics/SVG/1.1/DTD/svg11.dtd">
<svg version="1.1" id="Layer_1" xmlns="http://www.w3.org/2000/svg" xmlns:xlink="http://www.w3.org/1999/xlink" x="0px" y="0px"
	 width="41.501px" height="41.502px" viewBox="0 0 41.501 41.502" enable-background="new 0 0 41.501 41.502" xml:space="preserve">
<linearGradient id="gradient" gradientUnits="userSpaceOnUse" x1="17.1387" y1="41.501" x2="17.1387" y2="0">
	<stop  offset="0" style="stop-color:#404040"/>
	<stop  offset="1" style="stop-color:#A0A0A0"/>
</linearGradient>
<path fill="#C0C0C0" d="M0,20.75C0.004,9.295,9.283,0.009,20.736,0.002l0,0c0.006,0,0.012-0.001,0.018-0.002l0,0
	c5.312,0,10.177,2.009,13.845,5.301l0,0l-1.002,1.116c-3.405-3.053-7.912-4.916-12.843-4.916l0,0h-0.002
	C10.119,1.501,1.5,10.119,1.5,20.75l0,0c0,10.631,8.618,19.251,19.251,19.251l0,0h0.002c4.851,0,9.283-1.801,12.665-4.76l0,0
	l0.988,1.129c-3.642,3.188-8.428,5.132-13.653,5.13l0,0l-0.002,0.002C9.291,41.5,0.004,32.211,0,20.75L0,20.75z"/>
<line fill="#C0C0C0" x1="25.869" y1="17.347" x2="25.869" y2="17.347"/>
<path fill="#C0C0C0" d="M23.361,33.32c-0.549-0.002-1.092-0.238-1.663-0.681l0,0c-1.309-1.028-3.925-3.171-7.557-4.815l0,0
	c-1.497-0.69-4.543-0.816-5.399-0.979l0,0c-0.783-0.09-1.861-0.861-1.804-2.184l0,0c0-0.771,0-1.08,0-2.343l0,0v-2.993
	c0-1.263,0-1.569,0-2.34l0,0c-0.058-1.325,1.021-2.094,1.804-2.187l0,0c0.854-0.16,3.902-0.288,5.399-0.979l0,0
	c3.632-1.643,6.249-3.786,7.557-4.813l0,0c0.568-0.446,1.116-0.683,1.663-0.685l0,0c0.593-0.006,1.073,0.313,1.329,0.648l0,0
	c0.261,0.348,0.383,0.67,0.395,1.049l0,0c0,2.774,0,6.553,0,8.971l0,0v3.663c0,2.419,0,6.197,0,8.971l0,0
	c-0.012,0.379-0.132,0.7-0.395,1.05l0,0c-0.252,0.33-0.725,0.646-1.307,0.646l0,0C23.376,33.32,23.368,33.32,23.361,33.32
	L23.361,33.32z M23.575,31.634c0,0,0.01-0.009,0.008-0.009l0,0c0-2.773,0-6.552,0-8.971l0,0v-3.663c0-2.418,0-6.197,0.002-8.971l0,0
	l-0.01-0.01c-0.012-0.033-0.037-0.076-0.062-0.107l0,0c-0.062-0.066-0.065-0.074-0.152-0.08l0,0
	c-0.082-0.002-0.329,0.045-0.738,0.366l0,0c-1.293,1.014-4.04,3.27-7.865,5l0,0c-1.941,0.866-5.177,0.946-5.706,1.08l0,0
	c-0.483,0.175-0.557,0.104-0.615,0.718l0,0c0,0.769,0,1.078,0,2.34l0,0v2.993c0,1.263,0,1.571,0,2.343l0,0
	c0.058,0.612,0.132,0.541,0.615,0.717l0,0c0.527,0.133,3.764,0.213,5.706,1.08l0,0c3.825,1.729,6.571,3.983,7.863,4.998l0,0
	c0.407,0.318,0.658,0.366,0.74,0.364l0,0C23.462,31.827,23.514,31.761,23.575,31.634L23.575,31.634z"/>
<path fill="#808080" d="M36.755,31.449c2.04-3.049,3.238-6.716,3.247-10.654l0,0C40.001,20.777,40,20.761,40,20.746l0,0
	c0,0,0.002-0.002,0-0.002l0,0c0-3.94-1.19-7.608-3.224-10.658l0,0l1.248-0.833c2.177,3.264,3.459,7.193,3.477,11.405l0,0v0.002
	v0.084v0.002v0.006v0.006c0,4.257-1.293,8.232-3.498,11.528l0,0L36.755,31.449L36.755,31.449z"/>
<path fill="#808080" d="M32.151,28.372c1.453-2.172,2.308-4.787,2.313-7.594l0,0c-0.001-0.011-0.001-0.021,0-0.031l0,0v-0.004
	c0-2.804-0.852-5.418-2.299-7.589l0,0l1.248-0.833c1.59,2.385,2.533,5.258,2.551,8.336l0,0v0.002v0.084v0.008v0.006
	c0,3.121-0.949,6.035-2.565,8.449l0,0L32.151,28.372L32.151,28.372z"/>
<path fill="#808080" d="M27.72,25.413c0.89-1.334,1.416-2.938,1.416-4.654l0,0v-0.006l0,0c0-0.002,0-0.004,0-0.006l0,0v-0.002
	c0-1.712-0.52-3.313-1.406-4.638l0,0l1.248-0.833c1.029,1.54,1.641,3.399,1.658,5.384l0,0v0.002v0.084v0.002v0.006v0.006
	c0,2.024-0.621,3.921-1.667,5.488l0,0L27.72,25.413L27.72,25.413z"/>
</svg>
