<?xml version="1.0" encoding="utf-8"?>
<!DOCTYPE svg PUBLIC "-//W3C//DTD SVG 1.1//EN" "http://www.w3.org/Graphics/SVG/1.1/DTD/svg11.dtd">
<svg version="1.1" id="Layer_1" xmlns="http://www.w3.org/2000/svg" xmlns:xlink="http://www.w3.org/1999/xlink" x="0px" y="0px"
	 width="70.689px" height="62.162px" viewBox="0 0 70.689 62.162" enable-background="new 0 0 70.689 62.162" xml:space="preserve">
<linearGradient id="gradient" gradientUnits="userSpaceOnUse" x1="17.1387" y1="62.162" x2="17.1387" y2="0">
	<stop  offset="0" style="stop-color:#404040"/>
	<stop  offset="1" style="stop-color:#A0A0A0"/>
</linearGradient>
<path fill="#808080" d="M49.516,39.871l-11.693-4.537l11.811-4.578l3.154-9.002l1.461-4.159l4.625,13.158l11.816,4.582
	l-11.701,4.537l-4.74,22.291L49.516,39.871L49.516,39.871z M52.086,33.13l-5.68,2.203l5.799,2.25l2.047,9.627l2.047-9.627
	l5.803-2.25l-5.688-2.203l-2.164-6.175L52.086,33.13L52.086,33.13z"/>
<path fill="#C0C0C0" d="M16.371,31.089L0,24.734l16.486-6.391l4.971-14.175L22.916,0l6.443,18.34l16.5,6.395l-16.387,6.349
	L22.916,61.9L16.371,31.089L16.371,31.089z M18.941,20.719L8.574,24.734l10.486,4.066l3.859,18.166l3.867-18.166l10.484-4.062
	l-10.369-4.021L22.92,9.365L18.941,20.719L18.941,20.719z"/>
</svg>
