<?xml version="1.0" encoding="utf-8"?>
<!DOCTYPE svg PUBLIC "-//W3C//DTD SVG 1.1//EN" "http://www.w3.org/Graphics/SVG/1.1/DTD/svg11.dtd">
<svg version="1.1" id="Layer_1" xmlns="http://www.w3.org/2000/svg" xmlns:xlink="http://www.w3.org/1999/xlink" x="0px" y="0px"
	 width="83.764px" height="63.6px" viewBox="0 0 83.764 63.6" enable-background="new 0 0 83.764 63.6" xml:space="preserve">
<linearGradient id="gradient" gradientUnits="userSpaceOnUse" x1="17.1387" y1="63.6" x2="17.1387" y2="0">
	<stop  offset="0" style="stop-color:#404040"/>
	<stop  offset="1" style="stop-color:#A0A0A0"/>
</linearGradient>
<path fill="#C0C0C0" d="M7.686,63.6C3.439,63.596,0,60.159,0,55.913l0,0v-9.48V7.687C0,3.44,3.439,0.004,7.686,0l0,0h68.393
	c4.246,0.004,7.682,3.444,7.686,7.687l0,0v48.226c-0.004,4.246-3.439,7.684-7.686,7.688l0,0H7.686L7.686,63.6z M3.598,7.687v38.746
	v9.48C3.602,58.168,5.43,59.997,7.686,60l0,0h68.393c2.256-0.004,4.08-1.832,4.084-4.088l0,0V7.687
	c-0.004-2.256-1.828-4.08-4.084-4.084l0,0H7.686C5.43,3.606,3.602,5.435,3.598,7.687L3.598,7.687z"/>
<polygon fill="#808080" points="12.082,55.508 12.082,43.206 15.682,43.206 15.682,55.508 12.082,55.508 "/>
<polygon fill="#808080" points="20.08,55.508 20.08,37.206 23.678,37.206 23.678,55.508 20.08,55.508 "/>
<polygon fill="#808080" points="28.082,55.506 28.082,37.208 31.682,37.208 31.682,55.506 28.082,55.506 "/>
<polygon fill="#808080" points="36.082,55.506 36.082,41.206 39.682,41.206 39.682,55.506 36.082,55.506 "/>
<polygon fill="#808080" points="44.08,55.506 44.08,39.206 47.682,39.206 47.682,55.506 44.08,55.506 "/>
<polygon fill="#808080" points="52.082,55.506 52.082,33.208 55.682,33.208 55.682,55.506 52.082,55.506 "/>
<polygon fill="#808080" points="60.08,55.508 60.08,29.206 63.682,29.206 63.682,55.508 60.08,55.508 "/>
<polygon fill="#808080" points="68.082,55.506 68.082,33.206 71.682,33.206 71.682,55.506 68.082,55.506 "/>
<path fill="#C0C0C0" d="M27.68,26.231l12.111,9.666L65.6,17.972l6.248,8.004l4.814-18.311l-18.924,0.24l2.234,2.861l3.412,4.369
	L39.941,31.415l-12.121-9.68L3.598,38.668v4.393L27.68,26.231z M71.98,11.323l-1.766,6.707l-5.17-6.617L71.98,11.323z"/>
</svg>
