<?xml version="1.0" encoding="utf-8"?>
<!DOCTYPE svg PUBLIC "-//W3C//DTD SVG 1.1//EN" "http://www.w3.org/Graphics/SVG/1.1/DTD/svg11.dtd">
<svg version="1.1" id="Layer_1" xmlns="http://www.w3.org/2000/svg" xmlns:xlink="http://www.w3.org/1999/xlink" x="0px" y="0px"
	 width="41.882px" height="31.8px" viewBox="0 0 41.882 31.8" enable-background="new 0 0 41.882 31.8" xml:space="preserve">
<linearGradient id="gradient" gradientUnits="userSpaceOnUse" x1="17.1387" y1="31.8" x2="17.1387" y2="0">
	<stop  offset="0" style="stop-color:#404040"/>
	<stop  offset="1" style="stop-color:#A0A0A0"/>
</linearGradient>
<path fill="#C0C0C0" d="M3.843,31.8C1.72,31.798,0,30.08,0,27.957l0,0v-4.74V3.843C0,1.72,1.72,0.002,3.843,0l0,0h34.196
	c2.123,0.002,3.841,1.722,3.843,3.843l0,0v24.113c-0.002,2.123-1.72,3.842-3.843,3.844l0,0H3.843L3.843,31.8z M1.799,3.843v19.373
	v4.74C1.801,29.084,2.715,29.999,3.843,30l0,0h34.196c1.128-0.002,2.04-0.916,2.042-2.044l0,0V3.843
	c-0.002-1.128-0.914-2.04-2.042-2.042l0,0H3.843C2.715,1.803,1.801,2.717,1.799,3.843L1.799,3.843z"/>
<polygon fill="#808080" points="6.041,27.754 6.041,21.603 7.841,21.603 7.841,27.754 6.041,27.754 "/>
<polygon fill="#808080" points="10.04,27.754 10.04,18.603 11.839,18.603 11.839,27.754 10.04,27.754 "/>
<polygon fill="#808080" points="14.041,27.753 14.041,18.604 15.841,18.604 15.841,27.753 14.041,27.753 "/>
<polygon fill="#808080" points="18.041,27.753 18.041,20.603 19.841,20.603 19.841,27.753 18.041,27.753 "/>
<polygon fill="#808080" points="22.04,27.753 22.04,19.603 23.841,19.603 23.841,27.753 22.04,27.753 "/>
<polygon fill="#808080" points="26.041,27.753 26.041,16.604 27.841,16.604 27.841,27.753 26.041,27.753 "/>
<polygon fill="#808080" points="30.04,27.754 30.04,14.603 31.841,14.603 31.841,27.754 30.04,27.754 "/>
<polygon fill="#808080" points="34.041,27.753 34.041,16.603 35.841,16.603 35.841,27.753 34.041,27.753 "/>
<path fill="#C0C0C0" d="M13.84,13.116l6.056,4.833L32.8,8.986l3.124,4.002l2.407-9.155l-9.462,0.12l1.117,1.431l1.706,2.185
	l-11.722,8.14l-6.061-4.84L1.799,19.334v2.196L13.84,13.116z M35.99,5.662l-0.883,3.354l-2.585-3.309L35.99,5.662z"/>
</svg>
