<?xml version="1.0" encoding="utf-8"?>
<!DOCTYPE svg PUBLIC "-//W3C//DTD SVG 1.1//EN" "http://www.w3.org/Graphics/SVG/1.1/DTD/svg11.dtd">
<svg version="1.1" id="Layer_1" xmlns="http://www.w3.org/2000/svg" xmlns:xlink="http://www.w3.org/1999/xlink" x="0px" y="0px"
	 width="114.736px" height="83.001px" viewBox="0 0 114.736 83.001" enable-background="new 0 0 114.736 83.001"
	 xml:space="preserve">
<linearGradient id="gradient" gradientUnits="userSpaceOnUse" x1="17.1387" y1="83.001" x2="17.1387" y2="0">
	<stop  offset="0" style="stop-color:#404040"/>
	<stop  offset="1" style="stop-color:#A0A0A0"/>
</linearGradient>
<path fill="#C0C0C0" d="M79.801,41.501c-0.004-1.891-1.23-3.525-3.066-4.595l-25.669-19.44l-0.078-0.041
	c-1.095-0.633-2.214-0.987-3.312-0.987c-1.346-0.016-2.657,0.589-3.484,1.642c-0.835,1.049-1.222,2.427-1.222,3.974v8.856H7.964
	c-4.397,0-7.96,3.566-7.964,7.964v5.253c0.004,4.396,3.566,7.963,7.964,7.963H42.97v8.861c0,1.545,0.383,2.92,1.222,3.969
	c0.812,1.035,2.101,1.637,3.427,1.637h0.053c1.103,0,2.218-0.35,3.312-0.979l0.091-0.053L76.758,46.08
	C78.586,45.007,79.797,43.376,79.801,41.501z M75.17,43.529l-0.092,0.055L49.403,63.025c-0.708,0.396-1.304,0.537-1.732,0.533
	c-0.954-0.063-1.579-0.457-1.702-2.607V49.091H7.964c-2.739-0.004-4.957-2.223-4.965-4.965v-5.253
	c0.008-2.74,2.226-4.957,4.965-4.965h38.009V22.053c0.123-2.159,0.744-2.55,1.703-2.612c0.424-0.004,1.019,0.138,1.728,0.533
	l25.688,19.45l0.082,0.046c1.295,0.765,1.633,1.525,1.629,2.032C76.807,42.007,76.469,42.765,75.17,43.529z"/>
<path fill="#808080" d="M73.243,0v3.001c21.212,0.004,38.489,17.28,38.489,38.495c0,21.217-17.281,38.496-38.489,38.506l0.004,3
	c22.87-0.016,41.478-18.625,41.489-41.506C114.725,18.616,96.117,0.009,73.243,0z"/>
<path fill="#808080" d="M105.043,41.5C105.029,23.929,90.805,9.703,73.237,9.695v2.999c15.911,0.008,28.794,12.895,28.806,28.805
	c-0.012,15.906-12.895,28.795-28.806,28.807v2.998C90.805,73.292,105.029,59.068,105.043,41.5z"/>
<path fill="#808080" d="M73.241,60.607v3c12.208-0.004,22.101-9.898,22.104-22.105c-0.004-12.212-9.896-22.106-22.104-22.111v3.002
	c10.548,0.021,19.083,8.556,19.099,19.109C92.324,52.05,83.789,60.585,73.241,60.607z"/>
</svg>
