<?xml version="1.0" encoding="utf-8"?>
<!DOCTYPE svg PUBLIC "-//W3C//DTD SVG 1.1//EN" "http://www.w3.org/Graphics/SVG/1.1/DTD/svg11.dtd">
<svg version="1.1" id="Layer_1" xmlns="http://www.w3.org/2000/svg" xmlns:xlink="http://www.w3.org/1999/xlink" x="0px" y="0px"
	 width="57.368px" height="41.501px" viewBox="0 0 57.368 41.501" enable-background="new 0 0 57.368 41.501" xml:space="preserve">
<linearGradient id="gradient" gradientUnits="userSpaceOnUse" x1="17.1387" y1="41.501" x2="17.1387" y2="0">
	<stop  offset="0" style="stop-color:#404040"/>
	<stop  offset="1" style="stop-color:#A0A0A0"/>
</linearGradient>
<path fill="#C0C0C0" d="M39.9,20.75c-0.002-0.945-0.615-1.762-1.533-2.297l-12.834-9.72l-0.039-0.021
	c-0.547-0.316-1.107-0.494-1.656-0.494c-0.673-0.008-1.329,0.294-1.742,0.821c-0.417,0.524-0.611,1.213-0.611,1.987v4.428H3.982
	c-2.199,0-3.98,1.783-3.982,3.982v2.626c0.002,2.199,1.783,3.982,3.982,3.982h17.503v4.43c0,0.773,0.191,1.461,0.611,1.984
	c0.406,0.518,1.05,0.819,1.713,0.819h0.026c0.551,0,1.109-0.175,1.656-0.489l0.045-0.027l12.842-9.723
	C39.293,22.504,39.898,21.688,39.9,20.75z M37.585,21.765l-0.046,0.026l-12.837,9.721c-0.354,0.199-0.652,0.27-0.866,0.268
	c-0.477-0.031-0.79-0.229-0.851-1.305v-5.93H3.982c-1.37-0.002-2.479-1.11-2.482-2.482v-2.626c0.004-1.37,1.113-2.479,2.482-2.482
	h19.004v-5.928c0.062-1.08,0.372-1.275,0.852-1.306c0.212-0.002,0.509,0.069,0.864,0.267l12.844,9.725l0.041,0.023
	c0.647,0.382,0.816,0.763,0.814,1.016C38.403,21.004,38.234,21.383,37.585,21.765z"/>
<path fill="#808080" d="M36.622,0v1.5c10.605,0.002,19.244,8.64,19.244,19.247c0,10.608-8.641,19.249-19.244,19.252l0.002,1.501
	c11.435-0.009,20.738-9.313,20.744-20.753C57.362,9.308,48.059,0.004,36.622,0z"/>
<path fill="#808080" d="M52.521,20.75c-0.007-8.786-7.119-15.898-15.903-15.902v1.5c7.956,0.004,14.397,6.447,14.403,14.403
	c-0.006,7.953-6.447,14.396-14.403,14.402v1.5C45.402,36.646,52.515,29.533,52.521,20.75z"/>
<path fill="#808080" d="M36.62,30.303v1.501c6.104-0.002,11.051-4.949,11.053-11.053C47.671,14.645,42.725,9.698,36.62,9.695v1.501
	c5.274,0.01,9.542,4.278,9.55,9.554C46.162,26.025,41.895,30.293,36.62,30.303z"/>
</svg>
