<?xml version="1.0" encoding="utf-8"?>
<!DOCTYPE svg PUBLIC "-//W3C//DTD SVG 1.1//EN" "http://www.w3.org/Graphics/SVG/1.1/DTD/svg11.dtd">
<svg version="1.1" id="Layer_1" xmlns="http://www.w3.org/2000/svg" xmlns:xlink="http://www.w3.org/1999/xlink" x="0px" y="0px"
	 width="62.002px" height="63.595px" viewBox="0 0 62.002 63.595" enable-background="new 0 0 62.002 63.595" xml:space="preserve">
<linearGradient id="gradient" gradientUnits="userSpaceOnUse" x1="17.1387" y1="63.595" x2="17.1387" y2="0">
	<stop  offset="0" style="stop-color:#404040"/>
	<stop  offset="1" style="stop-color:#A0A0A0"/>
</linearGradient>
<path fill="#C0C0C0" d="M49.939,0c-6.666,0-12.066,5.4-12.066,12.066c0,3.09,1.172,5.898,3.08,8.031L22.076,38.974v-4.555h-3.6
	v17.807h3.6v-8.158L43.74,22.404c1.814,1.088,3.93,1.727,6.199,1.729c6.664-0.004,12.063-5.404,12.063-12.066
	C62.002,5.4,56.604,0,49.939,0z M49.939,20.533c-4.678-0.008-8.459-3.793-8.467-8.467c0.008-4.678,3.789-8.459,8.467-8.467
	c4.674,0.008,8.455,3.789,8.463,8.467C58.395,16.74,54.613,20.525,49.939,20.533z"/>
<path fill="#808080" d="M36.621,29.523c0.209,0.523,0.334,1.092,0.334,1.691v24.215c-0.004,2.521-2.047,4.564-4.572,4.568H8.172
	c-2.527-0.004-4.57-2.047-4.574-4.568V31.214c0.004-2.523,2.047-4.566,4.574-4.57h24.211c0.6,0.002,1.166,0.123,1.689,0.334
	l2.66-2.66c-1.262-0.797-2.746-1.275-4.35-1.275H8.172C3.656,23.043,0,26.699,0,31.214v24.215c0,4.512,3.656,8.166,8.172,8.166
	h24.211c4.512,0,8.174-3.654,8.174-8.166V31.214c0-1.603-0.479-3.087-1.277-4.349L36.621,29.523z"/>
</svg>
