<?xml version="1.0" encoding="utf-8"?>
<!DOCTYPE svg PUBLIC "-//W3C//DTD SVG 1.1//EN" "http://www.w3.org/Graphics/SVG/1.1/DTD/svg11.dtd">
<svg version="1.1" id="Layer_1" xmlns="http://www.w3.org/2000/svg" xmlns:xlink="http://www.w3.org/1999/xlink" x="0px" y="0px"
	 width="31.001px" height="31.798px" viewBox="0 0 31.001 31.798" enable-background="new 0 0 31.001 31.798" xml:space="preserve">
<linearGradient id="gradient" gradientUnits="userSpaceOnUse" x1="17.1387" y1="31.798" x2="17.1387" y2="0">
	<stop  offset="0" style="stop-color:#404040"/>
	<stop  offset="1" style="stop-color:#A0A0A0"/>
</linearGradient>
<path fill="#C0C0C0" d="M24.97,0c-3.333,0-6.033,2.7-6.033,6.033c0,1.545,0.586,2.949,1.54,4.016l-9.438,9.438V17.21h-1.8v8.903h1.8
	v-4.079L21.87,11.202c0.907,0.544,1.965,0.863,3.1,0.864c3.332-0.002,6.031-2.702,6.031-6.033C31.001,2.7,28.302,0,24.97,0z
	 M24.97,10.267c-2.339-0.004-4.229-1.896-4.233-4.233C20.74,3.694,22.631,1.804,24.97,1.8c2.337,0.004,4.228,1.895,4.231,4.233
	C29.197,8.37,27.307,10.263,24.97,10.267z"/>
<path fill="#808080" d="M18.311,14.762c0.104,0.262,0.167,0.546,0.167,0.846v12.107c-0.002,1.261-1.023,2.282-2.286,2.284H4.086
	c-1.264-0.002-2.285-1.023-2.287-2.284V15.607c0.002-1.262,1.023-2.283,2.287-2.285h12.105c0.3,0.001,0.583,0.062,0.845,0.167
	l1.33-1.33c-0.631-0.398-1.373-0.638-2.175-0.638H4.086C1.828,11.521,0,13.35,0,15.607v12.107c0,2.256,1.828,4.083,4.086,4.083
	h12.105c2.256,0,4.087-1.827,4.087-4.083V15.607c0-0.802-0.239-1.544-0.639-2.175L18.311,14.762z"/>
</svg>
