<?xml version="1.0" encoding="utf-8"?>
<!DOCTYPE svg PUBLIC "-//W3C//DTD SVG 1.1//EN" "http://www.w3.org/Graphics/SVG/1.1/DTD/svg11.dtd">
<svg version="1.1" id="Layer_1" xmlns="http://www.w3.org/2000/svg" xmlns:xlink="http://www.w3.org/1999/xlink" x="0px" y="0px"
	 width="28.386px" height="31.801px" viewBox="0 0 28.386 31.801" enable-background="new 0 0 28.386 31.801" xml:space="preserve">
<linearGradient id="gradient" gradientUnits="userSpaceOnUse" x1="17.1387" y1="31.801" x2="17.1387" y2="0">
	<stop  offset="0" style="stop-color:#404040"/>
	<stop  offset="1" style="stop-color:#A0A0A0"/>
</linearGradient>
<path fill="#808080" d="M25.555,9.059c-1.516-2.483-3.992-4.312-6.909-4.95l0,0l-1.204-0.265l0.619-1.064
	C19.012,1.132,20.789,0,22.842,0l0,0c3.063,0.002,5.544,2.481,5.544,5.544l0,0c0,1.403-0.54,2.672-1.384,3.638l0,0l-0.808,0.924
	L25.555,9.059L25.555,9.059z M26.296,6.965c0.187-0.438,0.29-0.916,0.29-1.42l0,0c-0.004-2.066-1.676-3.741-3.744-3.743l0,0
	c-0.941,0-1.793,0.35-2.447,0.93l0,0C22.757,3.54,24.799,5.03,26.296,6.965L26.296,6.965z"/>
<path fill="#C0C0C0" d="M2.081,16.867c0-6.704,5.433-12.137,12.137-12.137l0,0c6.701,0.002,12.135,5.433,12.137,12.137l0,0
	c-0.002,6.701-5.436,12.134-12.137,12.136l0,0C7.514,29.001,2.083,23.568,2.081,16.867L2.081,16.867z M3.882,16.867
	c0.008,5.706,4.626,10.324,10.335,10.335l0,0c5.707-0.011,10.325-4.629,10.336-10.335l0,0c-0.011-5.709-4.629-10.326-10.336-10.336
	l0,0C8.508,6.542,3.89,11.158,3.882,16.867L3.882,16.867z"/>
<polygon fill="#808080" points="5.1,31.801 5.1,30.001 23.336,30.001 23.336,31.801 5.1,31.801 "/>
<path fill="#C0C0C0" d="M20.114,16.406h-3.846c-0.234-0.551-0.676-0.992-1.227-1.226V9.277h-1.801v5.903
	c-0.827,0.352-1.408,1.17-1.409,2.126c0,1.276,1.034,2.311,2.309,2.311c0.956,0,1.776-0.581,2.127-1.41h3.846V16.406z"/>
<path fill="#808080" d="M10.326,2.778C9.375,1.133,7.598,0.001,5.544,0.001C2.481,0.001,0.002,2.482,0,5.543
	c0,1.403,0.542,2.675,1.386,3.638l0.808,0.924l0.639-1.048c1.514-2.481,3.991-4.31,6.908-4.948l1.204-0.265L10.326,2.778z
	 M2.091,6.966c-0.186-0.439-0.29-0.917-0.29-1.423c0.002-2.066,1.676-3.738,3.743-3.742c0.941,0,1.794,0.351,2.449,0.931
	C5.629,3.539,3.587,5.03,2.091,6.966z"/>
</svg>
