<?xml version="1.0" encoding="utf-8"?>
<!DOCTYPE svg PUBLIC "-//W3C//DTD SVG 1.1//EN" "http://www.w3.org/Graphics/SVG/1.1/DTD/svg11.dtd">
<svg version="1.1" id="Layer_1" xmlns="http://www.w3.org/2000/svg" xmlns:xlink="http://www.w3.org/1999/xlink" x="0px" y="0px"
	 width="31.8px" height="31.799px" viewBox="0 0 31.8 31.799" enable-background="new 0 0 31.8 31.799" xml:space="preserve">
<linearGradient id="gradient" gradientUnits="userSpaceOnUse" x1="17.1387" y1="31.799" x2="17.1387" y2="0">
	<stop  offset="0" style="stop-color:#404040"/>
	<stop  offset="1" style="stop-color:#A0A0A0"/>
</linearGradient>
<path fill="#808080" d="M4.47,31.799c-2.47-0.002-4.468-2-4.47-4.468l0,0V4.468C0.002,2,2,0,4.47,0l0,0h22.861
	C29.8,0,31.8,2,31.8,4.468l0,0v22.864c0,2.468-2,4.466-4.469,4.468l0,0H4.47L4.47,31.799z M1.801,4.468v22.864
	c0.002,1.472,1.196,2.665,2.669,2.667l0,0h22.861c1.475-0.002,2.668-1.195,2.67-2.667l0,0V4.468C30,2.994,28.806,1.803,27.332,1.799
	l0,0H4.47C2.997,1.803,1.803,2.994,1.801,4.468L1.801,4.468z"/>
<path fill="#C0C0C0" d="M25.373,14.999h-5.428c-0.348-1.566-1.577-2.795-3.144-3.143V3.693H15v8.163
	c-1.856,0.412-3.247,2.062-3.247,4.043c0,2.292,1.856,4.147,4.147,4.149c1.981-0.002,3.631-1.392,4.043-3.248h5.429V14.999z
	 M15.901,18.248c-1.296-0.004-2.345-1.052-2.347-2.348c0.002-1.297,1.05-2.345,2.347-2.347c1.297,0.002,2.345,1.05,2.347,2.347
	C18.246,17.196,17.198,18.244,15.901,18.248z"/>
</svg>
