<?xml version="1.0" encoding="utf-8"?>
<!DOCTYPE svg PUBLIC "-//W3C//DTD SVG 1.1//EN" "http://www.w3.org/Graphics/SVG/1.1/DTD/svg11.dtd">
<svg version="1.1" id="Layer_1" xmlns="http://www.w3.org/2000/svg" xmlns:xlink="http://www.w3.org/1999/xlink" x="0px" y="0px"
	 width="63.6px" height="63.598px" viewBox="0 0 63.6 63.598" enable-background="new 0 0 63.6 63.598" xml:space="preserve">
<linearGradient id="gradient" gradientUnits="userSpaceOnUse" x1="17.1387" y1="63.598" x2="17.1387" y2="0">
	<stop  offset="0" style="stop-color:#404040"/>
	<stop  offset="1" style="stop-color:#A0A0A0"/>
</linearGradient>
<path fill="#808080" d="M11.461,63.598C5.132,63.594,0.004,58.467,0,52.137l0,0V11.462C0.004,5.132,5.132,0,11.461,0l0,0h40.678
	C58.468,0,63.6,5.132,63.6,11.462l0,0v40.675c0,6.33-5.132,11.457-11.461,11.461l0,0H11.461L11.461,63.598z M3.601,11.462v40.675
	c0.009,4.338,3.519,7.852,7.86,7.861l0,0h40.678c4.342-0.01,7.855-3.523,7.86-7.861l0,0V11.462c-0.005-4.342-3.519-7.856-7.86-7.86
	l0,0H11.461C7.119,3.605,3.609,7.12,3.601,11.462L3.601,11.462z"/>
<path fill="#C0C0C0" d="M46.579,41.817c0,2.629-2.131,4.762-4.76,4.762H21.784c-2.629,0-4.76-2.133-4.76-4.762V21.782
	c0-2.629,2.131-4.762,4.76-4.762h20.035c2.629,0,4.76,2.133,4.76,4.762V41.817z"/>
</svg>
