<?xml version="1.0" encoding="utf-8"?>
<!DOCTYPE svg PUBLIC "-//W3C//DTD SVG 1.1//EN" "http://www.w3.org/Graphics/SVG/1.1/DTD/svg11.dtd">
<svg version="1.1" id="Layer_1" xmlns="http://www.w3.org/2000/svg" xmlns:xlink="http://www.w3.org/1999/xlink" x="0px" y="0px"
	 width="63.6px" height="63.598px" viewBox="0 0 63.6 63.598" enable-background="new 0 0 63.6 63.598" xml:space="preserve">
<linearGradient id="gradient" gradientUnits="userSpaceOnUse" x1="17.1387" y1="63.598" x2="17.1387" y2="0">
	<stop  offset="0" style="stop-color:#404040"/>
	<stop  offset="1" style="stop-color:#A0A0A0"/>
</linearGradient>
<path fill="#808080" d="M8.94,63.598c-4.939-0.004-8.937-4-8.94-8.936l0,0V8.936C0.004,4.001,4.001,0,8.94,0l0,0h45.724
	C59.6,0,63.6,4.001,63.6,8.936l0,0v45.727c0,4.936-4,8.932-8.936,8.936l0,0H8.94L8.94,63.598z M3.602,8.936v45.727
	c0.004,2.943,2.392,5.33,5.339,5.334l0,0h45.724c2.947-0.004,5.335-2.391,5.339-5.334l0,0V8.936
	c-0.004-2.947-2.392-5.33-5.339-5.338l0,0H8.94C5.993,3.605,3.605,5.988,3.602,8.936L3.602,8.936z"/>
<path fill="#C0C0C0" d="M50.744,29.998H39.889c-0.695-3.133-3.153-5.591-6.286-6.286V7.387h-3.602v16.325
	c-3.713,0.824-6.493,4.124-6.493,8.087c0,4.582,3.712,8.293,8.294,8.297c3.963-0.004,7.262-2.783,8.086-6.496h10.856V29.998z
	 M31.802,36.497c-2.593-0.008-4.689-2.105-4.693-4.697c0.004-2.594,2.101-4.691,4.693-4.695c2.594,0.004,4.69,2.101,4.694,4.695
	C36.492,34.391,34.396,36.489,31.802,36.497z"/>
</svg>
