<?xml version="1.0" encoding="utf-8"?>
<!DOCTYPE svg PUBLIC "-//W3C//DTD SVG 1.1//EN" "http://www.w3.org/Graphics/SVG/1.1/DTD/svg11.dtd">
<svg version="1.1" id="Layer_1" xmlns="http://www.w3.org/2000/svg" xmlns:xlink="http://www.w3.org/1999/xlink" x="0px" y="0px"
	 width="56.772px" height="63.601px" viewBox="0 0 56.772 63.601" enable-background="new 0 0 56.772 63.601" xml:space="preserve">
<linearGradient id="gradient" gradientUnits="userSpaceOnUse" x1="17.1387" y1="63.601" x2="17.1387" y2="0">
	<stop  offset="0" style="stop-color:#404040"/>
	<stop  offset="1" style="stop-color:#A0A0A0"/>
</linearGradient>
<path fill="#808080" d="M51.111,18.117c-3.031-4.967-7.985-8.623-13.819-9.9l0,0l-2.407-0.53l1.236-2.128
	C38.023,2.264,41.577,0,45.685,0l0,0c6.126,0.005,11.088,4.963,11.088,11.089l0,0c0,2.806-1.08,5.345-2.769,7.275l0,0l-1.614,1.849
	L51.111,18.117L51.111,18.117z M52.593,13.93c0.373-0.877,0.579-1.832,0.581-2.841l0,0c-0.008-4.133-3.352-7.481-7.489-7.485l0,0
	c-1.882,0-3.586,0.7-4.896,1.859l0,0C45.515,7.079,49.6,10.06,52.593,13.93L52.593,13.93z"/>
<path fill="#C0C0C0" d="M4.161,33.734c0-13.408,10.866-24.274,24.273-24.274l0,0c13.403,0.004,24.27,10.866,24.274,24.274l0,0
	c-0.005,13.402-10.871,24.268-24.274,24.271l0,0C15.027,58.001,4.165,47.136,4.161,33.734L4.161,33.734z M7.765,33.734
	c0.016,11.412,9.252,20.648,20.67,20.67l0,0c11.415-0.021,20.65-9.258,20.671-20.67l0,0c-0.021-11.418-9.256-20.651-20.671-20.671
	l0,0C17.017,13.083,7.78,22.315,7.765,33.734L7.765,33.734z"/>
<polygon fill="#808080" points="10.199,63.601 10.199,60.001 46.674,60.001 46.674,63.601 10.199,63.601 "/>
<path fill="#C0C0C0" d="M40.229,32.812h-7.693c-0.467-1.102-1.351-1.984-2.453-2.452V18.554h-3.601V30.36
	c-1.654,0.703-2.815,2.34-2.818,4.252c0,2.553,2.068,4.621,4.618,4.621c1.911,0,3.553-1.162,4.255-2.82h7.692V32.812z"/>
<path fill="#808080" d="M20.651,5.557c-1.901-3.29-5.455-5.554-9.563-5.554C4.963,0.003,0.004,4.965,0,11.086
	c0,2.807,1.084,5.35,2.772,7.276l1.615,1.849l1.277-2.096c3.027-4.963,7.982-8.619,13.815-9.896l2.408-0.53L20.651,5.557z
	 M4.182,13.933c-0.372-0.878-0.579-1.835-0.579-2.847c0.004-4.133,3.353-7.477,7.485-7.484c1.883,0,3.588,0.701,4.898,1.861
	C11.259,7.078,7.174,10.061,4.182,13.933z"/>
</svg>
