<?xml version="1.0" encoding="utf-8"?>
<!DOCTYPE svg PUBLIC "-//W3C//DTD SVG 1.1//EN" "http://www.w3.org/Graphics/SVG/1.1/DTD/svg11.dtd">
<svg version="1.1" id="Layer_1" xmlns="http://www.w3.org/2000/svg" xmlns:xlink="http://www.w3.org/1999/xlink" x="0px" y="0px"
	 width="31.802px" height="31.8px" viewBox="0 0 31.802 31.8" enable-background="new 0 0 31.802 31.8" xml:space="preserve">
<linearGradient id="gradient" gradientUnits="userSpaceOnUse" x1="17.1387" y1="31.8" x2="17.1387" y2="0">
	<stop  offset="0" style="stop-color:#404040"/>
	<stop  offset="1" style="stop-color:#A0A0A0"/>
</linearGradient>
<path fill="#C0C0C0" d="M11.466,16.293v7.399c-0.204-0.056-0.416-0.095-0.638-0.095c-1.346,0-2.435,1.089-2.437,2.437
	c0.002,1.346,1.091,2.435,2.437,2.435s2.437-1.089,2.437-2.435v-0.001h0.001v-8.238l5.385-0.979v5.572
	c-0.204-0.056-0.414-0.096-0.636-0.096c-1.347,0.002-2.438,1.089-2.438,2.435c0,1.347,1.092,2.438,2.438,2.438
	c1.346-0.003,2.433-1.094,2.435-2.438h0.001V14.658L11.466,16.293z"/>
<path fill="#808080" d="M0,0v31.8h31.802V0H0z M30,1.8v9.304H1.8V1.8H30z M1.8,30V12.902H30V30H1.8z"/>
<path fill="#C0C0C0" d="M7.46,3.145H5.651L3.786,9.241h1.429l0.437-1.564h1.744l0.471,1.564H9.35L7.46,3.145z M5.849,6.646
	l0.362-1.294c0.1-0.353,0.19-0.814,0.281-1.176H6.51C6.599,4.537,6.709,4.99,6.817,5.352l0.379,1.294H5.849z"/>
<path fill="#C0C0C0" d="M26.909,3.751C26.321,3.307,25.571,3.1,24.413,3.1c-0.697,0-1.357,0.045-1.863,0.125v5.99
	c0.344,0.044,0.851,0.091,1.564,0.091c1.193,0,2.172-0.253,2.813-0.787c0.59-0.498,1.014-1.304,1.014-2.471
	C27.94,4.971,27.543,4.221,26.909,3.751z M24.413,8.229c-0.173,0-0.362,0-0.479-0.026V4.211c0.116-0.026,0.315-0.054,0.623-0.054
	c1.186,0,1.928,0.67,1.918,1.937C26.476,7.55,25.661,8.237,24.413,8.229z"/>
<path fill="#C0C0C0" d="M19.702,3.045c0.716,0,1.258,0.145,1.503,0.271l-0.28,1.095c-0.281-0.118-0.67-0.227-1.158-0.227
	c-1.095,0-1.944,0.661-1.944,2.017c0,1.223,0.722,1.991,1.953,1.991c0.416,0,0.878-0.091,1.149-0.199l0.208,1.076
	c-0.253,0.127-0.824,0.271-1.565,0.271c-2.108,0-3.192-1.32-3.192-3.058C16.375,4.202,17.857,3.045,19.702,3.045z"/>
<path fill="#C0C0C0" d="M13.987,5.958V5.94c0.689-0.254,1.006-0.76,1.006-1.304c0-0.552-0.309-0.968-0.733-1.194
	C13.816,3.18,13.301,3.1,12.46,3.1c-0.688,0-1.42,0.054-1.781,0.125v5.99c0.308,0.044,0.813,0.091,1.492,0.091
	c1.213,0,1.953-0.199,2.396-0.552c0.38-0.309,0.634-0.743,0.634-1.295C15.2,6.672,14.685,6.147,13.987,5.958z M12.042,4.14
	c0.119-0.019,0.291-0.037,0.588-0.037c0.627,0,0.979,0.246,0.979,0.706c0,0.453-0.39,0.751-1.113,0.751h-0.453V4.14z M12.577,8.282
	c-0.236,0-0.398,0-0.535-0.019V6.546h0.473c0.687,0,1.238,0.244,1.238,0.859C13.753,8.038,13.201,8.282,12.577,8.282z"/>
</svg>
