<?xml version="1.0" encoding="utf-8"?>
<!DOCTYPE svg PUBLIC "-//W3C//DTD SVG 1.1//EN" "http://www.w3.org/Graphics/SVG/1.1/DTD/svg11.dtd">
<svg version="1.1" id="Layer_1" xmlns="http://www.w3.org/2000/svg" xmlns:xlink="http://www.w3.org/1999/xlink" x="0px" y="0px"
	 width="63.604px" height="63.599px" viewBox="0 0 63.604 63.599" enable-background="new 0 0 63.604 63.599" xml:space="preserve">
<linearGradient id="gradient" gradientUnits="userSpaceOnUse" x1="17.1387" y1="63.599" x2="17.1387" y2="0">
	<stop  offset="0" style="stop-color:#404040"/>
	<stop  offset="1" style="stop-color:#A0A0A0"/>
</linearGradient>
<path fill="#C0C0C0" d="M22.932,32.585v14.799c-0.408-0.111-0.832-0.189-1.275-0.189c-2.691,0-4.869,2.178-4.873,4.873
	c0.004,2.691,2.182,4.869,4.873,4.869s4.873-2.178,4.873-4.869v-0.002h0.002V35.589l10.77-1.959v11.145
	c-0.408-0.111-0.828-0.191-1.271-0.191c-2.693,0.004-4.877,2.178-4.877,4.869c0,2.693,2.184,4.877,4.877,4.877
	c2.691-0.006,4.865-2.188,4.869-4.877H40.9V29.316L22.932,32.585z"/>
<path fill="#808080" d="M0,0v63.599h63.604V0H0z M60,3.6v18.607H3.6V3.6H60z M3.6,60V25.805H60V60H3.6z"/>
<path fill="#C0C0C0" d="M14.92,6.289h-3.617l-3.73,12.193h2.857l0.873-3.129h3.488l0.941,3.129h2.967L14.92,6.289z M11.697,13.291
	l0.725-2.588c0.199-0.705,0.381-1.629,0.563-2.352h0.035c0.178,0.723,0.398,1.629,0.615,2.352l0.758,2.588H11.697z"/>
<path fill="#C0C0C0" d="M53.818,7.502c-1.176-0.889-2.676-1.303-4.992-1.303c-1.395,0-2.715,0.09-3.727,0.25v11.98
	c0.688,0.088,1.701,0.182,3.129,0.182c2.387,0,4.344-0.506,5.625-1.574c1.18-0.996,2.027-2.607,2.027-4.941
	C55.881,9.941,55.086,8.441,53.818,7.502z M48.826,16.457c-0.346,0-0.725,0-0.957-0.053V8.422c0.232-0.053,0.631-0.107,1.246-0.107
	c2.371,0,3.855,1.34,3.836,3.873C52.951,15.1,51.322,16.475,48.826,16.457z"/>
<path fill="#C0C0C0" d="M39.404,6.09c1.432,0,2.516,0.289,3.006,0.543L41.85,8.822c-0.563-0.236-1.34-0.453-2.316-0.453
	c-2.189,0-3.889,1.322-3.889,4.033c0,2.445,1.443,3.982,3.906,3.982c0.832,0,1.756-0.182,2.299-0.398l0.416,2.152
	c-0.506,0.254-1.648,0.543-3.131,0.543c-4.217,0-6.385-2.641-6.385-6.115C32.75,8.404,35.715,6.09,39.404,6.09z"/>
<path fill="#C0C0C0" d="M27.975,11.916v-0.035c1.379-0.508,2.012-1.52,2.012-2.607c0-1.104-0.617-1.936-1.467-2.389
	c-0.887-0.525-1.918-0.686-3.6-0.686c-1.375,0-2.84,0.107-3.563,0.25v11.98c0.615,0.088,1.625,0.182,2.984,0.182
	c2.426,0,3.906-0.398,4.791-1.104c0.76-0.617,1.268-1.486,1.268-2.59C30.4,13.344,29.369,12.295,27.975,11.916z M24.084,8.279
	c0.238-0.037,0.582-0.074,1.176-0.074c1.254,0,1.957,0.492,1.957,1.412c0,0.906-0.779,1.502-2.227,1.502h-0.906V8.279z
	 M25.154,16.564c-0.473,0-0.797,0-1.07-0.037v-3.436h0.945c1.373,0,2.477,0.488,2.477,1.719
	C27.506,16.076,26.402,16.564,25.154,16.564z"/>
</svg>
