<?xml version="1.0" encoding="utf-8"?>
<!DOCTYPE svg PUBLIC "-//W3C//DTD SVG 1.1//EN" "http://www.w3.org/Graphics/SVG/1.1/DTD/svg11.dtd">
<svg version="1.1" id="Layer_1" xmlns="http://www.w3.org/2000/svg" xmlns:xlink="http://www.w3.org/1999/xlink" x="0px" y="0px"
	 width="63.072px" height="83.666px" viewBox="0 0 63.072 83.666" enable-background="new 0 0 63.072 83.666" xml:space="preserve">
<linearGradient id="gradient" gradientUnits="userSpaceOnUse" x1="17.1387" y1="83.666" x2="17.1387" y2="0">
	<stop  offset="0" style="stop-color:#404040"/>
	<stop  offset="1" style="stop-color:#A0A0A0"/>
</linearGradient>
<path fill="#808080" d="M44.952,49.742L44.952,49.742c0.001-0.007,0-0.014,0-0.02V24.804l-21.498,3.911v19.524
	c-0.738-0.373-1.57-0.588-2.455-0.588c-3.013,0-5.455,2.44-5.455,5.454c0,3.016,2.442,5.457,5.455,5.457
	c3.014,0,5.45-2.441,5.455-5.455h0V31.216l15.498-2.818V44.88c-0.738-0.374-1.571-0.589-2.455-0.591
	c-3.014,0-5.455,2.439-5.455,5.453c0,3.015,2.441,5.456,5.455,5.458C42.511,55.194,44.946,52.758,44.952,49.742L44.952,49.742
	L44.952,49.742z M21,55.563c-1.355-0.002-2.453-1.098-2.455-2.457c0.002-1.355,1.099-2.452,2.455-2.454
	c1.357,0.002,2.452,1.097,2.455,2.454C23.454,54.465,22.357,55.561,21,55.563z M39.497,52.199c-1.357-0.002-2.453-1.098-2.457-2.457
	c0.004-1.355,1.098-2.451,2.457-2.453c1.356,0,2.449,1.092,2.455,2.443v0.01l0,0C41.952,51.103,40.854,52.199,39.497,52.199z"/>
<path fill="#C0C0C0" d="M11.797,83.666C5.281,83.666,0,78.385,0,71.867l0,0v-60.07C0,5.281,5.281,0,11.797,0l0,0h39.477
	c6.515,0,11.796,5.281,11.799,11.797l0,0v60.07h-0.003c0,6.518-5.281,11.799-11.796,11.799l0,0H11.797L11.797,83.666z M2.999,11.797
	v60.07c0.01,4.859,3.94,8.789,8.798,8.798l0,0l39.477,0.002c4.858-0.011,8.787-3.94,8.797-8.8l0,0v-60.07
	c-0.01-4.857-3.938-8.788-8.797-8.798l0,0H11.797C6.939,3.009,3.009,6.939,2.999,11.797L2.999,11.797z"/>
</svg>
