<?xml version="1.0" encoding="utf-8"?>
<!DOCTYPE svg PUBLIC "-//W3C//DTD SVG 1.1//EN" "http://www.w3.org/Graphics/SVG/1.1/DTD/svg11.dtd">
<svg version="1.1" id="Layer_1" xmlns="http://www.w3.org/2000/svg" xmlns:xlink="http://www.w3.org/1999/xlink" x="0px" y="0px"
	 width="35.624px" height="31.485px" viewBox="0 0 35.624 31.485" enable-background="new 0 0 35.624 31.485" xml:space="preserve">
<linearGradient id="gradient" gradientUnits="userSpaceOnUse" x1="17.1387" y1="31.485" x2="17.1387" y2="0">
	<stop  offset="0" style="stop-color:#404040"/>
	<stop  offset="1" style="stop-color:#A0A0A0"/>
</linearGradient>
<path fill="#808080" d="M32.095,3.528V0H6.968L6.705,0.264C3.94,3.028,1.441,5.583,0.264,6.761L0,7.024v20.932h3.53v3.529h32.094
	V3.528H32.095z M6.744,2.773v3.952h-3.91C3.877,5.67,5.241,4.285,6.744,2.773z M1.8,8.527l6.745-0.002V1.801h21.75v24.355H1.8V8.527
	z M33.823,29.685H5.329v-1.729h26.766V5.329h1.729V29.685z"/>
<g>
	<path fill="#C0C0C0" d="M12.694,19.456h-1.882v-4.911l-1.358,3.188H8.147l-1.359-3.188v4.911H5.006v-7.334h2.196l1.65,3.679
		l1.646-3.679h2.196V19.456z"/>
	<path fill="#C0C0C0" d="M20.619,14.438c0,0.328-0.058,0.648-0.172,0.963c-0.115,0.313-0.279,0.576-0.493,0.79
		c-0.292,0.289-0.618,0.507-0.978,0.655c-0.359,0.147-0.807,0.222-1.342,0.222h-1.178v2.389h-1.892v-7.334h3.113
		c0.466,0,0.859,0.04,1.18,0.12c0.32,0.081,0.604,0.201,0.85,0.362c0.296,0.194,0.521,0.442,0.678,0.744
		C20.541,13.65,20.619,14.014,20.619,14.438z M18.664,14.479c0-0.206-0.057-0.384-0.168-0.533c-0.111-0.148-0.241-0.252-0.389-0.312
		c-0.197-0.079-0.39-0.122-0.576-0.13c-0.188-0.008-0.438-0.013-0.749-0.013h-0.325v2.192h0.542c0.321,0,0.587-0.02,0.795-0.06
		c0.209-0.039,0.384-0.118,0.525-0.235c0.121-0.105,0.209-0.23,0.263-0.377C18.637,14.867,18.664,14.689,18.664,14.479z"/>
	<path fill="#C0C0C0" d="M26.974,16.018c0.161,0.139,0.289,0.299,0.384,0.483c0.096,0.184,0.144,0.429,0.144,0.733
		c0,0.346-0.068,0.667-0.205,0.966c-0.136,0.299-0.346,0.555-0.628,0.769c-0.275,0.207-0.6,0.365-0.973,0.475
		c-0.373,0.11-0.825,0.166-1.357,0.166c-0.607,0-1.128-0.049-1.563-0.144s-0.789-0.202-1.062-0.32v-1.61h0.192
		c0.282,0.171,0.619,0.318,1.012,0.443s0.751,0.188,1.076,0.188c0.19,0,0.397-0.016,0.621-0.047s0.412-0.1,0.566-0.205
		c0.121-0.082,0.219-0.182,0.291-0.298c0.071-0.116,0.107-0.284,0.107-0.505c0-0.213-0.049-0.379-0.147-0.494
		c-0.099-0.117-0.229-0.2-0.389-0.25c-0.161-0.052-0.354-0.08-0.581-0.086c-0.227-0.004-0.438-0.008-0.631-0.008h-0.404v-1.31h0.419
		c0.256,0,0.482-0.009,0.68-0.024c0.197-0.017,0.364-0.055,0.503-0.113c0.144-0.063,0.252-0.146,0.324-0.249
		s0.108-0.255,0.108-0.456c0-0.146-0.037-0.266-0.113-0.356c-0.075-0.091-0.17-0.161-0.285-0.214c-0.128-0.06-0.279-0.1-0.453-0.119
		s-0.323-0.029-0.448-0.029c-0.309,0-0.644,0.054-1.005,0.16c-0.361,0.107-0.711,0.26-1.049,0.461h-0.183v-1.592
		c0.27-0.107,0.636-0.212,1.099-0.313c0.463-0.1,0.933-0.15,1.408-0.15c0.463,0,0.869,0.041,1.217,0.121s0.636,0.188,0.862,0.322
		c0.269,0.161,0.47,0.357,0.601,0.586c0.132,0.23,0.197,0.5,0.197,0.809c0,0.407-0.127,0.771-0.38,1.091s-0.586,0.524-0.999,0.613
		v0.069c0.167,0.022,0.345,0.068,0.531,0.138C26.648,15.787,26.819,15.887,26.974,16.018z"/>
</g>
</svg>
