<?xml version="1.0" encoding="utf-8"?>
<!DOCTYPE svg PUBLIC "-//W3C//DTD SVG 1.1//EN" "http://www.w3.org/Graphics/SVG/1.1/DTD/svg11.dtd">
<svg version="1.1" id="Layer_1" xmlns="http://www.w3.org/2000/svg" xmlns:xlink="http://www.w3.org/1999/xlink" x="0px" y="0px"
	 width="71.248px" height="62.97px" viewBox="0 0 71.248 62.97" enable-background="new 0 0 71.248 62.97" xml:space="preserve">
<linearGradient id="gradient" gradientUnits="userSpaceOnUse" x1="17.1387" y1="63.97" x2="17.1387" y2="0">
	<stop  offset="0" style="stop-color:#404040"/>
	<stop  offset="1" style="stop-color:#A0A0A0"/>
</linearGradient>
<path fill="#808080" d="M64.189,7.057V0H13.936L13.41,0.527C7.881,6.057,2.883,11.166,0.527,13.521L0,14.049v41.863h7.061v7.059
	h64.188V7.057H64.189z M13.488,5.547v7.904h-7.82C7.754,11.34,10.482,8.57,13.488,5.547z M3.6,17.055l13.49-0.004V3.602h43.5v48.71
	H3.6V17.055z M67.646,59.369H10.658v-3.457h53.531V10.658h3.457V59.369z"/>
<g>
	<path fill="#C0C0C0" d="M25.389,38.912h-3.764V29.09l-2.717,6.375h-2.613l-2.719-6.375v9.822h-3.564V24.244h4.393l3.301,7.357
		l3.291-7.357h4.393V38.912z"/>
	<path fill="#C0C0C0" d="M41.238,28.875c0,0.656-0.115,1.297-0.344,1.926c-0.23,0.625-0.559,1.152-0.986,1.58
		c-0.584,0.578-1.236,1.014-1.955,1.311c-0.719,0.295-1.613,0.443-2.684,0.443h-2.355v4.777h-3.783V24.244h6.227
		c0.932,0,1.719,0.08,2.359,0.24c0.641,0.162,1.207,0.402,1.699,0.725c0.592,0.389,1.043,0.885,1.355,1.488
		C41.082,27.301,41.238,28.027,41.238,28.875z M37.328,28.957c0-0.412-0.113-0.768-0.336-1.066
		c-0.223-0.297-0.482-0.504-0.777-0.623c-0.395-0.158-0.779-0.244-1.152-0.26c-0.375-0.016-0.875-0.025-1.498-0.025h-0.65v4.384
		h1.084c0.643,0,1.174-0.039,1.59-0.119c0.418-0.078,0.768-0.236,1.051-0.47c0.242-0.211,0.418-0.461,0.525-0.754
		C37.273,29.734,37.328,29.379,37.328,28.957z"/>
	<path fill="#C0C0C0" d="M53.947,32.035c0.322,0.277,0.578,0.598,0.768,0.967c0.191,0.367,0.287,0.857,0.287,1.467
		c0,0.691-0.137,1.334-0.41,1.932c-0.271,0.598-0.691,1.109-1.256,1.537c-0.551,0.414-1.199,0.73-1.945,0.949
		c-0.746,0.221-1.65,0.332-2.715,0.332c-1.215,0-2.256-0.098-3.127-0.287s-1.578-0.404-2.123-0.641V35.07h0.385
		c0.564,0.342,1.238,0.637,2.023,0.887s1.502,0.375,2.152,0.375c0.381,0,0.795-0.031,1.242-0.094s0.824-0.199,1.133-0.41
		c0.242-0.164,0.438-0.363,0.582-0.596c0.143-0.232,0.215-0.568,0.215-1.01c0-0.426-0.098-0.758-0.295-0.988
		c-0.197-0.234-0.457-0.4-0.777-0.5c-0.322-0.104-0.709-0.16-1.162-0.172c-0.453-0.008-0.875-0.016-1.262-0.016h-0.809v-2.619h0.838
		c0.512,0,0.965-0.018,1.359-0.049c0.395-0.033,0.729-0.109,1.006-0.227c0.287-0.125,0.504-0.291,0.648-0.498
		s0.217-0.51,0.217-0.912c0-0.293-0.074-0.531-0.227-0.713c-0.15-0.182-0.34-0.322-0.57-0.428c-0.256-0.119-0.559-0.199-0.906-0.238
		s-0.646-0.059-0.896-0.059c-0.617,0-1.287,0.107-2.01,0.32c-0.723,0.215-1.422,0.52-2.098,0.922H43.85v-3.184
		c0.539-0.215,1.271-0.424,2.197-0.625c0.926-0.199,1.865-0.301,2.816-0.301c0.926,0,1.738,0.082,2.434,0.242
		s1.271,0.375,1.725,0.645c0.537,0.322,0.939,0.715,1.201,1.172c0.264,0.461,0.395,1,0.395,1.617c0,0.814-0.254,1.541-0.76,2.182
		s-1.172,1.049-1.998,1.227v0.138c0.334,0.045,0.689,0.137,1.063,0.275C53.297,31.574,53.639,31.773,53.947,32.035z"/>
</g>
</svg>
