<?xml version="1.0" encoding="utf-8"?>
<!DOCTYPE svg PUBLIC "-//W3C//DTD SVG 1.1//EN" "http://www.w3.org/Graphics/SVG/1.1/DTD/svg11.dtd">
<svg version="1.1" id="Layer_1" xmlns="http://www.w3.org/2000/svg" xmlns:xlink="http://www.w3.org/1999/xlink" x="0px" y="0px"
	 width="75.873px" height="63.601px" viewBox="0 0 75.873 63.601" enable-background="new 0 0 75.873 63.601" xml:space="preserve">
	 <linearGradient id="gradient" gradientUnits="userSpaceOnUse" x1="17.1387" y1="63.601" x2="17.1387" y2="0">
	<stop  offset="0" style="stop-color:#404040"/>
	<stop  offset="1" style="stop-color:#A0A0A0"/>
</linearGradient>
<path fill="#C0C0C0" d="M16.879,21.061C16.879,9.432,26.307,0.005,37.939,0l0,0c11.629,0.005,21.055,9.432,21.055,21.061l0,0
	c0,11.63-9.426,21.058-21.055,21.058l0,0C26.307,42.119,16.879,32.691,16.879,21.061L16.879,21.061z M20.477,21.061
	c0.02,9.639,7.82,17.441,17.463,17.458l0,0c9.639-0.018,17.438-7.82,17.459-17.458l0,0c-0.021-9.641-7.82-17.438-17.459-17.46l0,0
	C28.297,3.622,20.496,11.42,20.477,21.061L20.477,21.061z"/>
<path fill="#808080" d="M74.543,60.986c-5.352-10.521-15.115-18.41-26.848-21.273c-2.918,1.529-6.232,2.406-9.756,2.406
	s-6.84-0.877-9.758-2.406c-11.734,2.865-21.5,10.752-26.848,21.273L0,63.601h75.873L74.543,60.986z M6.01,60.001
	c6.588-10.729,18.416-17.885,31.93-17.881c13.508-0.004,25.336,7.152,31.928,17.881H6.01z"/>
</svg>
