<?xml version="1.0" encoding="utf-8"?>
<!DOCTYPE svg PUBLIC "-//W3C//DTD SVG 1.1//EN" "http://www.w3.org/Graphics/SVG/1.1/DTD/svg11.dtd">
<svg version="1.1" id="Layer_1" xmlns="http://www.w3.org/2000/svg" xmlns:xlink="http://www.w3.org/1999/xlink" x="0px" y="0px"
	 width="37.937px" height="31.801px" viewBox="0 0 37.937 31.801" enable-background="new 0 0 37.937 31.801" xml:space="preserve">
<linearGradient id="gradient" gradientUnits="userSpaceOnUse" x1="17.1387" y1="31.801" x2="17.1387" y2="0">
	<stop  offset="0" style="stop-color:#404040"/>
	<stop  offset="1" style="stop-color:#A0A0A0"/>
</linearGradient>
<path fill="#C0C0C0" d="M8.439,10.53c0-5.814,4.714-10.528,10.53-10.53l0,0c5.814,0.002,10.527,4.716,10.527,10.53l0,0
	c0,5.815-4.713,10.529-10.527,10.529l0,0C13.153,21.06,8.439,16.346,8.439,10.53L8.439,10.53z M10.238,10.53
	c0.01,4.819,3.91,8.721,8.731,8.729l0,0c4.819-0.009,8.719-3.91,8.729-8.729l0,0c-0.011-4.82-3.91-8.719-8.729-8.73l0,0
	C14.148,1.811,10.248,5.71,10.238,10.53L10.238,10.53z"/>
<path fill="#808080" d="M37.271,30.493c-2.676-5.261-7.558-9.205-13.424-10.637c-1.459,0.765-3.116,1.203-4.878,1.203
	s-3.42-0.438-4.879-1.203c-5.867,1.433-10.75,5.376-13.424,10.637L0,31.801h37.937L37.271,30.493z M3.005,30.001
	c3.294-5.364,9.208-8.942,15.965-8.94c6.754-0.002,12.668,3.576,15.964,8.94H3.005z"/>
</svg>
