<?xml version="1.0" encoding="utf-8"?>
<!DOCTYPE svg PUBLIC "-//W3C//DTD SVG 1.1//EN" "http://www.w3.org/Graphics/SVG/1.1/DTD/svg11.dtd">
<svg version="1.1" id="Layer_1" xmlns="http://www.w3.org/2000/svg" xmlns:xlink="http://www.w3.org/1999/xlink" x="0px" y="0px"
	 width="104.685px" height="63.6px" viewBox="0 0 104.685 63.6" enable-background="new 0 0 104.685 63.6" xml:space="preserve">
<linearGradient id="gradient" gradientUnits="userSpaceOnUse" x1="17.1387" y1="63.6" x2="17.1387" y2="0">
	<stop  offset="0" style="stop-color:#404040"/>
	<stop  offset="1" style="stop-color:#A0A0A0"/>
</linearGradient>
<path fill="#808080" d="M26.899,31.801C26.903,17.748,38.29,6.357,52.343,6.357l0,0c14.055,0,25.439,11.391,25.443,25.444l0,0
	C77.782,45.85,66.397,57.241,52.343,57.241l0,0C38.29,57.241,26.903,45.85,26.899,31.801L26.899,31.801z M30.499,31.801
	c0.021,12.059,9.781,21.818,21.844,21.84l0,0c12.061-0.021,21.82-9.781,21.844-21.84l0,0C74.163,19.738,64.403,9.979,52.343,9.958
	l0,0C40.28,9.979,30.521,19.738,30.499,31.801L30.499,31.801z"/>
<path fill="#808080" d="M40.081,31.801c0-6.774,5.486-12.264,12.264-12.268l0,0c6.773,0.004,12.26,5.494,12.264,12.268l0,0
	c-0.004,6.773-5.49,12.26-12.264,12.264l0,0C45.567,44.061,40.081,38.575,40.081,31.801L40.081,31.801z M43.677,31.801
	c0.01,4.785,3.883,8.654,8.668,8.662l0,0c4.781-0.008,8.654-3.877,8.662-8.662l0,0c-0.008-4.785-3.881-8.659-8.662-8.667l0,0
	C47.56,23.143,43.687,27.017,43.677,31.801L43.677,31.801z"/>
<path fill="#C0C0C0" d="M104.03,30.808C91.634,12.067,73.136,0,52.345,0C31.552,0,13.05,12.067,0.658,30.808L0,31.801l0.658,0.992
	C13.05,51.534,31.552,63.596,52.345,63.6c20.791-0.004,39.289-12.066,51.686-30.807l0.654-0.992L104.03,30.808z M52.345,59.999
	C33.37,60.002,16.228,49.202,4.329,31.801C16.228,14.398,33.37,3.599,52.345,3.603C71.317,3.599,88.46,14.398,100.36,31.801
	C88.46,49.202,71.317,60.002,52.345,59.999z"/>
</svg>
