<?xml version="1.0" encoding="utf-8"?>
<!DOCTYPE svg PUBLIC "-//W3C//DTD SVG 1.1//EN" "http://www.w3.org/Graphics/SVG/1.1/DTD/svg11.dtd">
<svg version="1.1" id="Layer_1" xmlns="http://www.w3.org/2000/svg" xmlns:xlink="http://www.w3.org/1999/xlink" x="0px" y="0px"
	 width="52.342px" height="31.8px" viewBox="0 0 52.342 31.8" enable-background="new 0 0 52.342 31.8" xml:space="preserve">
<linearGradient id="gradient" gradientUnits="userSpaceOnUse" x1="17.1387" y1="31.8" x2="17.1387" y2="0">
	<stop  offset="0" style="stop-color:#404040"/>
	<stop  offset="1" style="stop-color:#A0A0A0"/>
</linearGradient>
<path fill="#808080" d="M13.45,15.901c0.002-7.027,5.695-12.722,12.722-12.722l0,0c7.027,0,12.72,5.695,12.722,12.722l0,0
	c-0.002,7.024-5.694,12.72-12.722,12.72l0,0C19.145,28.621,13.452,22.925,13.45,15.901L13.45,15.901z M15.25,15.901
	c0.011,6.029,4.891,10.909,10.922,10.92l0,0c6.03-0.011,10.91-4.891,10.922-10.92l0,0C37.082,9.869,32.202,4.989,26.171,4.979l0,0
	C20.14,4.989,15.26,9.869,15.25,15.901L15.25,15.901z"/>
<path fill="#808080" d="M20.041,15.901c0-3.387,2.743-6.132,6.132-6.134l0,0c3.387,0.002,6.13,2.747,6.132,6.134l0,0
	c-0.002,3.387-2.745,6.13-6.132,6.132l0,0C22.784,22.031,20.041,19.288,20.041,15.901L20.041,15.901z M21.838,15.901
	c0.005,2.393,1.941,4.327,4.334,4.331l0,0c2.391-0.004,4.327-1.938,4.331-4.331l0,0c-0.004-2.393-1.94-4.33-4.331-4.333l0,0
	C23.78,11.571,21.843,13.508,21.838,15.901L21.838,15.901z"/>
<path fill="#C0C0C0" d="M52.015,15.404C45.817,6.034,36.568,0,26.172,0C15.776,0,6.525,6.034,0.329,15.404L0,15.9l0.329,0.496
	C6.525,25.767,15.776,31.798,26.172,31.8c10.396-0.002,19.645-6.033,25.843-15.404l0.327-0.496L52.015,15.404z M26.172,30
	C16.685,30.001,8.114,24.601,2.165,15.9C8.114,7.199,16.685,1.799,26.172,1.801C35.659,1.799,44.23,7.199,50.18,15.9
	C44.23,24.601,35.659,30.001,26.172,30z"/>
</svg>
