<?xml version="1.0" encoding="utf-8"?>
<!DOCTYPE svg PUBLIC "-//W3C//DTD SVG 1.1//EN" "http://www.w3.org/Graphics/SVG/1.1/DTD/svg11.dtd">
<svg version="1.1" id="Layer_1" xmlns="http://www.w3.org/2000/svg" xmlns:xlink="http://www.w3.org/1999/xlink" x="0px" y="0px"
	 width="31.799px" height="31.801px" viewBox="0 0 31.799 31.801" enable-background="new 0 0 31.799 31.801" xml:space="preserve">
<linearGradient id="gradient" gradientUnits="userSpaceOnUse" x1="17.1387" y1="31.801" x2="17.1387" y2="0">
	<stop  offset="0" style="stop-color:#404040"/>
	<stop  offset="1" style="stop-color:#A0A0A0"/>
</linearGradient>
<circle fill="#C0C0C0" cx="15.901" cy="15.902" r="7.735"/>
<path fill="#808080" d="M0,15.902C0.002,7.12,7.119,0.002,15.9,0l0,0c8.782,0.002,15.899,7.12,15.899,15.902l0,0
	c0,8.78-7.117,15.897-15.899,15.899l0,0C7.119,31.799,0.002,24.682,0,15.902L0,15.902z M1.801,15.902
	C1.814,23.688,8.114,29.986,15.9,30l0,0c7.788-0.015,14.086-6.313,14.1-14.099l0,0c-0.014-7.788-6.312-14.086-14.1-14.1l0,0
	C8.114,1.816,1.814,8.114,1.801,15.902L1.801,15.902z"/>
</svg>
