<?xml version="1.0" encoding="utf-8"?>
<!DOCTYPE svg PUBLIC "-//W3C//DTD SVG 1.1//EN" "http://www.w3.org/Graphics/SVG/1.1/DTD/svg11.dtd">
<svg version="1.1" id="Layer_1" xmlns="http://www.w3.org/2000/svg" xmlns:xlink="http://www.w3.org/1999/xlink" x="0px" y="0px"
	 width="72.375px" height="63.604px" viewBox="0 0 72.375 63.604" enable-background="new 0 0 72.375 63.604" xml:space="preserve">
<linearGradient id="gradient" gradientUnits="userSpaceOnUse" x1="17.1387" y1="63.604" x2="17.1387" y2="0">
	<stop  offset="0" style="stop-color:#404040"/>
	<stop  offset="1" style="stop-color:#A0A0A0"/>
</linearGradient>
<path fill="#C0C0C0" d="M38.709,2.087c-0.637-1.201-1.998-2.123-3.434-2.086c-1.871,0.041-3.438,1.105-4.99,2.744L17.563,16.329
	H7.482C3.348,16.333,0,19.681,0,23.813v15.984c0,4.135,3.348,7.482,7.482,7.482h10.08l12.73,13.592
	c1.553,1.623,3.111,2.689,4.982,2.73c0.027,0.002,0.057,0.002,0.084,0.002c1.4,0,2.723-0.906,3.35-2.082
	c0.684-1.201,0.943-2.641,0.949-4.35V6.444C39.652,4.726,39.393,3.286,38.709,2.087z M3.6,39.797V23.813
	c0-2.143,1.738-3.881,3.883-3.885h8.123V43.68H7.482C5.338,43.674,3.6,41.942,3.6,39.797z M36.057,57.172
	c0.01,1.309-0.244,2.186-0.463,2.549c-0.199,0.27-0.207,0.27-0.252,0.27c-0.018,0-0.037,0-0.066,0.012
	c-0.189,0.041-1.17-0.297-2.359-1.596L19.205,43.77V19.839L32.916,5.202l0.01-0.008c1.18-1.299,2.154-1.635,2.35-1.594
	c0.129,0.037,0.059-0.078,0.318,0.285c0.219,0.361,0.473,1.242,0.463,2.559V57.172z"/>
<polygon fill="#808080" points="72.375,23.446 69.83,20.901 62.383,28.351 54.934,20.901 52.389,23.446 59.838,30.894 
	52.389,38.342 54.934,40.885 62.383,33.438 69.83,40.885 72.375,38.342 64.926,30.894 "/>
</svg>
