<?xml version="1.0" encoding="utf-8"?>
<!DOCTYPE svg PUBLIC "-//W3C//DTD SVG 1.1//EN" "http://www.w3.org/Graphics/SVG/1.1/DTD/svg11.dtd">
<svg version="1.1" id="Layer_1" xmlns="http://www.w3.org/2000/svg" xmlns:xlink="http://www.w3.org/1999/xlink" x="0px" y="0px"
	 width="37.357px" height="31.802px" viewBox="0 0 37.357 31.802" enable-background="new 0 0 37.357 31.802" xml:space="preserve">
<linearGradient id="gradient" gradientUnits="userSpaceOnUse" x1="17.1387" y1="31.802" x2="17.1387" y2="0">
	<stop  offset="0" style="stop-color:#404040"/>
	<stop  offset="1" style="stop-color:#A0A0A0"/>
</linearGradient>
<path fill="#C0C0C0" d="M19.355,1.042c-0.32-0.6-1-1.061-1.718-1.042c-0.935,0.021-1.717,0.551-2.49,1.369l-0.001-0.001L8.779,8.165
	H3.742C1.674,8.167,0,9.84,0,11.907V19.9c0,2.066,1.674,3.74,3.742,3.74h5.04l6.364,6.796c0.776,0.813,1.556,1.345,2.491,1.366
	h0.042c0.7,0,1.361-0.454,1.676-1.042c0.341-0.599,0.471-1.318,0.475-2.174V3.222C19.826,2.365,19.696,1.643,19.355,1.042z
	 M1.8,19.9v-7.993c0.002-1.07,0.87-1.94,1.942-1.942h4.062V21.84H3.742C2.67,21.837,1.802,20.972,1.8,19.9z M18.031,28.586
	c0.002,0.653-0.124,1.094-0.234,1.273c-0.13,0.182-0.095,0.124-0.159,0.143c-0.095,0.021-0.586-0.149-1.178-0.798l-6.857-7.319
	V9.919L16.46,2.6l0.003-0.002c0.589-0.649,1.076-0.818,1.175-0.798c0.064,0.019,0.029-0.039,0.159,0.143
	c0.11,0.18,0.236,0.62,0.234,1.279V28.586z"/>
<polygon fill="#808080" points="37.357,14.546 32.091,14.546 32.091,9.282 30.291,9.282 30.291,14.546 25.024,14.546 25.024,16.346 
	30.291,16.346 30.291,21.613 32.091,21.613 32.091,16.346 37.357,16.346 "/>
</svg>
