<?xml version="1.0" encoding="utf-8"?>
<!DOCTYPE svg PUBLIC "-//W3C//DTD SVG 1.1//EN" "http://www.w3.org/Graphics/SVG/1.1/DTD/svg11.dtd">
<svg version="1.1" id="Layer_1" xmlns="http://www.w3.org/2000/svg" xmlns:xlink="http://www.w3.org/1999/xlink" x="0px" y="0px"
	 width="63.599px" height="63.602px" viewBox="0 0 63.599 63.602" enable-background="new 0 0 63.599 63.602" xml:space="preserve">
<linearGradient id="gradient" gradientUnits="userSpaceOnUse" x1="17.1387" y1="63.602" x2="17.1387" y2="0">
	<stop  offset="0" style="stop-color:#404040"/>
	<stop  offset="1" style="stop-color:#A0A0A0"/>
</linearGradient>
<circle fill="#C0C0C0" cx="31.801" cy="31.803" r="15.469"/>
<path fill="#808080" d="M0,31.803C0.004,14.239,14.238,0.005,31.8,0l0,0c17.565,0.005,31.799,14.239,31.799,31.803l0,0
	c0,17.561-14.233,31.795-31.799,31.799l0,0C14.238,63.598,0.004,49.364,0,31.803L0,31.803z M3.603,31.803
	C3.628,47.375,16.228,59.971,31.8,60l0,0c15.576-0.029,28.172-12.625,28.199-28.197l0,0C59.972,16.228,47.376,3.632,31.8,3.604l0,0
	C16.228,3.632,3.628,16.228,3.603,31.803L3.603,31.803z"/>
</svg>
