<?xml version="1.0" encoding="utf-8"?>
<!DOCTYPE svg PUBLIC "-//W3C//DTD SVG 1.1//EN" "http://www.w3.org/Graphics/SVG/1.1/DTD/svg11.dtd">
<svg version="1.1" id="Layer_1" xmlns="http://www.w3.org/2000/svg" xmlns:xlink="http://www.w3.org/1999/xlink" x="0px" y="0px"
	 width="37.359px" height="31.804px" viewBox="0 0 37.359 31.804" enable-background="new 0 0 37.359 31.804" xml:space="preserve">
<linearGradient id="gradient" gradientUnits="userSpaceOnUse" x1="17.1387" y1="31.804" x2="17.1387" y2="0">
	<stop  offset="0" style="stop-color:#404040"/>
	<stop  offset="1" style="stop-color:#A0A0A0"/>
</linearGradient>
<path fill="#C0C0C0" d="M19.358,1.043c-0.321-0.6-1.002-1.062-1.72-1.043c-0.936,0.021-1.719,0.553-2.495,1.372l0.001,0.001
	L8.78,8.167H3.742c-2.066,0-3.74,1.676-3.742,3.741v7.994c0,2.066,1.676,3.74,3.742,3.74h5.04l6.365,6.794
	c0.776,0.813,1.556,1.345,2.491,1.367c0.014,0.001,0.028,0.001,0.042,0.001c0.7,0,1.361-0.455,1.678-1.043
	c0.339-0.599,0.469-1.318,0.472-2.175V3.222C19.827,2.366,19.697,1.644,19.358,1.043z M1.8,19.902v-7.994
	c0.002-1.07,0.871-1.938,1.942-1.941h4.062v11.876H3.742C2.671,21.84,1.802,20.973,1.8,19.902z M18.029,28.586
	c0.005,0.654-0.122,1.093-0.231,1.274c-0.13,0.182-0.095,0.124-0.159,0.143c-0.095,0.021-0.585-0.15-1.179-0.799l-6.856-7.317V9.921
	l6.856-7.32l0.004-0.002c0.59-0.649,1.077-0.819,1.175-0.798c0.064,0.019,0.029-0.04,0.159,0.143c0.109,0.18,0.236,0.62,0.231,1.278
	V28.586z"/>
<polygon fill="#808080" points="25.025,16.347 25.025,14.547 37.359,14.547 37.359,16.347 25.025,16.347 "/>
</svg>
