<?xml version="1.0" encoding="utf-8"?>
<!DOCTYPE svg PUBLIC "-//W3C//DTD SVG 1.1//EN" "http://www.w3.org/Graphics/SVG/1.1/DTD/svg11.dtd">
<svg version="1.1" id="Layer_1" xmlns="http://www.w3.org/2000/svg" xmlns:xlink="http://www.w3.org/1999/xlink" x="0px" y="0px"
	 width="36.188px" height="31.802px" viewBox="0 0 36.188 31.802" enable-background="new 0 0 36.188 31.802" xml:space="preserve">
<linearGradient id="gradient" gradientUnits="userSpaceOnUse" x1="17.1387" y1="31.802" x2="17.1387" y2="0">
	<stop  offset="0" style="stop-color:#404040"/>
	<stop  offset="1" style="stop-color:#A0A0A0"/>
</linearGradient>
<path fill="#C0C0C0" d="M19.354,1.043C19.036,0.443,18.355-0.018,17.638,0c-0.936,0.021-1.719,0.553-2.495,1.372L8.781,8.165h-5.04
	C1.674,8.167,0,9.84,0,11.907v7.992c0,2.067,1.674,3.741,3.741,3.741h5.04l6.365,6.796c0.776,0.812,1.556,1.345,2.491,1.365
	c0.014,0.001,0.028,0.001,0.042,0.001c0.7,0,1.361-0.453,1.675-1.041c0.342-0.601,0.472-1.32,0.475-2.175V3.222
	C19.826,2.363,19.696,1.643,19.354,1.043z M1.8,19.899v-7.992c0-1.071,0.869-1.94,1.941-1.942h4.062V21.84H3.741
	C2.669,21.837,1.8,20.971,1.8,19.899z M18.028,28.586c0.005,0.654-0.122,1.093-0.231,1.274c-0.1,0.135-0.104,0.135-0.126,0.135
	c-0.009,0-0.019,0-0.033,0.006c-0.095,0.021-0.585-0.148-1.18-0.798l-6.855-7.318V9.919l6.855-7.318l0.005-0.004
	c0.59-0.649,1.077-0.817,1.175-0.797c0.064,0.019,0.029-0.039,0.159,0.143c0.109,0.181,0.236,0.621,0.231,1.279V28.586z"/>
<polygon fill="#808080" points="36.188,11.723 34.915,10.451 31.191,14.175 27.467,10.451 26.194,11.723 29.919,15.447 
	26.194,19.171 27.467,20.443 31.191,16.719 34.915,20.443 36.188,19.171 32.463,15.447 "/>
</svg>
