<?xml version="1.0" encoding="utf-8"?>
<!DOCTYPE svg PUBLIC "-//W3C//DTD SVG 1.1//EN" "http://www.w3.org/Graphics/SVG/1.1/DTD/svg11.dtd">
<svg version="1.1" id="Layer_1" xmlns="http://www.w3.org/2000/svg" xmlns:xlink="http://www.w3.org/1999/xlink" x="0px" y="0px"
	 width="74.715px" height="63.604px" viewBox="0 0 74.715 63.604" enable-background="new 0 0 74.715 63.604" xml:space="preserve">
<linearGradient id="gradient" gradientUnits="userSpaceOnUse" x1="17.1387" y1="63.604" x2="17.1387" y2="0">
	<stop  offset="0" style="stop-color:#404040"/>
	<stop  offset="1" style="stop-color:#A0A0A0"/>
</linearGradient>
<path fill="#C0C0C0" d="M38.711,2.085c-0.641-1.199-2-2.121-3.436-2.084c-1.869,0.041-3.434,1.102-4.98,2.738l-0.002-0.002
	L17.559,16.329H7.484C3.348,16.333,0,19.681,0,23.813v15.986c0,4.133,3.348,7.48,7.484,7.48h10.08l12.729,13.592
	c1.553,1.625,3.111,2.689,4.982,2.732h0.084c1.4,0,2.723-0.908,3.352-2.084c0.682-1.197,0.941-2.637,0.949-4.348V6.444
	C39.652,4.729,39.393,3.286,38.711,2.085z M3.6,39.799V23.813c0.004-2.141,1.74-3.881,3.885-3.885h8.123V43.68H7.484
	C5.34,43.674,3.604,41.944,3.6,39.799z M36.063,57.172c0.004,1.307-0.248,2.188-0.469,2.547c-0.26,0.363-0.189,0.248-0.318,0.285
	c-0.189,0.041-1.172-0.299-2.355-1.596L19.205,43.77V19.839L32.92,5.2l0.006-0.004c1.178-1.299,2.152-1.637,2.35-1.596
	c0.129,0.037,0.059-0.078,0.318,0.285c0.221,0.359,0.473,1.24,0.469,2.559V57.172z"/>
<polygon fill="#808080" points="74.715,29.093 64.182,29.093 64.182,18.563 60.582,18.563 60.582,29.093 50.049,29.093 
	50.049,32.692 60.582,32.692 60.582,43.225 64.182,43.225 64.182,32.692 74.715,32.692 "/>
</svg>
