<?xml version="1.0" encoding="utf-8"?>
<!DOCTYPE svg PUBLIC "-//W3C//DTD SVG 1.1//EN" "http://www.w3.org/Graphics/SVG/1.1/DTD/svg11.dtd">
<svg version="1.1" id="Layer_1" xmlns="http://www.w3.org/2000/svg" xmlns:xlink="http://www.w3.org/1999/xlink" x="0px" y="0px"
	 width="74.719px" height="63.608px" viewBox="0 0 74.719 63.608" enable-background="new 0 0 74.719 63.608" xml:space="preserve">
<linearGradient id="gradient" gradientUnits="userSpaceOnUse" x1="17.1387" y1="63.608" x2="17.1387" y2="0">
	<stop  offset="0" style="stop-color:#404040"/>
	<stop  offset="1" style="stop-color:#A0A0A0"/>
</linearGradient>
<path fill="#C0C0C0" d="M38.717,2.087c-0.643-1.199-2.004-2.123-3.439-2.086c-1.871,0.043-3.438,1.105-4.99,2.744l0.002,0.002
	L17.561,16.333H7.484c-4.133,0-7.48,3.352-7.484,7.482v15.988c0,4.133,3.352,7.48,7.484,7.48h10.08l12.73,13.588
	c1.553,1.627,3.111,2.689,4.982,2.734c0.027,0.002,0.057,0.002,0.084,0.002c1.4,0,2.723-0.91,3.355-2.086
	c0.678-1.197,0.938-2.637,0.943-4.35V6.444C39.654,4.731,39.395,3.288,38.717,2.087z M3.6,39.803V23.815
	c0.004-2.141,1.742-3.877,3.885-3.883h8.123v23.751H7.484C5.342,43.68,3.604,41.946,3.6,39.803z M36.059,57.172
	c0.01,1.309-0.244,2.186-0.463,2.549c-0.26,0.363-0.189,0.248-0.318,0.285c-0.189,0.041-1.17-0.301-2.357-1.598L19.207,43.774
	V19.843L32.92,5.202l0.008-0.004c1.18-1.299,2.154-1.639,2.35-1.596c0.129,0.037,0.059-0.08,0.318,0.285
	c0.219,0.359,0.473,1.24,0.463,2.557V57.172z"/>
<polygon fill="#808080" points="50.051,32.694 50.051,29.095 74.719,29.095 74.719,32.694 50.051,32.694 "/>
</svg>
