<?xml version="1.0" encoding="utf-8"?>
<!DOCTYPE svg PUBLIC "-//W3C//DTD SVG 1.1//EN" "http://www.w3.org/Graphics/SVG/1.1/DTD/svg11.dtd">
<svg version="1.1" id="Layer_1" xmlns="http://www.w3.org/2000/svg" xmlns:xlink="http://www.w3.org/1999/xlink" x="0px" y="0px"
	 width="27.984px" height="31.398px" viewBox="0 0 27.984 31.398" enable-background="new 0 0 27.984 31.398" xml:space="preserve">
<linearGradient id="gradient" gradientUnits="userSpaceOnUse" x1="17.1387" y1="31.398" x2="17.1387" y2="0">
	<stop  offset="0" style="stop-color:#404040"/>
	<stop  offset="1" style="stop-color:#A0A0A0"/>
</linearGradient>
<path fill="#808080" d="M9.951,2.678C9.036,1.09,7.322,0.001,5.342,0.001C2.391,0.001,0,2.391,0,5.342
	c-0.002,1.351,0.52,2.574,1.335,3.506l0.627,0.718l0.497-0.815c1.542-2.526,4.064-4.389,7.036-5.038l0.937-0.207L9.951,2.678z
	 M1.852,7.148C1.563,6.606,1.399,5.996,1.398,5.342c0.004-2.176,1.768-3.939,3.943-3.943c1.115,0,2.113,0.467,2.828,1.218
	C5.605,3.418,3.403,5.029,1.852,7.148z"/>
<path fill="#808080" d="M25.525,8.753c-1.544-2.527-4.065-4.39-7.036-5.041l0,0l-0.938-0.207l0.482-0.829
	C18.95,1.089,20.662,0,22.642,0l0,0c2.952,0,5.343,2.392,5.343,5.343l0,0c0.002,1.352-0.519,2.573-1.335,3.505l0,0l-0.628,0.719
	L25.525,8.753L25.525,8.753z M26.134,7.148c0.288-0.542,0.451-1.152,0.451-1.806l0,0c-0.004-2.176-1.767-3.939-3.943-3.943l0,0
	c-1.114,0-2.111,0.467-2.826,1.217l0,0C22.38,3.418,24.582,5.028,26.134,7.148L26.134,7.148z"/>
<path fill="#C0C0C0" d="M2.08,16.664c0-6.591,5.344-11.935,11.936-11.935l0,0c6.591,0,11.937,5.344,11.937,11.935l0,0
	c0,6.594-5.346,11.938-11.937,11.938l0,0C7.424,28.602,2.08,23.258,2.08,16.664L2.08,16.664z M3.479,16.664
	c0.01,5.819,4.719,10.526,10.536,10.537l0,0c5.818-0.011,10.525-4.718,10.536-10.537l0,0c-0.011-5.818-4.718-10.525-10.536-10.536
	l0,0C8.198,6.139,3.489,10.846,3.479,16.664L3.479,16.664z"/>
<polygon fill="#808080" points="4.898,31.398 4.898,30 23.136,30 23.136,31.398 4.898,31.398 "/>
<polygon fill="#C0C0C0" points="9.063,19.368 9.627,18.086 14.017,20.012 18.405,18.086 18.969,19.368 14.014,21.54 9.063,19.368 
	"/>
<g>
	<path fill="#C0C0C0" d="M10.664,14.741c-0.002-0.91-0.738-1.646-1.646-1.648l0,0c-0.911,0.002-1.647,0.738-1.647,1.648l0,0H5.969
		c0-1.683,1.363-3.047,3.049-3.047l0,0c1.682,0,3.045,1.364,3.047,3.047l0,0H10.664L10.664,14.741z"/>
	<path fill="#C0C0C0" d="M20.664,14.74c-0.002-0.909-0.739-1.646-1.648-1.648l0,0c-0.91,0.002-1.646,0.739-1.647,1.648l0,0h0.002
		h-1.4c0-1.683,1.363-3.046,3.046-3.046l0,0c1.684,0,3.047,1.363,3.049,3.046l0,0H20.664L20.664,14.74z"/>
</g>
</svg>
