<?xml version="1.0" encoding="utf-8"?>
<!DOCTYPE svg PUBLIC "-//W3C//DTD SVG 1.1//EN" "http://www.w3.org/Graphics/SVG/1.1/DTD/svg11.dtd">
<svg version="1.1" id="Layer_1" xmlns="http://www.w3.org/2000/svg" xmlns:xlink="http://www.w3.org/1999/xlink" x="0px" y="0px"
	 width="55.969px" height="62.796px" viewBox="0 0 55.969 62.796" enable-background="new 0 0 55.969 62.796" xml:space="preserve">
<linearGradient id="gradient" gradientUnits="userSpaceOnUse" x1="17.1387" y1="62.796" x2="17.1387" y2="0">
	<stop  offset="0" style="stop-color:#404040"/>
	<stop  offset="1" style="stop-color:#A0A0A0"/>
</linearGradient>
<path fill="#808080" d="M19.902,5.355c-1.83-3.176-5.258-5.354-9.219-5.354C4.781,0.002,0,4.782,0,10.685
	c-0.004,2.702,1.039,5.148,2.67,7.013l1.254,1.436l0.994-1.63C8.002,12.45,13.047,8.726,18.99,7.427l1.873-0.413L19.902,5.355z
	 M3.703,14.296c-0.576-1.084-0.904-2.304-0.906-3.611c0.008-4.352,3.535-7.878,7.887-7.887c2.23,0,4.227,0.935,5.656,2.436
	C11.211,6.836,6.807,10.059,3.703,14.296z"/>
<path fill="#808080" d="M51.051,17.506c-3.088-5.055-8.131-8.779-14.072-10.082l0,0l-1.877-0.413l0.965-1.657
	C37.9,2.179,41.324,0,45.283,0l0,0c5.904,0,10.686,4.783,10.686,10.686l0,0c0.004,2.704-1.037,5.146-2.67,7.011l0,0l-1.256,1.438
	L51.051,17.506L51.051,17.506z M52.268,14.297c0.576-1.084,0.902-2.305,0.902-3.611l0,0c-0.008-4.353-3.533-7.879-7.887-7.887l0,0
	c-2.229,0-4.223,0.934-5.652,2.435l0,0C44.76,6.836,49.164,10.057,52.268,14.297L52.268,14.297z"/>
<path fill="#C0C0C0" d="M4.16,33.33c0-13.183,10.688-23.871,23.871-23.871l0,0c13.182,0,23.873,10.688,23.873,23.871l0,0
	c0,13.188-10.691,23.873-23.873,23.873l0,0C14.848,57.203,4.16,46.517,4.16,33.33L4.16,33.33z M6.959,33.33
	c0.02,11.637,9.438,21.051,21.072,21.072l0,0c11.637-0.021,21.051-9.436,21.072-21.072l0,0
	c-0.021-11.637-9.436-21.051-21.072-21.073l0,0C16.396,12.278,6.979,21.692,6.959,33.33L6.959,33.33z"/>
<polygon fill="#808080" points="9.797,62.796 9.797,60 46.271,60 46.271,62.796 9.797,62.796 "/>
<polygon fill="#C0C0C0" points="18.127,38.736 19.254,36.171 28.033,40.025 36.811,36.171 37.938,38.736 28.027,43.08 
	18.127,38.736 "/>
<g>
	<path fill="#C0C0C0" d="M21.328,29.481c-0.004-1.819-1.477-3.292-3.293-3.296l0,0c-1.822,0.004-3.295,1.477-3.295,3.296l0,0h-2.803
		c0-3.366,2.727-6.094,6.098-6.094l0,0c3.363,0,6.09,2.728,6.094,6.094l0,0H21.328L21.328,29.481z"/>
	<path fill="#C0C0C0" d="M41.328,29.48c-0.004-1.817-1.479-3.292-3.297-3.296l0,0c-1.82,0.004-3.291,1.479-3.295,3.296l0,0h0.004
		h-2.801c0-3.366,2.727-6.093,6.092-6.093l0,0c3.367,0,6.094,2.727,6.098,6.093l0,0H41.328L41.328,29.48z"/>
</g>
</svg>
