<?xml version="1.0" encoding="utf-8"?>
<!DOCTYPE svg PUBLIC "-//W3C//DTD SVG 1.1//EN" "http://www.w3.org/Graphics/SVG/1.1/DTD/svg11.dtd">
<svg version="1.1" id="Layer_1" xmlns="http://www.w3.org/2000/svg" xmlns:xlink="http://www.w3.org/1999/xlink" x="0px" y="0px"
	 width="81.909px" height="63.601px" viewBox="0 0 81.909 63.601" enable-background="new 0 0 81.909 63.601" xml:space="preserve">
<linearGradient id="gradient" gradientUnits="userSpaceOnUse" x1="17.1387" y1="63.601" x2="17.1387" y2="0">
	<stop  offset="0" style="stop-color:#404040"/>
	<stop  offset="1" style="stop-color:#A0A0A0"/>
</linearGradient>
<g>
	<path fill="#808080" d="M40.956,33.916c-6.816,0-12.85,3.334-16.613,8.455l0,0l-2.9-2.133c4.402-5.996,11.504-9.924,19.514-9.924
		l0,0c8.006,0,15.107,3.928,19.506,9.928l0,0l-2.904,2.129C53.794,37.246,47.769,33.916,40.956,33.916L40.956,33.916z
		 M40.956,18.755c-11.035,0-20.904,5.022-27.479,12.905l0,0l-2.765-2.307c7.222-8.662,18.103-14.2,30.243-14.2l0,0
		c12.141,0,23.014,5.538,30.23,14.2l0,0h0.006l-2.766,2.307C61.849,23.777,51.987,18.755,40.956,18.755L40.956,18.755z
		 M40.956,3.599c-15.23,0-28.902,6.718-38.253,17.352l0,0L0,18.573C9.995,7.201,24.655,0,40.956,0l0,0
		c16.301,0,30.957,7.201,40.947,18.573l0,0h0.006l-2.707,2.377C69.851,10.32,56.187,3.599,40.956,3.599L40.956,3.599z"/>
</g>
<path fill="#C0C0C0" d="M31.89,54.535c0-5.004,4.057-9.061,9.064-9.064l0,0c5.004,0.004,9.061,4.061,9.061,9.064l0,0
	c0,5.004-4.057,9.063-9.061,9.066l0,0C35.946,63.597,31.89,59.539,31.89,54.535L31.89,54.535z M35.489,54.535
	c0.008,3.016,2.447,5.457,5.465,5.463l0,0c3.016-0.006,5.453-2.447,5.461-5.463l0,0c-0.008-3.014-2.445-5.457-5.461-5.461l0,0
	C37.937,49.078,35.497,51.521,35.489,54.535L35.489,54.535z"/>
</svg>
