<?xml version="1.0" encoding="utf-8"?>
<!DOCTYPE svg PUBLIC "-//W3C//DTD SVG 1.1//EN" "http://www.w3.org/Graphics/SVG/1.1/DTD/svg11.dtd">
<svg version="1.1" id="Layer_1" xmlns="http://www.w3.org/2000/svg" xmlns:xlink="http://www.w3.org/1999/xlink" x="0px" y="0px"
	 width="40.955px" height="31.801px" viewBox="0 0 40.955 31.801" enable-background="new 0 0 40.955 31.801" xml:space="preserve">
<linearGradient id="gradient" gradientUnits="userSpaceOnUse" x1="17.1387" y1="31.801" x2="17.1387" y2="0">
	<stop  offset="0" style="stop-color:#404040"/>
	<stop  offset="1" style="stop-color:#A0A0A0"/>
</linearGradient>
<g>
	<path fill="#808080" d="M20.478,16.958c-3.408,0-6.425,1.667-8.307,4.228l0,0l-1.45-1.066c2.201-2.998,5.752-4.962,9.757-4.962l0,0
		c4.003,0,7.554,1.964,9.753,4.964l0,0l-1.452,1.064C26.897,18.623,23.884,16.958,20.478,16.958L20.478,16.958z M20.478,9.377
		c-5.518,0-10.452,2.511-13.739,6.452l0,0l-1.382-1.153c3.611-4.331,9.051-7.1,15.122-7.1l0,0c6.07,0,11.507,2.769,15.115,7.1l0,0
		h0.003l-1.383,1.153C30.924,11.889,25.994,9.377,20.478,9.377L20.478,9.377z M20.478,1.799c-7.615,0-14.451,3.359-19.126,8.676l0,0
		L0,9.287C4.998,3.601,12.328,0,20.478,0l0,0c8.15,0,15.479,3.601,20.474,9.287l0,0h0.003l-1.354,1.188
		C34.925,5.16,28.093,1.799,20.478,1.799L20.478,1.799z"/>
</g>
<path fill="#C0C0C0" d="M15.945,27.268c0-2.502,2.028-4.53,4.532-4.532l0,0c2.502,0.002,4.53,2.03,4.53,4.532l0,0
	c0,2.502-2.028,4.531-4.53,4.533l0,0C17.973,31.799,15.945,29.77,15.945,27.268L15.945,27.268z M17.745,27.268
	c0.004,1.508,1.224,2.729,2.732,2.73l0,0c1.508-0.002,2.727-1.223,2.73-2.73l0,0c-0.004-1.508-1.223-2.729-2.73-2.73l0,0
	C18.968,24.539,17.749,25.76,17.745,27.268L17.745,27.268z"/>
</svg>
