<?xml version="1.0" encoding="utf-8"?>
<!DOCTYPE svg PUBLIC "-//W3C//DTD SVG 1.1//EN" "http://www.w3.org/Graphics/SVG/1.1/DTD/svg11.dtd">
<svg version="1.1" id="Layer_1" xmlns="http://www.w3.org/2000/svg" xmlns:xlink="http://www.w3.org/1999/xlink" x="0px" y="0px"
	 width="97.57px" height="84.503px" viewBox="0 0 97.57 84.503" enable-background="new 0 0 97.57 84.503" xml:space="preserve">
<linearGradient id="gradient" gradientUnits="userSpaceOnUse" x1="17.1387" y1="84.503" x2="17.1387" y2="0">
	<stop  offset="0" style="stop-color:#404040"/>
	<stop  offset="1" style="stop-color:#A0A0A0"/>
</linearGradient>
<path fill="#C0C0C0" d="M54.787,84.503V63.966L70.05,41.158l1.338-2.004L97.57,84.503H54.787L54.787,84.503z M57.787,64.876v16.627
	h34.586L71.202,44.83L57.787,64.876L57.787,64.876z M69.996,42.742l1.297-0.747L69.996,42.742L69.996,42.742z M2.599,84.503H0
	l26.178-45.349L42.813,63.97v20.533H2.599L2.599,84.503z M39.812,81.503V64.88l-13.44-20.057L5.194,81.503H39.812L39.812,81.503z
	 M38.223,37.82H26.945L48.781,0l20.538,35.57l-1.298,0.752v-1.503v1.503l1.298-0.752l1.301,2.25H59.43L48.813,55.558L38.223,37.82
	L38.223,37.82z M32.143,34.819h7.783l8.893,14.893l8.907-14.893h7.695L48.781,6.006L32.143,34.819L32.143,34.819z"/>
</svg>
