<?xml version="1.0" encoding="utf-8"?>
<!DOCTYPE svg PUBLIC "-//W3C//DTD SVG 1.1//EN" "http://www.w3.org/Graphics/SVG/1.1/DTD/svg11.dtd">
<svg version="1.1" id="Layer_1" xmlns="http://www.w3.org/2000/svg" xmlns:xlink="http://www.w3.org/1999/xlink" x="0px" y="0px"
	 width="60.82px" height="63.074px" viewBox="0 0 60.82 63.074" enable-background="new 0 0 60.82 63.074" xml:space="preserve">
<linearGradient id="gradient" gradientUnits="userSpaceOnUse" x1="17.1387" y1="63.074" x2="17.1387" y2="0">
	<stop  offset="0" style="stop-color:#404040"/>
	<stop  offset="1" style="stop-color:#A0A0A0"/>
</linearGradient>
<path fill="#C0C0C0" d="M15.504,22.658C15.504,10.141,25.646,0,38.162,0l0,0C50.676,0,60.82,10.141,60.82,22.658l0,0
	c-0.004,12.513-10.145,22.654-22.658,22.658l0,0C25.646,45.312,15.504,35.171,15.504,22.658L15.504,22.658z M19.104,22.658
	c0.021,10.521,8.533,19.037,19.059,19.058l0,0c10.525-0.021,19.039-8.537,19.059-19.058l0,0C57.201,12.133,48.688,3.621,38.162,3.6
	l0,0C27.637,3.621,19.125,12.133,19.104,22.658L19.104,22.658z"/>
<polygon fill="#C0C0C0" points="27.264,24.457 27.264,20.857 49.063,20.857 49.063,24.457 27.264,24.457 "/>
<path fill="#808080" d="M22.002,38.527L0,60.529l2.545,2.545L24.738,40.88C23.768,40.164,22.846,39.386,22.002,38.527z"/>
</svg>
