<?xml version="1.0" encoding="utf-8"?>
<!DOCTYPE svg PUBLIC "-//W3C//DTD SVG 1.1//EN" "http://www.w3.org/Graphics/SVG/1.1/DTD/svg11.dtd">
<svg version="1.1" id="Layer_1" xmlns="http://www.w3.org/2000/svg" xmlns:xlink="http://www.w3.org/1999/xlink" x="0px" y="0px"
	 width="123.651px" height="98.339px" viewBox="0 0 123.651 98.339" enable-background="new 0 0 123.651 98.339"
	 xml:space="preserve">
<linearGradient id="gradient" gradientUnits="userSpaceOnUse" x1="17.1387" y1="98.339" x2="17.1387" y2="0">
	<stop offset="0" style="stop-color:#404040"/>
	<stop offset="1" style="stop-color:#A0A0A0"/>
</linearGradient>
<path fill="#808080" d="M104.614,85.168h-3.297H99.02l0.824-2.144c3.479-9.077,5.395-18.874,5.395-27.583
	c0-31.227-15.444-49.141-42.387-49.141h-2.061c-26.943,0-42.395,17.915-42.395,49.141c0,8.709,1.922,18.506,5.402,27.583
	l0.824,2.144h-2.297h-3.289C7.226,84.196,0,70.042,0,57.477c0-8.476,5.104-17.437,13.735-18.579C18.832,14.153,35.924,0,60.799,0
	h2.053c24.883,0,41.967,14.153,47.064,38.898c8.614,1.137,13.734,10.103,13.734,18.579c0,12.564-7.234,26.719-18.908,27.677
	l-0.061,0.004L104.614,85.168L104.614,85.168z"/>
<g>
	<polygon fill="#C0C0C0" points="22.761,64.075 23.288,55.441 29.805,55.176 28.744,64.245 	"/>
	<polygon fill="#C0C0C0" points="31.216,55.088 29.98,64.075 38.969,64.075 39.587,55 	"/>
	<polygon fill="#C0C0C0" points="41.166,55 40.556,64.513 50.063,64.075 50.681,55.088 	"/>
	<polygon fill="#C0C0C0" points="52.093,55.353 61.517,55.266 61.692,64.075 51.917,64.161 	"/>
	<polygon fill="#C0C0C0" points="63.104,64.161 62.928,55 72.352,54.913 72.436,64.245 	"/>
	<polygon fill="#C0C0C0" points="74.106,63.985 73.931,55.528 80.638,55.528 81.088,64.245 	"/>
	<polygon fill="#C0C0C0" points="82.577,64.075 82.225,55.793 92.961,55.793 94.022,64.073 	"/>
	<polygon fill="#C0C0C0" points="95.693,64.075 94.723,55.353 100.539,55.441 100.889,64.161 	"/>
	<polygon fill="#C0C0C0" points="23.555,53.678 26.195,44.342 33.681,44.52 31.979,53.659 	"/>
	<polygon fill="#C0C0C0" points="35.756,44.768 33.803,53.659 42.929,53.502 44.165,44.431 	"/>
	<polygon fill="#C0C0C0" points="46.095,44.342 45.134,53.766 54.641,53.944 55,44.52 	"/>
	<polygon fill="#C0C0C0" points="58.083,44.518 67.148,44.695 67.942,53.592 57.289,53.766 	"/>
	<polygon fill="#C0C0C0" points="70.322,53.766 69.62,44.869 78.959,44.958 79.486,53.766 	"/>
	<polygon fill="#C0C0C0" points="81.424,53.944 80.806,44.958 89.084,45.223 90.764,53.944 	"/>
	<polygon fill="#C0C0C0" points="92.877,53.766 91.198,45.136 98.6,45.399 100.707,53.592 	"/>
	<polygon fill="#C0C0C0" points="27.255,42.667 32.277,35.974 40.556,35.799 38.259,42.58 	"/>
	<polygon fill="#C0C0C0" points="42.311,35.623 40.197,42.669 49.712,42.755 50.856,35.974 	"/>
	<polygon fill="#C0C0C0" points="52.535,35.886 51.475,42.755 62.394,42.845 62.844,36.065 	"/>
	<polygon fill="#C0C0C0" points="64.333,35.974 73.321,36.329 74.106,43.198 64.333,43.11 	"/>
	<polygon fill="#C0C0C0" points="75.694,43.11 75.083,36.329 83.011,36.766 84.858,43.022 	"/>
	<polygon fill="#C0C0C0" points="87.147,43.198 85.034,36.68 92.877,36.766 97.364,43.814 	"/>
	<polygon fill="#C0C0C0" points="33.246,34.388 38.977,29.105 46.629,29.28 44.783,34.656 	"/>
	<polygon fill="#C0C0C0" points="48.834,29.37 46.721,34.302 57.022,34.564 57.992,29.28 	"/>
	<polygon fill="#C0C0C0" points="59.93,29.456 58.784,34.478 69.887,34.744 69.002,29.456 	"/>
	<polygon fill="#C0C0C0" points="70.764,29.723 78.609,29.897 80.096,34.831 71.734,34.744 	"/>
	<polygon fill="#C0C0C0" points="80.456,29.897 87.856,29.986 91.557,34.656 81.859,34.831 	"/>
	<polygon fill="#C0C0C0" points="41.784,27.783 46.98,24.171 54.733,24.347 52.535,27.959 	"/>
	<polygon fill="#C0C0C0" points="56.587,24.522 54.298,27.87 63.813,27.783 63.63,24.614 	"/>
	<polygon fill="#C0C0C0" points="54.641,21.442 49.537,23.29 59.312,23.465 59.402,21.267 	"/>
	<polygon fill="#C0C0C0" points="61.34,21.442 60.99,23.557 67.239,23.378 66.629,21.352 	"/>
	<polygon fill="#C0C0C0" points="68.04,21.442 68.834,23.378 75.175,23.643 70.589,21.618 	"/>
	<polygon fill="#C0C0C0" points="65.042,24.522 65.744,27.783 74.641,27.87 72.436,24.875 	"/>
	<polygon fill="#C0C0C0" points="74.381,25.052 75.87,27.783 83.622,28.045 78.776,25.229 	"/>
	<polygon fill="#C0C0C0" points="100.364,66.008 97.807,75.261 90.581,75.223 92.526,66.085 	"/>
	<polygon fill="#C0C0C0" points="88.627,74.978 90.465,66.085 81.073,66.098 79.836,75.177 	"/>
	<polygon fill="#C0C0C0" points="77.899,75.261 78.868,65.833 69.361,65.661 69.01,75.085 	"/>
	<polygon fill="#C0C0C0" points="65.926,75.085 56.854,74.911 56.061,66.008 66.72,65.839 	"/>
	<polygon fill="#C0C0C0" points="53.68,65.839 54.382,74.735 45.042,74.647 44.516,65.839 	"/>
	<polygon fill="#C0C0C0" points="42.578,65.661 43.196,74.647 34.917,74.375 33.246,65.661 	"/>
	<polygon fill="#C0C0C0" points="31.132,65.839 32.803,74.467 25.402,74.2 23.288,66.008 	"/>
	<polygon fill="#C0C0C0" points="96.753,76.932 91.733,83.627 83.446,83.803 85.743,77.024 	"/>
	<polygon fill="#C0C0C0" points="81.692,83.983 83.805,76.932 74.29,76.848 73.137,83.627 	"/>
	<polygon fill="#C0C0C0" points="71.474,83.715 72.528,76.848 61.601,76.764 61.165,83.54 	"/>
	<polygon fill="#C0C0C0" points="59.669,83.627 50.681,83.273 49.888,76.406 59.669,76.493 	"/>
	<polygon fill="#C0C0C0" points="48.308,76.493 48.918,83.273 40.999,82.838 39.144,76.581 	"/>
	<polygon fill="#C0C0C0" points="36.855,76.406 38.977,82.925 31.132,82.838 26.637,75.788 	"/>
	<polygon fill="#C0C0C0" points="90.764,85.211 85.034,90.499 77.373,90.323 79.227,84.952 	"/>
	<polygon fill="#C0C0C0" points="75.175,90.236 77.289,85.302 66.98,85.036 66.011,90.323 	"/>
	<polygon fill="#C0C0C0" points="64.073,90.144 65.217,85.124 54.123,84.86 55,90.144 	"/>
	<polygon fill="#C0C0C0" points="53.237,89.88 45.401,89.709 43.898,84.776 52.268,84.86 	"/>
	<polygon fill="#C0C0C0" points="43.547,89.709 36.153,89.618 32.453,84.952 42.143,84.776 	"/>
	<polygon fill="#C0C0C0" points="82.217,91.819 77.022,95.432 69.269,95.256 71.474,91.643 	"/>
	<polygon fill="#C0C0C0" points="67.422,95.077 69.711,91.731 60.196,91.819 60.372,94.993 	"/>
	<polygon fill="#C0C0C0" points="69.361,98.164 74.465,96.317 64.691,96.133 64.606,98.339 	"/>
	<polygon fill="#C0C0C0" points="62.668,98.164 63.02,96.053 56.762,96.222 57.374,98.248 	"/>
	<polygon fill="#C0C0C0" points="55.969,98.164 55.175,96.222 48.834,95.958 53.413,97.984 	"/>
	<polygon fill="#C0C0C0" points="58.96,95.077 58.258,91.819 49.361,91.731 51.566,94.733 	"/>
	<polygon fill="#C0C0C0" points="49.628,94.55 48.133,91.819 40.38,91.563 45.226,94.372 	"/>
</g>
</svg>
