<?xml version="1.0" encoding="utf-8"?>
<svg version="1.1" id="Layer_1" xmlns="http://www.w3.org/2000/svg" xmlns:xlink="http://www.w3.org/1999/xlink" x="0px" y="0px"
	 width="28.346px" height="28.347px" viewBox="0 0 28.346 28.347" enable-background="new 0 0 28.346 28.347" xml:space="preserve">
<linearGradient id="gradient" gradientUnits="userSpaceOnUse" x1="17.1387" y1="28.3467" x2="17.1387" y2="4.882813e-004">
	<stop  offset="0" style="stop-color:#404040"/>
	<stop  offset="1" style="stop-color:#A0A0A0"/>
</linearGradient>
<path fill="#C0C0C0" d="M0,0v13.321h13.321V0H0z M8.538,11.193l-0.09-0.298L7.908,9.129H5.368l-0.542,1.767l-0.091,0.297H2.7
	l0.179-0.551l2.673-8.223l0.094-0.291h2.043L7.783,2.42l2.661,8.224l0.177,0.55H8.538z M5.898,7.368h1.478l-0.734-2.43L5.898,7.368z
	"/>
<path fill="#808080" d="M22.282,5.395c0.152-0.125,0.229-0.359,0.229-0.697c0-0.458-0.176-0.579-0.233-0.619
	c-0.206-0.142-0.516-0.213-0.92-0.213h-0.881v1.749h0.976C21.828,5.614,22.109,5.541,22.282,5.395z M22.495,7.557
	c-0.104-0.077-0.234-0.134-0.389-0.171c-0.171-0.04-0.363-0.06-0.569-0.06h-1.06v2.119h1.011c0.179,0,0.36-0.016,0.545-0.048
	c0.158-0.026,0.298-0.077,0.428-0.154c0.108-0.067,0.197-0.161,0.269-0.286c0.07-0.122,0.106-0.294,0.106-0.512
	c0-0.237-0.035-0.431-0.1-0.575C22.674,7.735,22.596,7.634,22.495,7.557z M15.025,0v13.321h13.321V0H15.025z M24.542,9.765
	c-0.213,0.354-0.497,0.646-0.849,0.864c-0.346,0.212-0.729,0.36-1.143,0.444c-0.394,0.079-0.803,0.12-1.217,0.12H18.5V2.129h2.653
	c0.396,0,0.774,0.034,1.155,0.102c0.403,0.073,0.766,0.203,1.08,0.386c0.331,0.19,0.603,0.454,0.807,0.777
	c0.209,0.335,0.315,0.75,0.315,1.233c0,0.318-0.053,0.607-0.156,0.859c-0.104,0.248-0.241,0.465-0.411,0.646
	c-0.074,0.078-0.153,0.15-0.237,0.216c0.154,0.086,0.301,0.188,0.436,0.309c0.216,0.191,0.395,0.435,0.527,0.725
	c0.134,0.293,0.2,0.643,0.2,1.04C24.87,8.947,24.758,9.399,24.542,9.765z"/>
<path fill="#808080" d="M0,15.025v13.321h13.321V15.025H0z M9.806,25.324c-0.289,0.279-0.644,0.515-1.089,0.722
	C8.267,26.254,7.72,26.36,7.09,26.36c-0.548,0-1.066-0.104-1.54-0.31c-0.484-0.21-0.901-0.524-1.241-0.934
	c-0.337-0.402-0.601-0.9-0.789-1.477c-0.183-0.567-0.277-1.229-0.277-1.961c0-0.739,0.101-1.402,0.298-1.969
	c0.196-0.572,0.472-1.066,0.819-1.469c0.354-0.408,0.769-0.717,1.234-0.922c0.464-0.205,0.963-0.31,1.481-0.31
	c0.287,0,0.552,0.021,0.786,0.06c0.233,0.039,0.458,0.098,0.672,0.174c0.214,0.082,0.416,0.182,0.601,0.299
	c0.173,0.109,0.346,0.234,0.516,0.371l0.341,0.27L9.71,18.516l-0.618,0.729l-0.27,0.316l-0.319-0.268
	C8.093,18.95,7.65,18.784,7.15,18.784c-0.247,0-0.484,0.048-0.709,0.14c-0.218,0.092-0.402,0.232-0.561,0.434
	c-0.174,0.215-0.314,0.51-0.42,0.878c-0.113,0.379-0.169,0.865-0.169,1.444c0,0.561,0.052,1.034,0.158,1.408
	c0.1,0.364,0.236,0.658,0.405,0.879c0.161,0.206,0.346,0.354,0.559,0.45c0.225,0.099,0.462,0.146,0.726,0.146
	c0.361,0,0.654-0.057,0.868-0.168c0.248-0.127,0.463-0.27,0.645-0.43l0.333-0.293l0.275,0.349l0.584,0.741l0.234,0.296L9.806,25.324
	z"/>
<path fill="#C0C0C0" d="M22.281,19.331c-0.193-0.177-0.402-0.288-0.634-0.339c-0.274-0.061-0.541-0.092-0.791-0.092h-0.534v5.58
	h0.546c0.261,0,0.526-0.041,0.785-0.119c0.236-0.071,0.445-0.198,0.635-0.39c0.194-0.194,0.36-0.476,0.488-0.835
	c0.133-0.374,0.201-0.876,0.201-1.493c0-0.646-0.07-1.159-0.207-1.523C22.638,19.771,22.475,19.506,22.281,19.331z M15.025,15.025
	v13.321h13.321V15.025H15.025z M24.635,23.896c-0.258,0.593-0.604,1.072-1.032,1.422c-0.422,0.345-0.896,0.585-1.41,0.715
	c-0.484,0.122-0.976,0.185-1.457,0.185h-2.389v-9.063h2.26c0.52,0,1.038,0.055,1.543,0.164c0.535,0.114,1.023,0.342,1.451,0.674
	c0.434,0.338,0.783,0.813,1.042,1.407c0.253,0.589,0.381,1.343,0.381,2.244C25.024,22.551,24.893,23.31,24.635,23.896z"/>
</svg>
