<?xml version="1.0" encoding="utf-8"?>
<!DOCTYPE svg PUBLIC "-//W3C//DTD SVG 1.1//EN" "http://www.w3.org/Graphics/SVG/1.1/DTD/svg11.dtd">
<svg version="1.1" id="Layer_1" xmlns="http://www.w3.org/2000/svg" xmlns:xlink="http://www.w3.org/1999/xlink" x="0px" y="0px"
	 width="185.911px" height="200px" viewBox="0 0 185.911 200" enable-background="new 0 0 185.911 200" xml:space="preserve">
<linearGradient id="gradient" gradientUnits="userSpaceOnUse" x1="17.1387" y1="200" x2="17.1387" y2="0">
	<stop  offset="0" style="stop-color:#404040"/>
	<stop  offset="1" style="stop-color:#A0A0A0"/>
</linearGradient>
<path fill="#808080" d="M0,84.253l0.093-37.617C0.093,20.915,21.02,0,46.744,0c8.357,0,16.211,2.211,23.012,6.077L69.742,6.08
	l1.207,0.696c13.441,8.199,22.434,22.992,22.434,39.859c0,4.386-0.6,8.637-1.75,12.664L73.926,49.078
	c-21.498-12.412-39.088-2.26-39.088,22.572v24.998c-5.871,1.216-11.658,3.387-17.145,6.549C10.539,107.321,4.606,112.754,0,119.004
	V84.253z M102.596,175.041l-32.619,18.715c-22.262,12.863-50.859,5.209-63.713-17.061c-12.857-22.283-5.206-50.867,17.08-63.725
	c3.688-2.136,7.559-3.703,11.494-4.736v20.002c0,24.832,17.59,34.988,39.088,22.572l21.848-12.605
	c4.059,4.605,8.916,8.664,14.545,11.91c7.18,4.148,14.877,6.559,22.615,7.42L102.596,175.041z M179.676,123.256
	c-12.863,22.281-41.445,29.924-63.721,17.076c-3.824-2.211-7.213-4.902-10.148-7.93l17.135-9.889
	c21.512-12.412,21.512-32.731,0-45.144l-21.277-12.278c1.943-5.806,3.006-12,3.006-18.456c0-8.306-1.736-16.206-4.9-23.348
	l30.297,17.36l32.529,18.886C184.879,72.398,192.525,100.979,179.676,123.256z"/>
<path fill="#C0C0C0" d="M117.299,87.146c6.662,3.849,10.486,8.506,10.486,12.796c0,4.278-3.824,8.953-10.486,12.798l-49.01,28.291
	c-4.293,2.48-8.344,3.797-11.727,3.797c-9.074,0-10.432-10.391-10.432-16.592V71.65c0-6.201,1.357-16.591,10.432-16.591
	c3.383,0,7.434,1.309,11.727,3.786L117.299,87.146z"/>
</svg>
