<?xml version="1.0" encoding="utf-8"?>
<svg version="1.1" id="Layer_1" xmlns="http://www.w3.org/2000/svg" xmlns:xlink="http://www.w3.org/1999/xlink" x="0px" y="0px"
	 width="28.784px" height="28.347px" viewBox="0 0 28.784 28.347" enable-background="new 0 0 28.784 28.347" xml:space="preserve">
<linearGradient id="gradient" gradientUnits="userSpaceOnUse" x1="17.1387" y1="28.3467" x2="17.1387" y2="4.882813e-004">
	<stop  offset="0" style="stop-color:#404040"/>
	<stop  offset="1" style="stop-color:#A0A0A0"/>
</linearGradient>
<g id="_Group_2">
	<path id="_Path_" fill="#C0C0C0" d="M5.122,24.931l0.634-0.732c0.146-0.145,0.146-0.39,0-0.537
		C0.633,18.929,0.292,10.879,5.073,5.757c4.782-5.124,12.783-5.465,17.906-0.683c5.122,4.781,5.465,12.782,0.684,17.905
		c-0.245,0.244-0.44,0.489-0.684,0.683c-0.146,0.147-0.146,0.393,0,0.537l0.635,0.732c0.146,0.146,0.39,0.146,0.536,0.049l0,0
		c5.854-5.416,6.196-14.491,0.83-20.346c-5.416-5.855-14.491-6.196-20.346-0.83C-1.22,9.172-1.562,18.295,3.805,24.151
		c0.244,0.293,0.536,0.536,0.829,0.829C4.781,25.077,4.976,25.077,5.122,24.931z"/>
	<path id="_Path_2" fill="#C0C0C0" d="M5.756,14.393c0-4.733,3.854-8.588,8.586-8.588c4.734,0,8.586,3.903,8.586,8.636
		c0,2.342-0.975,4.635-2.683,6.245c-0.146,0.146-0.146,0.391,0,0.537l0.635,0.731c0.146,0.147,0.39,0.195,0.536,0.05l0,0
		c4.147-3.904,4.343-10.393,0.488-14.541c-3.854-4.146-10.393-4.342-14.54-0.488C3.219,10.831,2.976,17.32,6.83,21.467
		c0.146,0.146,0.293,0.341,0.488,0.487c0.146,0.147,0.391,0.147,0.537,0l0,0l0.634-0.731c0.146-0.146,0.146-0.391,0-0.537
		C6.781,19.076,5.756,16.783,5.756,14.393z"/>
	<path id="_Path_3" fill="#C0C0C0" d="M9.855,14.393c0-2.489,2-4.49,4.488-4.49c2.49,0,4.489,2.001,4.489,4.49
		c0,1.22-0.487,2.341-1.365,3.22c-0.147,0.146-0.147,0.39,0,0.536l0.634,0.732c0.146,0.146,0.391,0.146,0.537,0l0,0
		c2.438-2.392,2.537-6.294,0.146-8.782c-2.392-2.489-6.294-2.538-8.783-0.146c-2.488,2.39-2.538,6.294-0.146,8.782
		c0.048,0.049,0.097,0.097,0.146,0.146c0.146,0.146,0.39,0.146,0.536,0l0,0l0.635-0.732c0.146-0.146,0.146-0.39,0-0.536
		C10.343,16.783,9.855,15.613,9.855,14.393z"/>
</g>
<path id="_Path_4" fill="#808080" d="M23.37,27.371l-8.49-9.661c-0.244-0.292-0.634-0.292-0.927-0.048l-0.048,0.048l-8.587,9.661
	c-0.195,0.243-0.195,0.586,0.049,0.829c0.098,0.098,0.244,0.147,0.341,0.147h17.222c0.293,0,0.586-0.244,0.586-0.586
	C23.515,27.614,23.467,27.468,23.37,27.371z"/>
</svg>
