<?xml version="1.0" encoding="utf-8"?>
<!DOCTYPE svg PUBLIC "-//W3C//DTD SVG 1.1//EN" "http://www.w3.org/Graphics/SVG/1.1/DTD/svg11.dtd">
<svg version="1.1" id="Layer_1" xmlns="http://www.w3.org/2000/svg" xmlns:xlink="http://www.w3.org/1999/xlink" x="0px" y="0px"
	 width="203.082px" height="200px" viewBox="0 0 203.082 200" enable-background="new 0 0 203.082 200" xml:space="preserve">
<linearGradient id="gradient" gradientUnits="userSpaceOnUse" x1="17.1387" y1="200" x2="17.1387" y2="0">
	<stop  offset="0" style="stop-color:#404040"/>
	<stop  offset="1" style="stop-color:#A0A0A0"/>
</linearGradient>
<path id="_Path__1_" fill="#C0C0C0" d="M36.138,175.898l4.475-5.166c1.033-1.02,1.033-2.75,0-3.791
	C4.468,133.552,2.06,76.758,35.793,40.617c33.737-36.148,90.19-38.556,126.331-4.819c36.139,33.733,38.557,90.183,4.824,126.329
	c-1.73,1.721-3.107,3.451-4.824,4.814c-1.033,1.041-1.033,2.771,0,3.791l4.479,5.166c1.035,1.027,2.75,1.027,3.783,0.346l0,0
	c41.305-38.213,43.717-102.237,5.857-143.547C138.03-8.612,74.001-11.02,32.692,26.844c-41.302,37.867-43.713,102.237-5.85,143.55
	c1.723,2.066,3.783,3.781,5.85,5.85C33.729,176.925,35.107,176.925,36.138,175.898z"/>
<path id="_Path_2_1_" fill="#C0C0C0" d="M40.612,101.548c0-33.396,27.191-60.59,60.58-60.59c33.396,0,60.58,27.539,60.58,60.928
	c0,16.521-6.875,32.699-18.926,44.063c-1.027,1.033-1.027,2.756,0,3.789l4.479,5.16c1.033,1.041,2.748,1.379,3.783,0.352l0,0
	c29.262-27.547,30.639-73.327,3.443-102.589c-27.197-29.255-73.322-30.633-102.58-3.441c-29.263,27.194-30.979,72.979-3.787,102.241
	c1.031,1.033,2.066,2.404,3.441,3.438c1.031,1.041,2.756,1.041,3.789,0l0,0l4.477-5.16c1.029-1.033,1.029-2.756,0-3.789
	C47.841,134.585,40.612,118.408,40.612,101.548z"/>
<path id="_Path_3_1_" fill="#C0C0C0" d="M69.53,101.548c0-17.559,14.107-31.677,31.662-31.677c17.563,0,31.67,14.118,31.67,31.677
	c0,8.605-3.441,16.516-9.631,22.717c-1.037,1.033-1.037,2.748,0,3.783l4.471,5.166c1.037,1.035,2.752,1.035,3.787,0l0,0
	c17.207-16.873,17.902-44.408,1.033-61.961C115.651,53.694,88.116,53.35,70.56,70.22c-17.551,16.863-17.902,44.406-1.029,61.961
	c0.338,0.346,0.686,0.684,1.029,1.033c1.033,1.035,2.754,1.035,3.783,0l0,0l4.479-5.166c1.033-1.035,1.033-2.75,0-3.783
	C72.972,118.408,69.53,110.154,69.53,101.548z"/>
<path id="_Path_4_1_" fill="#808080" d="M164.88,193.111l-59.896-68.164c-1.723-2.061-4.477-2.061-6.543-0.338l-0.342,0.338
	l-60.586,68.164c-1.375,1.715-1.375,4.133,0.348,5.848c0.688,0.689,1.719,1.041,2.404,1.041h121.508
	c2.068,0,4.135-1.723,4.135-4.133C165.907,194.826,165.569,193.798,164.88,193.111z"/>
</svg>
