<?xml version="1.0" encoding="utf-8"?>
<!DOCTYPE svg PUBLIC "-//W3C//DTD SVG 1.1//EN" "http://www.w3.org/Graphics/SVG/1.1/DTD/svg11.dtd">
<svg version="1.1" id="Layer_1" xmlns="http://www.w3.org/2000/svg" xmlns:xlink="http://www.w3.org/1999/xlink" x="0px" y="0px"
	 width="297.824px" height="200.001px" viewBox="0 0 297.824 200.001" enable-background="new 0 0 297.824 200.001"
	 xml:space="preserve">
<linearGradient id="gradient" gradientUnits="userSpaceOnUse" x1="17.1387" y1="200.001" x2="17.1387" y2="0">
	<stop  offset="0" style="stop-color:#404040"/>
	<stop  offset="1" style="stop-color:#A0A0A0"/>
</linearGradient>
<path fill="#C0C0C0" d="M235.365,100.006c0-16.678-13.299-30.211-29.863-30.658v18.114c6.572,0.438,11.789,5.856,11.789,12.544
	c0,6.68-5.217,12.096-11.789,12.533v18.118C222.066,130.213,235.365,116.673,235.365,100.006z M205.502,6.867v56.135
	c20.064,0.44,36.209,16.822,36.209,37.004c0,20.178-16.145,36.556-36.209,37v56.129c51.057-0.445,92.322-41.962,92.322-93.129
	C297.824,48.828,256.559,7.314,205.502,6.867z"/>
<g>
	<path fill="#808080" d="M0,0v200.001h200.01V0H0z M123.895,73.771c-14.746-9.188-17.957-17.694-17.957-17.694v88.171
		c0,10.287-11.699,18.624-26.135,18.624c-14.428,0-26.135-8.337-26.135-18.624c0-10.294,11.707-18.635,26.135-18.635
		c6.91,0,13.182,1.93,17.846,5.051V37.129h8.289c0,0,2.639,8.537,21.332,19.104c19.154,10.834,18.418,28.542,19.066,43.043
		C141.885,88.385,134.291,80.244,123.895,73.771z"/>
</g>
</svg>
