<?xml version="1.0" encoding="utf-8"?>
<!DOCTYPE svg PUBLIC "-//W3C//DTD SVG 1.1//EN" "http://www.w3.org/Graphics/SVG/1.1/DTD/svg11.dtd">
<svg version="1.1" id="Layer_1" xmlns="http://www.w3.org/2000/svg" xmlns:xlink="http://www.w3.org/1999/xlink" x="0px" y="0px"
	 width="55.872px" height="63.2px" viewBox="0 0 55.872 63.2" enable-background="new 0 0 55.872 63.2" xml:space="preserve">
<linearGradient id="gradient" gradientUnits="userSpaceOnUse" x1="17.1387" y1="63.2" x2="17.1387" y2="0">
	<stop  offset="0" style="stop-color:#404040"/>
	<stop  offset="1" style="stop-color:#A0A0A0"/>
</linearGradient>
<rect y="60.335" fill="#C0C0C0" width="55.872" height="2.865"/>
<rect x="2.204" y="54.823" fill="#C0C0C0" width="51.574" height="3.969"/>
<rect x="1.874" y="9.643" fill="#C0C0C0" width="51.299" height="5.511"/>
<polygon fill="#C0C0C0" points="27.522,0 0.662,6.281 2.204,7.99 27.522,7.99 52.841,7.99 54.384,6.281 "/>
<path fill="#808080" d="M9.272,32.596c-0.044-2.706-0.114-5.412-0.22-8.116c-0.1-2.548-0.264-5.094-0.388-7.641
	c-0.011-0.22-0.104-0.268-0.287-0.307c-0.752-0.164-1.506-0.241-2.266-0.242c-0.759,0.001-1.514,0.078-2.265,0.242
	c-0.183,0.039-0.275,0.087-0.286,0.307c-0.125,2.547-0.289,5.093-0.39,7.641c-0.105,2.704-0.175,5.41-0.22,8.116
	c-0.031,1.917-0.011,3.837,0.019,5.755c0.033,2.129,0.08,4.258,0.167,6.383c0.093,2.281,0.235,4.563,0.361,6.844
	c0.023,0.438,0.068,0.871,0.103,1.297c0.842,0.219,1.678,0.346,2.511,0.357c0.834-0.012,1.67-0.139,2.512-0.357
	c0.034-0.426,0.078-0.861,0.103-1.297c0.126-2.281,0.269-4.563,0.361-6.844c0.086-2.125,0.133-4.254,0.166-6.383
	C9.285,36.433,9.304,34.513,9.272,32.596z"/>
<path fill="#808080" d="M23.239,32.596c-0.043-2.706-0.113-5.412-0.221-8.116c-0.098-2.548-0.264-5.094-0.387-7.641
	c-0.012-0.22-0.104-0.268-0.287-0.307c-0.752-0.164-1.506-0.241-2.266-0.242c-0.758,0.001-1.514,0.078-2.266,0.242
	c-0.182,0.039-0.275,0.087-0.285,0.307c-0.125,2.547-0.289,5.093-0.387,7.641c-0.107,2.704-0.178,5.41-0.223,8.116
	c-0.029,1.917-0.012,3.837,0.02,5.755c0.033,2.129,0.08,4.258,0.166,6.383c0.094,2.281,0.236,4.563,0.361,6.844
	c0.023,0.438,0.068,0.871,0.102,1.297c0.844,0.219,1.678,0.346,2.512,0.357c0.836-0.012,1.67-0.139,2.512-0.357
	c0.033-0.426,0.08-0.861,0.102-1.297c0.127-2.281,0.27-4.563,0.361-6.844c0.088-2.125,0.135-4.254,0.168-6.383
	C23.253,36.433,23.271,34.513,23.239,32.596z"/>
<path fill="#808080" d="M39.438,32.596c-0.045-2.706-0.113-5.412-0.221-8.116c-0.1-2.548-0.264-5.094-0.387-7.641
	c-0.012-0.22-0.105-0.268-0.287-0.307c-0.752-0.164-1.506-0.241-2.266-0.242c-0.758,0.001-1.514,0.078-2.266,0.242
	c-0.182,0.039-0.275,0.087-0.285,0.307c-0.125,2.547-0.289,5.093-0.389,7.641c-0.107,2.704-0.176,5.41-0.221,8.116
	c-0.031,1.917-0.012,3.837,0.02,5.755c0.033,2.129,0.08,4.258,0.166,6.383c0.094,2.281,0.236,4.563,0.361,6.844
	c0.023,0.438,0.068,0.871,0.102,1.297c0.842,0.219,1.676,0.346,2.512,0.357c0.834-0.012,1.67-0.139,2.512-0.357
	c0.035-0.426,0.078-0.861,0.102-1.297c0.127-2.281,0.27-4.563,0.361-6.844c0.086-2.125,0.133-4.254,0.166-6.383
	C39.45,36.433,39.47,34.513,39.438,32.596z"/>
<path fill="#808080" d="M53.075,32.596c-0.045-2.706-0.115-5.412-0.221-8.116c-0.1-2.548-0.264-5.094-0.389-7.641
	c-0.01-0.22-0.104-0.268-0.285-0.307c-0.752-0.164-1.508-0.241-2.266-0.242c-0.758,0.001-1.514,0.078-2.266,0.242
	c-0.184,0.039-0.275,0.087-0.287,0.307c-0.123,2.547-0.287,5.093-0.387,7.641c-0.105,2.704-0.178,5.41-0.221,8.116
	c-0.031,1.917-0.012,3.837,0.02,5.755c0.031,2.129,0.08,4.258,0.166,6.383c0.094,2.281,0.234,4.563,0.359,6.844
	c0.025,0.438,0.07,0.871,0.104,1.297c0.844,0.219,1.676,0.346,2.512,0.357c0.834-0.012,1.668-0.139,2.512-0.357
	c0.033-0.426,0.078-0.861,0.102-1.297c0.127-2.281,0.268-4.563,0.361-6.844c0.086-2.125,0.133-4.254,0.168-6.383
	C53.087,36.433,53.106,34.513,53.075,32.596z"/>
</svg>
