<?xml version="1.0" encoding="utf-8"?>
<!DOCTYPE svg PUBLIC "-//W3C//DTD SVG 1.1//EN" "http://www.w3.org/Graphics/SVG/1.1/DTD/svg11.dtd">
<svg version="1.1" id="Layer_1" xmlns="http://www.w3.org/2000/svg" xmlns:xlink="http://www.w3.org/1999/xlink" x="0px" y="0px"
	 width="27.936px" height="31.6px" viewBox="0 0 27.936 31.6" enable-background="new 0 0 27.936 31.6" xml:space="preserve">
<linearGradient id="gradient" gradientUnits="userSpaceOnUse" x1="17.1387" y1="31.6" x2="17.1387" y2="0">
	<stop  offset="0" style="stop-color:#404040"/>
	<stop  offset="1" style="stop-color:#A0A0A0"/>
</linearGradient>
<rect y="30.167" fill="#C0C0C0" width="27.936" height="1.433"/>
<rect x="1.102" y="27.412" fill="#C0C0C0" width="25.787" height="1.984"/>
<rect x="0.937" y="4.821" fill="#C0C0C0" width="25.649" height="2.755"/>
<polygon fill="#C0C0C0" points="13.761,0 0.331,3.141 1.102,3.995 13.761,3.995 26.42,3.995 27.192,3.141 "/>
<path fill="#808080" d="M4.636,16.298c-0.022-1.353-0.057-2.706-0.11-4.058c-0.05-1.274-0.132-2.547-0.194-3.82
	C4.327,8.31,4.28,8.286,4.189,8.266C3.813,8.184,3.436,8.146,3.056,8.145c-0.379,0-0.757,0.039-1.132,0.121
	C1.833,8.286,1.786,8.31,1.781,8.419c-0.063,1.273-0.145,2.546-0.195,3.82c-0.053,1.352-0.087,2.705-0.11,4.058
	c-0.016,0.958-0.005,1.918,0.009,2.877c0.017,1.064,0.04,2.129,0.083,3.191c0.046,1.141,0.118,2.281,0.181,3.422
	c0.012,0.219,0.034,0.436,0.051,0.648c0.421,0.109,0.839,0.173,1.255,0.179c0.417-0.006,0.835-0.069,1.256-0.179
	c0.017-0.213,0.039-0.431,0.051-0.648c0.063-1.141,0.134-2.281,0.181-3.422c0.043-1.063,0.066-2.127,0.083-3.191
	C4.643,18.216,4.652,17.256,4.636,16.298z"/>
<path fill="#808080" d="M11.62,16.298c-0.021-1.353-0.057-2.706-0.11-4.058c-0.049-1.274-0.132-2.547-0.193-3.82
	c-0.006-0.11-0.052-0.134-0.144-0.153c-0.376-0.082-0.753-0.121-1.133-0.121c-0.379,0-0.757,0.039-1.133,0.121
	C8.816,8.286,8.769,8.31,8.764,8.419c-0.063,1.273-0.145,2.546-0.193,3.82c-0.054,1.352-0.089,2.705-0.111,4.058
	c-0.015,0.958-0.006,1.918,0.01,2.877c0.017,1.064,0.04,2.129,0.083,3.191c0.047,1.141,0.118,2.281,0.181,3.422
	c0.012,0.219,0.034,0.436,0.051,0.648c0.422,0.109,0.839,0.173,1.256,0.179c0.418-0.006,0.835-0.069,1.256-0.179
	c0.017-0.213,0.04-0.431,0.051-0.648c0.063-1.141,0.135-2.281,0.181-3.422c0.044-1.063,0.067-2.127,0.084-3.191
	C11.626,18.216,11.635,17.256,11.62,16.298z"/>
<path fill="#808080" d="M19.719,16.298c-0.022-1.353-0.057-2.706-0.11-4.058c-0.05-1.274-0.132-2.547-0.193-3.82
	c-0.006-0.11-0.053-0.134-0.144-0.153c-0.376-0.082-0.753-0.121-1.133-0.121c-0.379,0-0.757,0.039-1.133,0.121
	c-0.091,0.02-0.138,0.043-0.143,0.153c-0.063,1.273-0.145,2.546-0.194,3.82c-0.054,1.352-0.088,2.705-0.11,4.058
	c-0.016,0.958-0.006,1.918,0.01,2.877c0.017,1.064,0.04,2.129,0.083,3.191c0.047,1.141,0.118,2.281,0.181,3.422
	c0.012,0.219,0.034,0.436,0.051,0.648c0.421,0.109,0.838,0.173,1.256,0.179c0.417-0.006,0.835-0.069,1.256-0.179
	c0.018-0.213,0.039-0.431,0.051-0.648c0.063-1.141,0.135-2.281,0.181-3.422c0.043-1.063,0.066-2.127,0.083-3.191
	C19.725,18.216,19.735,17.256,19.719,16.298z"/>
<path fill="#808080" d="M26.538,16.298c-0.022-1.353-0.058-2.706-0.11-4.058c-0.05-1.274-0.132-2.547-0.194-3.82
	c-0.005-0.11-0.052-0.134-0.143-0.153c-0.376-0.082-0.754-0.121-1.133-0.121c-0.379,0-0.757,0.039-1.133,0.121
	c-0.092,0.02-0.138,0.043-0.144,0.153c-0.062,1.273-0.144,2.546-0.193,3.82c-0.053,1.352-0.089,2.705-0.11,4.058
	c-0.016,0.958-0.006,1.918,0.01,2.877c0.016,1.064,0.04,2.129,0.083,3.191c0.047,1.141,0.117,2.281,0.18,3.422
	c0.013,0.219,0.035,0.436,0.052,0.648c0.422,0.109,0.838,0.173,1.256,0.179c0.417-0.006,0.834-0.069,1.256-0.179
	c0.017-0.213,0.039-0.431,0.051-0.648c0.063-1.141,0.134-2.281,0.181-3.422c0.043-1.063,0.066-2.127,0.084-3.191
	C26.543,18.216,26.553,17.256,26.538,16.298z"/>
</svg>
