<?xml version="1.0" encoding="utf-8"?>
<!DOCTYPE svg PUBLIC "-//W3C//DTD SVG 1.1//EN" "http://www.w3.org/Graphics/SVG/1.1/DTD/svg11.dtd">
<svg version="1.1" id="Layer_1" xmlns="http://www.w3.org/2000/svg" xmlns:xlink="http://www.w3.org/1999/xlink" x="0px" y="0px"
	 width="262.174px" height="200px" viewBox="0 0 262.174 200" enable-background="new 0 0 262.174 200" xml:space="preserve">
<linearGradient id="gradient" gradientUnits="userSpaceOnUse" x1="17.1387" y1="200" x2="17.1387" y2="0">
	<stop  offset="0" style="stop-color:#404040"/>
	<stop  offset="1" style="stop-color:#A0A0A0"/>
</linearGradient>
<path fill="#808080" d="M139.766,124.791c-10.672,6.707-23.088,10.642-36.393,10.642c-13.299,0-25.715-3.935-36.387-10.642
	C28.822,136.362,1.398,165.498,0,200h206.752C205.361,165.498,177.932,136.362,139.766,124.791z"/>
<path fill="#C0C0C0" d="M159.355,59.975C159.355,26.854,134.295,0,103.379,0S47.404,26.854,47.404,59.975
	c0,33.114,25.059,59.976,55.975,59.976S159.355,93.089,159.355,59.975z"/>
<path fill="#C0C0C0" d="M257.986,125.328l-15.605-4.527l1.15-3.979l-23.102-6.697l-1.15,3.979l-20.037-5.805
	c-0.055,1.93-0.27,3.869-0.834,5.805c-0.559,1.937-1.412,3.69-2.398,5.348l20.031,5.808l-1.152,3.982l8.055,2.34V200h9.131v-65.776
	l5.918,1.715l1.15-3.982l15.605,4.523c3.08,0.893,6.305-0.882,7.193-3.958C262.838,129.438,261.066,126.221,257.986,125.328z"/>
<path fill="#808080" d="M180.996,90.054c-9.68-2.804-19.801,2.767-22.605,12.444c-2.811,9.684,2.764,19.802,12.443,22.609
	c9.68,2.805,19.803-2.767,22.607-12.447C196.244,102.983,190.67,92.858,180.996,90.054z"/>
</svg>
