<?xml version="1.0" encoding="utf-8"?>
<!DOCTYPE svg PUBLIC "-//W3C//DTD SVG 1.1//EN" "http://www.w3.org/Graphics/SVG/1.1/DTD/svg11.dtd">
<svg version="1.1" id="Layer_1" xmlns="http://www.w3.org/2000/svg" xmlns:xlink="http://www.w3.org/1999/xlink" x="0px" y="0px"
	 width="126.961px" height="113.385px" viewBox="0 0 126.961 113.385" enable-background="new 0 0 126.961 113.385"
	 xml:space="preserve">
<linearGradient id="gradient" gradientUnits="userSpaceOnUse" x1="17.1387" y1="113.385" x2="17.1387" y2="0">
	<stop  offset="0" style="stop-color:#404040"/>
	<stop  offset="1" style="stop-color:#A0A0A0"/>
</linearGradient>
<path fill="#808080" d="M40.367,70.01h-9.871c-2.867,0-5.203-2.336-5.203-5.201V47.787c0-2.865,2.336-5.201,5.203-5.201h9.871V70.01
	L40.367,70.01z"/>
<path fill="#808080" d="M63.73,88.986c-0.805,0-1.766-0.373-2.77-1.07L45.148,70.734V41.863l16.004-17.34
	c0.813-0.539,1.773-0.912,2.578-0.912c2.215,0,2.387,2.885,2.387,3.764v57.84C66.117,86.102,65.945,88.986,63.73,88.986
	L63.73,88.986z"/>
<path fill="#C0C0C0" d="M80.223,0c-9.277,0-15.25,4.309-16.574,7.957H63.32C61.996,4.309,56.023,0,46.742,0
	C37.457,0,19.23,7.623,0,4.309v103.572h55.328c0.492,3.098,3.934,5.504,8.152,5.504s7.66-2.406,8.152-5.504h55.328V4.309
	C107.734,7.623,89.504,0,80.223,0z M70.648,85.221c0,5.727-3.477,8.297-6.918,8.297c-1.758,0-3.563-0.637-5.355-1.879L58.07,91.42
	l-0.258-0.273L42.5,74.549H30.492c-5.367,0-9.742-4.375-9.742-9.744V47.789c0-5.369,4.375-9.734,9.742-9.734h12.004L57.82,21.453
	l0.25-0.273l0.305-0.217c1.793-1.252,3.598-1.881,5.367-1.881c3.438,0,6.906,2.57,6.906,8.299V85.221z M76.191,80.807l-1.301,0.195
	v-5.088l0.938-0.162c9.523-1.621,16.441-9.801,16.441-19.451c0-9.648-6.918-17.83-16.441-19.455l-0.938-0.162v-5.09l1.301,0.193
	c12.047,1.805,21.129,12.342,21.129,24.51C97.32,68.473,88.238,79.014,76.191,80.807z M75.625,48.039l-0.727-0.283v-5.219
	l1.441,0.41c5.93,1.701,10.063,7.191,10.063,13.35c0,6.168-4.145,11.656-10.063,13.348l-1.441,0.418V64.84l0.727-0.279
	c3.426-1.297,5.73-4.617,5.73-8.264C81.355,52.652,79.051,49.336,75.625,48.039z"/>
</svg>
