<?xml version="1.0" encoding="utf-8"?>
<!DOCTYPE svg PUBLIC "-//W3C//DTD SVG 1.1//EN" "http://www.w3.org/Graphics/SVG/1.1/DTD/svg11.dtd">
<svg version="1.1" id="Layer_1" xmlns="http://www.w3.org/2000/svg" xmlns:xlink="http://www.w3.org/1999/xlink" x="0px" y="0px"
	 width="87.094px" height="113.385px" viewBox="0 0 87.094 113.385" enable-background="new 0 0 87.094 113.385"
	 xml:space="preserve">
<linearGradient id="gradient" gradientUnits="userSpaceOnUse" x1="17.1387" y1="113.385" x2="17.1387" y2="0">
	<stop  offset="0" style="stop-color:#404040"/>
	<stop  offset="1" style="stop-color:#A0A0A0"/>
</linearGradient>
<path fill="#808080" d="M51.563,46.174c0-4.262-3.449-7.715-7.711-7.715s-7.711,3.453-7.711,7.715c0,4.258,3.449,7.711,7.711,7.711
	S51.563,50.432,51.563,46.174z"/>
<path fill="#808080" d="M39.203,54.861c-1.793-1.02-4.07-0.391-5.09,1.402l-11.84,15.348c3.293,2.723,7.121,4.828,11.297,6.133
	l7.035-17.793C41.621,58.158,40.996,55.881,39.203,54.861z"/>
<path fill="#C0C0C0" d="M79.395,0H7.699C3.445,0,0,3.447,0,7.699v97.986c0,4.254,3.445,7.699,7.699,7.699h71.695
	c4.254,0,7.699-3.445,7.699-7.699V7.699C87.094,3.447,83.648,0,79.395,0z M9.785,4.34c2.766,0,5.008,2.242,5.008,5.01
	s-2.242,5.012-5.008,5.012c-2.77,0-5.012-2.244-5.012-5.012S7.016,4.34,9.785,4.34z M9.785,108.26c-2.77,0-5.012-2.242-5.012-5.012
	c0-2.766,2.242-5.008,5.012-5.008c2.766,0,5.008,2.242,5.008,5.008C14.793,106.018,12.551,108.26,9.785,108.26z M43.547,79.264
	c-3.57,0-7.004-0.574-10.23-1.613c0.086,0.027,0.168,0.07,0.254,0.094l-6.043,15.297c-2.375,4.18-7.695,5.645-11.875,3.27
	c-4.184-2.379-5.648-7.695-3.27-11.875l9.891-12.824c-7.41-6.125-12.133-15.387-12.133-25.754c0-18.449,14.957-33.404,33.406-33.404
	s33.406,14.955,33.406,33.404S61.996,79.264,43.547,79.264z M78.25,108.26c-2.766,0-5.008-2.242-5.008-5.012
	c0-2.766,2.242-5.008,5.008-5.008c2.77,0,5.012,2.242,5.012,5.008C83.262,106.018,81.02,108.26,78.25,108.26z M78.25,14.361
	c-2.766,0-5.008-2.244-5.008-5.012s2.242-5.01,5.008-5.01c2.77,0,5.012,2.242,5.012,5.01S81.02,14.361,78.25,14.361z"/>
</svg>
