<?xml version="1.0" encoding="utf-8"?>
<!DOCTYPE svg PUBLIC "-//W3C//DTD SVG 1.1//EN" "http://www.w3.org/Graphics/SVG/1.1/DTD/svg11.dtd">
<svg version="1.1" id="Layer_1" xmlns="http://www.w3.org/2000/svg" xmlns:xlink="http://www.w3.org/1999/xlink" x="0px" y="0px"
	 width="41.779px" height="56.692px" viewBox="0 0 41.779 56.692" enable-background="new 0 0 41.779 56.692" xml:space="preserve">
<linearGradient id="gradient" gradientUnits="userSpaceOnUse" x1="17.1387" y1="56.692" x2="17.1387" y2="0">
	<stop  offset="0" style="stop-color:#404040"/>
	<stop  offset="1" style="stop-color:#A0A0A0"/>
</linearGradient>
<path fill="#C0C0C0" d="M31.656,16.521c4.691,2.92,8.113,6.59,10.123,11.5c-0.295-6.539,0.041-14.523-8.598-19.408
	C24.758,3.849,23.564,0,23.564,0H19.83v42.171c-2.107-1.406-4.932-2.275-8.049-2.275C5.275,39.896,0,43.655,0,48.296
	c0,4.637,5.275,8.396,11.781,8.396c6.508,0,11.783-3.76,11.783-8.396v-0.004l0,0V8.544C23.564,8.544,25.01,12.38,31.656,16.521z"/>
</svg>
