<?xml version="1.0" encoding="utf-8"?>
<!DOCTYPE svg PUBLIC "-//W3C//DTD SVG 1.1//EN" "http://www.w3.org/Graphics/SVG/1.1/DTD/svg11.dtd">
<svg version="1.1" id="Layer_1" xmlns="http://www.w3.org/2000/svg" xmlns:xlink="http://www.w3.org/1999/xlink" x="0px" y="0px"
	 width="231.727px" height="200.001px" viewBox="0 0 231.727 200.001" enable-background="new 0 0 231.727 200.001"
	 xml:space="preserve">
<linearGradient id="gradient" gradientUnits="userSpaceOnUse" x1="17.1387" y1="200.001" x2="17.1387" y2="0">
	<stop  offset="0" style="stop-color:#404040"/>
	<stop  offset="1" style="stop-color:#A0A0A0"/>
</linearGradient>
<path fill="#C0C0C0" d="M97.793,32.054V5.147C97.793,2.306,95.492,0,92.639,0H5.15C2.309,0,0,2.306,0,5.147v194.854h231.727V32.054
	H97.793z M115.867,188.143c-39.922,0-72.287-32.36-72.287-72.279c0-39.922,32.365-72.282,72.287-72.282s72.277,32.36,72.277,72.282
	C188.145,155.782,155.789,188.143,115.867,188.143z"/>
<path fill="#808080" d="M115.867,49.569c-36.553,0-66.291,29.741-66.291,66.291c0,36.553,29.738,66.291,66.291,66.291
	c36.545,0,66.291-29.738,66.291-66.291C182.158,79.311,152.412,49.569,115.867,49.569z M133.926,93.873
	c-11.154-6.948-13.574-13.377-13.574-13.377v66.674c0,7.775-8.846,14.083-19.76,14.083c-10.916,0-19.762-6.308-19.762-14.083
	c0-7.786,8.846-14.095,19.762-14.095c5.229,0,9.963,1.461,13.498,3.817V66.164h6.262c0,0,1.998,6.456,16.137,14.445
	c14.484,8.192,13.92,21.58,14.416,32.55C147.527,104.922,141.795,98.769,133.926,93.873z"/>
</svg>
