<?xml version="1.0" encoding="utf-8"?>
<!DOCTYPE svg PUBLIC "-//W3C//DTD SVG 1.1//EN" "http://www.w3.org/Graphics/SVG/1.1/DTD/svg11.dtd">
<svg version="1.1" id="Layer_1" xmlns="http://www.w3.org/2000/svg" xmlns:xlink="http://www.w3.org/1999/xlink" x="0px" y="0px"
	 width="144.099px" height="199.798px" viewBox="0 0 144.099 199.798" enable-background="new 0 0 144.099 199.798"
	 xml:space="preserve">
<linearGradient id="gradient" gradientUnits="userSpaceOnUse" x1="17.1387" y1="200" x2="199.798" y2="0">
	<stop  offset="0" style="stop-color:#404040"/>
	<stop  offset="1" style="stop-color:#A0A0A0"/>
</linearGradient>
<polygon fill="#C0C0C0" points="72.048,39.761 82.541,61.019 106,64.427 89.023,80.974 93.031,104.336 72.048,93.306 
	51.067,104.336 55.075,80.974 38.099,64.427 61.558,61.019 "/>
<path fill="#808080" d="M72.048,0C32.259,0,0,32.258,0,72.048c0,39.791,32.259,72.049,72.048,72.049
	c39.792,0,72.051-32.258,72.051-72.049C144.099,32.258,111.84,0,72.048,0z M72.05,129.147c-31.535,0-57.102-25.563-57.102-57.1
	c0-31.536,25.566-57.1,57.102-57.1c31.534,0,57.101,25.564,57.101,57.1C129.15,103.584,103.584,129.147,72.05,129.147z"/>
<path fill="#C0C0C0" d="M7.168,185.412l24.18-9.801l9.801,24.187l22.104-52.224c-12.742-1.469-24.52-6.082-34.546-13.052
	L7.168,185.412z M115.393,134.522c-10.026,6.969-21.805,11.583-34.547,13.052l22.104,52.224l9.801-24.187l24.182,9.801
	L115.393,134.522z"/>
</svg>
