<?xml version="1.0" encoding="utf-8"?>
<!DOCTYPE svg PUBLIC "-//W3C//DTD SVG 1.1//EN" "http://www.w3.org/Graphics/SVG/1.1/DTD/svg11.dtd">
<svg version="1.1" id="Layer_1" xmlns="http://www.w3.org/2000/svg" xmlns:xlink="http://www.w3.org/1999/xlink" x="0px" y="0px"
	 width="131.144px" height="199.999px" viewBox="0 0 131.144 199.999" enable-background="new 0 0 131.144 199.999"
	 xml:space="preserve">
<linearGradient id="gradient" gradientUnits="userSpaceOnUse" x1="17.1387" y1="199.999" x2="17.1387" y2="0">
	<stop  offset="0" style="stop-color:#404040"/>
	<stop  offset="1" style="stop-color:#A0A0A0"/>
</linearGradient>
<path fill="#C0C0C0" d="M70.841,53.581v32.477l15.197-14.896L70.841,53.581z M70.841,149.499l15.342-18.572l-15.342-15.451V149.499z
	 M71.517,0H59.628C26.696,0,0,26.702,0,59.631v80.739c0,32.93,26.696,59.629,59.628,59.629h11.889
	c32.928,0,59.627-26.699,59.627-59.629V59.631C131.144,26.702,104.444,0,71.517,0z M103.163,130.144l-44.91,54.367v-68.474
	L36.58,137.29l-8.813-9.002l28.267-27.706L27.702,72.063l0,0l8.933-8.874l21.618,21.752V19.778l45.051,52.093l-29.406,28.821
	L103.163,130.144z"/>
</svg>
