<?xml version="1.0" encoding="utf-8"?>
<!DOCTYPE svg PUBLIC "-//W3C//DTD SVG 1.1//EN" "http://www.w3.org/Graphics/SVG/1.1/DTD/svg11.dtd">
<svg version="1.1" id="Layer_1" xmlns="http://www.w3.org/2000/svg" xmlns:xlink="http://www.w3.org/1999/xlink" x="0px" y="0px"
	 width="200.001px" height="200.001px" viewBox="0 0 200.001 200.001" enable-background="new 0 0 200.001 200.001"
	 xml:space="preserve">
<linearGradient id="gradient" gradientUnits="userSpaceOnUse" x1="17.1387" y1="200.001" x2="17.1387" y2="0">
	<stop  offset="0" style="stop-color:#404040"/>
	<stop  offset="1" style="stop-color:#A0A0A0"/>
</linearGradient>
<path fill="#C0C0C0" d="M103.656,67.78v15.606l3.504,3.504l7.045-6.907L103.656,67.78z M94.92,158.659v-43.464l-2.053-2.053
	l-12.988,12.739l-6.119-6.246l12.926-12.674L54.488,74.76v53.263c0,22.854,18.527,41.385,41.385,41.385h8.256
	c12.344,0,23.398-5.443,30.98-14.018l-20.529-20.533L94.92,158.659z M104.129,30.591h-8.256c-12.354,0-23.408,5.442-30.992,14.021
	L94.92,74.649V44.315l31.271,36.16L113.34,93.071l32.176,32.178V71.977C145.516,49.125,126.98,30.591,104.129,30.591z
	 M103.656,134.356l4.721-5.707l-4.721-4.717V134.356z"/>
<path fill="#808080" d="M29.29,29.288c-39.054,39.054-39.054,102.371,0,141.422c39.054,39.055,102.364,39.055,141.415,0
	c39.061-39.051,39.061-102.368,0-141.422C131.654-9.763,68.344-9.763,29.29,29.288z M40.035,159.962
	c-31.191-31.199-32.941-80.84-5.268-114.12l119.387,119.397C120.883,192.903,71.238,191.161,40.035,159.962z M165.234,154.163
	L45.84,34.766c33.283-27.671,82.928-25.924,114.123,5.271C191.162,71.235,192.906,120.88,165.234,154.163z"/>
</svg>
