<?xml version="1.0" encoding="utf-8"?>
<svg version="1.1" id="Layer_1" xmlns="http://www.w3.org/2000/svg" xmlns:xlink="http://www.w3.org/1999/xlink" x="0px" y="0px"
	 width="28.347px" height="28.346px" viewBox="0 0 28.347 28.346" enable-background="new 0 0 28.347 28.346" xml:space="preserve">
<linearGradient id="gradient" gradientUnits="userSpaceOnUse" x1="17.1387" y1="28.3467" x2="17.1387" y2="4.882813e-004">
	<stop  offset="0" style="stop-color:#404040"/>
	<stop  offset="1" style="stop-color:#A0A0A0"/>
</linearGradient>
<path fill="#C0C0C0" d="M14.691,9.606v2.212l0.496,0.497l0.999-0.979L14.691,9.606z M13.453,22.487v-6.16l-0.291-0.291l-1.841,1.806
	l-0.867-0.886l1.832-1.796l-4.563-4.564v7.549c0,3.238,2.626,5.865,5.866,5.865h1.169c1.75,0,3.316-0.771,4.392-1.986l-2.909-2.91
	L13.453,22.487z M14.758,4.335h-1.169c-1.751,0-3.318,0.771-4.393,1.987l4.257,4.257V6.281l4.432,5.125l-1.82,1.785l4.56,4.561
	v-7.55C20.624,6.962,17.997,4.335,14.758,4.335z M14.691,19.042l0.669-0.81l-0.669-0.668V19.042z"/>
<path fill="#808080" d="M4.151,4.151c-5.535,5.535-5.535,14.51,0,20.044c5.535,5.535,14.509,5.535,20.043,0
	c5.536-5.534,5.536-14.509,0-20.044C18.66-1.384,9.687-1.384,4.151,4.151z M5.674,22.671C1.253,18.25,1.005,11.214,4.928,6.497
	l16.921,16.922C17.133,27.34,10.097,27.093,5.674,22.671z M23.419,21.85L6.497,4.927c4.717-3.922,11.753-3.674,16.175,0.747
	C27.094,10.096,27.341,17.132,23.419,21.85z"/>
</svg>
