<?xml version="1.0" encoding="utf-8"?>
<!DOCTYPE svg PUBLIC "-//W3C//DTD SVG 1.1//EN" "http://www.w3.org/Graphics/SVG/1.1/DTD/svg11.dtd">
<svg version="1.1" id="Layer_1" xmlns="http://www.w3.org/2000/svg" xmlns:xlink="http://www.w3.org/1999/xlink" x="0px" y="0px"
	 width="206.828px" height="200.001px" viewBox="0 0 206.828 200.001" enable-background="new 0 0 206.828 200.001"
	 xml:space="preserve">
<linearGradient id="gradient" gradientUnits="userSpaceOnUse" x1="17.1387" y1="200.001" x2="17.1387" y2="0">
	<stop  offset="0" style="stop-color:#404040"/>
	<stop  offset="1" style="stop-color:#A0A0A0"/>
</linearGradient>
<g>
	<path fill="#C0C0C0" d="M0,0v59.507h82.164c1.371-11.906,6.58-23.447,15.711-32.566c21.49-21.494,56.443-21.494,77.982,0
		c9.107,9.112,14.311,20.656,15.695,32.566h15.275V0H0z M98.314,129.751h108.514v-59.51H191.76
		c-0.986,12.65-6.264,25.029-15.902,34.679c-18.936,18.917-48.348,21.138-69.756,6.77
		C105.006,116.915,102.283,123.126,98.314,129.751z M81.924,70.241H0v59.51h42.727c1.529-1.684,3.107-3.361,4.773-5.033
		c15.4-15.361,31.902-25.617,43.621-28.046C85.721,88.652,82.654,79.52,81.924,70.241z M33.811,140.487H0v59.514h206.828v-59.514
		H90.984c-3.756,4.916-8.055,9.904-12.939,14.781c-22.717,22.73-48.004,34.32-56.416,25.887
		C15.137,174.63,20.58,158.122,33.811,140.487z"/>
</g>
<path fill="#808080" d="M114.35,43.415c12.408-12.409,32.576-12.409,45.006,0c12.449,12.43,12.449,32.614,0.006,45.041
	c-12.436,12.412-32.604,12.412-45.012,0C101.918,76.029,101.918,55.845,114.35,43.415z"/>
</svg>
