<?xml version="1.0" encoding="utf-8"?>
<!DOCTYPE svg PUBLIC "-//W3C//DTD SVG 1.1//EN" "http://www.w3.org/Graphics/SVG/1.1/DTD/svg11.dtd">
<svg version="1.1" id="Layer_1" xmlns="http://www.w3.org/2000/svg" xmlns:xlink="http://www.w3.org/1999/xlink" x="0px" y="0px"
	 width="97.286px" height="116.668px" viewBox="0 0 97.286 116.668" enable-background="new 0 0 97.286 116.668"
	 xml:space="preserve">
<linearGradient id="gradient" gradientUnits="userSpaceOnUse" x1="17.1387" y1="116.668" x2="17.1387" y2="0">
	<stop  offset="0" style="stop-color:#404040"/>
	<stop  offset="1" style="stop-color:#A0A0A0"/>
</linearGradient>
<path fill="#C0C0C0" d="M96.011,113.668v-0.214c-0.976,0.011-2.093-0.67-3.049-2.226c-0.937-1.531-1.578-3.802-1.572-6.332
	c-0.006-2.529,0.636-4.803,1.572-6.331c0.956-1.556,2.073-2.238,3.049-2.227v-0.104h0.221V0H11.718C5.244,0,0,5.247,0,11.718v93.232
	c0,6.471,5.244,11.716,11.718,11.718h85.568v-3H96.011z M47.141,54.085c0.189,0,0.38,0.004,0.567,0.012V11.87l6.954,7.624
	l18.193,19.945l2.698,2.957l-2.958,2.696l-3.161,2.88l-2.956,2.694l-2.694-2.954l-3.8-4.167V66.93c0,7.08-5.76,12.842-12.84,12.844
	h-0.004c-7.076-0.002-12.838-5.764-12.84-12.842C34.302,59.85,40.064,54.087,47.141,54.085z M3,11.718
	C3.006,7.876,5.491,4.626,8.94,3.463v90.111C6.611,94.142,4.551,95.394,3,97.119V11.718z M11.718,113.666
	c-4.814-0.006-8.71-3.902-8.718-8.716c0.008-4.816,3.904-8.71,8.718-8.716h79.198c-0.183,0.247-0.355,0.504-0.517,0.771
	c-1.278,2.11-2.007,4.867-2.011,7.892c0.004,3.024,0.732,5.781,2.011,7.892c0.186,0.308,0.391,0.599,0.605,0.88L11.718,113.666z"/>
<path fill="#808080" d="M51.709,22.19v37.175c-1.334-0.807-2.893-1.28-4.567-1.281c-4.884,0.002-8.839,3.96-8.841,8.845
	c0.002,4.883,3.957,8.842,8.841,8.844c4.889-0.002,8.844-3.963,8.844-8.844c0,0,0-0.001,0-0.002l0,0V33.221l10.756,11.794l3.16-2.88
	L51.709,22.19z M47.142,71.498c-2.519-0.006-4.561-2.049-4.565-4.568c0.004-2.523,2.046-4.565,4.565-4.57
	c2.525,0.005,4.563,2.047,4.567,4.57C51.705,69.451,49.667,71.492,47.142,71.498z"/>
</svg>
