<?xml version="1.0" encoding="utf-8"?>
<!DOCTYPE svg PUBLIC "-//W3C//DTD SVG 1.1//EN" "http://www.w3.org/Graphics/SVG/1.1/DTD/svg11.dtd">
<svg version="1.1" id="Layer_1" xmlns="http://www.w3.org/2000/svg" xmlns:xlink="http://www.w3.org/1999/xlink" x="0px" y="0px"
	 width="123.563px" height="113.385px" viewBox="0 0 123.563 113.385" enable-background="new 0 0 123.563 113.385"
	 xml:space="preserve">
<linearGradient id="gradient" gradientUnits="userSpaceOnUse" x1="17.1387" y1="113.385" x2="17.1387" y2="0">
	<stop  offset="0" style="stop-color:#404040"/>
	<stop  offset="1" style="stop-color:#A0A0A0"/>
</linearGradient>
<path fill="#808080" d="M116.52,74.217H7.043C3.152,74.217,0,77.373,0,81.264v25.078c0,3.891,3.152,7.043,7.043,7.043H116.52
	c3.887,0,7.043-3.152,7.043-7.043V81.264C123.563,77.373,120.406,74.217,116.52,74.217z M109.623,94.029H13.941
	c-2.027,0-3.67-1.313-3.67-2.934s1.643-2.938,3.67-2.938h95.682c2.025,0,3.67,1.316,3.67,2.938S111.648,94.029,109.623,94.029z"/>
<path fill="#C0C0C0" d="M61.781,30.029c-8.152,0-14.756,6.605-14.756,14.758c0,8.15,6.604,14.758,14.756,14.758
	c8.148,0,14.756-6.607,14.756-14.758C76.537,36.635,69.93,30.029,61.781,30.029z M61.781,50.854c-3.352,0-6.066-2.715-6.066-6.066
	s2.715-6.068,6.066-6.068c3.354,0,6.068,2.717,6.068,6.068S65.135,50.854,61.781,50.854z M61.783,0
	C37.049,0,16.994,20.051,16.994,44.787c0,9.742,3.119,18.752,8.404,26.1h72.768c5.283-7.348,8.404-16.357,8.404-26.1
	C106.57,20.051,86.518,0,61.783,0z M61.783,62.596c-9.836,0-17.811-7.973-17.811-17.809s7.975-17.811,17.811-17.811
	c9.834,0,17.809,7.975,17.809,17.811S71.617,62.596,61.783,62.596z"/>
</svg>
