<?xml version="1.0" encoding="utf-8"?>
<!DOCTYPE svg PUBLIC "-//W3C//DTD SVG 1.1//EN" "http://www.w3.org/Graphics/SVG/1.1/DTD/svg11.dtd">
<svg version="1.1" id="Layer_1" xmlns="http://www.w3.org/2000/svg" xmlns:xlink="http://www.w3.org/1999/xlink" x="0px" y="0px"
	 width="56.09px" height="56.692px" viewBox="0 0 56.09 56.692" enable-background="new 0 0 56.09 56.692" xml:space="preserve">
<linearGradient id="gradient" gradientUnits="userSpaceOnUse" x1="17.1387" y1="56.692" x2="17.1387" y2="0">
	<stop  offset="0" style="stop-color:#404040"/>
	<stop  offset="1" style="stop-color:#A0A0A0"/>
</linearGradient>
<path fill="#C0C0C0" d="M52.896,18.808H3.24c-1.764,0-3.195,1.43-3.195,3.195v11.375c0,1.766,1.432,3.195,3.195,3.195h49.656
	c1.764,0,3.193-1.43,3.193-3.195V22.003C56.09,20.237,54.66,18.808,52.896,18.808z M49.77,27.792h-43.4
	c-0.918,0-1.662-0.595-1.662-1.329c0-0.736,0.744-1.331,1.662-1.331h43.4c0.918,0,1.662,0.595,1.662,1.331
	C51.432,27.197,50.688,27.792,49.77,27.792z"/>
<path fill="#C0C0C0" d="M52.896,38.927H3.24c-1.764,0-3.195,1.431-3.195,3.195v11.375c0,1.766,1.432,3.195,3.195,3.195h49.656
	c1.764,0,3.193-1.43,3.193-3.195V42.122C56.09,40.357,54.66,38.927,52.896,38.927z M49.77,47.913h-43.4
	c-0.918,0-1.662-0.596-1.662-1.332s0.744-1.33,1.662-1.33h43.4c0.918,0,1.662,0.594,1.662,1.33S50.688,47.913,49.77,47.913z"/>
<path fill="#808080" d="M38.301,0H17.729c-0.885,0-2.074,0.557-2.641,1.233L0,18.467c0.854-0.784,1.99-1.268,3.24-1.268h49.656
	c1.07,0,2.057,0.356,2.857,0.951L40.945,1.233C40.377,0.557,39.186,0,38.301,0z"/>
</svg>
