<?xml version="1.0" encoding="utf-8"?>
<svg version="1.1" id="Layer_1" xmlns="http://www.w3.org/2000/svg" xmlns:xlink="http://www.w3.org/1999/xlink" x="0px" y="0px"
	 width="28.045px" height="28.346px" viewBox="0 0 28.045 28.346" enable-background="new 0 0 28.045 28.346" xml:space="preserve">
<linearGradient id="gradient" gradientUnits="userSpaceOnUse" x1="17.1387" y1="28.3467" x2="17.1387" y2="4.882813e-004">
	<stop  offset="0" style="stop-color:#404040"/>
	<stop  offset="1" style="stop-color:#A0A0A0"/>
</linearGradient>
<path fill="#C0C0C0" d="M26.448,9.404H1.62c-0.882,0-1.598,0.715-1.598,1.598v5.688c0,0.883,0.716,1.598,1.598,1.598h24.828
	c0.882,0,1.597-0.715,1.597-1.598v-5.688C28.045,10.119,27.33,9.404,26.448,9.404z M24.885,13.896h-21.7
	c-0.459,0-0.831-0.298-0.831-0.665c0-0.368,0.372-0.666,0.831-0.666h21.7c0.459,0,0.831,0.297,0.831,0.666
	C25.716,13.598,25.344,13.896,24.885,13.896z"/>
<path fill="#C0C0C0" d="M26.448,19.463H1.62c-0.882,0-1.598,0.715-1.598,1.598v5.688c0,0.883,0.716,1.598,1.598,1.598h24.828
	c0.882,0,1.597-0.715,1.597-1.598v-5.688C28.045,20.178,27.33,19.463,26.448,19.463z M24.885,23.957h-21.7
	c-0.459,0-0.831-0.298-0.831-0.666s0.372-0.665,0.831-0.665h21.7c0.459,0,0.831,0.297,0.831,0.665S25.344,23.957,24.885,23.957z"/>
<path fill="#808080" d="M19.15,0H8.864c-0.442,0-1.037,0.278-1.32,0.617L0,9.233C0.427,8.841,0.995,8.6,1.62,8.6h24.828
	c0.535,0,1.028,0.178,1.429,0.476l-7.404-8.458C20.188,0.278,19.593,0,19.15,0z"/>
</svg>
