<?xml version="1.0" encoding="utf-8"?>
<!DOCTYPE svg PUBLIC "-//W3C//DTD SVG 1.1//EN" "http://www.w3.org/Graphics/SVG/1.1/DTD/svg11.dtd">
<svg version="1.1" id="Layer_1" xmlns="http://www.w3.org/2000/svg" xmlns:xlink="http://www.w3.org/1999/xlink" x="0px" y="0px"
	 width="615.645px" height="200.001px" viewBox="0 0 615.645 200.001" enable-background="new 0 0 615.645 200.001"
	 xml:space="preserve">
<linearGradient id="gradient" gradientUnits="userSpaceOnUse" x1="17.1387" y1="200.001" x2="17.1387" y2="0">
	<stop  offset="0" style="stop-color:#404040"/>
	<stop  offset="1" style="stop-color:#A0A0A0"/>
</linearGradient>
<g>
	<path fill="#C0C0C0" d="M55.563,196.528V32.119L12.443,59.04L0,40.519L58.76,2.891h23.441v193.638H55.563z"/>
	<path fill="#C0C0C0" d="M235.316,54.698c0,8.689-1.488,17.13-4.486,25.336c-2.99,8.193-7.82,16.93-14.477,26.189
		c-6.656,9.262-15.193,19.396-25.617,30.393c-10.412,10.99-23.055,23.537-37.904,37.629h87.121l-3.189,22.283h-114.33v-21.133
		c16.977-16.979,30.971-31.406,41.975-43.271c10.998-11.857,19.672-22.193,26.053-30.971c6.359-8.771,10.797-16.682,13.313-23.724
		c2.5-7.049,3.754-14.339,3.754-21.863c0-11.003-2.949-19.334-8.826-25.032c-5.885-5.691-13.561-8.544-23.014-8.544
		c-8.104,0-15.145,1.688-21.133,5.071c-5.973,3.384-12.057,8.737-18.23,16.062l-17.936-13.891
		c7.896-9.85,16.633-17.174,26.189-22.001C154.135,2.419,164.98,0,177.143,0c8.867,0,16.887,1.351,24.018,4.052
		c7.139,2.701,13.271,6.467,18.377,11.283c5.119,4.823,9.027,10.61,11.727,17.377C233.965,39.457,235.316,46.782,235.316,54.698z"/>
	<path fill="#C0C0C0" d="M450.947,148.771v47.758h-25.764v-47.758h-80.465v-19.1L400.592,0l22.283,9.265l-50.07,118.375h52.379
		l2.611-52.104h23.152v52.104h25.176v21.131H450.947z"/>
	<path fill="#C0C0C0" d="M615.645,134.591c0,9.447-1.598,18.184-4.781,26.189c-3.178,8.008-7.725,14.912-13.602,20.699
		c-5.885,5.787-12.926,10.314-21.133,13.602c-8.199,3.279-17.314,4.92-27.348,4.92c-11.582,0-22.152-2.025-31.695-6.078
		c-9.557-4.051-18.293-10.707-26.189-19.967l18.232-14.76c5.588,6.746,11.623,11.623,18.086,14.613
		c6.463,2.998,13.553,4.486,21.277,4.486c12.146,0,21.801-4.051,28.939-12.162c7.139-8.102,10.713-18.809,10.713-32.121
		c0-7.525-0.922-13.85-2.756-18.963c-1.832-5.119-4.334-9.26-7.523-12.443c-3.184-3.189-6.904-5.457-11.143-6.807
		c-4.25-1.352-8.873-2.02-13.891-2.02c-4.443,0-8.729,0.572-12.877,1.736c-4.154,1.15-8.545,2.797-13.174,4.92h-20.836V2.891
		h104.193l-3.184,20.836H531.41v55.874c5.01-2.516,10.039-4.203,15.049-5.072c5.016-0.867,9.854-1.302,14.477-1.302
		c16.398,0,29.621,5.396,39.66,16.212C610.621,100.251,615.645,115.298,615.645,134.591z"/>
</g>
<path fill="#808080" d="M275.535,71.779c0-5.602,1.928-10.321,5.787-14.18c3.865-3.865,8.586-5.788,14.188-5.788
	c5.787,0,10.611,1.923,14.469,5.788c3.865,3.858,5.789,8.578,5.789,14.18c0,5.603-1.924,10.378-5.789,14.325
	c-3.857,3.955-8.682,5.939-14.469,5.939c-5.602,0-10.322-1.984-14.188-5.939C277.463,82.157,275.535,77.382,275.535,71.779z
	 M275.535,144.466c0-5.59,1.928-10.322,5.787-14.188c3.865-3.859,8.586-5.789,14.188-5.789c5.787,0,10.611,1.93,14.469,5.789
	c3.865,3.865,5.789,8.598,5.789,14.188c0,5.594-1.924,10.375-5.789,14.316c-3.857,3.955-8.682,5.939-14.469,5.939
	c-5.602,0-10.322-1.984-14.188-5.939C277.463,154.841,275.535,150.06,275.535,144.466z"/>
</svg>
