<?xml version="1.0" encoding="utf-8"?>
<!DOCTYPE svg PUBLIC "-//W3C//DTD SVG 1.1//EN" "http://www.w3.org/Graphics/SVG/1.1/DTD/svg11.dtd">
<svg version="1.1" id="Layer_1" xmlns="http://www.w3.org/2000/svg" xmlns:xlink="http://www.w3.org/1999/xlink" x="0px" y="0px"
	 width="200px" height="199.999px" viewBox="0 0 200 199.999" enable-background="new 0 0 200 199.999" xml:space="preserve">
<linearGradient id="gradient" gradientUnits="userSpaceOnUse" x1="17.1387" y1="199.999" x2="17.1387" y2="0">
	<stop  offset="0" style="stop-color:#404040"/>
	<stop  offset="1" style="stop-color:#A0A0A0"/>
</linearGradient>
<path fill="#C0C0C0" d="M0,40.462v159.537h159.541V40.462H0z M98.826,99.308c-11.762-7.328-14.318-14.111-14.318-14.111v70.331
	c0,8.202-9.336,14.854-20.85,14.854s-20.85-6.652-20.85-14.854c0-8.213,9.336-14.865,20.85-14.865c5.512,0,10.514,1.54,14.234,4.027
	v-74.61h6.615c0,0,2.107,6.812,17.012,15.238c15.281,8.644,14.689,22.769,15.207,34.333
	C113.178,110.966,107.121,104.476,98.826,99.308z"/>
<polygon fill="#808080" points="20.229,20.233 20.229,32.849 167.154,32.849 167.154,179.767 179.771,179.767 179.771,20.233 "/>
<polygon fill="#808080" points="40.465,0 40.465,12.616 187.377,12.616 187.377,159.538 200,159.538 200,0 "/>
</svg>
