<?xml version="1.0" encoding="utf-8"?>
<svg version="1.1" id="Layer_1" xmlns="http://www.w3.org/2000/svg" xmlns:xlink="http://www.w3.org/1999/xlink" x="0px" y="0px"
	 width="28.347px" height="28.347px" viewBox="0 0 28.347 28.347" enable-background="new 0 0 28.347 28.347" xml:space="preserve">
<linearGradient id="gradient" gradientUnits="userSpaceOnUse" x1="17.1387" y1="28.3467" x2="17.1387" y2="4.882813e-004">
	<stop  offset="0" style="stop-color:#404040"/>
	<stop  offset="1" style="stop-color:#A0A0A0"/>
</linearGradient>
<path fill="#C0C0C0" d="M0,5.735v22.612h22.612V5.735H0z M14.007,14.075c-1.667-1.039-2.029-2-2.029-2v9.968
	c0,1.163-1.323,2.105-2.955,2.105s-2.955-0.942-2.955-2.105c0-1.164,1.323-2.106,2.955-2.106c0.781,0,1.49,0.218,2.018,0.571V9.933
	h0.938c0,0,0.299,0.965,2.411,2.16c2.166,1.225,2.082,3.227,2.155,4.867C16.041,15.728,15.183,14.808,14.007,14.075z"/>
<polygon fill="#808080" points="2.867,2.868 2.867,4.656 23.691,4.656 23.691,25.479 25.479,25.479 25.479,2.868 "/>
<polygon fill="#808080" points="5.735,0 5.735,1.788 26.558,1.788 26.558,22.611 28.347,22.611 28.347,0 "/>
</svg>
