<?xml version="1.0" encoding="utf-8"?>
<!DOCTYPE svg PUBLIC "-//W3C//DTD SVG 1.1//EN" "http://www.w3.org/Graphics/SVG/1.1/DTD/svg11.dtd">
<svg version="1.1" id="Layer_1" xmlns="http://www.w3.org/2000/svg" xmlns:xlink="http://www.w3.org/1999/xlink" x="0px" y="0px"
	 width="200px" height="200px" viewBox="0 0 200 200" enable-background="new 0 0 200 200" xml:space="preserve">
<linearGradient id="gradient" gradientUnits="userSpaceOnUse" x1="17.1387" y1="200" x2="17.1387" y2="0">
	<stop  offset="0" style="stop-color:#404040"/>
	<stop  offset="1" style="stop-color:#A0A0A0"/>
</linearGradient>
<polygon fill="#808080" points="20.236,179.002 35.422,144.944 54.295,163.82 "/>
<polygon fill="#808080" points="59.861,159.654 39.584,139.381 137.865,41.1 158.135,61.374 "/>
<path fill="#808080" d="M163,56.51l-20.271-20.274l11.947-11.951c2.191-2.191,5.064-3.286,7.938-3.286
	c2.867,0,5.74,1.095,7.932,3.286l4.41,4.409c2.189,2.188,3.285,5.062,3.285,7.935c0,2.866-1.096,5.739-3.285,7.934L163,56.51z"/>
<path fill="#C0C0C0" d="M30.709,142.502l4.775-6.749l9.102-9.105H0v15.899h30.689L30.709,142.502z M131.105,97.661h40.816v6.545
	h-47.361l-15.896,15.896h63.258v6.546h-69.803l-15.896,15.899h52.979c-0.137,0.806-0.234,1.626-0.234,2.466
	c0,1.409,0.221,2.771,0.607,4.075H79.678l-14.703,15.697L9.137,190.867l18.637-41.779H0V200h200v-50.912h-14.408
	c0.387-1.305,0.607-2.666,0.607-4.075v-2.466H200v-15.899h-13.801v-6.546H200v-15.896h-13.801v-6.545H200V81.766h-52.998
	L131.105,97.661z M175.953,88.793h6.215v56.22c0,7.704-8.771,13.952-19.582,13.952c-10.816,0-19.582-6.248-19.582-13.952
	c0-7.717,8.766-13.966,19.582-13.966c5.176,0,9.875,1.447,13.367,3.786V88.793z M0,0v52.778h37.275v6.546H0V75.22h37.275v6.546H0
	v38.336h51.131l15.896-15.896H50.953c0.379-1.306,0.605-2.666,0.605-4.075v-2.47h22.014l15.896-15.896h-37.91V75.22h44.455
	l15.896-15.896H51.559v-6.546h66.896l15.924-15.92l4.244-4.247l0.619-0.62l11.941-11.958c3.293-3.26,7.613-5.044,12.182-5.044
	c4.602,0,8.922,1.799,12.182,5.044l4.41,4.409c3.244,3.259,5.043,7.579,5.043,12.179c0,4.616-1.799,8.95-5.057,12.195l-3.955,3.962
	H200V0H0z M47.514,100.131c0,7.703-8.764,13.952-19.574,13.952c-10.818,0-19.582-6.249-19.582-13.952
	c0-7.717,8.764-13.967,19.582-13.967c5.174,0,9.873,1.447,13.367,3.786V40.173h6.207V100.131z M168.01,60.761l-4.244,4.247v-0.003
	l-0.613,0.613l-9.605,9.602H200V59.324h-30.559L168.01,60.761z"/>
</svg>
