<?xml version="1.0" encoding="utf-8"?>
<!DOCTYPE svg PUBLIC "-//W3C//DTD SVG 1.1//EN" "http://www.w3.org/Graphics/SVG/1.1/DTD/svg11.dtd">
<svg version="1.1" id="Layer_1" xmlns="http://www.w3.org/2000/svg" xmlns:xlink="http://www.w3.org/1999/xlink" x="0px" y="0px"
	 width="31.998px" height="32.002px" viewBox="0 0 31.998 32.002" enable-background="new 0 0 31.998 32.002" xml:space="preserve">
<linearGradient id="gradient" gradientUnits="userSpaceOnUse" x1="17.1387" y1="32.002" x2="17.1387" y2="0">
	<stop  offset="0" style="stop-color:#404040"/>
	<stop  offset="1" style="stop-color:#A0A0A0"/>
</linearGradient>
<path fill="#C0C0C0" d="M31.914,17.637c0.056-0.537,0.084-1.084,0.084-1.635c0-0.553-0.027-1.101-0.084-1.638l-4.717-1.024
	c-0.287-1.211-0.765-2.346-1.4-3.376l2.61-4.056c-0.691-0.85-1.47-1.626-2.316-2.316l-4.058,2.61c-1.03-0.636-2.165-1.113-3.377-1.4
	l-1.021-4.717C17.099,0.029,16.55,0,15.999,0c-0.553,0-1.1,0.029-1.639,0.085l-1.022,4.718c-1.212,0.287-2.347,0.765-3.376,1.4
	L5.904,3.592c-0.85,0.69-1.624,1.467-2.317,2.316L6.2,9.967c-0.636,1.028-1.112,2.162-1.399,3.373l-4.719,1.024
	C0.027,14.901,0,15.446,0,16.002c0,0.553,0.027,1.098,0.082,1.639l4.719,1.02c0.286,1.211,0.764,2.346,1.398,3.375l-2.61,4.057
	c0.691,0.85,1.466,1.625,2.315,2.318l4.057-2.613c1.029,0.637,2.164,1.115,3.377,1.402l1.021,4.717
	c0.539,0.057,1.085,0.086,1.639,0.086c0.552,0,1.1-0.029,1.637-0.086l1.021-4.717c1.213-0.287,2.348-0.764,3.379-1.4l4.056,2.611
	c0.847-0.693,1.625-1.469,2.316-2.316l-2.61-4.057c0.637-1.031,1.114-2.166,1.4-3.377L31.914,17.637z M15.999,23.622
	c-4.209,0-7.621-3.412-7.621-7.621c0-4.209,3.412-7.621,7.621-7.621s7.621,3.412,7.621,7.621
	C23.62,20.209,20.208,23.622,15.999,23.622z"/>
</svg>
