<?xml version="1.0" encoding="utf-8"?>
<!DOCTYPE svg PUBLIC "-//W3C//DTD SVG 1.1//EN" "http://www.w3.org/Graphics/SVG/1.1/DTD/svg11.dtd">
<svg version="1.1" id="Layer_1" xmlns="http://www.w3.org/2000/svg" xmlns:xlink="http://www.w3.org/1999/xlink" x="0px" y="0px"
	 width="63.996px" height="64.005px" viewBox="0 0 63.996 64.005" enable-background="new 0 0 63.996 64.005" xml:space="preserve">
<linearGradient id="gradient" gradientUnits="userSpaceOnUse" x1="17.1387" y1="64.005" x2="17.1387" y2="0">
	<stop  offset="0" style="stop-color:#404040"/>
	<stop  offset="1" style="stop-color:#A0A0A0"/>
</linearGradient>
<path fill="#C0C0C0" d="M63.828,35.275c0.111-1.074,0.168-2.17,0.168-3.271c0-1.105-0.055-2.201-0.168-3.275l-9.434-2.049
	c-0.574-2.422-1.529-4.691-2.801-6.752l5.221-8.111c-1.383-1.699-2.939-3.252-4.633-4.633l-8.115,5.221
	c-2.061-1.271-4.33-2.227-6.754-2.801L35.27,0.17C34.197,0.059,33.1,0,31.998,0c-1.105,0-2.199,0.059-3.277,0.17l-2.045,9.436
	c-2.424,0.574-4.693,1.529-6.752,2.801l-8.115-5.223c-1.699,1.381-3.248,2.934-4.635,4.633l5.227,8.117
	c-1.271,2.057-2.225,4.324-2.799,6.746l-9.438,2.049C0.055,29.803,0,30.893,0,32.004c0,1.107,0.055,2.197,0.164,3.277l9.438,2.04
	c0.572,2.422,1.527,4.691,2.797,6.75l-5.221,8.113c1.383,1.699,2.932,3.25,4.631,4.637l8.113-5.227
	c2.059,1.273,4.328,2.23,6.754,2.805l2.043,9.434c1.078,0.113,2.17,0.172,3.277,0.172c1.104,0,2.199-0.059,3.273-0.172l2.043-9.434
	c2.426-0.574,4.695-1.527,6.758-2.801l8.111,5.223c1.693-1.387,3.25-2.938,4.633-4.633l-5.221-8.113
	c1.273-2.063,2.229-4.332,2.801-6.754L63.828,35.275z M31.998,47.243c-8.418,0-15.242-6.824-15.242-15.241
	c0-8.418,6.824-15.242,15.242-15.242S47.24,23.584,47.24,32.002C47.24,40.419,40.416,47.243,31.998,47.243z"/>
</svg>
