<?xml version="1.0" encoding="utf-8"?>
<!DOCTYPE svg PUBLIC "-//W3C//DTD SVG 1.1//EN" "http://www.w3.org/Graphics/SVG/1.1/DTD/svg11.dtd">
<svg version="1.1" id="Layer_1" xmlns="http://www.w3.org/2000/svg" xmlns:xlink="http://www.w3.org/1999/xlink" x="0px" y="0px"
	 width="223.313px" height="200.001px" viewBox="0 0 223.313 200.001" enable-background="new 0 0 223.313 200.001"
	 xml:space="preserve">
<linearGradient id="gradient" gradientUnits="userSpaceOnUse" x1="17.1387" y1="200.001" x2="17.1387" y2="0">
	<stop  offset="0" style="stop-color:#404040"/>
	<stop  offset="1" style="stop-color:#A0A0A0"/>
</linearGradient>
<path fill="#C0C0C0" d="M110.781,96.802h1.758c0,0,35.738,2.804,67.008-9.03c-3.066-35.591-20.223-66.425-66.037-66.425h-3.727
	c-45.787,0-62.957,30.834-66.016,66.425C75.041,99.609,110.781,96.802,110.781,96.802z M142.133,126.825
	c-18.865,0-21.768-13.932-24.557-15.746c-2.627-1.695-5.037-1.852-5.037-1.852h-1.758c0,0-2.418,0.156-5.037,1.852
	c-2.797,1.814-5.684,15.746-24.549,15.746c-14.91,0-25.254-16.35-37.932-23.991c1.096,40.392,26.377,97.167,66.52,97.167h3.727
	c40.164,0,65.451-56.775,66.539-97.167C167.379,110.476,157.035,126.825,142.133,126.825z"/>
<path fill="#808080" d="M188.938,153.815h-5.953h-4.154l1.488-3.873c6.291-16.393,9.75-34.086,9.75-49.813
	c0-56.397-27.898-88.75-76.559-88.75h-3.721c-48.652,0-76.557,32.353-76.557,88.75c0,15.727,3.465,33.42,9.756,49.813l1.48,3.873
	h-4.141h-5.939C13.051,152.058,0,126.495,0,103.802C0,88.495,9.227,72.313,24.813,70.25C34.01,25.56,64.879,0,109.803,0h3.707
	c44.939,0,75.801,25.56,84.998,70.25c15.566,2.054,24.805,18.245,24.805,33.552c0,22.693-13.057,48.256-34.141,49.986l-0.109,0.006
	L188.938,153.815L188.938,153.815z"/>
</svg>
