<?xml version="1.0" encoding="utf-8"?>
<!DOCTYPE svg PUBLIC "-//W3C//DTD SVG 1.1//EN" "http://www.w3.org/Graphics/SVG/1.1/DTD/svg11.dtd">
<svg version="1.1" id="Layer_1" xmlns="http://www.w3.org/2000/svg" xmlns:xlink="http://www.w3.org/1999/xlink" x="0px" y="0px"
	 width="187.738px" height="199.999px" viewBox="0 0 187.738 199.999" enable-background="new 0 0 187.738 199.999"
	 xml:space="preserve">
<linearGradient id="gradient" gradientUnits="userSpaceOnUse" x1="17.1387" y1="199.999" x2="17.1387" y2="0">
	<stop  offset="0" style="stop-color:#404040"/>
	<stop  offset="1" style="stop-color:#A0A0A0"/>
</linearGradient>
<path fill="#C0C0C0" d="M77.115,84.927c1.84,0,3.432-1.361,3.99-2.722c0.406-1.037,0.482-2.081,0.482-5.52
	c0-6.876-1.922-10.714-4.713-10.714h-0.084c-2.639,0-4.629,3.438-4.561,9.756C72.313,80.765,73.912,84.927,77.115,84.927z
	 M0,189.628c0,5.729,4.645,10.371,10.377,10.371h166.992c5.727,0,10.369-4.643,10.369-10.371V45.283H0V189.628z M112.332,179.937
	H75.406v-18.063h36.926V179.937z M112.332,150.218H75.406v-18.059h36.926V150.218z M131.982,101.242
	c1.924,0.958,4.645,1.837,7.441,1.837c5.119,0,8.477-3.28,8.477-8.879c0-6.955-5.271-9.273-11.273-9.273
	c-1.439,0-2.646,0-3.672,0.158l2.873-26.076h21.518v9.119H143.58l-1.193,9.277h1.592c2.246,0.083,6.801,1.12,9.764,3.921
	c2.881,2.798,4.473,6.718,4.473,11.917c0,10.156-6.719,18.394-18.074,18.394c-3.68,0-7.676-0.962-9.756-2.081L131.982,101.242z
	 M125.92,132.159h36.932v18.059H125.92V132.159z M125.92,161.874h36.932v18.063H125.92V161.874z M97.188,59.009h28.318v6.88
	l-16.322,45.11H98.951l16-42.551v-0.162H97.188V59.009z M77.434,58.371c9.68,0,14.717,8.799,14.717,21.356
	c0,11.755-3.762,19.992-8.559,25.111c-3.195,3.438-7.764,5.761-12.795,6.56c-1.68,0.238-3.279,0.238-4.877,0.238v-8.717
	c1.99,0,3.031-0.079,4.795-0.399c1.99-0.399,4.32-1.443,6.076-3.121c2.24-2.157,4.162-5.84,5.037-10.477h-0.24
	c-1.682,1.84-4.08,3.2-7.436,3.2c-6.717,0-12.236-5.998-12.236-15.514C61.916,67.646,67.436,58.371,77.434,58.371z M41.438,59.009
	h9.199v51.99H40.232V68.845h-0.158l-8.793,4.564l-1.756-8.24L41.438,59.009z M24.889,132.159H61.82v18.059H24.889V132.159z
	 M24.889,161.874H61.82v18.063H24.889V161.874z"/>
<g>
	<path fill="#808080" d="M29.166,22.404c0,2.477-1.998,4.485-4.479,4.485l0,0c-2.473,0-4.484-2.009-4.484-4.485V4.482
		C20.203,2.006,22.215,0,24.688,0l0,0c2.48,0,4.479,2.006,4.479,4.482V22.404z"/>
	<path fill="#808080" d="M63.762,22.404c0,2.477-2.012,4.485-4.484,4.485l0,0c-2.475,0-4.486-2.009-4.486-4.485V4.482
		C54.791,2.006,56.803,0,59.277,0l0,0c2.473,0,4.484,2.006,4.484,4.482V22.404z"/>
	<path fill="#808080" d="M98.359,22.404c0,2.477-2.014,4.485-4.486,4.485l0,0c-2.48,0-4.486-2.009-4.486-4.485V4.482
		C89.387,2.006,91.393,0,93.873,0l0,0c2.473,0,4.486,2.006,4.486,4.482V22.404z"/>
	<path fill="#808080" d="M132.941,22.404c0,2.477-2.006,4.485-4.479,4.485l0,0c-2.475,0-4.486-2.009-4.486-4.485V4.482
		c0-2.477,2.012-4.482,4.486-4.482l0,0c2.473,0,4.479,2.006,4.479,4.482V22.404z"/>
	<path fill="#808080" d="M167.537,22.404c0,2.477-2.006,4.485-4.486,4.485l0,0c-2.473,0-4.479-2.009-4.479-4.485V4.482
		c0-2.477,2.006-4.482,4.479-4.482l0,0c2.48,0,4.486,2.006,4.486,4.482V22.404z"/>
</g>
<path fill="#808080" d="M177.369,12.265h-5.85v10.14c0,4.668-3.797,8.468-8.461,8.468c-4.672,0-8.477-3.8-8.477-8.468v-10.14H136.93
	v10.14c0,4.668-3.797,8.461-8.467,8.461c-4.666,0-8.463-3.793-8.463-8.461v-10.14h-17.666v10.143c0,4.665-3.797,8.465-8.461,8.465
	c-4.672,0-8.475-3.8-8.475-8.465V12.265H67.752v10.14c0,4.671-3.803,8.472-8.475,8.472c-4.666,0-8.469-3.801-8.469-8.472v-10.14
	H33.156v10.14c0,4.671-3.803,8.468-8.469,8.468c-4.664,0-8.461-3.797-8.461-8.468v-10.14h-5.85C4.645,12.265,0,16.909,0,22.639
	v17.456h187.738V22.639C187.738,16.909,183.096,12.265,177.369,12.265z"/>
</svg>
