<?xml version="1.0" encoding="utf-8"?>
<!DOCTYPE svg PUBLIC "-//W3C//DTD SVG 1.1//EN" "http://www.w3.org/Graphics/SVG/1.1/DTD/svg11.dtd">
<svg version="1.1" id="Layer_1" xmlns="http://www.w3.org/2000/svg" xmlns:xlink="http://www.w3.org/1999/xlink" x="0px" y="0px"
	 width="199.996px" height="200.001px" viewBox="0 0 199.996 200.001" enable-background="new 0 0 199.996 200.001"
	 xml:space="preserve">
<linearGradient id="gradient" gradientUnits="userSpaceOnUse" x1="17.1387" y1="200.001" x2="17.1387" y2="0">
	<stop  offset="0" style="stop-color:#404040"/>
	<stop  offset="1" style="stop-color:#A0A0A0"/>
</linearGradient>
<polygon fill="#C0C0C0" points="166.697,200.001 159.988,193.282 100,133.29 40.008,193.282 33.3,200.001 26.593,193.282 
	6.715,173.403 0,166.7 6.715,159.995 66.71,99.989 6.715,40.008 0,33.304 6.715,26.596 26.593,6.718 33.3,0 40.008,6.718 100,66.71 
	159.988,6.718 166.697,0 173.4,6.718 193.279,26.596 199.996,33.304 193.279,40.008 133.286,99.989 193.279,159.995 199.996,166.7 
	193.279,173.403 173.4,193.282 166.697,200.001 "/>
</svg>
