<?xml version="1.0" encoding="utf-8"?>
<svg version="1.1" id="Layer_1" xmlns="http://www.w3.org/2000/svg" xmlns:xlink="http://www.w3.org/1999/xlink" x="0px" y="0px"
	 width="28.346px" height="28.347px" viewBox="0 0 28.346 28.347" enable-background="new 0 0 28.346 28.347" xml:space="preserve">
<linearGradient id="gradient" gradientUnits="userSpaceOnUse" x1="17.1387" y1="28.3467" x2="17.1387" y2="4.882813e-004">
	<stop  offset="0" style="stop-color:#404040"/>
	<stop  offset="1" style="stop-color:#A0A0A0"/>
</linearGradient>
<polygon fill="#C0C0C0" points="23.627,28.347 22.676,27.395 14.173,18.892 5.67,27.395 4.72,28.347 3.769,27.395 0.952,24.577 
	0,23.627 0.952,22.677 9.455,14.172 0.952,5.67 0,4.72 0.952,3.77 3.769,0.952 4.72,0 5.67,0.952 14.173,9.455 22.676,0.952 
	23.627,0 24.576,0.952 27.395,3.77 28.346,4.72 27.395,5.67 18.891,14.172 27.395,22.677 28.346,23.627 27.395,24.577 
	24.576,27.395 23.627,28.347 "/>
</svg>
