<?xml version="1.0" encoding="utf-8"?>
<!DOCTYPE svg PUBLIC "-//W3C//DTD SVG 1.1//EN" "http://www.w3.org/Graphics/SVG/1.1/DTD/svg11.dtd">
<svg version="1.1" id="Layer_1" xmlns="http://www.w3.org/2000/svg" xmlns:xlink="http://www.w3.org/1999/xlink" x="0px" y="0px"
	 width="200px" height="200px" viewBox="0 0 200 200" enable-background="new 0 0 200 200" xml:space="preserve">
<linearGradient id="gradient" gradientUnits="userSpaceOnUse" x1="17.1387" y1="200" x2="17.1387" y2="0">
	<stop  offset="0" style="stop-color:#404040"/>
	<stop  offset="1" style="stop-color:#A0A0A0"/>
</linearGradient>
<path fill="#C0C0C0" d="M46.434,67.021c-6.16,4.316-11.8,9.329-16.754,14.969l7.148,7.148c4.916-5.677,10.591-10.68,16.851-14.872
	L46.434,67.021z M65.863,86.452c-6.49,3.89-12.281,8.83-17.104,14.614l7.176,7.18c4.741-5.881,10.639-10.783,17.333-14.391
	L65.863,86.452z M85.92,106.513c-7.234,2.76-13.469,7.579-17.985,13.731l7.228,7.225c4.271-6.504,11.041-11.186,18.924-12.795
	L85.92,106.513z M100.014,50.089c-8.918,0-17.547,1.268-25.723,3.607l8.326,8.33c5.615-1.195,11.428-1.847,17.395-1.847
	c25.211,0,47.828,11.245,63.162,28.967l7.148-7.152C153.152,62.453,128.01,50.089,100.014,50.089z M100.014,77.006
	c-0.787,0-1.566,0.041-2.352,0.068l10.662,10.659c14.381,2.133,27.006,9.681,35.744,20.513l7.176-7.18
	C139,86.376,120.586,77.006,100.014,77.006z"/>
<path fill="#808080" d="M29.29,29.287c-39.054,39.054-39.054,102.371,0,141.422c39.054,39.055,102.368,39.055,141.419,0
	c39.053-39.051,39.057-102.368,0-141.422C131.658-9.763,68.344-9.763,29.29,29.287z M40.035,159.961
	c-31.191-31.199-32.941-80.84-5.268-114.12l119.391,119.397C120.881,192.902,71.238,191.16,40.035,159.961z M165.234,154.162
	L45.841,34.765c33.282-27.671,82.927-25.924,114.122,5.271C191.158,71.235,192.908,120.879,165.234,154.162z"/>
<path fill="#808080" d="M100.002,130.842c-7.121,0-12.895,5.775-12.895,12.898c0,7.121,5.773,12.896,12.895,12.896
	c7.125,0,12.898-5.775,12.898-12.896C112.9,136.617,107.127,130.842,100.002,130.842z"/>
</svg>
