<?xml version="1.0" encoding="utf-8"?>
<!DOCTYPE svg PUBLIC "-//W3C//DTD SVG 1.1//EN" "http://www.w3.org/Graphics/SVG/1.1/DTD/svg11.dtd">
<svg version="1.1" id="Layer_1" xmlns="http://www.w3.org/2000/svg" xmlns:xlink="http://www.w3.org/1999/xlink" x="0px" y="0px"
	 width="43.547px" height="56.692px" viewBox="0 0 43.547 56.692" enable-background="new 0 0 43.547 56.692" xml:space="preserve">
<linearGradient id="gradient" gradientUnits="userSpaceOnUse" x1="17.1387" y1="56.692" x2="17.1387" y2="0">
	<stop  offset="0" style="stop-color:#404040"/>
	<stop  offset="1" style="stop-color:#A0A0A0"/>
</linearGradient>
<circle fill="#808080" cx="21.926" cy="23.087" r="3.855"/>
<path fill="#808080" d="M19.602,27.431c-0.896-0.51-2.035-0.195-2.545,0.701l-5.92,7.674c1.646,1.361,3.561,2.414,5.648,3.066
	l3.518-8.896C20.811,29.079,20.498,27.94,19.602,27.431z"/>
<path fill="#C0C0C0" d="M39.697,0H3.85C1.723,0,0,1.724,0,3.85v48.993c0,2.127,1.723,3.85,3.85,3.85h35.848
	c2.127,0,3.85-1.723,3.85-3.85V3.85C43.547,1.724,41.824,0,39.697,0z M4.893,2.17c1.383,0,2.504,1.121,2.504,2.505
	S6.275,7.181,4.893,7.181c-1.385,0-2.506-1.122-2.506-2.506S3.508,2.17,4.893,2.17z M4.893,54.13c-1.385,0-2.506-1.121-2.506-2.506
	c0-1.383,1.121-2.504,2.506-2.504c1.383,0,2.504,1.121,2.504,2.504C7.396,53.009,6.275,54.13,4.893,54.13z M21.773,39.632
	c-1.785,0-3.502-0.287-5.115-0.807c0.043,0.014,0.084,0.035,0.127,0.047l-3.021,7.648c-1.188,2.09-3.848,2.822-5.938,1.635
	c-2.092-1.189-2.824-3.848-1.635-5.938l4.945-6.412C7.432,32.743,5.07,28.112,5.07,22.929c0-9.225,7.479-16.702,16.703-16.702
	s16.703,7.478,16.703,16.702S30.998,39.632,21.773,39.632z M39.125,54.13c-1.383,0-2.504-1.121-2.504-2.506
	c0-1.383,1.121-2.504,2.504-2.504c1.385,0,2.506,1.121,2.506,2.504C41.631,53.009,40.51,54.13,39.125,54.13z M39.125,7.181
	c-1.383,0-2.504-1.122-2.504-2.506s1.121-2.505,2.504-2.505c1.385,0,2.506,1.121,2.506,2.505S40.51,7.181,39.125,7.181z"/>
</svg>
