<?xml version="1.0" encoding="utf-8"?>
<svg version="1.1" id="Layer_1" xmlns="http://www.w3.org/2000/svg" xmlns:xlink="http://www.w3.org/1999/xlink" x="0px" y="0px"
	 width="21.773px" height="28.346px" viewBox="0 0 21.773 28.346" enable-background="new 0 0 21.773 28.346" xml:space="preserve">
<linearGradient id="gradient" gradientUnits="userSpaceOnUse" x1="17.1387" y1="28.3467" x2="17.1387" y2="4.882813e-004">
	<stop  offset="0" style="stop-color:#404040"/>
	<stop  offset="1" style="stop-color:#A0A0A0"/>
</linearGradient>
<circle fill="#808080" cx="10.963" cy="11.543" r="1.928"/>
<path fill="#808080" d="M9.801,13.715c-0.448-0.255-1.018-0.098-1.272,0.351l-2.96,3.837c0.823,0.681,1.78,1.207,2.824,1.533
	l1.759-4.448C10.405,14.54,10.249,13.97,9.801,13.715z"/>
<path fill="#C0C0C0" d="M19.849,0H1.925C0.861,0,0,0.862,0,1.925v24.497c0,1.063,0.861,1.925,1.925,1.925h17.924
	c1.063,0,1.925-0.861,1.925-1.925V1.925C21.773,0.862,20.912,0,19.849,0z M2.446,1.085c0.691,0,1.252,0.561,1.252,1.252
	S3.138,3.59,2.446,3.59c-0.692,0-1.253-0.561-1.253-1.253S1.754,1.085,2.446,1.085z M2.446,27.065c-0.692,0-1.253-0.561-1.253-1.253
	c0-0.691,0.561-1.252,1.253-1.252c0.691,0,1.252,0.561,1.252,1.252C3.698,26.504,3.138,27.065,2.446,27.065z M10.887,19.816
	c-0.893,0-1.751-0.144-2.558-0.403c0.021,0.007,0.042,0.018,0.063,0.023L6.882,23.26c-0.594,1.045-1.924,1.411-2.969,0.817
	c-1.046-0.595-1.412-1.924-0.817-2.969l2.473-3.206c-1.853-1.531-3.033-3.847-3.033-6.438c0-4.612,3.739-8.351,8.352-8.351
	s8.352,3.739,8.352,8.351S15.499,19.816,10.887,19.816z M19.563,27.065c-0.691,0-1.252-0.561-1.252-1.253
	c0-0.691,0.561-1.252,1.252-1.252c0.692,0,1.253,0.561,1.253,1.252C20.815,26.504,20.255,27.065,19.563,27.065z M19.563,3.59
	c-0.691,0-1.252-0.561-1.252-1.253s0.561-1.252,1.252-1.252c0.692,0,1.253,0.561,1.253,1.252S20.255,3.59,19.563,3.59z"/>
</svg>
