<?xml version="1.0" encoding="utf-8"?>
<!DOCTYPE svg PUBLIC "-//W3C//DTD SVG 1.1//EN" "http://www.w3.org/Graphics/SVG/1.1/DTD/svg11.dtd">
<svg version="1.1" id="Layer_1" xmlns="http://www.w3.org/2000/svg" xmlns:xlink="http://www.w3.org/1999/xlink" x="0px" y="0px"
	 width="209.01px" height="200.001px" viewBox="0 0 209.01 200.001" enable-background="new 0 0 209.01 200.001"
	 xml:space="preserve">
<linearGradient id="gradient" gradientUnits="userSpaceOnUse" x1="17.1387" y1="200.001" x2="17.1387" y2="0">
	<stop  offset="0" style="stop-color:#404040"/>
	<stop  offset="1" style="stop-color:#A0A0A0"/>
</linearGradient>
<path fill="#808080" d="M25.225,0c-5.477,0-9.908,4.435-9.908,9.912v31.905c3.156-0.931,6.436-1.585,9.902-1.585
	c3.465,0,6.752,0.654,9.914,1.592V9.912C35.133,4.435,30.703,0,25.225,0z M15.316,109.532v80.561c0,5.477,4.432,9.908,9.908,9.908
	c5.479,0,9.908-4.432,9.908-9.908v-80.568c-3.162,0.938-6.449,1.584-9.914,1.584C21.752,111.108,18.473,110.462,15.316,109.532z"/>
<path fill="#C0C0C0" d="M50.451,75.676c0-13.936-11.293-25.225-25.227-25.225C11.301,50.451,0,61.74,0,75.676
	c0,13.939,11.301,25.229,25.225,25.229C39.158,100.904,50.451,89.615,50.451,75.676z"/>
<path fill="#808080" d="M114.412,190.093v-31.91c-3.162,0.938-6.449,1.592-9.914,1.592c-3.459,0-6.738-0.654-9.902-1.584v31.902
	c0,5.477,4.432,9.908,9.908,9.908C109.982,200.001,114.412,195.569,114.412,190.093z M104.498,88.896
	c3.465,0,6.752,0.647,9.914,1.584V9.912c0-5.478-4.43-9.912-9.908-9.912c-5.477,0-9.908,4.435-9.908,9.912v80.561
	C97.76,89.543,101.039,88.896,104.498,88.896z"/>
<path fill="#C0C0C0" d="M129.73,124.329c0,13.934-11.293,25.221-25.227,25.221c-13.924,0-25.225-11.287-25.225-25.221
	c0-13.938,11.301-25.229,25.225-25.229C118.438,99.1,129.73,110.392,129.73,124.329z"/>
<path fill="#808080" d="M183.783,0c-5.471,0-9.908,4.435-9.908,9.912v31.905c3.164-0.931,6.443-1.585,9.902-1.585
	c3.465,0,6.752,0.654,9.922,1.592V9.912C193.699,4.435,189.262,0,183.783,0z M173.875,109.532v80.561
	c0,5.477,4.438,9.908,9.908,9.908c5.479,0,9.916-4.432,9.916-9.908v-80.568c-3.17,0.938-6.457,1.584-9.922,1.584
	C180.318,111.108,177.039,110.462,173.875,109.532z"/>
<path fill="#C0C0C0" d="M209.01,75.676c0-13.936-11.295-25.225-25.227-25.225c-13.924,0-25.225,11.289-25.225,25.225
	c0,13.939,11.301,25.229,25.225,25.229C197.715,100.904,209.01,89.615,209.01,75.676z"/>
</svg>
