<?xml version="1.0" encoding="utf-8"?>
<!DOCTYPE svg PUBLIC "-//W3C//DTD SVG 1.1//EN" "http://www.w3.org/Graphics/SVG/1.1/DTD/svg11.dtd">
<svg version="1.1" id="Layer_1" xmlns="http://www.w3.org/2000/svg" xmlns:xlink="http://www.w3.org/1999/xlink" x="0px" y="0px"
	 width="210.283px" height="200.001px" viewBox="0 0 210.283 200.001" enable-background="new 0 0 210.283 200.001"
	 xml:space="preserve">
<linearGradient id="gradient" gradientUnits="userSpaceOnUse" x1="17.1387" y1="200.001" x2="17.1387" y2="0">
	<stop  offset="0" style="stop-color:#404040"/>
	<stop  offset="1" style="stop-color:#A0A0A0"/>
</linearGradient>
<polygon fill="#808080" points="131.666,147.063 105.145,127.729 78.639,147.05 88.816,115.87 62.254,96.608 95.051,96.653 
	105.145,65.503 115.232,96.653 148.037,96.608 121.496,115.856 131.666,147.063 "/>
<path fill="#C0C0C0" d="M210.283,76.396l-80.389,0.1L105.145,0l-24.75,76.496L0,76.396l65.092,47.173l-24.928,76.432l64.98-47.344
	l64.977,47.344l-24.93-76.432L210.283,76.396z M150.717,173.286l-45.572-33.186L59.531,173.3l17.529-53.602L31.344,86.573
	l56.438,0.086l17.363-53.647l17.371,53.647l56.418-0.086l-45.684,33.111L150.717,173.286z"/>
</svg>
