<?xml version="1.0" encoding="utf-8"?>
<svg version="1.1" id="Layer_1" xmlns="http://www.w3.org/2000/svg" xmlns:xlink="http://www.w3.org/1999/xlink" x="0px" y="0px"
	 width="29.804px" height="28.346px" viewBox="0 0 29.804 28.346" enable-background="new 0 0 29.804 28.346" xml:space="preserve">
<linearGradient id="gradient" gradientUnits="userSpaceOnUse" x1="17.1387" y1="28.3467" x2="17.1387" y2="4.882813e-004">
	<stop  offset="0" style="stop-color:#404040"/>
	<stop  offset="1" style="stop-color:#A0A0A0"/>
</linearGradient>
<polygon fill="#808080" points="18.661,20.843 14.902,18.103 11.146,20.841 12.588,16.422 8.823,13.692 13.472,13.699 14.902,9.284 
	16.332,13.699 20.981,13.692 17.22,16.42 18.661,20.843 "/>
<path fill="#C0C0C0" d="M29.804,10.828L18.41,10.842L14.902,0l-3.508,10.842L0,10.828l9.226,6.686L5.692,28.346l9.21-6.71
	l9.209,6.71l-3.533-10.833L29.804,10.828z M21.361,24.56l-6.459-4.703l-6.465,4.705l2.484-7.598L4.442,12.27l7.999,0.012
	l2.461-7.604l2.462,7.604l7.996-0.012l-6.475,4.692L21.361,24.56z"/>
</svg>
