<?xml version="1.0" encoding="utf-8"?>
<svg version="1.1" id="Layer_1" xmlns="http://www.w3.org/2000/svg" xmlns:xlink="http://www.w3.org/1999/xlink" x="0px" y="0px"
	 width="23.362px" height="28.347px" viewBox="0 0 23.362 28.347" enable-background="new 0 0 23.362 28.347" xml:space="preserve">
<linearGradient id="gradient" gradientUnits="userSpaceOnUse" x1="17.1387" y1="28.3467" x2="17.1387" y2="4.882813e-004">
	<stop  offset="0" style="stop-color:#404040"/>
	<stop  offset="1" style="stop-color:#A0A0A0"/>
</linearGradient>
<path fill="#808080" d="M14.798,12.032c-1.682-1.048-2.047-2.017-2.047-2.017v10.053c0,1.173-1.334,2.124-2.979,2.124
	c-1.646,0-2.98-0.951-2.98-2.124c0-1.174,1.334-2.124,2.98-2.124c0.788,0,1.502,0.219,2.035,0.575V7.854h0.944
	c0,0,0.302,0.974,2.433,2.178c2.185,1.235,2.099,3.254,2.174,4.908C16.849,13.698,15.983,12.77,14.798,12.032z"/>
<path fill="#C0C0C0" d="M7.269,0v7.27H0v21.077h23.362V0H7.269z M16.461,15.308c-0.411-1.007-1.103-1.787-2.175-2.454
	c-0.204-0.126-0.394-0.254-0.566-0.38v7.595c0,1.733-1.733,3.092-3.949,3.092s-3.949-1.358-3.949-3.092
	c0-1.736,1.734-3.097,3.949-3.097c0.362,0,0.722,0.04,1.065,0.114V6.884h2.548l0.275,0.633c0.002,0.007,0.332,0.729,2,1.671
	c2.503,1.416,2.59,3.697,2.652,5.363l0.014,0.344L16.461,15.308z M6.761,0L0,6.761h6.761V0z"/>
</svg>
