<?xml version="1.0" encoding="utf-8"?>
<!DOCTYPE svg PUBLIC "-//W3C//DTD SVG 1.1//EN" "http://www.w3.org/Graphics/SVG/1.1/DTD/svg11.dtd">
<svg version="1.1" id="Layer_1" xmlns="http://www.w3.org/2000/svg" xmlns:xlink="http://www.w3.org/1999/xlink" x="0px" y="0px"
	 width="150.719px" height="199.999px" viewBox="0 0 150.719 199.999" enable-background="new 0 0 150.719 199.999"
	 xml:space="preserve">
<linearGradient id="gradient" gradientUnits="userSpaceOnUse" x1="17.1387" y1="199.999" x2="17.1387" y2="0">
	<stop  offset="0" style="stop-color:#404040"/>
	<stop  offset="1" style="stop-color:#A0A0A0"/>
</linearGradient>
<path fill="#C0C0C0" d="M47.704,0L0,47.704h47.704V0z M51.287,0v51.29H0v148.709h150.719V0H51.287z M75.357,165.915
	c-28.009,0-50.711-22.707-50.711-50.716c0-28.008,22.702-50.715,50.711-50.715c28.012,0,50.715,22.707,50.715,50.715
	C126.072,143.208,103.369,165.915,75.357,165.915z"/>
<path fill="#808080" d="M75.357,72.092c-23.771,0-43.108,19.337-43.108,43.107c0,23.768,19.338,43.108,43.108,43.108
	c23.771,0,43.111-19.341,43.111-43.108C118.469,91.429,99.129,72.092,75.357,72.092z M82.402,145.706H68.315v-39.095h14.087V145.706
	z M75.357,102.388c-4.889,0-8.844-3.962-8.844-8.848c0-4.885,3.955-8.847,8.844-8.847c4.892,0,8.848,3.962,8.848,8.847
	C84.205,98.426,80.249,102.388,75.357,102.388z"/>
</svg>
