<?xml version="1.0" encoding="utf-8"?>
<!DOCTYPE svg PUBLIC "-//W3C//DTD SVG 1.1//EN" "http://www.w3.org/Graphics/SVG/1.1/DTD/svg11.dtd">
<svg version="1.1" id="Layer_1" xmlns="http://www.w3.org/2000/svg" xmlns:xlink="http://www.w3.org/1999/xlink" x="0px" y="0px"
	 width="164.83px" height="199.999px" viewBox="0 0 164.83 199.999" enable-background="new 0 0 164.83 199.999"
	 xml:space="preserve">
<linearGradient id="gradient" gradientUnits="userSpaceOnUse" x1="17.1387" y1="199.999" x2="17.1387" y2="0">
	<stop  offset="0" style="stop-color:#404040"/>
	<stop  offset="1" style="stop-color:#A0A0A0"/>
</linearGradient>
<path fill="#808080" d="M104.41,84.89c-11.865-7.393-14.445-14.231-14.445-14.231v70.927c0,8.272-9.412,14.983-21.022,14.983
	c-11.613,0-21.024-6.711-21.024-14.983c0-8.281,9.411-14.989,21.024-14.989c5.561,0,10.601,1.551,14.36,4.062V55.41h6.662
	c0,0,2.129,6.87,17.162,15.369c15.414,8.716,14.811,22.958,15.338,34.626C118.875,96.645,112.773,90.096,104.41,84.89z"/>
<path fill="#C0C0C0" d="M51.287,0v51.29H0v148.709h164.83V0H51.287z M116.141,108.003c-2.9-7.107-7.783-12.609-15.348-17.312
	c-1.438-0.889-2.773-1.795-3.994-2.684v53.581c0,12.233-12.229,21.814-27.859,21.814s-27.864-9.581-27.864-21.814
	c0-12.251,12.233-21.845,27.864-21.845c2.556,0,5.092,0.282,7.514,0.81V48.568H94.43l1.943,4.469
	c0.014,0.052,2.338,5.144,14.113,11.789c17.656,9.99,18.27,26.082,18.715,37.837l0.096,2.426L116.141,108.003z M47.704,0L0,47.704
	h47.704V0z"/>
</svg>
