<?xml version="1.0" encoding="utf-8"?>
<!DOCTYPE svg PUBLIC "-//W3C//DTD SVG 1.1//EN" "http://www.w3.org/Graphics/SVG/1.1/DTD/svg11.dtd">
<svg version="1.1" id="Layer_1" xmlns="http://www.w3.org/2000/svg" xmlns:xlink="http://www.w3.org/1999/xlink" x="0px" y="0px"
	 width="192.604px" height="200px" viewBox="0 0 192.604 200" enable-background="new 0 0 192.604 200" xml:space="preserve">
<linearGradient id="gradient" gradientUnits="userSpaceOnUse" x1="17.1387" y1="200" x2="17.1387" y2="0">
	<stop  offset="0" style="stop-color:#404040"/>
	<stop  offset="1" style="stop-color:#A0A0A0"/>
</linearGradient>
<path fill="#808080" d="M19.822,0c-4.299,0-7.785,3.486-7.785,7.789v63.473c2.488-0.73,5.064-1.247,7.779-1.247
	c2.729,0,5.313,0.517,7.799,1.251V7.789C27.615,3.486,24.129,0,19.822,0z M12.037,124.486v67.727c0,4.301,3.486,7.787,7.785,7.787
	c4.307,0,7.793-3.486,7.793-7.787v-67.73c-2.486,0.73-5.07,1.246-7.799,1.246C17.102,125.729,14.525,125.213,12.037,124.486z"/>
<path fill="#C0C0C0" d="M39.654,97.876c0-10.952-8.875-19.827-19.832-19.827C8.881,78.049,0,86.924,0,97.876
	s8.881,19.827,19.822,19.827C30.779,117.703,39.654,108.828,39.654,97.876z"/>
<path fill="#808080" d="M70.811,0c-4.307,0-7.785,3.486-7.785,7.789v63.473c2.48-0.73,5.057-1.247,7.779-1.247
	c2.721,0,5.305,0.517,7.799,1.251V7.789C78.604,3.486,75.117,0,70.811,0z M63.025,124.486v67.727c0,4.301,3.479,7.787,7.785,7.787
	s7.793-3.486,7.793-7.787v-67.73c-2.494,0.73-5.078,1.246-7.799,1.246C68.082,125.729,65.506,125.213,63.025,124.486z"/>
<path fill="#C0C0C0" d="M90.641,97.876c0-10.952-8.881-19.827-19.83-19.827c-10.947,0-19.822,8.875-19.822,19.827
	s8.875,19.827,19.822,19.827C81.76,117.703,90.641,108.828,90.641,97.876z"/>
<path fill="#808080" d="M121.793,0c-4.307,0-7.787,3.486-7.787,7.789v63.473c2.48-0.73,5.064-1.247,7.779-1.247
	c2.723,0,5.305,0.517,7.793,1.251V7.789C129.578,3.486,126.098,0,121.793,0z M114.006,124.486v67.727
	c0,4.301,3.48,7.787,7.787,7.787c4.305,0,7.785-3.486,7.785-7.787v-67.73c-2.488,0.73-5.07,1.246-7.793,1.246
	C119.07,125.729,116.486,125.213,114.006,124.486z"/>
<path fill="#C0C0C0" d="M141.615,97.876c0-10.952-8.875-19.827-19.822-19.827c-10.943,0-19.832,8.875-19.832,19.827
	s8.889,19.827,19.832,19.827C132.74,117.703,141.615,108.828,141.615,97.876z"/>
<path fill="#808080" d="M172.779,0c-4.307,0-7.793,3.486-7.793,7.789v63.473c2.48-0.73,5.059-1.247,7.787-1.247
	c2.721,0,5.305,0.517,7.793,1.251V7.789C180.566,3.486,177.08,0,172.779,0z M164.986,124.486v67.727
	c0,4.301,3.486,7.787,7.793,7.787c4.301,0,7.787-3.486,7.787-7.787v-67.73c-2.488,0.73-5.072,1.246-7.793,1.246
	C170.045,125.729,167.467,125.213,164.986,124.486z"/>
<path fill="#C0C0C0" d="M192.604,97.876c0-10.952-8.881-19.827-19.824-19.827c-10.955,0-19.83,8.875-19.83,19.827
	s8.875,19.827,19.83,19.827C183.723,117.703,192.604,108.828,192.604,97.876z"/>
</svg>
