<?xml version="1.0" encoding="utf-8"?>
<svg version="1.1" id="Layer_1" xmlns="http://www.w3.org/2000/svg" xmlns:xlink="http://www.w3.org/1999/xlink" x="0px" y="0px"
	 width="27.298px" height="28.346px" viewBox="0 0 27.298 28.346" enable-background="new 0 0 27.298 28.346" xml:space="preserve">
<linearGradient id="gradient" gradientUnits="userSpaceOnUse" x1="17.1387" y1="28.3467" x2="17.1387" y2="4.882813e-004">
	<stop  offset="0" style="stop-color:#404040"/>
	<stop  offset="1" style="stop-color:#A0A0A0"/>
</linearGradient>
<path fill="#808080" d="M2.81,0C2.2,0,1.706,0.494,1.706,1.104V10.1c0.353-0.104,0.718-0.177,1.103-0.177
	c0.387,0,0.753,0.073,1.105,0.177V1.104C3.914,0.494,3.42,0,2.81,0z M1.706,17.644v9.599c0,0.609,0.494,1.104,1.104,1.104
	c0.61,0,1.104-0.494,1.104-1.104v-9.6c-0.353,0.104-0.719,0.177-1.105,0.177C2.424,17.82,2.059,17.747,1.706,17.644z"/>
<circle fill="#C0C0C0" cx="2.81" cy="13.873" r="2.81"/>
<path fill="#808080" d="M10.036,0c-0.61,0-1.104,0.494-1.104,1.104V10.1c0.352-0.104,0.717-0.177,1.103-0.177
	s0.752,0.073,1.105,0.177V1.104C11.141,0.494,10.646,0,10.036,0z M8.933,17.644v9.599c0,0.609,0.493,1.104,1.104,1.104
	s1.104-0.494,1.104-1.104v-9.6c-0.354,0.104-0.72,0.177-1.105,0.177S9.284,17.747,8.933,17.644z"/>
<circle fill="#C0C0C0" cx="10.037" cy="13.873" r="2.81"/>
<path fill="#808080" d="M17.262,0c-0.61,0-1.104,0.494-1.104,1.104V10.1c0.352-0.104,0.718-0.177,1.103-0.177
	c0.386,0,0.752,0.073,1.104,0.177V1.104C18.365,0.494,17.872,0,17.262,0z M16.158,17.644v9.599c0,0.609,0.493,1.104,1.104,1.104
	s1.104-0.494,1.104-1.104v-9.6c-0.353,0.104-0.719,0.177-1.104,0.177C16.876,17.82,16.51,17.747,16.158,17.644z"/>
<circle fill="#C0C0C0" cx="17.261" cy="13.873" r="2.81"/>
<path fill="#808080" d="M24.488,0c-0.61,0-1.104,0.494-1.104,1.104V10.1c0.352-0.104,0.717-0.177,1.104-0.177
	c0.386,0,0.752,0.073,1.104,0.177V1.104C25.592,0.494,25.098,0,24.488,0z M23.384,17.644v9.599c0,0.609,0.494,1.104,1.104,1.104
	c0.609,0,1.104-0.494,1.104-1.104v-9.6c-0.353,0.104-0.719,0.177-1.104,0.177C24.101,17.82,23.735,17.747,23.384,17.644z"/>
<circle fill="#C0C0C0" cx="24.488" cy="13.873" r="2.81"/>
</svg>
