<?xml version="1.0" encoding="utf-8"?>
<!DOCTYPE svg PUBLIC "-//W3C//DTD SVG 1.1//EN" "http://www.w3.org/Graphics/SVG/1.1/DTD/svg11.dtd">
<svg version="1.1" id="Layer_1" xmlns="http://www.w3.org/2000/svg" xmlns:xlink="http://www.w3.org/1999/xlink" x="0px" y="0px"
	 width="199.992px" height="199.992px" viewBox="0 0 199.992 199.992" enable-background="new 0 0 199.992 199.992"
	 xml:space="preserve">
<linearGradient id="gradient" gradientUnits="userSpaceOnUse" x1="17.1387" y1="199.992" x2="17.1387" y2="0">
	<stop  offset="0" style="stop-color:#404040"/>
	<stop  offset="1" style="stop-color:#A0A0A0"/>
</linearGradient>
<circle fill="#808080" cx="99.996" cy="99.996" r="28.209"/>
<path fill="#C0C0C0" d="M138.686,112.417c17.184-1.916,31.063,5.738,61.307-18.815c-34.127,11.144-41.088,1.649-60.279-2.192
	c13.924-10.252,29.771-10.563,43.686-46.948c-23.984,26.714-34.758,21.972-53.302,28.24c6.933-15.84,20.503-24.033,14.36-62.501
	c-7.414,35.127-19.116,36.407-32.04,51.107C110.5,44.124,118.155,30.244,93.602,0c11.144,34.128,1.649,41.089-2.193,60.28
	C81.157,46.356,80.847,30.51,44.46,16.595c26.715,23.983,21.973,34.759,28.241,53.301c-15.84-6.933-24.033-20.501-62.502-14.358
	c35.127,7.412,36.408,19.114,51.108,32.039C44.124,89.492,30.244,81.837,0,106.392c34.128-11.145,41.088-1.649,60.28,2.192
	c-13.924,10.252-29.771,10.563-43.686,46.949c23.983-26.716,34.758-21.973,53.301-28.242c-6.933,15.84-20.501,24.033-14.358,62.502
	c7.412-35.127,19.114-36.408,32.039-51.107c1.916,17.184-5.739,31.063,18.815,61.307c-11.145-34.127-1.649-41.088,2.192-60.279
	c10.252,13.924,10.563,29.771,46.949,43.686c-26.716-23.984-21.973-34.758-28.242-53.302c15.84,6.933,24.033,20.503,62.502,14.36
	C154.666,137.043,153.385,125.341,138.686,112.417z M99.998,134.442c-19.026,0-34.448-15.422-34.448-34.446
	S80.972,65.55,99.998,65.55c19.022,0,34.444,15.422,34.444,34.446S119.021,134.442,99.998,134.442z"/>
</svg>
