<?xml version="1.0" encoding="utf-8"?>
<!DOCTYPE svg PUBLIC "-//W3C//DTD SVG 1.1//EN" "http://www.w3.org/Graphics/SVG/1.1/DTD/svg11.dtd">
<svg version="1.1" id="Layer_1" xmlns="http://www.w3.org/2000/svg" xmlns:xlink="http://www.w3.org/1999/xlink" x="0px" y="0px"
	 width="200px" height="199.999px" viewBox="0 0 200 199.999" enable-background="new 0 0 200 199.999" xml:space="preserve">
<linearGradient id="gradient" gradientUnits="userSpaceOnUse" x1="17.1387" y1="199.999" x2="17.1387" y2="0">
	<stop  offset="0" style="stop-color:#404040"/>
	<stop  offset="1" style="stop-color:#A0A0A0"/>
</linearGradient>
<path fill="#808080" d="M100,0C44.772,0,0,44.772,0,100s44.772,99.999,100,99.999c55.229,0,100-44.771,100-99.999S155.229,0,100,0z
	 M100,185.991c-47.414,0-85.989-38.576-85.989-85.991c0-47.411,38.575-85.989,85.989-85.989c47.41,0,85.988,38.578,85.988,85.989
	C185.988,147.415,147.41,185.991,100,185.991z"/>
<path fill="#C0C0C0" d="M99.996,28.009c-39.687,0-71.978,32.294-71.978,71.995c0,39.687,32.291,71.979,71.978,71.979
	c39.705,0,71.996-32.293,71.996-71.979C171.992,60.303,139.701,28.009,99.996,28.009z M113.891,160.151H86.113V83.067h27.777
	V160.151z M100,74.737c-9.637,0-17.445-7.813-17.445-17.442c0-9.632,7.809-17.445,17.445-17.445s17.441,7.813,17.441,17.445
	C117.441,66.924,109.637,74.737,100,74.737z"/>
</svg>
