<?xml version="1.0" encoding="utf-8"?>
<svg version="1.1" id="Layer_1" xmlns="http://www.w3.org/2000/svg" xmlns:xlink="http://www.w3.org/1999/xlink" x="0px" y="0px"
	 width="29.252px" height="28.346px" viewBox="0 0 29.252 28.346" enable-background="new 0 0 29.252 28.346" xml:space="preserve">
<linearGradient id="gradient" gradientUnits="userSpaceOnUse" x1="17.1387" y1="28.3467" x2="17.1387" y2="4.882813e-004">
	<stop  offset="0" style="stop-color:#404040"/>
	<stop  offset="1" style="stop-color:#A0A0A0"/>
</linearGradient>
<path fill="#C0C0C0" d="M17.928,1.316c-0.218,0.602-0.95,2.745-1.877,5.451c-0.443-0.107-0.94,0.266-1.122,0.859
	c-0.172,0.561-0.002,1.114,0.378,1.309c-0.134,0.39-0.271,0.786-0.407,1.184c-0.486-0.143-1.044,0.269-1.243,0.924
	c-0.19,0.619,0.006,1.229,0.435,1.427c-0.124,0.354-0.246,0.708-0.367,1.059c-0.01-0.003-0.018-0.011-0.029-0.014
	c-0.549-0.168-1.179,0.296-1.404,1.037c-0.218,0.709,0.014,1.409,0.516,1.616c-0.122,0.35-0.241,0.691-0.357,1.023
	c-0.024-0.01-0.043-0.023-0.067-0.03c-0.59-0.18-1.268,0.317-1.51,1.113c-0.236,0.769,0.021,1.527,0.569,1.743
	c-0.375,1.037-0.67,1.819-0.84,2.214c-0.624,1.445-1.757,0.915-2.04-0.008c-0.285-0.926-0.867-2.604-1.091-4.189
	c-0.038-0.275-0.023-0.574,0.019-0.881l-3.994,1.139c0.213,0.295,0.402,0.624,0.548,1.003c1.73,4.511,2.203,7.233,3.217,8.203
	c0.762,0.731,2.036,1.472,3.626-0.003c2.373-2.201,7.109-21.538,8.324-25.255c0.3-0.918,0.882-0.983,1.532,0.102
	c0.342,0.569,0.699,0.988,1.075,1.309L22.37,2.82c-0.633-0.625-1.025-1.433-1.303-1.888C20.271-0.369,18.536-0.369,17.928,1.316z
	 M12.546,18.789c-0.161,0.525-0.531,0.809-0.8,0.809c-0.036,0-0.073-0.006-0.105-0.016c-0.287-0.088-0.484-0.588-0.308-1.163
	c0.161-0.525,0.532-0.81,0.799-0.81c0.037,0,0.073,0.005,0.108,0.016c0.133,0.041,0.218,0.155,0.265,0.243
	C12.632,18.111,12.647,18.455,12.546,18.789z M13.816,15.022c-0.14,0.455-0.472,0.729-0.711,0.729c-0.033,0-0.063-0.004-0.092-0.014
	c-0.25-0.076-0.421-0.523-0.263-1.041c0.142-0.458,0.473-0.73,0.713-0.73c0.032,0,0.062,0.004,0.09,0.013
	c0.156,0.048,0.235,0.214,0.269,0.31C13.897,14.497,13.895,14.766,13.816,15.022z M14.965,11.445
	c-0.117,0.383-0.389,0.612-0.584,0.612c-0.022,0-0.043-0.003-0.063-0.01c-0.2-0.061-0.327-0.442-0.2-0.861
	c0.117-0.383,0.39-0.611,0.584-0.611c0.023,0,0.043,0.002,0.064,0.01c0.116,0.035,0.179,0.166,0.205,0.24
	C15.033,11.002,15.031,11.228,14.965,11.445z M16.107,7.987c-0.104,0.334-0.344,0.541-0.505,0.541c-0.019,0-0.034-0.002-0.05-0.007
	c-0.097-0.03-0.148-0.15-0.166-0.2c-0.057-0.157-0.053-0.358,0.006-0.553c0.102-0.333,0.341-0.541,0.504-0.541
	c0.019,0,0.035,0.002,0.05,0.008c0.064,0.02,0.11,0.082,0.136,0.131C16.167,7.525,16.176,7.763,16.107,7.987z"/>
<path fill="#808080" d="M28.742,2.17c-1.28-0.071-2.116,0.574-2.472,0.859c-0.354,0.285-1.137,0.731-2.132,0.651
	c-0.446-0.036-0.83-0.175-1.163-0.375l-0.526,0.791c0.596,0.319,1.239,0.436,1.943,0.451c1.626,0.036,2.759-0.439,3.47-0.795
	S30.021,2.241,28.742,2.17z"/>
<path fill="#808080" d="M9.428,13.656C6.029,14.56,3.754,15.173,0,16.184c0,0,1.659,0.262,2.932,1.466l4.758-1.356
	C8.016,15.329,8.643,14.354,9.428,13.656z"/>
</svg>
