<?xml version="1.0" encoding="utf-8"?>
<!DOCTYPE svg PUBLIC "-//W3C//DTD SVG 1.1//EN" "http://www.w3.org/Graphics/SVG/1.1/DTD/svg11.dtd">
<svg version="1.1" id="Layer_1" xmlns="http://www.w3.org/2000/svg" xmlns:xlink="http://www.w3.org/1999/xlink" x="0px" y="0px"
	 width="206.387px" height="200px" viewBox="0 0 206.387 200" enable-background="new 0 0 206.387 200" xml:space="preserve">
<linearGradient id="gradient" gradientUnits="userSpaceOnUse" x1="17.1387" y1="200" x2="17.1387" y2="0">
	<stop  offset="0" style="stop-color:#404040"/>
	<stop  offset="1" style="stop-color:#A0A0A0"/>
</linearGradient>
<path fill="#C0C0C0" d="M126.49,9.284c-1.535,4.248-6.703,19.369-13.242,38.462c-3.129-0.758-6.635,1.877-7.918,6.063
	c-1.213,3.958-0.014,7.861,2.668,9.236c-0.945,2.752-1.91,5.543-2.873,8.354c-3.432-1.01-7.367,1.895-8.771,6.521
	c-1.344,4.364,0.041,8.671,3.066,10.066c-0.877,2.498-1.736,4.995-2.592,7.469c-0.068-0.024-0.123-0.076-0.207-0.097
	c-3.871-1.185-8.316,2.088-9.908,7.314c-1.535,5.003,0.098,9.938,3.639,11.407c-0.861,2.463-1.701,4.871-2.521,7.217
	c-0.172-0.064-0.303-0.166-0.477-0.213c-4.16-1.268-8.943,2.242-10.652,7.854c-1.666,5.424,0.145,10.777,4.018,12.299
	c-2.646,7.318-4.727,12.838-5.926,15.621c-4.402,10.197-12.395,6.457-14.393-0.055c-2.012-6.533-6.119-18.369-7.697-29.559
	c-0.27-1.943-0.166-4.053,0.131-6.217l-28.182,8.035c1.504,2.08,2.84,4.402,3.867,7.076c12.209,31.826,15.543,51.035,22.695,57.877
	c5.375,5.162,14.367,10.385,25.584-0.02c16.742-15.531,50.16-151.964,58.732-178.188c2.115-6.48,6.221-6.935,10.811,0.717
	c2.412,4.017,4.934,6.97,7.586,9.236l3.906-5.863c-4.465-4.413-7.234-10.108-9.191-13.319C143.027-2.601,130.783-2.601,126.49,9.284
	z M88.52,132.564c-1.139,3.707-3.75,5.705-5.645,5.705c-0.254,0-0.516-0.041-0.744-0.109c-2.025-0.621-3.416-4.148-2.17-8.207
	c1.137-3.707,3.756-5.713,5.637-5.713c0.262,0,0.516,0.039,0.764,0.111c0.938,0.289,1.537,1.096,1.867,1.715
	C89.125,127.783,89.234,130.207,88.52,132.564z M97.482,105.985c-0.984,3.218-3.328,5.14-5.016,5.14
	c-0.234,0-0.447-0.023-0.648-0.09c-1.764-0.543-2.969-3.699-1.854-7.352c1-3.228,3.336-5.15,5.031-5.15
	c0.227,0,0.434,0.031,0.633,0.09c1.104,0.341,1.66,1.513,1.895,2.181C98.055,102.285,98.033,104.18,97.482,105.985z M105.586,80.754
	c-0.826,2.704-2.742,4.316-4.121,4.316c-0.158,0-0.303-0.021-0.447-0.072c-1.412-0.431-2.309-3.121-1.412-6.074
	c0.826-2.701,2.748-4.313,4.119-4.313c0.166,0,0.305,0.018,0.455,0.069c0.82,0.244,1.262,1.172,1.447,1.691
	C106.068,77.629,106.055,79.221,105.586,80.754z M113.646,56.355c-0.73,2.359-2.424,3.816-3.561,3.816
	c-0.131,0-0.242-0.017-0.352-0.051c-0.684-0.211-1.049-1.062-1.172-1.409c-0.4-1.109-0.373-2.529,0.041-3.9
	c0.717-2.353,2.404-3.813,3.555-3.813c0.131,0,0.248,0.018,0.352,0.059c0.455,0.142,0.779,0.579,0.959,0.927
	C114.068,53.093,114.129,54.771,113.646,56.355z"/>
<path fill="#808080" d="M202.793,15.311c-9.033-0.5-14.932,4.051-17.439,6.06c-2.494,2.012-8.02,5.157-15.041,4.596
	c-3.148-0.255-5.857-1.236-8.207-2.646l-3.713,5.581c4.203,2.249,8.744,3.073,13.711,3.183c11.473,0.252,19.465-3.101,24.48-5.608
	C201.602,23.968,211.818,15.81,202.793,15.311z"/>
<path fill="#808080" d="M66.518,96.35C42.541,102.729,26.486,107.057,0,114.191c0,0,11.707,1.844,20.684,10.34l33.57-9.568
	C56.555,108.152,60.979,101.276,66.518,96.35z"/>
</svg>
