<?xml version="1.0" encoding="utf-8"?>
<!DOCTYPE svg PUBLIC "-//W3C//DTD SVG 1.1//EN" "http://www.w3.org/Graphics/SVG/1.1/DTD/svg11.dtd">
<svg version="1.1" id="Layer_1" xmlns="http://www.w3.org/2000/svg" xmlns:xlink="http://www.w3.org/1999/xlink" x="0px" y="0px"
	 width="187.261px" height="247.791px" viewBox="0 0 187.261 247.791" enable-background="new 0 0 187.261 247.791"
	 xml:space="preserve">
<linearGradient id="gradient" gradientUnits="userSpaceOnUse" x1="17.1387" y1="247.791" x2="17.1387" y2="0">
	<stop  offset="0" style="stop-color:#404040"/>
	<stop  offset="1" style="stop-color:#A0A0A0"/>
</linearGradient>
<path fill="#C0C0C0" d="M4.9,91.462h33.017l0,0c0-26,17.918-47.84,42.041-53.956l-8.67-31.888C33.107,15.529,4.9,50.185,4.9,91.462z
	 M182.36,91.462c0-41.277-28.207-75.932-66.385-85.843l-8.67,31.888c24.119,6.118,42.037,27.957,42.037,53.955l0,0H182.36z"/>
<path fill="#C0C0C0" d="M182.36,224.244V118.803h-33.018v105.441H182.36z"/>
<path fill="#C0C0C0" d="M37.916,224.244V118.803H4.897v105.441H37.916z"/>
<path fill="#C0C0C0" d="M0,243.666c0,2.281,1.848,4.125,4.127,4.125h179.007c2.279,0,4.127-1.844,4.127-4.125V232.83
	c0-2.277-1.848-4.125-4.127-4.125H4.127c-2.279,0-4.127,1.848-4.127,4.125V243.666z"/>
<path fill="#C0C0C0" d="M0,110.552c0,2.277,1.848,4.125,4.127,4.125h179.007c2.279,0,4.127-1.848,4.127-4.125V99.716
	c0-2.277-1.848-4.125-4.127-4.125H4.127C1.848,95.591,0,97.438,0,99.716V110.552z"/>
<path fill="#C0C0C0" d="M93.631,35.233c2.886,0,5.72,0.22,8.489,0.64l9.338-34.357C105.659,0.537,99.71,0,93.631,0
	S81.603,0.537,75.803,1.515l9.34,34.358C87.911,35.453,90.745,35.233,93.631,35.233z"/>
<path fill="#808080" d="M97.412,118.803h43.635v11.635H97.412V118.803z M97.412,137.42h43.635v11.635H97.412V137.42z
	 M97.412,156.038h43.635v11.635H97.412V156.038z M46.213,118.803h43.633v11.635H46.213V118.803z M46.213,137.42h43.633v11.635
	H46.213V137.42z M46.213,156.038h43.633v11.635H46.213V156.038z"/>
<path fill="#808080" d="M93.633,43.976c26.182,0,47.482,21.305,47.482,47.486H46.145C46.145,65.28,67.449,43.976,93.633,43.976z"/>
<rect x="46.145" y="175.271" fill="#808080" width="94.971" height="48.973"/>
</svg>
