<?xml version="1.0" encoding="utf-8"?>
<!DOCTYPE svg PUBLIC "-//W3C//DTD SVG 1.1//EN" "http://www.w3.org/Graphics/SVG/1.1/DTD/svg11.dtd">
<svg version="1.1" id="Layer_1" xmlns="http://www.w3.org/2000/svg" xmlns:xlink="http://www.w3.org/1999/xlink" x="0px" y="0px"
	 width="200px" height="200.001px" viewBox="0 0 200 200.001" enable-background="new 0 0 200 200.001" xml:space="preserve">
<linearGradient id="gradient" gradientUnits="userSpaceOnUse" x1="17.1387" y1="200.001" x2="17.1387" y2="0">
	<stop  offset="0" style="stop-color:#404040"/>
	<stop  offset="1" style="stop-color:#A0A0A0"/>
</linearGradient>
<path fill="#C0C0C0" d="M0,114.741h93.43V85.259H0V114.741z M0,200.001h93.43v-29.48H0V200.001z M0,157.364h93.43v-29.473H0V157.364
	z M0,29.477h93.43V0H0V29.477z M0,72.105h93.43V42.626H0V72.105z M106.57,114.741H200V85.259h-93.43V114.741z M106.57,200.001H200
	v-29.48h-93.43V200.001z M106.57,72.105H200V42.626h-93.43V72.105z M106.57,0v29.477H200V0H106.57z M106.57,157.364H200v-29.473
	h-93.43V157.364z"/>
</svg>
