<?xml version="1.0" encoding="utf-8"?>
<!DOCTYPE svg PUBLIC "-//W3C//DTD SVG 1.1//EN" "http://www.w3.org/Graphics/SVG/1.1/DTD/svg11.dtd">
<svg version="1.1" id="Layer_1" xmlns="http://www.w3.org/2000/svg" xmlns:xlink="http://www.w3.org/1999/xlink" x="0px" y="0px"
	 width="250.021px" height="200.001px" viewBox="0 0 250.021 200.001" enable-background="new 0 0 250.021 200.001"
	 xml:space="preserve">
<linearGradient id="gradient" gradientUnits="userSpaceOnUse" x1="17.1387" y1="200.001" x2="17.1387" y2="0">
	<stop  offset="0" style="stop-color:#404040"/>
	<stop  offset="1" style="stop-color:#A0A0A0"/>
</linearGradient>
<g>
	<path fill="#808080" d="M226.609,0H23.412C10.5,0,0,10.497,0,23.409v153.186c0,12.912,10.5,23.406,23.412,23.406h203.197
		c12.92,0,23.412-10.494,23.412-23.406V23.409C250.021,10.497,239.529,0,226.609,0z M238.701,176.595
		c0,6.67-5.422,12.098-12.092,12.098H23.412c-6.684,0-12.105-5.428-12.105-12.098V23.409c0-6.673,5.422-12.096,12.105-12.096
		h203.197c6.67,0,12.092,5.423,12.092,12.096V176.595z"/>
</g>
<path fill="#C0C0C0" d="M221.566,168.458c0,2.004-1.627,3.631-3.631,3.631h-61.068c-2.004,0-3.631-1.627-3.631-3.631v-46.033
	c0-2.006,1.627-3.639,3.631-3.639h61.068c2.004,0,3.631,1.633,3.631,3.639V168.458z"/>
</svg>
