<?xml version="1.0" encoding="utf-8"?>
<!DOCTYPE svg PUBLIC "-//W3C//DTD SVG 1.1//EN" "http://www.w3.org/Graphics/SVG/1.1/DTD/svg11.dtd">
<svg version="1.1" id="Layer_1" xmlns="http://www.w3.org/2000/svg" xmlns:xlink="http://www.w3.org/1999/xlink" x="0px" y="0px"
	 width="415px" height="191px" viewBox="0 0 415 191" enable-background="new 0 0 415 191" xml:space="preserve">
<linearGradient id="gradient" gradientUnits="userSpaceOnUse" x1="17.1387" y1="191" x2="17.1387" y2="0">
	<stop  offset="0" style="stop-color:#404040"/>
	<stop  offset="1" style="stop-color:#A0A0A0"/>
</linearGradient>
<polygon fill="#808080" points="82.998,116.998 36,116.998 36,40.003 82.998,40.003 82.998,116.998 "/>
<polygon fill="#808080" points="180.998,116.998 134,116.998 134,40.003 180.998,40.003 180.998,116.998 "/>
<polygon fill="#808080" points="280.998,116.998 234,116.998 234,40.003 280.998,40.003 280.998,116.998 "/>
<polygon fill="#808080" points="378.998,116.998 332,116.998 332,40.003 378.998,40.003 378.998,116.998 "/>
<path fill="#C0C0C0" d="M396.766,0H18.234C8.164,0,0,8.164,0,18.234v154.531C0,182.836,8.164,191,18.234,191H191v-38h33v38h172.766
	c10.07,0,18.234-8.164,18.234-18.234V18.234C415,8.164,406.836,0,396.766,0z M20,24.001h79V133H20V24.001z M40,182H23v-29h17V182z
	 M74,182H57v-29h17V182z M108,182H91v-29h17V182z M142,182h-17v-29h17V182z M176,182h-17v-29h17V182z M197,133h-79V24.001h79V133z
	 M256,182h-17v-29h17V182z M290,182h-17v-29h17V182z M297,133h-79V24.001h79V133z M324,182h-17v-29h17V182z M358,182h-17v-29h17V182
	z M392,182h-17v-29h17V182z M395,133h-79V24.001h79V133z"/>
</svg>
