<?xml version="1.0" encoding="utf-8"?>
<!DOCTYPE svg PUBLIC "-//W3C//DTD SVG 1.1//EN" "http://www.w3.org/Graphics/SVG/1.1/DTD/svg11.dtd">
<svg version="1.1" id="Layer_1" xmlns="http://www.w3.org/2000/svg" xmlns:xlink="http://www.w3.org/1999/xlink" x="0px" y="0px"
	 width="223.409px" height="200px" viewBox="0 0 223.409 200" enable-background="new 0 0 223.409 200" xml:space="preserve">
<linearGradient id="gradient" gradientUnits="userSpaceOnUse" x1="17.1387" y1="200" x2="17.1387" y2="0">
	<stop  offset="0" style="stop-color:#404040"/>
	<stop  offset="1" style="stop-color:#A0A0A0"/>
</linearGradient>
<path fill="#808080" d="M136.063,24.36c0-13.457-10.9-24.36-24.35-24.36S87.354,10.903,87.354,24.36
	c0,13.449,10.91,24.354,24.359,24.354S136.063,37.81,136.063,24.36z"/>
<path fill="#808080" d="M144.401,125.212c0-18.049-14.643-32.684-32.693-32.684c-18.053,0-32.691,14.635-32.691,32.684
	c0,18.063,14.639,32.69,32.691,32.69C129.759,157.902,144.401,143.274,144.401,125.212z"/>
<path fill="#C0C0C0" d="M111.708,86.51c2.734,0,5.387,0.316,7.998,0.651v-33.08c-2.59,0.41-5.264,0.647-7.998,0.647
	c-2.729,0-5.41-0.237-8-0.647v33.08C106.319,86.826,108.979,86.51,111.708,86.51z"/>
<path fill="#C0C0C0" d="M78.19,144.563c-1.369-2.371-2.422-4.827-3.439-7.256l-28.645,16.54c1.65,2.039,3.189,4.234,4.557,6.605
	c1.365,2.363,2.502,4.801,3.441,7.25l28.646-16.539C81.155,149.069,79.554,146.923,78.19,144.563z"/>
<path fill="#C0C0C0" d="M145.222,144.563c-1.365,2.366-2.971,4.509-4.563,6.604l28.643,16.536c0.945-2.445,2.074-4.879,3.445-7.248
	c1.365-2.363,2.908-4.568,4.563-6.604l-28.65-16.539C147.64,139.74,146.585,142.199,145.222,144.563z"/>
<path fill="#808080" d="M12.188,154.543c-11.654,6.727-15.647,21.621-8.923,33.266c6.726,11.652,21.625,15.648,33.28,8.92
	c11.645-6.725,15.631-21.625,8.904-33.275C38.726,151.809,23.833,147.818,12.188,154.543z"/>
<path fill="#808080" d="M186.866,196.729c11.658,6.732,26.547,2.738,33.271-8.902c6.732-11.65,2.742-26.551-8.916-33.283
	c-11.645-6.718-26.541-2.725-33.271,8.926C171.231,175.109,175.222,190.008,186.866,196.729z"/>
</svg>
