<?xml version="1.0" encoding="utf-8"?>
<svg version="1.1" id="Layer_1" xmlns="http://www.w3.org/2000/svg" xmlns:xlink="http://www.w3.org/1999/xlink" x="0px" y="0px"
	 width="31.665px" height="28.346px" viewBox="0 0 31.665 28.346" enable-background="new 0 0 31.665 28.346" xml:space="preserve">
<linearGradient id="gradient" gradientUnits="userSpaceOnUse" x1="17.1387" y1="28.3467" x2="17.1387" y2="4.882813e-004">
	<stop  offset="0" style="stop-color:#404040"/>
	<stop  offset="1" style="stop-color:#A0A0A0"/>
</linearGradient>
<circle fill="#808080" cx="15.833" cy="3.453" r="3.452"/>
<circle fill="#808080" cx="15.833" cy="17.747" r="4.634"/>
<path fill="#C0C0C0" d="M15.833,12.261c0.388,0,0.764,0.045,1.134,0.092V7.665c-0.367,0.058-0.746,0.092-1.134,0.092
	c-0.387,0-0.767-0.034-1.134-0.092v4.688C15.069,12.306,15.446,12.261,15.833,12.261z"/>
<path fill="#C0C0C0" d="M11.082,20.489c-0.194-0.336-0.343-0.684-0.487-1.027l-4.06,2.344c0.234,0.289,0.452,0.6,0.646,0.936
	c0.193,0.336,0.354,0.682,0.488,1.028l4.06-2.345C11.502,21.127,11.275,20.824,11.082,20.489z"/>
<path fill="#C0C0C0" d="M20.583,20.489c-0.193,0.336-0.421,0.64-0.646,0.937l4.06,2.344c0.134-0.347,0.294-0.691,0.488-1.027
	c0.193-0.335,0.412-0.647,0.646-0.937l-4.061-2.344C20.925,19.805,20.776,20.155,20.583,20.489z"/>
<circle fill="#808080" cx="3.454" cy="24.894" r="3.452"/>
<circle fill="#808080" cx="28.211" cy="24.894" r="3.452"/>
</svg>
