<?xml version="1.0" encoding="utf-8"?>
<!DOCTYPE svg PUBLIC "-//W3C//DTD SVG 1.1//EN" "http://www.w3.org/Graphics/SVG/1.1/DTD/svg11.dtd">
<svg version="1.1" id="Layer_1" xmlns="http://www.w3.org/2000/svg" xmlns:xlink="http://www.w3.org/1999/xlink" x="0px" y="0px"
	 width="238.633px" height="200.001px" viewBox="0 0 238.633 200.001" enable-background="new 0 0 238.633 200.001"
	 xml:space="preserve">
<linearGradient id="gradient" gradientUnits="userSpaceOnUse" x1="17.1387" y1="200.001" x2="17.1387" y2="0">
	<stop  offset="0" style="stop-color:#404040"/>
	<stop  offset="1" style="stop-color:#A0A0A0"/>
</linearGradient>
<path fill="#808080" d="M0,167.562h12.771c2.629-15.951,16.437-28.137,33.124-28.137c16.699,0,30.514,12.186,33.139,28.137h56.564
	v-43.693H0V167.562z M229.883,123.841l-81.834,0.02v24.271c5.953-5.389,13.787-8.707,22.447-8.707
	c16.695,0,30.518,12.186,33.121,28.137h35.016C238.633,167.562,238.641,147.298,229.883,123.841z"/>
<rect x="4.613" y="82.947" fill="#C0C0C0" width="131.328" height="30.495"/>
<rect x="4.613" y="41.472" fill="#C0C0C0" width="131.328" height="30.499"/>
<rect x="4.613" fill="#C0C0C0" width="131.328" height="30.496"/>
<polygon fill="#C0C0C0" points="197.271,61.467 148.18,61.467 148.18,113.103 225.307,113.103 "/>
<path fill="#C0C0C0" d="M45.895,149.585c-13.91,0-25.193,11.285-25.193,25.197c0,13.926,11.283,25.219,25.193,25.219
	c13.922,0,25.215-11.293,25.215-25.219C71.109,160.87,59.816,149.585,45.895,149.585z M45.895,186.007
	c-6.184,0-11.207-5.016-11.207-11.225c0-6.18,5.023-11.197,11.207-11.197c6.199,0,11.211,5.018,11.211,11.197
	C57.105,180.991,52.094,186.007,45.895,186.007z"/>
<path fill="#C0C0C0" d="M170.496,149.585c-13.924,0-25.197,11.285-25.197,25.197c0,13.926,11.273,25.219,25.197,25.219
	c13.918,0,25.211-11.293,25.211-25.219C195.707,160.87,184.414,149.585,170.496,149.585z M170.496,186.007
	c-6.188,0-11.217-5.016-11.217-11.225c0-6.18,5.029-11.197,11.217-11.197c6.195,0,11.217,5.018,11.217,11.197
	C181.713,180.991,176.691,186.007,170.496,186.007z"/>
</svg>
