<?xml version="1.0" encoding="utf-8"?>
<!DOCTYPE svg PUBLIC "-//W3C//DTD SVG 1.1//EN" "http://www.w3.org/Graphics/SVG/1.1/DTD/svg11.dtd">
<svg version="1.1" id="Layer_1" xmlns="http://www.w3.org/2000/svg" xmlns:xlink="http://www.w3.org/1999/xlink" x="0px" y="0px"
	 width="177.949px" height="199.996px" viewBox="0 0 177.949 199.996" enable-background="new 0 0 177.949 199.996"
	 xml:space="preserve">
<linearGradient id="gradient" gradientUnits="userSpaceOnUse" x1="17.1387" y1="199.996" x2="17.1387" y2="0">
	<stop  offset="0" style="stop-color:#404040"/>
	<stop  offset="1" style="stop-color:#A0A0A0"/>
</linearGradient>
<g>
	<path fill="#C0C0C0" d="M25.007,8.334c-4.583-4.584-12.083-4.584-16.667,0L8.333,8.34c-4.583,4.583-4.583,12.083,0,16.667
		L74.999,91.67c4.583,4.583,4.583,12.083,0,16.667L8.334,174.995c-4.584,4.583-4.583,12.082,0.001,16.665l0.004,0.004
		c4.584,4.583,12.085,4.582,16.668-0.001l83.328-83.326c4.583-4.583,4.583-12.083,0-16.667L25.007,8.334z"/>
</g>
<g>
	<path fill="#C0C0C0" d="M86.282,8.333c-4.583-4.583-12.083-4.583-16.667,0L69.609,8.34c-4.583,4.583-4.583,12.083,0,16.667
		l66.666,66.663c4.583,4.583,4.583,12.083,0,16.667l-66.66,66.658c-4.583,4.583-4.583,12.083,0,16.666l0.001,0.002
		c4.583,4.583,12.083,4.583,16.667,0l83.333-83.326c4.584-4.583,4.584-12.083,0.001-16.667L86.282,8.333z"/>
</g>
</svg>
