<?xml version="1.0" encoding="utf-8"?>
<!DOCTYPE svg PUBLIC "-//W3C//DTD SVG 1.1//EN" "http://www.w3.org/Graphics/SVG/1.1/DTD/svg11.dtd">
<svg version="1.1" id="Layer_1" xmlns="http://www.w3.org/2000/svg" xmlns:xlink="http://www.w3.org/1999/xlink" x="0px" y="0px"
	 width="177.953px" height="200px" viewBox="0 0 177.953 200" enable-background="new 0 0 177.953 200" xml:space="preserve">
<linearGradient id="gradient" gradientUnits="userSpaceOnUse" x1="17.1387" y1="200" x2="17.1387" y2="0">
	<stop  offset="0" style="stop-color:#404040"/>
	<stop  offset="1" style="stop-color:#A0A0A0"/>
</linearGradient>
<g>
	<path fill="#C0C0C0" d="M152.946,191.667c4.583,4.583,12.083,4.583,16.666,0l0.008-0.008c4.583-4.583,4.583-12.083-0.001-16.666
		l-66.67-66.66c-4.584-4.583-4.584-12.083,0-16.666l66.668-66.663c4.584-4.583,4.584-12.083,0-16.666l-0.004-0.005
		c-4.584-4.583-12.084-4.583-16.667,0L69.613,91.667c-4.583,4.583-4.583,12.083,0,16.667L152.946,191.667z"/>
</g>
<g>
	<path fill="#C0C0C0" d="M91.663,191.666c4.583,4.584,12.083,4.584,16.667,0.001l0.008-0.008c4.584-4.583,4.584-12.083,0-16.666
		l-66.665-66.66c-4.583-4.583-4.583-12.083,0-16.667l66.662-66.662c4.583-4.583,4.583-12.083-0.001-16.667l-0.004-0.005
		c-4.584-4.583-12.084-4.583-16.667,0L8.333,91.667c-4.583,4.583-4.583,12.083,0,16.667L91.663,191.666z"/>
</g>
</svg>
