<?xml version="1.0" encoding="utf-8"?>
<!DOCTYPE svg PUBLIC "-//W3C//DTD SVG 1.1//EN" "http://www.w3.org/Graphics/SVG/1.1/DTD/svg11.dtd">
<svg version="1.1" id="Layer_1" xmlns="http://www.w3.org/2000/svg" xmlns:xlink="http://www.w3.org/1999/xlink" x="0px" y="0px"
	 width="196.662px" height="200px" viewBox="0 0 196.662 200" enable-background="new 0 0 196.662 200" xml:space="preserve">
<linearGradient id="gradient" gradientUnits="userSpaceOnUse" x1="17.1387" y1="200" x2="17.1387" y2="0">
	<stop  offset="0" style="stop-color:#404040"/>
	<stop  offset="1" style="stop-color:#A0A0A0"/>
</linearGradient>
<polygon fill="#808080" points="90.359,120.596 119.773,120.596 119.773,59.107 143.613,59.107 105.188,0 66.766,59.107 
	90.359,59.107 "/>
<path fill="#C0C0C0" d="M154.824,96.97h-26.293v23.626h38.633V109.32C167.164,102.492,161.645,96.97,154.824,96.97z M42.717,120.596
	h38.891V96.97H60.693V85.139c0-5.112-4.141-9.26-9.258-9.26H9.247C4.141,75.879,0,80.026,0,85.139V190.58
	c0,0.18,0.045,0.338,0.045,0.496l30.037-63.373C31.943,123.773,37.6,120.596,42.717,120.596z"/>
<path fill="#C0C0C0" d="M156.844,200H7.304c-0.358,0-0.654-0.021-0.916-0.076l31.942-67.422c0.896-1.9,4.549-4.113,7.891-4.113
	h149.531c0.373,0,0.662,0.027,0.91,0.072l-31.93,67.432C163.836,197.787,160.191,200,156.844,200L156.844,200z"/>
</svg>
