<?xml version="1.0" encoding="utf-8"?>
<!DOCTYPE svg PUBLIC "-//W3C//DTD SVG 1.1//EN" "http://www.w3.org/Graphics/SVG/1.1/DTD/svg11.dtd">
<svg version="1.1" id="Layer_1" xmlns="http://www.w3.org/2000/svg" xmlns:xlink="http://www.w3.org/1999/xlink" x="0px" y="0px"
	 width="197.66px" height="200px" viewBox="0 0 197.66 200" enable-background="new 0 0 197.66 200" xml:space="preserve">
<linearGradient id="gradient" gradientUnits="userSpaceOnUse" x1="17.1387" y1="200" x2="17.1387" y2="0">
	<stop  offset="0" style="stop-color:#404040"/>
	<stop  offset="1" style="stop-color:#A0A0A0"/>
</linearGradient>
<path fill="#808080" d="M82.883,87.896c19.328,0,37.428,8.854,49.314,23.909h0.322c8.316,0,16.365,2.287,23.449,6.311
	c11.574-12.566,18.699-29.275,18.699-47.659C174.668,31.605,143.063,0,104.209,0C65.348,0,33.734,31.605,33.734,70.456
	c0,11.816,2.957,22.937,8.109,32.729C53.076,93.482,67.539,87.896,82.883,87.896z"/>
<path fill="#C0C0C0" d="M169.762,200c15.406,0,27.898-12.5,27.898-27.906s-12.492-27.904-27.898-27.904
	c-2.219,0-4.361,0.281-6.422,0.771c-5.449-11.549-17.191-19.541-30.813-19.541c-2.398,0-4.754,0.254-7.008,0.723
	c-8.51-14.717-24.412-24.633-42.637-24.633c-19.926,0-37.084,11.852-44.828,28.877c-1.047-0.096-2.107-0.145-3.184-0.145
	C15.605,130.242,0,145.863,0,165.113C0,184.387,15.605,200,34.871,200H169.762z"/>
</svg>
