<?xml version="1.0" encoding="utf-8"?>
<svg version="1.1" id="Layer_1" xmlns="http://www.w3.org/2000/svg" xmlns:xlink="http://www.w3.org/1999/xlink" x="0px" y="0px"
	 width="28.015px" height="28.346px" viewBox="0 0 28.015 28.346" enable-background="new 0 0 28.015 28.346" xml:space="preserve">
<linearGradient id="gradient" gradientUnits="userSpaceOnUse" x1="17.1387" y1="28.3467" x2="17.1387" y2="4.882813e-004">
	<stop  offset="0" style="stop-color:#404040"/>
	<stop  offset="1" style="stop-color:#A0A0A0"/>
</linearGradient>
<path fill="#808080" d="M11.747,12.458c2.739,0,5.305,1.255,6.989,3.389h0.046c1.179,0,2.319,0.324,3.323,0.895
	c1.641-1.781,2.65-4.149,2.65-6.755C24.756,4.479,20.276,0,14.77,0C9.262,0,4.781,4.479,4.781,9.986
	c0,1.675,0.419,3.251,1.149,4.639C7.522,13.25,9.572,12.458,11.747,12.458z"/>
<path fill="#C0C0C0" d="M24.061,28.346c2.184,0,3.954-1.771,3.954-3.955s-1.771-3.955-3.954-3.955c-0.314,0-0.618,0.04-0.91,0.109
	c-0.772-1.637-2.437-2.77-4.367-2.77c-0.34,0-0.674,0.036-0.993,0.103c-1.206-2.086-3.46-3.491-6.043-3.491
	c-2.824,0-5.256,1.68-6.354,4.093c-0.148-0.014-0.299-0.021-0.451-0.021C2.212,18.459,0,20.673,0,23.402
	c0,2.731,2.212,4.944,4.942,4.944H24.061z"/>
</svg>
