<?xml version="1.0" encoding="utf-8"?>
<!DOCTYPE svg PUBLIC "-//W3C//DTD SVG 1.1//EN" "http://www.w3.org/Graphics/SVG/1.1/DTD/svg11.dtd">
<svg version="1.1" id="Layer_1" xmlns="http://www.w3.org/2000/svg" xmlns:xlink="http://www.w3.org/1999/xlink" x="0px" y="0px"
	 width="250.016px" height="200.001px" viewBox="0 0 250.016 200.001" enable-background="new 0 0 250.016 200.001"
	 xml:space="preserve">
<linearGradient id="gradient" gradientUnits="userSpaceOnUse" x1="17.1387" y1="200.001" x2="17.1387" y2="0">
	<stop  offset="0" style="stop-color:#404040"/>
	<stop  offset="1" style="stop-color:#A0A0A0"/>
</linearGradient>
<path fill="#808080" d="M226.609,0H23.412C10.5,0,0,10.494,0,23.406v153.188c0,12.904,10.5,23.406,23.412,23.406h203.197
	c12.906,0,23.406-10.502,23.406-23.406V23.406C250.016,10.494,239.516,0,226.609,0z M238.316,124.774H145.92
	c-0.346-11.273-9.543-20.334-20.904-20.334c-11.363,0-20.568,9.061-20.912,20.334H11.707V23.409c0-6.47,5.25-11.706,11.705-11.706
	h203.197c6.463,0,11.707,5.236,11.707,11.706V124.774z"/>
<path fill="#C0C0C0" d="M25.707,25.707v85.065h67.545c5.498-12.07,17.611-20.34,31.764-20.34c7.592,0,14.559,2.439,20.27,6.512
	l56.65-67.503l3.68,3.091L149,100.003c3.217,3.047,5.904,6.664,7.771,10.77h67.543V25.707H25.707z M176.504,55.187
	c-16.666-3.304-33.857-5.099-51.488-5.099c-31.227,0-61.186,5.453-88.994,15.396l-4.533-4.545
	c29.145-10.793,60.654-16.708,93.52-16.708c19.127,0,37.758,2.06,55.77,5.863L176.504,55.187z M213.994,65.484
	c-8.398-2.998-16.998-5.537-25.756-7.689l4.176-4.975c8.881,2.294,17.611,4.975,26.127,8.119L213.994,65.484z"/>
</svg>
