<?xml version="1.0" encoding="utf-8"?>
<svg version="1.1" id="Layer_1" xmlns="http://www.w3.org/2000/svg" xmlns:xlink="http://www.w3.org/1999/xlink" x="0px" y="0px"
	 width="35.436px" height="28.347px" viewBox="0 0 35.436 28.347" enable-background="new 0 0 35.436 28.347" xml:space="preserve">
<linearGradient id="gradient" gradientUnits="userSpaceOnUse" x1="17.1387" y1="28.3467" x2="17.1387" y2="4.882813e-004">
	<stop  offset="0" style="stop-color:#404040"/>
	<stop  offset="1" style="stop-color:#A0A0A0"/>
</linearGradient>
<path fill="#808080" d="M32.118,0h-28.8C1.488,0,0,1.487,0,3.317v21.712c0,1.829,1.488,3.317,3.318,3.317h28.8
	c1.829,0,3.317-1.488,3.317-3.317V3.317C35.436,1.487,33.947,0,32.118,0z M33.777,17.685H20.682
	c-0.049-1.598-1.353-2.882-2.963-2.882s-2.915,1.284-2.964,2.882H1.659V3.318c0-0.917,0.744-1.659,1.659-1.659h28.8
	c0.916,0,1.659,0.742,1.659,1.659V17.685z"/>
<path fill="#C0C0C0" d="M3.644,3.644V15.7h9.573c0.779-1.711,2.496-2.883,4.502-2.883c1.076,0,2.063,0.346,2.873,0.923l8.029-9.567
	l0.521,0.438l-8.024,9.563c0.456,0.432,0.837,0.944,1.102,1.526h9.573V3.644H3.644z M25.017,7.822
	c-2.362-0.468-4.799-0.723-7.298-0.723c-4.426,0-8.672,0.773-12.613,2.182L4.463,8.637c4.131-1.53,8.597-2.368,13.255-2.368
	c2.711,0,5.352,0.292,7.904,0.831L25.017,7.822z M30.33,9.281c-1.19-0.425-2.409-0.785-3.65-1.09l0.592-0.705
	c1.259,0.325,2.496,0.705,3.703,1.151L30.33,9.281z"/>
</svg>
