<?xml version="1.0" encoding="utf-8"?>
<!DOCTYPE svg PUBLIC "-//W3C//DTD SVG 1.1//EN" "http://www.w3.org/Graphics/SVG/1.1/DTD/svg11.dtd">
<svg version="1.1" id="Layer_1" xmlns="http://www.w3.org/2000/svg" xmlns:xlink="http://www.w3.org/1999/xlink" x="0px" y="0px"
	 width="210.017px" height="200px" viewBox="0 0 210.017 200" enable-background="new 0 0 210.017 200" xml:space="preserve">
<linearGradient id="gradient" gradientUnits="userSpaceOnUse" x1="17.1387" y1="200" x2="17.1387" y2="0">
	<stop  offset="0" style="stop-color:#404040"/>
	<stop  offset="1" style="stop-color:#A0A0A0"/>
</linearGradient>
<path fill="#808080" d="M186.61,0H23.412C10.5,0,0,10.494,0,23.406v153.188C0,189.498,10.5,200,23.412,200H186.61
	c12.906,0,23.406-10.502,23.406-23.406V23.406C210.017,10.494,199.517,0,186.61,0z M118.944,124.311v29.793H57.991V45.902
	c0,0,40.43,0,45.666,0c6.148,0,48.367-1.277,48.367,39.479C152.024,119.377,118.944,124.311,118.944,124.311z"/>
<path fill="#C0C0C0" d="M136.685,85.379c0,27.602-33.006,24.836-33.006,24.836v28.547H73.333V61.243c3.96,0,9.909-0.051,30.324,0
	C139.778,61.331,136.685,83.919,136.685,85.379z"/>
</svg>
