<?xml version="1.0" encoding="utf-8"?>
<!DOCTYPE svg PUBLIC "-//W3C//DTD SVG 1.1//EN" "http://www.w3.org/Graphics/SVG/1.1/DTD/svg11.dtd">
<svg version="1.1" id="Layer_1" xmlns="http://www.w3.org/2000/svg" xmlns:xlink="http://www.w3.org/1999/xlink" x="0px" y="0px"
	 width="105.008px" height="100px" viewBox="0 0 105.008 100" enable-background="new 0 0 105.008 100" xml:space="preserve">
<linearGradient id="gradient" gradientUnits="userSpaceOnUse" x1="17.1387" y1="100.0" x2="17.1387" y2="0.0">
	<stop  offset="0" style="stop-color:#404040"/>
	<stop  offset="1" style="stop-color:#A0A0A0"/>
</linearGradient>
<path fill="#808080" d="M93.305,0H11.706C5.25,0,0,5.247,0,11.703v76.594C0,94.749,5.25,100,11.706,100h81.599
	c6.453,0,11.703-5.251,11.703-11.703V11.703C105.008,5.247,99.758,0,93.305,0z M59.472,62.155v14.896H28.996V22.951
	c0,0,20.215,0,22.833,0c3.074,0,24.184-0.639,24.184,19.739C76.012,59.688,59.472,62.155,59.472,62.155z"/>
<path fill="#C0C0C0" d="M68.342,42.689c0,13.801-16.503,12.418-16.503,12.418v14.273H36.667V30.622c1.98,0,4.955-0.025,15.162,0
	C69.889,30.666,68.342,41.959,68.342,42.689z"/>
</svg>
