<?xml version="1.0" encoding="utf-8"?>
<!DOCTYPE svg PUBLIC "-//W3C//DTD SVG 1.1//EN" "http://www.w3.org/Graphics/SVG/1.1/DTD/svg11.dtd">
<svg version="1.1" id="Layer_1" xmlns="http://www.w3.org/2000/svg" xmlns:xlink="http://www.w3.org/1999/xlink" x="0px" y="0px"
	 width="216.357px" height="200px" viewBox="0 0 216.357 200" enable-background="new 0 0 216.357 200" xml:space="preserve">
<linearGradient id="gradient" gradientUnits="userSpaceOnUse" x1="17.1387" y1="200" x2="17.1387" y2="0">
	<stop  offset="0" style="stop-color:#404040"/>
	<stop  offset="1" style="stop-color:#A0A0A0"/>
</linearGradient>
<path fill="#808080" d="M51.301,143.888h-32.56C8.389,143.888,0,135.513,0,125.164V74.841c0-10.353,8.389-18.73,18.741-18.73h32.56
	V143.888z"/>
<path fill="#808080" d="M127.434,185.517c0,13.746-9.227,18.557-20.506,10.729l-48.199-52.254V56l48.199-52.238
	c11.279-7.841,20.506-3.024,20.506,10.715V185.517z"/>
<path fill="#C0C0C0" d="M153.877,172.474l-3.852,0.566V158l2.785-0.477c28.158-4.795,48.602-28.982,48.602-57.516
	c0-28.539-20.443-52.733-48.602-57.536l-2.785-0.476V26.941l3.859,0.568C189.5,32.853,216.357,64.01,216.357,100
	C216.357,135.996,189.5,167.162,153.877,172.474z"/>
<path fill="#C0C0C0" d="M152.203,75.572l-2.156-0.83V59.304l4.266,1.216c17.527,5.026,29.766,21.26,29.766,39.48
	c0,18.235-12.258,34.454-29.766,39.46l-4.266,1.236v-15.438l2.156-0.83c10.129-3.838,16.949-13.652,16.949-24.429
	C169.152,89.21,162.332,79.406,152.203,75.572z"/>
</svg>
