<?xml version="1.0" encoding="utf-8"?>
<!DOCTYPE svg PUBLIC "-//W3C//DTD SVG 1.1//EN" "http://www.w3.org/Graphics/SVG/1.1/DTD/svg11.dtd">
<svg version="1.1" id="Layer_1" xmlns="http://www.w3.org/2000/svg" xmlns:xlink="http://www.w3.org/1999/xlink" x="0px" y="0px"
	 width="88.871px" height="113.385px" viewBox="0 0 88.871 113.385" enable-background="new 0 0 88.871 113.385"
	 xml:space="preserve">
<linearGradient id="gradient" gradientUnits="userSpaceOnUse" x1="17.1387" y1="113.385" x2="17.1387" y2="0">
	<stop  offset="0" style="stop-color:#404040"/>
	<stop  offset="1" style="stop-color:#A0A0A0"/>
</linearGradient>
<path fill="#808080" d="M60.031,65.01h2.52v13.555c0,8.148-6.637,14.781-14.789,14.781h-6.91c-8.148,0-14.781-6.633-14.781-14.781
	V65.01h2.539v-3.984h-7.684v17.535c0,10.992,8.941,19.93,19.93,19.93h0.191v8.918H29.543v0.031
	c-2.094,0.098-3.777,1.656-3.949,3.629v2.316h37.492v-2.316c-0.176-1.992-1.887-3.563-4.012-3.633v-0.027h-11.5V98.49h0.188
	c10.988,0,19.93-8.938,19.93-19.93V61.025h-7.66V65.01z M31.289,67.564v11c0,5.281,4.285,9.566,9.566,9.566h6.906
	c5.285,0,9.566-4.285,9.566-9.566V56.137h-6.434c-0.895,0-1.621-0.723-1.621-1.617s0.727-1.615,1.621-1.615h6.434V49.99h-6.434
	c-0.895,0-1.621-0.727-1.621-1.619s0.727-1.615,1.621-1.615h6.434v-2.914h-6.434c-0.895,0-1.621-0.725-1.621-1.619
	c0-0.891,0.727-1.617,1.621-1.617h6.336c-0.633-4.668-4.625-8.275-9.469-8.275h-6.906c-4.844,0-8.836,3.607-9.473,8.275h6.34
	c0.895,0,1.621,0.727,1.621,1.617c0,0.895-0.727,1.619-1.621,1.619h-6.434v2.914h6.434c0.895,0,1.621,0.723,1.621,1.615
	s-0.727,1.619-1.621,1.619h-6.434v2.914h6.434c0.895,0,1.621,0.721,1.621,1.615s-0.727,1.617-1.621,1.617h-6.434v2.814h0.027v8.613
	H31.289z"/>
<path fill="#C0C0C0" d="M44.434,14.424c-16.547,0-30.012,13.465-30.012,30.012c0,4.07,0.879,8.037,2.527,11.826h7
	c-2.094-3.623-3.215-7.707-3.215-11.826c0-13.07,10.633-23.699,23.699-23.699c13.074,0,23.707,10.629,23.707,23.699
	c0,4.127-1.117,8.203-3.223,11.826h7.004c1.648-3.789,2.523-7.756,2.523-11.826C74.445,27.889,60.984,14.424,44.434,14.424z"/>
<path fill="#C0C0C0" d="M44.434,0C19.934,0,0,19.936,0,44.436c0,3.998,0.57,7.965,1.641,11.826h6.582
	c-1.262-3.867-1.918-7.844-1.918-11.826c0-21.023,17.105-38.129,38.129-38.129c21.027,0,38.133,17.105,38.133,38.129
	c0,3.992-0.648,7.965-1.914,11.826h6.586c1.063-3.848,1.633-7.818,1.633-11.826C88.871,19.936,68.938,0,44.434,0z"/>
</svg>
