<?xml version="1.0" encoding="utf-8"?>
<!DOCTYPE svg PUBLIC "-//W3C//DTD SVG 1.1//EN" "http://www.w3.org/Graphics/SVG/1.1/DTD/svg11.dtd">
<svg version="1.1" id="Layer_1" xmlns="http://www.w3.org/2000/svg" xmlns:xlink="http://www.w3.org/1999/xlink" x="0px" y="0px"
	 width="202.738px" height="200px" viewBox="0 0 202.738 200" enable-background="new 0 0 202.738 200" xml:space="preserve">
<linearGradient id="gradient" gradientUnits="userSpaceOnUse" x1="17.1387" y1="200" x2="17.1387" y2="0">
	<stop  offset="0" style="stop-color:#404040"/>
	<stop  offset="1" style="stop-color:#A0A0A0"/>
</linearGradient>
<polygon fill="#C0C0C0" points="0,111.088 1.371,88.684 18.279,87.995 15.537,111.531 "/>
<polygon fill="#C0C0C0" points="21.945,87.768 18.742,111.088 42.064,111.088 43.656,87.537 "/>
<polygon fill="#C0C0C0" points="47.77,87.537 46.172,112.225 70.852,111.088 72.451,87.768 "/>
<polygon fill="#C0C0C0" points="76.117,88.453 100.563,88.226 101.031,111.088 75.662,111.305 "/>
<polygon fill="#C0C0C0" points="104.684,111.305 104.229,87.537 128.682,87.31 128.916,111.531 "/>
<polygon fill="#C0C0C0" points="133.25,110.85 132.795,88.911 150.201,88.911 151.352,111.531 "/>
<polygon fill="#808080" points="155.217,111.088 154.314,89.597 182.172,89.597 184.92,111.08 "/>
<polygon fill="#808080" points="189.262,111.088 186.746,88.453 201.83,88.684 202.738,111.305 "/>
<polygon fill="#C0C0C0" points="2.061,84.109 8.916,59.883 28.346,60.345 23.93,84.061 "/>
<polygon fill="#C0C0C0" points="33.734,60.985 28.664,84.061 52.332,83.654 55.543,60.11 "/>
<polygon fill="#C0C0C0" points="60.559,59.883 58.057,84.336 82.738,84.798 83.662,60.341 "/>
<polygon fill="#C0C0C0" points="91.66,60.338 115.191,60.796 117.252,83.885 89.602,84.336 "/>
<polygon fill="#C0C0C0" points="123.426,84.336 121.605,61.251 145.84,61.481 147.197,84.336 "/>
<polygon fill="#808080" points="152.232,84.795 150.621,61.481 172.119,62.167 176.459,84.795 "/>
<polygon fill="#808080" points="181.943,84.336 177.596,61.939 196.807,62.625 202.277,83.885 "/>
<polygon fill="#C0C0C0" points="11.658,55.535 24.688,38.165 46.186,37.71 40.225,55.308 "/>
<polygon fill="#C0C0C0" points="50.74,37.255 45.256,55.538 69.943,55.766 72.912,38.165 "/>
<polygon fill="#C0C0C0" points="77.26,37.938 74.512,55.766 102.852,55.997 104.008,38.402 "/>
<polygon fill="#C0C0C0" points="107.881,38.165 131.205,39.085 133.25,56.913 107.881,56.683 "/>
<polygon fill="#808080" points="137.371,56.683 135.771,39.085 156.348,40.222 161.143,56.455 "/>
<polygon fill="#808080" points="167.082,56.913 161.598,39.998 181.943,40.222 193.602,58.512 "/>
<polygon fill="#C0C0C0" points="27.203,34.051 42.072,20.34 61.943,20.795 57.148,34.744 "/>
<polygon fill="#C0C0C0" points="67.656,21.028 62.178,33.827 88.912,34.51 91.426,20.795 "/>
<polygon fill="#C0C0C0" points="96.457,21.253 93.486,34.285 122.289,34.971 120,21.253 "/>
<polygon fill="#808080" points="124.576,21.941 144.916,22.399 148.795,35.202 127.084,34.971 "/>
<polygon fill="#808080" points="149.711,22.399 168.914,22.627 178.52,34.744 153.369,35.202 "/>
<polygon fill="#C0C0C0" points="49.375,16.912 62.854,7.537 82.973,7.996 77.26,17.37 "/>
<polygon fill="#C0C0C0" points="87.775,8.45 81.836,17.139 106.523,16.912 106.063,8.685 "/>
<polygon fill="#C0C0C0" points="82.738,0.454 69.494,5.25 94.857,5.708 95.078,0 "/>
<polygon fill="#808080" points="100.115,0.454 99.199,5.942 115.432,5.48 113.834,0.224 "/>
<polygon fill="#808080" points="117.492,0.454 119.553,5.48 136.006,6.17 124.113,0.912 "/>
<polygon fill="#808080" points="109.713,8.45 111.539,16.912 134.629,17.139 128.916,9.363 "/>
<polygon fill="#808080" points="133.953,9.825 137.818,16.912 157.938,17.594 145.371,10.283 "/>
<polygon fill="#808080" points="201.375,116.107 194.754,140.117 175.99,140.02 181.049,116.303 "/>
<polygon fill="#808080" points="170.934,139.387 175.688,116.303 151.324,116.338 148.113,139.889 "/>
<polygon fill="#C0C0C0" points="143.09,140.117 145.605,115.652 120.932,115.201 120.008,139.654 "/>
<polygon fill="#C0C0C0" points="112.008,139.662 88.471,139.207 86.41,116.107 114.068,115.66 "/>
<polygon fill="#C0C0C0" points="80.236,115.66 82.063,138.746 57.822,138.518 56.459,115.66 "/>
<polygon fill="#C0C0C0" points="51.436,115.201 53.035,138.518 31.543,137.822 27.203,115.201 "/>
<polygon fill="#C0C0C0" points="21.719,115.66 26.059,138.057 6.855,137.367 1.371,116.107 "/>
<polygon fill="#808080" points="192.004,144.457 178.975,161.828 157.484,162.283 163.438,144.691 "/>
<polygon fill="#808080" points="152.916,162.744 158.406,144.451 133.719,144.23 130.736,161.828 "/>
<polygon fill="#C0C0C0" points="126.408,162.055 129.15,144.23 100.797,144.01 99.668,161.594 "/>
<polygon fill="#C0C0C0" points="95.773,161.828 72.451,160.904 70.404,143.08 95.773,143.314 "/>
<polygon fill="#C0C0C0" points="66.291,143.314 67.889,160.904 47.322,159.773 42.514,143.541 "/>
<polygon fill="#C0C0C0" points="36.58,143.08 42.072,160.002 21.719,159.773 10.066,141.48 "/>
<polygon fill="#808080" points="176.459,165.934 161.598,179.652 141.719,179.197 146.521,165.26 "/>
<polygon fill="#808080" points="136.006,178.971 141.492,166.168 114.758,165.479 112.234,179.197 "/>
<polygon fill="#C0C0C0" points="107.205,178.736 110.176,165.707 81.381,165.018 83.662,178.736 "/>
<polygon fill="#C0C0C0" points="79.094,178.047 58.746,177.605 54.859,164.811 76.57,165.018 "/>
<polygon fill="#C0C0C0" points="53.951,177.605 34.748,177.365 25.143,165.26 50.299,164.811 "/>
<polygon fill="#808080" points="154.287,183.084 140.809,192.455 120.684,192 126.408,182.623 "/>
<polygon fill="#808080" points="115.895,191.539 121.834,182.85 97.146,183.084 97.607,191.318 "/>
<polygon fill="#808080" points="120.932,199.545 134.182,194.756 108.805,194.281 108.59,200 "/>
<polygon fill="#808080" points="103.553,199.545 104.463,194.066 88.23,194.508 89.828,199.766 "/>
<polygon fill="#C0C0C0" points="86.176,199.545 84.123,194.508 67.662,193.826 79.549,199.084 "/>
<polygon fill="#C0C0C0" points="93.949,191.539 92.123,183.084 69.033,182.85 74.752,190.643 "/>
<polygon fill="#C0C0C0" points="69.715,190.168 65.836,183.084 45.717,182.416 58.291,189.705 "/>
</svg>
