<?xml version="1.0" encoding="utf-8"?>
<svg version="1.1" id="Layer_1" xmlns="http://www.w3.org/2000/svg" xmlns:xlink="http://www.w3.org/1999/xlink" x="0px" y="0px"
	 width="28.734px" height="28.346px" viewBox="0 0 28.734 28.346" enable-background="new 0 0 28.734 28.346" xml:space="preserve">
<linearGradient id="gradient" gradientUnits="userSpaceOnUse" x1="17.1387" y1="28.3467" x2="17.1387" y2="4.882813e-004">
	<stop  offset="0" style="stop-color:#404040"/>
	<stop  offset="1" style="stop-color:#A0A0A0"/>
</linearGradient>
<polygon fill="#C0C0C0" points="0,15.745 0.194,12.569 2.591,12.472 2.202,15.808 "/>
<polygon fill="#C0C0C0" points="3.11,12.439 2.656,15.745 5.962,15.745 6.188,12.407 "/>
<polygon fill="#C0C0C0" points="6.771,12.407 6.544,15.906 10.042,15.745 10.269,12.439 "/>
<polygon fill="#C0C0C0" points="10.788,12.537 14.253,12.504 14.319,15.745 10.724,15.775 "/>
<polygon fill="#C0C0C0" points="14.837,15.775 14.772,12.407 18.238,12.375 18.271,15.808 "/>
<polygon fill="#C0C0C0" points="18.886,15.71 18.821,12.602 21.288,12.602 21.451,15.808 "/>
<polygon fill="#808080" points="21.999,15.745 21.871,12.699 25.819,12.699 26.209,15.744 "/>
<polygon fill="#808080" points="26.824,15.745 26.468,12.537 28.605,12.569 28.734,15.775 "/>
<polygon fill="#C0C0C0" points="0.292,11.921 1.264,8.487 4.018,8.553 3.392,11.914 "/>
<polygon fill="#C0C0C0" points="4.781,8.644 4.063,11.914 7.417,11.856 7.872,8.52 "/>
<polygon fill="#C0C0C0" points="8.583,8.487 8.229,11.953 11.727,12.019 11.857,8.552 "/>
<polygon fill="#C0C0C0" points="12.991,8.552 16.326,8.617 16.618,11.889 12.699,11.953 "/>
<polygon fill="#C0C0C0" points="17.493,11.953 17.235,8.681 20.67,8.714 20.862,11.953 "/>
<polygon fill="#808080" points="21.576,12.018 21.348,8.714 24.395,8.811 25.01,12.018 "/>
<polygon fill="#808080" points="25.787,11.953 25.171,8.779 27.894,8.876 28.669,11.889 "/>
<polygon fill="#C0C0C0" points="1.652,7.871 3.499,5.409 6.546,5.345 5.701,7.839 "/>
<polygon fill="#C0C0C0" points="7.191,5.28 6.414,7.872 9.913,7.904 10.334,5.409 "/>
<polygon fill="#C0C0C0" points="10.95,5.377 10.561,7.904 14.577,7.937 14.741,5.443 "/>
<polygon fill="#C0C0C0" points="15.29,5.409 18.596,5.54 18.886,8.066 15.29,8.034 "/>
<polygon fill="#808080" points="19.47,8.034 19.243,5.54 22.159,5.701 22.839,8.001 "/>
<polygon fill="#808080" points="23.681,8.066 22.903,5.669 25.787,5.701 27.439,8.293 "/>
<polygon fill="#C0C0C0" points="3.855,4.826 5.963,2.883 8.779,2.947 8.1,4.924 "/>
<polygon fill="#C0C0C0" points="9.589,2.98 8.813,4.794 12.602,4.891 12.958,2.947 "/>
<polygon fill="#C0C0C0" points="13.671,3.012 13.25,4.859 17.332,4.957 17.008,3.012 "/>
<polygon fill="#808080" points="17.656,3.11 20.539,3.175 21.089,4.989 18.012,4.957 "/>
<polygon fill="#808080" points="21.219,3.175 23.94,3.207 25.302,4.924 21.737,4.989 "/>
<polygon fill="#C0C0C0" points="6.998,2.397 8.908,1.068 11.76,1.133 10.95,2.462 "/>
<polygon fill="#C0C0C0" points="12.44,1.198 11.599,2.429 15.098,2.397 15.032,1.231 "/>
<polygon fill="#C0C0C0" points="11.727,0.064 9.85,0.744 13.444,0.809 13.476,0 "/>
<polygon fill="#808080" points="14.189,0.064 14.06,0.842 16.36,0.777 16.134,0.032 "/>
<polygon fill="#808080" points="16.652,0.064 16.944,0.777 19.276,0.875 17.591,0.129 "/>
<polygon fill="#808080" points="15.55,1.198 15.809,2.397 19.081,2.429 18.271,1.327 "/>
<polygon fill="#808080" points="18.985,1.393 19.533,2.397 22.385,2.494 20.604,1.458 "/>
<polygon fill="#808080" points="28.541,16.457 27.603,19.859 24.943,19.845 25.66,16.484 "/>
<polygon fill="#808080" points="24.227,19.755 24.9,16.484 21.447,16.489 20.992,19.827 "/>
<polygon fill="#C0C0C0" points="20.28,19.859 20.637,16.392 17.14,16.328 17.009,19.793 "/>
<polygon fill="#C0C0C0" points="15.875,19.794 12.539,19.73 12.247,16.457 16.167,16.392 "/>
<polygon fill="#C0C0C0" points="11.372,16.392 11.631,19.665 8.195,19.632 8.002,16.392 "/>
<polygon fill="#C0C0C0" points="7.29,16.328 7.517,19.632 4.471,19.534 3.855,16.328 "/>
<polygon fill="#C0C0C0" points="3.078,16.392 3.693,19.567 0.972,19.469 0.194,16.457 "/>
<polygon fill="#808080" points="27.213,20.474 25.366,22.936 22.32,23 23.164,20.507 "/>
<polygon fill="#808080" points="21.673,23.066 22.451,20.473 18.952,20.442 18.529,22.936 "/>
<polygon fill="#C0C0C0" points="17.916,22.968 18.305,20.442 14.286,20.411 14.126,22.903 "/>
<polygon fill="#C0C0C0" points="13.574,22.936 10.269,22.805 9.979,20.279 13.574,20.312 "/>
<polygon fill="#C0C0C0" points="9.396,20.312 9.622,22.805 6.707,22.645 6.025,20.344 "/>
<polygon fill="#C0C0C0" points="5.185,20.279 5.963,22.677 3.078,22.645 1.427,20.052 "/>
<polygon fill="#808080" points="25.01,23.518 22.903,25.462 20.086,25.398 20.767,23.422 "/>
<polygon fill="#808080" points="19.276,25.366 20.054,23.551 16.265,23.454 15.907,25.398 "/>
<polygon fill="#C0C0C0" points="15.194,25.333 15.615,23.486 11.534,23.388 11.857,25.333 "/>
<polygon fill="#C0C0C0" points="11.21,25.235 8.326,25.172 7.775,23.359 10.853,23.388 "/>
<polygon fill="#C0C0C0" points="7.646,25.172 4.925,25.138 3.563,23.422 7.129,23.359 "/>
<polygon fill="#808080" points="21.867,25.949 19.957,27.277 17.104,27.212 17.916,25.883 "/>
<polygon fill="#808080" points="16.426,27.147 17.268,25.916 13.769,25.949 13.834,27.116 "/>
<polygon fill="#808080" points="17.14,28.282 19.018,27.603 15.421,27.536 15.391,28.346 "/>
<polygon fill="#808080" points="14.677,28.282 14.806,27.505 12.505,27.568 12.731,28.313 "/>
<polygon fill="#C0C0C0" points="12.214,28.282 11.923,27.568 9.59,27.471 11.274,28.216 "/>
<polygon fill="#C0C0C0" points="13.315,27.147 13.057,25.949 9.784,25.916 10.595,27.02 "/>
<polygon fill="#C0C0C0" points="9.881,26.953 9.331,25.949 6.479,25.854 8.262,26.887 "/>
</svg>
