<?xml version="1.0" encoding="utf-8"?>
<!DOCTYPE svg PUBLIC "-//W3C//DTD SVG 1.1//EN" "http://www.w3.org/Graphics/SVG/1.1/DTD/svg11.dtd">
<svg version="1.1" id="Layer_1" xmlns="http://www.w3.org/2000/svg" xmlns:xlink="http://www.w3.org/1999/xlink" x="0px" y="0px"
	 width="188.032px" height="200px" viewBox="0 0 188.032 200" enable-background="new 0 0 188.032 200" xml:space="preserve">
<linearGradient id="gradient" gradientUnits="userSpaceOnUse" x1="17.1387" y1="200" x2="17.1387" y2="0">
	<stop  offset="0" style="stop-color:#404040"/>
	<stop  offset="1" style="stop-color:#A0A0A0"/>
</linearGradient>
<path fill="#C0C0C0" d="M130.505,19.32v31.209c18.018,11.899,29.951,32.295,29.951,55.456c0,36.632-29.813,66.425-66.449,66.425
	c-36.615,0-66.428-29.793-66.428-66.425c0-23.161,11.934-43.557,29.943-55.456V19.32C23.728,33.565,0,67.004,0,105.985
	C0,157.906,42.103,200,94.007,200c51.932,0,94.025-42.094,94.025-94.015C188.032,67.004,164.302,33.565,130.505,19.32z"/>
<path fill="#808080" d="M135.673,88.095H108.14v-73.96C108.14,6.328,101.821,0,94.007,0c-7.799,0-14.139,6.328-14.139,14.135v88.099
	c0,7.813,6.34,14.132,14.133,14.132h41.672c7.813,0,14.139-6.318,14.139-14.132C149.812,94.427,143.485,88.095,135.673,88.095z"/>
</svg>
