<?xml version="1.0" encoding="utf-8"?>
<!DOCTYPE svg PUBLIC "-//W3C//DTD SVG 1.1//EN" "http://www.w3.org/Graphics/SVG/1.1/DTD/svg11.dtd">
<svg version="1.1" id="Layer_1" xmlns="http://www.w3.org/2000/svg" xmlns:xlink="http://www.w3.org/1999/xlink" x="0px" y="0px"
	 width="206.828px" height="200.001px" viewBox="0 0 206.828 200.001" enable-background="new 0 0 206.828 200.001"
	 xml:space="preserve">
<linearGradient id="gradient" gradientUnits="userSpaceOnUse" x1="17.1387" y1="200.001" x2="17.1387" y2="0">
	<stop  offset="0" style="stop-color:#404040"/>
	<stop  offset="1" style="stop-color:#A0A0A0"/>
</linearGradient>
<g>
	<path fill="#C0C0C0" d="M191.76,70.241c-0.985,12.65-6.264,25.029-15.902,34.679c-18.935,18.917-48.349,21.138-69.756,6.77
		c-1.096,5.226-3.817,11.437-7.786,18.062l-7.331,10.736c-3.755,4.916-8.055,9.904-12.939,14.781
		c-22.717,22.73-48.004,34.32-56.417,25.887c-6.49-6.525-1.047-23.033,12.182-40.668l8.916-10.736
		c1.529-1.684,3.107-3.361,4.775-5.033C62.9,109.356,79.402,99.101,91.122,96.672c-5.402-8.02-8.468-17.152-9.198-26.431
		l0.241-10.734c1.371-11.906,6.58-23.447,15.709-32.566c21.491-21.494,56.444-21.494,77.983,0
		c9.108,9.112,14.311,20.656,15.695,32.566L191.76,70.241z M0,200.001h206.828V0H0V200.001z"/>
</g>
<path fill="#808080" d="M114.349,43.415c12.409-12.409,32.577-12.409,45.007,0c12.45,12.43,12.45,32.614,0.007,45.041
	c-12.437,12.412-32.604,12.412-45.014,0C101.919,76.029,101.919,55.845,114.349,43.415z"/>
</svg>
