<?xml version="1.0" encoding="utf-8"?>
<!DOCTYPE svg PUBLIC "-//W3C//DTD SVG 1.1//EN" "http://www.w3.org/Graphics/SVG/1.1/DTD/svg11.dtd">
<svg version="1.1" id="Layer_1" xmlns="http://www.w3.org/2000/svg" xmlns:xlink="http://www.w3.org/1999/xlink" x="0px" y="0px"
	 width="87.48px" height="113.387px" viewBox="0 0 87.48 113.387" enable-background="new 0 0 87.48 113.387" xml:space="preserve">
<linearGradient id="gradient" gradientUnits="userSpaceOnUse" x1="17.1387" y1="113.387" x2="17.1387" y2="0">
	<stop  offset="0" style="stop-color:#404040"/>
	<stop  offset="1" style="stop-color:#A0A0A0"/>
</linearGradient>
<path fill="#C0C0C0" d="M72.617,43.742c0-15.949-12.93-28.879-28.877-28.879c-15.949,0-28.881,12.93-28.881,28.879
	c0,12.504,7.965,23.119,19.082,27.135c0.387-1.467,0.752-2.969,1.105-4.494c-9.104-3.504-15.59-12.318-15.59-22.639
	c0-13.391,10.896-24.283,24.283-24.283c13.389,0,24.281,10.893,24.281,24.283c0,10.32-6.486,19.135-15.59,22.641
	c0.354,1.523,0.717,3.025,1.105,4.492C64.654,66.859,72.617,56.244,72.617,43.742z M43.74,0C19.582,0,0,19.584,0,43.742
	c0,19.139,12.299,35.4,29.424,41.33c0.527-1.414,1.039-2.865,1.537-4.336C15.633,75.426,4.594,60.855,4.594,43.744
	c0-21.586,17.559-39.148,39.146-39.148c21.584,0,39.146,17.563,39.146,39.148c0,17.111-11.041,31.682-26.369,36.992
	c0.5,1.471,1.01,2.922,1.539,4.336c17.125-5.934,29.424-22.191,29.424-41.33C87.48,19.584,67.898,0,43.74,0z"/>
<path fill="#808080" d="M66.34,113.387c-9.584-17.355-16.941-34.303-20.557-57.084c6.063-0.98,10.695-6.223,10.695-12.561
	c0-7.037-5.703-12.74-12.738-12.74c-7.037,0-12.74,5.703-12.74,12.74c0,6.338,4.633,11.58,10.693,12.561
	c-3.613,22.781-10.971,39.729-20.555,57.084H66.34z"/>
</svg>
