<?xml version="1.0" encoding="utf-8"?>
<!DOCTYPE svg PUBLIC "-//W3C//DTD SVG 1.1//EN" "http://www.w3.org/Graphics/SVG/1.1/DTD/svg11.dtd">
<svg version="1.1" id="Layer_1" xmlns="http://www.w3.org/2000/svg" xmlns:xlink="http://www.w3.org/1999/xlink" x="0px" y="0px"
	 width="179.312px" height="199.999px" viewBox="0 0 179.312 199.999" enable-background="new 0 0 179.312 199.999"
	 xml:space="preserve">
<linearGradient id="gradient" gradientUnits="userSpaceOnUse" x1="17.1387" y1="199.999" x2="17.1387" y2="0">
	<stop  offset="0" style="stop-color:#404040"/>
	<stop  offset="1" style="stop-color:#A0A0A0"/>
</linearGradient>
<path fill="#C0C0C0" d="M 60.708984 24.71875 C 60.476318 24.536971 4.2637482 47.248631 4.2226562 47.541016 C 4.2090258 47.638002 10.011315 52.22938 17.041016 57.757812 C 6.323391 72.530034 -5.0070136e-15 90.697968 0 110.3457 C 0 159.8587 40.148391 199.99805 89.650391 199.99805 C 139.17039 199.99805 179.31055 159.8577 179.31055 110.3457 C 179.31155 73.169703 156.68413 41.281266 124.45312 27.697266 L 124.45312 57.460938 C 141.63713 68.809937 153.01953 88.255703 153.01953 110.3457 C 153.01953 145.2727 124.58939 173.6875 89.650391 173.6875 C 54.730391 173.6875 26.298828 145.2727 26.298828 110.3457 C 26.298828 96.820115 30.571085 84.289682 37.822266 73.998047 C 45.558249 80.008359 52.133883 85.085898 52.230469 85.046875 C 52.504227 84.93627 60.941651 24.900529 60.708984 24.71875z"/>
<path fill="#808080" d="M103.128,97.492c0,7.444-6.029,13.48-13.477,13.48l0,0c-7.441,0-13.484-6.036-13.484-13.48V13.48
	C76.167,6.036,82.21,0,89.651,0l0,0c7.447,0,13.477,6.036,13.477,13.48V97.492z"/>
</svg>
