<?xml version="1.0" encoding="utf-8"?>
<!DOCTYPE svg PUBLIC "-//W3C//DTD SVG 1.1//EN" "http://www.w3.org/Graphics/SVG/1.1/DTD/svg11.dtd">
<svg version="1.1" id="Layer_1" xmlns="http://www.w3.org/2000/svg" xmlns:xlink="http://www.w3.org/1999/xlink" x="0px" y="0px"
	 width="240.096px" height="200px" viewBox="0 0 240.096 200" enable-background="new 0 0 240.096 200" xml:space="preserve">
<linearGradient id="gradient" gradientUnits="userSpaceOnUse" x1="17.1387" y1="200" x2="17.1387" y2="0">
	<stop  offset="0" style="stop-color:#404040"/>
	<stop  offset="1" style="stop-color:#A0A0A0"/>
</linearGradient>
<path fill="#808080" d="M234.604,119.879l-34.598-40.115l-2.908-3.372l-2.9,3.372l-34.584,40.115l-5.492,6.359h23.459
	c-0.715,2.611-1.748,5.602-3.027,7.527c-12.078,17.984-33.113,29.611-53.598,29.611c-15.953,0-31.197-5.963-42.938-16.795
	l-1.113-1.021H31.668l3.479,5.811C53.055,181.363,85.936,200,120.955,200c43.979,0,82.311-28.236,95.396-70.279l1.066-3.482h22.678
	L234.604,119.879z"/>
<path fill="#C0C0C0" d="M42.984,123.611l2.902-3.381l34.609-40.109l5.484-6.356H63.992c0.967-2.289,2.219-5.095,3.664-7.96
	c9.076-18.004,29.502-29.19,53.285-29.19c15.311,0,30.119,5.559,41.68,15.648l1.086,0.954h45.873l-3.631-5.867
	C187.578,17.696,155.805,0,120.941,0c-43.938,0-82.25,28.236-95.328,70.27l-1.086,3.495H0l5.473,6.356l34.59,40.109L42.984,123.611z
	"/>
</svg>
