<?xml version="1.0" encoding="utf-8"?>
<!DOCTYPE svg PUBLIC "-//W3C//DTD SVG 1.1//EN" "http://www.w3.org/Graphics/SVG/1.1/DTD/svg11.dtd">
<svg version="1.1" id="Layer_1" xmlns="http://www.w3.org/2000/svg" xmlns:xlink="http://www.w3.org/1999/xlink" x="0px" y="0px"
	 width="199.999px" height="199.999px" viewBox="0 0 199.999 199.999" enable-background="new 0 0 199.999 199.999"
	 xml:space="preserve">
<linearGradient id="gradient" gradientUnits="userSpaceOnUse" x1="17.1387" y1="199.999" x2="17.1387" y2="0">
	<stop  offset="0" style="stop-color:#404040"/>
	<stop  offset="1" style="stop-color:#A0A0A0"/>
</linearGradient>
<path fill="#808080" d="M168.688,36.518l1.254,1.254c1.309,1.313,3.432,1.313,4.748,0l24.328-29.073c1.309-1.309,1.309-3.435,0-4.75
	l-2.963-2.967c-1.316-1.309-3.445-1.309-4.76,0l-29.07,24.329c-1.311,1.31-1.311,3.436,0,4.748l1.26,1.257l-90.916,84.591
	l11.527,11.518L168.688,36.518z"/>
<path fill="#808080" d="M80.443,137.359c1.311-1.309,1.311-3.432,0-4.746l-13.057-13.055c-1.316-1.313-3.438-1.313-4.74,0
	l-3.17,3.166c-1.316,1.313-1.316,3.432,0,4.748l13.051,13.049c1.316,1.316,3.432,1.316,4.748,0L80.443,137.359z"/>
<path fill="#808080" d="M67.594,152.588c1.309-1.303,1.309-3.426,0-4.74l-15.447-15.441c-1.311-1.311-3.439-1.311-4.74,0
	l-6.623,5.242c-1.309,1.324-1.309,3.439,0,4.748l16.82,16.818c1.309,1.311,3.432,1.311,4.746,0L67.594,152.588z"/>
<path fill="#C0C0C0" d="M65.223,171.426c-1.314,1.314-3.438,1.314-4.746,0l-31.902-31.902c-1.316-1.309-1.316-3.432,0-4.748
	l56.287-37.582c-1.014-2.674-1.799-7.387-1.793-9.767c0.014-11.338,9.006-16.034,14.566-18.763c5.568-2.725,1.447-6.102-2.748-6.256
	c-4.197-0.162-12.217-1.351-21.361,7.117c-11.217,10.397-3.885,24.502-12.863,33.001c-10.273,9.726-30.158-8.964-51.518,12.987
	C-1.68,126.646-8.055,148.75,20.547,178.846l0.607,0.607c30.096,28.6,52.207,22.227,63.328,11.402
	c21.959-21.359,3.266-41.244,12.988-51.518c8.502-8.986,22.605-1.646,32.996-12.865c8.475-9.143,7.291-17.17,7.125-21.362
	c-0.158-4.189-3.535-8.313-6.256-2.749c-2.729,5.561-7.428,14.559-18.756,14.572c-3.072,0.004-6.545-0.934-10.004-2.561
	L65.223,171.426z"/>
</svg>
