<?xml version="1.0" encoding="utf-8"?>
<!DOCTYPE svg PUBLIC "-//W3C//DTD SVG 1.1//EN" "http://www.w3.org/Graphics/SVG/1.1/DTD/svg11.dtd">
<svg version="1.1" id="Layer_1" xmlns="http://www.w3.org/2000/svg" xmlns:xlink="http://www.w3.org/1999/xlink" x="0px" y="0px"
	 width="200.393px" height="200.001px" viewBox="0 0 200.393 200.001" enable-background="new 0 0 200.393 200.001"
	 xml:space="preserve">
<linearGradient id="gradient" gradientUnits="userSpaceOnUse" x1="17.1387" y1="200.001" x2="17.1387" y2="0">
	<stop  offset="0" style="stop-color:#404040"/>
	<stop  offset="1" style="stop-color:#A0A0A0"/>
</linearGradient>
<polygon fill="#808080" points="126.289,184.153 126.289,165.384 74.096,165.384 74.096,184.153 34.934,184.153 34.934,200.001 
	165.453,200.001 165.453,184.153 "/>
<polygon fill="#C0C0C0" points="175.051,115.759 25.338,115.759 25.338,25.349 175.051,25.349 175.051,115.759 "/>
<path fill="#808080" d="M184.91,0H15.471C6.925,0,0,6.932,0,15.476v123.561c0,8.543,6.925,15.482,15.471,15.482H184.91
	c8.551,0,15.482-6.939,15.482-15.482V15.476C200.393,6.932,193.461,0,184.91,0z M100.197,149.909c-5.094,0-9.221-4.127-9.221-9.219
	c0-5.082,4.127-9.213,9.221-9.213c5.076,0,9.197,4.131,9.197,9.213C109.395,145.782,105.273,149.909,100.197,149.909z
	 M185.041,121.249c0,2.484-2.025,4.514-4.512,4.514H19.854c-2.48,0-4.502-2.029-4.502-4.514V19.851c0-2.477,2.021-4.503,4.502-4.503
	h160.676c2.486,0,4.512,2.026,4.512,4.503V121.249z"/>
</svg>
