<?xml version="1.0" encoding="utf-8"?>
<!DOCTYPE svg PUBLIC "-//W3C//DTD SVG 1.1//EN" "http://www.w3.org/Graphics/SVG/1.1/DTD/svg11.dtd">
<svg version="1.1" id="Layer_1" xmlns="http://www.w3.org/2000/svg" xmlns:xlink="http://www.w3.org/1999/xlink" x="0px" y="0px"
	 width="234.646px" height="199.999px" viewBox="0 0 234.646 199.999" enable-background="new 0 0 234.646 199.999"
	 xml:space="preserve">
<linearGradient id="gradient" gradientUnits="userSpaceOnUse" x1="17.1387" y1="199.999" x2="17.1387" y2="0">
	<stop  offset="0" style="stop-color:#404040"/>
	<stop  offset="1" style="stop-color:#A0A0A0"/>
</linearGradient>
<path fill="#C0C0C0" d="M179.336,32.38c-3.018-1.02-6.043-1.788-9.08-2.432c21.959,23.809,30.627,58.542,19.609,91.432
	c-11.025,32.883-38.867,55.379-70.748,61.141c2.811,1.314,5.705,2.521,8.723,3.533c42.436,14.229,88.365-8.646,102.58-51.082
	C244.648,92.531,221.773,46.602,179.336,32.38z"/>
<path fill="#808080" d="M95.938,0c2.027,0,0.594,44.852,11.852,56.124c11.287,11.282,40.941,9.839,40.941,11.864
	c0,2.036-25.293-1.774-40.121,13.047c-15.414,15.42-9.557,95.972-12.672,95.972c-3.127,0,1.275-77.73-12.402-95.972
	c-9.9-13.195-44.943-11.41-44.943-13.047c0-1.63,32.824,0.81,45.496-11.864C96.744,43.46,93.912,0,95.938,0z"/>
<path fill="#808080" d="M38.953,79.746c1.379,0,0.404,30.469,8.063,38.13c7.676,7.656,27.805,6.684,27.805,8.059
	s-17.188-1.203-27.262,8.857c-10.469,10.48-6.486,65.207-8.605,65.207c-2.107,0,0.865-52.813-8.424-65.207
	C23.785,125.839,0,127.048,0,125.935c0-1.105,22.297,0.551,30.908-8.059C39.494,109.268,37.576,79.746,38.953,79.746z"/>
</svg>
