<?xml version="1.0" encoding="utf-8"?>
<!DOCTYPE svg PUBLIC "-//W3C//DTD SVG 1.1//EN" "http://www.w3.org/Graphics/SVG/1.1/DTD/svg11.dtd">
<svg version="1.1" id="Layer_1" xmlns="http://www.w3.org/2000/svg" xmlns:xlink="http://www.w3.org/1999/xlink" x="0px" y="0px"
	 width="199.997px" height="199.999px" viewBox="0 0 199.997 199.999" enable-background="new 0 0 199.997 199.999"
	 xml:space="preserve">
<linearGradient id="gradient" gradientUnits="userSpaceOnUse" x1="17.1387" y1="199.999" x2="17.1387" y2="0">
	<stop  offset="0" style="stop-color:#404040"/>
	<stop  offset="1" style="stop-color:#A0A0A0"/>
</linearGradient>
<path fill="#C0C0C0" d="M0,0v93.988h93.985V0H0z M60.237,78.975l-0.639-2.104l-3.803-12.461H37.872l-3.828,12.468l-0.645,2.098
	H19.048l1.261-3.89l18.858-58.019l0.664-2.05h14.414l0.67,2.057L73.69,75.096l1.25,3.879H60.237z M41.616,51.982h10.426
	l-5.18-17.143L41.616,51.982z"/>
<path fill="#808080" d="M157.208,38.061c1.076-0.885,1.619-2.531,1.619-4.916c0-3.234-1.24-4.082-1.646-4.368
	c-1.453-1.002-3.637-1.505-6.49-1.505h-6.215v12.34h6.883C154.005,39.611,155.989,39.091,157.208,38.061z M158.71,53.319
	c-0.73-0.545-1.652-0.947-2.742-1.209c-1.205-0.283-2.563-0.424-4.016-0.424h-7.477v14.948h7.131c1.262,0,2.543-0.114,3.846-0.338
	c1.115-0.187,2.102-0.541,3.018-1.085c0.766-0.476,1.393-1.137,1.895-2.016c0.496-0.857,0.752-2.074,0.752-3.614
	c0-1.674-0.248-3.038-0.703-4.058C159.979,54.577,159.427,53.86,158.71,53.319z M106.009,0v93.988h93.988V0H106.009z
	 M173.153,68.895c-1.502,2.497-3.508,4.554-5.988,6.094c-2.439,1.499-5.146,2.543-8.063,3.132c-2.775,0.559-5.662,0.848-8.584,0.848
	H130.53V15.023h18.721c2.797,0,5.463,0.238,8.15,0.717c2.846,0.517,5.402,1.43,7.621,2.722c2.336,1.344,4.25,3.2,5.691,5.484
	c1.475,2.367,2.225,5.288,2.225,8.699c0,2.242-0.371,4.282-1.102,6.063c-0.73,1.746-1.703,3.279-2.9,4.554
	c-0.525,0.548-1.082,1.062-1.676,1.523c1.09,0.605,2.123,1.329,3.074,2.181c1.521,1.347,2.783,3.065,3.721,5.112
	c0.943,2.07,1.412,4.533,1.412,7.334C175.468,63.124,174.683,66.317,173.153,68.895z"/>
<path fill="#808080" d="M0,106.008v93.991h93.985v-93.991H0z M69.185,178.675c-2.041,1.971-4.541,3.631-7.684,5.092
	c-3.172,1.467-7.031,2.219-11.479,2.219c-3.869,0-7.521-0.736-10.863-2.184c-3.416-1.482-6.359-3.701-8.754-6.588
	c-2.379-2.838-4.24-6.352-5.563-10.418c-1.289-4.002-1.954-8.668-1.954-13.836c0-5.215,0.71-9.893,2.104-13.893
	c1.383-4.035,3.328-7.525,5.781-10.359c2.502-2.877,5.426-5.059,8.709-6.502c3.277-1.445,6.795-2.188,10.453-2.188
	c2.025,0,3.893,0.143,5.547,0.424c1.643,0.273,3.234,0.689,4.74,1.227c1.512,0.576,2.936,1.275,4.236,2.105
	c1.225,0.768,2.439,1.656,3.639,2.619l2.408,1.904l-1.994,2.34l-4.361,5.137l-1.902,2.234l-2.25-1.885
	c-2.9-2.422-6.025-3.592-9.549-3.592c-1.744,0-3.414,0.334-5.006,0.988c-1.541,0.648-2.836,1.641-3.955,3.057
	c-1.23,1.518-2.215,3.6-2.967,6.193c-0.795,2.674-1.195,6.105-1.195,10.189c0,3.955,0.369,7.297,1.117,9.938
	c0.705,2.568,1.662,4.643,2.855,6.199c1.137,1.455,2.439,2.502,3.941,3.178c1.584,0.695,3.262,1.033,5.123,1.033
	c2.545,0,4.611-0.4,6.125-1.186c1.75-0.895,3.27-1.9,4.551-3.031l2.35-2.066l1.939,2.459l4.123,5.23l1.65,2.086L69.185,178.675z"/>
<path fill="#C0C0C0" d="M157.202,136.39c-1.365-1.246-2.84-2.029-4.473-2.391c-1.936-0.424-3.816-0.648-5.58-0.648h-3.77v39.371
	h3.852c1.84,0,3.715-0.289,5.539-0.84c1.668-0.504,3.143-1.398,4.48-2.75c1.371-1.371,2.541-3.355,3.443-5.891
	c0.938-2.639,1.42-6.18,1.42-10.535c0-4.555-0.496-8.178-1.461-10.748C159.724,139.495,158.573,137.624,157.202,136.39z
	 M106.009,106.008v93.991h93.988v-93.991H106.009z M173.813,168.595c-1.818,4.182-4.264,7.564-7.283,10.031
	c-2.977,2.434-6.318,4.127-9.949,5.045c-3.416,0.861-6.883,1.301-10.279,1.301h-16.854v-63.939h15.943
	c3.666,0,7.324,0.385,10.887,1.158c3.775,0.805,7.221,2.406,10.238,4.756c3.061,2.385,5.527,5.727,7.352,9.926
	c1.785,4.152,2.688,9.475,2.688,15.834C176.556,159.106,175.634,164.46,173.813,168.595z"/>
</svg>
