<?xml version="1.0" encoding="utf-8"?>
<!DOCTYPE svg PUBLIC "-//W3C//DTD SVG 1.1//EN" "http://www.w3.org/Graphics/SVG/1.1/DTD/svg11.dtd">
<svg version="1.1" id="Layer_1" xmlns="http://www.w3.org/2000/svg" xmlns:xlink="http://www.w3.org/1999/xlink" x="0px" y="0px"
	 width="200px" height="200px" viewBox="0 0 200 200" enable-background="new 0 0 200 200" xml:space="preserve">
<linearGradient id="gradient" gradientUnits="userSpaceOnUse" x1="17.1387" y1="200" x2="17.1387" y2="0">
	<stop  offset="0" style="stop-color:#404040"/>
	<stop  offset="1" style="stop-color:#A0A0A0"/>
</linearGradient>
<path fill="#C0C0C0" d="M0,0v95.418h95.422V0H0z M48.355,82.727h-1.303c-14.057,0-22.91-19.882-23.295-34.023
	c4.443,2.673,8.061,8.402,13.283,8.402c6.607,0,7.613-4.882,8.6-5.52c0.916-0.592,1.764-0.644,1.764-0.644h0.613
	c0,0,0.848,0.052,1.764,0.644c0.979,0.638,1.992,5.52,8.6,5.52c5.223,0,8.846-5.729,13.283-8.402
	C71.279,62.845,62.424,82.727,48.355,82.727z M23.93,43.425c1.082-12.461,7.09-23.261,23.123-23.261h1.303
	c16.047,0,22.055,10.8,23.123,23.261c-10.941,4.145-23.461,3.166-23.461,3.166h-0.613C47.404,46.591,34.893,47.573,23.93,43.425z
	 M74.854,66.541l-0.041,0.007l-0.033,0.004h-3.543l0.518-1.354c2.205-5.743,3.418-11.938,3.418-17.442
	c0-19.751-9.771-31.082-26.816-31.082h-1.295c-17.041,0-26.816,11.331-26.816,31.082c0,5.505,1.211,11.699,3.416,17.442l0.518,1.354
	h-3.521C13.182,65.938,8.605,56.988,8.605,49.04c0-5.36,3.232-11.027,8.695-11.751c3.219-15.65,14.029-24.601,29.76-24.601h1.295
	c15.744,0,26.555,8.95,29.771,24.601c5.451,0.721,8.682,6.391,8.682,11.751C86.809,56.988,82.24,65.938,74.854,66.541z"/>
<path fill="#808080" d="M47.342,143.129c-0.502-0.083-1.309,0.389-1.785,1.33c-0.51,1.026-0.35,2.073,0.139,2.318
	c0.049,0.027,0.096,0.045,0.166,0.055c0.502,0.086,1.309-0.386,1.783-1.326c0.262-0.534,0.365-1.12,0.291-1.609
	c-0.043-0.203-0.145-0.571-0.428-0.713C47.453,143.16,47.404,143.139,47.342,143.129z M42.629,151.373
	c-0.619-0.104-1.598,0.454-2.17,1.574c-0.635,1.274-0.393,2.508,0.221,2.818c0.068,0.037,0.15,0.059,0.234,0.075
	c0.619,0.104,1.598-0.454,2.162-1.574c0.318-0.627,0.449-1.319,0.346-1.901c-0.049-0.259-0.18-0.724-0.559-0.92
	C42.795,151.41,42.713,151.387,42.629,151.373z M37.84,160.316c-0.088-0.045-0.178-0.072-0.275-0.09
	c-0.688-0.117-1.777,0.455-2.432,1.742c-0.709,1.418-0.414,2.795,0.289,3.152c0.076,0.043,0.172,0.074,0.262,0.086
	c0.697,0.121,1.785-0.445,2.434-1.742c0.412-0.816,0.523-1.715,0.303-2.404C38.33,160.813,38.164,160.48,37.84,160.316z
	 M52.055,135.029c-0.041-0.021-0.082-0.034-0.131-0.045c-0.42-0.068-1.137,0.362-1.543,1.182c-0.242,0.476-0.338,0.996-0.262,1.427
	c0.027,0.138,0.104,0.476,0.344,0.593c0.035,0.021,0.076,0.03,0.125,0.041c0.42,0.072,1.129-0.358,1.551-1.179
	c0.275-0.551,0.357-1.171,0.205-1.615C52.297,135.291,52.213,135.112,52.055,135.029z M0,104.582V200h95.422v-95.418H0z
	 M84.48,131.281c-1.998,0.606-5.146,1.337-9.344,0.523c-3.693-0.72-6.559-2.373-8.488-7.334c-1.205-3.101-2.742-3.194-3.928-0.941
	c-4.795,9.096-25.639,57.119-32.77,61.773c-4.775,3.115-7.752,0.635-9.398-1.602c-2.197-2.963-2.219-10.229-4.705-22.689
	c-1.447-7.286-9.096-9.856-9.096-9.856c10.178-0.954,16.344-1.536,25.557-2.373c-3.824,2.38-6.912,6.853-7.016,10.483
	c-0.131,4.207,0.641,8.816,0.965,11.34s3.033,4.395,5.285,0.928c0.621-0.951,1.73-2.846,3.162-5.367
	c-1.322-0.803-1.652-2.885-0.703-4.768c0.979-1.957,2.963-2.949,4.404-2.219c0.061,0.031,0.104,0.072,0.164,0.105
	c0.449-0.809,0.91-1.643,1.379-2.49c-1.205-0.765-1.496-2.68-0.621-4.42c0.918-1.822,2.75-2.745,4.1-2.063
	c0.035,0.011,0.049,0.034,0.07,0.045c0.469-0.854,0.943-1.719,1.418-2.58c-1.02-0.703-1.26-2.374-0.488-3.894
	c0.807-1.608,2.432-2.429,3.631-1.843c0.531-0.972,1.061-1.937,1.578-2.891c-0.896-0.672-1.088-2.181-0.393-3.559
	c0.736-1.457,2.184-2.205,3.287-1.729c3.596-6.604,6.449-11.837,7.281-13.298c2.322-4.1,6.822-3.328,8.303,0.396
	c0.889,2.229,2.129,7.307,6.746,8.485c2.543,0.644,4.775-0.166,5.814-0.744c1.049-0.583,3.494-1.885,6.787-1.131
	C90.75,128.318,86.484,130.675,84.48,131.281z"/>
<path fill="#808080" d="M104.578,0v95.418H200V0H104.578z M189.438,10.821l-8.854,11.774c-0.482,0.538-1.303,0.579-1.834,0.097
	l-0.516-0.462l-25.977,30.627c1.979,1.147,4.094,1.819,5.836,1.727c4.396-0.238,6.029-3.821,6.98-6.036
	c0.943-2.215,2.336-0.686,2.486,0.94c0.145,1.619,0.766,4.713-2.336,8.434c-3.803,4.564-9.426,2.002-12.547,5.664
	c-3.561,4.186,4.1,11.52-3.988,20.257c-4.1,4.427-12.547,7.352-24.813-3.139l-0.248-0.224c-11.713-11.101-9.688-19.81-5.719-24.347
	c7.85-8.961,15.945-2.108,19.734-6.087c3.314-3.483,0.18-8.806,4.326-13.074c3.377-3.47,6.512-3.173,8.145-3.193
	c1.633-0.028,3.293,1.198,1.191,2.373c-2.102,1.172-5.498,3.177-5.27,7.576c0.09,1.739,0.979,3.769,2.322,5.622l27.752-29.031
	l-0.516-0.462c-0.537-0.482-0.58-1.313-0.098-1.844l10.791-10.031c0.482-0.538,1.309-0.579,1.846-0.097l1.207,1.089
	C189.885,9.457,189.926,10.283,189.438,10.821z M150.418,55.072l-3.168,4.158l-4.707-4.233l3.693-3.689l-1.461-1.313
	c-0.537-0.482-1.363-0.438-1.846,0.093l-17.082,13.126c-0.482,0.533-0.439,1.36,0.098,1.843l13.029,11.733
	c0.537,0.482,1.357,0.441,1.84-0.096l11.271-18.362c0.482-0.534,0.441-1.357-0.096-1.84L150.418,55.072z M141.352,69.335
	l-1.902,2.677c-0.482,0.534-1.303,0.576-1.84,0.097l-6.869-6.184c-0.531-0.482-0.578-1.306-0.096-1.843l2.459-2.171
	c0.49-0.537,1.309-0.579,1.848-0.097l6.311,5.682C141.793,67.978,141.84,68.802,141.352,69.335z M146.029,63.162l-1.156,1.292
	c-0.49,0.537-1.311,0.578-1.848,0.096l-5.332-4.799c-0.539-0.482-0.58-1.306-0.098-1.84l1.164-1.295
	c0.482-0.534,1.311-0.579,1.848-0.097l5.326,4.803C146.471,61.805,146.512,62.628,146.029,63.162z"/>
<path fill="#C0C0C0" d="M104.578,104.582V200H200v-95.418H104.578z M185.234,147.028l-6.635,0.148l-1.42-7.311l6.27,0.224
	L185.234,147.028z M159.492,147.177l-0.592-7.538l7.91,0.076l0.441,7.462H159.492z M161.285,156.055l-7.91-0.076l-0.152-7.755
	l7.986-0.075L161.285,156.055z M154.422,138.15v-6.046l7.613,0.296l0.668,5.822L154.422,138.15z M156.807,139.49l0.668,7.538
	l-9.027,0.148l0.67-7.838L156.807,139.49z M152.176,155.913l-8.275,0.065l0.145-7.458l7.986-0.072L152.176,155.913z
	 M152.775,137.927l-9.254-0.079l0.896-5.822l8.736,0.155L152.775,137.927z M146.512,139.343l-0.303,7.982l-8.055-0.148l0.813-7.985
	L146.512,139.343z M142.854,148.296l-0.523,7.617l-8.063,0.369l0.523-8.059L142.854,148.296z M145.389,157.402l0.6,7.537
	l-7.91-0.072l-0.447-7.465H145.389z M150.467,166.432v6.045l-7.613-0.299l-0.668-5.822L150.467,166.432z M148.076,165.09
	l-0.668-7.539l9.025-0.148l-0.668,7.836L148.076,165.09z M152.107,166.658l9.26,0.072l-0.896,5.822l-8.736-0.154L152.107,166.658z
	 M158.377,165.234l0.303-7.98l8.055,0.148l-0.82,7.984L158.377,165.234z M162.703,155.831l-0.15-7.163h7.984l0.373,7.387
	L162.703,155.831z M168.898,147.325l-0.523-7.61l7.02,0.224l1.414,7.387H168.898z M164.047,138.15l-0.523-5.75l6.719,0.372
	l1.563,5.299L164.047,138.15z M160.686,131.058l-0.82-4.252l6.643,0.148l1.26,4.183L160.686,131.058z M155.613,125.163l-0.6-2.764
	l6.271,0.3l1.859,2.539L155.613,125.163z M158.377,126.582l0.744,4.476l-9.404-0.225l0.971-4.251H158.377z M145.912,125.238
	l1.936-2.839l5.975,0.079l0.152,2.685L145.912,125.238z M149.047,126.431l-0.826,4.479l-8.723-0.224l1.785-4.18L149.047,126.431z
	 M143.004,132.104l-0.971,5.743l-8.061-0.072l1.791-5.967L143.004,132.104z M137.334,139.271l-1.055,7.683l-7.723,0.134l1.652-7.534
	L137.334,139.271z M133.455,148.224l-0.523,7.689h-7.621l1.047-7.617L133.455,148.224z M135.99,157.254l0.518,7.613l-7.014-0.23
	l-1.42-7.383H135.99z M140.834,166.432l0.531,5.746l-6.719-0.369l-1.57-5.297L140.834,166.432z M144.189,173.521l0.828,4.254
	l-6.643-0.146l-1.268-4.176L144.189,173.521z M149.275,179.418l0.592,2.758l-6.27-0.293l-1.861-2.543L149.275,179.418z
	 M146.512,177.996l-0.744-4.475l9.398,0.225l-0.971,4.25H146.512z M158.969,179.34l-1.928,2.836l-5.975-0.07l-0.158-2.688
	L158.969,179.34z M155.834,178.152l0.826-4.484l8.73,0.227l-1.791,4.178L155.834,178.152z M161.877,172.477l0.979-5.746l8.055,0.076
	l-1.791,5.971L161.877,172.477z M167.555,165.313l1.047-7.688l7.959-0.014l-1.559,7.537L167.555,165.313z M172.178,155.913
	l-0.297-7.018h6.787l0.902,7.015L172.178,155.913z M182.402,138.743l-8.654-0.521l-1.791-5.522l6.643,0.072L182.402,138.743z
	 M177.477,130.988l-8.207,0.148l-1.199-4.183l6.277,0.076L177.477,130.988z M170.758,125.387l-6.566-0.224l-1.26-2.315l3.727,0.155
	L170.758,125.387z M159.721,119.943l3.879,1.712l-5.375-0.224l-0.674-1.644L159.721,119.943z M151.879,119.788l4.486-0.075
	l0.516,1.719l-5.297,0.151L151.879,119.788z M146.209,119.788l4.031-0.145l-0.07,1.86l-8.289-0.148L146.209,119.788z M139.719,122.1
	l6.572,0.152l-1.873,3.063l-9.104-0.151L139.719,122.1z M132.932,126.282l6.484,0.148l-1.559,4.558l-9.783-0.23L132.932,126.282z
	 M127.254,132.104l7.014-0.148l-1.936,5.74l-9.33,0.079L127.254,132.104z M122.107,139.191l6.346,0.151l-1.447,7.744l-7.139,0.018
	L122.107,139.191z M119.641,148.596l5.52-0.224l-0.896,7.683l-5.07-0.142L119.641,148.596z M119.641,157.551l6.648-0.148l1.42,7.313
	l-6.277-0.223L119.641,157.551z M122.479,165.836l8.654,0.52l1.799,5.523l-6.643-0.07L122.479,165.836z M127.406,173.598
	l8.213-0.145l1.191,4.176l-6.27-0.08L127.406,173.598z M134.123,179.203l6.574,0.215l1.26,2.309l-3.727-0.148L134.123,179.203z
	 M145.162,184.639l-3.879-1.717l5.373,0.229l0.676,1.643L145.162,184.639z M153.002,184.793l-4.479,0.07L148,183.15l5.305-0.148
	L153.002,184.793z M158.68,184.793l-4.031,0.148l0.07-1.871l8.289,0.156L158.68,184.793z M165.164,182.479l-6.566-0.15l1.873-3.064
	l9.102,0.154L165.164,182.479z M171.957,178.297l-6.49-0.145l1.564-4.555l9.777,0.223L171.957,178.297z M177.635,172.477
	l-7.027,0.148l1.949-5.742l9.322-0.076L177.635,172.477z M182.781,165.387l-6.125-0.027l1.646-7.748l6.643-0.061L182.781,165.387z
	 M180.99,155.913l-0.82-7.393l4.92,0.075l0.297,7.383L180.99,155.913z"/>
</svg>
