<?xml version="1.0" encoding="utf-8"?>
<!DOCTYPE svg PUBLIC "-//W3C//DTD SVG 1.1//EN" "http://www.w3.org/Graphics/SVG/1.1/DTD/svg11.dtd">
<svg version="1.1" id="Layer_1" xmlns="http://www.w3.org/2000/svg" xmlns:xlink="http://www.w3.org/1999/xlink" x="0px" y="0px"
	 width="103.414px" height="100px" viewBox="0 0 103.414 100" enable-background="new 0 0 103.414 100" xml:space="preserve">
<linearGradient id="gradient" gradientUnits="userSpaceOnUse" x1="17.1387" y1="0" x2="17.1387" y2="100">
	<stop offset="0" style="stop-color:#404040"/>
	<stop offset="1" style="stop-color:#A0A0A0"/>
</linearGradient>
<g>
	<path fill="#C0C0C0" d="M95.88,35.121c-0.493,6.325-3.132,12.515-7.951,17.34c-9.468,9.458-24.175,10.568-34.878,3.385
		c-0.548,2.612-1.909,5.718-3.893,9.03l-3.666,5.368c-1.877,2.458-4.027,4.952-6.47,7.391C27.664,89,15.021,94.794,10.814,90.578
		c-3.245-3.263-0.523-11.517,6.091-20.334l4.458-5.368c0.765-0.842,1.554-1.681,2.388-2.517c7.7-7.681,15.951-12.809,21.811-14.023
		c-2.701-4.01-4.234-8.576-4.599-13.215l0.121-5.367c0.686-5.953,3.29-11.724,7.854-16.283c10.746-10.747,28.222-10.747,38.992,0
		c4.554,4.556,7.155,10.328,7.848,16.283L95.88,35.121z M0,100h103.414V0H0V100z"/>
</g>
<path fill="#808080" d="M57.174,21.708c6.205-6.205,16.289-6.205,22.504,0c6.225,6.215,6.225,16.307,0.004,22.521
	c-6.219,6.206-16.303,6.206-22.508,0C50.959,38.015,50.959,27.922,57.174,21.708z"/>
</svg>
