<?xml version="1.0" encoding="utf-8"?>
<!DOCTYPE svg PUBLIC "-//W3C//DTD SVG 1.1//EN" "http://www.w3.org/Graphics/SVG/1.1/DTD/svg11.dtd">
<svg version="1.1" id="Layer_1" xmlns="http://www.w3.org/2000/svg" xmlns:xlink="http://www.w3.org/1999/xlink" x="0px" y="0px"
	 width="200.014px" height="200.001px" viewBox="0 0 200.014 200.001" enable-background="new 0 0 200.014 200.001"
	 xml:space="preserve">
<linearGradient id="gradient" gradientUnits="userSpaceOnUse" x1="17.1387" y1="200.001" x2="17.1387" y2="0">
	<stop  offset="0" style="stop-color:#404040"/>
	<stop  offset="1" style="stop-color:#A0A0A0"/>
</linearGradient>
<path fill="#C0C0C0" d="M151.252,111.093c0.076-1.557,0.117-3.124,0.117-4.688c0-9.574-1.227-19.086-3.623-28.308
	c7.289-3.501,14.234-7.79,20.67-12.768c4.789,9.436,7.518,19.564,8.145,30.161C168.74,101.671,160.23,106.911,151.252,111.093z
	 M103.924,122.513V89.1c12.596-0.548,24.881-3.169,36.594-7.83c2.025,8.182,3.053,16.622,3.053,25.135
	c0,2.643-0.104,5.299-0.318,8.075C130.637,119.302,117.414,122.007,103.924,122.513z M103.924,41.021V24.456
	c5.381,4.272,10.35,9.071,14.801,14.308C113.873,39.97,108.906,40.731,103.924,41.021z M126.75,36.321
	c-3.182-3.958-6.621-7.71-10.299-11.214c6.793,1.485,13.365,3.9,19.547,7.2C132.98,33.845,129.865,35.188,126.75,36.321z
	 M103.924,81.29V48.841c6.752-0.365,13.471-1.522,20.002-3.428c6.25,8.688,11.107,18.231,14.441,28.353
	C127.35,78.224,115.781,80.749,103.924,81.29z M145.498,70.575c-3.334-9.846-7.998-19.168-13.918-27.764
	c4.156-1.633,8.207-3.586,12.107-5.839c8.213,5.715,15.385,13.136,20.822,21.569C158.57,63.228,152.182,67.271,145.498,70.575z
	 M103.924,161.423v-31.096c13.057-0.477,25.928-2.9,38.309-7.211c-1.9,11.834-5.779,23.119-11.555,33.613
	C121.955,159.431,112.971,161.022,103.924,161.423z M124.629,166.411c-1.943,2.762-4.037,5.457-6.236,8.033
	c-4.713,1.15-9.563,1.846-14.469,2.08v-7.289C110.877,168.933,117.822,167.989,124.629,166.411z M131.691,169.808
	c1.521-2.191,2.922-4.402,4.23-6.621c5.457-1.867,10.832-4.17,16.074-6.863C145.98,161.876,139.119,166.438,131.691,169.808z
	 M150.543,119.882c9.115-3.879,17.818-8.81,25.928-14.666c-0.779,11.492-4.156,22.74-9.826,32.707
	c-7.965,6.088-16.467,11.076-25.328,14.873C146.084,142.306,149.199,131.261,150.543,119.882z M96.117,89.165v33.41
	c-12.395-0.289-24.604-2.432-36.324-6.359c-0.434-3.859-0.654-7.81-0.654-11.775c0-7.348,0.758-14.655,2.266-21.776
	C72.547,86.668,84.225,88.852,96.117,89.165z M34.934,59.523c5.313-8.536,12.395-16.078,20.621-21.944
	c4.348,2.425,8.924,4.513,13.637,6.197C63.5,52.575,59.09,62.104,56.072,72.16C48.582,68.798,41.486,64.547,34.934,59.523z
	 M31.143,66.358c7.16,5.371,14.863,9.878,22.918,13.405c-1.813,8.093-2.736,16.381-2.736,24.677c0,2.88,0.117,5.815,0.346,8.736
	c-10.006-4.161-19.479-9.628-28.203-16.273C23.881,86.175,26.465,75.923,31.143,66.358z M52.695,121.929
	c1.848,11.686,5.484,22.936,10.887,33.506c-10.025-3.549-19.65-8.578-28.705-15.051c-6.332-10.201-10.189-21.828-11.217-33.79
	C32.742,112.909,42.498,118.052,52.695,121.929z M96.117,130.382v31.109c-7.359-0.193-14.717-1.186-21.896-2.908
	c-6.34-10.438-10.748-21.789-13.105-33.793C72.477,128.235,84.238,130.114,96.117,130.382z M74.068,172.122
	c-8.682-3.121-16.723-7.793-23.75-13.766c6.195,2.906,12.547,5.25,18.996,6.986C70.824,167.671,72.408,169.944,74.068,172.122z
	 M96.117,169.276v7.248c-3.012-0.137-6.063-0.461-9.074-0.984c-2.301-2.488-4.5-5.078-6.539-7.758
	C85.645,168.636,90.867,169.14,96.117,169.276z M63.154,32.801c6.67-3.683,13.795-6.309,21.229-7.845
	c-3.824,3.813-7.365,7.893-10.582,12.182C70.17,35.953,66.613,34.495,63.154,32.801z M96.117,48.913v32.449
	c-11.252-0.313-22.27-2.408-32.797-6.25c2.984-10.276,7.551-20.012,13.574-28.962C83.129,47.756,89.586,48.683,96.117,48.913z
	 M81.889,39.322c4.258-5.316,9.033-10.235,14.229-14.655v16.437C91.322,40.931,86.561,40.331,81.889,39.322z"/>
<path fill="#808080" d="M100.01,0C44.861,0,0,44.861,0,99.993c0,55.145,44.861,100.008,100.01,100.008
	c55.143,0,100.004-44.863,100.004-100.008C200.014,44.861,155.152,0,100.01,0z M184.469,99.993
	c0,46.574-37.889,84.455-84.459,84.455s-84.459-37.881-84.459-84.455c0-46.561,37.889-84.445,84.459-84.445
	S184.469,53.433,184.469,99.993z"/>
</svg>
