<?xml version="1.0" encoding="utf-8"?>
<!DOCTYPE svg PUBLIC "-//W3C//DTD SVG 1.1//EN" "http://www.w3.org/Graphics/SVG/1.1/DTD/svg11.dtd">
<svg version="1.1" id="Layer_1" xmlns="http://www.w3.org/2000/svg" xmlns:xlink="http://www.w3.org/1999/xlink" x="0px" y="0px"
	 width="225.996px" height="177.997px" viewBox="0 0 225.996 177.997" enable-background="new 0 0 225.996 177.997"
	 xml:space="preserve">
<linearGradient id="gradient" gradientUnits="userSpaceOnUse" x1="17.1387" y1="177.997" x2="17.1387" y2="0">
	<stop  offset="0" style="stop-color:#404040"/>
	<stop  offset="1" style="stop-color:#A0A0A0"/>
</linearGradient>
<path fill="#C0C0C0" d="M49.146,100.961h26.029L62.159,65.168L49.146,100.961z M21.006,20.998L21,156.996l183.994,0.002
	l0.004-135.993L21.006,20.998z M95.939,136.782l-5.179,1.879l-1.654,0.602l-0.604-1.654l-10.042-27.613h-32.6L35.82,137.608
	l-0.6,1.654l-1.657-0.602l-5.18-1.879l-1.659-0.602l0.604-1.658L60.503,43.29l1.656-4.555l1.657,4.555l33.177,91.232l0.604,1.658
	L95.939,136.782z M199.272,71.262h-17.811c-2.422,16.25-10.254,31.657-22.221,43.708c7.67,7.496,17.006,12.264,28.48,14.564
	l1.727,0.346l-0.341,1.73l-1.079,5.4l-0.347,1.725l-1.727-0.342c-13.222-2.619-24.46-8.459-33.433-17.363
	c-10.183,8.205-22.325,14.033-36.12,17.324l-1.714,0.41l-0.411-1.715L113,131.698l-0.407-1.715l1.712-0.41
	c12.359-2.967,23.2-8.119,32.253-15.33c-7.876-10.273-11.979-21.334-14.982-29.429l-0.185-0.494l-0.614-1.653l1.655-0.614
	l5.162-1.914l1.652-0.615l0.642,1.738c2.794,7.548,6.595,17.812,13.395,26.901c9.954-10.212,16.639-23.182,19.016-36.902H112.52
	v-9.034h38.858V40.441h9.036v21.787h38.858V71.262z"/>
<path fill="#808080" d="M208.999,177.997H17.001C7.63,177.993,0.004,170.368,0,161V17C0.004,7.629,7.63,0.004,17.001,0h191.998
	c9.371,0.004,16.995,7.631,16.997,17v144C225.994,170.368,218.37,177.993,208.999,177.997L208.999,177.997z M17.003,12.997h0.002
	c-2.208,0.002-4.004,1.798-4.006,4.004v143.994c0.002,2.205,1.796,4.002,4,4.002h191.996c2.206,0,4.002-1.794,4.004-4V17.003
	c-0.002-2.206-1.798-4.004-4.004-4.006H17.003L17.003,12.997z"/>
</svg>
