<?xml version="1.0" encoding="utf-8"?>
<!DOCTYPE svg PUBLIC "-//W3C//DTD SVG 1.1//EN" "http://www.w3.org/Graphics/SVG/1.1/DTD/svg11.dtd">
<svg version="1.1" id="Layer_1" xmlns="http://www.w3.org/2000/svg" xmlns:xlink="http://www.w3.org/1999/xlink" x="0px" y="0px"
	 width="289.137px" height="200px" viewBox="0 0 289.137 200" enable-background="new 0 0 289.137 200" xml:space="preserve">
<linearGradient id="gradient" gradientUnits="userSpaceOnUse" x1="17.1387" y1="200" x2="17.1387" y2="0">
	<stop  offset="0" style="stop-color:#404040"/>
	<stop  offset="1" style="stop-color:#A0A0A0"/>
</linearGradient>
<path fill="#C0C0C0" d="M133.545,98.194c0-41.864-34.285-75.798-76.578-75.798H0v36.824h56.967
	c21.738,0,39.371,17.449,39.371,38.974l0,0c0,41.862,34.279,75.792,76.576,75.792h38.496V200l77.727-44.424l-77.727-44.422v26.008
	h-38.496C151.17,137.162,133.545,119.709,133.545,98.194L133.545,98.194z"/>
<path fill="#808080" d="M289.137,44.424L211.41,0v26.014h-38.496c-16.502,0-31.742,5.216-44.24,13.997
	c7.971,9.657,13.945,20.967,17.451,33.3c7.029-6.479,16.428-10.473,26.789-10.473h38.496v26.007L289.137,44.424z M56.967,140.779H0
	v36.824h56.967c18.26,0,35.002-6.346,48.162-16.908c-8.605-9.168-15.322-20.057-19.609-32.111
	C78.348,136.08,68.227,140.779,56.967,140.779z"/>
</svg>
