<?xml version="1.0" encoding="utf-8"?>
<!DOCTYPE svg PUBLIC "-//W3C//DTD SVG 1.1//EN" "http://www.w3.org/Graphics/SVG/1.1/DTD/svg11.dtd">
<svg version="1.1" id="Layer_1" xmlns="http://www.w3.org/2000/svg" xmlns:xlink="http://www.w3.org/1999/xlink" x="0px" y="0px"
	 width="179.312px" height="199.999px" viewBox="0 0 179.312 199.999" enable-background="new 0 0 179.312 199.999"
	 xml:space="preserve">
<linearGradient id="gradient" gradientUnits="userSpaceOnUse" x1="17.1387" y1="199.999" x2="17.1387" y2="0">
	<stop  offset="0" style="stop-color:#404040"/>
	<stop  offset="1" style="stop-color:#A0A0A0"/>
</linearGradient>
<path fill="#C0C0C0" d="M124.454,27.698V57.46c17.184,11.349,28.566,30.796,28.566,52.886c0,34.927-28.43,63.341-63.369,63.341
	c-34.92,0-63.352-28.414-63.352-63.341c0-22.09,11.379-41.537,28.557-52.886V27.698C22.628,41.282,0,73.17,0,110.346
	c0,49.513,40.149,89.653,89.651,89.653c49.52,0,89.66-40.141,89.66-89.653C179.312,73.17,156.685,41.282,124.454,27.698z"/>
<path fill="#808080" d="M103.128,97.492c0,7.444-6.029,13.48-13.477,13.48l0,0c-7.441,0-13.484-6.036-13.484-13.48V13.48
	C76.167,6.036,82.21,0,89.651,0l0,0c7.447,0,13.477,6.036,13.477,13.48V97.492z"/>
</svg>
