<?xml version="1.0" encoding="utf-8"?>
<!DOCTYPE svg PUBLIC "-//W3C//DTD SVG 1.1//EN" "http://www.w3.org/Graphics/SVG/1.1/DTD/svg11.dtd">
<svg version="1.1" id="Layer_1" xmlns="http://www.w3.org/2000/svg" xmlns:xlink="http://www.w3.org/1999/xlink" x="0px" y="0px"
	 width="269.563px" height="200px" viewBox="0 0 269.563 200" enable-background="new 0 0 269.563 200" xml:space="preserve">
<linearGradient id="gradient" gradientUnits="userSpaceOnUse" x1="17.1387" y1="200" x2="17.1387" y2="0">
	<stop  offset="0" style="stop-color:#404040"/>
	<stop  offset="1" style="stop-color:#A0A0A0"/>
</linearGradient>
<path fill="#808080" d="M172.115,117.009V82.992H97.447v34.017H172.115z"/>
<g>
	<path fill="#C0C0C0" d="M260.992,67.834l-31.096,17.772c2.426,4.947,3.824,10.47,3.824,16.337c0,20.722-16.979,37.53-37.932,37.53
		H74.875v-25.049L0,157.211L74.875,200v-25.047h120.914c40.742,0,73.773-32.692,73.773-73.01
		C269.563,89.609,266.441,78.018,260.992,67.834z"/>
	<path fill="#C0C0C0" d="M8.557,132.167l31.096-17.773c-2.412-4.94-3.811-10.47-3.811-16.329c0-20.729,16.979-37.538,37.924-37.538
		H194.68v25.053l74.883-42.791L194.68,0v25.049H73.766C33.018,25.049,0,57.739,0,98.064C0,110.391,3.107,121.986,8.557,132.167z"/>
</g>
</svg>
