<?xml version="1.0" encoding="utf-8"?>
<!DOCTYPE svg PUBLIC "-//W3C//DTD SVG 1.1//EN" "http://www.w3.org/Graphics/SVG/1.1/DTD/svg11.dtd">
<svg version="1.1" id="Layer_1" xmlns="http://www.w3.org/2000/svg" xmlns:xlink="http://www.w3.org/1999/xlink" x="0px" y="0px"
	 width="184.291px" height="200px" viewBox="0 0 184.291 200" enable-background="new 0 0 184.291 200" xml:space="preserve">
<linearGradient id="gradient" gradientUnits="userSpaceOnUse" x1="17.1387" y1="200" x2="17.1387" y2="0">
	<stop  offset="0" style="stop-color:#404040"/>
	<stop  offset="1" style="stop-color:#A0A0A0"/>
</linearGradient>
<path fill="#C0C0C0" d="M150.469,173.585c17.203-15.787,28.063-38.396,28.063-63.594c0-47.711-38.682-86.386-86.383-86.386
	c-47.707,0-86.381,38.675-86.381,86.386c0,25.197,10.852,47.807,28.063,63.594l-7.365,13.4c-2.377,4.328-0.916,9.695,3.252,11.982
	c4.17,2.295,9.482,0.633,11.859-3.693l6.188-11.279c12.98,7.814,28.131,12.381,44.385,12.381s31.398-4.566,44.387-12.381
	l6.188,11.279c2.371,4.326,7.689,5.988,11.859,3.693c4.168-2.287,5.621-7.654,3.244-11.982L150.469,173.585z M92.143,181.976
	c-39.695,0-71.975-32.287-71.975-71.988c0-39.69,32.279-71.975,71.975-71.975c39.701,0,71.988,32.284,71.988,71.975
	C164.131,149.688,131.844,181.976,92.143,181.976z"/>
<path fill="#808080" d="M103.531,119.118c0-6.227-5.051-11.27-11.271-11.27c-6.223,0-11.273,5.043-11.273,11.27
	c0,6.225,5.051,11.268,11.273,11.268C98.48,130.386,103.531,125.343,103.531,119.118z"/>
<g>
	<path fill="#808080" d="M82.826,118.345L60.799,140.37c-2.322,2.326-2.322,6.107,0,8.438c2.328,2.322,6.111,2.322,8.441,0
		l22.02-22.029L82.826,118.345z"/>
	<path fill="#808080" d="M93.031,128.106l22.027,22.031c2.322,2.314,6.105,2.314,8.434,0c2.33-2.336,2.33-6.119,0-8.445
		l-22.02-22.023L93.031,128.106z"/>
</g>
<g>
	<path fill="#808080" d="M76.213,83.994c-1.24,4.968-6.539,8.717-12.857,8.717c-6.332,0-11.631-3.749-12.863-8.717h-7.215
		C44.51,92.948,52.979,99.9,63.355,99.9s18.838-6.952,20.078-15.906H76.213z"/>
	<path fill="#808080" d="M133.801,83.994c-1.24,4.968-6.539,8.717-12.857,8.717c-6.332,0-11.631-3.749-12.863-8.717h-7.215
		c1.234,8.954,9.701,15.906,20.078,15.906s18.838-6.952,20.078-15.906H133.801z"/>
</g>
<path fill="#808080" d="M37.117,0C16.619,0,0,16.619,0,37.117c0,9.36,3.582,17.808,9.295,24.34
	C22.4,39.987,43.822,24.171,69.115,18.62C62.701,7.541,50.85,0,37.117,0z"/>
<path fill="#808080" d="M115.176,18.62c25.295,5.551,46.723,21.367,59.828,42.837c5.705-6.532,9.287-14.979,9.287-24.34
	C184.291,16.619,167.672,0,147.174,0C133.449,0,121.598,7.541,115.176,18.62z"/>
</svg>
