<?xml version="1.0" encoding="utf-8"?>
<!DOCTYPE svg PUBLIC "-//W3C//DTD SVG 1.1//EN" "http://www.w3.org/Graphics/SVG/1.1/DTD/svg11.dtd">
<svg version="1.1" id="Layer_1" xmlns="http://www.w3.org/2000/svg" xmlns:xlink="http://www.w3.org/1999/xlink" x="0px" y="0px"
	 width="294.406px" height="200.001px" viewBox="0 0 294.406 200.001" enable-background="new 0 0 294.406 200.001"
	 xml:space="preserve">
<linearGradient id="gradient" gradientUnits="userSpaceOnUse" x1="17.1387" y1="200.001" x2="17.1387" y2="0">
	<stop  offset="0" style="stop-color:#404040"/>
	<stop  offset="1" style="stop-color:#A0A0A0"/>
</linearGradient>
<path fill="#C0C0C0" d="M97.959,92.736c0-15.896-12.885-28.791-28.787-28.791c-15.904,0-28.809,12.896-28.809,28.791
	c0,15.903,12.904,28.806,28.809,28.806C85.074,121.542,97.959,108.64,97.959,92.736z"/>
<path fill="#808080" d="M28.994,133.351V14.497C28.994,6.491,22.504,0,14.496,0C6.484,0,0,6.491,0,14.497v171.014
	c0,8.006,6.484,14.49,14.496,14.49c8.008,0,14.498-6.484,14.498-14.49v-14.318H265.42v14.318c0,8.006,6.482,14.49,14.49,14.49
	c8.014,0,14.496-6.484,14.496-14.49v-52.16H28.994z"/>
<path fill="#C0C0C0" d="M188.145,64.734c-0.145,0-0.295,0.031-0.447,0.031v-0.031h-80.629v56.808h176.26
	C265.055,87.717,229.287,64.734,188.145,64.734z"/>
</svg>
