<?xml version="1.0" encoding="utf-8"?>
<!DOCTYPE svg PUBLIC "-//W3C//DTD SVG 1.1//EN" "http://www.w3.org/Graphics/SVG/1.1/DTD/svg11.dtd">
<svg version="1.1" id="Layer_1" xmlns="http://www.w3.org/2000/svg" xmlns:xlink="http://www.w3.org/1999/xlink" x="0px" y="0px"
	 width="250.971px" height="200px" viewBox="0 0 250.971 200" enable-background="new 0 0 250.971 200" xml:space="preserve">
<linearGradient id="gradient" gradientUnits="userSpaceOnUse" x1="17.1387" y1="200" x2="17.1387" y2="0">
	<stop  offset="0" style="stop-color:#404040"/>
	<stop  offset="1" style="stop-color:#A0A0A0"/>
</linearGradient>
<path fill="#C0C0C0" d="M171.822,0H18.527C8.316,0,0,8.31,0,18.531v106.109c0,10.232,8.316,18.541,18.527,18.541h153.295
	c10.225,0,18.541-8.309,18.541-18.541V18.531C190.363,8.31,182.047,0,171.822,0z"/>
<path fill="#808080" d="M232.436,56.82H205.51v67.82c0,18.576-15.111,33.693-33.688,33.693H60.607v23.139
	c0,10.217,8.316,18.527,18.533,18.527h153.295c10.219,0,18.535-8.311,18.535-18.527V75.348
	C250.971,65.13,242.654,56.82,232.436,56.82z"/>
</svg>
