<?xml version="1.0" encoding="utf-8"?>
<!DOCTYPE svg PUBLIC "-//W3C//DTD SVG 1.1//EN" "http://www.w3.org/Graphics/SVG/1.1/DTD/svg11.dtd">
<svg version="1.1" id="Layer_1" xmlns="http://www.w3.org/2000/svg" xmlns:xlink="http://www.w3.org/1999/xlink" x="0px" y="0px"
	 width="244.583px" height="200.001px" viewBox="0 0 244.583 200.001" enable-background="new 0 0 244.583 200.001"
	 xml:space="preserve">
<linearGradient id="gradient" gradientUnits="userSpaceOnUse" x1="17.1387" y1="200.001" x2="17.1387" y2="0">
	<stop  offset="0" style="stop-color:#404040"/>
	<stop  offset="1" style="stop-color:#A0A0A0"/>
</linearGradient>
<g>
	<g>
		<path fill="#C0C0C0" d="M115.083,178.841h40.316v15.916H89.179v-10.363l40.57-58.887H92.972v-15.923h61.795v11.12L115.083,178.841
			z"/>
	</g>
	<path fill="#C0C0C0" d="M109.46,63.313l-6.066,21.862H83.433L109.46,0h25.277l26.416,85.176h-20.729l-6.57-21.862H109.46z
		 M121.466,14.407h-0.252l-8.971,34.503h18.832L121.466,14.407z"/>
</g>
<g>
	<polygon fill="#808080" points="43.232,143.315 43.232,0 22.228,0 22.228,143.315 0,143.315 32.725,200.001 65.456,143.315 	"/>
	<polygon fill="#808080" points="201.347,56.686 201.347,200.001 222.362,200.001 222.362,56.686 244.583,56.686 211.862,0 
		179.136,56.686 	"/>
</g>
</svg>
