<?xml version="1.0" encoding="utf-8"?>
<!DOCTYPE svg PUBLIC "-//W3C//DTD SVG 1.1//EN" "http://www.w3.org/Graphics/SVG/1.1/DTD/svg11.dtd">
<svg version="1.1" id="Layer_1" xmlns="http://www.w3.org/2000/svg" xmlns:xlink="http://www.w3.org/1999/xlink" x="0px" y="0px"
	 width="244.583px" height="202.62px" viewBox="0 0 244.583 202.62" enable-background="new 0 0 244.583 202.62"
	 xml:space="preserve">
<linearGradient id="gradient" gradientUnits="userSpaceOnUse" x1="17.1387" y1="202.62" x2="17.1387" y2="0">
	<stop  offset="0" style="stop-color:#404040"/>
	<stop  offset="1" style="stop-color:#A0A0A0"/>
</linearGradient>
<g>
	<polygon fill="#808080" points="43.232,145.759 43.232,2.444 22.228,2.444 22.228,145.759 0,145.759 32.725,202.445 
		65.456,145.759 	"/>
	<polygon fill="#808080" points="201.347,59.129 201.347,202.445 222.362,202.445 222.362,59.129 244.583,59.129 211.862,2.444 
		179.136,59.129 	"/>
</g>
<g>
	<g>
		<path fill="#C0C0C0" d="M156.102,45.955c0,27.737-11.178,46.781-34.086,46.781c-23.185,0-33.396-20.838-33.534-46.229
			C88.481,20.562,99.521,0,122.706,0C146.717,0,156.102,21.39,156.102,45.955z M109.595,46.506
			c-0.138,20.562,4.83,30.36,12.972,30.36c8.142,0,12.558-10.213,12.558-30.637c0-19.872-4.277-30.36-12.696-30.36
			C114.701,15.87,109.458,25.668,109.595,46.506z"/>
	</g>
	<g>
		<path fill="#C0C0C0" d="M96.692,186.039c2.622,0.275,4.969,0.275,9.108,0c6.348-0.414,12.834-2.209,17.665-5.521
			c5.795-4.002,9.658-9.798,11.314-16.56l-0.414-0.139c-4.002,4.141-9.797,6.486-17.939,6.486c-15.18,0-28.014-10.626-28.014-28.014
			c0-17.526,14.075-32.293,33.81-32.293c23.045,0,33.948,17.664,33.948,38.641c0,18.63-5.934,32.292-15.732,41.262
			c-8.555,7.729-20.286,12.006-34.224,12.559c-3.588,0.275-7.176,0.138-9.521,0V186.039z M121.532,125.318
			c-7.037,0-12.281,6.348-12.144,15.732c0,7.728,4.14,14.352,12.696,14.352c5.658,0,9.66-2.76,11.591-5.934
			c0.689-1.242,1.104-2.622,1.104-5.244c0-9.521-3.588-18.906-13.109-18.906H121.532z"/>
	</g>
</g>
</svg>
