<?xml version="1.0" encoding="utf-8"?>
<!DOCTYPE svg PUBLIC "-//W3C//DTD SVG 1.1//EN" "http://www.w3.org/Graphics/SVG/1.1/DTD/svg11.dtd">
<svg version="1.1" id="Layer_1" xmlns="http://www.w3.org/2000/svg" xmlns:xlink="http://www.w3.org/1999/xlink" x="0px" y="0px"
	 width="199.997px" height="199.999px" viewBox="0 0 199.997 199.999" enable-background="new 0 0 199.997 199.999"
	 xml:space="preserve">
<linearGradient id="gradient" gradientUnits="userSpaceOnUse" x1="17.1387" y1="199.999" x2="17.1387" y2="0">
	<stop  offset="0" style="stop-color:#404040"/>
	<stop  offset="1" style="stop-color:#A0A0A0"/>
</linearGradient>
<path fill="#808080" d="M121.257,154.36l-30.445-33.411H63.224c-2.584,0-4.686-2.102-4.686-4.692V83.75
	c0-2.591,2.102-4.686,4.686-4.686h27.588l30.445-33.417V154.36z"/>
<path fill="#C0C0C0" d="M100.003,0C44.772,0,0,44.772,0,100.003c0,55.225,44.772,99.996,100.003,99.996
	c55.221,0,99.994-44.771,99.994-99.996C199.997,44.772,155.224,0,100.003,0z M135.257,190.491l-24.35-26.705L84.61,134.95h-21.4
	c-10.307,0-18.672-8.393-18.672-18.7V83.757c0-10.308,8.365-18.687,18.672-18.687h21.4l26.297-28.855l24.35-26.714V190.491z"/>
</svg>
