<?xml version="1.0" encoding="utf-8"?>
<!DOCTYPE svg PUBLIC "-//W3C//DTD SVG 1.1//EN" "http://www.w3.org/Graphics/SVG/1.1/DTD/svg11.dtd">
<svg version="1.1" id="Layer_1" xmlns="http://www.w3.org/2000/svg" xmlns:xlink="http://www.w3.org/1999/xlink" x="0px" y="0px"
	 width="250.021px" height="200.001px" viewBox="0 0 250.021 200.001" enable-background="new 0 0 250.021 200.001"
	 xml:space="preserve">
<linearGradient id="gradient" gradientUnits="userSpaceOnUse" x1="17.1387" y1="200.001" x2="17.1387" y2="0">
	<stop  offset="0" style="stop-color:#404040"/>
	<stop  offset="1" style="stop-color:#A0A0A0"/>
</linearGradient>
<path fill="#808080" d="M226.609,0H23.412C10.5,0,0,10.497,0,23.409v153.182c0,12.912,10.5,23.41,23.412,23.41h203.197
	c12.92,0,23.412-10.498,23.412-23.41V23.409C250.021,10.497,239.529,0,226.609,0z M238.701,176.591c0,6.674-5.422,12.1-12.092,12.1
	H23.412c-6.684,0-12.105-5.426-12.105-12.1V23.409c0-6.673,5.422-12.096,12.105-12.096h203.197c6.67,0,12.092,5.423,12.092,12.096
	V176.591z"/>
<path fill="#C0C0C0" d="M53.881,172.222c0,2.65-0.689,4.799-1.537,4.799H26.541c-0.848,0-1.537-2.148-1.537-4.799v-60.801
	c0-2.646,0.689-4.807,1.537-4.807h25.803c0.848,0,1.537,2.16,1.537,4.807V172.222z"/>
<path fill="#C0C0C0" d="M88.4,170.151c0,3.791-0.682,6.869-1.529,6.869H61.066c-0.846,0-1.535-3.078-1.535-6.869v-87.06
	c0-3.786,0.689-6.873,1.535-6.873h25.805c0.848,0,1.529,3.087,1.529,6.873V170.151z"/>
<path fill="#C0C0C0" d="M122.928,168.378c0,4.768-0.689,8.643-1.537,8.643H95.586c-0.846,0-1.535-3.875-1.535-8.643V58.814
	c0-4.769,0.689-8.657,1.535-8.657h25.805c0.848,0,1.537,3.889,1.537,8.657V168.378z"/>
<path fill="#C0C0C0" d="M157.453,169.856c0,3.951-0.689,7.164-1.537,7.164h-25.803c-0.848,0-1.537-3.213-1.537-7.164v-90.81
	c0-3.951,0.689-7.173,1.537-7.173h25.803c0.848,0,1.537,3.222,1.537,7.173V169.856z"/>
<path fill="#C0C0C0" d="M191.973,171.63c0,2.973-0.689,5.391-1.535,5.391h-25.797c-0.848,0-1.537-2.418-1.537-5.391v-68.306
	c0-2.97,0.689-5.392,1.537-5.392h25.797c0.846,0,1.535,2.422,1.535,5.392V171.63z"/>
<path fill="#C0C0C0" d="M226.5,172.815c0,2.318-0.689,4.205-1.537,4.205H199.16c-0.848,0-1.537-1.887-1.537-4.205v-53.307
	c0-2.314,0.689-4.207,1.537-4.207h25.803c0.848,0,1.537,1.893,1.537,4.207V172.815z"/>
</svg>
