<?xml version="1.0" encoding="utf-8"?>
<!DOCTYPE svg PUBLIC "-//W3C//DTD SVG 1.1//EN" "http://www.w3.org/Graphics/SVG/1.1/DTD/svg11.dtd">
<svg version="1.1" id="Layer_1" xmlns="http://www.w3.org/2000/svg" xmlns:xlink="http://www.w3.org/1999/xlink" x="0px" y="0px"
	 width="200.01px" height="200px" viewBox="0 0 200.01 200" enable-background="new 0 0 200.01 200" xml:space="preserve">
<linearGradient id="gradient" gradientUnits="userSpaceOnUse" x1="17.1387" y1="200" x2="17.1387" y2="0">
	<stop  offset="0" style="stop-color:#404040"/>
	<stop  offset="1" style="stop-color:#A0A0A0"/>
</linearGradient>
<path fill="#808080" d="M161.762,31.099"/>
<path fill="#808080" d="M177.045,48.728"/>
<path fill="#808080" d="M153.99,64.072"/>
<path fill="#C0C0C0" d="M172.787,157.631c-3.424-2.295-4.342-6.936-2.047-10.355l0,0c9.061-13.533,14.34-29.752,14.346-47.274l0,0
	c-0.006-17.463-5.25-33.628-14.248-47.133l0,0c-2.295-3.428-1.365-8.062,2.066-10.349l0,0c3.424-2.288,8.061-1.361,10.35,2.066l0,0
	c10.568,15.852,16.764,34.94,16.756,55.415l0,0c0.008,20.544-6.221,39.698-16.859,55.581l0,0l0,0
	c-1.447,2.152-3.805,3.314-6.215,3.314l0,0C175.502,158.896,174.063,158.488,172.787,157.631L172.787,157.631z"/>
<path fill="#C0C0C0" d="M149.768,142.242c-3.426-2.295-4.342-6.928-2.047-10.355l0,0c6.111-9.131,9.674-20.062,9.674-31.886l0,0
	c0-11.785-3.541-22.676-9.611-31.788l0,0l0,0c-2.289-3.428-1.365-8.064,2.066-10.346l0,0c3.424-2.294,8.061-1.367,10.35,2.063l0,0
	c7.641,11.459,12.127,25.271,12.119,40.07l0,0c0.008,14.853-4.5,28.708-12.195,40.19l0,0c-1.441,2.154-3.797,3.311-6.209,3.311l0,0
	C152.48,143.502,151.041,143.096,149.768,142.242L149.768,142.242z"/>
<path fill="#C0C0C0" d="M100.008,200C44.775,200,0.014,155.23,0,100.001l0,0C0.014,44.769,44.775,0.003,100.008,0l0,0
	c25.623-0.004,49.057,9.677,66.736,25.542l0,0l0,0c3.072,2.752,3.32,7.465,0.578,10.535l0,0c-2.762,3.073-7.475,3.328-10.541,0.571
	l0,0c-15.084-13.512-34.928-21.718-56.773-21.721l0,0c-23.516,0.003-44.738,9.508-60.154,24.915l0,0
	c-15.41,15.42-24.919,36.642-24.922,60.158l0,0c0.003,23.517,9.512,44.735,24.922,60.159l0,0
	c15.416,15.406,36.639,24.908,60.154,24.914l0,0c21.465-0.006,40.994-7.93,55.98-21.041l0,0c3.107-2.715,7.82-2.402,10.535,0.705
	l0,0c2.715,3.098,2.398,7.811-0.703,10.531l0,0C148.258,190.643,125.207,200,100.025,200l0,0C100.021,200,100.012,200,100.008,200
	L100.008,200z"/>
<path fill="#808080" d="M153.922,136.041"/>
<path fill="#808080" d="M131.811,78.834"/>
<path fill="#808080" d="M131.775,121.234"/>
<path fill="#C0C0C0" d="M127.615,127.436c-3.418-2.299-4.342-6.932-2.047-10.356l0,0c3.273-4.899,5.182-10.731,5.188-17.078l0,0
	c-0.006-6.321-1.9-12.137-5.16-17.025l0,0h0.006c-2.291-3.432-1.363-8.062,2.068-10.346l0,0c3.432-2.288,8.055-1.364,10.35,2.063
	l0,0c4.83,7.231,7.668,15.968,7.662,25.308l0,0c0.006,9.371-2.854,18.139-7.711,25.388l0,0c-1.439,2.146-3.803,3.307-6.209,3.307
	l0,0C130.336,128.695,128.896,128.285,127.615,127.436L127.615,127.436z"/>
<path fill="#C0C0C0" d="M164.855,100.001"/>
<path fill="#808080" d="M138.219,100.001"/>
<path fill="#808080" d="M117.924,109.517c0,12.093,0,30.981,0,44.858c0,2.133-3.146,8.162-10.867,2.113
	c-6.508-5.105-19.912-16.107-38.555-24.537c-8.598-3.893-24.305-4.412-27.768-5.146c-3.158-0.668-6.042-2.418-6.042-7.256
	c0-3.855,0-5.398,0-11.706v-14.97c0-6.308,0-7.848,0-11.706c0-4.837,2.884-6.584,6.042-7.256c3.463-0.733,19.17-1.254,27.768-5.144
	c18.643-8.43,32.047-19.434,38.555-24.536c7.721-6.05,10.867-0.021,10.867,2.112c0,13.873,0,32.767,0,44.855V109.517z"/>
</svg>
