<?xml version="1.0" encoding="utf-8"?>
<svg version="1.1" id="Layer_1" xmlns="http://www.w3.org/2000/svg" xmlns:xlink="http://www.w3.org/1999/xlink" x="0px" y="0px"
	 width="28.348px" height="28.346px" viewBox="0 0 28.348 28.346" enable-background="new 0 0 28.348 28.346" xml:space="preserve">
<linearGradient id="gradient" gradientUnits="userSpaceOnUse" x1="17.1387" y1="28.3467" x2="17.1387" y2="4.882813e-004">
	<stop  offset="0" style="stop-color:#404040"/>
	<stop  offset="1" style="stop-color:#A0A0A0"/>
</linearGradient>
<path fill="#808080" d="M22.927,4.408"/>
<path fill="#808080" d="M25.093,6.906"/>
<path fill="#808080" d="M21.825,9.081"/>
<path fill="#C0C0C0" d="M24.489,22.341c-0.485-0.325-0.615-0.983-0.29-1.468l0,0c1.284-1.918,2.032-4.217,2.033-6.7l0,0
	c-0.001-2.475-0.744-4.766-2.02-6.68l0,0c-0.325-0.486-0.193-1.143,0.293-1.467l0,0c0.485-0.324,1.143-0.193,1.467,0.293l0,0
	c1.498,2.247,2.376,4.952,2.375,7.854l0,0c0.001,2.911-0.882,5.626-2.39,7.878l0,0l0,0c-0.205,0.305-0.539,0.469-0.881,0.469l0,0
	C24.874,22.52,24.67,22.463,24.489,22.341L24.489,22.341z"/>
<path fill="#C0C0C0" d="M21.227,20.161c-0.485-0.326-0.615-0.982-0.29-1.469l0,0c0.866-1.293,1.371-2.843,1.371-4.519l0,0
	c0-1.67-0.502-3.214-1.362-4.505l0,0l0,0c-0.324-0.486-0.193-1.143,0.293-1.466l0,0c0.485-0.325,1.143-0.194,1.467,0.292l0,0
	c1.083,1.624,1.719,3.582,1.718,5.679l0,0c0.001,2.104-0.638,4.069-1.729,5.696l0,0c-0.204,0.305-0.538,0.469-0.88,0.469l0,0
	C21.611,20.338,21.407,20.282,21.227,20.161L21.227,20.161z"/>
<path fill="#C0C0C0" d="M14.174,28.346C6.346,28.346,0.002,22,0,14.173l0,0C0.002,6.345,6.346,0,14.174,0l0,0
	c3.631,0,6.953,1.372,9.458,3.62l0,0l0,0c0.436,0.39,0.471,1.058,0.082,1.493l0,0c-0.392,0.436-1.06,0.472-1.494,0.081l0,0
	c-2.138-1.915-4.95-3.078-8.046-3.079l0,0c-3.333,0-6.341,1.348-8.526,3.531l0,0c-2.184,2.186-3.532,5.193-3.532,8.526l0,0
	c0,3.333,1.348,6.341,3.532,8.526l0,0c2.185,2.184,5.193,3.53,8.526,3.531l0,0c3.042-0.001,5.81-1.124,7.934-2.982l0,0
	c0.44-0.385,1.108-0.34,1.493,0.1l0,0c0.385,0.439,0.34,1.107-0.1,1.493l0,0c-2.489,2.179-5.757,3.505-9.325,3.505l0,0
	C14.176,28.346,14.175,28.346,14.174,28.346L14.174,28.346z"/>
<path fill="#808080" d="M21.815,19.282"/>
<path fill="#808080" d="M18.682,11.173"/>
<path fill="#808080" d="M18.677,17.182"/>
<path fill="#C0C0C0" d="M18.087,18.061c-0.484-0.325-0.615-0.982-0.29-1.467l0,0c0.464-0.695,0.734-1.521,0.735-2.421l0,0
	c-0.001-0.896-0.27-1.72-0.731-2.413l0,0h0.001c-0.324-0.486-0.193-1.143,0.293-1.466l0,0c0.486-0.324,1.142-0.193,1.467,0.292l0,0
	c0.685,1.025,1.087,2.263,1.086,3.587l0,0c0.001,1.328-0.404,2.571-1.093,3.599l0,0c-0.204,0.304-0.539,0.469-0.88,0.469l0,0
	C18.473,18.241,18.269,18.182,18.087,18.061L18.087,18.061z"/>
<path fill="#C0C0C0" d="M23.365,14.173"/>
<path fill="#808080" d="M19.59,14.173"/>
<path fill="#808080" d="M16.714,15.522c0,1.714,0,4.391,0,6.357c0,0.303-0.446,1.157-1.541,0.3
	c-0.922-0.724-2.822-2.282-5.464-3.478c-1.219-0.552-3.445-0.625-3.936-0.729c-0.448-0.095-0.856-0.343-0.856-1.028
	c0-0.547,0-0.766,0-1.659v-2.122c0-0.894,0-1.112,0-1.659c0-0.686,0.409-0.933,0.856-1.028c0.491-0.104,2.717-0.178,3.936-0.729
	c2.642-1.195,4.542-2.754,5.464-3.478c1.095-0.857,1.541-0.003,1.541,0.299c0,1.966,0,4.644,0,6.357V15.522z"/>
</svg>
