<?xml version="1.0" encoding="utf-8"?>
<!DOCTYPE svg PUBLIC "-//W3C//DTD SVG 1.1//EN" "http://www.w3.org/Graphics/SVG/1.1/DTD/svg11.dtd">
<svg version="1.1" id="Layer_1" xmlns="http://www.w3.org/2000/svg" xmlns:xlink="http://www.w3.org/1999/xlink" x="0px" y="0px"
	 width="258.518px" height="199.999px" viewBox="0 0 258.518 199.999" enable-background="new 0 0 258.518 199.999"
	 xml:space="preserve">
<linearGradient id="gradient" gradientUnits="userSpaceOnUse" x1="17.1387" y1="199.999" x2="17.1387" y2="0">
	<stop  offset="0" style="stop-color:#404040"/>
	<stop  offset="1" style="stop-color:#A0A0A0"/>
</linearGradient>
<path fill="#808080" d="M67.781,199.999c-2.166,0-0.631-48.055-12.701-60.133c-12.086-12.088-43.853-10.539-43.853-12.705
	c0-2.182,27.092,1.898,42.981-13.977C70.725,96.665,64.451,10.366,67.781,10.366c3.352,0-1.367,83.271,13.285,102.818
	c10.607,14.131,48.15,12.223,48.15,13.977c0,1.74-35.166-0.869-48.736,12.705C66.918,153.442,69.949,199.999,67.781,199.999z"/>
<path fill="#808080" d="M226.168,86.719c1.24,0,0.359,27.481,7.264,34.403c6.91,6.91,25.086,6.025,25.086,7.262
	c0,1.254-15.502-1.078-24.598,8c-9.439,9.453-5.842,58.834-7.752,58.834c-1.928,0,0.779-47.641-7.6-58.834
	c-6.076-8.082-27.561-6.994-27.561-8c0-0.996,20.127,0.5,27.885-7.262C226.658,113.363,224.928,86.719,226.168,86.719z"/>
<path fill="#C0C0C0" d="M167.664,0c2.172,0,0.635,48.048,12.713,60.127c12.086,12.092,75.715,10.542,75.715,12.712
	c0,2.174-58.959-1.905-74.848,13.97c-16.516,16.52-10.238,102.829-13.58,102.829c-3.348,0,1.379-83.278-13.277-102.829
	C143.777,72.681,0,74.589,0,72.839c0-1.746,141.402,0.861,154.973-12.712C168.533,46.557,165.502,0,167.664,0z"/>
</svg>
