<?xml version="1.0" encoding="utf-8"?>
<!DOCTYPE svg PUBLIC "-//W3C//DTD SVG 1.1//EN" "http://www.w3.org/Graphics/SVG/1.1/DTD/svg11.dtd">
<svg version="1.1" id="Layer_1" xmlns="http://www.w3.org/2000/svg" xmlns:xlink="http://www.w3.org/1999/xlink" x="0px" y="0px"
	 width="250.021px" height="200.001px" viewBox="0 0 250.021 200.001" enable-background="new 0 0 250.021 200.001"
	 xml:space="preserve">
<linearGradient id="gradient" gradientUnits="userSpaceOnUse" x1="17.1387" y1="200.001" x2="17.1387" y2="0">
	<stop  offset="0" style="stop-color:#404040"/>
	<stop  offset="1" style="stop-color:#A0A0A0"/>
</linearGradient>
<rect x="29.512" y="143.698" fill="#C0C0C0" width="31" height="36.756"/>
<rect x="69.512" y="110.61" fill="#C0C0C0" width="31" height="69.844"/>
<rect x="109.512" y="125.603" fill="#C0C0C0" width="31" height="54.852"/>
<rect x="149.512" y="103.219" fill="#C0C0C0" width="31" height="77.235"/>
<rect x="189.512" y="74.957" fill="#C0C0C0" width="31" height="105.497"/>
<path fill="#808080" d="M226.609,0H23.412C10.5,0,0,10.497,0,23.409v153.186c0,12.912,10.5,23.406,23.412,23.406h203.197
	c12.92,0,23.412-10.494,23.412-23.406V23.409C250.021,10.497,239.529,0,226.609,0z M238.701,176.595
	c0,6.67-5.422,12.098-12.092,12.098H23.412c-6.684,0-12.105-5.428-12.105-12.098V146.19l74.51-60.078l37.715,25.342l79.264-63.443
	l17.193,17.193v-43h-43l18.395,18.394l-71.852,56.141L85.953,72.036L11.307,132.29V23.409c0-6.673,5.422-12.096,12.105-12.096
	h203.197c6.67,0,12.092,5.423,12.092,12.096V176.595z"/>
</svg>
