<?xml version="1.0" encoding="utf-8"?>
<!DOCTYPE svg PUBLIC "-//W3C//DTD SVG 1.1//EN" "http://www.w3.org/Graphics/SVG/1.1/DTD/svg11.dtd">
<svg version="1.1" id="Layer_1" xmlns="http://www.w3.org/2000/svg" xmlns:xlink="http://www.w3.org/1999/xlink" x="0px" y="0px"
	 width="223.647px" height="200px" viewBox="0 0 223.647 200" enable-background="new 0 0 223.647 200" xml:space="preserve">
<linearGradient id="gradient" gradientUnits="userSpaceOnUse" x1="17.1387" y1="200" x2="17.1387" y2="0">
	<stop  offset="0" style="stop-color:#404040"/>
	<stop  offset="1" style="stop-color:#A0A0A0"/>
</linearGradient>
<path fill="#808080" d="M96.041,62.096c-7.861,0-14.213-6.37-14.213-14.215c0-7.854,6.352-14.218,14.213-14.218
	c7.848,0,14.215,6.363,14.215,14.218C110.256,55.726,103.889,62.096,96.041,62.096z"/>
<path fill="#C0C0C0" d="M137.789,36.916L85.871,2.796c-9.17-6.029-16.68-1.981-16.68,8.998V26.95H8.968C4.01,26.95,0,30.966,0,35.92
	v23.916c0,4.95,4.01,8.971,8.968,8.971h60.224v15.158c0,10.97,7.51,15.021,16.68,8.991l51.918-34.112
	C146.967,52.812,146.967,42.945,137.789,36.916z M96.049,72.1c-13.354,0-24.227-10.869-24.227-24.222
	c0-13.354,10.873-24.209,24.227-24.209s24.205,10.855,24.205,24.209C120.254,61.231,109.402,72.1,96.049,72.1z"/>
<path fill="#808080" d="M96.041,166.337c-7.861,0-14.213-6.367-14.213-14.215c0-7.855,6.352-14.215,14.213-14.215
	c7.848,0,14.215,6.359,14.215,14.215C110.256,159.97,103.889,166.337,96.041,166.337z"/>
<path fill="#C0C0C0" d="M137.789,141.16l-51.918-34.119c-9.17-6.029-16.68-1.984-16.68,8.998v15.152H8.968
	c-4.958,0-8.968,4.016-8.968,8.971v23.916c0,4.953,4.01,8.971,8.968,8.971h60.224v15.158c0,10.977,7.51,15.027,16.68,8.998
	l51.918-34.119C146.967,157.056,146.967,147.197,137.789,141.16z M96.041,176.335c-13.346,0-24.219-10.859-24.219-24.205
	c0-13.354,10.873-24.227,24.219-24.227c13.354,0,24.213,10.873,24.213,24.227C120.254,165.476,109.395,176.335,96.041,176.335z"/>
<path fill="#808080" d="M177.656,113.792c-7.85,0-14.215-6.365-14.215-14.215c0-7.854,6.365-14.214,14.215-14.214
	c7.854,0,14.221,6.36,14.221,14.214C191.877,107.427,185.51,113.792,177.656,113.792z"/>
<path fill="#C0C0C0" d="M216.764,88.616L164.84,54.497c-9.164-6.029-16.674-1.981-16.674,8.998v72.167
	c0,10.977,7.51,15.027,16.674,8.998l51.924-34.111C225.941,104.511,225.941,94.646,216.764,88.616z M177.662,123.791
	c-13.359,0-24.211-10.852-24.211-24.205c0-13.36,10.852-24.212,24.211-24.212c13.354,0,24.213,10.852,24.213,24.212
	C201.875,112.939,191.016,123.791,177.662,123.791z"/>
</svg>
