<?xml version="1.0" encoding="utf-8"?>
<!DOCTYPE svg PUBLIC "-//W3C//DTD SVG 1.1//EN" "http://www.w3.org/Graphics/SVG/1.1/DTD/svg11.dtd">
<svg version="1.1" id="Layer_1" xmlns="http://www.w3.org/2000/svg" xmlns:xlink="http://www.w3.org/1999/xlink" x="0px" y="0px"
	 width="200px" height="200.001px" viewBox="0 0 200 200.001" enable-background="new 0 0 200 200.001" xml:space="preserve">
<linearGradient id="gradient" gradientUnits="userSpaceOnUse" x1="17.1387" y1="200.001" x2="17.1387" y2="0">
	<stop  offset="0" style="stop-color:#404040"/>
	<stop  offset="1" style="stop-color:#A0A0A0"/>
</linearGradient>
<rect x="79.523" y="30.627" fill="#C0C0C0" width="36.604" height="62.915"/>
<polygon fill="#C0C0C0" points="132.514,154.019 95.904,154.019 79.523,100.253 116.127,100.253 "/>
<path fill="#808080" d="M179.043,0H20.958C9.385,0,0,9.385,0,20.958v158.084c0,11.58,9.385,20.959,20.958,20.959h158.085
	c11.572,0,20.957-9.379,20.957-20.959V20.958C200,9.385,190.615,0,179.043,0z M118.316,179.749H70.305V21.602h54.688v72.937
	l17.328,61.531L118.316,179.749z"/>
</svg>
