<?xml version="1.0" encoding="utf-8"?>
<svg version="1.1" id="Layer_1" xmlns="http://www.w3.org/2000/svg" xmlns:xlink="http://www.w3.org/1999/xlink" x="0px" y="0px"
	 width="27.36px" height="27.361px" viewBox="0 0 27.36 27.361" enable-background="new 0 0 27.36 27.361" xml:space="preserve">
<linearGradient id="gradient" gradientUnits="userSpaceOnUse" x1="17.1387" y1="28.3467" x2="17.1387" y2="4.882813e-004">
	<stop  offset="0" style="stop-color:#404040"/>
	<stop  offset="1" style="stop-color:#A0A0A0"/>
</linearGradient>
<path fill="#808080" d="M23.312,0H4.049C1.813,0,0,1.813,0,4.049v19.263c0,2.235,1.813,4.049,4.049,4.049h19.263
	c2.236,0,4.049-1.813,4.049-4.049V4.049C27.36,1.813,25.548,0,23.312,0z M24.79,23.312c0,0.814-0.663,1.479-1.478,1.479H4.049
	c-0.814,0-1.479-0.664-1.479-1.479V4.049c0-0.814,0.665-1.479,1.479-1.479h19.264c0.814,0,1.478,0.665,1.478,1.479V23.312z"/>
<path fill="#C0C0C0" d="M4.499,4.499v18.364h18.362V4.499H4.499z M20.098,15.178h-4.083c-0.397,0.763-1.186,1.291-2.104,1.291
	c-1.314,0-2.38-1.066-2.38-2.381c0-0.919,0.526-1.708,1.289-2.104V6.521h2.182v5.462c0.435,0.226,0.787,0.579,1.014,1.014h4.083
	V15.178z"/>
</svg>
