<?xml version="1.0" encoding="utf-8"?>
<!DOCTYPE svg PUBLIC "-//W3C//DTD SVG 1.1//EN" "http://www.w3.org/Graphics/SVG/1.1/DTD/svg11.dtd">
<svg version="1.1" id="Layer_1" xmlns="http://www.w3.org/2000/svg" xmlns:xlink="http://www.w3.org/1999/xlink" x="0px" y="0px"
	 width="199.996px" height="200px" viewBox="0 0 199.996 200" enable-background="new 0 0 199.996 200" xml:space="preserve">
<linearGradient id="gradient" gradientUnits="userSpaceOnUse" x1="17.1387" y1="200" x2="17.1387" y2="0">
	<stop  offset="0" style="stop-color:#404040"/>
	<stop  offset="1" style="stop-color:#A0A0A0"/>
</linearGradient>
<path fill="#808080" d="M170.4,0H29.596C13.252,0,0,13.249,0,29.597v140.808C0,186.744,13.252,200,29.596,200H170.4
	c16.348,0,29.596-13.256,29.596-29.596V29.597C199.996,13.249,186.748,0,170.4,0z M181.209,170.404
	c0,5.953-4.848,10.809-10.801,10.809H29.596c-5.949,0-10.807-4.855-10.807-10.809V29.597c0-5.95,4.857-10.808,10.807-10.808h140.813
	c5.953,0,10.801,4.857,10.801,10.808V170.404z"/>
<path fill="#C0C0C0" d="M32.887,32.887v134.234h134.223V32.887H32.887z M146.908,110.952h-29.846
	c-2.904,5.571-8.666,9.431-15.383,9.431c-9.609,0-17.396-7.791-17.396-17.4c0-6.717,3.848-12.481,9.422-15.383V47.671h15.947V87.6
	c3.178,1.652,5.754,4.232,7.41,7.409h29.846V110.952z"/>
</svg>
