<?xml version="1.0" encoding="utf-8"?>
<svg version="1.1" id="Layer_1" xmlns="http://www.w3.org/2000/svg" xmlns:xlink="http://www.w3.org/1999/xlink" x="0px" y="0px"
	 width="26.121px" height="28.346px" viewBox="0 0 26.121 28.346" enable-background="new 0 0 26.121 28.346" xml:space="preserve">
<linearGradient id="gradient" gradientUnits="userSpaceOnUse" x1="17.1387" y1="28.3467" x2="17.1387" y2="4.882813e-004">
	<stop  offset="0" style="stop-color:#404040"/>
	<stop  offset="1" style="stop-color:#A0A0A0"/>
</linearGradient>
<path fill="#C0C0C0" d="M21.325,24.602c2.44-2.236,3.978-5.441,3.978-9.013c0-6.763-5.481-12.244-12.243-12.244
	S0.816,8.828,0.816,15.589c0,3.571,1.538,6.776,3.978,9.013L3.75,26.501c-0.336,0.615-0.13,1.374,0.461,1.699
	c0.591,0.324,1.343,0.089,1.68-0.524l0.877-1.599c1.84,1.107,3.987,1.755,6.291,1.755s4.451-0.647,6.291-1.755l0.877,1.599
	c0.336,0.613,1.089,0.849,1.68,0.524c0.591-0.325,0.797-1.084,0.46-1.699L21.325,24.602z M13.06,25.792
	c-5.626,0-10.201-4.577-10.201-10.204c0-5.626,4.575-10.202,10.201-10.202c5.628,0,10.204,4.576,10.204,10.202
	C23.264,21.215,18.686,25.792,13.06,25.792z"/>
<path fill="#808080" d="M18.275,15.742h-3.836c-0.135-0.289-0.353-0.529-0.624-0.693l0.001-4.033
	c-0.001-0.466-0.379-0.845-0.846-0.846c-0.467,0.001-0.846,0.379-0.846,0.846v4.057c-0.438,0.284-0.729,0.776-0.729,1.337
	c0,0.883,0.715,1.597,1.597,1.597c0.491,0,0.924-0.226,1.217-0.575h4.065c0.467,0,0.845-0.379,0.845-0.845
	S18.742,15.742,18.275,15.742z"/>
<path fill="#808080" d="M5.26,0C2.355,0,0,2.355,0,5.26C0,6.586,0.508,7.784,1.317,8.71c1.856-3.043,4.894-5.286,8.479-6.072
	C8.887,1.068,7.206,0,5.26,0z"/>
<path fill="#808080" d="M16.324,2.638c3.585,0.786,6.622,3.028,8.479,6.072c0.81-0.927,1.317-2.125,1.317-3.451
	c0-2.904-2.355-5.26-5.262-5.26C18.914,0,17.234,1.068,16.324,2.638z"/>
</svg>
