<?xml version="1.0" encoding="utf-8"?>
<!DOCTYPE svg PUBLIC "-//W3C//DTD SVG 1.1//EN" "http://www.w3.org/Graphics/SVG/1.1/DTD/svg11.dtd">
<svg version="1.1" id="Layer_1" xmlns="http://www.w3.org/2000/svg" xmlns:xlink="http://www.w3.org/1999/xlink" x="0px" y="0px"
	 width="184.299px" height="200px" viewBox="0 0 184.299 200" enable-background="new 0 0 184.299 200" xml:space="preserve">
<linearGradient id="gradient" gradientUnits="userSpaceOnUse" x1="17.1387" y1="200" x2="17.1387" y2="0">
	<stop  offset="0" style="stop-color:#404040"/>
	<stop  offset="1" style="stop-color:#A0A0A0"/>
</linearGradient>
<path fill="#C0C0C0" d="M150.461,173.582c17.219-15.779,28.064-38.393,28.064-63.59c0-47.715-38.674-86.387-86.383-86.387
	c-47.707,0-86.383,38.679-86.383,86.387c0,25.197,10.854,47.811,28.064,63.59l-7.365,13.4c-2.371,4.342-0.916,9.695,3.252,11.99
	c4.168,2.287,9.475,0.627,11.852-3.701l6.188-11.279c12.98,7.814,28.133,12.383,44.387,12.383s31.404-4.568,44.387-12.383
	l6.188,11.279c2.369,4.328,7.682,5.988,11.85,3.701c4.17-2.295,5.623-7.648,3.246-11.99L150.461,173.582z M92.143,181.98
	c-39.693,0-71.975-32.295-71.975-71.996c0-39.694,32.281-71.981,71.975-71.981c39.709,0,71.996,32.287,71.996,71.981
	C164.139,149.686,131.838,181.98,92.143,181.98z"/>
<path fill="#808080" d="M128.943,111.066h-27.064c-0.951-2.043-2.488-3.738-4.402-4.892l0.006-28.453
	c-0.006-3.29-2.674-5.96-5.967-5.968c-3.293,0.008-5.967,2.678-5.967,5.968v28.625c-3.086,2.005-5.141,5.474-5.141,9.429
	c0,6.229,5.045,11.27,11.266,11.27c3.467,0,6.52-1.596,8.586-4.055h28.684c3.293,0,5.961-2.674,5.961-5.963
	C134.904,113.744,132.236,111.066,128.943,111.066z"/>
<path fill="#808080" d="M37.111,0C16.619,0,0,16.619,0,37.11c0,9.356,3.582,17.808,9.295,24.347
	c13.098-21.47,34.527-37.297,59.82-42.844C62.701,7.534,50.844,0,37.111,0z"/>
<path fill="#808080" d="M115.178,18.613c25.293,5.547,46.723,21.367,59.826,42.844c5.713-6.539,9.295-14.99,9.295-24.347
	C184.299,16.619,167.68,0,147.176,0C133.449,0,121.598,7.534,115.178,18.613z"/>
</svg>
