<?xml version="1.0" encoding="utf-8"?>
<!DOCTYPE svg PUBLIC "-//W3C//DTD SVG 1.1//EN" "http://www.w3.org/Graphics/SVG/1.1/DTD/svg11.dtd">
<svg version="1.1" id="Layer_1" xmlns="http://www.w3.org/2000/svg" xmlns:xlink="http://www.w3.org/1999/xlink" x="0px" y="0px"
	 width="195.68px" height="199.999px" viewBox="0 0 195.68 199.999" enable-background="new 0 0 195.68 199.999"
	 xml:space="preserve">
<linearGradient id="gradient" gradientUnits="userSpaceOnUse" x1="17.1387" y1="199.999" x2="17.1387" y2="0">
	<stop  offset="0" style="stop-color:#404040"/>
	<stop  offset="1" style="stop-color:#A0A0A0"/>
</linearGradient>
<path fill="#808080" d="M33.238,25.762c-0.848-2.838-1.709-6.391-2.412-9.229h-0.137c-0.711,2.838-1.428,6.459-2.205,9.229
	l-2.846,10.149h10.576L33.238,25.762z M83.66,41.875c0-4.827-4.326-6.746-9.715-6.746h-3.701v13.487
	c1.063,0.142,2.336,0.142,4.189,0.142C79.334,48.758,83.66,46.843,83.66,41.875z M175.484,31.581
	c0.076-9.939-5.746-15.189-15.047-15.189c-2.412,0-3.977,0.214-4.893,0.42V48.12c0.916,0.214,2.404,0.214,3.756,0.214
	C169.098,48.403,175.484,43.008,175.484,31.581z M82.523,21.497c0-3.614-2.764-5.533-7.67-5.533c-2.334,0-3.686,0.142-4.609,0.286
	v11.142h3.549C79.471,27.392,82.523,25.053,82.523,21.497z M0,0v199.999h195.68V0H0z M144.68,9.077
	c3.975-0.637,9.156-0.991,14.621-0.991c9.088,0,14.979,1.633,19.588,5.112c4.975,3.689,8.096,9.58,8.096,18.024
	c0,9.157-3.334,15.479-7.951,19.382c-5.037,4.189-12.705,6.177-22.076,6.177c-5.602,0-9.576-0.361-12.277-0.713V9.077z
	 M126.344,7.662c5.609,0,9.867,1.133,11.789,2.129l-2.205,8.588c-2.197-0.923-5.25-1.773-9.088-1.773
	c-8.584,0-15.254,5.181-15.254,15.826c0,9.584,5.67,15.616,15.33,15.616c3.26,0,6.883-0.709,9.012-1.561l1.635,8.444
	c-1.984,0.995-6.463,2.133-12.279,2.133c-16.543,0-25.053-10.363-25.053-23.992C100.23,16.746,111.869,7.662,126.344,7.662z
	 M59.531,9.077c2.838-0.564,8.584-0.991,13.986-0.991c6.594,0,10.639,0.637,14.117,2.697c3.336,1.774,5.754,5.04,5.754,9.367
	c0,4.262-2.48,8.237-7.883,10.225v0.142c5.465,1.491,9.51,5.608,9.51,11.782c0,4.33-1.992,7.737-4.969,10.155
	c-3.479,2.764-9.287,4.327-18.803,4.327c-5.332,0-9.295-0.361-11.713-0.713V9.077z M24.088,8.44h14.193l14.828,47.842H41.473
	l-3.693-12.278H24.088L20.67,56.282H9.461L24.088,8.44z M187.488,191.804H8.193V64.364h179.295V191.804z"/>
<path fill="#C0C0C0" d="M14.428,70.593v114.98H181.26V70.593H14.428z M137.293,151.7c0,6.025-6.855,10.91-15.311,10.91
	c-8.461,0-15.309-4.885-15.309-10.91c0-6.037,6.848-10.92,15.309-10.92c4.053,0,7.725,1.129,10.459,2.961V99.283L80.367,107.8
	v51.662c0,6.025-6.85,10.914-15.311,10.914c-8.453,0-15.311-4.889-15.311-10.914c0-6.033,6.857-10.918,15.311-10.918
	c4.051,0,7.725,1.131,10.459,2.959V96.699l61.777-9.594V151.7z"/>
</svg>
