<?xml version="1.0" encoding="utf-8"?>
<!DOCTYPE svg PUBLIC "-//W3C//DTD SVG 1.1//EN" "http://www.w3.org/Graphics/SVG/1.1/DTD/svg11.dtd">
<svg version="1.1" id="Layer_1" xmlns="http://www.w3.org/2000/svg" xmlns:xlink="http://www.w3.org/1999/xlink" x="0px" y="0px"
	 width="295.615px" height="200.001px" viewBox="0 0 295.615 200.001" enable-background="new 0 0 295.615 200.001"
	 xml:space="preserve">
<linearGradient id="gradient" gradientUnits="userSpaceOnUse" x1="17.1387" y1="200.001" x2="17.1387" y2="0">
	<stop  offset="0" style="stop-color:#404040"/>
	<stop  offset="1" style="stop-color:#A0A0A0"/>
</linearGradient>
<g>
	<path fill="#C0C0C0" d="M60.145,78.995l-0.869-16.904c-0.207-4.594-0.557-10.749-0.406-15.979h-0.221
		c-0.867,5.154-2.156,11.104-3.08,14.83l-4.146,17.264h-6.664l-4.016-16.977c-0.924-3.869-2.232-9.888-2.949-15.117h-0.215
		c-0.137,5.229-0.426,11.317-0.709,16.119l-0.793,16.764h-8.088l3.5-48.289h9.895l3.865,17.48
		c1.371,6.091,2.576,11.469,3.445,16.908h0.137c0.73-5.367,1.785-10.817,3.08-16.908l3.797-17.48h9.895l2.941,48.289H60.145z"/>
	<path fill="#C0C0C0" d="M114.9,79.567c-3.797,0-7.09-0.938-9.158-2.082l1.352-7.379c1.867,1.078,4.443,1.797,6.951,1.797
		c4.514,0,7.016-2.793,7.016-6.732c0-5.166-3.936-7.383-8.738-7.383h-1.301v-6.877h0.936c3.459-0.072,7.891-1.502,7.891-6.015
		c0-3.37-2.15-5.378-5.457-5.378c-2.068,0-4.141,0.789-5.857,1.863l-1.227-7.09c1.93-1.223,5.74-2.438,9.598-2.438
		c8.18,0,12.252,5.302,12.252,11.248c0,4.654-2.57,8.529-6.656,10.462v0.139c4.514,1.509,7.957,5.521,7.957,11.822
		C130.457,72.618,125.008,79.567,114.9,79.567z"/>
	<path fill="#C0C0C0" d="M98.35,34.22c-3.148-2.938-7.531-3.728-13.111-3.728c-3.598,0-7.16,0.362-9.818,0.934v47.569h9.391V61.013
		h1.861c3.865,0,8.736-1.438,11.746-4.586c2.508-2.725,4.086-6.377,4.086-11.606C102.504,40.738,101.209,36.725,98.35,34.22z
		 M86.307,53.491c-0.572,0-1.068,0-1.496-0.145V38.443c0.559-0.21,1.426-0.354,2.287-0.354c4.369,0,6.092,3.293,6.092,7.517
		C93.189,50.122,91.047,53.491,86.307,53.491z"/>
</g>
<g>
	<path fill="#C0C0C0" d="M203.555,79.567h-9.102l-2.707-15.758c-0.738-4.512-1.406-10.035-2.02-15.906h-0.123
		c-0.814,5.809-1.559,11.176-2.502,15.906l-3.039,15.758h-8.764l-7.744-48.286h9.164l2.232,19.203
		c0.592,5.584,0.998,11.103,1.543,16.981h0.207c0.6-5.951,1.611-11.184,2.57-16.981l3.225-19.203h7.15l3.025,19.058
		c0.807,5.447,1.613,10.818,2.156,17.127h0.139c0.605-6.309,1.137-11.463,1.75-17.051l2.225-19.134h8.635L203.555,79.567z"/>
	<path fill="#C0C0C0" d="M261.047,79.567h-9.916l-10.176-48.286h9.77l3.232,20.846c0.813,5.165,1.764,11.11,2.355,16.765h0.152
		c0.592-5.73,1.336-11.531,2.15-16.975l3.1-20.636h9.709L261.047,79.567z"/>
	<path fill="#C0C0C0" d="M232.363,31.281h-10.584l-9.846,48.286h8.572l2.012-11.035h8.172l1.949,11.035h8.564L232.363,31.281z
		 M223.398,61.229l1.689-10.029c0.475-2.797,1.15-7.81,1.619-11.03h0.199c0.406,3.221,1.02,8.017,1.488,10.958l1.48,10.102H223.398z
		"/>
</g>
<g>
	<path fill="#C0C0C0" d="M56.266,168.192h-8.441l-2.494-15.766c-0.695-4.51-1.309-10.021-1.881-15.902h-0.117
		c-0.75,5.805-1.447,11.18-2.322,15.902l-2.805,15.766H30.09l-7.193-48.283h8.494l2.061,19.195
		c0.564,5.588,0.938,11.104,1.441,16.979h0.186c0.564-5.943,1.508-11.174,2.383-16.979l2.99-19.195h6.629l2.805,19.051
		c0.75,5.453,1.502,10.822,1.998,17.123h0.123c0.566-6.301,1.068-11.463,1.627-17.043l2.066-19.131h8L56.266,168.192z"/>
	<path fill="#C0C0C0" d="M94.629,168.192l-0.758-16.906c-0.18-4.588-0.502-10.748-0.379-15.977h-0.186
		c-0.738,5.156-1.867,11.105-2.682,14.83l-3.623,17.268h-5.809l-3.508-16.979c-0.813-3.871-1.936-9.891-2.563-15.119h-0.186
		c-0.125,5.229-0.373,11.316-0.627,16.121l-0.682,16.762h-7.063l3.064-48.283h8.627l3.369,17.475
		c1.186,6.096,2.254,11.467,2.998,16.91h0.123c0.621-5.371,1.564-10.814,2.688-16.91l3.314-17.475h8.619l2.564,48.283H94.629z"/>
	<path fill="#C0C0C0" d="M123.74,119.909h-9.805l-9.129,48.283h7.93l1.881-11.027h7.559l1.813,11.027h7.938L123.74,119.909z
		 M115.43,149.851l1.572-10.029c0.426-2.789,1.047-7.807,1.488-11.039h0.186c0.371,3.232,0.938,8.031,1.379,10.971l1.371,10.098
		H115.43z"/>
</g>
<g>
	<path fill="#C0C0C0" d="M231.846,167.472c-2.074,0.861-6.51,1.727-10.025,1.727c-5.518,0-9.68-1.578-12.898-4.803
		c-4.16-4.014-6.373-11.18-6.229-19.486c0.207-17.557,10.24-24.861,20.484-24.861c3.66,0,6.389,0.719,7.877,1.43l-1.633,8.094
		c-1.365-0.637-3.15-1.07-5.527-1.07c-6.379,0-11.465,4.367-11.465,16.977c0,11.611,4.52,15.766,8.881,15.766
		c0.875,0,1.51-0.068,1.867-0.213v-11.684h-4.291v-7.662h12.959V167.472z"/>
	<path fill="#C0C0C0" d="M265.67,167.472c-2.074,0.861-6.525,1.727-10.025,1.727c-5.52,0-9.674-1.578-12.898-4.803
		c-4.154-4.014-6.381-11.18-6.234-19.486c0.213-17.557,10.244-24.861,20.49-24.861c3.652,0,6.373,0.719,7.869,1.43l-1.633,8.094
		c-1.365-0.637-3.164-1.07-5.527-1.07c-6.373,0-11.471,4.367-11.471,16.977c0,11.611,4.533,15.766,8.902,15.766
		c0.854,0,1.494-0.068,1.859-0.213v-11.684h-4.307v-7.662h12.975V167.472z"/>
	<path fill="#C0C0C0" d="M184.125,119.909c-10.672,0-15.91,11.393-15.91,24.566c0,13.258,4.314,24.863,15.27,24.863
		c9.17,0,15.613-7.379,15.613-25.576C199.098,132.724,195.797,119.909,184.125,119.909z M183.836,161.175
		c-3.797,0-5.877-5.592-5.877-16.555c0-10.387,2.08-16.545,5.809-16.545c4.23,0,5.518,7.656,5.518,16.111
		C189.285,154.005,187.783,161.175,183.836,161.175z"/>
</g>
<path fill="#808080" d="M261.096,0H34.527C15.482,0,0,15.485,0,34.52v130.96c0,19.035,15.482,34.521,34.527,34.521h226.568
	c19.037,0,34.52-15.486,34.52-34.521V34.52C295.615,15.485,280.133,0,261.096,0z M261.096,10.418
	c13.318,0,24.107,10.79,24.107,24.102V96.79H151.018V10.418H261.096z M34.527,10.418h110.068V96.79H10.418V34.52
	C10.418,21.208,21.207,10.418,34.527,10.418z M10.418,165.483v-62.27h134.178v86.375H34.527
	C21.207,189.589,10.418,178.796,10.418,165.483z M261.096,189.589H151.018v-86.375h134.186v62.27
	C285.203,178.796,274.414,189.589,261.096,189.589z"/>
</svg>
