<?xml version="1.0" encoding="utf-8"?>
<!DOCTYPE svg PUBLIC "-//W3C//DTD SVG 1.1//EN" "http://www.w3.org/Graphics/SVG/1.1/DTD/svg11.dtd">
<svg version="1.1" id="Layer_1" xmlns="http://www.w3.org/2000/svg" xmlns:xlink="http://www.w3.org/1999/xlink" x="0px" y="0px"
	 width="353.026px" height="200.001px" viewBox="0 0 353.026 200.001" enable-background="new 0 0 353.026 200.001"
	 xml:space="preserve">
<linearGradient id="gradient" gradientUnits="userSpaceOnUse" x1="17.1387" y1="200.001" x2="17.1387" y2="0">
	<stop  offset="0" style="stop-color:#404040"/>
	<stop  offset="1" style="stop-color:#A0A0A0"/>
</linearGradient>
<path fill="#C0C0C0" d="M176.509,0C98.043,0,30.379,34.085,0,98.97v1.495c30.379,64.884,98.043,98.981,176.509,98.981
	c78.48,0,146.135-34.098,176.518-98.981V98.97C322.644,34.085,254.989,0,176.509,0z M176.509,200.001
	c-55.036,0-99.663-44.617-99.663-99.66c0-55.045,44.627-99.662,99.663-99.662c55.049,0,99.65,44.617,99.65,99.662
	C276.159,155.384,231.558,200.001,176.509,200.001z"/>
<path fill="#808080" d="M176.511,37.823c-34.48,0-62.53,28.032-62.53,62.511c0,34.485,28.05,62.53,62.53,62.53
	c34.482,0,62.512-28.045,62.512-62.53C239.022,65.855,210.993,37.823,176.511,37.823z M176.509,144.962
	c-24.65,0-44.621-19.975-44.621-44.621c0-24.649,19.971-44.62,44.621-44.62c24.645,0,44.623,19.971,44.623,44.62
	C221.132,124.987,201.165,144.962,176.509,144.962z"/>
</svg>
