<?xml version="1.0" encoding="utf-8"?>
<svg version="1.1" id="Layer_1" xmlns="http://www.w3.org/2000/svg" xmlns:xlink="http://www.w3.org/1999/xlink" x="0px" y="0px"
	 width="50.036px" height="28.347px" viewBox="0 0 50.036 28.347" enable-background="new 0 0 50.036 28.347" xml:space="preserve">
<linearGradient id="gradient" gradientUnits="userSpaceOnUse" x1="17.1387" y1="28.3467" x2="17.1387" y2="4.882813e-004">
	<stop  offset="0" style="stop-color:#404040"/>
	<stop  offset="1" style="stop-color:#A0A0A0"/>
</linearGradient>
<path fill="#C0C0C0" d="M25.017,0C13.896,0,4.306,4.831,0,14.027v0.212c4.306,9.196,13.896,14.029,25.017,14.029
	c11.124,0,20.712-4.833,25.019-14.029v-0.212C45.729,4.831,36.141,0,25.017,0z M25.017,28.347c-7.8,0-14.125-6.324-14.125-14.125
	c0-7.802,6.325-14.125,14.125-14.125c7.802,0,14.124,6.324,14.124,14.125C39.141,22.022,32.819,28.347,25.017,28.347z"/>
<path fill="#808080" d="M25.018,5.361c-4.887,0-8.863,3.973-8.863,8.86c0,4.888,3.976,8.862,8.863,8.862s8.86-3.975,8.86-8.862
	C33.877,9.334,29.905,5.361,25.018,5.361z M25.017,20.546c-3.494,0-6.324-2.831-6.324-6.324c0-3.494,2.831-6.324,6.324-6.324
	c3.493,0,6.325,2.831,6.325,6.324C31.342,17.715,28.512,20.546,25.017,20.546z"/>
</svg>
