<?xml version="1.0" encoding="utf-8"?>
<!DOCTYPE svg PUBLIC "-//W3C//DTD SVG 1.1//EN" "http://www.w3.org/Graphics/SVG/1.1/DTD/svg11.dtd">
<svg version="1.1" id="Layer_1" xmlns="http://www.w3.org/2000/svg" xmlns:xlink="http://www.w3.org/1999/xlink" x="0px" y="0px"
	 width="199.996px" height="200.001px" viewBox="0 0 199.996 200.001" enable-background="new 0 0 199.996 200.001"
	 xml:space="preserve">
<linearGradient id="gradient" gradientUnits="userSpaceOnUse" x1="17.1387" y1="200.001" x2="17.1387" y2="0">
	<stop  offset="0" style="stop-color:#404040"/>
	<stop  offset="1" style="stop-color:#A0A0A0"/>
</linearGradient>
<path fill="#808080" d="M99.994,0C44.77,0,0,44.773,0,99.999c0,55.221,44.77,100.002,99.994,100.002
	c55.23,0,100.002-44.781,100.002-100.002C199.996,44.773,155.225,0,99.994,0z M99.994,179.874
	c-44.031,0-79.868-35.836-79.868-79.879c0-44.035,35.837-79.872,79.868-79.872c44.035,0,79.873,35.837,79.873,79.872
	C179.867,144.038,144.029,179.874,99.994,179.874z"/>
<path fill="#C0C0C0" d="M146.268,100.002c0-25.556-20.723-46.268-46.273-46.268c-25.552,0-46.264,20.712-46.264,46.268
	c0,25.552,20.712,46.261,46.264,46.261C125.545,146.263,146.268,125.554,146.268,100.002z"/>
</svg>
