<?xml version="1.0" encoding="utf-8"?>
<!DOCTYPE svg PUBLIC "-//W3C//DTD SVG 1.1//EN" "http://www.w3.org/Graphics/SVG/1.1/DTD/svg11.dtd">
<svg version="1.1" id="Layer_1" xmlns="http://www.w3.org/2000/svg" xmlns:xlink="http://www.w3.org/1999/xlink" x="0px" y="0px"
	 width="203.908px" height="199.999px" viewBox="0 0 203.908 199.999" enable-background="new 0 0 203.908 199.999"
	 xml:space="preserve">
<linearGradient id="gradient" gradientUnits="userSpaceOnUse" x1="17.1387" y1="199.999" x2="17.1387" y2="0">
	<stop  offset="0" style="stop-color:#404040"/>
	<stop  offset="1" style="stop-color:#A0A0A0"/>
</linearGradient>
<path fill="#C0C0C0" d="M153.031,177.363c14.744-13.525,24.047-32.896,24.047-54.486c0-40.881-33.143-74.019-74.016-74.019
	c-40.879,0-74.02,33.138-74.02,74.019c0,21.59,9.301,40.961,24.047,54.486l-6.305,11.48c-2.041,3.713-0.793,8.309,2.783,10.271
	c3.568,1.965,8.123,0.545,10.162-3.168l5.299-9.66c11.129,6.689,24.102,10.604,38.033,10.604c13.926,0,26.906-3.914,38.027-10.604
	l5.307,9.66c2.031,3.713,6.586,5.133,10.156,3.168c3.576-1.963,4.822-6.559,2.783-10.271L153.031,177.363z M103.057,184.557
	c-34.01,0-61.668-27.664-61.668-61.684c0-34.011,27.658-61.671,61.668-61.671c34.018,0,61.688,27.66,61.688,61.671
	C164.744,156.893,137.074,184.557,103.057,184.557z"/>
<path fill="#808080" d="M136.109,123.379c-1.076-2.604-4.066-3.855-6.67-2.793l-20.656,8.463c-1.586-1.146-3.521-1.838-5.623-1.838
	c-2.033,0-3.914,0.633-5.471,1.707l-20.34-8.332c-2.611-1.063-5.596,0.189-6.67,2.793c-1.074,2.611,0.186,5.602,2.791,6.67
	l20.174,8.266c0.703,4.639,4.678,8.205,9.516,8.205c4.762,0,8.703-3.459,9.488-8.002l20.67-8.469
	C135.916,128.98,137.178,125.99,136.109,123.379z"/>
<g>
	<path fill="#C0C0C0" d="M116.713,101.896c1.061-4.258,5.602-7.469,11.018-7.469c5.422,0,9.963,3.211,11.023,7.469h6.182
		c-1.061-7.676-8.311-13.633-17.205-13.633c-8.889,0-16.137,5.957-17.197,13.633H116.713z"/>
	<path fill="#C0C0C0" d="M67.373,101.896c1.061-4.258,5.602-7.469,11.018-7.469c5.422,0,9.963,3.211,11.023,7.469h6.18
		c-1.061-7.676-8.316-13.633-17.203-13.633c-8.889,0-16.145,5.957-17.205,13.633H67.373z"/>
</g>
<path fill="#808080" d="M55.906,28.632c-17.563,0-31.797,14.238-31.797,31.806c0,8.02,3.066,15.255,7.957,20.85
	C43.299,62.894,61.654,49.341,83.33,44.586C77.832,35.092,67.676,28.632,55.906,28.632z"/>
<path fill="#808080" d="M122.797,44.586c21.67,4.755,40.031,18.308,51.256,36.701c4.893-5.595,7.965-12.83,7.965-20.85
	c0-17.567-14.242-31.806-31.805-31.806C138.451,28.632,128.295,35.092,122.797,44.586z"/>
<path fill="#C0C0C0" d="M52.504,22.679 M18.486,48.417C22,33.658,35.277,22.651,51.111,22.651c0.469,0,0.924,0.007,1.393,0.027
	l0.191-5.433l0,0c-0.523-0.024-1.053-0.038-1.584-0.038c-18.582,0-34.148,13.05-38.047,30.458 M18.486,48.417 M13.064,47.666"/>
<path fill="#C0C0C0" d="M52.518,4.158c-0.477-0.014-0.945-0.018-1.42-0.018C25.832,4.141,4.617,22.021,0,46.392l5.416,0.571
	C9.723,25.369,28.643,9.584,51.105,9.584c0.523,0,1.053,0.007,1.576,0.027"/>
<path fill="#C0C0C0" d="M151.412,22.679 M190.844,47.666c-3.893-17.408-19.457-30.458-38.039-30.458
	c-0.531,0-1.068,0.014-1.592,0.038l0,0l0.199,5.433c0.461-0.021,0.924-0.027,1.393-0.027c15.826,0,29.109,11.007,32.625,25.766
	 M185.43,48.417 M190.844,47.666"/>
<path fill="#C0C0C0" d="M151.391,4.158c0.477-0.014,0.951-0.018,1.428-0.018c25.266,0,46.48,17.88,51.09,42.251l-5.408,0.571
	c-4.307-21.594-23.227-37.379-45.689-37.379c-0.523,0-1.055,0.007-1.578,0.027"/>
<line fill="#808080" x1="55.369" y1="6.173" x2="55.184" y2="0"/>
</svg>
