<?xml version="1.0" encoding="utf-8"?>
<svg version="1.1" id="Layer_1" xmlns="http://www.w3.org/2000/svg" xmlns:xlink="http://www.w3.org/1999/xlink" x="0px" y="0px"
	 width="28.9px" height="28.346px" viewBox="0 0 28.9 28.346" enable-background="new 0 0 28.9 28.346" xml:space="preserve">
<linearGradient id="gradient" gradientUnits="userSpaceOnUse" x1="17.1387" y1="28.3467" x2="17.1387" y2="4.882813e-004">
	<stop  offset="0" style="stop-color:#404040"/>
	<stop  offset="1" style="stop-color:#A0A0A0"/>
</linearGradient>
<path fill="#C0C0C0" d="M21.689,25.138c2.09-1.917,3.408-4.663,3.408-7.723c0-5.794-4.697-10.491-10.49-10.491
	c-5.794,0-10.491,4.697-10.491,10.491c0,3.06,1.318,5.806,3.408,7.723l-0.894,1.627c-0.289,0.526-0.112,1.178,0.395,1.456
	c0.506,0.278,1.151,0.077,1.44-0.449l0.751-1.369c1.577,0.948,3.416,1.503,5.391,1.503c1.974,0,3.813-0.555,5.39-1.503l0.752,1.369
	c0.288,0.526,0.934,0.728,1.439,0.449c0.507-0.278,0.684-0.93,0.395-1.456L21.689,25.138z M14.606,26.158
	c-4.82,0-8.74-3.921-8.74-8.743c0-4.82,3.92-8.74,8.74-8.74c4.821,0,8.743,3.92,8.743,8.74
	C23.35,22.237,19.428,26.158,14.606,26.158z"/>
<path fill="#808080" d="M19.291,17.487c-0.152-0.369-0.576-0.547-0.945-0.396l-2.928,1.2c-0.225-0.163-0.499-0.261-0.797-0.261
	c-0.288,0-0.555,0.09-0.775,0.242l-2.883-1.182c-0.37-0.15-0.793,0.027-0.945,0.396c-0.152,0.37,0.026,0.794,0.396,0.945
	l2.859,1.172c0.1,0.657,0.663,1.162,1.349,1.162c0.675,0,1.233-0.49,1.345-1.134l2.93-1.2
	C19.264,18.281,19.442,17.857,19.291,17.487z"/>
<g>
	<path fill="#C0C0C0" d="M16.542,14.442c0.15-0.604,0.794-1.059,1.562-1.059c0.769,0,1.412,0.455,1.563,1.059h0.876
		c-0.15-1.088-1.178-1.932-2.438-1.932c-1.26,0-2.287,0.844-2.438,1.932H16.542z"/>
	<path fill="#C0C0C0" d="M9.549,14.442c0.15-0.604,0.794-1.059,1.562-1.059c0.769,0,1.412,0.455,1.563,1.059h0.876
		c-0.15-1.088-1.179-1.932-2.438-1.932s-2.288,0.844-2.438,1.932H9.549z"/>
</g>
<path fill="#808080" d="M7.924,4.058c-2.489,0-4.507,2.018-4.507,4.508c0,1.137,0.435,2.162,1.128,2.955
	c1.592-2.607,4.193-4.528,7.266-5.202C11.031,4.974,9.592,4.058,7.924,4.058z"/>
<path fill="#808080" d="M17.404,6.319c3.071,0.674,5.674,2.595,7.265,5.202c0.693-0.793,1.129-1.818,1.129-2.955
	c0-2.49-2.019-4.508-4.508-4.508C19.623,4.058,18.184,4.974,17.404,6.319z"/>
<path fill="#C0C0C0" d="M7.441,3.214 M2.62,6.862C3.118,4.771,5,3.21,7.244,3.21c0.066,0,0.131,0.001,0.197,0.004l0.027-0.77l0,0
	C7.395,2.441,7.319,2.439,7.244,2.439c-2.634,0-4.84,1.85-5.393,4.317 M2.62,6.862 M1.852,6.756"/>
<path fill="#C0C0C0" d="M7.443,0.589C7.376,0.587,7.31,0.587,7.242,0.587C3.661,0.587,0.654,3.121,0,6.575l0.768,0.081
	c0.61-3.061,3.292-5.298,6.476-5.298c0.074,0,0.149,0.001,0.224,0.004"/>
<path fill="#C0C0C0" d="M21.46,3.214 M27.049,6.756c-0.552-2.467-2.758-4.317-5.392-4.317c-0.075,0-0.151,0.002-0.226,0.005l0,0
	l0.028,0.77c0.065-0.003,0.131-0.004,0.197-0.004c2.243,0,4.126,1.56,4.624,3.652 M26.281,6.862 M27.049,6.756"/>
<path fill="#C0C0C0" d="M21.457,0.589c0.067-0.002,0.135-0.002,0.202-0.002c3.581,0,6.588,2.534,7.241,5.988l-0.767,0.081
	c-0.61-3.061-3.292-5.298-6.476-5.298c-0.074,0-0.149,0.001-0.224,0.004"/>
<line fill="#808080" x1="7.848" y1="0.875" x2="7.821" y2="0"/>
</svg>
