<?xml version="1.0" encoding="utf-8"?>
<!DOCTYPE svg PUBLIC "-//W3C//DTD SVG 1.1//EN" "http://www.w3.org/Graphics/SVG/1.1/DTD/svg11.dtd">
<svg version="1.1" id="Layer_1" xmlns="http://www.w3.org/2000/svg" xmlns:xlink="http://www.w3.org/1999/xlink" x="0px" y="0px"
	 width="264px" height="200px" viewBox="0 0 264 200" enable-background="new 0 0 264 200" xml:space="preserve">
<linearGradient id="gradient" gradientUnits="userSpaceOnUse" x1="17.1387" y1="200" x2="17.1387" y2="0">
	<stop  offset="0" style="stop-color:#404040"/>
	<stop  offset="1" style="stop-color:#A0A0A0"/>
</linearGradient>
<path fill="#808080" d="M156.209,175.787c0-13.363-10.836-24.201-24.205-24.201c-13.371,0-24.209,10.838-24.209,24.201
	c0,13.375,10.838,24.213,24.209,24.213C145.373,200,156.209,189.162,156.209,175.787z"/>
<path fill="#C0C0C0" d="M132.014,101.052c-24.712,0-46.595,12.103-60.21,30.634l13.57,13.568c9.974-15.188,27.141-25.25,46.63-25.25
	c19.488,0,36.652,10.063,46.627,25.252l13.566-13.566C178.592,113.154,156.715,101.052,132.014,101.052z M132.027,0
	C79.462,0,32.246,23.206,0,59.879l13.422,13.423c28.788-33.26,71.263-54.364,118.6-54.364c47.322,0,89.779,21.108,118.557,54.371
	L264,59.887C231.768,23.209,184.572,0,132.027,0z M132.027,50.522c-38.634,0-73.219,17.594-96.219,45.169l13.474,13.471
	c19.507-24.171,49.328-39.691,82.731-39.691c33.396,0,63.205,15.523,82.707,39.694l13.471-13.474
	C205.205,68.116,170.637,50.522,132.027,50.522z"/>
</svg>
