<?xml version="1.0" encoding="utf-8"?>
<svg version="1.1" id="Layer_1" xmlns="http://www.w3.org/2000/svg" xmlns:xlink="http://www.w3.org/1999/xlink" x="0px" y="0px"
	 width="37.417px" height="28.346px" viewBox="0 0 37.417 28.346" enable-background="new 0 0 37.417 28.346" xml:space="preserve">
<linearGradient id="gradient" gradientUnits="userSpaceOnUse" x1="17.1387" y1="28.3467" x2="17.1387" y2="4.882813e-004">
	<stop  offset="0" style="stop-color:#404040"/>
	<stop  offset="1" style="stop-color:#A0A0A0"/>
</linearGradient>
<circle fill="#808080" cx="18.709" cy="24.915" r="3.431"/>
<path fill="#C0C0C0" d="M18.71,14.323c-3.502,0-6.604,1.715-8.534,4.342l1.923,1.922c1.414-2.152,3.847-3.578,6.609-3.578
	c2.763,0,5.194,1.426,6.608,3.579l1.923-1.923C25.312,16.038,22.212,14.323,18.71,14.323z M18.712,0C11.262,0,4.57,3.289,0,8.487
	l1.902,1.902c4.08-4.714,10.1-7.705,16.809-7.705c6.708,0,12.725,2.992,16.803,7.706l1.902-1.902C32.849,3.29,26.159,0,18.712,0z
	 M18.712,7.161c-5.476,0-10.377,2.494-13.637,6.402l1.91,1.909c2.765-3.425,6.991-5.625,11.726-5.625
	c4.734,0,8.958,2.2,11.722,5.626l1.909-1.91C29.084,9.654,24.185,7.161,18.712,7.161z"/>
</svg>
