<?xml version="1.0" encoding="utf-8"?>
<!DOCTYPE svg PUBLIC "-//W3C//DTD SVG 1.1//EN" "http://www.w3.org/Graphics/SVG/1.1/DTD/svg11.dtd">
<svg version="1.1" id="Layer_1" xmlns="http://www.w3.org/2000/svg" xmlns:xlink="http://www.w3.org/1999/xlink" x="0px" y="0px"
	 width="200.004px" height="200.001px" viewBox="0 0 200.004 200.001" enable-background="new 0 0 200.004 200.001"
	 xml:space="preserve">
<linearGradient id="gradient" gradientUnits="userSpaceOnUse" x1="17.1387" y1="200.001" x2="17.1387" y2="0">
	<stop  offset="0" style="stop-color:#404040"/>
	<stop  offset="1" style="stop-color:#A0A0A0"/>
</linearGradient>
<path fill="#C0C0C0" d="M0,0v169.849c10.029-6.023,19.375-9.402,26.443-9.293c-1.516-5.943-0.027-12.484,4.621-17.123
	c4.229-4.236,10.063-5.861,15.555-4.977C26.025,110.714,28.232,71.358,53.4,46.198c27.684-27.684,72.561-27.688,100.252-0.007
	c27.689,27.693,27.684,72.571,0,100.259c-25.176,25.154-64.5,27.367-92.246,6.777c0.879,5.498-0.754,11.322-4.99,15.559
	c-4.648,4.648-11.195,6.143-17.125,4.621c0.102,7.102-3.313,16.508-9.393,26.594h170.105V0H0z"/>
<path fill="#808080" d="M141.578,58.278c-21.012-21.017-55.078-21.017-76.1-0.004c-21.012,21.006-21.006,55.083,0.008,76.096
	c21.027,21.016,55.08,21.016,76.092,0.01C162.592,113.364,162.598,79.294,141.578,58.278z M113.346,106.142v28.361H93.711v-28.361
	H65.35V86.507h28.361V58.145h19.635v28.362h28.363v19.635H113.346z"/>
</svg>
