<?xml version="1.0" encoding="utf-8"?>
<!DOCTYPE svg PUBLIC "-//W3C//DTD SVG 1.1//EN" "http://www.w3.org/Graphics/SVG/1.1/DTD/svg11.dtd">
<svg version="1.1" id="Layer_1" xmlns="http://www.w3.org/2000/svg" xmlns:xlink="http://www.w3.org/1999/xlink" x="0px" y="0px"
	 width="59.616px" height="100px" viewBox="0 0 59.616 100" enable-background="new 0 0 59.616 100" xml:space="preserve">
<linearGradient id="gradient" gradientUnits="userSpaceOnUse" x1="17.1387" y1="100" x2="17.1387" y2="0">
	<stop offset="0" style="stop-color:#404040"/>
	<stop offset="1" style="stop-color:#A0A0A0"/>
</linearGradient>
<rect x="10.394" y="37.851" fill="#808080" width="38.829" height="11.264"/>
<path fill="#808080" d="M55.221,37.088v4.121h-4.533v4.945h4.533v10.584c0,11.584-9.426,21.008-21.01,21.008h-8.808
	c-11.584,0-21.008-9.424-21.008-21.008V46.154h4.534v-4.945H4.395v-4.121H0v19.65c0,14.008,11.396,25.404,25.404,25.404h1.588V94.78
	H13.119c-1.441,0-2.61,1.169-2.61,2.61S11.677,100,13.119,100h33.379c1.441,0,2.61-1.168,2.61-2.609s-1.169-2.61-2.61-2.61H32.624
	V82.143h1.588c14.008,0,25.404-11.396,25.404-25.404v-19.65H55.221z"/>
<path fill="#C0C0C0" d="M40.866,1.793v16.339h-4.533V0.185C35.641,0.073,34.936,0,34.212,0h-2.138v18.132h-4.533V0h-2.138
	c-0.723,0-1.428,0.073-2.12,0.185v17.947H18.75V1.793c-3.979,2.303-6.662,6.595-6.662,11.522v22.776h35.439V13.315
	C47.528,8.388,44.844,4.096,40.866,1.793z M12.088,56.739c0,7.354,5.961,13.315,13.315,13.315h8.809
	c7.354,0,13.315-5.961,13.315-13.315v-5.867H12.088V56.739z"/>
</svg>
