<?xml version="1.0" encoding="utf-8"?>
<!DOCTYPE svg PUBLIC "-//W3C//DTD SVG 1.1//EN" "http://www.w3.org/Graphics/SVG/1.1/DTD/svg11.dtd">
<svg version="1.1" id="Layer_1" xmlns="http://www.w3.org/2000/svg" xmlns:xlink="http://www.w3.org/1999/xlink" x="0px" y="0px"
	 width="128.352px" height="99.979px" viewBox="0 0 128.352 99.979" enable-background="new 0 0 128.352 99.979"
	 xml:space="preserve">
<linearGradient id="gradient" gradientUnits="userSpaceOnUse" x1="17.1387" y1="99.979" x2="17.1387" y2="0">
	<stop offset="0" style="stop-color:#404040"/>
	<stop offset="1" style="stop-color:#A0A0A0"/>
</linearGradient>
<path fill="#C0C0C0" d="M64.176,0C36.567,0,14.187,22.38,14.187,49.989s22.38,49.99,49.989,49.99
	c27.608,0,49.989-22.381,49.989-49.99S91.784,0,64.176,0z M84.171,44.99c0,2.761-2.238,4.999-4.998,4.999
	c-2.761,0-4.999-2.238-4.999-4.999c0-2.76,2.238-4.999,4.999-4.999C81.933,39.991,84.171,42.23,84.171,44.99z M51.366,5.128
	c4.063-1.206,8.356-1.877,12.81-1.877c4.454,0,8.747,0.671,12.81,1.877v11.245H51.366V5.128z M49.179,39.991
	c2.76,0,4.999,2.239,4.999,4.999c0,2.761-2.238,4.999-4.999,4.999c-2.761,0-4.999-2.238-4.999-4.999
	C44.18,42.23,46.418,39.991,49.179,39.991z M64.176,85.049c-11.101,0-20.134-8.757-20.628-19.736h3.749
	c0.493,8.893,7.868,15.986,16.881,15.986s16.381-7.094,16.875-15.986h3.75C84.31,76.292,75.276,85.049,64.176,85.049z"/>
<g>
	<path fill="#808080" d="M11.622,49.989c0-4.214,0.551-8.292,1.488-12.219c-0.111-0.002-0.216-0.033-0.328-0.033
		C5.723,37.737,0,43.46,0,50.519c0,7.06,5.723,12.782,12.782,12.782c0.204,0,0.393-0.051,0.594-0.061
		C12.271,59,11.622,54.576,11.622,49.989z"/>
	<path fill="#808080" d="M116.729,49.989c0-4.214-0.551-8.292-1.488-12.219c0.111-0.002,0.217-0.033,0.328-0.033
		c7.06,0,12.782,5.723,12.782,12.782c0,7.06-5.723,12.782-12.782,12.782c-0.203,0-0.393-0.051-0.594-0.061
		C116.081,59,116.729,54.576,116.729,49.989z"/>
</g>
</svg>
