<?xml version="1.0" encoding="utf-8"?>
<!DOCTYPE svg PUBLIC "-//W3C//DTD SVG 1.1//EN" "http://www.w3.org/Graphics/SVG/1.1/DTD/svg11.dtd">
<svg version="1.1" id="pause" class="play" xmlns="http://www.w3.org/2000/svg" xmlns:xlink="http://www.w3.org/1999/xlink" x="0px" y="0px"
	 width="31.8px" height="31.799px" viewBox="0 0 31.8 31.799" enable-background="new 0 0 31.8 31.799" xml:space="preserve">
<linearGradient id="gradient" gradientUnits="userSpaceOnUse" x1="17.1387" y1="31.799" x2="17.1387" y2="0">
	<stop  offset="0" style="stop-color:#404040"/>
	<stop  offset="1" style="stop-color:#A0A0A0"/>
</linearGradient>
<path class="play2" fill="#808080" d="M0,15.899C0.002,7.118,7.12,0,15.901,0l0,0c8.78,0,15.897,7.118,15.899,15.899l0,0
	c-0.002,8.782-7.119,15.9-15.899,15.9l0,0C7.12,31.799,0.002,24.681,0,15.899L0,15.899z M1.8,15.899
	C1.814,23.685,8.114,29.984,15.901,30l0,0c7.786-0.016,14.085-6.314,14.1-14.1l0,0C29.986,8.112,23.687,1.814,15.901,1.8l0,0
	C8.114,1.814,1.814,8.112,1.8,15.899L1.8,15.899z"/>
<g>
	<polygon class="play1" fill="#C0C0C0" points="10.999,22.222 10.999,9.577 12.799,9.577 12.799,22.222 10.999,22.222 	"/>
	<polygon class="play1" fill="#C0C0C0" points="19,22.223 19,9.578 20.8,9.578 20.8,22.223 19,22.223 	"/>
</g>
</svg>
