<?xml version="1.0" encoding="utf-8"?>
<!DOCTYPE svg PUBLIC "-//W3C//DTD SVG 1.1//EN" "http://www.w3.org/Graphics/SVG/1.1/DTD/svg11.dtd">
<svg version="1.1" id="Layer_1" xmlns="http://www.w3.org/2000/svg" xmlns:xlink="http://www.w3.org/1999/xlink" x="0px" y="0px"
	 width="120.833px" height="99.856px" viewBox="0 0 120.833 99.856" enable-background="new 0 0 120.833 99.856"
	 xml:space="preserve">
<linearGradient id="gradient" gradientUnits="userSpaceOnUse" x1="17.1387" y1="99.856" x2="17.1387" y2="0">
	<stop offset="0" style="stop-color:#404040"/>
	<stop offset="1" style="stop-color:#A0A0A0"/>
</linearGradient>
<path fill="#808080" d="M48.669,35.663c-7.878,0-14.265,6.387-14.265,14.265s6.387,14.265,14.265,14.265
	c7.878,0,14.265-6.387,14.265-14.265S56.547,35.663,48.669,35.663z M48.669,53.284c-1.854,0-3.356-1.502-3.356-3.356
	c0-1.854,1.503-3.356,3.356-3.356s3.356,1.503,3.356,3.356C52.025,51.782,50.522,53.284,48.669,53.284z"/>
<path fill="#C0C0C0" d="M0,0v99.856h120.833V0H0z M48.669,92.303c-23.403,0-42.375-18.972-42.375-42.375S25.266,7.552,48.669,7.552
	c23.404,0,42.375,18.972,42.375,42.375S72.073,92.303,48.669,92.303z M108.59,30.065v4.434h-2.998v23.677
	c0,3.828-2.807,8.444-7.314,15.963c1.445,1.074,1.797,3.103,0.764,4.595l-8.314,12.027c-1.056,1.524-3.146,1.905-4.67,0.852
	l-2.877-1.989c-1.523-1.055-1.906-3.145-0.851-4.669l8.315-12.027c0.978-1.411,2.836-1.827,4.316-1.046
	c2.329-3.594,6.501-10.588,6.501-14.588V34.499h-2.94v-4.434c-3.25-1.782-5.455-5.234-5.455-9.202s2.205-7.419,5.455-9.202V7.228
	h10.068v4.434c3.25,1.782,5.455,5.234,5.455,9.202S111.84,28.283,108.59,30.065z"/>
</svg>
